<svg width="450" height="300" viewBox="0 0 450 300" fill="none" xmlns="http://www.w3.org/2000/svg">
<rect width="450" height="300" fill="white"/>
<path d="M130 150H260C260 172.82 253.993 195.238 242.583 215C231.173 234.762 214.762 251.173 195 262.583C175.238 273.993 152.82 280 130 280C107.18 280 84.7625 273.993 65 262.583L130 150Z" fill="url(#paint0_linear_55_203)"/>
<path d="M130 150L65 262.583C45.2375 251.173 28.8266 234.762 17.4167 215C6.00681 195.238 0 172.82 0 150H130Z" fill="url(#paint1_linear_55_203)"/>
<path d="M130 150H0C0 127.18 6.00681 104.763 17.4167 85C28.8266 65.2376 45.2375 48.8266 65 37.4167L130 150Z" fill="url(#paint2_linear_55_203)"/>
<path d="M130 150L65 37.4167C84.7625 26.0068 107.18 20 130 20C152.82 20 175.238 26.0068 195 37.4167L130 150Z" fill="url(#paint3_linear_55_203)"/>
<path d="M130 150L195 37.4167C214.762 48.8266 231.173 65.2376 242.583 85C253.993 104.763 260 127.18 260 150H130Z" fill="url(#paint4_linear_55_203)"/>
<path d="M130 215C165.899 215 195 185.899 195 150C195 114.101 165.899 85 130 85C94.1015 85 65 114.101 65 150C65 185.899 94.1015 215 130 215Z" fill="white"/>
<path d="M120.68 140.168C120.851 140.104 121.096 140.072 121.416 140.072C121.736 140.072 122.003 140.104 122.216 140.168C122.429 140.232 122.771 140.296 123.24 140.36C123.688 140.424 124.04 140.509 124.296 140.616C124.531 140.701 124.68 140.744 124.744 140.744C124.936 140.744 125.437 140.989 126.248 141.48C126.675 141.736 127.176 142.227 127.752 142.952C128.349 143.677 128.648 144.179 128.648 144.456C128.648 144.52 128.701 144.659 128.808 144.872C128.936 145.085 129 145.459 129 145.992C129 146.504 128.936 146.867 128.808 147.08C128.701 147.272 128.637 147.453 128.616 147.624C128.595 147.795 128.531 147.944 128.424 148.072C128.317 148.221 128.264 148.317 128.264 148.36C128.264 148.403 128.221 148.499 128.136 148.648C128.051 148.755 128.019 148.84 128.04 148.904C128.061 148.947 128.2 149.075 128.456 149.288C128.989 149.736 129.469 150.259 129.896 150.856C130.344 151.432 130.568 151.848 130.568 152.104C130.568 152.168 130.621 152.317 130.728 152.552C131.005 153.107 131.133 153.875 131.112 154.856C131.112 155.816 130.973 156.541 130.696 157.032C130.589 157.267 130.536 157.405 130.536 157.448C130.536 157.491 130.472 157.608 130.344 157.8C130.216 157.992 130.152 158.099 130.152 158.12C130.152 158.163 130.024 158.333 129.768 158.632C129.512 158.909 129.267 159.155 129.032 159.368C128.52 159.859 128.093 160.147 127.752 160.232C127.624 160.253 127.485 160.317 127.336 160.424C127.208 160.531 127.112 160.584 127.048 160.584C126.963 160.584 126.707 160.659 126.28 160.808C125.875 160.936 125.608 161 125.48 161C125.352 161 125.139 161.053 124.84 161.16C124.584 161.245 124.2 161.309 123.688 161.352C123.219 161.373 122.877 161.405 122.664 161.448C122.493 161.491 122.056 161.512 121.352 161.512C119.027 161.512 117.725 161.213 117.448 160.616C117.384 160.488 117.341 157.704 117.32 152.264C117.299 146.803 117.32 143.645 117.384 142.792C117.448 142.024 117.693 141.437 118.12 141.032C118.547 140.627 119.197 140.381 120.072 140.296C120.328 140.275 120.531 140.232 120.68 140.168ZM122.408 143.624C122.152 143.539 121.832 143.496 121.448 143.496C121.085 143.496 120.883 143.549 120.84 143.656C120.776 143.741 120.744 144.435 120.744 145.736C120.765 147.016 120.797 147.688 120.84 147.752C120.925 147.859 121.427 147.891 122.344 147.848C123.283 147.784 123.891 147.688 124.168 147.56C124.723 147.325 125.043 147.144 125.128 147.016C125.213 146.867 125.288 146.749 125.352 146.664C125.672 146.216 125.555 145.672 125 145.032C124.467 144.371 123.784 143.955 122.952 143.784C122.824 143.763 122.643 143.709 122.408 143.624ZM124.968 151.368C124.819 151.304 124.456 151.261 123.88 151.24C123.325 151.219 122.931 151.229 122.696 151.272C122.525 151.293 122.237 151.304 121.832 151.304C121.555 151.325 121.341 151.357 121.192 151.4C121.064 151.443 120.936 151.528 120.808 151.656C120.701 151.763 120.627 151.987 120.584 152.328C120.563 152.669 120.541 153.053 120.52 153.48C120.499 153.885 120.499 154.493 120.52 155.304C120.52 155.411 120.52 155.56 120.52 155.752C120.52 156.861 120.531 157.512 120.552 157.704C120.595 157.896 120.712 158.003 120.904 158.024C120.947 158.045 120.979 158.056 121 158.056C121.213 158.077 121.704 158.077 122.472 158.056C123.24 158.035 123.699 158.003 123.848 157.96C123.955 157.917 124.253 157.832 124.744 157.704C125.363 157.533 125.917 157.363 126.408 157.192C126.515 157.149 126.643 157.053 126.792 156.904C126.963 156.733 127.069 156.595 127.112 156.488C127.176 156.36 127.261 156.243 127.368 156.136C127.56 155.923 127.656 155.443 127.656 154.696C127.656 153.949 127.56 153.437 127.368 153.16C127.283 153.032 127.187 152.872 127.08 152.68C126.867 152.211 126.387 151.848 125.64 151.592C125.256 151.464 125.032 151.389 124.968 151.368ZM136.046 140.488C136.366 140.381 137.368 140.349 139.054 140.392C140.739 140.413 141.699 140.477 141.934 140.584C142.339 140.755 142.606 140.979 142.734 141.256C142.883 141.512 142.958 141.885 142.958 142.376C142.936 142.739 142.883 142.995 142.798 143.144C142.712 143.272 142.52 143.432 142.222 143.624C141.987 143.752 141.71 143.827 141.39 143.848C141.091 143.869 140.206 143.88 138.734 143.88C138.563 143.88 138.339 143.88 138.062 143.88C136.76 143.901 136.003 143.933 135.79 143.976C135.576 144.019 135.459 144.179 135.438 144.456C135.438 144.52 135.438 144.573 135.438 144.616C135.416 144.979 135.363 145.299 135.278 145.576C135.192 145.789 135.15 146.355 135.15 147.272C135.15 148.189 135.192 148.723 135.278 148.872C135.363 149.043 135.811 149.043 136.622 148.872C136.899 148.787 137.486 148.744 138.382 148.744C139.235 148.744 139.864 148.712 140.27 148.648C140.824 148.52 141.23 148.509 141.486 148.616C141.678 148.68 141.848 148.744 141.998 148.808C142.147 148.851 142.339 148.989 142.574 149.224L142.926 149.576V150.376C142.926 150.781 142.915 151.037 142.894 151.144C142.872 151.229 142.787 151.336 142.638 151.464C142.36 151.741 142.083 151.912 141.806 151.976C141.528 152.04 140.984 152.072 140.174 152.072C139.214 152.072 138.574 152.125 138.254 152.232C137.955 152.339 137.443 152.392 136.718 152.392C136.099 152.371 135.704 152.381 135.534 152.424C135.363 152.445 135.256 152.509 135.214 152.616C135.171 152.723 135.15 153.576 135.15 155.176C135.15 156.776 135.171 157.629 135.214 157.736C135.256 157.843 135.416 157.907 135.694 157.928C135.971 157.949 136.91 157.96 138.51 157.96C138.552 157.96 138.606 157.96 138.67 157.96C140.334 157.96 141.326 157.992 141.646 158.056C141.966 158.099 142.275 158.312 142.574 158.696C142.574 158.717 142.584 158.739 142.606 158.76C142.84 159.08 142.915 159.496 142.83 160.008C142.744 160.499 142.531 160.84 142.19 161.032C141.784 161.245 141.358 161.373 140.91 161.416C140.483 161.459 139.331 161.48 137.454 161.48L133.934 161.512L133.39 161.256C133.112 161.107 132.856 160.915 132.622 160.68C132.387 160.445 132.259 160.243 132.238 160.072C132.216 159.965 132.163 159.805 132.078 159.592C132.014 159.4 131.971 158.643 131.95 157.32C131.928 155.997 131.886 155.165 131.822 154.824C131.736 154.163 131.726 152.328 131.79 149.32C131.854 146.312 131.939 144.637 132.046 144.296C132.11 144.061 132.163 143.667 132.206 143.112C132.248 142.195 132.472 141.565 132.878 141.224C133.283 140.883 134.008 140.68 135.054 140.616C135.523 140.573 135.854 140.531 136.046 140.488Z" fill="black"/>
<path d="M317 84H303C301.343 84 300 85.3431 300 87V101C300 102.657 301.343 104 303 104H317C318.657 104 320 102.657 320 101V87C320 85.3431 318.657 84 317 84Z" fill="url(#paint5_linear_55_203)"/>
<path d="M325.949 98V89.4102H332.16V90.4238H327.086V93.0547H331.838V94.0625H327.086V96.9863H332.359V98H325.949ZM333.918 98V89.4102H335.084L339.596 96.1543V89.4102H340.686V98H339.52L335.008 91.25V98H333.918ZM342.66 98V89.4102H348.455V90.4238H343.797V93.084H347.828V94.0977H343.797V98H342.66ZM349.357 95.5625L350.383 95.4219C350.41 96.0781 350.533 96.5273 350.752 96.7695C350.971 97.0117 351.273 97.1328 351.66 97.1328C351.945 97.1328 352.191 97.0684 352.398 96.9395C352.605 96.8066 352.748 96.6289 352.826 96.4062C352.904 96.1797 352.943 95.8203 352.943 95.3281V89.4102H354.08V95.2637C354.08 95.9824 353.992 96.5391 353.816 96.9336C353.645 97.3281 353.369 97.6289 352.99 97.8359C352.615 98.043 352.174 98.1465 351.666 98.1465C350.912 98.1465 350.334 97.9297 349.932 97.4961C349.533 97.0625 349.342 96.418 349.357 95.5625ZM356.096 92.9785V91.7773H357.297V92.9785H356.096ZM356.096 98V96.7988H357.297V98H356.096ZM367.732 96.9863V98H362.055C362.047 97.7461 362.088 97.502 362.178 97.2676C362.322 96.8809 362.553 96.5 362.869 96.125C363.189 95.75 363.65 95.3164 364.252 94.8242C365.186 94.0586 365.816 93.4531 366.145 93.0078C366.473 92.5586 366.637 92.1348 366.637 91.7363C366.637 91.3184 366.486 90.9668 366.186 90.6816C365.889 90.3926 365.5 90.248 365.02 90.248C364.512 90.248 364.105 90.4004 363.801 90.7051C363.496 91.0098 363.342 91.4316 363.338 91.9707L362.254 91.8594C362.328 91.0508 362.607 90.4355 363.092 90.0137C363.576 89.5879 364.227 89.375 365.043 89.375C365.867 89.375 366.52 89.6035 367 90.0605C367.48 90.5176 367.721 91.084 367.721 91.7598C367.721 92.1035 367.65 92.4414 367.51 92.7734C367.369 93.1055 367.135 93.4551 366.807 93.8223C366.482 94.1895 365.941 94.6934 365.184 95.334C364.551 95.8652 364.145 96.2266 363.965 96.418C363.785 96.6055 363.637 96.7949 363.52 96.9863H367.732ZM374.143 89.84H377.275V90.644H374.143V89.84ZM374.143 91.988H377.299V92.804H374.143V91.988ZM376.903 88.076H377.899V94.496H376.903V88.076ZM369.475 88.904H374.419V93.728H369.475V88.904ZM373.447 89.708H370.447V92.924H373.447V89.708ZM374.323 94.82C375.443 94.82 376.323 95 376.963 95.36C377.611 95.72 377.935 96.224 377.935 96.872C377.935 97.52 377.611 98.02 376.963 98.372C376.323 98.732 375.443 98.912 374.323 98.912C373.203 98.912 372.319 98.732 371.671 98.372C371.031 98.02 370.711 97.52 370.711 96.872C370.711 96.224 371.031 95.72 371.671 95.36C372.319 95 373.203 94.82 374.323 94.82ZM374.323 95.6C373.779 95.6 373.311 95.652 372.919 95.756C372.527 95.852 372.223 95.996 372.007 96.188C371.799 96.372 371.695 96.6 371.695 96.872C371.695 97.128 371.799 97.352 372.007 97.544C372.223 97.728 372.527 97.872 372.919 97.976C373.311 98.08 373.779 98.132 374.323 98.132C374.875 98.132 375.343 98.08 375.727 97.976C376.119 97.872 376.419 97.728 376.627 97.544C376.843 97.352 376.951 97.128 376.951 96.872C376.951 96.6 376.843 96.372 376.627 96.188C376.419 95.996 376.119 95.852 375.727 95.756C375.343 95.652 374.875 95.6 374.323 95.6ZM385.557 100.525C384.975 99.791 384.482 98.9316 384.08 97.9473C383.678 96.9629 383.477 95.9434 383.477 94.8887C383.477 93.959 383.627 93.0684 383.928 92.2168C384.279 91.2285 384.822 90.2441 385.557 89.2637H386.312C385.84 90.0762 385.527 90.6562 385.375 91.0039C385.137 91.543 384.949 92.1055 384.812 92.6914C384.645 93.4219 384.561 94.1562 384.561 94.8945C384.561 96.7734 385.145 98.6504 386.312 100.525H385.557ZM387.25 95.7324L388.305 95.5918C388.426 96.1895 388.631 96.6211 388.92 96.8867C389.213 97.1484 389.568 97.2793 389.986 97.2793C390.482 97.2793 390.9 97.1074 391.24 96.7637C391.584 96.4199 391.756 95.9941 391.756 95.4863C391.756 95.002 391.598 94.6035 391.281 94.291C390.965 93.9746 390.562 93.8164 390.074 93.8164C389.875 93.8164 389.627 93.8555 389.33 93.9336L389.447 93.0078C389.518 93.0156 389.574 93.0195 389.617 93.0195C390.066 93.0195 390.471 92.9023 390.83 92.668C391.189 92.4336 391.369 92.0723 391.369 91.584C391.369 91.1973 391.238 90.877 390.977 90.623C390.715 90.3691 390.377 90.2422 389.963 90.2422C389.553 90.2422 389.211 90.3711 388.938 90.6289C388.664 90.8867 388.488 91.2734 388.41 91.7891L387.355 91.6016C387.484 90.8945 387.777 90.3477 388.234 89.9609C388.691 89.5703 389.26 89.375 389.939 89.375C390.408 89.375 390.84 89.4766 391.234 89.6797C391.629 89.8789 391.93 90.1523 392.137 90.5C392.348 90.8477 392.453 91.2168 392.453 91.6074C392.453 91.9785 392.354 92.3164 392.154 92.6211C391.955 92.9258 391.66 93.168 391.27 93.3477C391.777 93.4648 392.172 93.709 392.453 94.0801C392.734 94.4473 392.875 94.9082 392.875 95.4629C392.875 96.2129 392.602 96.8496 392.055 97.373C391.508 97.8926 390.816 98.1523 389.98 98.1523C389.227 98.1523 388.6 97.9277 388.1 97.4785C387.604 97.0293 387.32 96.4473 387.25 95.7324ZM393.93 95.7324L394.984 95.5918C395.105 96.1895 395.311 96.6211 395.6 96.8867C395.893 97.1484 396.248 97.2793 396.666 97.2793C397.162 97.2793 397.58 97.1074 397.92 96.7637C398.264 96.4199 398.436 95.9941 398.436 95.4863C398.436 95.002 398.277 94.6035 397.961 94.291C397.645 93.9746 397.242 93.8164 396.754 93.8164C396.555 93.8164 396.307 93.8555 396.01 93.9336L396.127 93.0078C396.197 93.0156 396.254 93.0195 396.297 93.0195C396.746 93.0195 397.15 92.9023 397.51 92.668C397.869 92.4336 398.049 92.0723 398.049 91.584C398.049 91.1973 397.918 90.877 397.656 90.623C397.395 90.3691 397.057 90.2422 396.643 90.2422C396.232 90.2422 395.891 90.3711 395.617 90.6289C395.344 90.8867 395.168 91.2734 395.09 91.7891L394.035 91.6016C394.164 90.8945 394.457 90.3477 394.914 89.9609C395.371 89.5703 395.939 89.375 396.619 89.375C397.088 89.375 397.52 89.4766 397.914 89.6797C398.309 89.8789 398.609 90.1523 398.816 90.5C399.027 90.8477 399.133 91.2168 399.133 91.6074C399.133 91.9785 399.033 92.3164 398.834 92.6211C398.635 92.9258 398.34 93.168 397.949 93.3477C398.457 93.4648 398.852 93.709 399.133 94.0801C399.414 94.4473 399.555 94.9082 399.555 95.4629C399.555 96.2129 399.281 96.8496 398.734 97.373C398.188 97.8926 397.496 98.1523 396.66 98.1523C395.906 98.1523 395.279 97.9277 394.779 97.4785C394.283 97.0293 394 96.4473 393.93 95.7324ZM401.195 98V96.7988H402.396V98H401.195ZM403.949 95.7324L405.004 95.5918C405.125 96.1895 405.33 96.6211 405.619 96.8867C405.912 97.1484 406.268 97.2793 406.686 97.2793C407.182 97.2793 407.6 97.1074 407.939 96.7637C408.283 96.4199 408.455 95.9941 408.455 95.4863C408.455 95.002 408.297 94.6035 407.98 94.291C407.664 93.9746 407.262 93.8164 406.773 93.8164C406.574 93.8164 406.326 93.8555 406.029 93.9336L406.146 93.0078C406.217 93.0156 406.273 93.0195 406.316 93.0195C406.766 93.0195 407.17 92.9023 407.529 92.668C407.889 92.4336 408.068 92.0723 408.068 91.584C408.068 91.1973 407.938 90.877 407.676 90.623C407.414 90.3691 407.076 90.2422 406.662 90.2422C406.252 90.2422 405.91 90.3711 405.637 90.6289C405.363 90.8867 405.188 91.2734 405.109 91.7891L404.055 91.6016C404.184 90.8945 404.477 90.3477 404.934 89.9609C405.391 89.5703 405.959 89.375 406.639 89.375C407.107 89.375 407.539 89.4766 407.934 89.6797C408.328 89.8789 408.629 90.1523 408.836 90.5C409.047 90.8477 409.152 91.2168 409.152 91.6074C409.152 91.9785 409.053 92.3164 408.854 92.6211C408.654 92.9258 408.359 93.168 407.969 93.3477C408.477 93.4648 408.871 93.709 409.152 94.0801C409.434 94.4473 409.574 94.9082 409.574 95.4629C409.574 96.2129 409.301 96.8496 408.754 97.373C408.207 97.8926 407.516 98.1523 406.68 98.1523C405.926 98.1523 405.299 97.9277 404.799 97.4785C404.303 97.0293 404.02 96.4473 403.949 95.7324ZM410.822 91.4727C410.822 90.8594 410.977 90.3379 411.285 89.9082C411.594 89.4785 412.041 89.2637 412.627 89.2637C413.166 89.2637 413.611 89.457 413.963 89.8438C414.318 90.2266 414.496 90.791 414.496 91.5371C414.496 92.2637 414.316 92.8242 413.957 93.2188C413.602 93.6094 413.162 93.8047 412.639 93.8047C412.119 93.8047 411.686 93.6113 411.338 93.2246C410.994 92.8379 410.822 92.2539 410.822 91.4727ZM412.656 89.9902C412.395 89.9902 412.176 90.1035 412 90.3301C411.828 90.5566 411.742 90.9727 411.742 91.5781C411.742 92.1289 411.83 92.5176 412.006 92.7441C412.182 92.9668 412.398 93.0781 412.656 93.0781C412.922 93.0781 413.141 92.9648 413.312 92.7383C413.488 92.5117 413.576 92.0977 413.576 91.4961C413.576 90.9414 413.488 90.5527 413.312 90.3301C413.137 90.1035 412.918 89.9902 412.656 89.9902ZM412.662 98.3164L417.361 89.2637H418.217L413.535 98.3164H412.662ZM416.377 95.9844C416.377 95.3672 416.531 94.8457 416.84 94.4199C417.148 93.9902 417.598 93.7754 418.188 93.7754C418.727 93.7754 419.172 93.9688 419.523 94.3555C419.879 94.7383 420.057 95.3027 420.057 96.0488C420.057 96.7754 419.877 97.3359 419.518 97.7305C419.162 98.1211 418.721 98.3164 418.193 98.3164C417.674 98.3164 417.24 98.123 416.893 97.7363C416.549 97.3457 416.377 96.7617 416.377 95.9844ZM418.217 94.502C417.951 94.502 417.73 94.6152 417.555 94.8418C417.383 95.0684 417.297 95.4844 417.297 96.0898C417.297 96.6367 417.385 97.0234 417.561 97.25C417.736 97.4766 417.953 97.5898 418.211 97.5898C418.48 97.5898 418.701 97.4766 418.873 97.25C419.049 97.0234 419.137 96.6094 419.137 96.0078C419.137 95.4531 419.049 95.0645 418.873 94.8418C418.697 94.6152 418.479 94.502 418.217 94.502ZM422.283 100.525H421.527C422.695 98.6504 423.279 96.7734 423.279 94.8945C423.279 94.1602 423.195 93.4316 423.027 92.709C422.895 92.123 422.709 91.5605 422.471 91.0215C422.318 90.6699 422.004 90.084 421.527 89.2637H422.283C423.018 90.2441 423.561 91.2285 423.912 92.2168C424.213 93.0684 424.363 93.959 424.363 94.8887C424.363 95.9434 424.16 96.9629 423.754 97.9473C423.352 98.9316 422.861 99.791 422.283 100.525Z" fill="black"/>
<path d="M317 112H303C301.343 112 300 113.343 300 115V129C300 130.657 301.343 132 303 132H317C318.657 132 320 130.657 320 129V115C320 113.343 318.657 112 317 112Z" fill="url(#paint6_linear_55_203)"/>
<path d="M325.949 126V117.41H332.16V118.424H327.086V121.055H331.838V122.062H327.086V124.986H332.359V126H325.949ZM333.918 126V117.41H335.084L339.596 124.154V117.41H340.686V126H339.52L335.008 119.25V126H333.918ZM342.66 126V117.41H348.455V118.424H343.797V121.084H347.828V122.098H343.797V126H342.66ZM349.938 126V117.41H353.178C353.748 117.41 354.184 117.438 354.484 117.492C354.906 117.562 355.26 117.697 355.545 117.896C355.83 118.092 356.059 118.367 356.23 118.723C356.406 119.078 356.494 119.469 356.494 119.895C356.494 120.625 356.262 121.244 355.797 121.752C355.332 122.256 354.492 122.508 353.277 122.508H351.074V126H349.938ZM351.074 121.494H353.295C354.029 121.494 354.551 121.357 354.859 121.084C355.168 120.811 355.322 120.426 355.322 119.93C355.322 119.57 355.23 119.264 355.047 119.01C354.867 118.752 354.629 118.582 354.332 118.5C354.141 118.449 353.787 118.424 353.271 118.424H351.074V121.494ZM358.1 120.979V119.777H359.301V120.979H358.1ZM358.1 126V124.799H359.301V126H358.1ZM368.166 126H367.111V119.279C366.857 119.521 366.523 119.764 366.109 120.006C365.699 120.248 365.33 120.43 365.002 120.551V119.531C365.592 119.254 366.107 118.918 366.549 118.523C366.99 118.129 367.303 117.746 367.486 117.375H368.166V126ZM376.147 117.84H379.279V118.644H376.147V117.84ZM376.147 119.988H379.303V120.804H376.147V119.988ZM378.907 116.076H379.903V122.496H378.907V116.076ZM371.479 116.904H376.423V121.728H371.479V116.904ZM375.451 117.708H372.451V120.924H375.451V117.708ZM376.327 122.82C377.447 122.82 378.327 123 378.967 123.36C379.615 123.72 379.939 124.224 379.939 124.872C379.939 125.52 379.615 126.02 378.967 126.372C378.327 126.732 377.447 126.912 376.327 126.912C375.207 126.912 374.323 126.732 373.675 126.372C373.035 126.02 372.715 125.52 372.715 124.872C372.715 124.224 373.035 123.72 373.675 123.36C374.323 123 375.207 122.82 376.327 122.82ZM376.327 123.6C375.783 123.6 375.315 123.652 374.923 123.756C374.531 123.852 374.227 123.996 374.011 124.188C373.803 124.372 373.699 124.6 373.699 124.872C373.699 125.128 373.803 125.352 374.011 125.544C374.227 125.728 374.531 125.872 374.923 125.976C375.315 126.08 375.783 126.132 376.327 126.132C376.879 126.132 377.347 126.08 377.731 125.976C378.123 125.872 378.423 125.728 378.631 125.544C378.847 125.352 378.955 125.128 378.955 124.872C378.955 124.6 378.847 124.372 378.631 124.188C378.423 123.996 378.123 123.852 377.731 123.756C377.347 123.652 376.879 123.6 376.327 123.6ZM387.561 128.525C386.979 127.791 386.486 126.932 386.084 125.947C385.682 124.963 385.48 123.943 385.48 122.889C385.48 121.959 385.631 121.068 385.932 120.217C386.283 119.229 386.826 118.244 387.561 117.264H388.316C387.844 118.076 387.531 118.656 387.379 119.004C387.141 119.543 386.953 120.105 386.816 120.691C386.648 121.422 386.564 122.156 386.564 122.895C386.564 124.773 387.148 126.65 388.316 128.525H387.561ZM393.221 126H392.166V119.279C391.912 119.521 391.578 119.764 391.164 120.006C390.754 120.248 390.385 120.43 390.057 120.551V119.531C390.646 119.254 391.162 118.918 391.604 118.523C392.045 118.129 392.357 117.746 392.541 117.375H393.221V126ZM401.4 119.514L400.352 119.596C400.258 119.182 400.125 118.881 399.953 118.693C399.668 118.393 399.316 118.242 398.898 118.242C398.562 118.242 398.268 118.336 398.014 118.523C397.682 118.766 397.42 119.119 397.229 119.584C397.037 120.049 396.938 120.711 396.93 121.57C397.184 121.184 397.494 120.896 397.861 120.709C398.229 120.521 398.613 120.428 399.016 120.428C399.719 120.428 400.316 120.688 400.809 121.207C401.305 121.723 401.553 122.391 401.553 123.211C401.553 123.75 401.436 124.252 401.201 124.717C400.971 125.178 400.652 125.531 400.246 125.777C399.84 126.023 399.379 126.146 398.863 126.146C397.984 126.146 397.268 125.824 396.713 125.18C396.158 124.531 395.881 123.465 395.881 121.98C395.881 120.32 396.188 119.113 396.801 118.359C397.336 117.703 398.057 117.375 398.963 117.375C399.639 117.375 400.191 117.564 400.621 117.943C401.055 118.322 401.314 118.846 401.4 119.514ZM397.094 123.217C397.094 123.58 397.17 123.928 397.322 124.26C397.479 124.592 397.695 124.846 397.973 125.021C398.25 125.193 398.541 125.279 398.846 125.279C399.291 125.279 399.674 125.1 399.994 124.74C400.314 124.381 400.475 123.893 400.475 123.275C400.475 122.682 400.316 122.215 400 121.875C399.684 121.531 399.285 121.359 398.805 121.359C398.328 121.359 397.924 121.531 397.592 121.875C397.26 122.215 397.094 122.662 397.094 123.217ZM403.199 126V124.799H404.4V126H403.199ZM406.018 118.535V117.521H411.578V118.342C411.031 118.924 410.488 119.697 409.949 120.662C409.414 121.627 409 122.619 408.707 123.639C408.496 124.357 408.361 125.145 408.303 126H407.219C407.23 125.324 407.363 124.508 407.617 123.551C407.871 122.594 408.234 121.672 408.707 120.785C409.184 119.895 409.689 119.145 410.225 118.535H406.018ZM412.826 119.473C412.826 118.859 412.98 118.338 413.289 117.908C413.598 117.479 414.045 117.264 414.631 117.264C415.17 117.264 415.615 117.457 415.967 117.844C416.322 118.227 416.5 118.791 416.5 119.537C416.5 120.264 416.32 120.824 415.961 121.219C415.605 121.609 415.166 121.805 414.643 121.805C414.123 121.805 413.689 121.611 413.342 121.225C412.998 120.838 412.826 120.254 412.826 119.473ZM414.66 117.99C414.398 117.99 414.18 118.104 414.004 118.33C413.832 118.557 413.746 118.973 413.746 119.578C413.746 120.129 413.834 120.518 414.01 120.744C414.186 120.967 414.402 121.078 414.66 121.078C414.926 121.078 415.145 120.965 415.316 120.738C415.492 120.512 415.58 120.098 415.58 119.496C415.58 118.941 415.492 118.553 415.316 118.33C415.141 118.104 414.922 117.99 414.66 117.99ZM414.666 126.316L419.365 117.264H420.221L415.539 126.316H414.666ZM418.381 123.984C418.381 123.367 418.535 122.846 418.844 122.42C419.152 121.99 419.602 121.775 420.191 121.775C420.73 121.775 421.176 121.969 421.527 122.355C421.883 122.738 422.061 123.303 422.061 124.049C422.061 124.775 421.881 125.336 421.521 125.73C421.166 126.121 420.725 126.316 420.197 126.316C419.678 126.316 419.244 126.123 418.896 125.736C418.553 125.346 418.381 124.762 418.381 123.984ZM420.221 122.502C419.955 122.502 419.734 122.615 419.559 122.842C419.387 123.068 419.301 123.484 419.301 124.09C419.301 124.637 419.389 125.023 419.564 125.25C419.74 125.477 419.957 125.59 420.215 125.59C420.484 125.59 420.705 125.477 420.877 125.25C421.053 125.023 421.141 124.609 421.141 124.008C421.141 123.453 421.053 123.064 420.877 122.842C420.701 122.615 420.482 122.502 420.221 122.502ZM424.287 128.525H423.531C424.699 126.65 425.283 124.773 425.283 122.895C425.283 122.16 425.199 121.432 425.031 120.709C424.898 120.123 424.713 119.561 424.475 119.021C424.322 118.67 424.008 118.084 423.531 117.264H424.287C425.021 118.244 425.564 119.229 425.916 120.217C426.217 121.068 426.367 121.959 426.367 122.889C426.367 123.943 426.164 124.963 425.758 125.947C425.355 126.932 424.865 127.791 424.287 128.525Z" fill="black"/>
<path d="M317 140H303C301.343 140 300 141.343 300 143V157C300 158.657 301.343 160 303 160H317C318.657 160 320 158.657 320 157V143C320 141.343 318.657 140 317 140Z" fill="url(#paint7_linear_55_203)"/>
<path d="M325.949 154V145.41H332.16V146.424H327.086V149.055H331.838V150.062H327.086V152.986H332.359V154H325.949ZM333.918 154V145.41H335.084L339.596 152.154V145.41H340.686V154H339.52L335.008 147.25V154H333.918ZM344.787 154V146.424H341.957V145.41H348.766V146.424H345.924V154H344.787ZM349.357 151.562L350.383 151.422C350.41 152.078 350.533 152.527 350.752 152.77C350.971 153.012 351.273 153.133 351.66 153.133C351.945 153.133 352.191 153.068 352.398 152.939C352.605 152.807 352.748 152.629 352.826 152.406C352.904 152.18 352.943 151.82 352.943 151.328V145.41H354.08V151.264C354.08 151.982 353.992 152.539 353.816 152.934C353.645 153.328 353.369 153.629 352.99 153.836C352.615 154.043 352.174 154.146 351.666 154.146C350.912 154.146 350.334 153.93 349.932 153.496C349.533 153.062 349.342 152.418 349.357 151.562ZM356.096 148.979V147.777H357.297V148.979H356.096ZM356.096 154V152.799H357.297V154H356.096ZM366.162 154H365.107V147.279C364.854 147.521 364.52 147.764 364.105 148.006C363.695 148.248 363.326 148.43 362.998 148.551V147.531C363.588 147.254 364.104 146.918 364.545 146.523C364.986 146.129 365.299 145.746 365.482 145.375H366.162V154ZM374.143 145.84H377.275V146.644H374.143V145.84ZM374.143 147.988H377.299V148.804H374.143V147.988ZM376.903 144.076H377.899V150.496H376.903V144.076ZM369.475 144.904H374.419V149.728H369.475V144.904ZM373.447 145.708H370.447V148.924H373.447V145.708ZM374.323 150.82C375.443 150.82 376.323 151 376.963 151.36C377.611 151.72 377.935 152.224 377.935 152.872C377.935 153.52 377.611 154.02 376.963 154.372C376.323 154.732 375.443 154.912 374.323 154.912C373.203 154.912 372.319 154.732 371.671 154.372C371.031 154.02 370.711 153.52 370.711 152.872C370.711 152.224 371.031 151.72 371.671 151.36C372.319 151 373.203 150.82 374.323 150.82ZM374.323 151.6C373.779 151.6 373.311 151.652 372.919 151.756C372.527 151.852 372.223 151.996 372.007 152.188C371.799 152.372 371.695 152.6 371.695 152.872C371.695 153.128 371.799 153.352 372.007 153.544C372.223 153.728 372.527 153.872 372.919 153.976C373.311 154.08 373.779 154.132 374.323 154.132C374.875 154.132 375.343 154.08 375.727 153.976C376.119 153.872 376.419 153.728 376.627 153.544C376.843 153.352 376.951 153.128 376.951 152.872C376.951 152.6 376.843 152.372 376.627 152.188C376.419 151.996 376.119 151.852 375.727 151.756C375.343 151.652 374.875 151.6 374.323 151.6ZM385.557 156.525C384.975 155.791 384.482 154.932 384.08 153.947C383.678 152.963 383.477 151.943 383.477 150.889C383.477 149.959 383.627 149.068 383.928 148.217C384.279 147.229 384.822 146.244 385.557 145.264H386.312C385.84 146.076 385.527 146.656 385.375 147.004C385.137 147.543 384.949 148.105 384.812 148.691C384.645 149.422 384.561 150.156 384.561 150.895C384.561 152.773 385.145 154.65 386.312 156.525H385.557ZM391.217 154H390.162V147.279C389.908 147.521 389.574 147.764 389.16 148.006C388.75 148.248 388.381 148.43 388.053 148.551V147.531C388.643 147.254 389.158 146.918 389.6 146.523C390.041 146.129 390.354 145.746 390.537 145.375H391.217V154ZM399.396 147.514L398.348 147.596C398.254 147.182 398.121 146.881 397.949 146.693C397.664 146.393 397.312 146.242 396.895 146.242C396.559 146.242 396.264 146.336 396.01 146.523C395.678 146.766 395.416 147.119 395.225 147.584C395.033 148.049 394.934 148.711 394.926 149.57C395.18 149.184 395.49 148.896 395.857 148.709C396.225 148.521 396.609 148.428 397.012 148.428C397.715 148.428 398.312 148.688 398.805 149.207C399.301 149.723 399.549 150.391 399.549 151.211C399.549 151.75 399.432 152.252 399.197 152.717C398.967 153.178 398.648 153.531 398.242 153.777C397.836 154.023 397.375 154.146 396.859 154.146C395.98 154.146 395.264 153.824 394.709 153.18C394.154 152.531 393.877 151.465 393.877 149.98C393.877 148.32 394.184 147.113 394.797 146.359C395.332 145.703 396.053 145.375 396.959 145.375C397.635 145.375 398.188 145.564 398.617 145.943C399.051 146.322 399.311 146.846 399.396 147.514ZM395.09 151.217C395.09 151.58 395.166 151.928 395.318 152.26C395.475 152.592 395.691 152.846 395.969 153.021C396.246 153.193 396.537 153.279 396.842 153.279C397.287 153.279 397.67 153.1 397.99 152.74C398.311 152.381 398.471 151.893 398.471 151.275C398.471 150.682 398.312 150.215 397.996 149.875C397.68 149.531 397.281 149.359 396.801 149.359C396.324 149.359 395.92 149.531 395.588 149.875C395.256 150.215 395.09 150.662 395.09 151.217ZM401.195 154V152.799H402.396V154H401.195ZM404.014 146.535V145.521H409.574V146.342C409.027 146.924 408.484 147.697 407.945 148.662C407.41 149.627 406.996 150.619 406.703 151.639C406.492 152.357 406.357 153.145 406.299 154H405.215C405.227 153.324 405.359 152.508 405.613 151.551C405.867 150.594 406.23 149.672 406.703 148.785C407.18 147.895 407.686 147.145 408.221 146.535H404.014ZM410.822 147.473C410.822 146.859 410.977 146.338 411.285 145.908C411.594 145.479 412.041 145.264 412.627 145.264C413.166 145.264 413.611 145.457 413.963 145.844C414.318 146.227 414.496 146.791 414.496 147.537C414.496 148.264 414.316 148.824 413.957 149.219C413.602 149.609 413.162 149.805 412.639 149.805C412.119 149.805 411.686 149.611 411.338 149.225C410.994 148.838 410.822 148.254 410.822 147.473ZM412.656 145.99C412.395 145.99 412.176 146.104 412 146.33C411.828 146.557 411.742 146.973 411.742 147.578C411.742 148.129 411.83 148.518 412.006 148.744C412.182 148.967 412.398 149.078 412.656 149.078C412.922 149.078 413.141 148.965 413.312 148.738C413.488 148.512 413.576 148.098 413.576 147.496C413.576 146.941 413.488 146.553 413.312 146.33C413.137 146.104 412.918 145.99 412.656 145.99ZM412.662 154.316L417.361 145.264H418.217L413.535 154.316H412.662ZM416.377 151.984C416.377 151.367 416.531 150.846 416.84 150.42C417.148 149.99 417.598 149.775 418.188 149.775C418.727 149.775 419.172 149.969 419.523 150.355C419.879 150.738 420.057 151.303 420.057 152.049C420.057 152.775 419.877 153.336 419.518 153.73C419.162 154.121 418.721 154.316 418.193 154.316C417.674 154.316 417.24 154.123 416.893 153.736C416.549 153.346 416.377 152.762 416.377 151.984ZM418.217 150.502C417.951 150.502 417.73 150.615 417.555 150.842C417.383 151.068 417.297 151.484 417.297 152.09C417.297 152.637 417.385 153.023 417.561 153.25C417.736 153.477 417.953 153.59 418.211 153.59C418.48 153.59 418.701 153.477 418.873 153.25C419.049 153.023 419.137 152.609 419.137 152.008C419.137 151.453 419.049 151.064 418.873 150.842C418.697 150.615 418.479 150.502 418.217 150.502ZM422.283 156.525H421.527C422.695 154.65 423.279 152.773 423.279 150.895C423.279 150.16 423.195 149.432 423.027 148.709C422.895 148.123 422.709 147.561 422.471 147.021C422.318 146.67 422.004 146.084 421.527 145.264H422.283C423.018 146.244 423.561 147.229 423.912 148.217C424.213 149.068 424.363 149.959 424.363 150.889C424.363 151.943 424.16 152.963 423.754 153.947C423.352 154.932 422.861 155.791 422.283 156.525Z" fill="black"/>
<path d="M317 168H303C301.343 168 300 169.343 300 171V185C300 186.657 301.343 188 303 188H317C318.657 188 320 186.657 320 185V171C320 169.343 318.657 168 317 168Z" fill="url(#paint8_linear_55_203)"/>
<path d="M326.119 182V173.41H327.256V182H326.119ZM329.254 182V173.41H330.42L334.932 180.154V173.41H336.021V182H334.855L330.344 175.25V182H329.254ZM337.996 182V173.41H343.791V174.424H339.133V177.084H343.164V178.098H339.133V182H337.996ZM345.273 182V173.41H348.514C349.084 173.41 349.52 173.438 349.82 173.492C350.242 173.562 350.596 173.697 350.881 173.896C351.166 174.092 351.395 174.367 351.566 174.723C351.742 175.078 351.83 175.469 351.83 175.895C351.83 176.625 351.598 177.244 351.133 177.752C350.668 178.256 349.828 178.508 348.613 178.508H346.41V182H345.273ZM346.41 177.494H348.631C349.365 177.494 349.887 177.357 350.195 177.084C350.504 176.811 350.658 176.426 350.658 175.93C350.658 175.57 350.566 175.264 350.383 175.01C350.203 174.752 349.965 174.582 349.668 174.5C349.477 174.449 349.123 174.424 348.607 174.424H346.41V177.494ZM353.436 176.979V175.777H354.637V176.979H353.436ZM353.436 182V180.799H354.637V182H353.436ZM363.502 182H362.447V175.279C362.193 175.521 361.859 175.764 361.445 176.006C361.035 176.248 360.666 176.43 360.338 176.551V175.531C360.928 175.254 361.443 174.918 361.885 174.523C362.326 174.129 362.639 173.746 362.822 173.375H363.502V182ZM371.483 173.84H374.615V174.644H371.483V173.84ZM371.483 175.988H374.639V176.804H371.483V175.988ZM374.243 172.076H375.239V178.496H374.243V172.076ZM366.815 172.904H371.759V177.728H366.815V172.904ZM370.787 173.708H367.787V176.924H370.787V173.708ZM371.663 178.82C372.783 178.82 373.663 179 374.303 179.36C374.951 179.72 375.275 180.224 375.275 180.872C375.275 181.52 374.951 182.02 374.303 182.372C373.663 182.732 372.783 182.912 371.663 182.912C370.543 182.912 369.659 182.732 369.011 182.372C368.371 182.02 368.051 181.52 368.051 180.872C368.051 180.224 368.371 179.72 369.011 179.36C369.659 179 370.543 178.82 371.663 178.82ZM371.663 179.6C371.119 179.6 370.651 179.652 370.259 179.756C369.867 179.852 369.563 179.996 369.347 180.188C369.139 180.372 369.035 180.6 369.035 180.872C369.035 181.128 369.139 181.352 369.347 181.544C369.563 181.728 369.867 181.872 370.259 181.976C370.651 182.08 371.119 182.132 371.663 182.132C372.215 182.132 372.683 182.08 373.067 181.976C373.459 181.872 373.759 181.728 373.967 181.544C374.183 181.352 374.291 181.128 374.291 180.872C374.291 180.6 374.183 180.372 373.967 180.188C373.759 179.996 373.459 179.852 373.067 179.756C372.683 179.652 372.215 179.6 371.663 179.6ZM382.896 184.525C382.314 183.791 381.822 182.932 381.42 181.947C381.018 180.963 380.816 179.943 380.816 178.889C380.816 177.959 380.967 177.068 381.268 176.217C381.619 175.229 382.162 174.244 382.896 173.264H383.652C383.18 174.076 382.867 174.656 382.715 175.004C382.477 175.543 382.289 176.105 382.152 176.691C381.984 177.422 381.9 178.156 381.9 178.895C381.9 180.773 382.484 182.65 383.652 184.525H382.896ZM388.557 182H387.502V175.279C387.248 175.521 386.914 175.764 386.5 176.006C386.09 176.248 385.721 176.43 385.393 176.551V175.531C385.982 175.254 386.498 174.918 386.939 174.523C387.381 174.129 387.693 173.746 387.877 173.375H388.557V182ZM396.736 175.514L395.688 175.596C395.594 175.182 395.461 174.881 395.289 174.693C395.004 174.393 394.652 174.242 394.234 174.242C393.898 174.242 393.604 174.336 393.35 174.523C393.018 174.766 392.756 175.119 392.564 175.584C392.373 176.049 392.273 176.711 392.266 177.57C392.52 177.184 392.83 176.896 393.197 176.709C393.564 176.521 393.949 176.428 394.352 176.428C395.055 176.428 395.652 176.688 396.145 177.207C396.641 177.723 396.889 178.391 396.889 179.211C396.889 179.75 396.771 180.252 396.537 180.717C396.307 181.178 395.988 181.531 395.582 181.777C395.176 182.023 394.715 182.146 394.199 182.146C393.32 182.146 392.604 181.824 392.049 181.18C391.494 180.531 391.217 179.465 391.217 177.98C391.217 176.32 391.523 175.113 392.137 174.359C392.672 173.703 393.393 173.375 394.299 173.375C394.975 173.375 395.527 173.564 395.957 173.943C396.391 174.322 396.65 174.846 396.736 175.514ZM392.43 179.217C392.43 179.58 392.506 179.928 392.658 180.26C392.814 180.592 393.031 180.846 393.309 181.021C393.586 181.193 393.877 181.279 394.182 181.279C394.627 181.279 395.01 181.1 395.33 180.74C395.65 180.381 395.811 179.893 395.811 179.275C395.811 178.682 395.652 178.215 395.336 177.875C395.02 177.531 394.621 177.359 394.141 177.359C393.664 177.359 393.26 177.531 392.928 177.875C392.596 178.215 392.43 178.662 392.43 179.217ZM398.535 182V180.799H399.736V182H398.535ZM401.354 174.535V173.521H406.914V174.342C406.367 174.924 405.824 175.697 405.285 176.662C404.75 177.627 404.336 178.619 404.043 179.639C403.832 180.357 403.697 181.145 403.639 182H402.555C402.566 181.324 402.699 180.508 402.953 179.551C403.207 178.594 403.57 177.672 404.043 176.785C404.52 175.895 405.025 175.145 405.561 174.535H401.354ZM408.162 175.473C408.162 174.859 408.316 174.338 408.625 173.908C408.934 173.479 409.381 173.264 409.967 173.264C410.506 173.264 410.951 173.457 411.303 173.844C411.658 174.227 411.836 174.791 411.836 175.537C411.836 176.264 411.656 176.824 411.297 177.219C410.941 177.609 410.502 177.805 409.979 177.805C409.459 177.805 409.025 177.611 408.678 177.225C408.334 176.838 408.162 176.254 408.162 175.473ZM409.996 173.99C409.734 173.99 409.516 174.104 409.34 174.33C409.168 174.557 409.082 174.973 409.082 175.578C409.082 176.129 409.17 176.518 409.346 176.744C409.521 176.967 409.738 177.078 409.996 177.078C410.262 177.078 410.48 176.965 410.652 176.738C410.828 176.512 410.916 176.098 410.916 175.496C410.916 174.941 410.828 174.553 410.652 174.33C410.477 174.104 410.258 173.99 409.996 173.99ZM410.002 182.316L414.701 173.264H415.557L410.875 182.316H410.002ZM413.717 179.984C413.717 179.367 413.871 178.846 414.18 178.42C414.488 177.99 414.938 177.775 415.527 177.775C416.066 177.775 416.512 177.969 416.863 178.355C417.219 178.738 417.396 179.303 417.396 180.049C417.396 180.775 417.217 181.336 416.857 181.73C416.502 182.121 416.061 182.316 415.533 182.316C415.014 182.316 414.58 182.123 414.232 181.736C413.889 181.346 413.717 180.762 413.717 179.984ZM415.557 178.502C415.291 178.502 415.07 178.615 414.895 178.842C414.723 179.068 414.637 179.484 414.637 180.09C414.637 180.637 414.725 181.023 414.9 181.25C415.076 181.477 415.293 181.59 415.551 181.59C415.82 181.59 416.041 181.477 416.213 181.25C416.389 181.023 416.477 180.609 416.477 180.008C416.477 179.453 416.389 179.064 416.213 178.842C416.037 178.615 415.818 178.502 415.557 178.502ZM419.623 184.525H418.867C420.035 182.65 420.619 180.773 420.619 178.895C420.619 178.16 420.535 177.432 420.367 176.709C420.234 176.123 420.049 175.561 419.811 175.021C419.658 174.67 419.344 174.084 418.867 173.264H419.623C420.357 174.244 420.9 175.229 421.252 176.217C421.553 177.068 421.703 177.959 421.703 178.889C421.703 179.943 421.5 180.963 421.094 181.947C420.691 182.932 420.201 183.791 419.623 184.525Z" fill="black"/>
<path d="M317 196H303C301.343 196 300 197.343 300 199V213C300 214.657 301.343 216 303 216H317C318.657 216 320 214.657 320 213V199C320 197.343 318.657 196 317 196Z" fill="url(#paint9_linear_55_203)"/>
<path d="M326.119 210V201.41H327.256V210H326.119ZM329.254 210V201.41H330.42L334.932 208.154V201.41H336.021V210H334.855L330.344 203.25V210H329.254ZM340.123 210V202.424H337.293V201.41H344.102V202.424H341.26V210H340.123ZM344.693 207.562L345.719 207.422C345.746 208.078 345.869 208.527 346.088 208.77C346.307 209.012 346.609 209.133 346.996 209.133C347.281 209.133 347.527 209.068 347.734 208.939C347.941 208.807 348.084 208.629 348.162 208.406C348.24 208.18 348.279 207.82 348.279 207.328V201.41H349.416V207.264C349.416 207.982 349.328 208.539 349.152 208.934C348.98 209.328 348.705 209.629 348.326 209.836C347.951 210.043 347.51 210.146 347.002 210.146C346.248 210.146 345.67 209.93 345.268 209.496C344.869 209.062 344.678 208.418 344.693 207.562ZM351.432 204.979V203.777H352.633V204.979H351.432ZM351.432 210V208.799H352.633V210H351.432ZM361.498 210H360.443V203.279C360.189 203.521 359.855 203.764 359.441 204.006C359.031 204.248 358.662 204.43 358.334 204.551V203.531C358.924 203.254 359.439 202.918 359.881 202.523C360.322 202.129 360.635 201.746 360.818 201.375H361.498V210ZM369.479 201.84H372.611V202.644H369.479V201.84ZM369.479 203.988H372.635V204.804H369.479V203.988ZM372.239 200.076H373.235V206.496H372.239V200.076ZM364.811 200.904H369.755V205.728H364.811V200.904ZM368.783 201.708H365.783V204.924H368.783V201.708ZM369.659 206.82C370.779 206.82 371.659 207 372.299 207.36C372.947 207.72 373.271 208.224 373.271 208.872C373.271 209.52 372.947 210.02 372.299 210.372C371.659 210.732 370.779 210.912 369.659 210.912C368.539 210.912 367.655 210.732 367.007 210.372C366.367 210.02 366.047 209.52 366.047 208.872C366.047 208.224 366.367 207.72 367.007 207.36C367.655 207 368.539 206.82 369.659 206.82ZM369.659 207.6C369.115 207.6 368.647 207.652 368.255 207.756C367.863 207.852 367.559 207.996 367.343 208.188C367.135 208.372 367.031 208.6 367.031 208.872C367.031 209.128 367.135 209.352 367.343 209.544C367.559 209.728 367.863 209.872 368.255 209.976C368.647 210.08 369.115 210.132 369.659 210.132C370.211 210.132 370.679 210.08 371.063 209.976C371.455 209.872 371.755 209.728 371.963 209.544C372.179 209.352 372.287 209.128 372.287 208.872C372.287 208.6 372.179 208.372 371.963 208.188C371.755 207.996 371.455 207.852 371.063 207.756C370.679 207.652 370.211 207.6 369.659 207.6ZM380.893 212.525C380.311 211.791 379.818 210.932 379.416 209.947C379.014 208.963 378.812 207.943 378.812 206.889C378.812 205.959 378.963 205.068 379.264 204.217C379.615 203.229 380.158 202.244 380.893 201.264H381.648C381.176 202.076 380.863 202.656 380.711 203.004C380.473 203.543 380.285 204.105 380.148 204.691C379.98 205.422 379.896 206.156 379.896 206.895C379.896 208.773 380.48 210.65 381.648 212.525H380.893ZM386.553 210H385.498V203.279C385.244 203.521 384.91 203.764 384.496 204.006C384.086 204.248 383.717 204.43 383.389 204.551V203.531C383.979 203.254 384.494 202.918 384.936 202.523C385.377 202.129 385.689 201.746 385.873 201.375H386.553V210ZM394.732 203.514L393.684 203.596C393.59 203.182 393.457 202.881 393.285 202.693C393 202.393 392.648 202.242 392.23 202.242C391.895 202.242 391.6 202.336 391.346 202.523C391.014 202.766 390.752 203.119 390.561 203.584C390.369 204.049 390.27 204.711 390.262 205.57C390.516 205.184 390.826 204.896 391.193 204.709C391.561 204.521 391.945 204.428 392.348 204.428C393.051 204.428 393.648 204.688 394.141 205.207C394.637 205.723 394.885 206.391 394.885 207.211C394.885 207.75 394.768 208.252 394.533 208.717C394.303 209.178 393.984 209.531 393.578 209.777C393.172 210.023 392.711 210.146 392.195 210.146C391.316 210.146 390.6 209.824 390.045 209.18C389.49 208.531 389.213 207.465 389.213 205.98C389.213 204.32 389.52 203.113 390.133 202.359C390.668 201.703 391.389 201.375 392.295 201.375C392.971 201.375 393.523 201.564 393.953 201.943C394.387 202.322 394.646 202.846 394.732 203.514ZM390.426 207.217C390.426 207.58 390.502 207.928 390.654 208.26C390.811 208.592 391.027 208.846 391.305 209.021C391.582 209.193 391.873 209.279 392.178 209.279C392.623 209.279 393.006 209.1 393.326 208.74C393.646 208.381 393.807 207.893 393.807 207.275C393.807 206.682 393.648 206.215 393.332 205.875C393.016 205.531 392.617 205.359 392.137 205.359C391.66 205.359 391.256 205.531 390.924 205.875C390.592 206.215 390.426 206.662 390.426 207.217ZM396.531 210V208.799H397.732V210H396.531ZM399.35 202.535V201.521H404.91V202.342C404.363 202.924 403.82 203.697 403.281 204.662C402.746 205.627 402.332 206.619 402.039 207.639C401.828 208.357 401.693 209.145 401.635 210H400.551C400.562 209.324 400.695 208.508 400.949 207.551C401.203 206.594 401.566 205.672 402.039 204.785C402.516 203.895 403.021 203.145 403.557 202.535H399.35ZM406.158 203.473C406.158 202.859 406.312 202.338 406.621 201.908C406.93 201.479 407.377 201.264 407.963 201.264C408.502 201.264 408.947 201.457 409.299 201.844C409.654 202.227 409.832 202.791 409.832 203.537C409.832 204.264 409.652 204.824 409.293 205.219C408.938 205.609 408.498 205.805 407.975 205.805C407.455 205.805 407.021 205.611 406.674 205.225C406.33 204.838 406.158 204.254 406.158 203.473ZM407.992 201.99C407.73 201.99 407.512 202.104 407.336 202.33C407.164 202.557 407.078 202.973 407.078 203.578C407.078 204.129 407.166 204.518 407.342 204.744C407.518 204.967 407.734 205.078 407.992 205.078C408.258 205.078 408.477 204.965 408.648 204.738C408.824 204.512 408.912 204.098 408.912 203.496C408.912 202.941 408.824 202.553 408.648 202.33C408.473 202.104 408.254 201.99 407.992 201.99ZM407.998 210.316L412.697 201.264H413.553L408.871 210.316H407.998ZM411.713 207.984C411.713 207.367 411.867 206.846 412.176 206.42C412.484 205.99 412.934 205.775 413.523 205.775C414.062 205.775 414.508 205.969 414.859 206.355C415.215 206.738 415.393 207.303 415.393 208.049C415.393 208.775 415.213 209.336 414.854 209.73C414.498 210.121 414.057 210.316 413.529 210.316C413.01 210.316 412.576 210.123 412.229 209.736C411.885 209.346 411.713 208.762 411.713 207.984ZM413.553 206.502C413.287 206.502 413.066 206.615 412.891 206.842C412.719 207.068 412.633 207.484 412.633 208.09C412.633 208.637 412.721 209.023 412.896 209.25C413.072 209.477 413.289 209.59 413.547 209.59C413.816 209.59 414.037 209.477 414.209 209.25C414.385 209.023 414.473 208.609 414.473 208.008C414.473 207.453 414.385 207.064 414.209 206.842C414.033 206.615 413.814 206.502 413.553 206.502ZM417.619 212.525H416.863C418.031 210.65 418.615 208.773 418.615 206.895C418.615 206.16 418.531 205.432 418.363 204.709C418.23 204.123 418.045 203.561 417.807 203.021C417.654 202.67 417.34 202.084 416.863 201.264H417.619C418.354 202.244 418.896 203.229 419.248 204.217C419.549 205.068 419.699 205.959 419.699 206.889C419.699 207.943 419.496 208.963 419.09 209.947C418.688 210.932 418.197 211.791 417.619 212.525Z" fill="black"/>
<path d="M114.946 57V47.6943H121.846V49.2686H116.825V51.3315H121.497V52.8994H116.825V55.4321H122.023V57H114.946ZM123.636 57V47.6943H125.464L129.272 53.9087V47.6943H131.018V57H129.133L125.381 50.9316V57H123.636ZM133.024 57V47.6943H139.403V49.2686H134.903V51.4712H138.788V53.0454H134.903V57H133.024ZM140.958 57V47.6943H143.974C145.116 47.6943 145.861 47.7409 146.208 47.834C146.741 47.9736 147.188 48.2783 147.547 48.748C147.907 49.2135 148.087 49.8166 148.087 50.5571C148.087 51.1284 147.983 51.6087 147.776 51.998C147.569 52.3874 147.304 52.6942 146.982 52.9185C146.665 53.1385 146.341 53.2845 146.011 53.3564C145.563 53.4453 144.913 53.4897 144.062 53.4897H142.837V57H140.958ZM142.837 49.2686V51.9092H143.866C144.606 51.9092 145.101 51.8605 145.351 51.7632C145.601 51.6659 145.795 51.5135 145.935 51.3062C146.079 51.0988 146.151 50.8576 146.151 50.5825C146.151 50.244 146.051 49.9647 145.853 49.7446C145.654 49.5246 145.402 49.387 145.097 49.332C144.873 49.2897 144.422 49.2686 143.745 49.2686H142.837Z" fill="white"/>
<path d="M29.8887 108V98.6943H31.7676V108H29.8887ZM33.583 108V98.6943H35.4111L39.2197 104.909V98.6943H40.9653V108H39.0801L35.3286 101.932V108H33.583ZM42.9712 108V98.6943H49.3506V100.269H44.8501V102.471H48.7349V104.045H44.8501V108H42.9712ZM50.9058 108V98.6943H53.9209C55.0635 98.6943 55.8083 98.7409 56.1553 98.834C56.6885 98.9736 57.1349 99.2783 57.4946 99.748C57.8543 100.214 58.0342 100.817 58.0342 101.557C58.0342 102.128 57.9305 102.609 57.7231 102.998C57.5158 103.387 57.2513 103.694 56.9297 103.918C56.6123 104.139 56.2886 104.285 55.9585 104.356C55.5099 104.445 54.8604 104.49 54.0098 104.49H52.7847V108H50.9058ZM52.7847 100.269V102.909H53.813C54.5535 102.909 55.0487 102.861 55.2983 102.763C55.548 102.666 55.7427 102.514 55.8823 102.306C56.0262 102.099 56.0981 101.858 56.0981 101.583C56.0981 101.244 55.9987 100.965 55.7998 100.745C55.6009 100.525 55.3491 100.387 55.0444 100.332C54.8201 100.29 54.3695 100.269 53.6924 100.269H52.7847Z" fill="white"/>
<path d="M198.889 108V98.6943H200.768V108H198.889ZM202.583 108V98.6943H204.411L208.22 104.909V98.6943H209.965V108H208.08L204.329 101.932V108H202.583ZM214.053 108V100.269H211.292V98.6943H218.687V100.269H215.932V108H214.053ZM223.264 98.6943H225.136V104.585C225.136 105.355 225.069 105.948 224.933 106.362C224.751 106.904 224.421 107.34 223.943 107.67C223.465 107.996 222.834 108.159 222.051 108.159C221.133 108.159 220.426 107.903 219.931 107.391C219.436 106.874 219.186 106.119 219.182 105.125L220.953 104.921C220.974 105.455 221.053 105.831 221.188 106.051C221.391 106.386 221.7 106.553 222.115 106.553C222.534 106.553 222.83 106.434 223.003 106.197C223.177 105.956 223.264 105.459 223.264 104.706V98.6943Z" fill="white"/>
<path d="M29.9458 202V192.694H36.8457V194.269H31.8247V196.332H36.4966V197.899H31.8247V200.432H37.0234V202H29.9458ZM38.6357 202V192.694H40.4639L44.2725 198.909V192.694H46.0181V202H44.1328L40.3813 195.932V202H38.6357ZM50.106 202V194.269H47.3447V192.694H54.7397V194.269H51.9849V202H50.106ZM59.3164 192.694H61.189V198.585C61.189 199.355 61.1213 199.948 60.9858 200.362C60.8039 200.904 60.4738 201.34 59.9956 201.67C59.5174 201.996 58.8869 202.159 58.104 202.159C57.1857 202.159 56.479 201.903 55.9839 201.391C55.4888 200.874 55.2391 200.119 55.2349 199.125L57.0059 198.921C57.027 199.455 57.1053 199.831 57.2407 200.051C57.4438 200.386 57.7528 200.553 58.1675 200.553C58.5864 200.553 58.8826 200.434 59.0562 200.197C59.2297 199.956 59.3164 199.459 59.3164 198.706V192.694Z" fill="white"/>
<path d="M161.946 237V227.694H168.846V229.269H163.825V231.332H168.497V232.899H163.825V235.432H169.023V237H161.946ZM170.636 237V227.694H172.464L176.272 233.909V227.694H178.018V237H176.133L172.381 230.932V237H170.636ZM180.024 237V227.694H186.403V229.269H181.903V231.471H185.788V233.045H181.903V237H180.024ZM191.316 227.694H193.189V233.585C193.189 234.355 193.121 234.948 192.986 235.362C192.804 235.904 192.474 236.34 191.996 236.67C191.517 236.996 190.887 237.159 190.104 237.159C189.186 237.159 188.479 236.903 187.984 236.391C187.489 235.874 187.239 235.119 187.235 234.125L189.006 233.921C189.027 234.455 189.105 234.831 189.241 235.051C189.444 235.386 189.753 235.553 190.167 235.553C190.586 235.553 190.883 235.434 191.056 235.197C191.23 234.956 191.316 234.459 191.316 233.706V227.694Z" fill="white"/>
<defs>
<linearGradient id="paint0_linear_55_203" x1="162.5" y1="150" x2="162.5" y2="280" gradientUnits="userSpaceOnUse">
<stop stop-color="#76D5FC"/>
<stop offset="1" stop-color="#6EC5EE"/>
</linearGradient>
<linearGradient id="paint1_linear_55_203" x1="65" y1="150" x2="65" y2="262.583" gradientUnits="userSpaceOnUse">
<stop stop-color="#F5EA6F"/>
<stop offset="1" stop-color="#D2D862"/>
</linearGradient>
<linearGradient id="paint2_linear_55_203" x1="65" y1="37.4167" x2="65" y2="150" gradientUnits="userSpaceOnUse">
<stop stop-color="#EC8934"/>
<stop offset="1" stop-color="#EA6A35"/>
</linearGradient>
<linearGradient id="paint3_linear_55_203" x1="130" y1="20" x2="130" y2="150" gradientUnits="userSpaceOnUse">
<stop stop-color="#85E5A7"/>
<stop offset="1" stop-color="#6CD8A0"/>
</linearGradient>
<linearGradient id="paint4_linear_55_203" x1="195" y1="37.4167" x2="195" y2="150" gradientUnits="userSpaceOnUse">
<stop stop-color="#BC9BE5"/>
<stop offset="1" stop-color="#9A72FF"/>
</linearGradient>
<linearGradient id="paint5_linear_55_203" x1="310" y1="84" x2="310" y2="104" gradientUnits="userSpaceOnUse">
<stop stop-color="#76D5FC"/>
<stop offset="1" stop-color="#6EC5EE"/>
</linearGradient>
<linearGradient id="paint6_linear_55_203" x1="310" y1="112" x2="310" y2="132" gradientUnits="userSpaceOnUse">
<stop stop-color="#85E5A7"/>
<stop offset="1" stop-color="#6CD8A0"/>
</linearGradient>
<linearGradient id="paint7_linear_55_203" x1="310" y1="140" x2="310" y2="160" gradientUnits="userSpaceOnUse">
<stop stop-color="#F5EA6F"/>
<stop offset="1" stop-color="#D2D862"/>
</linearGradient>
<linearGradient id="paint8_linear_55_203" x1="310" y1="168" x2="310" y2="188" gradientUnits="userSpaceOnUse">
<stop stop-color="#EC8934"/>
<stop offset="1" stop-color="#EA6A35"/>
</linearGradient>
<linearGradient id="paint9_linear_55_203" x1="310" y1="196" x2="310" y2="216" gradientUnits="userSpaceOnUse">
<stop stop-color="#BC9BE5"/>
<stop offset="1" stop-color="#9A72FF"/>
</linearGradient>
</defs>
</svg>
