<svg width="450" height="300" viewBox="0 0 450 300" fill="none" xmlns="http://www.w3.org/2000/svg">
<rect width="450" height="300" fill="white"/>
<path d="M130 150H260C260 172.82 253.993 195.238 242.583 215C231.173 234.762 214.762 251.173 195 262.583L130 150Z" fill="url(#paint0_linear_55_21)"/>
<path d="M130 150L195 262.583C175.238 273.993 152.82 280 130 280C107.18 280 84.7625 273.993 65 262.583L130 150Z" fill="url(#paint1_linear_55_21)"/>
<path d="M130 150L65 262.583C45.2375 251.173 28.8266 234.762 17.4167 215C6.00681 195.238 0 172.82 0 150H130Z" fill="url(#paint2_linear_55_21)"/>
<path d="M130 150H0C0 127.18 6.00681 104.762 17.4167 85C28.8266 65.2375 45.2375 48.8266 65 37.4167L130 150Z" fill="url(#paint3_linear_55_21)"/>
<path d="M130 150L65 37.4167C84.7625 26.0068 107.18 20 130 20C152.82 20 175.238 26.0068 195 37.4167L130 150Z" fill="url(#paint4_linear_55_21)"/>
<path d="M130 150L195 37.4167C214.762 48.8266 231.173 65.2375 242.583 85C253.993 104.762 260 127.18 260 150H130Z" fill="url(#paint5_linear_55_21)"/>
<path d="M130 215C165.899 215 195 185.899 195 150C195 114.101 165.899 85 130 85C94.1015 85 65 114.101 65 150C65 185.899 94.1015 215 130 215Z" fill="white"/>
<path d="M112.536 137.264C113.048 137.157 113.453 137.179 113.752 137.328C114.072 137.477 114.339 137.776 114.552 138.224L114.808 138.736V141.104C114.787 142.704 114.819 143.717 114.904 144.144C114.947 144.528 115 145.349 115.064 146.608C115.085 147.803 115.128 148.56 115.192 148.88C115.213 149.136 115.224 150.629 115.224 153.36L115.192 157.424L115 157.68C114.659 158.128 114.264 158.395 113.816 158.48C113.368 158.565 112.963 158.459 112.6 158.16C112.301 157.925 112.131 157.701 112.088 157.488C112.045 157.253 112.013 156.528 111.992 155.312C111.992 153.925 111.949 153.061 111.864 152.72C111.779 152.4 111.736 151.387 111.736 149.68C111.736 147.952 111.704 146.843 111.64 146.352C111.576 145.84 111.544 145.371 111.544 144.944C111.544 144.432 111.501 144.176 111.416 144.176C111.373 144.176 111.288 144.261 111.16 144.432C111.096 144.517 111 144.656 110.872 144.848C110.744 144.997 110.637 145.157 110.552 145.328C110.467 145.477 110.157 145.904 109.624 146.608C109.069 147.376 108.771 147.792 108.728 147.856C108.621 147.984 108.451 148.197 108.216 148.496C107.939 148.837 107.779 149.04 107.736 149.104C107.693 149.189 107.544 149.36 107.288 149.616C107.075 149.872 106.947 150.053 106.904 150.16C106.755 150.523 106.456 150.864 106.008 151.184C105.56 151.504 105.176 151.643 104.856 151.6C104.387 151.557 104.013 151.408 103.736 151.152C103.48 150.875 102.893 150.053 101.976 148.688C101.912 148.581 101.731 148.315 101.432 147.888C101.24 147.611 101.037 147.312 100.824 146.992C100.312 146.181 99.9707 145.669 99.8 145.456C99.7147 145.392 99.64 145.275 99.576 145.104C99.4907 144.955 99.3733 144.805 99.224 144.656C99.096 144.507 99 144.432 98.936 144.432C98.8933 144.432 98.8613 144.72 98.84 145.296C98.84 145.872 98.8507 146.48 98.872 147.12C98.9147 147.739 98.968 148.112 99.032 148.24C99.096 148.432 99.1493 149.573 99.192 151.664C99.2133 153.755 99.2453 154.96 99.288 155.28C99.3947 155.984 99.2987 156.549 99 156.976C98.7013 157.403 98.2533 157.616 97.656 157.616C97.3573 157.616 97.08 157.531 96.824 157.36C96.3973 157.083 96.1307 156.763 96.024 156.4C95.9387 156.016 95.8853 155.067 95.864 153.552C95.8427 152.037 95.8107 151.248 95.768 151.184C95.7467 151.141 95.7147 150.501 95.672 149.264C95.6507 148.027 95.5867 147.291 95.48 147.056C95.3947 146.843 95.3413 145.52 95.32 143.088C95.32 140.656 95.3627 139.365 95.448 139.216C95.512 139.131 95.576 138.971 95.64 138.736C95.7893 138.267 96.0987 137.925 96.568 137.712C97.0587 137.499 97.56 137.467 98.072 137.616C98.6053 137.765 98.9787 138.064 99.192 138.512C99.2773 138.704 99.3307 138.811 99.352 138.832C99.3947 138.853 99.4693 138.949 99.576 139.12C99.7893 139.419 99.9173 139.6 99.96 139.664C100.003 139.749 100.088 139.888 100.216 140.08C100.707 140.891 101.208 141.595 101.72 142.192C101.891 142.405 102.072 142.651 102.264 142.928C102.563 143.355 102.733 143.6 102.776 143.664C102.904 143.813 103 143.952 103.064 144.08C103.107 144.187 103.16 144.283 103.224 144.368C103.309 144.432 103.405 144.549 103.512 144.72C103.747 145.147 103.917 145.424 104.024 145.552C104.088 145.637 104.248 145.883 104.504 146.288C104.739 146.715 104.899 146.949 104.984 146.992C105.069 147.013 105.208 146.875 105.4 146.576C105.549 146.341 105.72 146.107 105.912 145.872C106.104 145.616 106.211 145.445 106.232 145.36C106.296 145.275 106.381 145.168 106.488 145.04C106.893 144.549 107.213 144.101 107.448 143.696C107.555 143.547 107.704 143.344 107.896 143.088C108.067 142.875 108.184 142.715 108.248 142.608C108.525 142.16 108.845 141.691 109.208 141.2C109.464 140.859 109.635 140.624 109.72 140.496C109.827 140.325 109.987 140.123 110.2 139.888C110.435 139.589 110.552 139.419 110.552 139.376C110.552 139.333 110.627 139.227 110.776 139.056C110.925 138.885 111.16 138.576 111.48 138.128C111.715 137.787 111.885 137.573 111.992 137.488C112.12 137.381 112.301 137.307 112.536 137.264ZM119.403 146.064C119.723 145.936 120.363 145.872 121.323 145.872C122.305 145.851 122.934 145.893 123.211 146C123.425 146.085 123.563 146.128 123.627 146.128C123.713 146.128 123.958 146.235 124.363 146.448C124.769 146.661 125.046 146.821 125.195 146.928C125.537 147.184 125.899 147.525 126.283 147.952C126.689 148.357 126.891 148.613 126.891 148.72C126.891 148.763 126.923 148.805 126.987 148.848C127.115 148.891 127.254 149.189 127.403 149.744C127.553 150.299 127.595 150.715 127.531 150.992C127.382 151.76 127.019 152.304 126.443 152.624C125.889 152.944 124.929 153.136 123.563 153.2C122.795 153.221 122.337 153.275 122.187 153.36C122.017 153.424 121.526 153.467 120.715 153.488C119.819 153.488 119.371 153.541 119.371 153.648C119.371 153.691 119.435 153.787 119.563 153.936C119.67 154.064 119.723 154.149 119.723 154.192C119.723 154.235 119.83 154.352 120.043 154.544C120.257 154.715 120.406 154.8 120.491 154.8C120.577 154.8 120.694 154.853 120.843 154.96C120.993 155.088 121.302 155.152 121.771 155.152C122.262 155.152 122.667 155.099 122.987 154.992C123.265 154.885 123.521 154.821 123.755 154.8C123.99 154.757 124.214 154.693 124.427 154.608C124.619 154.501 124.833 154.427 125.067 154.384C125.259 154.341 125.441 154.277 125.611 154.192C125.867 154.043 126.209 153.989 126.635 154.032C127.062 154.053 127.382 154.149 127.595 154.32C128.043 154.704 128.235 155.205 128.171 155.824C128.129 156.421 127.862 156.869 127.371 157.168C126.795 157.509 126.102 157.755 125.291 157.904C124.971 157.968 124.726 158.032 124.555 158.096C124.427 158.16 124.182 158.213 123.819 158.256C123.478 158.299 123.211 158.352 123.019 158.416C122.635 158.523 121.995 158.544 121.099 158.48C120.225 158.416 119.659 158.299 119.403 158.128C119.297 158.043 119.137 157.979 118.923 157.936C118.646 157.872 118.23 157.605 117.675 157.136C116.886 156.475 116.385 155.717 116.171 154.864C116.107 154.608 116.043 154.416 115.979 154.288C115.894 154.139 115.851 153.541 115.851 152.496C115.851 151.451 115.894 150.843 115.979 150.672C116.065 150.48 116.15 150.224 116.235 149.904C116.747 147.92 117.803 146.64 119.403 146.064ZM122.699 149.456C122.571 149.328 122.187 149.275 121.547 149.296C120.907 149.317 120.502 149.392 120.331 149.52C119.969 149.797 119.883 149.957 120.075 150C120.203 150.021 120.513 150.032 121.003 150.032C122.262 150.011 122.849 149.861 122.763 149.584C122.763 149.541 122.742 149.499 122.699 149.456ZM138.899 137.392C139.07 137.328 139.283 137.307 139.539 137.328C139.795 137.328 139.966 137.36 140.051 137.424C140.158 137.509 140.233 137.552 140.275 137.552C140.361 137.552 140.489 137.669 140.659 137.904C140.83 138.139 140.926 138.32 140.947 138.448C140.969 138.619 141.022 138.821 141.107 139.056C141.193 139.291 141.235 142.32 141.235 148.144C141.257 153.947 141.225 156.933 141.139 157.104C141.054 157.232 140.99 157.349 140.947 157.456C140.841 157.648 140.574 157.829 140.147 158C139.742 158.171 139.337 158.256 138.931 158.256C138.697 158.256 138.419 158.288 138.099 158.352C137.801 158.437 137.054 158.48 135.859 158.48C134.686 158.501 133.961 158.48 133.683 158.416C133.491 158.352 133.182 158.277 132.755 158.192C132.307 158.064 131.721 157.797 130.995 157.392C130.291 156.965 129.939 156.667 129.939 156.496C129.939 156.475 129.854 156.368 129.683 156.176C129.513 155.963 129.427 155.824 129.427 155.76C129.427 155.696 129.374 155.6 129.267 155.472C129.097 155.259 128.969 154.757 128.883 153.968C128.819 153.157 128.83 152.485 128.915 151.952C128.958 151.739 129.001 151.483 129.043 151.184C129.086 150.885 129.15 150.683 129.235 150.576C129.321 150.448 129.395 150.299 129.459 150.128C129.694 149.488 130.249 148.848 131.123 148.208C131.998 147.547 132.883 147.131 133.779 146.96C134.121 146.896 134.366 146.832 134.515 146.768C134.686 146.704 135.241 146.661 136.179 146.64C137.118 146.619 137.619 146.587 137.683 146.544C137.769 146.501 137.811 145.136 137.811 142.448C137.811 140.421 137.822 139.227 137.843 138.864C137.865 138.501 137.929 138.245 138.035 138.096C138.249 137.733 138.537 137.499 138.899 137.392ZM137.651 150.384C137.566 150.299 137.47 150.256 137.363 150.256C137.257 150.235 136.883 150.213 136.243 150.192C135.433 150.192 134.963 150.213 134.835 150.256C133.939 150.491 133.31 150.768 132.947 151.088C132.585 151.408 132.371 151.856 132.307 152.432C132.201 153.499 132.35 154.192 132.755 154.512C133.182 154.811 134.195 154.96 135.795 154.96C135.945 154.96 136.137 154.96 136.371 154.96C137.118 154.981 137.545 154.928 137.651 154.8C137.779 154.672 137.843 154.245 137.843 153.52C137.843 153.285 137.843 153.104 137.843 152.976C137.865 151.931 137.865 151.269 137.843 150.992C137.822 150.715 137.758 150.512 137.651 150.384ZM145.114 140.944C145.583 140.752 145.999 140.752 146.362 140.944C146.746 141.115 147.055 141.36 147.29 141.68C147.524 141.979 147.631 142.341 147.61 142.768C147.61 143.195 147.45 143.568 147.13 143.888C146.959 144.059 146.831 144.165 146.746 144.208C146.682 144.229 146.511 144.24 146.234 144.24C145.807 144.261 145.519 144.251 145.37 144.208C145.22 144.165 145.039 144.037 144.826 143.824C144.314 143.355 144.09 142.821 144.154 142.224C144.218 141.605 144.538 141.179 145.114 140.944ZM145.242 146.256C146.01 145.893 146.671 146.075 147.226 146.8L147.514 147.216L147.546 150.416C147.546 152.571 147.567 153.787 147.61 154.064C147.652 154.469 147.674 155.035 147.674 155.76C147.695 156.464 147.684 156.891 147.642 157.04C147.62 157.168 147.588 157.317 147.546 157.488C147.503 157.744 147.322 157.979 147.002 158.192C146.703 158.405 146.394 158.512 146.074 158.512C145.711 158.512 145.434 158.459 145.242 158.352C145.071 158.245 144.868 158.021 144.634 157.68L144.314 157.232L144.25 155.312C144.1 150.192 144.164 147.44 144.442 147.056C144.506 146.949 144.58 146.821 144.666 146.672C144.772 146.523 144.964 146.384 145.242 146.256ZM159.625 145.52C159.817 145.435 160.127 145.392 160.553 145.392C160.937 145.413 161.193 145.456 161.321 145.52C161.449 145.584 161.62 145.755 161.833 146.032L162.153 146.416L162.185 148.816C162.228 150.437 162.281 151.344 162.345 151.536C162.409 151.771 162.441 151.963 162.441 152.112C162.441 152.389 162.484 152.752 162.569 153.2C162.676 153.627 162.783 153.947 162.889 154.16C163.188 154.8 163.455 155.248 163.689 155.504C164.265 156.208 164.436 156.891 164.201 157.552C163.988 158.192 163.476 158.512 162.665 158.512C162.175 158.512 161.673 158.267 161.161 157.776C160.671 157.285 160.255 156.635 159.913 155.824C159.807 155.547 159.711 155.408 159.625 155.408C159.561 155.408 159.38 155.557 159.081 155.856C158.719 156.219 158.281 156.571 157.769 156.912C157.279 157.232 156.927 157.392 156.713 157.392C156.649 157.392 156.479 157.445 156.201 157.552C155.839 157.701 155.284 157.776 154.537 157.776C153.791 157.755 153.257 157.669 152.937 157.52C152.553 157.349 152.212 157.125 151.913 156.848C151.615 156.571 151.412 156.315 151.305 156.08C151.284 155.995 151.231 155.877 151.145 155.728C151.039 155.579 150.964 155.387 150.921 155.152C150.879 154.896 150.815 154.683 150.729 154.512C150.644 154.299 150.601 153.851 150.601 153.168C150.601 152.485 150.644 152.037 150.729 151.824C150.836 151.632 150.9 151.408 150.921 151.152C150.985 150.683 151.167 150.181 151.465 149.648C151.529 149.52 151.615 149.36 151.721 149.168C151.849 148.891 152.105 148.549 152.489 148.144C152.895 147.717 153.225 147.429 153.481 147.28C154.121 146.875 154.655 146.64 155.081 146.576C155.38 146.512 155.924 146.501 156.713 146.544C157.503 146.565 158.015 146.608 158.249 146.672C158.505 146.736 158.655 146.768 158.697 146.768C158.761 146.747 158.804 146.683 158.825 146.576C158.868 146.405 158.975 146.203 159.145 145.968C159.337 145.733 159.497 145.584 159.625 145.52ZM157.161 149.744C156.628 149.509 156.073 149.573 155.497 149.936C154.943 150.299 154.559 150.832 154.345 151.536C154.281 151.792 154.207 152.016 154.121 152.208C153.929 152.592 153.897 153.093 154.025 153.712C154.175 154.331 154.388 154.64 154.665 154.64C154.879 154.64 155.209 154.523 155.657 154.288C156.105 154.032 156.468 153.765 156.745 153.488C157.001 153.211 157.257 152.837 157.513 152.368C157.769 151.877 157.951 151.44 158.057 151.056C158.143 150.672 158.143 150.416 158.057 150.288C157.972 150.139 157.673 149.957 157.161 149.744Z" fill="black"/>
<path d="M317 70H303C301.343 70 300 71.3431 300 73V87C300 88.6569 301.343 90 303 90H317C318.657 90 320 88.6569 320 87V73C320 71.3431 318.657 70 317 70Z" fill="url(#paint6_linear_55_21)"/>
<path d="M325.949 84V75.4102H332.16V76.4238H327.086V79.0547H331.838V80.0625H327.086V82.9863H332.359V84H325.949ZM333.918 84V75.4102H335.084L339.596 82.1543V75.4102H340.686V84H339.52L335.008 77.25V84H333.918ZM344.787 84V76.4238H341.957V75.4102H348.766V76.4238H345.924V84H344.787ZM349.938 84V75.4102H353.178C353.748 75.4102 354.184 75.4375 354.484 75.4922C354.906 75.5625 355.26 75.6973 355.545 75.8965C355.83 76.0918 356.059 76.3672 356.23 76.7227C356.406 77.0781 356.494 77.4688 356.494 77.8945C356.494 78.625 356.262 79.2441 355.797 79.752C355.332 80.2559 354.492 80.5078 353.277 80.5078H351.074V84H349.938ZM351.074 79.4941H353.295C354.029 79.4941 354.551 79.3574 354.859 79.084C355.168 78.8105 355.322 78.4258 355.322 77.9297C355.322 77.5703 355.23 77.2637 355.047 77.0098C354.867 76.752 354.629 76.582 354.332 76.5C354.141 76.4492 353.787 76.4238 353.271 76.4238H351.074V79.4941ZM358.1 78.9785V77.7773H359.301V78.9785H358.1ZM358.1 84V82.7988H359.301V84H358.1ZM368.166 84H367.111V77.2793C366.857 77.5215 366.523 77.7637 366.109 78.0059C365.699 78.248 365.33 78.4297 365.002 78.5508V77.5312C365.592 77.2539 366.107 76.918 366.549 76.5234C366.99 76.1289 367.303 75.7461 367.486 75.375H368.166V84ZM376.147 75.84H379.279V76.644H376.147V75.84ZM376.147 77.988H379.303V78.804H376.147V77.988ZM378.907 74.076H379.903V80.496H378.907V74.076ZM371.479 74.904H376.423V79.728H371.479V74.904ZM375.451 75.708H372.451V78.924H375.451V75.708ZM376.327 80.82C377.447 80.82 378.327 81 378.967 81.36C379.615 81.72 379.939 82.224 379.939 82.872C379.939 83.52 379.615 84.02 378.967 84.372C378.327 84.732 377.447 84.912 376.327 84.912C375.207 84.912 374.323 84.732 373.675 84.372C373.035 84.02 372.715 83.52 372.715 82.872C372.715 82.224 373.035 81.72 373.675 81.36C374.323 81 375.207 80.82 376.327 80.82ZM376.327 81.6C375.783 81.6 375.315 81.652 374.923 81.756C374.531 81.852 374.227 81.996 374.011 82.188C373.803 82.372 373.699 82.6 373.699 82.872C373.699 83.128 373.803 83.352 374.011 83.544C374.227 83.728 374.531 83.872 374.923 83.976C375.315 84.08 375.783 84.132 376.327 84.132C376.879 84.132 377.347 84.08 377.731 83.976C378.123 83.872 378.423 83.728 378.631 83.544C378.847 83.352 378.955 83.128 378.955 82.872C378.955 82.6 378.847 82.372 378.631 82.188C378.423 81.996 378.123 81.852 377.731 81.756C377.347 81.652 376.879 81.6 376.327 81.6ZM387.561 86.5254C386.979 85.791 386.486 84.9316 386.084 83.9473C385.682 82.9629 385.48 81.9434 385.48 80.8887C385.48 79.959 385.631 79.0684 385.932 78.2168C386.283 77.2285 386.826 76.2441 387.561 75.2637H388.316C387.844 76.0762 387.531 76.6562 387.379 77.0039C387.141 77.543 386.953 78.1055 386.816 78.6914C386.648 79.4219 386.564 80.1562 386.564 80.8945C386.564 82.7734 387.148 84.6504 388.316 86.5254H387.561ZM393.221 84H392.166V77.2793C391.912 77.5215 391.578 77.7637 391.164 78.0059C390.754 78.248 390.385 78.4297 390.057 78.5508V77.5312C390.646 77.2539 391.162 76.918 391.604 76.5234C392.045 76.1289 392.357 75.7461 392.541 75.375H393.221V84ZM401.4 77.5137L400.352 77.5957C400.258 77.1816 400.125 76.8809 399.953 76.6934C399.668 76.3926 399.316 76.2422 398.898 76.2422C398.562 76.2422 398.268 76.3359 398.014 76.5234C397.682 76.7656 397.42 77.1191 397.229 77.584C397.037 78.0488 396.938 78.7109 396.93 79.5703C397.184 79.1836 397.494 78.8965 397.861 78.709C398.229 78.5215 398.613 78.4277 399.016 78.4277C399.719 78.4277 400.316 78.6875 400.809 79.207C401.305 79.7227 401.553 80.3906 401.553 81.2109C401.553 81.75 401.436 82.252 401.201 82.7168C400.971 83.1777 400.652 83.5312 400.246 83.7773C399.84 84.0234 399.379 84.1465 398.863 84.1465C397.984 84.1465 397.268 83.8242 396.713 83.1797C396.158 82.5312 395.881 81.4648 395.881 79.9805C395.881 78.3203 396.188 77.1133 396.801 76.3594C397.336 75.7031 398.057 75.375 398.963 75.375C399.639 75.375 400.191 75.5645 400.621 75.9434C401.055 76.3223 401.314 76.8457 401.4 77.5137ZM397.094 81.2168C397.094 81.5801 397.17 81.9277 397.322 82.2598C397.479 82.5918 397.695 82.8457 397.973 83.0215C398.25 83.1934 398.541 83.2793 398.846 83.2793C399.291 83.2793 399.674 83.0996 399.994 82.7402C400.314 82.3809 400.475 81.8926 400.475 81.2754C400.475 80.6816 400.316 80.2148 400 79.875C399.684 79.5312 399.285 79.3594 398.805 79.3594C398.328 79.3594 397.924 79.5312 397.592 79.875C397.26 80.2148 397.094 80.6621 397.094 81.2168ZM403.199 84V82.7988H404.4V84H403.199ZM406.018 76.5352V75.5215H411.578V76.3418C411.031 76.9238 410.488 77.6973 409.949 78.6621C409.414 79.627 409 80.6191 408.707 81.6387C408.496 82.3574 408.361 83.1445 408.303 84H407.219C407.23 83.3242 407.363 82.5078 407.617 81.5508C407.871 80.5938 408.234 79.6719 408.707 78.7852C409.184 77.8945 409.689 77.1445 410.225 76.5352H406.018ZM412.826 77.4727C412.826 76.8594 412.98 76.3379 413.289 75.9082C413.598 75.4785 414.045 75.2637 414.631 75.2637C415.17 75.2637 415.615 75.457 415.967 75.8438C416.322 76.2266 416.5 76.791 416.5 77.5371C416.5 78.2637 416.32 78.8242 415.961 79.2188C415.605 79.6094 415.166 79.8047 414.643 79.8047C414.123 79.8047 413.689 79.6113 413.342 79.2246C412.998 78.8379 412.826 78.2539 412.826 77.4727ZM414.66 75.9902C414.398 75.9902 414.18 76.1035 414.004 76.3301C413.832 76.5566 413.746 76.9727 413.746 77.5781C413.746 78.1289 413.834 78.5176 414.01 78.7441C414.186 78.9668 414.402 79.0781 414.66 79.0781C414.926 79.0781 415.145 78.9648 415.316 78.7383C415.492 78.5117 415.58 78.0977 415.58 77.4961C415.58 76.9414 415.492 76.5527 415.316 76.3301C415.141 76.1035 414.922 75.9902 414.66 75.9902ZM414.666 84.3164L419.365 75.2637H420.221L415.539 84.3164H414.666ZM418.381 81.9844C418.381 81.3672 418.535 80.8457 418.844 80.4199C419.152 79.9902 419.602 79.7754 420.191 79.7754C420.73 79.7754 421.176 79.9688 421.527 80.3555C421.883 80.7383 422.061 81.3027 422.061 82.0488C422.061 82.7754 421.881 83.3359 421.521 83.7305C421.166 84.1211 420.725 84.3164 420.197 84.3164C419.678 84.3164 419.244 84.123 418.896 83.7363C418.553 83.3457 418.381 82.7617 418.381 81.9844ZM420.221 80.502C419.955 80.502 419.734 80.6152 419.559 80.8418C419.387 81.0684 419.301 81.4844 419.301 82.0898C419.301 82.6367 419.389 83.0234 419.564 83.25C419.74 83.4766 419.957 83.5898 420.215 83.5898C420.484 83.5898 420.705 83.4766 420.877 83.25C421.053 83.0234 421.141 82.6094 421.141 82.0078C421.141 81.4531 421.053 81.0645 420.877 80.8418C420.701 80.6152 420.482 80.502 420.221 80.502ZM424.287 86.5254H423.531C424.699 84.6504 425.283 82.7734 425.283 80.8945C425.283 80.1602 425.199 79.4316 425.031 78.709C424.898 78.123 424.713 77.5605 424.475 77.0215C424.322 76.6699 424.008 76.084 423.531 75.2637H424.287C425.021 76.2441 425.564 77.2285 425.916 78.2168C426.217 79.0684 426.367 79.959 426.367 80.8887C426.367 81.9434 426.164 82.9629 425.758 83.9473C425.355 84.9316 424.865 85.791 424.287 86.5254Z" fill="black"/>
<path d="M317 98H303C301.343 98 300 99.3431 300 101V115C300 116.657 301.343 118 303 118H317C318.657 118 320 116.657 320 115V101C320 99.3431 318.657 98 317 98Z" fill="url(#paint7_linear_55_21)"/>
<path d="M326.119 112V103.41H327.256V112H326.119ZM329.254 112V103.41H330.42L334.932 110.154V103.41H336.021V112H334.855L330.344 105.25V112H329.254ZM337.996 112V103.41H343.791V104.424H339.133V107.084H343.164V108.098H339.133V112H337.996ZM344.693 109.562L345.719 109.422C345.746 110.078 345.869 110.527 346.088 110.77C346.307 111.012 346.609 111.133 346.996 111.133C347.281 111.133 347.527 111.068 347.734 110.939C347.941 110.807 348.084 110.629 348.162 110.406C348.24 110.18 348.279 109.82 348.279 109.328V103.41H349.416V109.264C349.416 109.982 349.328 110.539 349.152 110.934C348.98 111.328 348.705 111.629 348.326 111.836C347.951 112.043 347.51 112.146 347.002 112.146C346.248 112.146 345.67 111.93 345.268 111.496C344.869 111.062 344.678 110.418 344.693 109.562ZM351.432 106.979V105.777H352.633V106.979H351.432ZM351.432 112V110.799H352.633V112H351.432ZM361.498 112H360.443V105.279C360.189 105.521 359.855 105.764 359.441 106.006C359.031 106.248 358.662 106.43 358.334 106.551V105.531C358.924 105.254 359.439 104.918 359.881 104.523C360.322 104.129 360.635 103.746 360.818 103.375H361.498V112ZM369.479 103.84H372.611V104.644H369.479V103.84ZM369.479 105.988H372.635V106.804H369.479V105.988ZM372.239 102.076H373.235V108.496H372.239V102.076ZM364.811 102.904H369.755V107.728H364.811V102.904ZM368.783 103.708H365.783V106.924H368.783V103.708ZM369.659 108.82C370.779 108.82 371.659 109 372.299 109.36C372.947 109.72 373.271 110.224 373.271 110.872C373.271 111.52 372.947 112.02 372.299 112.372C371.659 112.732 370.779 112.912 369.659 112.912C368.539 112.912 367.655 112.732 367.007 112.372C366.367 112.02 366.047 111.52 366.047 110.872C366.047 110.224 366.367 109.72 367.007 109.36C367.655 109 368.539 108.82 369.659 108.82ZM369.659 109.6C369.115 109.6 368.647 109.652 368.255 109.756C367.863 109.852 367.559 109.996 367.343 110.188C367.135 110.372 367.031 110.6 367.031 110.872C367.031 111.128 367.135 111.352 367.343 111.544C367.559 111.728 367.863 111.872 368.255 111.976C368.647 112.08 369.115 112.132 369.659 112.132C370.211 112.132 370.679 112.08 371.063 111.976C371.455 111.872 371.755 111.728 371.963 111.544C372.179 111.352 372.287 111.128 372.287 110.872C372.287 110.6 372.179 110.372 371.963 110.188C371.755 109.996 371.455 109.852 371.063 109.756C370.679 109.652 370.211 109.6 369.659 109.6ZM380.893 114.525C380.311 113.791 379.818 112.932 379.416 111.947C379.014 110.963 378.812 109.943 378.812 108.889C378.812 107.959 378.963 107.068 379.264 106.217C379.615 105.229 380.158 104.244 380.893 103.264H381.648C381.176 104.076 380.863 104.656 380.711 105.004C380.473 105.543 380.285 106.105 380.148 106.691C379.98 107.422 379.896 108.156 379.896 108.895C379.896 110.773 380.48 112.65 381.648 114.525H380.893ZM386.553 112H385.498V105.279C385.244 105.521 384.91 105.764 384.496 106.006C384.086 106.248 383.717 106.43 383.389 106.551V105.531C383.979 105.254 384.494 104.918 384.936 104.523C385.377 104.129 385.689 103.746 385.873 103.375H386.553V112ZM394.732 105.514L393.684 105.596C393.59 105.182 393.457 104.881 393.285 104.693C393 104.393 392.648 104.242 392.23 104.242C391.895 104.242 391.6 104.336 391.346 104.523C391.014 104.766 390.752 105.119 390.561 105.584C390.369 106.049 390.27 106.711 390.262 107.57C390.516 107.184 390.826 106.896 391.193 106.709C391.561 106.521 391.945 106.428 392.348 106.428C393.051 106.428 393.648 106.688 394.141 107.207C394.637 107.723 394.885 108.391 394.885 109.211C394.885 109.75 394.768 110.252 394.533 110.717C394.303 111.178 393.984 111.531 393.578 111.777C393.172 112.023 392.711 112.146 392.195 112.146C391.316 112.146 390.6 111.824 390.045 111.18C389.49 110.531 389.213 109.465 389.213 107.98C389.213 106.32 389.52 105.113 390.133 104.359C390.668 103.703 391.389 103.375 392.295 103.375C392.971 103.375 393.523 103.564 393.953 103.943C394.387 104.322 394.646 104.846 394.732 105.514ZM390.426 109.217C390.426 109.58 390.502 109.928 390.654 110.26C390.811 110.592 391.027 110.846 391.305 111.021C391.582 111.193 391.873 111.279 392.178 111.279C392.623 111.279 393.006 111.1 393.326 110.74C393.646 110.381 393.807 109.893 393.807 109.275C393.807 108.682 393.648 108.215 393.332 107.875C393.016 107.531 392.617 107.359 392.137 107.359C391.66 107.359 391.256 107.531 390.924 107.875C390.592 108.215 390.426 108.662 390.426 109.217ZM396.531 112V110.799H397.732V112H396.531ZM399.35 104.535V103.521H404.91V104.342C404.363 104.924 403.82 105.697 403.281 106.662C402.746 107.627 402.332 108.619 402.039 109.639C401.828 110.357 401.693 111.145 401.635 112H400.551C400.562 111.324 400.695 110.508 400.949 109.551C401.203 108.594 401.566 107.672 402.039 106.785C402.516 105.895 403.021 105.145 403.557 104.535H399.35ZM406.158 105.473C406.158 104.859 406.312 104.338 406.621 103.908C406.93 103.479 407.377 103.264 407.963 103.264C408.502 103.264 408.947 103.457 409.299 103.844C409.654 104.227 409.832 104.791 409.832 105.537C409.832 106.264 409.652 106.824 409.293 107.219C408.938 107.609 408.498 107.805 407.975 107.805C407.455 107.805 407.021 107.611 406.674 107.225C406.33 106.838 406.158 106.254 406.158 105.473ZM407.992 103.99C407.73 103.99 407.512 104.104 407.336 104.33C407.164 104.557 407.078 104.973 407.078 105.578C407.078 106.129 407.166 106.518 407.342 106.744C407.518 106.967 407.734 107.078 407.992 107.078C408.258 107.078 408.477 106.965 408.648 106.738C408.824 106.512 408.912 106.098 408.912 105.496C408.912 104.941 408.824 104.553 408.648 104.33C408.473 104.104 408.254 103.99 407.992 103.99ZM407.998 112.316L412.697 103.264H413.553L408.871 112.316H407.998ZM411.713 109.984C411.713 109.367 411.867 108.846 412.176 108.42C412.484 107.99 412.934 107.775 413.523 107.775C414.062 107.775 414.508 107.969 414.859 108.355C415.215 108.738 415.393 109.303 415.393 110.049C415.393 110.775 415.213 111.336 414.854 111.73C414.498 112.121 414.057 112.316 413.529 112.316C413.01 112.316 412.576 112.123 412.229 111.736C411.885 111.346 411.713 110.762 411.713 109.984ZM413.553 108.502C413.287 108.502 413.066 108.615 412.891 108.842C412.719 109.068 412.633 109.484 412.633 110.09C412.633 110.637 412.721 111.023 412.896 111.25C413.072 111.477 413.289 111.59 413.547 111.59C413.816 111.59 414.037 111.477 414.209 111.25C414.385 111.023 414.473 110.609 414.473 110.008C414.473 109.453 414.385 109.064 414.209 108.842C414.033 108.615 413.814 108.502 413.553 108.502ZM417.619 114.525H416.863C418.031 112.65 418.615 110.773 418.615 108.895C418.615 108.16 418.531 107.432 418.363 106.709C418.23 106.123 418.045 105.561 417.807 105.021C417.654 104.67 417.34 104.084 416.863 103.264H417.619C418.354 104.244 418.896 105.229 419.248 106.217C419.549 107.068 419.699 107.959 419.699 108.889C419.699 109.943 419.496 110.963 419.09 111.947C418.688 112.932 418.197 113.791 417.619 114.525Z" fill="black"/>
<path d="M317 126H303C301.343 126 300 127.343 300 129V143C300 144.657 301.343 146 303 146H317C318.657 146 320 144.657 320 143V129C320 127.343 318.657 126 317 126Z" fill="url(#paint8_linear_55_21)"/>
<path d="M326.119 140V131.41H327.256V140H326.119ZM329.254 140V131.41H330.42L334.932 138.154V131.41H336.021V140H334.855L330.344 133.25V140H329.254ZM337.996 140V131.41H343.791V132.424H339.133V135.084H343.164V136.098H339.133V140H337.996ZM345.273 140V131.41H348.514C349.084 131.41 349.52 131.438 349.82 131.492C350.242 131.562 350.596 131.697 350.881 131.896C351.166 132.092 351.395 132.367 351.566 132.723C351.742 133.078 351.83 133.469 351.83 133.895C351.83 134.625 351.598 135.244 351.133 135.752C350.668 136.256 349.828 136.508 348.613 136.508H346.41V140H345.273ZM346.41 135.494H348.631C349.365 135.494 349.887 135.357 350.195 135.084C350.504 134.811 350.658 134.426 350.658 133.93C350.658 133.57 350.566 133.264 350.383 133.01C350.203 132.752 349.965 132.582 349.668 132.5C349.477 132.449 349.123 132.424 348.607 132.424H346.41V135.494ZM353.436 134.979V133.777H354.637V134.979H353.436ZM353.436 140V138.799H354.637V140H353.436ZM363.502 140H362.447V133.279C362.193 133.521 361.859 133.764 361.445 134.006C361.035 134.248 360.666 134.43 360.338 134.551V133.531C360.928 133.254 361.443 132.918 361.885 132.523C362.326 132.129 362.639 131.746 362.822 131.375H363.502V140ZM371.483 131.84H374.615V132.644H371.483V131.84ZM371.483 133.988H374.639V134.804H371.483V133.988ZM374.243 130.076H375.239V136.496H374.243V130.076ZM366.815 130.904H371.759V135.728H366.815V130.904ZM370.787 131.708H367.787V134.924H370.787V131.708ZM371.663 136.82C372.783 136.82 373.663 137 374.303 137.36C374.951 137.72 375.275 138.224 375.275 138.872C375.275 139.52 374.951 140.02 374.303 140.372C373.663 140.732 372.783 140.912 371.663 140.912C370.543 140.912 369.659 140.732 369.011 140.372C368.371 140.02 368.051 139.52 368.051 138.872C368.051 138.224 368.371 137.72 369.011 137.36C369.659 137 370.543 136.82 371.663 136.82ZM371.663 137.6C371.119 137.6 370.651 137.652 370.259 137.756C369.867 137.852 369.563 137.996 369.347 138.188C369.139 138.372 369.035 138.6 369.035 138.872C369.035 139.128 369.139 139.352 369.347 139.544C369.563 139.728 369.867 139.872 370.259 139.976C370.651 140.08 371.119 140.132 371.663 140.132C372.215 140.132 372.683 140.08 373.067 139.976C373.459 139.872 373.759 139.728 373.967 139.544C374.183 139.352 374.291 139.128 374.291 138.872C374.291 138.6 374.183 138.372 373.967 138.188C373.759 137.996 373.459 137.852 373.067 137.756C372.683 137.652 372.215 137.6 371.663 137.6ZM382.896 142.525C382.314 141.791 381.822 140.932 381.42 139.947C381.018 138.963 380.816 137.943 380.816 136.889C380.816 135.959 380.967 135.068 381.268 134.217C381.619 133.229 382.162 132.244 382.896 131.264H383.652C383.18 132.076 382.867 132.656 382.715 133.004C382.477 133.543 382.289 134.105 382.152 134.691C381.984 135.422 381.9 136.156 381.9 136.895C381.9 138.773 382.484 140.65 383.652 142.525H382.896ZM388.557 140H387.502V133.279C387.248 133.521 386.914 133.764 386.5 134.006C386.09 134.248 385.721 134.43 385.393 134.551V133.531C385.982 133.254 386.498 132.918 386.939 132.523C387.381 132.129 387.693 131.746 387.877 131.375H388.557V140ZM396.736 133.514L395.688 133.596C395.594 133.182 395.461 132.881 395.289 132.693C395.004 132.393 394.652 132.242 394.234 132.242C393.898 132.242 393.604 132.336 393.35 132.523C393.018 132.766 392.756 133.119 392.564 133.584C392.373 134.049 392.273 134.711 392.266 135.57C392.52 135.184 392.83 134.896 393.197 134.709C393.564 134.521 393.949 134.428 394.352 134.428C395.055 134.428 395.652 134.688 396.145 135.207C396.641 135.723 396.889 136.391 396.889 137.211C396.889 137.75 396.771 138.252 396.537 138.717C396.307 139.178 395.988 139.531 395.582 139.777C395.176 140.023 394.715 140.146 394.199 140.146C393.32 140.146 392.604 139.824 392.049 139.18C391.494 138.531 391.217 137.465 391.217 135.98C391.217 134.32 391.523 133.113 392.137 132.359C392.672 131.703 393.393 131.375 394.299 131.375C394.975 131.375 395.527 131.564 395.957 131.943C396.391 132.322 396.65 132.846 396.736 133.514ZM392.43 137.217C392.43 137.58 392.506 137.928 392.658 138.26C392.814 138.592 393.031 138.846 393.309 139.021C393.586 139.193 393.877 139.279 394.182 139.279C394.627 139.279 395.01 139.1 395.33 138.74C395.65 138.381 395.811 137.893 395.811 137.275C395.811 136.682 395.652 136.215 395.336 135.875C395.02 135.531 394.621 135.359 394.141 135.359C393.664 135.359 393.26 135.531 392.928 135.875C392.596 136.215 392.43 136.662 392.43 137.217ZM398.535 140V138.799H399.736V140H398.535ZM401.354 132.535V131.521H406.914V132.342C406.367 132.924 405.824 133.697 405.285 134.662C404.75 135.627 404.336 136.619 404.043 137.639C403.832 138.357 403.697 139.145 403.639 140H402.555C402.566 139.324 402.699 138.508 402.953 137.551C403.207 136.594 403.57 135.672 404.043 134.785C404.52 133.895 405.025 133.145 405.561 132.535H401.354ZM408.162 133.473C408.162 132.859 408.316 132.338 408.625 131.908C408.934 131.479 409.381 131.264 409.967 131.264C410.506 131.264 410.951 131.457 411.303 131.844C411.658 132.227 411.836 132.791 411.836 133.537C411.836 134.264 411.656 134.824 411.297 135.219C410.941 135.609 410.502 135.805 409.979 135.805C409.459 135.805 409.025 135.611 408.678 135.225C408.334 134.838 408.162 134.254 408.162 133.473ZM409.996 131.99C409.734 131.99 409.516 132.104 409.34 132.33C409.168 132.557 409.082 132.973 409.082 133.578C409.082 134.129 409.17 134.518 409.346 134.744C409.521 134.967 409.738 135.078 409.996 135.078C410.262 135.078 410.48 134.965 410.652 134.738C410.828 134.512 410.916 134.098 410.916 133.496C410.916 132.941 410.828 132.553 410.652 132.33C410.477 132.104 410.258 131.99 409.996 131.99ZM410.002 140.316L414.701 131.264H415.557L410.875 140.316H410.002ZM413.717 137.984C413.717 137.367 413.871 136.846 414.18 136.42C414.488 135.99 414.938 135.775 415.527 135.775C416.066 135.775 416.512 135.969 416.863 136.355C417.219 136.738 417.396 137.303 417.396 138.049C417.396 138.775 417.217 139.336 416.857 139.73C416.502 140.121 416.061 140.316 415.533 140.316C415.014 140.316 414.58 140.123 414.232 139.736C413.889 139.346 413.717 138.762 413.717 137.984ZM415.557 136.502C415.291 136.502 415.07 136.615 414.895 136.842C414.723 137.068 414.637 137.484 414.637 138.09C414.637 138.637 414.725 139.023 414.9 139.25C415.076 139.477 415.293 139.59 415.551 139.59C415.82 139.59 416.041 139.477 416.213 139.25C416.389 139.023 416.477 138.609 416.477 138.008C416.477 137.453 416.389 137.064 416.213 136.842C416.037 136.615 415.818 136.502 415.557 136.502ZM419.623 142.525H418.867C420.035 140.65 420.619 138.773 420.619 136.895C420.619 136.16 420.535 135.432 420.367 134.709C420.234 134.123 420.049 133.561 419.811 133.021C419.658 132.67 419.344 132.084 418.867 131.264H419.623C420.357 132.244 420.9 133.229 421.252 134.217C421.553 135.068 421.703 135.959 421.703 136.889C421.703 137.943 421.5 138.963 421.094 139.947C420.691 140.932 420.201 141.791 419.623 142.525Z" fill="black"/>
<path d="M317 154H303C301.343 154 300 155.343 300 157V171C300 172.657 301.343 174 303 174H317C318.657 174 320 172.657 320 171V157C320 155.343 318.657 154 317 154Z" fill="url(#paint9_linear_55_21)"/>
<path d="M326.119 168V159.41H327.256V168H326.119ZM329.254 168V159.41H330.42L334.932 166.154V159.41H336.021V168H334.855L330.344 161.25V168H329.254ZM340.123 168V160.424H337.293V159.41H344.102V160.424H341.26V168H340.123ZM344.693 165.562L345.719 165.422C345.746 166.078 345.869 166.527 346.088 166.77C346.307 167.012 346.609 167.133 346.996 167.133C347.281 167.133 347.527 167.068 347.734 166.939C347.941 166.807 348.084 166.629 348.162 166.406C348.24 166.18 348.279 165.82 348.279 165.328V159.41H349.416V165.264C349.416 165.982 349.328 166.539 349.152 166.934C348.98 167.328 348.705 167.629 348.326 167.836C347.951 168.043 347.51 168.146 347.002 168.146C346.248 168.146 345.67 167.93 345.268 167.496C344.869 167.062 344.678 166.418 344.693 165.562ZM351.432 162.979V161.777H352.633V162.979H351.432ZM351.432 168V166.799H352.633V168H351.432ZM361.498 168H360.443V161.279C360.189 161.521 359.855 161.764 359.441 162.006C359.031 162.248 358.662 162.43 358.334 162.551V161.531C358.924 161.254 359.439 160.918 359.881 160.523C360.322 160.129 360.635 159.746 360.818 159.375H361.498V168ZM369.479 159.84H372.611V160.644H369.479V159.84ZM369.479 161.988H372.635V162.804H369.479V161.988ZM372.239 158.076H373.235V164.496H372.239V158.076ZM364.811 158.904H369.755V163.728H364.811V158.904ZM368.783 159.708H365.783V162.924H368.783V159.708ZM369.659 164.82C370.779 164.82 371.659 165 372.299 165.36C372.947 165.72 373.271 166.224 373.271 166.872C373.271 167.52 372.947 168.02 372.299 168.372C371.659 168.732 370.779 168.912 369.659 168.912C368.539 168.912 367.655 168.732 367.007 168.372C366.367 168.02 366.047 167.52 366.047 166.872C366.047 166.224 366.367 165.72 367.007 165.36C367.655 165 368.539 164.82 369.659 164.82ZM369.659 165.6C369.115 165.6 368.647 165.652 368.255 165.756C367.863 165.852 367.559 165.996 367.343 166.188C367.135 166.372 367.031 166.6 367.031 166.872C367.031 167.128 367.135 167.352 367.343 167.544C367.559 167.728 367.863 167.872 368.255 167.976C368.647 168.08 369.115 168.132 369.659 168.132C370.211 168.132 370.679 168.08 371.063 167.976C371.455 167.872 371.755 167.728 371.963 167.544C372.179 167.352 372.287 167.128 372.287 166.872C372.287 166.6 372.179 166.372 371.963 166.188C371.755 165.996 371.455 165.852 371.063 165.756C370.679 165.652 370.211 165.6 369.659 165.6ZM380.893 170.525C380.311 169.791 379.818 168.932 379.416 167.947C379.014 166.963 378.812 165.943 378.812 164.889C378.812 163.959 378.963 163.068 379.264 162.217C379.615 161.229 380.158 160.244 380.893 159.264H381.648C381.176 160.076 380.863 160.656 380.711 161.004C380.473 161.543 380.285 162.105 380.148 162.691C379.98 163.422 379.896 164.156 379.896 164.895C379.896 166.773 380.48 168.65 381.648 170.525H380.893ZM386.553 168H385.498V161.279C385.244 161.521 384.91 161.764 384.496 162.006C384.086 162.248 383.717 162.43 383.389 162.551V161.531C383.979 161.254 384.494 160.918 384.936 160.523C385.377 160.129 385.689 159.746 385.873 159.375H386.553V168ZM394.732 161.514L393.684 161.596C393.59 161.182 393.457 160.881 393.285 160.693C393 160.393 392.648 160.242 392.23 160.242C391.895 160.242 391.6 160.336 391.346 160.523C391.014 160.766 390.752 161.119 390.561 161.584C390.369 162.049 390.27 162.711 390.262 163.57C390.516 163.184 390.826 162.896 391.193 162.709C391.561 162.521 391.945 162.428 392.348 162.428C393.051 162.428 393.648 162.688 394.141 163.207C394.637 163.723 394.885 164.391 394.885 165.211C394.885 165.75 394.768 166.252 394.533 166.717C394.303 167.178 393.984 167.531 393.578 167.777C393.172 168.023 392.711 168.146 392.195 168.146C391.316 168.146 390.6 167.824 390.045 167.18C389.49 166.531 389.213 165.465 389.213 163.98C389.213 162.32 389.52 161.113 390.133 160.359C390.668 159.703 391.389 159.375 392.295 159.375C392.971 159.375 393.523 159.564 393.953 159.943C394.387 160.322 394.646 160.846 394.732 161.514ZM390.426 165.217C390.426 165.58 390.502 165.928 390.654 166.26C390.811 166.592 391.027 166.846 391.305 167.021C391.582 167.193 391.873 167.279 392.178 167.279C392.623 167.279 393.006 167.1 393.326 166.74C393.646 166.381 393.807 165.893 393.807 165.275C393.807 164.682 393.648 164.215 393.332 163.875C393.016 163.531 392.617 163.359 392.137 163.359C391.66 163.359 391.256 163.531 390.924 163.875C390.592 164.215 390.426 164.662 390.426 165.217ZM396.531 168V166.799H397.732V168H396.531ZM399.35 160.535V159.521H404.91V160.342C404.363 160.924 403.82 161.697 403.281 162.662C402.746 163.627 402.332 164.619 402.039 165.639C401.828 166.357 401.693 167.145 401.635 168H400.551C400.562 167.324 400.695 166.508 400.949 165.551C401.203 164.594 401.566 163.672 402.039 162.785C402.516 161.895 403.021 161.145 403.557 160.535H399.35ZM406.158 161.473C406.158 160.859 406.312 160.338 406.621 159.908C406.93 159.479 407.377 159.264 407.963 159.264C408.502 159.264 408.947 159.457 409.299 159.844C409.654 160.227 409.832 160.791 409.832 161.537C409.832 162.264 409.652 162.824 409.293 163.219C408.938 163.609 408.498 163.805 407.975 163.805C407.455 163.805 407.021 163.611 406.674 163.225C406.33 162.838 406.158 162.254 406.158 161.473ZM407.992 159.99C407.73 159.99 407.512 160.104 407.336 160.33C407.164 160.557 407.078 160.973 407.078 161.578C407.078 162.129 407.166 162.518 407.342 162.744C407.518 162.967 407.734 163.078 407.992 163.078C408.258 163.078 408.477 162.965 408.648 162.738C408.824 162.512 408.912 162.098 408.912 161.496C408.912 160.941 408.824 160.553 408.648 160.33C408.473 160.104 408.254 159.99 407.992 159.99ZM407.998 168.316L412.697 159.264H413.553L408.871 168.316H407.998ZM411.713 165.984C411.713 165.367 411.867 164.846 412.176 164.42C412.484 163.99 412.934 163.775 413.523 163.775C414.062 163.775 414.508 163.969 414.859 164.355C415.215 164.738 415.393 165.303 415.393 166.049C415.393 166.775 415.213 167.336 414.854 167.73C414.498 168.121 414.057 168.316 413.529 168.316C413.01 168.316 412.576 168.123 412.229 167.736C411.885 167.346 411.713 166.762 411.713 165.984ZM413.553 164.502C413.287 164.502 413.066 164.615 412.891 164.842C412.719 165.068 412.633 165.484 412.633 166.09C412.633 166.637 412.721 167.023 412.896 167.25C413.072 167.477 413.289 167.59 413.547 167.59C413.816 167.59 414.037 167.477 414.209 167.25C414.385 167.023 414.473 166.609 414.473 166.008C414.473 165.453 414.385 165.064 414.209 164.842C414.033 164.615 413.814 164.502 413.553 164.502ZM417.619 170.525H416.863C418.031 168.65 418.615 166.773 418.615 164.895C418.615 164.16 418.531 163.432 418.363 162.709C418.23 162.123 418.045 161.561 417.807 161.021C417.654 160.67 417.34 160.084 416.863 159.264H417.619C418.354 160.244 418.896 161.229 419.248 162.217C419.549 163.068 419.699 163.959 419.699 164.889C419.699 165.943 419.496 166.963 419.09 167.947C418.688 168.932 418.197 169.791 417.619 170.525Z" fill="black"/>
<path d="M317 182H303C301.343 182 300 183.343 300 185V199C300 200.657 301.343 202 303 202H317C318.657 202 320 200.657 320 199V185C320 183.343 318.657 182 317 182Z" fill="url(#paint10_linear_55_21)"/>
<path d="M326.119 196V187.41H327.256V196H326.119ZM328.879 193.24L329.951 193.146C330.002 193.576 330.119 193.93 330.303 194.207C330.49 194.48 330.779 194.703 331.17 194.875C331.561 195.043 332 195.127 332.488 195.127C332.922 195.127 333.305 195.062 333.637 194.934C333.969 194.805 334.215 194.629 334.375 194.406C334.539 194.18 334.621 193.934 334.621 193.668C334.621 193.398 334.543 193.164 334.387 192.965C334.23 192.762 333.973 192.592 333.613 192.455C333.383 192.365 332.873 192.227 332.084 192.039C331.295 191.848 330.742 191.668 330.426 191.5C330.016 191.285 329.709 191.02 329.506 190.703C329.307 190.383 329.207 190.025 329.207 189.631C329.207 189.197 329.33 188.793 329.576 188.418C329.822 188.039 330.182 187.752 330.654 187.557C331.127 187.361 331.652 187.264 332.23 187.264C332.867 187.264 333.428 187.367 333.912 187.574C334.4 187.777 334.775 188.078 335.037 188.477C335.299 188.875 335.439 189.326 335.459 189.83L334.369 189.912C334.311 189.369 334.111 188.959 333.771 188.682C333.436 188.404 332.938 188.266 332.277 188.266C331.59 188.266 331.088 188.393 330.771 188.646C330.459 188.896 330.303 189.199 330.303 189.555C330.303 189.863 330.414 190.117 330.637 190.316C330.855 190.516 331.426 190.721 332.348 190.932C333.273 191.139 333.908 191.32 334.252 191.477C334.752 191.707 335.121 192 335.359 192.355C335.598 192.707 335.717 193.113 335.717 193.574C335.717 194.031 335.586 194.463 335.324 194.869C335.062 195.271 334.686 195.586 334.193 195.812C333.705 196.035 333.154 196.146 332.541 196.146C331.764 196.146 331.111 196.033 330.584 195.807C330.061 195.58 329.648 195.24 329.348 194.787C329.051 194.33 328.895 193.814 328.879 193.24ZM337.328 196V187.41H343.123V188.424H338.465V191.084H342.496V192.098H338.465V196H337.328ZM344.605 196V187.41H347.846C348.416 187.41 348.852 187.438 349.152 187.492C349.574 187.562 349.928 187.697 350.213 187.896C350.498 188.092 350.727 188.367 350.898 188.723C351.074 189.078 351.162 189.469 351.162 189.895C351.162 190.625 350.93 191.244 350.465 191.752C350 192.256 349.16 192.508 347.945 192.508H345.742V196H344.605ZM345.742 191.494H347.963C348.697 191.494 349.219 191.357 349.527 191.084C349.836 190.811 349.99 190.426 349.99 189.93C349.99 189.57 349.898 189.264 349.715 189.01C349.535 188.752 349.297 188.582 349 188.5C348.809 188.449 348.455 188.424 347.939 188.424H345.742V191.494ZM352.768 190.979V189.777H353.969V190.979H352.768ZM352.768 196V194.799H353.969V196H352.768ZM362.834 196H361.779V189.279C361.525 189.521 361.191 189.764 360.777 190.006C360.367 190.248 359.998 190.43 359.67 190.551V189.531C360.26 189.254 360.775 188.918 361.217 188.523C361.658 188.129 361.971 187.746 362.154 187.375H362.834V196ZM370.815 187.84H373.947V188.644H370.815V187.84ZM370.815 189.988H373.971V190.804H370.815V189.988ZM373.575 186.076H374.571V192.496H373.575V186.076ZM366.147 186.904H371.091V191.728H366.147V186.904ZM370.119 187.708H367.119V190.924H370.119V187.708ZM370.995 192.82C372.115 192.82 372.995 193 373.635 193.36C374.283 193.72 374.607 194.224 374.607 194.872C374.607 195.52 374.283 196.02 373.635 196.372C372.995 196.732 372.115 196.912 370.995 196.912C369.875 196.912 368.991 196.732 368.343 196.372C367.703 196.02 367.383 195.52 367.383 194.872C367.383 194.224 367.703 193.72 368.343 193.36C368.991 193 369.875 192.82 370.995 192.82ZM370.995 193.6C370.451 193.6 369.983 193.652 369.591 193.756C369.199 193.852 368.895 193.996 368.679 194.188C368.471 194.372 368.367 194.6 368.367 194.872C368.367 195.128 368.471 195.352 368.679 195.544C368.895 195.728 369.199 195.872 369.591 195.976C369.983 196.08 370.451 196.132 370.995 196.132C371.547 196.132 372.015 196.08 372.399 195.976C372.791 195.872 373.091 195.728 373.299 195.544C373.515 195.352 373.623 195.128 373.623 194.872C373.623 194.6 373.515 194.372 373.299 194.188C373.091 193.996 372.791 193.852 372.399 193.756C372.015 193.652 371.547 193.6 370.995 193.6ZM382.229 198.525C381.646 197.791 381.154 196.932 380.752 195.947C380.35 194.963 380.148 193.943 380.148 192.889C380.148 191.959 380.299 191.068 380.6 190.217C380.951 189.229 381.494 188.244 382.229 187.264H382.984C382.512 188.076 382.199 188.656 382.047 189.004C381.809 189.543 381.621 190.105 381.484 190.691C381.316 191.422 381.232 192.156 381.232 192.895C381.232 194.773 381.816 196.65 382.984 198.525H382.229ZM387.889 196H386.834V189.279C386.58 189.521 386.246 189.764 385.832 190.006C385.422 190.248 385.053 190.43 384.725 190.551V189.531C385.314 189.254 385.83 188.918 386.271 188.523C386.713 188.129 387.025 187.746 387.209 187.375H387.889V196ZM396.068 189.514L395.02 189.596C394.926 189.182 394.793 188.881 394.621 188.693C394.336 188.393 393.984 188.242 393.566 188.242C393.23 188.242 392.936 188.336 392.682 188.523C392.35 188.766 392.088 189.119 391.896 189.584C391.705 190.049 391.605 190.711 391.598 191.57C391.852 191.184 392.162 190.896 392.529 190.709C392.896 190.521 393.281 190.428 393.684 190.428C394.387 190.428 394.984 190.688 395.477 191.207C395.973 191.723 396.221 192.391 396.221 193.211C396.221 193.75 396.104 194.252 395.869 194.717C395.639 195.178 395.32 195.531 394.914 195.777C394.508 196.023 394.047 196.146 393.531 196.146C392.652 196.146 391.936 195.824 391.381 195.18C390.826 194.531 390.549 193.465 390.549 191.98C390.549 190.32 390.855 189.113 391.469 188.359C392.004 187.703 392.725 187.375 393.631 187.375C394.307 187.375 394.859 187.564 395.289 187.943C395.723 188.322 395.982 188.846 396.068 189.514ZM391.762 193.217C391.762 193.58 391.838 193.928 391.99 194.26C392.146 194.592 392.363 194.846 392.641 195.021C392.918 195.193 393.209 195.279 393.514 195.279C393.959 195.279 394.342 195.1 394.662 194.74C394.982 194.381 395.143 193.893 395.143 193.275C395.143 192.682 394.984 192.215 394.668 191.875C394.352 191.531 393.953 191.359 393.473 191.359C392.996 191.359 392.592 191.531 392.26 191.875C391.928 192.215 391.762 192.662 391.762 193.217ZM397.867 196V194.799H399.068V196H397.867ZM400.686 188.535V187.521H406.246V188.342C405.699 188.924 405.156 189.697 404.617 190.662C404.082 191.627 403.668 192.619 403.375 193.639C403.164 194.357 403.029 195.145 402.971 196H401.887C401.898 195.324 402.031 194.508 402.285 193.551C402.539 192.594 402.902 191.672 403.375 190.785C403.852 189.895 404.357 189.145 404.893 188.535H400.686ZM407.494 189.473C407.494 188.859 407.648 188.338 407.957 187.908C408.266 187.479 408.713 187.264 409.299 187.264C409.838 187.264 410.283 187.457 410.635 187.844C410.99 188.227 411.168 188.791 411.168 189.537C411.168 190.264 410.988 190.824 410.629 191.219C410.273 191.609 409.834 191.805 409.311 191.805C408.791 191.805 408.357 191.611 408.01 191.225C407.666 190.838 407.494 190.254 407.494 189.473ZM409.328 187.99C409.066 187.99 408.848 188.104 408.672 188.33C408.5 188.557 408.414 188.973 408.414 189.578C408.414 190.129 408.502 190.518 408.678 190.744C408.854 190.967 409.07 191.078 409.328 191.078C409.594 191.078 409.812 190.965 409.984 190.738C410.16 190.512 410.248 190.098 410.248 189.496C410.248 188.941 410.16 188.553 409.984 188.33C409.809 188.104 409.59 187.99 409.328 187.99ZM409.334 196.316L414.033 187.264H414.889L410.207 196.316H409.334ZM413.049 193.984C413.049 193.367 413.203 192.846 413.512 192.42C413.82 191.99 414.27 191.775 414.859 191.775C415.398 191.775 415.844 191.969 416.195 192.355C416.551 192.738 416.729 193.303 416.729 194.049C416.729 194.775 416.549 195.336 416.189 195.73C415.834 196.121 415.393 196.316 414.865 196.316C414.346 196.316 413.912 196.123 413.564 195.736C413.221 195.346 413.049 194.762 413.049 193.984ZM414.889 192.502C414.623 192.502 414.402 192.615 414.227 192.842C414.055 193.068 413.969 193.484 413.969 194.09C413.969 194.637 414.057 195.023 414.232 195.25C414.408 195.477 414.625 195.59 414.883 195.59C415.152 195.59 415.373 195.477 415.545 195.25C415.721 195.023 415.809 194.609 415.809 194.008C415.809 193.453 415.721 193.064 415.545 192.842C415.369 192.615 415.15 192.502 414.889 192.502ZM418.955 198.525H418.199C419.367 196.65 419.951 194.773 419.951 192.895C419.951 192.16 419.867 191.432 419.699 190.709C419.566 190.123 419.381 189.561 419.143 189.021C418.99 188.67 418.676 188.084 418.199 187.264H418.955C419.689 188.244 420.232 189.229 420.584 190.217C420.885 191.068 421.035 191.959 421.035 192.889C421.035 193.943 420.832 194.963 420.426 195.947C420.023 196.932 419.533 197.791 418.955 198.525Z" fill="black"/>
<path d="M317 210H303C301.343 210 300 211.343 300 213V227C300 228.657 301.343 230 303 230H317C318.657 230 320 228.657 320 227V213C320 211.343 318.657 210 317 210Z" fill="url(#paint11_linear_55_21)"/>
<path d="M326.119 224V215.41H327.256V224H326.119ZM328.879 221.24L329.951 221.146C330.002 221.576 330.119 221.93 330.303 222.207C330.49 222.48 330.779 222.703 331.17 222.875C331.561 223.043 332 223.127 332.488 223.127C332.922 223.127 333.305 223.062 333.637 222.934C333.969 222.805 334.215 222.629 334.375 222.406C334.539 222.18 334.621 221.934 334.621 221.668C334.621 221.398 334.543 221.164 334.387 220.965C334.23 220.762 333.973 220.592 333.613 220.455C333.383 220.365 332.873 220.227 332.084 220.039C331.295 219.848 330.742 219.668 330.426 219.5C330.016 219.285 329.709 219.02 329.506 218.703C329.307 218.383 329.207 218.025 329.207 217.631C329.207 217.197 329.33 216.793 329.576 216.418C329.822 216.039 330.182 215.752 330.654 215.557C331.127 215.361 331.652 215.264 332.23 215.264C332.867 215.264 333.428 215.367 333.912 215.574C334.4 215.777 334.775 216.078 335.037 216.477C335.299 216.875 335.439 217.326 335.459 217.83L334.369 217.912C334.311 217.369 334.111 216.959 333.771 216.682C333.436 216.404 332.938 216.266 332.277 216.266C331.59 216.266 331.088 216.393 330.771 216.646C330.459 216.896 330.303 217.199 330.303 217.555C330.303 217.863 330.414 218.117 330.637 218.316C330.855 218.516 331.426 218.721 332.348 218.932C333.273 219.139 333.908 219.32 334.252 219.477C334.752 219.707 335.121 220 335.359 220.355C335.598 220.707 335.717 221.113 335.717 221.574C335.717 222.031 335.586 222.463 335.324 222.869C335.062 223.271 334.686 223.586 334.193 223.812C333.705 224.035 333.154 224.146 332.541 224.146C331.764 224.146 331.111 224.033 330.584 223.807C330.061 223.58 329.648 223.24 329.348 222.787C329.051 222.33 328.895 221.814 328.879 221.24ZM339.455 224V216.424H336.625V215.41H343.434V216.424H340.592V224H339.455ZM344.605 224V215.41H347.846C348.416 215.41 348.852 215.438 349.152 215.492C349.574 215.562 349.928 215.697 350.213 215.896C350.498 216.092 350.727 216.367 350.898 216.723C351.074 217.078 351.162 217.469 351.162 217.895C351.162 218.625 350.93 219.244 350.465 219.752C350 220.256 349.16 220.508 347.945 220.508H345.742V224H344.605ZM345.742 219.494H347.963C348.697 219.494 349.219 219.357 349.527 219.084C349.836 218.811 349.99 218.426 349.99 217.93C349.99 217.57 349.898 217.264 349.715 217.01C349.535 216.752 349.297 216.582 349 216.5C348.809 216.449 348.455 216.424 347.939 216.424H345.742V219.494ZM352.768 218.979V217.777H353.969V218.979H352.768ZM352.768 224V222.799H353.969V224H352.768ZM362.834 224H361.779V217.279C361.525 217.521 361.191 217.764 360.777 218.006C360.367 218.248 359.998 218.43 359.67 218.551V217.531C360.26 217.254 360.775 216.918 361.217 216.523C361.658 216.129 361.971 215.746 362.154 215.375H362.834V224ZM370.815 215.84H373.947V216.644H370.815V215.84ZM370.815 217.988H373.971V218.804H370.815V217.988ZM373.575 214.076H374.571V220.496H373.575V214.076ZM366.147 214.904H371.091V219.728H366.147V214.904ZM370.119 215.708H367.119V218.924H370.119V215.708ZM370.995 220.82C372.115 220.82 372.995 221 373.635 221.36C374.283 221.72 374.607 222.224 374.607 222.872C374.607 223.52 374.283 224.02 373.635 224.372C372.995 224.732 372.115 224.912 370.995 224.912C369.875 224.912 368.991 224.732 368.343 224.372C367.703 224.02 367.383 223.52 367.383 222.872C367.383 222.224 367.703 221.72 368.343 221.36C368.991 221 369.875 220.82 370.995 220.82ZM370.995 221.6C370.451 221.6 369.983 221.652 369.591 221.756C369.199 221.852 368.895 221.996 368.679 222.188C368.471 222.372 368.367 222.6 368.367 222.872C368.367 223.128 368.471 223.352 368.679 223.544C368.895 223.728 369.199 223.872 369.591 223.976C369.983 224.08 370.451 224.132 370.995 224.132C371.547 224.132 372.015 224.08 372.399 223.976C372.791 223.872 373.091 223.728 373.299 223.544C373.515 223.352 373.623 223.128 373.623 222.872C373.623 222.6 373.515 222.372 373.299 222.188C373.091 221.996 372.791 221.852 372.399 221.756C372.015 221.652 371.547 221.6 370.995 221.6ZM382.229 226.525C381.646 225.791 381.154 224.932 380.752 223.947C380.35 222.963 380.148 221.943 380.148 220.889C380.148 219.959 380.299 219.068 380.6 218.217C380.951 217.229 381.494 216.244 382.229 215.264H382.984C382.512 216.076 382.199 216.656 382.047 217.004C381.809 217.543 381.621 218.105 381.484 218.691C381.316 219.422 381.232 220.156 381.232 220.895C381.232 222.773 381.816 224.65 382.984 226.525H382.229ZM387.889 224H386.834V217.279C386.58 217.521 386.246 217.764 385.832 218.006C385.422 218.248 385.053 218.43 384.725 218.551V217.531C385.314 217.254 385.83 216.918 386.271 216.523C386.713 216.129 387.025 215.746 387.209 215.375H387.889V224ZM396.068 217.514L395.02 217.596C394.926 217.182 394.793 216.881 394.621 216.693C394.336 216.393 393.984 216.242 393.566 216.242C393.23 216.242 392.936 216.336 392.682 216.523C392.35 216.766 392.088 217.119 391.896 217.584C391.705 218.049 391.605 218.711 391.598 219.57C391.852 219.184 392.162 218.896 392.529 218.709C392.896 218.521 393.281 218.428 393.684 218.428C394.387 218.428 394.984 218.688 395.477 219.207C395.973 219.723 396.221 220.391 396.221 221.211C396.221 221.75 396.104 222.252 395.869 222.717C395.639 223.178 395.32 223.531 394.914 223.777C394.508 224.023 394.047 224.146 393.531 224.146C392.652 224.146 391.936 223.824 391.381 223.18C390.826 222.531 390.549 221.465 390.549 219.98C390.549 218.32 390.855 217.113 391.469 216.359C392.004 215.703 392.725 215.375 393.631 215.375C394.307 215.375 394.859 215.564 395.289 215.943C395.723 216.322 395.982 216.846 396.068 217.514ZM391.762 221.217C391.762 221.58 391.838 221.928 391.99 222.26C392.146 222.592 392.363 222.846 392.641 223.021C392.918 223.193 393.209 223.279 393.514 223.279C393.959 223.279 394.342 223.1 394.662 222.74C394.982 222.381 395.143 221.893 395.143 221.275C395.143 220.682 394.984 220.215 394.668 219.875C394.352 219.531 393.953 219.359 393.473 219.359C392.996 219.359 392.592 219.531 392.26 219.875C391.928 220.215 391.762 220.662 391.762 221.217ZM397.867 224V222.799H399.068V224H397.867ZM400.686 216.535V215.521H406.246V216.342C405.699 216.924 405.156 217.697 404.617 218.662C404.082 219.627 403.668 220.619 403.375 221.639C403.164 222.357 403.029 223.145 402.971 224H401.887C401.898 223.324 402.031 222.508 402.285 221.551C402.539 220.594 402.902 219.672 403.375 218.785C403.852 217.895 404.357 217.145 404.893 216.535H400.686ZM407.494 217.473C407.494 216.859 407.648 216.338 407.957 215.908C408.266 215.479 408.713 215.264 409.299 215.264C409.838 215.264 410.283 215.457 410.635 215.844C410.99 216.227 411.168 216.791 411.168 217.537C411.168 218.264 410.988 218.824 410.629 219.219C410.273 219.609 409.834 219.805 409.311 219.805C408.791 219.805 408.357 219.611 408.01 219.225C407.666 218.838 407.494 218.254 407.494 217.473ZM409.328 215.99C409.066 215.99 408.848 216.104 408.672 216.33C408.5 216.557 408.414 216.973 408.414 217.578C408.414 218.129 408.502 218.518 408.678 218.744C408.854 218.967 409.07 219.078 409.328 219.078C409.594 219.078 409.812 218.965 409.984 218.738C410.16 218.512 410.248 218.098 410.248 217.496C410.248 216.941 410.16 216.553 409.984 216.33C409.809 216.104 409.59 215.99 409.328 215.99ZM409.334 224.316L414.033 215.264H414.889L410.207 224.316H409.334ZM413.049 221.984C413.049 221.367 413.203 220.846 413.512 220.42C413.82 219.99 414.27 219.775 414.859 219.775C415.398 219.775 415.844 219.969 416.195 220.355C416.551 220.738 416.729 221.303 416.729 222.049C416.729 222.775 416.549 223.336 416.189 223.73C415.834 224.121 415.393 224.316 414.865 224.316C414.346 224.316 413.912 224.123 413.564 223.736C413.221 223.346 413.049 222.762 413.049 221.984ZM414.889 220.502C414.623 220.502 414.402 220.615 414.227 220.842C414.055 221.068 413.969 221.484 413.969 222.09C413.969 222.637 414.057 223.023 414.232 223.25C414.408 223.477 414.625 223.59 414.883 223.59C415.152 223.59 415.373 223.477 415.545 223.25C415.721 223.023 415.809 222.609 415.809 222.008C415.809 221.453 415.721 221.064 415.545 220.842C415.369 220.615 415.15 220.502 414.889 220.502ZM418.955 226.525H418.199C419.367 224.65 419.951 222.773 419.951 220.895C419.951 220.16 419.867 219.432 419.699 218.709C419.566 218.123 419.381 217.561 419.143 217.021C418.99 216.67 418.676 216.084 418.199 215.264H418.955C419.689 216.244 420.232 217.229 420.584 218.217C420.885 219.068 421.035 219.959 421.035 220.889C421.035 221.943 420.832 222.963 420.426 223.947C420.023 224.932 419.533 225.791 418.955 226.525Z" fill="black"/>
<path d="M116.946 60V50.6943H123.846V52.2686H118.825V54.3315H123.497V55.8994H118.825V58.4321H124.023V60H116.946ZM125.636 60V50.6943H127.464L131.272 56.9087V50.6943H133.018V60H131.133L127.381 53.9316V60H125.636ZM137.106 60V52.2686H134.345V50.6943H141.74V52.2686H138.985V60H137.106ZM142.958 60V50.6943H145.974C147.116 50.6943 147.861 50.7409 148.208 50.834C148.741 50.9736 149.188 51.2783 149.547 51.748C149.907 52.2135 150.087 52.8166 150.087 53.5571C150.087 54.1284 149.983 54.6087 149.776 54.998C149.569 55.3874 149.304 55.6942 148.982 55.9185C148.665 56.1385 148.341 56.2845 148.011 56.3564C147.563 56.4453 146.913 56.4897 146.062 56.4897H144.837V60H142.958ZM144.837 52.2686V54.9092H145.866C146.606 54.9092 147.101 54.8605 147.351 54.7632C147.601 54.6659 147.795 54.5135 147.935 54.3062C148.079 54.0988 148.151 53.8576 148.151 53.5825C148.151 53.244 148.051 52.9647 147.853 52.7446C147.654 52.5246 147.402 52.387 147.097 52.332C146.873 52.2897 146.422 52.2686 145.745 52.2686H144.837Z" fill="white"/>
<path d="M30.8887 110V100.694H32.7676V110H30.8887ZM34.0879 106.972L35.916 106.794C36.026 107.408 36.2482 107.859 36.5825 108.146C36.9211 108.434 37.376 108.578 37.9473 108.578C38.5524 108.578 39.0073 108.451 39.312 108.197C39.6209 107.939 39.7754 107.639 39.7754 107.296C39.7754 107.076 39.7098 106.89 39.5786 106.737C39.4517 106.581 39.2274 106.445 38.9058 106.331C38.6857 106.255 38.1842 106.119 37.4014 105.925C36.3942 105.675 35.6875 105.368 35.2812 105.004C34.71 104.492 34.4243 103.868 34.4243 103.132C34.4243 102.658 34.5576 102.216 34.8242 101.805C35.0951 101.39 35.4823 101.075 35.9858 100.859C36.4937 100.644 37.1051 100.536 37.8203 100.536C38.9883 100.536 39.8664 100.792 40.4546 101.304C41.047 101.816 41.3581 102.499 41.3877 103.354L39.5088 103.437C39.4284 102.958 39.2549 102.616 38.9883 102.408C38.7259 102.197 38.3302 102.091 37.8013 102.091C37.2554 102.091 36.828 102.203 36.519 102.427C36.3201 102.571 36.2207 102.764 36.2207 103.005C36.2207 103.225 36.3138 103.413 36.5 103.57C36.737 103.769 37.3125 103.976 38.2266 104.192C39.1406 104.408 39.8156 104.632 40.2515 104.865C40.6916 105.093 41.0343 105.409 41.2798 105.811C41.5295 106.208 41.6543 106.701 41.6543 107.29C41.6543 107.823 41.5062 108.322 41.21 108.788C40.9137 109.253 40.4948 109.6 39.9531 109.829C39.4115 110.053 38.7365 110.165 37.9282 110.165C36.7518 110.165 35.8483 109.894 35.2178 109.353C34.5872 108.807 34.2106 108.013 34.0879 106.972ZM45.3296 110V102.269H42.5684V100.694H49.9634V102.269H47.2085V110H45.3296ZM51.1821 110V100.694H54.1973C55.3398 100.694 56.0846 100.741 56.4316 100.834C56.9648 100.974 57.4113 101.278 57.771 101.748C58.1307 102.214 58.3105 102.817 58.3105 103.557C58.3105 104.128 58.2069 104.609 57.9995 104.998C57.7922 105.387 57.5277 105.694 57.2061 105.918C56.8887 106.139 56.5649 106.285 56.2349 106.356C55.7863 106.445 55.1367 106.49 54.2861 106.49H53.061V110H51.1821ZM53.061 102.269V104.909H54.0894C54.8299 104.909 55.325 104.861 55.5747 104.763C55.8244 104.666 56.019 104.514 56.1587 104.306C56.3026 104.099 56.3745 103.858 56.3745 103.583C56.3745 103.244 56.2751 102.965 56.0762 102.745C55.8773 102.525 55.6255 102.387 55.3208 102.332C55.0965 102.29 54.6458 102.269 53.9688 102.269H53.061Z" fill="white"/>
<path d="M200.889 110V100.694H202.768V110H200.889ZM204.583 110V100.694H206.411L210.22 106.909V100.694H211.965V110H210.08L206.329 103.932V110H204.583ZM213.971 110V100.694H220.351V102.269H215.85V104.471H219.735V106.045H215.85V110H213.971ZM225.264 100.694H227.136V106.585C227.136 107.355 227.069 107.948 226.933 108.362C226.751 108.904 226.421 109.34 225.943 109.67C225.465 109.996 224.834 110.159 224.051 110.159C223.133 110.159 222.426 109.903 221.931 109.391C221.436 108.874 221.186 108.119 221.182 107.125L222.953 106.921C222.974 107.455 223.053 107.831 223.188 108.051C223.391 108.386 223.7 108.553 224.115 108.553C224.534 108.553 224.83 108.434 225.003 108.197C225.177 107.956 225.264 107.459 225.264 106.706V100.694Z" fill="white"/>
<path d="M200.889 205V195.694H202.768V205H200.889ZM204.583 205V195.694H206.411L210.22 201.909V195.694H211.965V205H210.08L206.329 198.932V205H204.583ZM213.971 205V195.694H220.351V197.269H215.85V199.471H219.735V201.045H215.85V205H213.971ZM221.906 205V195.694H224.921C226.063 195.694 226.808 195.741 227.155 195.834C227.688 195.974 228.135 196.278 228.495 196.748C228.854 197.214 229.034 197.817 229.034 198.557C229.034 199.128 228.931 199.609 228.723 199.998C228.516 200.387 228.251 200.694 227.93 200.918C227.612 201.139 227.289 201.285 226.958 201.356C226.51 201.445 225.86 201.49 225.01 201.49H223.785V205H221.906ZM223.785 197.269V199.909H224.813C225.554 199.909 226.049 199.861 226.298 199.763C226.548 199.666 226.743 199.514 226.882 199.306C227.026 199.099 227.098 198.858 227.098 198.583C227.098 198.244 226.999 197.965 226.8 197.745C226.601 197.525 226.349 197.387 226.044 197.332C225.82 197.29 225.369 197.269 224.692 197.269H223.785Z" fill="white"/>
<path d="M35.8887 208V198.694H37.7676V208H35.8887ZM39.0879 204.972L40.916 204.794C41.026 205.408 41.2482 205.859 41.5825 206.146C41.9211 206.434 42.376 206.578 42.9473 206.578C43.5524 206.578 44.0073 206.451 44.312 206.197C44.6209 205.939 44.7754 205.639 44.7754 205.296C44.7754 205.076 44.7098 204.89 44.5786 204.737C44.4517 204.581 44.2274 204.445 43.9058 204.331C43.6857 204.255 43.1842 204.119 42.4014 203.925C41.3942 203.675 40.6875 203.368 40.2812 203.004C39.71 202.492 39.4243 201.868 39.4243 201.132C39.4243 200.658 39.5576 200.216 39.8242 199.805C40.0951 199.39 40.4823 199.075 40.9858 198.859C41.4937 198.644 42.1051 198.536 42.8203 198.536C43.9883 198.536 44.8664 198.792 45.4546 199.304C46.047 199.816 46.3581 200.499 46.3877 201.354L44.5088 201.437C44.4284 200.958 44.2549 200.616 43.9883 200.408C43.7259 200.197 43.3302 200.091 42.8013 200.091C42.2554 200.091 41.828 200.203 41.519 200.427C41.3201 200.571 41.2207 200.764 41.2207 201.005C41.2207 201.225 41.3138 201.413 41.5 201.57C41.737 201.769 42.3125 201.976 43.2266 202.192C44.1406 202.408 44.8156 202.632 45.2515 202.865C45.6916 203.093 46.0343 203.409 46.2798 203.811C46.5295 204.208 46.6543 204.701 46.6543 205.29C46.6543 205.823 46.5062 206.322 46.21 206.788C45.9137 207.253 45.4948 207.6 44.9531 207.829C44.4115 208.053 43.7365 208.165 42.9282 208.165C41.7518 208.165 40.8483 207.894 40.2178 207.353C39.5872 206.807 39.2106 206.013 39.0879 204.972ZM48.2476 208V198.694H54.627V200.269H50.1265V202.471H54.0112V204.045H50.1265V208H48.2476ZM56.1821 208V198.694H59.1973C60.3398 198.694 61.0846 198.741 61.4316 198.834C61.9648 198.974 62.4113 199.278 62.771 199.748C63.1307 200.214 63.3105 200.817 63.3105 201.557C63.3105 202.128 63.2069 202.609 62.9995 202.998C62.7922 203.387 62.5277 203.694 62.2061 203.918C61.8887 204.139 61.5649 204.285 61.2349 204.356C60.7863 204.445 60.1367 204.49 59.2861 204.49H58.061V208H56.1821ZM58.061 200.269V202.909H59.0894C59.8299 202.909 60.325 202.861 60.5747 202.763C60.8244 202.666 61.019 202.514 61.1587 202.306C61.3026 202.099 61.3745 201.858 61.3745 201.583C61.3745 201.244 61.2751 200.965 61.0762 200.745C60.8773 200.525 60.6255 200.387 60.3208 200.332C60.0965 200.29 59.6458 200.269 58.9688 200.269H58.061Z" fill="white"/>
<path d="M116.889 252V242.694H118.768V252H116.889ZM120.583 252V242.694H122.411L126.22 248.909V242.694H127.965V252H126.08L122.329 245.932V252H120.583ZM132.053 252V244.269H129.292V242.694H136.687V244.269H133.932V252H132.053ZM141.264 242.694H143.136V248.585C143.136 249.355 143.069 249.948 142.933 250.362C142.751 250.904 142.421 251.34 141.943 251.67C141.465 251.996 140.834 252.159 140.051 252.159C139.133 252.159 138.426 251.903 137.931 251.391C137.436 250.874 137.186 250.119 137.182 249.125L138.953 248.921C138.974 249.455 139.053 249.831 139.188 250.051C139.391 250.386 139.7 250.553 140.115 250.553C140.534 250.553 140.83 250.434 141.003 250.197C141.177 249.956 141.264 249.459 141.264 248.706V242.694Z" fill="white"/>
<defs>
<linearGradient id="paint0_linear_55_21" x1="195" y1="150" x2="195" y2="262.583" gradientUnits="userSpaceOnUse">
<stop stop-color="#F5EA6F"/>
<stop offset="1" stop-color="#D2D862"/>
</linearGradient>
<linearGradient id="paint1_linear_55_21" x1="130" y1="150" x2="130" y2="280" gradientUnits="userSpaceOnUse">
<stop stop-color="#EC8934"/>
<stop offset="1" stop-color="#EA6A35"/>
</linearGradient>
<linearGradient id="paint2_linear_55_21" x1="65" y1="150" x2="65" y2="262.583" gradientUnits="userSpaceOnUse">
<stop stop-color="#BC9BE5"/>
<stop offset="1" stop-color="#9A72FF"/>
</linearGradient>
<linearGradient id="paint3_linear_55_21" x1="65" y1="37.4167" x2="65" y2="150" gradientUnits="userSpaceOnUse">
<stop stop-color="#EB74EA"/>
<stop offset="1" stop-color="#D862D8"/>
</linearGradient>
<linearGradient id="paint4_linear_55_21" x1="130" y1="20" x2="130" y2="150" gradientUnits="userSpaceOnUse">
<stop stop-color="#76D5FC"/>
<stop offset="1" stop-color="#6EC5EE"/>
</linearGradient>
<linearGradient id="paint5_linear_55_21" x1="195" y1="37.4167" x2="195" y2="150" gradientUnits="userSpaceOnUse">
<stop stop-color="#85E5A7"/>
<stop offset="1" stop-color="#6CD8A0"/>
</linearGradient>
<linearGradient id="paint6_linear_55_21" x1="310" y1="70" x2="310" y2="90" gradientUnits="userSpaceOnUse">
<stop stop-color="#76D5FC"/>
<stop offset="1" stop-color="#6EC5EE"/>
</linearGradient>
<linearGradient id="paint7_linear_55_21" x1="310" y1="98" x2="310" y2="118" gradientUnits="userSpaceOnUse">
<stop stop-color="#85E5A7"/>
<stop offset="1" stop-color="#6CD8A0"/>
</linearGradient>
<linearGradient id="paint8_linear_55_21" x1="310" y1="126" x2="310" y2="146" gradientUnits="userSpaceOnUse">
<stop stop-color="#F5EA6F"/>
<stop offset="1" stop-color="#D2D862"/>
</linearGradient>
<linearGradient id="paint9_linear_55_21" x1="310" y1="154" x2="310" y2="174" gradientUnits="userSpaceOnUse">
<stop stop-color="#EC8934"/>
<stop offset="1" stop-color="#EA6A35"/>
</linearGradient>
<linearGradient id="paint10_linear_55_21" x1="310" y1="182" x2="310" y2="202" gradientUnits="userSpaceOnUse">
<stop stop-color="#BC9BE5"/>
<stop offset="1" stop-color="#9A72FF"/>
</linearGradient>
<linearGradient id="paint11_linear_55_21" x1="310" y1="210" x2="310" y2="230" gradientUnits="userSpaceOnUse">
<stop stop-color="#EB74EA"/>
<stop offset="1" stop-color="#D862D8"/>
</linearGradient>
</defs>
</svg>
