<svg width="450" height="300" viewBox="0 0 450 300" fill="none" xmlns="http://www.w3.org/2000/svg">
<rect width="450" height="300" fill="white"/>
<path d="M130 150H260C260 170.515 255.145 190.739 245.831 209.019C236.517 227.298 223.009 243.114 206.412 255.172C189.815 267.231 170.599 275.19 150.336 278.399C130.074 281.609 109.339 279.977 89.8278 273.637L130 150Z" fill="url(#paint0_linear_55_158)"/>
<path d="M130 150L89.8278 273.637C63.7181 265.154 40.9644 248.622 24.8278 226.412L130 150Z" fill="url(#paint1_linear_55_158)"/>
<path d="M130 150L24.8278 226.412C8.69114 204.202 0 177.453 0 150H130Z" fill="url(#paint2_linear_55_158)"/>
<path d="M130 150H0C0 122.547 8.69114 95.7981 24.8278 73.5879L130 150Z" fill="url(#paint3_linear_55_158)"/>
<path d="M130 150L24.8278 73.5879C40.9644 51.3777 63.7181 34.8462 89.8278 26.3627C115.937 17.8791 144.063 17.8791 170.172 26.3627L130 150Z" fill="url(#paint4_linear_55_158)"/>
<path d="M130 150L170.172 26.3627C196.282 34.8462 219.036 51.3777 235.172 73.5879C251.309 95.7981 260 122.547 260 150H130Z" fill="url(#paint5_linear_55_158)"/>
<path d="M130 215C165.899 215 195 185.899 195 150C195 114.101 165.899 85 130 85C94.1015 85 65 114.101 65 150C65 185.899 94.1015 215 130 215Z" fill="white"/>
<path d="M117.2 138.04C117.413 137.976 117.84 137.955 118.48 137.976C119.12 137.997 119.493 138.04 119.6 138.104C119.685 138.168 119.835 138.221 120.048 138.264C120.581 138.392 121.232 138.776 122 139.416C122.768 140.056 123.205 140.579 123.312 140.984C123.312 141.091 123.365 141.208 123.472 141.336C123.579 141.485 123.643 141.624 123.664 141.752C123.685 141.859 123.76 142.04 123.888 142.296C124.016 142.552 124.091 142.765 124.112 142.936C124.133 143.085 124.197 143.235 124.304 143.384C124.389 143.512 124.464 143.789 124.528 144.216C124.613 144.664 124.688 144.995 124.752 145.208C124.837 145.443 124.88 146.552 124.88 148.536C124.901 150.52 124.88 151.629 124.816 151.864C124.709 152.163 124.603 152.621 124.496 153.24C124.432 153.603 124.357 153.837 124.272 153.944C124.208 154.051 124.144 154.221 124.08 154.456C124.037 154.648 123.963 154.829 123.856 155C123.771 155.171 123.696 155.341 123.632 155.512C123.589 155.683 123.536 155.789 123.472 155.832C123.429 155.896 123.376 156.003 123.312 156.152C123.184 156.408 122.843 156.856 122.288 157.496C121.968 157.88 121.509 158.275 120.912 158.68C120.315 159.064 119.803 159.309 119.376 159.416C119.12 159.48 118.437 159.512 117.328 159.512C116.219 159.512 115.579 159.469 115.408 159.384C115.152 159.277 114.939 159.192 114.768 159.128C114.213 158.915 113.797 158.691 113.52 158.456C113.456 158.392 113.403 158.36 113.36 158.36C113.104 158.36 112.699 157.944 112.144 157.112C111.589 156.28 111.237 155.565 111.088 154.968C111.024 154.776 110.96 154.605 110.896 154.456C110.811 154.307 110.747 154.051 110.704 153.688C110.661 153.368 110.587 153.112 110.48 152.92C110.395 152.707 110.341 151.736 110.32 150.008C110.299 148.259 110.341 147.245 110.448 146.968C110.533 146.755 110.619 146.349 110.704 145.752C110.789 145.155 110.864 144.792 110.928 144.664C110.992 144.536 111.045 144.333 111.088 144.056C111.152 143.757 111.237 143.48 111.344 143.224C111.451 142.968 111.504 142.819 111.504 142.776C111.504 142.733 111.6 142.52 111.792 142.136C111.984 141.731 112.101 141.517 112.144 141.496C112.165 141.475 112.283 141.315 112.496 141.016C112.645 140.803 112.901 140.515 113.264 140.152C113.627 139.789 113.883 139.565 114.032 139.48C114.181 139.416 114.299 139.341 114.384 139.256C114.64 139.064 114.917 138.883 115.216 138.712C115.365 138.627 115.515 138.541 115.664 138.456C115.813 138.349 115.952 138.296 116.08 138.296C116.187 138.296 116.368 138.264 116.624 138.2C116.667 138.179 116.731 138.157 116.816 138.136C116.901 138.115 116.976 138.093 117.04 138.072C117.125 138.051 117.179 138.04 117.2 138.04ZM119.088 141.784C118.235 141.507 117.317 141.688 116.336 142.328C115.376 142.968 114.811 143.768 114.64 144.728C114.597 144.984 114.533 145.219 114.448 145.432C114.363 145.645 114.299 145.891 114.256 146.168C114.213 146.445 114.16 146.691 114.096 146.904C114.011 147.117 113.957 147.405 113.936 147.768C113.893 148.088 113.84 148.429 113.776 148.792C113.648 149.475 113.659 150.307 113.808 151.288C113.957 152.248 114.203 153.133 114.544 153.944C114.651 154.2 114.704 154.349 114.704 154.392C114.704 154.669 114.928 154.979 115.376 155.32C115.845 155.661 116.357 155.907 116.912 156.056C117.253 156.163 117.499 156.216 117.648 156.216C117.797 156.195 118.032 156.131 118.352 156.024C118.608 155.939 118.939 155.725 119.344 155.384C119.749 155.021 120.016 154.723 120.144 154.488C120.187 154.381 120.251 154.285 120.336 154.2C120.443 154.072 120.624 153.645 120.88 152.92C121.136 152.216 121.275 151.608 121.296 151.096C121.339 150.605 121.381 150.2 121.424 149.88C121.488 149.496 121.52 149.005 121.52 148.408C121.52 147.789 121.488 147.32 121.424 147C121.36 146.616 121.317 146.307 121.296 146.072C121.253 145.709 121.104 145.165 120.848 144.44C120.613 143.715 120.4 143.171 120.208 142.808C120.016 142.488 119.845 142.264 119.696 142.136C119.547 141.987 119.344 141.869 119.088 141.784ZM128.579 146.68C129.133 146.616 129.955 146.616 131.043 146.68C132.131 146.744 132.771 146.84 132.963 146.968C133.048 147.032 133.197 147.085 133.411 147.128C133.688 147.192 134.072 147.416 134.563 147.8C135.075 148.163 135.437 148.493 135.651 148.792C136.035 149.389 136.227 149.72 136.227 149.784C136.227 149.869 136.291 150.04 136.419 150.296C136.632 150.701 136.739 151.363 136.739 152.28C136.76 153.176 136.685 153.827 136.515 154.232C136.387 154.488 136.291 154.723 136.227 154.936C136.184 155.128 135.971 155.437 135.587 155.864C135.224 156.291 134.829 156.664 134.403 156.984C134.253 157.112 133.88 157.336 133.283 157.656C132.685 157.955 132.301 158.125 132.131 158.168C132.003 158.189 131.875 158.243 131.747 158.328C131.576 158.413 130.968 158.584 129.923 158.84C129.539 158.947 129.304 159.011 129.219 159.032C129.133 159.075 129.059 159.149 128.995 159.256C128.931 159.405 128.899 159.928 128.899 160.824C128.92 161.741 128.973 162.392 129.059 162.776C129.208 163.395 129.261 164.077 129.219 164.824C129.197 165.592 129.101 166.147 128.931 166.488C128.376 167.555 127.619 167.821 126.659 167.288C126.296 167.096 126.061 166.84 125.955 166.52C125.848 166.221 125.795 165.667 125.795 164.856C125.795 164.109 125.752 163.48 125.667 162.968C125.581 162.413 125.539 161.56 125.539 160.408C125.539 159.277 125.581 158.413 125.667 157.816C125.752 157.304 125.795 156.355 125.795 154.968C125.816 153.56 125.795 152.643 125.731 152.216C125.688 151.917 125.656 151.235 125.635 150.168C125.635 149.379 125.645 148.899 125.667 148.728C125.688 148.557 125.752 148.365 125.859 148.152C126.264 147.363 127.171 146.872 128.579 146.68ZM131.491 150.232C131.171 150.168 130.755 150.136 130.243 150.136C129.539 150.136 129.133 150.189 129.027 150.296C128.92 150.403 128.92 150.797 129.027 151.48C129.091 151.928 129.133 152.643 129.155 153.624C129.197 154.627 129.229 155.139 129.251 155.16C129.336 155.245 129.688 155.203 130.307 155.032C130.947 154.861 131.448 154.669 131.811 154.456C131.917 154.392 132.045 154.328 132.195 154.264C132.685 154.029 133.027 153.667 133.219 153.176C133.411 152.664 133.421 152.12 133.251 151.544C133.144 151.203 132.952 150.936 132.675 150.744C132.419 150.552 132.024 150.381 131.491 150.232ZM143.206 146.552C143.696 146.467 144.368 146.499 145.222 146.648C146.096 146.776 146.672 146.936 146.95 147.128C147.483 147.491 147.856 147.928 148.07 148.44C148.304 148.952 148.336 149.453 148.166 149.944C147.952 150.52 147.558 150.851 146.982 150.936C146.406 151.021 145.894 150.829 145.446 150.36C145.104 150.019 144.763 149.816 144.422 149.752C144.102 149.667 143.675 149.72 143.142 149.912C142.672 150.061 142.224 150.339 141.798 150.744C141.371 151.149 141.104 151.555 140.998 151.96C140.934 152.152 140.859 152.333 140.774 152.504C140.688 152.696 140.646 152.973 140.646 153.336C140.646 153.677 140.688 153.955 140.774 154.168C140.88 154.36 140.955 154.52 140.998 154.648C141.019 154.819 141.158 155.075 141.414 155.416C141.67 155.757 141.84 155.928 141.926 155.928C141.947 155.928 142.075 155.981 142.31 156.088C142.566 156.216 142.886 156.291 143.27 156.312C143.675 156.312 144.038 156.237 144.358 156.088C145.126 155.747 145.552 155.48 145.638 155.288C145.872 154.733 146.342 154.467 147.046 154.488C147.75 154.488 148.24 154.755 148.518 155.288C148.795 155.821 148.816 156.365 148.582 156.92C148.347 157.475 147.91 157.923 147.27 158.264C147.099 158.349 146.864 158.488 146.566 158.68C145.947 159.043 145.147 159.288 144.166 159.416C143.184 159.565 142.416 159.544 141.862 159.352C141.627 159.267 141.35 159.192 141.03 159.128C140.752 159.064 140.539 158.979 140.39 158.872C140.262 158.765 140.166 158.712 140.102 158.712C140.059 158.712 139.952 158.648 139.782 158.52C139.76 158.499 139.686 158.445 139.558 158.36C139.451 158.275 139.376 158.211 139.334 158.168C139.078 157.955 138.779 157.581 138.438 157.048C138.246 156.728 138.107 156.493 138.022 156.344C137.936 156.237 137.862 156.067 137.798 155.832C137.734 155.555 137.659 155.299 137.574 155.064C137.467 154.787 137.414 154.189 137.414 153.272C137.414 152.333 137.467 151.736 137.574 151.48C137.659 151.245 137.723 151.032 137.766 150.84C137.83 150.669 137.904 150.509 137.99 150.36C138.054 150.232 138.139 150.083 138.246 149.912C138.31 149.763 138.502 149.464 138.822 149.016C138.928 148.867 139.152 148.621 139.494 148.28C139.835 147.917 140.016 147.736 140.038 147.736C140.08 147.736 140.187 147.672 140.358 147.544C140.55 147.416 140.699 147.331 140.806 147.288C140.891 147.245 140.998 147.181 141.126 147.096C141.211 147.032 141.488 146.936 141.958 146.808C142.448 146.68 142.864 146.595 143.206 146.552Z" fill="black"/>
<path d="M317 70H303C301.343 70 300 71.3431 300 73V87C300 88.6569 301.343 90 303 90H317C318.657 90 320 88.6569 320 87V73C320 71.3431 318.657 70 317 70Z" fill="url(#paint6_linear_55_158)"/>
<path d="M326.119 84V75.4102H327.256V84H326.119ZM328.879 81.2402L329.951 81.1465C330.002 81.5762 330.119 81.9297 330.303 82.207C330.49 82.4805 330.779 82.7031 331.17 82.875C331.561 83.043 332 83.127 332.488 83.127C332.922 83.127 333.305 83.0625 333.637 82.9336C333.969 82.8047 334.215 82.6289 334.375 82.4062C334.539 82.1797 334.621 81.9336 334.621 81.668C334.621 81.3984 334.543 81.1641 334.387 80.9648C334.23 80.7617 333.973 80.5918 333.613 80.4551C333.383 80.3652 332.873 80.2266 332.084 80.0391C331.295 79.8477 330.742 79.668 330.426 79.5C330.016 79.2852 329.709 79.0195 329.506 78.7031C329.307 78.3828 329.207 78.0254 329.207 77.6309C329.207 77.1973 329.33 76.793 329.576 76.418C329.822 76.0391 330.182 75.752 330.654 75.5566C331.127 75.3613 331.652 75.2637 332.23 75.2637C332.867 75.2637 333.428 75.3672 333.912 75.5742C334.4 75.7773 334.775 76.0781 335.037 76.4766C335.299 76.875 335.439 77.3262 335.459 77.8301L334.369 77.9121C334.311 77.3691 334.111 76.959 333.771 76.6816C333.436 76.4043 332.938 76.2656 332.277 76.2656C331.59 76.2656 331.088 76.3926 330.771 76.6465C330.459 76.8965 330.303 77.1992 330.303 77.5547C330.303 77.8633 330.414 78.1172 330.637 78.3164C330.855 78.5156 331.426 78.7207 332.348 78.9316C333.273 79.1387 333.908 79.3203 334.252 79.4766C334.752 79.707 335.121 80 335.359 80.3555C335.598 80.707 335.717 81.1133 335.717 81.5742C335.717 82.0312 335.586 82.4629 335.324 82.8691C335.062 83.2715 334.686 83.5859 334.193 83.8125C333.705 84.0352 333.154 84.1465 332.541 84.1465C331.764 84.1465 331.111 84.0332 330.584 83.8066C330.061 83.5801 329.648 83.2402 329.348 82.7871C329.051 82.3301 328.895 81.8145 328.879 81.2402ZM337.328 84V75.4102H343.123V76.4238H338.465V79.084H342.496V80.0977H338.465V84H337.328ZM344.025 81.5625L345.051 81.4219C345.078 82.0781 345.201 82.5273 345.42 82.7695C345.639 83.0117 345.941 83.1328 346.328 83.1328C346.613 83.1328 346.859 83.0684 347.066 82.9395C347.273 82.8066 347.416 82.6289 347.494 82.4062C347.572 82.1797 347.611 81.8203 347.611 81.3281V75.4102H348.748V81.2637C348.748 81.9824 348.66 82.5391 348.484 82.9336C348.312 83.3281 348.037 83.6289 347.658 83.8359C347.283 84.043 346.842 84.1465 346.334 84.1465C345.58 84.1465 345.002 83.9297 344.6 83.4961C344.201 83.0625 344.01 82.418 344.025 81.5625ZM350.764 78.9785V77.7773H351.965V78.9785H350.764ZM350.764 84V82.7988H351.965V84H350.764ZM356.863 81.7324L357.918 81.5918C358.039 82.1895 358.244 82.6211 358.533 82.8867C358.826 83.1484 359.182 83.2793 359.6 83.2793C360.096 83.2793 360.514 83.1074 360.854 82.7637C361.197 82.4199 361.369 81.9941 361.369 81.4863C361.369 81.002 361.211 80.6035 360.895 80.291C360.578 79.9746 360.176 79.8164 359.688 79.8164C359.488 79.8164 359.24 79.8555 358.943 79.9336L359.061 79.0078C359.131 79.0156 359.188 79.0195 359.23 79.0195C359.68 79.0195 360.084 78.9023 360.443 78.668C360.803 78.4336 360.982 78.0723 360.982 77.584C360.982 77.1973 360.852 76.877 360.59 76.623C360.328 76.3691 359.99 76.2422 359.576 76.2422C359.166 76.2422 358.824 76.3711 358.551 76.6289C358.277 76.8867 358.102 77.2734 358.023 77.7891L356.969 77.6016C357.098 76.8945 357.391 76.3477 357.848 75.9609C358.305 75.5703 358.873 75.375 359.553 75.375C360.021 75.375 360.453 75.4766 360.848 75.6797C361.242 75.8789 361.543 76.1523 361.75 76.5C361.961 76.8477 362.066 77.2168 362.066 77.6074C362.066 77.9785 361.967 78.3164 361.768 78.6211C361.568 78.9258 361.273 79.168 360.883 79.3477C361.391 79.4648 361.785 79.709 362.066 80.0801C362.348 80.4473 362.488 80.9082 362.488 81.4629C362.488 82.2129 362.215 82.8496 361.668 83.373C361.121 83.8926 360.43 84.1523 359.594 84.1523C358.84 84.1523 358.213 83.9277 357.713 83.4785C357.217 83.0293 356.934 82.4473 356.863 81.7324ZM368.811 75.84H371.943V76.644H368.811V75.84ZM368.811 77.988H371.967V78.804H368.811V77.988ZM371.571 74.076H372.567V80.496H371.571V74.076ZM364.143 74.904H369.087V79.728H364.143V74.904ZM368.115 75.708H365.115V78.924H368.115V75.708ZM368.991 80.82C370.111 80.82 370.991 81 371.631 81.36C372.279 81.72 372.603 82.224 372.603 82.872C372.603 83.52 372.279 84.02 371.631 84.372C370.991 84.732 370.111 84.912 368.991 84.912C367.871 84.912 366.987 84.732 366.339 84.372C365.699 84.02 365.379 83.52 365.379 82.872C365.379 82.224 365.699 81.72 366.339 81.36C366.987 81 367.871 80.82 368.991 80.82ZM368.991 81.6C368.447 81.6 367.979 81.652 367.587 81.756C367.195 81.852 366.891 81.996 366.675 82.188C366.467 82.372 366.363 82.6 366.363 82.872C366.363 83.128 366.467 83.352 366.675 83.544C366.891 83.728 367.195 83.872 367.587 83.976C367.979 84.08 368.447 84.132 368.991 84.132C369.543 84.132 370.011 84.08 370.395 83.976C370.787 83.872 371.087 83.728 371.295 83.544C371.511 83.352 371.619 83.128 371.619 82.872C371.619 82.6 371.511 82.372 371.295 82.188C371.087 81.996 370.787 81.852 370.395 81.756C370.011 81.652 369.543 81.6 368.991 81.6ZM380.225 86.5254C379.643 85.791 379.15 84.9316 378.748 83.9473C378.346 82.9629 378.145 81.9434 378.145 80.8887C378.145 79.959 378.295 79.0684 378.596 78.2168C378.947 77.2285 379.49 76.2441 380.225 75.2637H380.98C380.508 76.0762 380.195 76.6562 380.043 77.0039C379.805 77.543 379.617 78.1055 379.48 78.6914C379.312 79.4219 379.229 80.1562 379.229 80.8945C379.229 82.7734 379.812 84.6504 380.98 86.5254H380.225ZM381.918 81.7324L382.973 81.5918C383.094 82.1895 383.299 82.6211 383.588 82.8867C383.881 83.1484 384.236 83.2793 384.654 83.2793C385.15 83.2793 385.568 83.1074 385.908 82.7637C386.252 82.4199 386.424 81.9941 386.424 81.4863C386.424 81.002 386.266 80.6035 385.949 80.291C385.633 79.9746 385.23 79.8164 384.742 79.8164C384.543 79.8164 384.295 79.8555 383.998 79.9336L384.115 79.0078C384.186 79.0156 384.242 79.0195 384.285 79.0195C384.734 79.0195 385.139 78.9023 385.498 78.668C385.857 78.4336 386.037 78.0723 386.037 77.584C386.037 77.1973 385.906 76.877 385.645 76.623C385.383 76.3691 385.045 76.2422 384.631 76.2422C384.221 76.2422 383.879 76.3711 383.605 76.6289C383.332 76.8867 383.156 77.2734 383.078 77.7891L382.023 77.6016C382.152 76.8945 382.445 76.3477 382.902 75.9609C383.359 75.5703 383.928 75.375 384.607 75.375C385.076 75.375 385.508 75.4766 385.902 75.6797C386.297 75.8789 386.598 76.1523 386.805 76.5C387.016 76.8477 387.121 77.2168 387.121 77.6074C387.121 77.9785 387.021 78.3164 386.822 78.6211C386.623 78.9258 386.328 79.168 385.938 79.3477C386.445 79.4648 386.84 79.709 387.121 80.0801C387.402 80.4473 387.543 80.9082 387.543 81.4629C387.543 82.2129 387.27 82.8496 386.723 83.373C386.176 83.8926 385.484 84.1523 384.648 84.1523C383.895 84.1523 383.268 83.9277 382.768 83.4785C382.271 83.0293 381.988 82.4473 381.918 81.7324ZM388.592 79.7637C388.592 78.748 388.695 77.9316 388.902 77.3145C389.113 76.6934 389.424 76.2148 389.834 75.8789C390.248 75.543 390.768 75.375 391.393 75.375C391.854 75.375 392.258 75.4688 392.605 75.6562C392.953 75.8398 393.24 76.1074 393.467 76.459C393.693 76.8066 393.871 77.2324 394 77.7363C394.129 78.2363 394.193 78.9121 394.193 79.7637C394.193 80.7715 394.09 81.5859 393.883 82.207C393.676 82.8242 393.365 83.3027 392.951 83.6426C392.541 83.9785 392.021 84.1465 391.393 84.1465C390.564 84.1465 389.914 83.8496 389.441 83.2559C388.875 82.541 388.592 81.377 388.592 79.7637ZM389.676 79.7637C389.676 81.1738 389.84 82.1133 390.168 82.582C390.5 83.0469 390.908 83.2793 391.393 83.2793C391.877 83.2793 392.283 83.0449 392.611 82.5762C392.943 82.1074 393.109 81.1699 393.109 79.7637C393.109 78.3496 392.943 77.4102 392.611 76.9453C392.283 76.4805 391.873 76.248 391.381 76.248C390.896 76.248 390.51 76.4531 390.221 76.8633C389.857 77.3867 389.676 78.3535 389.676 79.7637ZM395.863 84V82.7988H397.064V84H395.863ZM398.611 79.7637C398.611 78.748 398.715 77.9316 398.922 77.3145C399.133 76.6934 399.443 76.2148 399.854 75.8789C400.268 75.543 400.787 75.375 401.412 75.375C401.873 75.375 402.277 75.4688 402.625 75.6562C402.973 75.8398 403.26 76.1074 403.486 76.459C403.713 76.8066 403.891 77.2324 404.02 77.7363C404.148 78.2363 404.213 78.9121 404.213 79.7637C404.213 80.7715 404.109 81.5859 403.902 82.207C403.695 82.8242 403.385 83.3027 402.971 83.6426C402.561 83.9785 402.041 84.1465 401.412 84.1465C400.584 84.1465 399.934 83.8496 399.461 83.2559C398.895 82.541 398.611 81.377 398.611 79.7637ZM399.695 79.7637C399.695 81.1738 399.859 82.1133 400.188 82.582C400.52 83.0469 400.928 83.2793 401.412 83.2793C401.896 83.2793 402.303 83.0449 402.631 82.5762C402.963 82.1074 403.129 81.1699 403.129 79.7637C403.129 78.3496 402.963 77.4102 402.631 76.9453C402.303 76.4805 401.893 76.248 401.4 76.248C400.916 76.248 400.529 76.4531 400.24 76.8633C399.877 77.3867 399.695 78.3535 399.695 79.7637ZM405.49 77.4727C405.49 76.8594 405.645 76.3379 405.953 75.9082C406.262 75.4785 406.709 75.2637 407.295 75.2637C407.834 75.2637 408.279 75.457 408.631 75.8438C408.986 76.2266 409.164 76.791 409.164 77.5371C409.164 78.2637 408.984 78.8242 408.625 79.2188C408.27 79.6094 407.83 79.8047 407.307 79.8047C406.787 79.8047 406.354 79.6113 406.006 79.2246C405.662 78.8379 405.49 78.2539 405.49 77.4727ZM407.324 75.9902C407.062 75.9902 406.844 76.1035 406.668 76.3301C406.496 76.5566 406.41 76.9727 406.41 77.5781C406.41 78.1289 406.498 78.5176 406.674 78.7441C406.85 78.9668 407.066 79.0781 407.324 79.0781C407.59 79.0781 407.809 78.9648 407.98 78.7383C408.156 78.5117 408.244 78.0977 408.244 77.4961C408.244 76.9414 408.156 76.5527 407.98 76.3301C407.805 76.1035 407.586 75.9902 407.324 75.9902ZM407.33 84.3164L412.029 75.2637H412.885L408.203 84.3164H407.33ZM411.045 81.9844C411.045 81.3672 411.199 80.8457 411.508 80.4199C411.816 79.9902 412.266 79.7754 412.855 79.7754C413.395 79.7754 413.84 79.9688 414.191 80.3555C414.547 80.7383 414.725 81.3027 414.725 82.0488C414.725 82.7754 414.545 83.3359 414.186 83.7305C413.83 84.1211 413.389 84.3164 412.861 84.3164C412.342 84.3164 411.908 84.123 411.561 83.7363C411.217 83.3457 411.045 82.7617 411.045 81.9844ZM412.885 80.502C412.619 80.502 412.398 80.6152 412.223 80.8418C412.051 81.0684 411.965 81.4844 411.965 82.0898C411.965 82.6367 412.053 83.0234 412.229 83.25C412.404 83.4766 412.621 83.5898 412.879 83.5898C413.148 83.5898 413.369 83.4766 413.541 83.25C413.717 83.0234 413.805 82.6094 413.805 82.0078C413.805 81.4531 413.717 81.0645 413.541 80.8418C413.365 80.6152 413.146 80.502 412.885 80.502ZM416.951 86.5254H416.195C417.363 84.6504 417.947 82.7734 417.947 80.8945C417.947 80.1602 417.863 79.4316 417.695 78.709C417.562 78.123 417.377 77.5605 417.139 77.0215C416.986 76.6699 416.672 76.084 416.195 75.2637H416.951C417.686 76.2441 418.229 77.2285 418.58 78.2168C418.881 79.0684 419.031 79.959 419.031 80.8887C419.031 81.9434 418.828 82.9629 418.422 83.9473C418.02 84.9316 417.529 85.791 416.951 86.5254Z" fill="black"/>
<path d="M317 98H303C301.343 98 300 99.3431 300 101V115C300 116.657 301.343 118 303 118H317C318.657 118 320 116.657 320 115V101C320 99.3431 318.657 98 317 98Z" fill="url(#paint7_linear_55_158)"/>
<path d="M326.119 112V103.41H327.256V112H326.119ZM329.254 112V103.41H330.42L334.932 110.154V103.41H336.021V112H334.855L330.344 105.25V112H329.254ZM340.123 112V104.424H337.293V103.41H344.102V104.424H341.26V112H340.123ZM344.693 109.562L345.719 109.422C345.746 110.078 345.869 110.527 346.088 110.77C346.307 111.012 346.609 111.133 346.996 111.133C347.281 111.133 347.527 111.068 347.734 110.939C347.941 110.807 348.084 110.629 348.162 110.406C348.24 110.18 348.279 109.82 348.279 109.328V103.41H349.416V109.264C349.416 109.982 349.328 110.539 349.152 110.934C348.98 111.328 348.705 111.629 348.326 111.836C347.951 112.043 347.51 112.146 347.002 112.146C346.248 112.146 345.67 111.93 345.268 111.496C344.869 111.062 344.678 110.418 344.693 109.562ZM351.432 106.979V105.777H352.633V106.979H351.432ZM351.432 112V110.799H352.633V112H351.432ZM363.068 110.986V112H357.391C357.383 111.746 357.424 111.502 357.514 111.268C357.658 110.881 357.889 110.5 358.205 110.125C358.525 109.75 358.986 109.316 359.588 108.824C360.521 108.059 361.152 107.453 361.48 107.008C361.809 106.559 361.973 106.135 361.973 105.736C361.973 105.318 361.822 104.967 361.521 104.682C361.225 104.393 360.836 104.248 360.355 104.248C359.848 104.248 359.441 104.4 359.137 104.705C358.832 105.01 358.678 105.432 358.674 105.971L357.59 105.859C357.664 105.051 357.943 104.436 358.428 104.014C358.912 103.588 359.562 103.375 360.379 103.375C361.203 103.375 361.855 103.604 362.336 104.061C362.816 104.518 363.057 105.084 363.057 105.76C363.057 106.104 362.986 106.441 362.846 106.773C362.705 107.105 362.471 107.455 362.143 107.822C361.818 108.189 361.277 108.693 360.52 109.334C359.887 109.865 359.48 110.227 359.301 110.418C359.121 110.605 358.973 110.795 358.855 110.986H363.068ZM369.479 103.84H372.611V104.644H369.479V103.84ZM369.479 105.988H372.635V106.804H369.479V105.988ZM372.239 102.076H373.235V108.496H372.239V102.076ZM364.811 102.904H369.755V107.728H364.811V102.904ZM368.783 103.708H365.783V106.924H368.783V103.708ZM369.659 108.82C370.779 108.82 371.659 109 372.299 109.36C372.947 109.72 373.271 110.224 373.271 110.872C373.271 111.52 372.947 112.02 372.299 112.372C371.659 112.732 370.779 112.912 369.659 112.912C368.539 112.912 367.655 112.732 367.007 112.372C366.367 112.02 366.047 111.52 366.047 110.872C366.047 110.224 366.367 109.72 367.007 109.36C367.655 109 368.539 108.82 369.659 108.82ZM369.659 109.6C369.115 109.6 368.647 109.652 368.255 109.756C367.863 109.852 367.559 109.996 367.343 110.188C367.135 110.372 367.031 110.6 367.031 110.872C367.031 111.128 367.135 111.352 367.343 111.544C367.559 111.728 367.863 111.872 368.255 111.976C368.647 112.08 369.115 112.132 369.659 112.132C370.211 112.132 370.679 112.08 371.063 111.976C371.455 111.872 371.755 111.728 371.963 111.544C372.179 111.352 372.287 111.128 372.287 110.872C372.287 110.6 372.179 110.372 371.963 110.188C371.755 109.996 371.455 109.852 371.063 109.756C370.679 109.652 370.211 109.6 369.659 109.6ZM380.893 114.525C380.311 113.791 379.818 112.932 379.416 111.947C379.014 110.963 378.812 109.943 378.812 108.889C378.812 107.959 378.963 107.068 379.264 106.217C379.615 105.229 380.158 104.244 380.893 103.264H381.648C381.176 104.076 380.863 104.656 380.711 105.004C380.473 105.543 380.285 106.105 380.148 106.691C379.98 107.422 379.896 108.156 379.896 108.895C379.896 110.773 380.48 112.65 381.648 114.525H380.893ZM388.123 110.986V112H382.445C382.438 111.746 382.479 111.502 382.568 111.268C382.713 110.881 382.943 110.5 383.26 110.125C383.58 109.75 384.041 109.316 384.643 108.824C385.576 108.059 386.207 107.453 386.535 107.008C386.863 106.559 387.027 106.135 387.027 105.736C387.027 105.318 386.877 104.967 386.576 104.682C386.279 104.393 385.891 104.248 385.41 104.248C384.902 104.248 384.496 104.4 384.191 104.705C383.887 105.01 383.732 105.432 383.729 105.971L382.645 105.859C382.719 105.051 382.998 104.436 383.482 104.014C383.967 103.588 384.617 103.375 385.434 103.375C386.258 103.375 386.91 103.604 387.391 104.061C387.871 104.518 388.111 105.084 388.111 105.76C388.111 106.104 388.041 106.441 387.9 106.773C387.76 107.105 387.525 107.455 387.197 107.822C386.873 108.189 386.332 108.693 385.574 109.334C384.941 109.865 384.535 110.227 384.355 110.418C384.176 110.605 384.027 110.795 383.91 110.986H388.123ZM389.26 107.764C389.26 106.748 389.363 105.932 389.57 105.314C389.781 104.693 390.092 104.215 390.502 103.879C390.916 103.543 391.436 103.375 392.061 103.375C392.521 103.375 392.926 103.469 393.273 103.656C393.621 103.84 393.908 104.107 394.135 104.459C394.361 104.807 394.539 105.232 394.668 105.736C394.797 106.236 394.861 106.912 394.861 107.764C394.861 108.771 394.758 109.586 394.551 110.207C394.344 110.824 394.033 111.303 393.619 111.643C393.209 111.979 392.689 112.146 392.061 112.146C391.232 112.146 390.582 111.85 390.109 111.256C389.543 110.541 389.26 109.377 389.26 107.764ZM390.344 107.764C390.344 109.174 390.508 110.113 390.836 110.582C391.168 111.047 391.576 111.279 392.061 111.279C392.545 111.279 392.951 111.045 393.279 110.576C393.611 110.107 393.777 109.17 393.777 107.764C393.777 106.35 393.611 105.41 393.279 104.945C392.951 104.48 392.541 104.248 392.049 104.248C391.564 104.248 391.178 104.453 390.889 104.863C390.525 105.387 390.344 106.354 390.344 107.764ZM396.531 112V110.799H397.732V112H396.531ZM399.279 107.764C399.279 106.748 399.383 105.932 399.59 105.314C399.801 104.693 400.111 104.215 400.521 103.879C400.936 103.543 401.455 103.375 402.08 103.375C402.541 103.375 402.945 103.469 403.293 103.656C403.641 103.84 403.928 104.107 404.154 104.459C404.381 104.807 404.559 105.232 404.688 105.736C404.816 106.236 404.881 106.912 404.881 107.764C404.881 108.771 404.777 109.586 404.57 110.207C404.363 110.824 404.053 111.303 403.639 111.643C403.229 111.979 402.709 112.146 402.08 112.146C401.252 112.146 400.602 111.85 400.129 111.256C399.562 110.541 399.279 109.377 399.279 107.764ZM400.363 107.764C400.363 109.174 400.527 110.113 400.855 110.582C401.188 111.047 401.596 111.279 402.08 111.279C402.564 111.279 402.971 111.045 403.299 110.576C403.631 110.107 403.797 109.17 403.797 107.764C403.797 106.35 403.631 105.41 403.299 104.945C402.971 104.48 402.561 104.248 402.068 104.248C401.584 104.248 401.197 104.453 400.908 104.863C400.545 105.387 400.363 106.354 400.363 107.764ZM406.158 105.473C406.158 104.859 406.312 104.338 406.621 103.908C406.93 103.479 407.377 103.264 407.963 103.264C408.502 103.264 408.947 103.457 409.299 103.844C409.654 104.227 409.832 104.791 409.832 105.537C409.832 106.264 409.652 106.824 409.293 107.219C408.938 107.609 408.498 107.805 407.975 107.805C407.455 107.805 407.021 107.611 406.674 107.225C406.33 106.838 406.158 106.254 406.158 105.473ZM407.992 103.99C407.73 103.99 407.512 104.104 407.336 104.33C407.164 104.557 407.078 104.973 407.078 105.578C407.078 106.129 407.166 106.518 407.342 106.744C407.518 106.967 407.734 107.078 407.992 107.078C408.258 107.078 408.477 106.965 408.648 106.738C408.824 106.512 408.912 106.098 408.912 105.496C408.912 104.941 408.824 104.553 408.648 104.33C408.473 104.104 408.254 103.99 407.992 103.99ZM407.998 112.316L412.697 103.264H413.553L408.871 112.316H407.998ZM411.713 109.984C411.713 109.367 411.867 108.846 412.176 108.42C412.484 107.99 412.934 107.775 413.523 107.775C414.062 107.775 414.508 107.969 414.859 108.355C415.215 108.738 415.393 109.303 415.393 110.049C415.393 110.775 415.213 111.336 414.854 111.73C414.498 112.121 414.057 112.316 413.529 112.316C413.01 112.316 412.576 112.123 412.229 111.736C411.885 111.346 411.713 110.762 411.713 109.984ZM413.553 108.502C413.287 108.502 413.066 108.615 412.891 108.842C412.719 109.068 412.633 109.484 412.633 110.09C412.633 110.637 412.721 111.023 412.896 111.25C413.072 111.477 413.289 111.59 413.547 111.59C413.816 111.59 414.037 111.477 414.209 111.25C414.385 111.023 414.473 110.609 414.473 110.008C414.473 109.453 414.385 109.064 414.209 108.842C414.033 108.615 413.814 108.502 413.553 108.502ZM417.619 114.525H416.863C418.031 112.65 418.615 110.773 418.615 108.895C418.615 108.16 418.531 107.432 418.363 106.709C418.23 106.123 418.045 105.561 417.807 105.021C417.654 104.67 417.34 104.084 416.863 103.264H417.619C418.354 104.244 418.896 105.229 419.248 106.217C419.549 107.068 419.699 107.959 419.699 108.889C419.699 109.943 419.496 110.963 419.09 111.947C418.688 112.932 418.197 113.791 417.619 114.525Z" fill="black"/>
<path d="M317 126H303C301.343 126 300 127.343 300 129V143C300 144.657 301.343 146 303 146H317C318.657 146 320 144.657 320 143V129C320 127.343 318.657 126 317 126Z" fill="url(#paint8_linear_55_158)"/>
<path d="M326.119 140V131.41H327.256V140H326.119ZM329.254 140V131.41H330.42L334.932 138.154V131.41H336.021V140H334.855L330.344 133.25V140H329.254ZM340.123 140V132.424H337.293V131.41H344.102V132.424H341.26V140H340.123ZM345.273 140V131.41H348.514C349.084 131.41 349.52 131.438 349.82 131.492C350.242 131.562 350.596 131.697 350.881 131.896C351.166 132.092 351.395 132.367 351.566 132.723C351.742 133.078 351.83 133.469 351.83 133.895C351.83 134.625 351.598 135.244 351.133 135.752C350.668 136.256 349.828 136.508 348.613 136.508H346.41V140H345.273ZM346.41 135.494H348.631C349.365 135.494 349.887 135.357 350.195 135.084C350.504 134.811 350.658 134.426 350.658 133.93C350.658 133.57 350.566 133.264 350.383 133.01C350.203 132.752 349.965 132.582 349.668 132.5C349.477 132.449 349.123 132.424 348.607 132.424H346.41V135.494ZM353.436 134.979V133.777H354.637V134.979H353.436ZM353.436 140V138.799H354.637V140H353.436ZM365.072 138.986V140H359.395C359.387 139.746 359.428 139.502 359.518 139.268C359.662 138.881 359.893 138.5 360.209 138.125C360.529 137.75 360.99 137.316 361.592 136.824C362.525 136.059 363.156 135.453 363.484 135.008C363.812 134.559 363.977 134.135 363.977 133.736C363.977 133.318 363.826 132.967 363.525 132.682C363.229 132.393 362.84 132.248 362.359 132.248C361.852 132.248 361.445 132.4 361.141 132.705C360.836 133.01 360.682 133.432 360.678 133.971L359.594 133.859C359.668 133.051 359.947 132.436 360.432 132.014C360.916 131.588 361.566 131.375 362.383 131.375C363.207 131.375 363.859 131.604 364.34 132.061C364.82 132.518 365.061 133.084 365.061 133.76C365.061 134.104 364.99 134.441 364.85 134.773C364.709 135.105 364.475 135.455 364.146 135.822C363.822 136.189 363.281 136.693 362.523 137.334C361.891 137.865 361.484 138.227 361.305 138.418C361.125 138.605 360.977 138.795 360.859 138.986H365.072ZM371.483 131.84H374.615V132.644H371.483V131.84ZM371.483 133.988H374.639V134.804H371.483V133.988ZM374.243 130.076H375.239V136.496H374.243V130.076ZM366.815 130.904H371.759V135.728H366.815V130.904ZM370.787 131.708H367.787V134.924H370.787V131.708ZM371.663 136.82C372.783 136.82 373.663 137 374.303 137.36C374.951 137.72 375.275 138.224 375.275 138.872C375.275 139.52 374.951 140.02 374.303 140.372C373.663 140.732 372.783 140.912 371.663 140.912C370.543 140.912 369.659 140.732 369.011 140.372C368.371 140.02 368.051 139.52 368.051 138.872C368.051 138.224 368.371 137.72 369.011 137.36C369.659 137 370.543 136.82 371.663 136.82ZM371.663 137.6C371.119 137.6 370.651 137.652 370.259 137.756C369.867 137.852 369.563 137.996 369.347 138.188C369.139 138.372 369.035 138.6 369.035 138.872C369.035 139.128 369.139 139.352 369.347 139.544C369.563 139.728 369.867 139.872 370.259 139.976C370.651 140.08 371.119 140.132 371.663 140.132C372.215 140.132 372.683 140.08 373.067 139.976C373.459 139.872 373.759 139.728 373.967 139.544C374.183 139.352 374.291 139.128 374.291 138.872C374.291 138.6 374.183 138.372 373.967 138.188C373.759 137.996 373.459 137.852 373.067 137.756C372.683 137.652 372.215 137.6 371.663 137.6ZM382.896 142.525C382.314 141.791 381.822 140.932 381.42 139.947C381.018 138.963 380.816 137.943 380.816 136.889C380.816 135.959 380.967 135.068 381.268 134.217C381.619 133.229 382.162 132.244 382.896 131.264H383.652C383.18 132.076 382.867 132.656 382.715 133.004C382.477 133.543 382.289 134.105 382.152 134.691C381.984 135.422 381.9 136.156 381.9 136.895C381.9 138.773 382.484 140.65 383.652 142.525H382.896ZM390.127 138.986V140H384.449C384.441 139.746 384.482 139.502 384.572 139.268C384.717 138.881 384.947 138.5 385.264 138.125C385.584 137.75 386.045 137.316 386.646 136.824C387.58 136.059 388.211 135.453 388.539 135.008C388.867 134.559 389.031 134.135 389.031 133.736C389.031 133.318 388.881 132.967 388.58 132.682C388.283 132.393 387.895 132.248 387.414 132.248C386.906 132.248 386.5 132.4 386.195 132.705C385.891 133.01 385.736 133.432 385.732 133.971L384.648 133.859C384.723 133.051 385.002 132.436 385.486 132.014C385.971 131.588 386.621 131.375 387.438 131.375C388.262 131.375 388.914 131.604 389.395 132.061C389.875 132.518 390.115 133.084 390.115 133.76C390.115 134.104 390.045 134.441 389.904 134.773C389.764 135.105 389.529 135.455 389.201 135.822C388.877 136.189 388.336 136.693 387.578 137.334C386.945 137.865 386.539 138.227 386.359 138.418C386.18 138.605 386.031 138.795 385.914 138.986H390.127ZM391.264 135.764C391.264 134.748 391.367 133.932 391.574 133.314C391.785 132.693 392.096 132.215 392.506 131.879C392.92 131.543 393.439 131.375 394.064 131.375C394.525 131.375 394.93 131.469 395.277 131.656C395.625 131.84 395.912 132.107 396.139 132.459C396.365 132.807 396.543 133.232 396.672 133.736C396.801 134.236 396.865 134.912 396.865 135.764C396.865 136.771 396.762 137.586 396.555 138.207C396.348 138.824 396.037 139.303 395.623 139.643C395.213 139.979 394.693 140.146 394.064 140.146C393.236 140.146 392.586 139.85 392.113 139.256C391.547 138.541 391.264 137.377 391.264 135.764ZM392.348 135.764C392.348 137.174 392.512 138.113 392.84 138.582C393.172 139.047 393.58 139.279 394.064 139.279C394.549 139.279 394.955 139.045 395.283 138.576C395.615 138.107 395.781 137.17 395.781 135.764C395.781 134.35 395.615 133.41 395.283 132.945C394.955 132.48 394.545 132.248 394.053 132.248C393.568 132.248 393.182 132.453 392.893 132.863C392.529 133.387 392.348 134.354 392.348 135.764ZM398.535 140V138.799H399.736V140H398.535ZM401.283 135.764C401.283 134.748 401.387 133.932 401.594 133.314C401.805 132.693 402.115 132.215 402.525 131.879C402.939 131.543 403.459 131.375 404.084 131.375C404.545 131.375 404.949 131.469 405.297 131.656C405.645 131.84 405.932 132.107 406.158 132.459C406.385 132.807 406.562 133.232 406.691 133.736C406.82 134.236 406.885 134.912 406.885 135.764C406.885 136.771 406.781 137.586 406.574 138.207C406.367 138.824 406.057 139.303 405.643 139.643C405.232 139.979 404.713 140.146 404.084 140.146C403.256 140.146 402.605 139.85 402.133 139.256C401.566 138.541 401.283 137.377 401.283 135.764ZM402.367 135.764C402.367 137.174 402.531 138.113 402.859 138.582C403.191 139.047 403.6 139.279 404.084 139.279C404.568 139.279 404.975 139.045 405.303 138.576C405.635 138.107 405.801 137.17 405.801 135.764C405.801 134.35 405.635 133.41 405.303 132.945C404.975 132.48 404.564 132.248 404.072 132.248C403.588 132.248 403.201 132.453 402.912 132.863C402.549 133.387 402.367 134.354 402.367 135.764ZM408.162 133.473C408.162 132.859 408.316 132.338 408.625 131.908C408.934 131.479 409.381 131.264 409.967 131.264C410.506 131.264 410.951 131.457 411.303 131.844C411.658 132.227 411.836 132.791 411.836 133.537C411.836 134.264 411.656 134.824 411.297 135.219C410.941 135.609 410.502 135.805 409.979 135.805C409.459 135.805 409.025 135.611 408.678 135.225C408.334 134.838 408.162 134.254 408.162 133.473ZM409.996 131.99C409.734 131.99 409.516 132.104 409.34 132.33C409.168 132.557 409.082 132.973 409.082 133.578C409.082 134.129 409.17 134.518 409.346 134.744C409.521 134.967 409.738 135.078 409.996 135.078C410.262 135.078 410.48 134.965 410.652 134.738C410.828 134.512 410.916 134.098 410.916 133.496C410.916 132.941 410.828 132.553 410.652 132.33C410.477 132.104 410.258 131.99 409.996 131.99ZM410.002 140.316L414.701 131.264H415.557L410.875 140.316H410.002ZM413.717 137.984C413.717 137.367 413.871 136.846 414.18 136.42C414.488 135.99 414.938 135.775 415.527 135.775C416.066 135.775 416.512 135.969 416.863 136.355C417.219 136.738 417.396 137.303 417.396 138.049C417.396 138.775 417.217 139.336 416.857 139.73C416.502 140.121 416.061 140.316 415.533 140.316C415.014 140.316 414.58 140.123 414.232 139.736C413.889 139.346 413.717 138.762 413.717 137.984ZM415.557 136.502C415.291 136.502 415.07 136.615 414.895 136.842C414.723 137.068 414.637 137.484 414.637 138.09C414.637 138.637 414.725 139.023 414.9 139.25C415.076 139.477 415.293 139.59 415.551 139.59C415.82 139.59 416.041 139.477 416.213 139.25C416.389 139.023 416.477 138.609 416.477 138.008C416.477 137.453 416.389 137.064 416.213 136.842C416.037 136.615 415.818 136.502 415.557 136.502ZM419.623 142.525H418.867C420.035 140.65 420.619 138.773 420.619 136.895C420.619 136.16 420.535 135.432 420.367 134.709C420.234 134.123 420.049 133.561 419.811 133.021C419.658 132.67 419.344 132.084 418.867 131.264H419.623C420.357 132.244 420.9 133.229 421.252 134.217C421.553 135.068 421.703 135.959 421.703 136.889C421.703 137.943 421.5 138.963 421.094 139.947C420.691 140.932 420.201 141.791 419.623 142.525Z" fill="black"/>
<path d="M317 154H303C301.343 154 300 155.343 300 157V171C300 172.657 301.343 174 303 174H317C318.657 174 320 172.657 320 171V157C320 155.343 318.657 154 317 154Z" fill="url(#paint9_linear_55_158)"/>
<path d="M325.949 168V159.41H332.16V160.424H327.086V163.055H331.838V164.062H327.086V166.986H332.359V168H325.949ZM333.918 168V159.41H335.084L339.596 166.154V159.41H340.686V168H339.52L335.008 161.25V168H333.918ZM344.787 168V160.424H341.957V159.41H348.766V160.424H345.924V168H344.787ZM349.357 165.562L350.383 165.422C350.41 166.078 350.533 166.527 350.752 166.77C350.971 167.012 351.273 167.133 351.66 167.133C351.945 167.133 352.191 167.068 352.398 166.939C352.605 166.807 352.748 166.629 352.826 166.406C352.904 166.18 352.943 165.82 352.943 165.328V159.41H354.08V165.264C354.08 165.982 353.992 166.539 353.816 166.934C353.645 167.328 353.369 167.629 352.99 167.836C352.615 168.043 352.174 168.146 351.666 168.146C350.912 168.146 350.334 167.93 349.932 167.496C349.533 167.062 349.342 166.418 349.357 165.562ZM356.096 162.979V161.777H357.297V162.979H356.096ZM356.096 168V166.799H357.297V168H356.096ZM366.162 168H365.107V161.279C364.854 161.521 364.52 161.764 364.105 162.006C363.695 162.248 363.326 162.43 362.998 162.551V161.531C363.588 161.254 364.104 160.918 364.545 160.523C364.986 160.129 365.299 159.746 365.482 159.375H366.162V168ZM374.143 159.84H377.275V160.644H374.143V159.84ZM374.143 161.988H377.299V162.804H374.143V161.988ZM376.903 158.076H377.899V164.496H376.903V158.076ZM369.475 158.904H374.419V163.728H369.475V158.904ZM373.447 159.708H370.447V162.924H373.447V159.708ZM374.323 164.82C375.443 164.82 376.323 165 376.963 165.36C377.611 165.72 377.935 166.224 377.935 166.872C377.935 167.52 377.611 168.02 376.963 168.372C376.323 168.732 375.443 168.912 374.323 168.912C373.203 168.912 372.319 168.732 371.671 168.372C371.031 168.02 370.711 167.52 370.711 166.872C370.711 166.224 371.031 165.72 371.671 165.36C372.319 165 373.203 164.82 374.323 164.82ZM374.323 165.6C373.779 165.6 373.311 165.652 372.919 165.756C372.527 165.852 372.223 165.996 372.007 166.188C371.799 166.372 371.695 166.6 371.695 166.872C371.695 167.128 371.799 167.352 372.007 167.544C372.223 167.728 372.527 167.872 372.919 167.976C373.311 168.08 373.779 168.132 374.323 168.132C374.875 168.132 375.343 168.08 375.727 167.976C376.119 167.872 376.419 167.728 376.627 167.544C376.843 167.352 376.951 167.128 376.951 166.872C376.951 166.6 376.843 166.372 376.627 166.188C376.419 165.996 376.119 165.852 375.727 165.756C375.343 165.652 374.875 165.6 374.323 165.6ZM385.557 170.525C384.975 169.791 384.482 168.932 384.08 167.947C383.678 166.963 383.477 165.943 383.477 164.889C383.477 163.959 383.627 163.068 383.928 162.217C384.279 161.229 384.822 160.244 385.557 159.264H386.312C385.84 160.076 385.527 160.656 385.375 161.004C385.137 161.543 384.949 162.105 384.812 162.691C384.645 163.422 384.561 164.156 384.561 164.895C384.561 166.773 385.145 168.65 386.312 170.525H385.557ZM391.217 168H390.162V161.279C389.908 161.521 389.574 161.764 389.16 162.006C388.75 162.248 388.381 162.43 388.053 162.551V161.531C388.643 161.254 389.158 160.918 389.6 160.523C390.041 160.129 390.354 159.746 390.537 159.375H391.217V168ZM393.924 163.764C393.924 162.748 394.027 161.932 394.234 161.314C394.445 160.693 394.756 160.215 395.166 159.879C395.58 159.543 396.1 159.375 396.725 159.375C397.186 159.375 397.59 159.469 397.938 159.656C398.285 159.84 398.572 160.107 398.799 160.459C399.025 160.807 399.203 161.232 399.332 161.736C399.461 162.236 399.525 162.912 399.525 163.764C399.525 164.771 399.422 165.586 399.215 166.207C399.008 166.824 398.697 167.303 398.283 167.643C397.873 167.979 397.354 168.146 396.725 168.146C395.896 168.146 395.246 167.85 394.773 167.256C394.207 166.541 393.924 165.377 393.924 163.764ZM395.008 163.764C395.008 165.174 395.172 166.113 395.5 166.582C395.832 167.047 396.24 167.279 396.725 167.279C397.209 167.279 397.615 167.045 397.943 166.576C398.275 166.107 398.441 165.17 398.441 163.764C398.441 162.35 398.275 161.41 397.943 160.945C397.615 160.48 397.205 160.248 396.713 160.248C396.229 160.248 395.842 160.453 395.553 160.863C395.189 161.387 395.008 162.354 395.008 163.764ZM401.195 168V166.799H402.396V168H401.195ZM403.943 163.764C403.943 162.748 404.047 161.932 404.254 161.314C404.465 160.693 404.775 160.215 405.186 159.879C405.6 159.543 406.119 159.375 406.744 159.375C407.205 159.375 407.609 159.469 407.957 159.656C408.305 159.84 408.592 160.107 408.818 160.459C409.045 160.807 409.223 161.232 409.352 161.736C409.48 162.236 409.545 162.912 409.545 163.764C409.545 164.771 409.441 165.586 409.234 166.207C409.027 166.824 408.717 167.303 408.303 167.643C407.893 167.979 407.373 168.146 406.744 168.146C405.916 168.146 405.266 167.85 404.793 167.256C404.227 166.541 403.943 165.377 403.943 163.764ZM405.027 163.764C405.027 165.174 405.191 166.113 405.52 166.582C405.852 167.047 406.26 167.279 406.744 167.279C407.229 167.279 407.635 167.045 407.963 166.576C408.295 166.107 408.461 165.17 408.461 163.764C408.461 162.35 408.295 161.41 407.963 160.945C407.635 160.48 407.225 160.248 406.732 160.248C406.248 160.248 405.861 160.453 405.572 160.863C405.209 161.387 405.027 162.354 405.027 163.764ZM410.822 161.473C410.822 160.859 410.977 160.338 411.285 159.908C411.594 159.479 412.041 159.264 412.627 159.264C413.166 159.264 413.611 159.457 413.963 159.844C414.318 160.227 414.496 160.791 414.496 161.537C414.496 162.264 414.316 162.824 413.957 163.219C413.602 163.609 413.162 163.805 412.639 163.805C412.119 163.805 411.686 163.611 411.338 163.225C410.994 162.838 410.822 162.254 410.822 161.473ZM412.656 159.99C412.395 159.99 412.176 160.104 412 160.33C411.828 160.557 411.742 160.973 411.742 161.578C411.742 162.129 411.83 162.518 412.006 162.744C412.182 162.967 412.398 163.078 412.656 163.078C412.922 163.078 413.141 162.965 413.312 162.738C413.488 162.512 413.576 162.098 413.576 161.496C413.576 160.941 413.488 160.553 413.312 160.33C413.137 160.104 412.918 159.99 412.656 159.99ZM412.662 168.316L417.361 159.264H418.217L413.535 168.316H412.662ZM416.377 165.984C416.377 165.367 416.531 164.846 416.84 164.42C417.148 163.99 417.598 163.775 418.188 163.775C418.727 163.775 419.172 163.969 419.523 164.355C419.879 164.738 420.057 165.303 420.057 166.049C420.057 166.775 419.877 167.336 419.518 167.73C419.162 168.121 418.721 168.316 418.193 168.316C417.674 168.316 417.24 168.123 416.893 167.736C416.549 167.346 416.377 166.762 416.377 165.984ZM418.217 164.502C417.951 164.502 417.73 164.615 417.555 164.842C417.383 165.068 417.297 165.484 417.297 166.09C417.297 166.637 417.385 167.023 417.561 167.25C417.736 167.477 417.953 167.59 418.211 167.59C418.48 167.59 418.701 167.477 418.873 167.25C419.049 167.023 419.137 166.609 419.137 166.008C419.137 165.453 419.049 165.064 418.873 164.842C418.697 164.615 418.479 164.502 418.217 164.502ZM422.283 170.525H421.527C422.695 168.65 423.279 166.773 423.279 164.895C423.279 164.16 423.195 163.432 423.027 162.709C422.895 162.123 422.709 161.561 422.471 161.021C422.318 160.67 422.004 160.084 421.527 159.264H422.283C423.018 160.244 423.561 161.229 423.912 162.217C424.213 163.068 424.363 163.959 424.363 164.889C424.363 165.943 424.16 166.963 423.754 167.947C423.352 168.932 422.861 169.791 422.283 170.525Z" fill="black"/>
<path d="M317 182H303C301.343 182 300 183.343 300 185V199C300 200.657 301.343 202 303 202H317C318.657 202 320 200.657 320 199V185C320 183.343 318.657 182 317 182Z" fill="url(#paint10_linear_55_158)"/>
<path d="M325.949 196V187.41H332.16V188.424H327.086V191.055H331.838V192.062H327.086V194.986H332.359V196H325.949ZM333.543 193.24L334.615 193.146C334.666 193.576 334.783 193.93 334.967 194.207C335.154 194.48 335.443 194.703 335.834 194.875C336.225 195.043 336.664 195.127 337.152 195.127C337.586 195.127 337.969 195.062 338.301 194.934C338.633 194.805 338.879 194.629 339.039 194.406C339.203 194.18 339.285 193.934 339.285 193.668C339.285 193.398 339.207 193.164 339.051 192.965C338.895 192.762 338.637 192.592 338.277 192.455C338.047 192.365 337.537 192.227 336.748 192.039C335.959 191.848 335.406 191.668 335.09 191.5C334.68 191.285 334.373 191.02 334.17 190.703C333.971 190.383 333.871 190.025 333.871 189.631C333.871 189.197 333.994 188.793 334.24 188.418C334.486 188.039 334.846 187.752 335.318 187.557C335.791 187.361 336.316 187.264 336.895 187.264C337.531 187.264 338.092 187.367 338.576 187.574C339.064 187.777 339.439 188.078 339.701 188.477C339.963 188.875 340.104 189.326 340.123 189.83L339.033 189.912C338.975 189.369 338.775 188.959 338.436 188.682C338.1 188.404 337.602 188.266 336.941 188.266C336.254 188.266 335.752 188.393 335.436 188.646C335.123 188.896 334.967 189.199 334.967 189.555C334.967 189.863 335.078 190.117 335.301 190.316C335.52 190.516 336.09 190.721 337.012 190.932C337.938 191.139 338.572 191.32 338.916 191.477C339.416 191.707 339.785 192 340.023 192.355C340.262 192.707 340.381 193.113 340.381 193.574C340.381 194.031 340.25 194.463 339.988 194.869C339.727 195.271 339.35 195.586 338.857 195.812C338.369 196.035 337.818 196.146 337.205 196.146C336.428 196.146 335.775 196.033 335.248 195.807C334.725 195.58 334.312 195.24 334.012 194.787C333.715 194.33 333.559 193.814 333.543 193.24ZM344.119 196V188.424H341.289V187.41H348.098V188.424H345.256V196H344.119ZM348.689 193.562L349.715 193.422C349.742 194.078 349.865 194.527 350.084 194.77C350.303 195.012 350.605 195.133 350.992 195.133C351.277 195.133 351.523 195.068 351.73 194.939C351.938 194.807 352.08 194.629 352.158 194.406C352.236 194.18 352.275 193.82 352.275 193.328V187.41H353.412V193.264C353.412 193.982 353.324 194.539 353.148 194.934C352.977 195.328 352.701 195.629 352.322 195.836C351.947 196.043 351.506 196.146 350.998 196.146C350.244 196.146 349.666 195.93 349.264 195.496C348.865 195.062 348.674 194.418 348.689 193.562ZM355.428 190.979V189.777H356.629V190.979H355.428ZM355.428 196V194.799H356.629V196H355.428ZM365.494 196H364.439V189.279C364.186 189.521 363.852 189.764 363.438 190.006C363.027 190.248 362.658 190.43 362.33 190.551V189.531C362.92 189.254 363.436 188.918 363.877 188.523C364.318 188.129 364.631 187.746 364.814 187.375H365.494V196ZM373.475 187.84H376.607V188.644H373.475V187.84ZM373.475 189.988H376.631V190.804H373.475V189.988ZM376.235 186.076H377.231V192.496H376.235V186.076ZM368.807 186.904H373.751V191.728H368.807V186.904ZM372.779 187.708H369.779V190.924H372.779V187.708ZM373.655 192.82C374.775 192.82 375.655 193 376.295 193.36C376.943 193.72 377.267 194.224 377.267 194.872C377.267 195.52 376.943 196.02 376.295 196.372C375.655 196.732 374.775 196.912 373.655 196.912C372.535 196.912 371.651 196.732 371.003 196.372C370.363 196.02 370.043 195.52 370.043 194.872C370.043 194.224 370.363 193.72 371.003 193.36C371.651 193 372.535 192.82 373.655 192.82ZM373.655 193.6C373.111 193.6 372.643 193.652 372.251 193.756C371.859 193.852 371.555 193.996 371.339 194.188C371.131 194.372 371.027 194.6 371.027 194.872C371.027 195.128 371.131 195.352 371.339 195.544C371.555 195.728 371.859 195.872 372.251 195.976C372.643 196.08 373.111 196.132 373.655 196.132C374.207 196.132 374.675 196.08 375.059 195.976C375.451 195.872 375.751 195.728 375.959 195.544C376.175 195.352 376.283 195.128 376.283 194.872C376.283 194.6 376.175 194.372 375.959 194.188C375.751 193.996 375.451 193.852 375.059 193.756C374.675 193.652 374.207 193.6 373.655 193.6ZM384.889 198.525C384.307 197.791 383.814 196.932 383.412 195.947C383.01 194.963 382.809 193.943 382.809 192.889C382.809 191.959 382.959 191.068 383.26 190.217C383.611 189.229 384.154 188.244 384.889 187.264H385.645C385.172 188.076 384.859 188.656 384.707 189.004C384.469 189.543 384.281 190.105 384.145 190.691C383.977 191.422 383.893 192.156 383.893 192.895C383.893 194.773 384.477 196.65 385.645 198.525H384.889ZM390.549 196H389.494V189.279C389.24 189.521 388.906 189.764 388.492 190.006C388.082 190.248 387.713 190.43 387.385 190.551V189.531C387.975 189.254 388.49 188.918 388.932 188.523C389.373 188.129 389.686 187.746 389.869 187.375H390.549V196ZM393.256 191.764C393.256 190.748 393.359 189.932 393.566 189.314C393.777 188.693 394.088 188.215 394.498 187.879C394.912 187.543 395.432 187.375 396.057 187.375C396.518 187.375 396.922 187.469 397.27 187.656C397.617 187.84 397.904 188.107 398.131 188.459C398.357 188.807 398.535 189.232 398.664 189.736C398.793 190.236 398.857 190.912 398.857 191.764C398.857 192.771 398.754 193.586 398.547 194.207C398.34 194.824 398.029 195.303 397.615 195.643C397.205 195.979 396.686 196.146 396.057 196.146C395.229 196.146 394.578 195.85 394.105 195.256C393.539 194.541 393.256 193.377 393.256 191.764ZM394.34 191.764C394.34 193.174 394.504 194.113 394.832 194.582C395.164 195.047 395.572 195.279 396.057 195.279C396.541 195.279 396.947 195.045 397.275 194.576C397.607 194.107 397.773 193.17 397.773 191.764C397.773 190.35 397.607 189.41 397.275 188.945C396.947 188.48 396.537 188.248 396.045 188.248C395.561 188.248 395.174 188.453 394.885 188.863C394.521 189.387 394.34 190.354 394.34 191.764ZM400.527 196V194.799H401.729V196H400.527ZM403.275 191.764C403.275 190.748 403.379 189.932 403.586 189.314C403.797 188.693 404.107 188.215 404.518 187.879C404.932 187.543 405.451 187.375 406.076 187.375C406.537 187.375 406.941 187.469 407.289 187.656C407.637 187.84 407.924 188.107 408.15 188.459C408.377 188.807 408.555 189.232 408.684 189.736C408.812 190.236 408.877 190.912 408.877 191.764C408.877 192.771 408.773 193.586 408.566 194.207C408.359 194.824 408.049 195.303 407.635 195.643C407.225 195.979 406.705 196.146 406.076 196.146C405.248 196.146 404.598 195.85 404.125 195.256C403.559 194.541 403.275 193.377 403.275 191.764ZM404.359 191.764C404.359 193.174 404.523 194.113 404.852 194.582C405.184 195.047 405.592 195.279 406.076 195.279C406.561 195.279 406.967 195.045 407.295 194.576C407.627 194.107 407.793 193.17 407.793 191.764C407.793 190.35 407.627 189.41 407.295 188.945C406.967 188.48 406.557 188.248 406.064 188.248C405.58 188.248 405.193 188.453 404.904 188.863C404.541 189.387 404.359 190.354 404.359 191.764ZM410.154 189.473C410.154 188.859 410.309 188.338 410.617 187.908C410.926 187.479 411.373 187.264 411.959 187.264C412.498 187.264 412.943 187.457 413.295 187.844C413.65 188.227 413.828 188.791 413.828 189.537C413.828 190.264 413.648 190.824 413.289 191.219C412.934 191.609 412.494 191.805 411.971 191.805C411.451 191.805 411.018 191.611 410.67 191.225C410.326 190.838 410.154 190.254 410.154 189.473ZM411.988 187.99C411.727 187.99 411.508 188.104 411.332 188.33C411.16 188.557 411.074 188.973 411.074 189.578C411.074 190.129 411.162 190.518 411.338 190.744C411.514 190.967 411.73 191.078 411.988 191.078C412.254 191.078 412.473 190.965 412.645 190.738C412.82 190.512 412.908 190.098 412.908 189.496C412.908 188.941 412.82 188.553 412.645 188.33C412.469 188.104 412.25 187.99 411.988 187.99ZM411.994 196.316L416.693 187.264H417.549L412.867 196.316H411.994ZM415.709 193.984C415.709 193.367 415.863 192.846 416.172 192.42C416.48 191.99 416.93 191.775 417.52 191.775C418.059 191.775 418.504 191.969 418.855 192.355C419.211 192.738 419.389 193.303 419.389 194.049C419.389 194.775 419.209 195.336 418.85 195.73C418.494 196.121 418.053 196.316 417.525 196.316C417.006 196.316 416.572 196.123 416.225 195.736C415.881 195.346 415.709 194.762 415.709 193.984ZM417.549 192.502C417.283 192.502 417.062 192.615 416.887 192.842C416.715 193.068 416.629 193.484 416.629 194.09C416.629 194.637 416.717 195.023 416.893 195.25C417.068 195.477 417.285 195.59 417.543 195.59C417.812 195.59 418.033 195.477 418.205 195.25C418.381 195.023 418.469 194.609 418.469 194.008C418.469 193.453 418.381 193.064 418.205 192.842C418.029 192.615 417.811 192.502 417.549 192.502ZM421.615 198.525H420.859C422.027 196.65 422.611 194.773 422.611 192.895C422.611 192.16 422.527 191.432 422.359 190.709C422.227 190.123 422.041 189.561 421.803 189.021C421.65 188.67 421.336 188.084 420.859 187.264H421.615C422.35 188.244 422.893 189.229 423.244 190.217C423.545 191.068 423.695 191.959 423.695 192.889C423.695 193.943 423.492 194.963 423.086 195.947C422.684 196.932 422.193 197.791 421.615 198.525Z" fill="black"/>
<path d="M317 210H303C301.343 210 300 211.343 300 213V227C300 228.657 301.343 230 303 230H317C318.657 230 320 228.657 320 227V213C320 211.343 318.657 210 317 210Z" fill="url(#paint11_linear_55_158)"/>
<path d="M326.119 224V215.41H327.256V224H326.119ZM328.879 221.24L329.951 221.146C330.002 221.576 330.119 221.93 330.303 222.207C330.49 222.48 330.779 222.703 331.17 222.875C331.561 223.043 332 223.127 332.488 223.127C332.922 223.127 333.305 223.062 333.637 222.934C333.969 222.805 334.215 222.629 334.375 222.406C334.539 222.18 334.621 221.934 334.621 221.668C334.621 221.398 334.543 221.164 334.387 220.965C334.23 220.762 333.973 220.592 333.613 220.455C333.383 220.365 332.873 220.227 332.084 220.039C331.295 219.848 330.742 219.668 330.426 219.5C330.016 219.285 329.709 219.02 329.506 218.703C329.307 218.383 329.207 218.025 329.207 217.631C329.207 217.197 329.33 216.793 329.576 216.418C329.822 216.039 330.182 215.752 330.654 215.557C331.127 215.361 331.652 215.264 332.23 215.264C332.867 215.264 333.428 215.367 333.912 215.574C334.4 215.777 334.775 216.078 335.037 216.477C335.299 216.875 335.439 217.326 335.459 217.83L334.369 217.912C334.311 217.369 334.111 216.959 333.771 216.682C333.436 216.404 332.938 216.266 332.277 216.266C331.59 216.266 331.088 216.393 330.771 216.646C330.459 216.896 330.303 217.199 330.303 217.555C330.303 217.863 330.414 218.117 330.637 218.316C330.855 218.516 331.426 218.721 332.348 218.932C333.273 219.139 333.908 219.32 334.252 219.477C334.752 219.707 335.121 220 335.359 220.355C335.598 220.707 335.717 221.113 335.717 221.574C335.717 222.031 335.586 222.463 335.324 222.869C335.062 223.271 334.686 223.586 334.193 223.812C333.705 224.035 333.154 224.146 332.541 224.146C331.764 224.146 331.111 224.033 330.584 223.807C330.061 223.58 329.648 223.24 329.348 222.787C329.051 222.33 328.895 221.814 328.879 221.24ZM337.328 224V215.41H343.123V216.424H338.465V219.084H342.496V220.098H338.465V224H337.328ZM344.605 224V215.41H347.846C348.416 215.41 348.852 215.438 349.152 215.492C349.574 215.562 349.928 215.697 350.213 215.896C350.498 216.092 350.727 216.367 350.898 216.723C351.074 217.078 351.162 217.469 351.162 217.895C351.162 218.625 350.93 219.244 350.465 219.752C350 220.256 349.16 220.508 347.945 220.508H345.742V224H344.605ZM345.742 219.494H347.963C348.697 219.494 349.219 219.357 349.527 219.084C349.836 218.811 349.99 218.426 349.99 217.93C349.99 217.57 349.898 217.264 349.715 217.01C349.535 216.752 349.297 216.582 349 216.5C348.809 216.449 348.455 216.424 347.939 216.424H345.742V219.494ZM352.768 218.979V217.777H353.969V218.979H352.768ZM352.768 224V222.799H353.969V224H352.768ZM362.834 224H361.779V217.279C361.525 217.521 361.191 217.764 360.777 218.006C360.367 218.248 359.998 218.43 359.67 218.551V217.531C360.26 217.254 360.775 216.918 361.217 216.523C361.658 216.129 361.971 215.746 362.154 215.375H362.834V224ZM370.815 215.84H373.947V216.644H370.815V215.84ZM370.815 217.988H373.971V218.804H370.815V217.988ZM373.575 214.076H374.571V220.496H373.575V214.076ZM366.147 214.904H371.091V219.728H366.147V214.904ZM370.119 215.708H367.119V218.924H370.119V215.708ZM370.995 220.82C372.115 220.82 372.995 221 373.635 221.36C374.283 221.72 374.607 222.224 374.607 222.872C374.607 223.52 374.283 224.02 373.635 224.372C372.995 224.732 372.115 224.912 370.995 224.912C369.875 224.912 368.991 224.732 368.343 224.372C367.703 224.02 367.383 223.52 367.383 222.872C367.383 222.224 367.703 221.72 368.343 221.36C368.991 221 369.875 220.82 370.995 220.82ZM370.995 221.6C370.451 221.6 369.983 221.652 369.591 221.756C369.199 221.852 368.895 221.996 368.679 222.188C368.471 222.372 368.367 222.6 368.367 222.872C368.367 223.128 368.471 223.352 368.679 223.544C368.895 223.728 369.199 223.872 369.591 223.976C369.983 224.08 370.451 224.132 370.995 224.132C371.547 224.132 372.015 224.08 372.399 223.976C372.791 223.872 373.091 223.728 373.299 223.544C373.515 223.352 373.623 223.128 373.623 222.872C373.623 222.6 373.515 222.372 373.299 222.188C373.091 221.996 372.791 221.852 372.399 221.756C372.015 221.652 371.547 221.6 370.995 221.6ZM382.229 226.525C381.646 225.791 381.154 224.932 380.752 223.947C380.35 222.963 380.148 221.943 380.148 220.889C380.148 219.959 380.299 219.068 380.6 218.217C380.951 217.229 381.494 216.244 382.229 215.264H382.984C382.512 216.076 382.199 216.656 382.047 217.004C381.809 217.543 381.621 218.105 381.484 218.691C381.316 219.422 381.232 220.156 381.232 220.895C381.232 222.773 381.816 224.65 382.984 226.525H382.229ZM387.889 224H386.834V217.279C386.58 217.521 386.246 217.764 385.832 218.006C385.422 218.248 385.053 218.43 384.725 218.551V217.531C385.314 217.254 385.83 216.918 386.271 216.523C386.713 216.129 387.025 215.746 387.209 215.375H387.889V224ZM390.596 219.764C390.596 218.748 390.699 217.932 390.906 217.314C391.117 216.693 391.428 216.215 391.838 215.879C392.252 215.543 392.771 215.375 393.396 215.375C393.857 215.375 394.262 215.469 394.609 215.656C394.957 215.84 395.244 216.107 395.471 216.459C395.697 216.807 395.875 217.232 396.004 217.736C396.133 218.236 396.197 218.912 396.197 219.764C396.197 220.771 396.094 221.586 395.887 222.207C395.68 222.824 395.369 223.303 394.955 223.643C394.545 223.979 394.025 224.146 393.396 224.146C392.568 224.146 391.918 223.85 391.445 223.256C390.879 222.541 390.596 221.377 390.596 219.764ZM391.68 219.764C391.68 221.174 391.844 222.113 392.172 222.582C392.504 223.047 392.912 223.279 393.396 223.279C393.881 223.279 394.287 223.045 394.615 222.576C394.947 222.107 395.113 221.17 395.113 219.764C395.113 218.35 394.947 217.41 394.615 216.945C394.287 216.48 393.877 216.248 393.385 216.248C392.9 216.248 392.514 216.453 392.225 216.863C391.861 217.387 391.68 218.354 391.68 219.764ZM397.867 224V222.799H399.068V224H397.867ZM400.615 219.764C400.615 218.748 400.719 217.932 400.926 217.314C401.137 216.693 401.447 216.215 401.857 215.879C402.271 215.543 402.791 215.375 403.416 215.375C403.877 215.375 404.281 215.469 404.629 215.656C404.977 215.84 405.264 216.107 405.49 216.459C405.717 216.807 405.895 217.232 406.023 217.736C406.152 218.236 406.217 218.912 406.217 219.764C406.217 220.771 406.113 221.586 405.906 222.207C405.699 222.824 405.389 223.303 404.975 223.643C404.564 223.979 404.045 224.146 403.416 224.146C402.588 224.146 401.938 223.85 401.465 223.256C400.898 222.541 400.615 221.377 400.615 219.764ZM401.699 219.764C401.699 221.174 401.863 222.113 402.191 222.582C402.523 223.047 402.932 223.279 403.416 223.279C403.9 223.279 404.307 223.045 404.635 222.576C404.967 222.107 405.133 221.17 405.133 219.764C405.133 218.35 404.967 217.41 404.635 216.945C404.307 216.48 403.896 216.248 403.404 216.248C402.92 216.248 402.533 216.453 402.244 216.863C401.881 217.387 401.699 218.354 401.699 219.764ZM407.494 217.473C407.494 216.859 407.648 216.338 407.957 215.908C408.266 215.479 408.713 215.264 409.299 215.264C409.838 215.264 410.283 215.457 410.635 215.844C410.99 216.227 411.168 216.791 411.168 217.537C411.168 218.264 410.988 218.824 410.629 219.219C410.273 219.609 409.834 219.805 409.311 219.805C408.791 219.805 408.357 219.611 408.01 219.225C407.666 218.838 407.494 218.254 407.494 217.473ZM409.328 215.99C409.066 215.99 408.848 216.104 408.672 216.33C408.5 216.557 408.414 216.973 408.414 217.578C408.414 218.129 408.502 218.518 408.678 218.744C408.854 218.967 409.07 219.078 409.328 219.078C409.594 219.078 409.812 218.965 409.984 218.738C410.16 218.512 410.248 218.098 410.248 217.496C410.248 216.941 410.16 216.553 409.984 216.33C409.809 216.104 409.59 215.99 409.328 215.99ZM409.334 224.316L414.033 215.264H414.889L410.207 224.316H409.334ZM413.049 221.984C413.049 221.367 413.203 220.846 413.512 220.42C413.82 219.99 414.27 219.775 414.859 219.775C415.398 219.775 415.844 219.969 416.195 220.355C416.551 220.738 416.729 221.303 416.729 222.049C416.729 222.775 416.549 223.336 416.189 223.73C415.834 224.121 415.393 224.316 414.865 224.316C414.346 224.316 413.912 224.123 413.564 223.736C413.221 223.346 413.049 222.762 413.049 221.984ZM414.889 220.502C414.623 220.502 414.402 220.615 414.227 220.842C414.055 221.068 413.969 221.484 413.969 222.09C413.969 222.637 414.057 223.023 414.232 223.25C414.408 223.477 414.625 223.59 414.883 223.59C415.152 223.59 415.373 223.477 415.545 223.25C415.721 223.023 415.809 222.609 415.809 222.008C415.809 221.453 415.721 221.064 415.545 220.842C415.369 220.615 415.15 220.502 414.889 220.502ZM418.955 226.525H418.199C419.367 224.65 419.951 222.773 419.951 220.895C419.951 220.16 419.867 219.432 419.699 218.709C419.566 218.123 419.381 217.561 419.143 217.021C418.99 216.67 418.676 216.084 418.199 215.264H418.955C419.689 216.244 420.232 217.229 420.584 218.217C420.885 219.068 421.035 219.959 421.035 220.889C421.035 221.943 420.832 222.963 420.426 223.947C420.023 224.932 419.533 225.791 418.955 226.525Z" fill="black"/>
<path d="M82.9458 67V57.6943H89.8457V59.2686H84.8247V61.3315H89.4966V62.8994H84.8247V65.4321H90.0234V67H82.9458ZM91.1406 63.9722L92.9688 63.7944C93.0788 64.408 93.3009 64.8587 93.6353 65.1465C93.9738 65.4342 94.4287 65.5781 95 65.5781C95.6051 65.5781 96.0601 65.4512 96.3647 65.1973C96.6737 64.9391 96.8281 64.6387 96.8281 64.2959C96.8281 64.0758 96.7625 63.8896 96.6313 63.7373C96.5044 63.5807 96.2801 63.4453 95.9585 63.3311C95.7384 63.2549 95.237 63.1195 94.4541 62.9248C93.4469 62.6751 92.7402 62.3683 92.334 62.0044C91.7627 61.4924 91.4771 60.8682 91.4771 60.1318C91.4771 59.6579 91.6104 59.2157 91.877 58.8052C92.1478 58.3905 92.535 58.0752 93.0386 57.8594C93.5464 57.6436 94.1579 57.5356 94.873 57.5356C96.041 57.5356 96.9191 57.7917 97.5073 58.3037C98.0998 58.8158 98.4108 59.4992 98.4404 60.354L96.5615 60.4365C96.4811 59.9583 96.3076 59.6156 96.041 59.4082C95.7786 59.1966 95.383 59.0908 94.854 59.0908C94.3081 59.0908 93.8807 59.203 93.5718 59.4272C93.3729 59.5711 93.2734 59.7637 93.2734 60.0049C93.2734 60.2249 93.3665 60.4132 93.5527 60.5698C93.7897 60.7687 94.3652 60.9761 95.2793 61.1919C96.1934 61.4077 96.8683 61.632 97.3042 61.8647C97.7443 62.0933 98.0871 62.4085 98.3325 62.8105C98.5822 63.2083 98.707 63.7013 98.707 64.2896C98.707 64.8228 98.5589 65.3221 98.2627 65.7876C97.9665 66.2531 97.5475 66.6001 97.0059 66.8286C96.4642 67.0529 95.7892 67.165 94.981 67.165C93.8045 67.165 92.901 66.8942 92.2705 66.3525C91.64 65.8066 91.2633 65.0132 91.1406 63.9722ZM102.382 67V59.2686H99.6211V57.6943H107.016V59.2686H104.261V67H102.382ZM111.593 57.6943H113.465V63.585C113.465 64.3551 113.398 64.9476 113.262 65.3623C113.08 65.904 112.75 66.3398 112.272 66.6699C111.794 66.9958 111.163 67.1587 110.38 67.1587C109.462 67.1587 108.755 66.9027 108.26 66.3906C107.765 65.8743 107.515 65.119 107.511 64.1245L109.282 63.9214C109.303 64.4546 109.382 64.8312 109.517 65.0513C109.72 65.3856 110.029 65.5527 110.444 65.5527C110.863 65.5527 111.159 65.4342 111.333 65.1973C111.506 64.9561 111.593 64.4588 111.593 63.7056V57.6943Z" fill="white"/>
<path d="M199.889 105V95.6943H201.768V105H199.889ZM203.088 101.972L204.916 101.794C205.026 102.408 205.248 102.859 205.583 103.146C205.921 103.434 206.376 103.578 206.947 103.578C207.552 103.578 208.007 103.451 208.312 103.197C208.621 102.939 208.775 102.639 208.775 102.296C208.775 102.076 208.71 101.89 208.579 101.737C208.452 101.581 208.227 101.445 207.906 101.331C207.686 101.255 207.184 101.119 206.401 100.925C205.394 100.675 204.688 100.368 204.281 100.004C203.71 99.4924 203.424 98.8682 203.424 98.1318C203.424 97.6579 203.558 97.2157 203.824 96.8052C204.095 96.3905 204.482 96.0752 204.986 95.8594C205.494 95.6436 206.105 95.5356 206.82 95.5356C207.988 95.5356 208.866 95.7917 209.455 96.3037C210.047 96.8158 210.358 97.4992 210.388 98.354L208.509 98.4365C208.428 97.9583 208.255 97.6156 207.988 97.4082C207.726 97.1966 207.33 97.0908 206.801 97.0908C206.255 97.0908 205.828 97.203 205.519 97.4272C205.32 97.5711 205.221 97.7637 205.221 98.0049C205.221 98.2249 205.314 98.4132 205.5 98.5698C205.737 98.7687 206.312 98.9761 207.227 99.1919C208.141 99.4077 208.816 99.632 209.251 99.8647C209.692 100.093 210.034 100.409 210.28 100.811C210.529 101.208 210.654 101.701 210.654 102.29C210.654 102.823 210.506 103.322 210.21 103.788C209.914 104.253 209.495 104.6 208.953 104.829C208.411 105.053 207.736 105.165 206.928 105.165C205.752 105.165 204.848 104.894 204.218 104.353C203.587 103.807 203.211 103.013 203.088 101.972ZM212.248 105V95.6943H218.627V97.2686H214.126V99.4712H218.011V101.045H214.126V105H212.248ZM220.182 105V95.6943H223.197C224.34 95.6943 225.085 95.7409 225.432 95.834C225.965 95.9736 226.411 96.2783 226.771 96.748C227.131 97.2135 227.311 97.8166 227.311 98.5571C227.311 99.1284 227.207 99.6087 227 99.998C226.792 100.387 226.528 100.694 226.206 100.918C225.889 101.139 225.565 101.285 225.235 101.356C224.786 101.445 224.137 101.49 223.286 101.49H222.061V105H220.182ZM222.061 97.2686V99.9092H223.089C223.83 99.9092 224.325 99.8605 224.575 99.7632C224.824 99.6659 225.019 99.5135 225.159 99.3062C225.303 99.0988 225.375 98.8576 225.375 98.5825C225.375 98.244 225.275 97.9647 225.076 97.7446C224.877 97.5246 224.625 97.387 224.321 97.332C224.097 97.2897 223.646 97.2686 222.969 97.2686H222.061Z" fill="white"/>
<path d="M18.8887 129V119.694H20.7676V129H18.8887ZM22.583 129V119.694H24.4111L28.2197 125.909V119.694H29.9653V129H28.0801L24.3286 122.932V129H22.583ZM34.0532 129V121.269H31.292V119.694H38.687V121.269H35.9321V129H34.0532ZM43.2637 119.694H45.1362V125.585C45.1362 126.355 45.0685 126.948 44.9331 127.362C44.7511 127.904 44.4211 128.34 43.9429 128.67C43.4647 128.996 42.8341 129.159 42.0513 129.159C41.133 129.159 40.4263 128.903 39.9312 128.391C39.436 127.874 39.1864 127.119 39.1821 126.125L40.9531 125.921C40.9743 126.455 41.0526 126.831 41.188 127.051C41.3911 127.386 41.7 127.553 42.1147 127.553C42.5337 127.553 42.8299 127.434 43.0034 127.197C43.1769 126.956 43.2637 126.459 43.2637 125.706V119.694Z" fill="white"/>
<path d="M21.9458 183V173.694H28.8457V175.269H23.8247V177.332H28.4966V178.899H23.8247V181.432H29.0234V183H21.9458ZM30.6357 183V173.694H32.4639L36.2725 179.909V173.694H38.0181V183H36.1328L32.3813 176.932V183H30.6357ZM42.106 183V175.269H39.3447V173.694H46.7397V175.269H43.9849V183H42.106ZM51.3164 173.694H53.189V179.585C53.189 180.355 53.1213 180.948 52.9858 181.362C52.8039 181.904 52.4738 182.34 51.9956 182.67C51.5174 182.996 50.8869 183.159 50.104 183.159C49.1857 183.159 48.479 182.903 47.9839 182.391C47.4888 181.874 47.2391 181.119 47.2349 180.125L49.0059 179.921C49.027 180.455 49.1053 180.831 49.2407 181.051C49.4438 181.386 49.7528 181.553 50.1675 181.553C50.5864 181.553 50.8826 181.434 51.0562 181.197C51.2297 180.956 51.3164 180.459 51.3164 179.706V173.694Z" fill="white"/>
<path d="M59.8887 233V223.694H61.7676V233H59.8887ZM63.583 233V223.694H65.4111L69.2197 229.909V223.694H70.9653V233H69.0801L65.3286 226.932V233H63.583ZM75.0532 233V225.269H72.292V223.694H79.687V225.269H76.9321V233H75.0532ZM80.9058 233V223.694H83.9209C85.0635 223.694 85.8083 223.741 86.1553 223.834C86.6885 223.974 87.1349 224.278 87.4946 224.748C87.8543 225.214 88.0342 225.817 88.0342 226.557C88.0342 227.128 87.9305 227.609 87.7231 227.998C87.5158 228.387 87.2513 228.694 86.9297 228.918C86.6123 229.139 86.2886 229.285 85.9585 229.356C85.5099 229.445 84.8604 229.49 84.0098 229.49H82.7847V233H80.9058ZM82.7847 225.269V227.909H83.813C84.5535 227.909 85.0487 227.861 85.2983 227.763C85.548 227.666 85.7427 227.514 85.8823 227.306C86.0262 227.099 86.0981 226.858 86.0981 226.583C86.0981 226.244 85.9987 225.965 85.7998 225.745C85.6009 225.525 85.3491 225.387 85.0444 225.332C84.8201 225.29 84.3695 225.269 83.6924 225.269H82.7847Z" fill="white"/>
<path d="M172.889 236V226.694H174.768V236H172.889ZM176.088 232.972L177.916 232.794C178.026 233.408 178.248 233.859 178.583 234.146C178.921 234.434 179.376 234.578 179.947 234.578C180.552 234.578 181.007 234.451 181.312 234.197C181.621 233.939 181.775 233.639 181.775 233.296C181.775 233.076 181.71 232.89 181.579 232.737C181.452 232.581 181.227 232.445 180.906 232.331C180.686 232.255 180.184 232.119 179.401 231.925C178.394 231.675 177.688 231.368 177.281 231.004C176.71 230.492 176.424 229.868 176.424 229.132C176.424 228.658 176.558 228.216 176.824 227.805C177.095 227.39 177.482 227.075 177.986 226.859C178.494 226.644 179.105 226.536 179.82 226.536C180.988 226.536 181.866 226.792 182.455 227.304C183.047 227.816 183.358 228.499 183.388 229.354L181.509 229.437C181.428 228.958 181.255 228.616 180.988 228.408C180.726 228.197 180.33 228.091 179.801 228.091C179.255 228.091 178.828 228.203 178.519 228.427C178.32 228.571 178.221 228.764 178.221 229.005C178.221 229.225 178.314 229.413 178.5 229.57C178.737 229.769 179.312 229.976 180.227 230.192C181.141 230.408 181.816 230.632 182.251 230.865C182.692 231.093 183.034 231.409 183.28 231.811C183.529 232.208 183.654 232.701 183.654 233.29C183.654 233.823 183.506 234.322 183.21 234.788C182.914 235.253 182.495 235.6 181.953 235.829C181.411 236.053 180.736 236.165 179.928 236.165C178.752 236.165 177.848 235.894 177.218 235.353C176.587 234.807 176.211 234.013 176.088 232.972ZM185.248 236V226.694H191.627V228.269H187.126V230.471H191.011V232.045H187.126V236H185.248ZM196.54 226.694H198.413V232.585C198.413 233.355 198.345 233.948 198.209 234.362C198.028 234.904 197.697 235.34 197.219 235.67C196.741 235.996 196.111 236.159 195.328 236.159C194.409 236.159 193.703 235.903 193.208 235.391C192.712 234.874 192.463 234.119 192.458 233.125L194.229 232.921C194.251 233.455 194.329 233.831 194.464 234.051C194.667 234.386 194.976 234.553 195.391 234.553C195.81 234.553 196.106 234.434 196.28 234.197C196.453 233.956 196.54 233.459 196.54 232.706V226.694Z" fill="white"/>
<defs>
<linearGradient id="paint0_linear_55_158" x1="174.914" y1="150" x2="174.914" y2="280" gradientUnits="userSpaceOnUse">
<stop stop-color="#76D5FC"/>
<stop offset="1" stop-color="#6EC5EE"/>
</linearGradient>
<linearGradient id="paint1_linear_55_158" x1="77.4139" y1="150" x2="77.4139" y2="273.637" gradientUnits="userSpaceOnUse">
<stop stop-color="#F5EA6F"/>
<stop offset="1" stop-color="#D2D862"/>
</linearGradient>
<linearGradient id="paint2_linear_55_158" x1="65" y1="150" x2="65" y2="226.412" gradientUnits="userSpaceOnUse">
<stop stop-color="#EC8934"/>
<stop offset="1" stop-color="#EA6A35"/>
</linearGradient>
<linearGradient id="paint3_linear_55_158" x1="65" y1="73.5879" x2="65" y2="150" gradientUnits="userSpaceOnUse">
<stop stop-color="#85E5A7"/>
<stop offset="1" stop-color="#6CD8A0"/>
</linearGradient>
<linearGradient id="paint4_linear_55_158" x1="97.5" y1="20" x2="97.5" y2="150" gradientUnits="userSpaceOnUse">
<stop stop-color="#BC9BE5"/>
<stop offset="1" stop-color="#9A72FF"/>
</linearGradient>
<linearGradient id="paint5_linear_55_158" x1="195" y1="26.3627" x2="195" y2="150" gradientUnits="userSpaceOnUse">
<stop stop-color="#EB74EA"/>
<stop offset="1" stop-color="#D862D8"/>
</linearGradient>
<linearGradient id="paint6_linear_55_158" x1="310" y1="70" x2="310" y2="90" gradientUnits="userSpaceOnUse">
<stop stop-color="#76D5FC"/>
<stop offset="1" stop-color="#6EC5EE"/>
</linearGradient>
<linearGradient id="paint7_linear_55_158" x1="310" y1="98" x2="310" y2="118" gradientUnits="userSpaceOnUse">
<stop stop-color="#85E5A7"/>
<stop offset="1" stop-color="#6CD8A0"/>
</linearGradient>
<linearGradient id="paint8_linear_55_158" x1="310" y1="126" x2="310" y2="146" gradientUnits="userSpaceOnUse">
<stop stop-color="#F5EA6F"/>
<stop offset="1" stop-color="#D2D862"/>
</linearGradient>
<linearGradient id="paint9_linear_55_158" x1="310" y1="154" x2="310" y2="174" gradientUnits="userSpaceOnUse">
<stop stop-color="#EC8934"/>
<stop offset="1" stop-color="#EA6A35"/>
</linearGradient>
<linearGradient id="paint10_linear_55_158" x1="310" y1="182" x2="310" y2="202" gradientUnits="userSpaceOnUse">
<stop stop-color="#BC9BE5"/>
<stop offset="1" stop-color="#9A72FF"/>
</linearGradient>
<linearGradient id="paint11_linear_55_158" x1="310" y1="210" x2="310" y2="230" gradientUnits="userSpaceOnUse">
<stop stop-color="#EB74EA"/>
<stop offset="1" stop-color="#D862D8"/>
</linearGradient>
</defs>
</svg>
