<svg width="450" height="300" viewBox="0 0 450 300" fill="none" xmlns="http://www.w3.org/2000/svg">
<rect width="450" height="300" fill="white"/>
<path d="M130 150H260C260 183.757 246.869 216.19 223.385 240.439L130 150Z" fill="url(#paint0_linear_55_138)"/>
<path d="M130 150L223.385 240.439C199.902 264.688 167.906 278.851 134.167 279.933L130 150Z" fill="url(#paint1_linear_55_138)"/>
<path d="M130 150L134.167 279.933C100.427 281.015 67.5902 268.931 42.6009 246.236L130 150Z" fill="url(#paint2_linear_55_138)"/>
<path d="M130 150L42.6009 246.236C17.6116 223.542 2.42989 192.016 0.26709 158.329L130 150Z" fill="url(#paint3_linear_55_138)"/>
<path d="M130 150L0.267108 158.329C-0.84916 140.942 1.54087 123.509 7.29518 107.064C13.0495 90.6188 22.0507 75.4984 33.7639 62.6009C45.4771 49.7033 59.6633 39.2918 75.4796 31.985C91.296 24.6782 108.42 20.6252 125.833 20.0668L130 150Z" fill="url(#paint4_linear_55_138)"/>
<path d="M130 150L125.833 20.0668C143.247 19.5084 160.595 22.456 176.847 28.7344C193.099 35.0128 207.923 44.494 220.439 56.6146C232.954 68.7352 242.906 83.2478 249.702 99.2902C256.498 115.333 260 132.577 260 150H130Z" fill="url(#paint5_linear_55_138)"/>
<path d="M130 215C165.899 215 195 185.899 195 150C195 114.101 165.899 85 130 85C94.1015 85 65 114.101 65 150C65 185.899 94.1015 215 130 215Z" fill="white"/>
<path d="M118.176 136.36C118.432 136.317 119.413 136.317 121.12 136.36C122.827 136.381 123.755 136.413 123.904 136.456C124.096 136.52 124.256 136.552 124.384 136.552C124.704 136.552 125.28 136.744 126.112 137.128C126.944 137.512 127.477 137.821 127.712 138.056C128.352 138.76 128.725 139.336 128.832 139.784C128.853 139.891 128.907 140.008 128.992 140.136C129.077 140.264 129.152 140.456 129.216 140.712C129.259 140.925 129.312 141.16 129.376 141.416C129.461 141.693 129.493 142.152 129.472 142.792C129.472 143.432 129.44 143.869 129.376 144.104C129.269 144.36 129.205 144.573 129.184 144.744C129.163 144.915 129.109 145.053 129.024 145.16C128.939 145.267 128.864 145.405 128.8 145.576C128.757 145.725 128.512 146.035 128.064 146.504C127.637 146.973 127.36 147.229 127.232 147.272C127.125 147.293 127.008 147.357 126.88 147.464C126.496 147.741 126.091 147.933 125.664 148.04C125.472 148.104 125.312 148.168 125.184 148.232C125.056 148.296 124.757 148.381 124.288 148.488C123.84 148.573 123.531 148.616 123.36 148.616C123.232 148.616 122.955 148.659 122.528 148.744C122.123 148.829 121.6 148.872 120.96 148.872C120.32 148.872 119.968 148.915 119.904 149C119.84 149.064 119.797 150.248 119.776 152.552C119.776 154.237 119.765 155.251 119.744 155.592C119.723 155.912 119.691 156.115 119.648 156.2C119.499 156.392 119.403 156.563 119.36 156.712C119.317 156.861 119.179 157.021 118.944 157.192C118.603 157.448 118.251 157.544 117.888 157.48C117.525 157.437 117.216 157.277 116.96 157C116.725 156.701 116.544 156.328 116.416 155.88C116.288 155.432 116.288 154.941 116.416 154.408C116.501 154.024 116.544 152.968 116.544 151.24C116.565 149.512 116.533 148.189 116.448 147.272C116.405 146.653 116.373 145.544 116.352 143.944C116.352 142.344 116.373 141.363 116.416 141C116.48 140.659 116.523 140.051 116.544 139.176C116.565 138.173 116.693 137.469 116.928 137.064C117.163 136.659 117.579 136.424 118.176 136.36ZM122.944 139.688C122.645 139.581 122.091 139.528 121.28 139.528C120.469 139.507 120.011 139.549 119.904 139.656C119.797 139.741 119.744 140.733 119.744 142.632C119.765 144.531 119.829 145.491 119.936 145.512C120 145.533 120.341 145.533 120.96 145.512C121.536 145.448 121.973 145.416 122.272 145.416C122.976 145.416 123.744 145.235 124.576 144.872C125.408 144.488 125.867 144.115 125.952 143.752C125.995 143.624 126.059 143.475 126.144 143.304C126.336 142.92 126.336 142.493 126.144 142.024C126.037 141.811 125.973 141.619 125.952 141.448C125.803 140.872 125.451 140.477 124.896 140.264C124.683 140.2 124.437 140.104 124.16 139.976C123.883 139.869 123.669 139.816 123.52 139.816C123.371 139.816 123.179 139.773 122.944 139.688ZM136.885 136.584C137.205 136.477 137.578 136.413 138.005 136.392C138.453 136.371 138.783 136.403 138.997 136.488C139.146 136.552 139.359 136.616 139.637 136.68C139.914 136.744 140.074 136.797 140.117 136.84C140.181 136.883 140.298 136.936 140.469 137C140.853 137.128 141.29 137.384 141.781 137.768C142.293 138.152 142.591 138.461 142.677 138.696C142.719 138.803 142.73 139.059 142.709 139.464C142.709 139.848 142.687 140.104 142.645 140.232C142.538 140.467 142.293 140.712 141.909 140.968C141.781 141.053 141.503 141.096 141.077 141.096C140.65 141.075 140.362 141.021 140.213 140.936C139.701 140.595 139.263 140.371 138.901 140.264C138.687 140.221 138.57 140.179 138.549 140.136C138.485 140.008 138.335 139.997 138.101 140.104C137.887 140.211 137.738 140.349 137.653 140.52C137.589 140.733 137.567 141.576 137.589 143.048C137.61 144.499 137.653 145.245 137.717 145.288C137.802 145.331 138.197 145.341 138.901 145.32C139.605 145.299 140.117 145.256 140.437 145.192C141.055 145.085 141.589 145.213 142.037 145.576C142.442 145.917 142.666 146.344 142.709 146.856C142.751 147.347 142.602 147.784 142.261 148.168C141.941 148.531 141.503 148.712 140.949 148.712C140.821 148.712 140.469 148.755 139.893 148.84C139.338 148.925 138.89 148.968 138.549 148.968C138.165 148.968 137.909 149.064 137.781 149.256C137.674 149.427 137.695 149.725 137.845 150.152C137.93 150.365 137.994 150.877 138.036 151.688C138.058 152.499 138.111 153 138.197 153.192C138.261 153.384 138.303 153.907 138.325 154.76C138.346 155.613 138.293 156.2 138.165 156.52C138.058 156.84 137.813 157.096 137.429 157.288C136.938 157.544 136.458 157.555 135.989 157.32C135.775 157.213 135.583 157.085 135.413 156.936C135.242 156.765 135.157 156.637 135.157 156.552C135.157 156.467 135.093 156.296 134.965 156.04C134.858 155.741 134.794 155.187 134.773 154.376C134.73 153.565 134.677 153.021 134.613 152.744C134.549 152.424 134.516 152.072 134.516 151.688C134.516 151.304 134.495 151.016 134.453 150.824C134.431 150.696 134.389 150.376 134.325 149.864C134.261 149.459 134.197 149.213 134.133 149.128C134.069 149.043 133.887 148.979 133.589 148.936C133.29 148.915 133.055 148.872 132.885 148.808C132.693 148.765 132.405 148.733 132.021 148.712C131.487 148.669 131.114 148.584 130.901 148.456C130.687 148.328 130.495 148.083 130.325 147.72C129.962 146.952 130.069 146.291 130.645 145.736C131.221 145.181 131.989 144.989 132.949 145.16C133.482 145.267 133.781 145.267 133.845 145.16C133.887 145.075 133.919 144.307 133.941 142.856C133.962 141.405 134.015 140.573 134.101 140.36C134.186 140.147 134.261 139.869 134.325 139.528C134.431 138.824 134.709 138.216 135.157 137.704C135.626 137.192 136.202 136.819 136.885 136.584Z" fill="black"/>
<path d="M317 70H303C301.343 70 300 71.3431 300 73V87C300 88.6569 301.343 90 303 90H317C318.657 90 320 88.6569 320 87V73C320 71.3431 318.657 70 317 70Z" fill="url(#paint6_linear_55_138)"/>
<path d="M325.949 84V75.4102H332.16V76.4238H327.086V79.0547H331.838V80.0625H327.086V82.9863H332.359V84H325.949ZM333.918 84V75.4102H335.084L339.596 82.1543V75.4102H340.686V84H339.52L335.008 77.25V84H333.918ZM342.66 84V75.4102H348.455V76.4238H343.797V79.084H347.828V80.0977H343.797V84H342.66ZM349.938 84V75.4102H353.178C353.748 75.4102 354.184 75.4375 354.484 75.4922C354.906 75.5625 355.26 75.6973 355.545 75.8965C355.83 76.0918 356.059 76.3672 356.23 76.7227C356.406 77.0781 356.494 77.4688 356.494 77.8945C356.494 78.625 356.262 79.2441 355.797 79.752C355.332 80.2559 354.492 80.5078 353.277 80.5078H351.074V84H349.938ZM351.074 79.4941H353.295C354.029 79.4941 354.551 79.3574 354.859 79.084C355.168 78.8105 355.322 78.4258 355.322 77.9297C355.322 77.5703 355.23 77.2637 355.047 77.0098C354.867 76.752 354.629 76.582 354.332 76.5C354.141 76.4492 353.787 76.4238 353.271 76.4238H351.074V79.4941ZM358.1 78.9785V77.7773H359.301V78.9785H358.1ZM358.1 84V82.7988H359.301V84H358.1ZM369.736 82.9863V84H364.059C364.051 83.7461 364.092 83.502 364.182 83.2676C364.326 82.8809 364.557 82.5 364.873 82.125C365.193 81.75 365.654 81.3164 366.256 80.8242C367.189 80.0586 367.82 79.4531 368.148 79.0078C368.477 78.5586 368.641 78.1348 368.641 77.7363C368.641 77.3184 368.49 76.9668 368.189 76.6816C367.893 76.3926 367.504 76.248 367.023 76.248C366.516 76.248 366.109 76.4004 365.805 76.7051C365.5 77.0098 365.346 77.4316 365.342 77.9707L364.258 77.8594C364.332 77.0508 364.611 76.4355 365.096 76.0137C365.58 75.5879 366.23 75.375 367.047 75.375C367.871 75.375 368.523 75.6035 369.004 76.0605C369.484 76.5176 369.725 77.084 369.725 77.7598C369.725 78.1035 369.654 78.4414 369.514 78.7734C369.373 79.1055 369.139 79.4551 368.811 79.8223C368.486 80.1895 367.945 80.6934 367.188 81.334C366.555 81.8652 366.148 82.2266 365.969 82.418C365.789 82.6055 365.641 82.7949 365.523 82.9863H369.736ZM376.147 75.84H379.279V76.644H376.147V75.84ZM376.147 77.988H379.303V78.804H376.147V77.988ZM378.907 74.076H379.903V80.496H378.907V74.076ZM371.479 74.904H376.423V79.728H371.479V74.904ZM375.451 75.708H372.451V78.924H375.451V75.708ZM376.327 80.82C377.447 80.82 378.327 81 378.967 81.36C379.615 81.72 379.939 82.224 379.939 82.872C379.939 83.52 379.615 84.02 378.967 84.372C378.327 84.732 377.447 84.912 376.327 84.912C375.207 84.912 374.323 84.732 373.675 84.372C373.035 84.02 372.715 83.52 372.715 82.872C372.715 82.224 373.035 81.72 373.675 81.36C374.323 81 375.207 80.82 376.327 80.82ZM376.327 81.6C375.783 81.6 375.315 81.652 374.923 81.756C374.531 81.852 374.227 81.996 374.011 82.188C373.803 82.372 373.699 82.6 373.699 82.872C373.699 83.128 373.803 83.352 374.011 83.544C374.227 83.728 374.531 83.872 374.923 83.976C375.315 84.08 375.783 84.132 376.327 84.132C376.879 84.132 377.347 84.08 377.731 83.976C378.123 83.872 378.423 83.728 378.631 83.544C378.847 83.352 378.955 83.128 378.955 82.872C378.955 82.6 378.847 82.372 378.631 82.188C378.423 81.996 378.123 81.852 377.731 81.756C377.347 81.652 376.879 81.6 376.327 81.6ZM387.561 86.5254C386.979 85.791 386.486 84.9316 386.084 83.9473C385.682 82.9629 385.48 81.9434 385.48 80.8887C385.48 79.959 385.631 79.0684 385.932 78.2168C386.283 77.2285 386.826 76.2441 387.561 75.2637H388.316C387.844 76.0762 387.531 76.6562 387.379 77.0039C387.141 77.543 386.953 78.1055 386.816 78.6914C386.648 79.4219 386.564 80.1562 386.564 80.8945C386.564 82.7734 387.148 84.6504 388.316 86.5254H387.561ZM394.791 82.9863V84H389.113C389.105 83.7461 389.146 83.502 389.236 83.2676C389.381 82.8809 389.611 82.5 389.928 82.125C390.248 81.75 390.709 81.3164 391.311 80.8242C392.244 80.0586 392.875 79.4531 393.203 79.0078C393.531 78.5586 393.695 78.1348 393.695 77.7363C393.695 77.3184 393.545 76.9668 393.244 76.6816C392.947 76.3926 392.559 76.248 392.078 76.248C391.57 76.248 391.164 76.4004 390.859 76.7051C390.555 77.0098 390.4 77.4316 390.396 77.9707L389.312 77.8594C389.387 77.0508 389.666 76.4355 390.15 76.0137C390.635 75.5879 391.285 75.375 392.102 75.375C392.926 75.375 393.578 75.6035 394.059 76.0605C394.539 76.5176 394.779 77.084 394.779 77.7598C394.779 78.1035 394.709 78.4414 394.568 78.7734C394.428 79.1055 394.193 79.4551 393.865 79.8223C393.541 80.1895 393 80.6934 392.242 81.334C391.609 81.8652 391.203 82.2266 391.023 82.418C390.844 82.6055 390.695 82.7949 390.578 82.9863H394.791ZM395.928 81.75L397.035 81.6562C397.117 82.1953 397.307 82.6016 397.604 82.875C397.904 83.1445 398.266 83.2793 398.688 83.2793C399.195 83.2793 399.625 83.0879 399.977 82.7051C400.328 82.3223 400.504 81.8145 400.504 81.1816C400.504 80.5801 400.334 80.1055 399.994 79.7578C399.658 79.4102 399.217 79.2363 398.67 79.2363C398.33 79.2363 398.023 79.3145 397.75 79.4707C397.477 79.623 397.262 79.8223 397.105 80.0684L396.115 79.9395L396.947 75.5273H401.219V76.5352H397.791L397.328 78.8438C397.844 78.4844 398.385 78.3047 398.951 78.3047C399.701 78.3047 400.334 78.5645 400.85 79.084C401.365 79.6035 401.623 80.2715 401.623 81.0879C401.623 81.8652 401.396 82.5371 400.943 83.1035C400.393 83.7988 399.641 84.1465 398.688 84.1465C397.906 84.1465 397.268 83.9277 396.771 83.4902C396.279 83.0527 395.998 82.4727 395.928 81.75ZM403.199 84V82.7988H404.4V84H403.199ZM405.947 79.7637C405.947 78.748 406.051 77.9316 406.258 77.3145C406.469 76.6934 406.779 76.2148 407.189 75.8789C407.604 75.543 408.123 75.375 408.748 75.375C409.209 75.375 409.613 75.4688 409.961 75.6562C410.309 75.8398 410.596 76.1074 410.822 76.459C411.049 76.8066 411.227 77.2324 411.355 77.7363C411.484 78.2363 411.549 78.9121 411.549 79.7637C411.549 80.7715 411.445 81.5859 411.238 82.207C411.031 82.8242 410.721 83.3027 410.307 83.6426C409.896 83.9785 409.377 84.1465 408.748 84.1465C407.92 84.1465 407.27 83.8496 406.797 83.2559C406.23 82.541 405.947 81.377 405.947 79.7637ZM407.031 79.7637C407.031 81.1738 407.195 82.1133 407.523 82.582C407.855 83.0469 408.264 83.2793 408.748 83.2793C409.232 83.2793 409.639 83.0449 409.967 82.5762C410.299 82.1074 410.465 81.1699 410.465 79.7637C410.465 78.3496 410.299 77.4102 409.967 76.9453C409.639 76.4805 409.229 76.248 408.736 76.248C408.252 76.248 407.865 76.4531 407.576 76.8633C407.213 77.3867 407.031 78.3535 407.031 79.7637ZM412.826 77.4727C412.826 76.8594 412.98 76.3379 413.289 75.9082C413.598 75.4785 414.045 75.2637 414.631 75.2637C415.17 75.2637 415.615 75.457 415.967 75.8438C416.322 76.2266 416.5 76.791 416.5 77.5371C416.5 78.2637 416.32 78.8242 415.961 79.2188C415.605 79.6094 415.166 79.8047 414.643 79.8047C414.123 79.8047 413.689 79.6113 413.342 79.2246C412.998 78.8379 412.826 78.2539 412.826 77.4727ZM414.66 75.9902C414.398 75.9902 414.18 76.1035 414.004 76.3301C413.832 76.5566 413.746 76.9727 413.746 77.5781C413.746 78.1289 413.834 78.5176 414.01 78.7441C414.186 78.9668 414.402 79.0781 414.66 79.0781C414.926 79.0781 415.145 78.9648 415.316 78.7383C415.492 78.5117 415.58 78.0977 415.58 77.4961C415.58 76.9414 415.492 76.5527 415.316 76.3301C415.141 76.1035 414.922 75.9902 414.66 75.9902ZM414.666 84.3164L419.365 75.2637H420.221L415.539 84.3164H414.666ZM418.381 81.9844C418.381 81.3672 418.535 80.8457 418.844 80.4199C419.152 79.9902 419.602 79.7754 420.191 79.7754C420.73 79.7754 421.176 79.9688 421.527 80.3555C421.883 80.7383 422.061 81.3027 422.061 82.0488C422.061 82.7754 421.881 83.3359 421.521 83.7305C421.166 84.1211 420.725 84.3164 420.197 84.3164C419.678 84.3164 419.244 84.123 418.896 83.7363C418.553 83.3457 418.381 82.7617 418.381 81.9844ZM420.221 80.502C419.955 80.502 419.734 80.6152 419.559 80.8418C419.387 81.0684 419.301 81.4844 419.301 82.0898C419.301 82.6367 419.389 83.0234 419.564 83.25C419.74 83.4766 419.957 83.5898 420.215 83.5898C420.484 83.5898 420.705 83.4766 420.877 83.25C421.053 83.0234 421.141 82.6094 421.141 82.0078C421.141 81.4531 421.053 81.0645 420.877 80.8418C420.701 80.6152 420.482 80.502 420.221 80.502ZM424.287 86.5254H423.531C424.699 84.6504 425.283 82.7734 425.283 80.8945C425.283 80.1602 425.199 79.4316 425.031 78.709C424.898 78.123 424.713 77.5605 424.475 77.0215C424.322 76.6699 424.008 76.084 423.531 75.2637H424.287C425.021 76.2441 425.564 77.2285 425.916 78.2168C426.217 79.0684 426.367 79.959 426.367 80.8887C426.367 81.9434 426.164 82.9629 425.758 83.9473C425.355 84.9316 424.865 85.791 424.287 86.5254Z" fill="black"/>
<path d="M317 98H303C301.343 98 300 99.3431 300 101V115C300 116.657 301.343 118 303 118H317C318.657 118 320 116.657 320 115V101C320 99.3431 318.657 98 317 98Z" fill="url(#paint7_linear_55_138)"/>
<path d="M326.119 112V103.41H327.256V112H326.119ZM328.879 109.24L329.951 109.146C330.002 109.576 330.119 109.93 330.303 110.207C330.49 110.48 330.779 110.703 331.17 110.875C331.561 111.043 332 111.127 332.488 111.127C332.922 111.127 333.305 111.062 333.637 110.934C333.969 110.805 334.215 110.629 334.375 110.406C334.539 110.18 334.621 109.934 334.621 109.668C334.621 109.398 334.543 109.164 334.387 108.965C334.23 108.762 333.973 108.592 333.613 108.455C333.383 108.365 332.873 108.227 332.084 108.039C331.295 107.848 330.742 107.668 330.426 107.5C330.016 107.285 329.709 107.02 329.506 106.703C329.307 106.383 329.207 106.025 329.207 105.631C329.207 105.197 329.33 104.793 329.576 104.418C329.822 104.039 330.182 103.752 330.654 103.557C331.127 103.361 331.652 103.264 332.23 103.264C332.867 103.264 333.428 103.367 333.912 103.574C334.4 103.777 334.775 104.078 335.037 104.477C335.299 104.875 335.439 105.326 335.459 105.83L334.369 105.912C334.311 105.369 334.111 104.959 333.771 104.682C333.436 104.404 332.938 104.266 332.277 104.266C331.59 104.266 331.088 104.393 330.771 104.646C330.459 104.896 330.303 105.199 330.303 105.555C330.303 105.863 330.414 106.117 330.637 106.316C330.855 106.516 331.426 106.721 332.348 106.932C333.273 107.139 333.908 107.32 334.252 107.477C334.752 107.707 335.121 108 335.359 108.355C335.598 108.707 335.717 109.113 335.717 109.574C335.717 110.031 335.586 110.463 335.324 110.869C335.062 111.271 334.686 111.586 334.193 111.812C333.705 112.035 333.154 112.146 332.541 112.146C331.764 112.146 331.111 112.033 330.584 111.807C330.061 111.58 329.648 111.24 329.348 110.787C329.051 110.33 328.895 109.814 328.879 109.24ZM339.455 112V104.424H336.625V103.41H343.434V104.424H340.592V112H339.455ZM344.605 112V103.41H347.846C348.416 103.41 348.852 103.438 349.152 103.492C349.574 103.562 349.928 103.697 350.213 103.896C350.498 104.092 350.727 104.367 350.898 104.723C351.074 105.078 351.162 105.469 351.162 105.895C351.162 106.625 350.93 107.244 350.465 107.752C350 108.256 349.16 108.508 347.945 108.508H345.742V112H344.605ZM345.742 107.494H347.963C348.697 107.494 349.219 107.357 349.527 107.084C349.836 106.811 349.99 106.426 349.99 105.93C349.99 105.57 349.898 105.264 349.715 105.01C349.535 104.752 349.297 104.582 349 104.5C348.809 104.449 348.455 104.424 347.939 104.424H345.742V107.494ZM352.768 106.979V105.777H353.969V106.979H352.768ZM352.768 112V110.799H353.969V112H352.768ZM364.404 110.986V112H358.727C358.719 111.746 358.76 111.502 358.85 111.268C358.994 110.881 359.225 110.5 359.541 110.125C359.861 109.75 360.322 109.316 360.924 108.824C361.857 108.059 362.488 107.453 362.816 107.008C363.145 106.559 363.309 106.135 363.309 105.736C363.309 105.318 363.158 104.967 362.857 104.682C362.561 104.393 362.172 104.248 361.691 104.248C361.184 104.248 360.777 104.4 360.473 104.705C360.168 105.01 360.014 105.432 360.01 105.971L358.926 105.859C359 105.051 359.279 104.436 359.764 104.014C360.248 103.588 360.898 103.375 361.715 103.375C362.539 103.375 363.191 103.604 363.672 104.061C364.152 104.518 364.393 105.084 364.393 105.76C364.393 106.104 364.322 106.441 364.182 106.773C364.041 107.105 363.807 107.455 363.479 107.822C363.154 108.189 362.613 108.693 361.855 109.334C361.223 109.865 360.816 110.227 360.637 110.418C360.457 110.605 360.309 110.795 360.191 110.986H364.404ZM370.815 103.84H373.947V104.644H370.815V103.84ZM370.815 105.988H373.971V106.804H370.815V105.988ZM373.575 102.076H374.571V108.496H373.575V102.076ZM366.147 102.904H371.091V107.728H366.147V102.904ZM370.119 103.708H367.119V106.924H370.119V103.708ZM370.995 108.82C372.115 108.82 372.995 109 373.635 109.36C374.283 109.72 374.607 110.224 374.607 110.872C374.607 111.52 374.283 112.02 373.635 112.372C372.995 112.732 372.115 112.912 370.995 112.912C369.875 112.912 368.991 112.732 368.343 112.372C367.703 112.02 367.383 111.52 367.383 110.872C367.383 110.224 367.703 109.72 368.343 109.36C368.991 109 369.875 108.82 370.995 108.82ZM370.995 109.6C370.451 109.6 369.983 109.652 369.591 109.756C369.199 109.852 368.895 109.996 368.679 110.188C368.471 110.372 368.367 110.6 368.367 110.872C368.367 111.128 368.471 111.352 368.679 111.544C368.895 111.728 369.199 111.872 369.591 111.976C369.983 112.08 370.451 112.132 370.995 112.132C371.547 112.132 372.015 112.08 372.399 111.976C372.791 111.872 373.091 111.728 373.299 111.544C373.515 111.352 373.623 111.128 373.623 110.872C373.623 110.6 373.515 110.372 373.299 110.188C373.091 109.996 372.791 109.852 372.399 109.756C372.015 109.652 371.547 109.6 370.995 109.6ZM382.229 114.525C381.646 113.791 381.154 112.932 380.752 111.947C380.35 110.963 380.148 109.943 380.148 108.889C380.148 107.959 380.299 107.068 380.6 106.217C380.951 105.229 381.494 104.244 382.229 103.264H382.984C382.512 104.076 382.199 104.656 382.047 105.004C381.809 105.543 381.621 106.105 381.484 106.691C381.316 107.422 381.232 108.156 381.232 108.895C381.232 110.773 381.816 112.65 382.984 114.525H382.229ZM389.459 110.986V112H383.781C383.773 111.746 383.814 111.502 383.904 111.268C384.049 110.881 384.279 110.5 384.596 110.125C384.916 109.75 385.377 109.316 385.979 108.824C386.912 108.059 387.543 107.453 387.871 107.008C388.199 106.559 388.363 106.135 388.363 105.736C388.363 105.318 388.213 104.967 387.912 104.682C387.615 104.393 387.227 104.248 386.746 104.248C386.238 104.248 385.832 104.4 385.527 104.705C385.223 105.01 385.068 105.432 385.064 105.971L383.98 105.859C384.055 105.051 384.334 104.436 384.818 104.014C385.303 103.588 385.953 103.375 386.77 103.375C387.594 103.375 388.246 103.604 388.727 104.061C389.207 104.518 389.447 105.084 389.447 105.76C389.447 106.104 389.377 106.441 389.236 106.773C389.096 107.105 388.861 107.455 388.533 107.822C388.209 108.189 387.668 108.693 386.91 109.334C386.277 109.865 385.871 110.227 385.691 110.418C385.512 110.605 385.363 110.795 385.246 110.986H389.459ZM390.596 109.75L391.703 109.656C391.785 110.195 391.975 110.602 392.271 110.875C392.572 111.145 392.934 111.279 393.355 111.279C393.863 111.279 394.293 111.088 394.645 110.705C394.996 110.322 395.172 109.814 395.172 109.182C395.172 108.58 395.002 108.105 394.662 107.758C394.326 107.41 393.885 107.236 393.338 107.236C392.998 107.236 392.691 107.314 392.418 107.471C392.145 107.623 391.93 107.822 391.773 108.068L390.783 107.939L391.615 103.527H395.887V104.535H392.459L391.996 106.844C392.512 106.484 393.053 106.305 393.619 106.305C394.369 106.305 395.002 106.564 395.518 107.084C396.033 107.604 396.291 108.271 396.291 109.088C396.291 109.865 396.064 110.537 395.611 111.104C395.061 111.799 394.309 112.146 393.355 112.146C392.574 112.146 391.936 111.928 391.439 111.49C390.947 111.053 390.666 110.473 390.596 109.75ZM397.867 112V110.799H399.068V112H397.867ZM400.615 107.764C400.615 106.748 400.719 105.932 400.926 105.314C401.137 104.693 401.447 104.215 401.857 103.879C402.271 103.543 402.791 103.375 403.416 103.375C403.877 103.375 404.281 103.469 404.629 103.656C404.977 103.84 405.264 104.107 405.49 104.459C405.717 104.807 405.895 105.232 406.023 105.736C406.152 106.236 406.217 106.912 406.217 107.764C406.217 108.771 406.113 109.586 405.906 110.207C405.699 110.824 405.389 111.303 404.975 111.643C404.564 111.979 404.045 112.146 403.416 112.146C402.588 112.146 401.938 111.85 401.465 111.256C400.898 110.541 400.615 109.377 400.615 107.764ZM401.699 107.764C401.699 109.174 401.863 110.113 402.191 110.582C402.523 111.047 402.932 111.279 403.416 111.279C403.9 111.279 404.307 111.045 404.635 110.576C404.967 110.107 405.133 109.17 405.133 107.764C405.133 106.35 404.967 105.41 404.635 104.945C404.307 104.48 403.896 104.248 403.404 104.248C402.92 104.248 402.533 104.453 402.244 104.863C401.881 105.387 401.699 106.354 401.699 107.764ZM407.494 105.473C407.494 104.859 407.648 104.338 407.957 103.908C408.266 103.479 408.713 103.264 409.299 103.264C409.838 103.264 410.283 103.457 410.635 103.844C410.99 104.227 411.168 104.791 411.168 105.537C411.168 106.264 410.988 106.824 410.629 107.219C410.273 107.609 409.834 107.805 409.311 107.805C408.791 107.805 408.357 107.611 408.01 107.225C407.666 106.838 407.494 106.254 407.494 105.473ZM409.328 103.99C409.066 103.99 408.848 104.104 408.672 104.33C408.5 104.557 408.414 104.973 408.414 105.578C408.414 106.129 408.502 106.518 408.678 106.744C408.854 106.967 409.07 107.078 409.328 107.078C409.594 107.078 409.812 106.965 409.984 106.738C410.16 106.512 410.248 106.098 410.248 105.496C410.248 104.941 410.16 104.553 409.984 104.33C409.809 104.104 409.59 103.99 409.328 103.99ZM409.334 112.316L414.033 103.264H414.889L410.207 112.316H409.334ZM413.049 109.984C413.049 109.367 413.203 108.846 413.512 108.42C413.82 107.99 414.27 107.775 414.859 107.775C415.398 107.775 415.844 107.969 416.195 108.355C416.551 108.738 416.729 109.303 416.729 110.049C416.729 110.775 416.549 111.336 416.189 111.73C415.834 112.121 415.393 112.316 414.865 112.316C414.346 112.316 413.912 112.123 413.564 111.736C413.221 111.346 413.049 110.762 413.049 109.984ZM414.889 108.502C414.623 108.502 414.402 108.615 414.227 108.842C414.055 109.068 413.969 109.484 413.969 110.09C413.969 110.637 414.057 111.023 414.232 111.25C414.408 111.477 414.625 111.59 414.883 111.59C415.152 111.59 415.373 111.477 415.545 111.25C415.721 111.023 415.809 110.609 415.809 110.008C415.809 109.453 415.721 109.064 415.545 108.842C415.369 108.615 415.15 108.502 414.889 108.502ZM418.955 114.525H418.199C419.367 112.65 419.951 110.773 419.951 108.895C419.951 108.16 419.867 107.432 419.699 106.709C419.566 106.123 419.381 105.561 419.143 105.021C418.99 104.67 418.676 104.084 418.199 103.264H418.955C419.689 104.244 420.232 105.229 420.584 106.217C420.885 107.068 421.035 107.959 421.035 108.889C421.035 109.943 420.832 110.963 420.426 111.947C420.023 112.932 419.533 113.791 418.955 114.525Z" fill="black"/>
<path d="M317 126H303C301.343 126 300 127.343 300 129V143C300 144.657 301.343 146 303 146H317C318.657 146 320 144.657 320 143V129C320 127.343 318.657 126 317 126Z" fill="url(#paint8_linear_55_138)"/>
<path d="M325.949 140V131.41H332.16V132.424H327.086V135.055H331.838V136.062H327.086V138.986H332.359V140H325.949ZM333.918 140V131.41H335.084L339.596 138.154V131.41H340.686V140H339.52L335.008 133.25V140H333.918ZM342.66 140V131.41H348.455V132.424H343.797V135.084H347.828V136.098H343.797V140H342.66ZM349.357 137.562L350.383 137.422C350.41 138.078 350.533 138.527 350.752 138.77C350.971 139.012 351.273 139.133 351.66 139.133C351.945 139.133 352.191 139.068 352.398 138.939C352.605 138.807 352.748 138.629 352.826 138.406C352.904 138.18 352.943 137.82 352.943 137.328V131.41H354.08V137.264C354.08 137.982 353.992 138.539 353.816 138.934C353.645 139.328 353.369 139.629 352.99 139.836C352.615 140.043 352.174 140.146 351.666 140.146C350.912 140.146 350.334 139.93 349.932 139.496C349.533 139.062 349.342 138.418 349.357 137.562ZM356.096 134.979V133.777H357.297V134.979H356.096ZM356.096 140V138.799H357.297V140H356.096ZM366.162 140H365.107V133.279C364.854 133.521 364.52 133.764 364.105 134.006C363.695 134.248 363.326 134.43 362.998 134.551V133.531C363.588 133.254 364.104 132.918 364.545 132.523C364.986 132.129 365.299 131.746 365.482 131.375H366.162V140ZM374.143 131.84H377.275V132.644H374.143V131.84ZM374.143 133.988H377.299V134.804H374.143V133.988ZM376.903 130.076H377.899V136.496H376.903V130.076ZM369.475 130.904H374.419V135.728H369.475V130.904ZM373.447 131.708H370.447V134.924H373.447V131.708ZM374.323 136.82C375.443 136.82 376.323 137 376.963 137.36C377.611 137.72 377.935 138.224 377.935 138.872C377.935 139.52 377.611 140.02 376.963 140.372C376.323 140.732 375.443 140.912 374.323 140.912C373.203 140.912 372.319 140.732 371.671 140.372C371.031 140.02 370.711 139.52 370.711 138.872C370.711 138.224 371.031 137.72 371.671 137.36C372.319 137 373.203 136.82 374.323 136.82ZM374.323 137.6C373.779 137.6 373.311 137.652 372.919 137.756C372.527 137.852 372.223 137.996 372.007 138.188C371.799 138.372 371.695 138.6 371.695 138.872C371.695 139.128 371.799 139.352 372.007 139.544C372.223 139.728 372.527 139.872 372.919 139.976C373.311 140.08 373.779 140.132 374.323 140.132C374.875 140.132 375.343 140.08 375.727 139.976C376.119 139.872 376.419 139.728 376.627 139.544C376.843 139.352 376.951 139.128 376.951 138.872C376.951 138.6 376.843 138.372 376.627 138.188C376.419 137.996 376.119 137.852 375.727 137.756C375.343 137.652 374.875 137.6 374.323 137.6ZM385.557 142.525C384.975 141.791 384.482 140.932 384.08 139.947C383.678 138.963 383.477 137.943 383.477 136.889C383.477 135.959 383.627 135.068 383.928 134.217C384.279 133.229 384.822 132.244 385.557 131.264H386.312C385.84 132.076 385.527 132.656 385.375 133.004C385.137 133.543 384.949 134.105 384.812 134.691C384.645 135.422 384.561 136.156 384.561 136.895C384.561 138.773 385.145 140.65 386.312 142.525H385.557ZM391.217 140H390.162V133.279C389.908 133.521 389.574 133.764 389.16 134.006C388.75 134.248 388.381 134.43 388.053 134.551V133.531C388.643 133.254 389.158 132.918 389.6 132.523C390.041 132.129 390.354 131.746 390.537 131.375H391.217V140ZM399.467 138.986V140H393.789C393.781 139.746 393.822 139.502 393.912 139.268C394.057 138.881 394.287 138.5 394.604 138.125C394.924 137.75 395.385 137.316 395.986 136.824C396.92 136.059 397.551 135.453 397.879 135.008C398.207 134.559 398.371 134.135 398.371 133.736C398.371 133.318 398.221 132.967 397.92 132.682C397.623 132.393 397.234 132.248 396.754 132.248C396.246 132.248 395.84 132.4 395.535 132.705C395.23 133.01 395.076 133.432 395.072 133.971L393.988 133.859C394.062 133.051 394.342 132.436 394.826 132.014C395.311 131.588 395.961 131.375 396.777 131.375C397.602 131.375 398.254 131.604 398.734 132.061C399.215 132.518 399.455 133.084 399.455 133.76C399.455 134.104 399.385 134.441 399.244 134.773C399.104 135.105 398.869 135.455 398.541 135.822C398.217 136.189 397.676 136.693 396.918 137.334C396.285 137.865 395.879 138.227 395.699 138.418C395.52 138.605 395.371 138.795 395.254 138.986H399.467ZM401.195 140V138.799H402.396V140H401.195ZM403.943 137.75L405.051 137.656C405.133 138.195 405.322 138.602 405.619 138.875C405.92 139.145 406.281 139.279 406.703 139.279C407.211 139.279 407.641 139.088 407.992 138.705C408.344 138.322 408.52 137.814 408.52 137.182C408.52 136.58 408.35 136.105 408.01 135.758C407.674 135.41 407.232 135.236 406.686 135.236C406.346 135.236 406.039 135.314 405.766 135.471C405.492 135.623 405.277 135.822 405.121 136.068L404.131 135.939L404.963 131.527H409.234V132.535H405.807L405.344 134.844C405.859 134.484 406.4 134.305 406.967 134.305C407.717 134.305 408.35 134.564 408.865 135.084C409.381 135.604 409.639 136.271 409.639 137.088C409.639 137.865 409.412 138.537 408.959 139.104C408.408 139.799 407.656 140.146 406.703 140.146C405.922 140.146 405.283 139.928 404.787 139.49C404.295 139.053 404.014 138.473 403.943 137.75ZM410.822 133.473C410.822 132.859 410.977 132.338 411.285 131.908C411.594 131.479 412.041 131.264 412.627 131.264C413.166 131.264 413.611 131.457 413.963 131.844C414.318 132.227 414.496 132.791 414.496 133.537C414.496 134.264 414.316 134.824 413.957 135.219C413.602 135.609 413.162 135.805 412.639 135.805C412.119 135.805 411.686 135.611 411.338 135.225C410.994 134.838 410.822 134.254 410.822 133.473ZM412.656 131.99C412.395 131.99 412.176 132.104 412 132.33C411.828 132.557 411.742 132.973 411.742 133.578C411.742 134.129 411.83 134.518 412.006 134.744C412.182 134.967 412.398 135.078 412.656 135.078C412.922 135.078 413.141 134.965 413.312 134.738C413.488 134.512 413.576 134.098 413.576 133.496C413.576 132.941 413.488 132.553 413.312 132.33C413.137 132.104 412.918 131.99 412.656 131.99ZM412.662 140.316L417.361 131.264H418.217L413.535 140.316H412.662ZM416.377 137.984C416.377 137.367 416.531 136.846 416.84 136.42C417.148 135.99 417.598 135.775 418.188 135.775C418.727 135.775 419.172 135.969 419.523 136.355C419.879 136.738 420.057 137.303 420.057 138.049C420.057 138.775 419.877 139.336 419.518 139.73C419.162 140.121 418.721 140.316 418.193 140.316C417.674 140.316 417.24 140.123 416.893 139.736C416.549 139.346 416.377 138.762 416.377 137.984ZM418.217 136.502C417.951 136.502 417.73 136.615 417.555 136.842C417.383 137.068 417.297 137.484 417.297 138.09C417.297 138.637 417.385 139.023 417.561 139.25C417.736 139.477 417.953 139.59 418.211 139.59C418.48 139.59 418.701 139.477 418.873 139.25C419.049 139.023 419.137 138.609 419.137 138.008C419.137 137.453 419.049 137.064 418.873 136.842C418.697 136.615 418.479 136.502 418.217 136.502ZM422.283 142.525H421.527C422.695 140.65 423.279 138.773 423.279 136.895C423.279 136.16 423.195 135.432 423.027 134.709C422.895 134.123 422.709 133.561 422.471 133.021C422.318 132.67 422.004 132.084 421.527 131.264H422.283C423.018 132.244 423.561 133.229 423.912 134.217C424.213 135.068 424.363 135.959 424.363 136.889C424.363 137.943 424.16 138.963 423.754 139.947C423.352 140.932 422.861 141.791 422.283 142.525Z" fill="black"/>
<path d="M317 154H303C301.343 154 300 155.343 300 157V171C300 172.657 301.343 174 303 174H317C318.657 174 320 172.657 320 171V157C320 155.343 318.657 154 317 154Z" fill="url(#paint9_linear_55_138)"/>
<path d="M326.119 168V159.41H327.256V168H326.119ZM329.254 168V159.41H330.42L334.932 166.154V159.41H336.021V168H334.855L330.344 161.25V168H329.254ZM337.996 168V159.41H343.791V160.424H339.133V163.084H343.164V164.098H339.133V168H337.996ZM344.693 165.562L345.719 165.422C345.746 166.078 345.869 166.527 346.088 166.77C346.307 167.012 346.609 167.133 346.996 167.133C347.281 167.133 347.527 167.068 347.734 166.939C347.941 166.807 348.084 166.629 348.162 166.406C348.24 166.18 348.279 165.82 348.279 165.328V159.41H349.416V165.264C349.416 165.982 349.328 166.539 349.152 166.934C348.98 167.328 348.705 167.629 348.326 167.836C347.951 168.043 347.51 168.146 347.002 168.146C346.248 168.146 345.67 167.93 345.268 167.496C344.869 167.062 344.678 166.418 344.693 165.562ZM351.432 162.979V161.777H352.633V162.979H351.432ZM351.432 168V166.799H352.633V168H351.432ZM361.498 168H360.443V161.279C360.189 161.521 359.855 161.764 359.441 162.006C359.031 162.248 358.662 162.43 358.334 162.551V161.531C358.924 161.254 359.439 160.918 359.881 160.523C360.322 160.129 360.635 159.746 360.818 159.375H361.498V168ZM369.479 159.84H372.611V160.644H369.479V159.84ZM369.479 161.988H372.635V162.804H369.479V161.988ZM372.239 158.076H373.235V164.496H372.239V158.076ZM364.811 158.904H369.755V163.728H364.811V158.904ZM368.783 159.708H365.783V162.924H368.783V159.708ZM369.659 164.82C370.779 164.82 371.659 165 372.299 165.36C372.947 165.72 373.271 166.224 373.271 166.872C373.271 167.52 372.947 168.02 372.299 168.372C371.659 168.732 370.779 168.912 369.659 168.912C368.539 168.912 367.655 168.732 367.007 168.372C366.367 168.02 366.047 167.52 366.047 166.872C366.047 166.224 366.367 165.72 367.007 165.36C367.655 165 368.539 164.82 369.659 164.82ZM369.659 165.6C369.115 165.6 368.647 165.652 368.255 165.756C367.863 165.852 367.559 165.996 367.343 166.188C367.135 166.372 367.031 166.6 367.031 166.872C367.031 167.128 367.135 167.352 367.343 167.544C367.559 167.728 367.863 167.872 368.255 167.976C368.647 168.08 369.115 168.132 369.659 168.132C370.211 168.132 370.679 168.08 371.063 167.976C371.455 167.872 371.755 167.728 371.963 167.544C372.179 167.352 372.287 167.128 372.287 166.872C372.287 166.6 372.179 166.372 371.963 166.188C371.755 165.996 371.455 165.852 371.063 165.756C370.679 165.652 370.211 165.6 369.659 165.6ZM380.893 170.525C380.311 169.791 379.818 168.932 379.416 167.947C379.014 166.963 378.812 165.943 378.812 164.889C378.812 163.959 378.963 163.068 379.264 162.217C379.615 161.229 380.158 160.244 380.893 159.264H381.648C381.176 160.076 380.863 160.656 380.711 161.004C380.473 161.543 380.285 162.105 380.148 162.691C379.98 163.422 379.896 164.156 379.896 164.895C379.896 166.773 380.48 168.65 381.648 170.525H380.893ZM386.553 168H385.498V161.279C385.244 161.521 384.91 161.764 384.496 162.006C384.086 162.248 383.717 162.43 383.389 162.551V161.531C383.979 161.254 384.494 160.918 384.936 160.523C385.377 160.129 385.689 159.746 385.873 159.375H386.553V168ZM394.803 166.986V168H389.125C389.117 167.746 389.158 167.502 389.248 167.268C389.393 166.881 389.623 166.5 389.939 166.125C390.26 165.75 390.721 165.316 391.322 164.824C392.256 164.059 392.887 163.453 393.215 163.008C393.543 162.559 393.707 162.135 393.707 161.736C393.707 161.318 393.557 160.967 393.256 160.682C392.959 160.393 392.57 160.248 392.09 160.248C391.582 160.248 391.176 160.4 390.871 160.705C390.566 161.01 390.412 161.432 390.408 161.971L389.324 161.859C389.398 161.051 389.678 160.436 390.162 160.014C390.646 159.588 391.297 159.375 392.113 159.375C392.938 159.375 393.59 159.604 394.07 160.061C394.551 160.518 394.791 161.084 394.791 161.76C394.791 162.104 394.721 162.441 394.58 162.773C394.439 163.105 394.205 163.455 393.877 163.822C393.553 164.189 393.012 164.693 392.254 165.334C391.621 165.865 391.215 166.227 391.035 166.418C390.855 166.605 390.707 166.795 390.59 166.986H394.803ZM396.531 168V166.799H397.732V168H396.531ZM399.279 165.75L400.387 165.656C400.469 166.195 400.658 166.602 400.955 166.875C401.256 167.145 401.617 167.279 402.039 167.279C402.547 167.279 402.977 167.088 403.328 166.705C403.68 166.322 403.855 165.814 403.855 165.182C403.855 164.58 403.686 164.105 403.346 163.758C403.01 163.41 402.568 163.236 402.021 163.236C401.682 163.236 401.375 163.314 401.102 163.471C400.828 163.623 400.613 163.822 400.457 164.068L399.467 163.939L400.299 159.527H404.57V160.535H401.143L400.68 162.844C401.195 162.484 401.736 162.305 402.303 162.305C403.053 162.305 403.686 162.564 404.201 163.084C404.717 163.604 404.975 164.271 404.975 165.088C404.975 165.865 404.748 166.537 404.295 167.104C403.744 167.799 402.992 168.146 402.039 168.146C401.258 168.146 400.619 167.928 400.123 167.49C399.631 167.053 399.35 166.473 399.279 165.75ZM406.158 161.473C406.158 160.859 406.312 160.338 406.621 159.908C406.93 159.479 407.377 159.264 407.963 159.264C408.502 159.264 408.947 159.457 409.299 159.844C409.654 160.227 409.832 160.791 409.832 161.537C409.832 162.264 409.652 162.824 409.293 163.219C408.938 163.609 408.498 163.805 407.975 163.805C407.455 163.805 407.021 163.611 406.674 163.225C406.33 162.838 406.158 162.254 406.158 161.473ZM407.992 159.99C407.73 159.99 407.512 160.104 407.336 160.33C407.164 160.557 407.078 160.973 407.078 161.578C407.078 162.129 407.166 162.518 407.342 162.744C407.518 162.967 407.734 163.078 407.992 163.078C408.258 163.078 408.477 162.965 408.648 162.738C408.824 162.512 408.912 162.098 408.912 161.496C408.912 160.941 408.824 160.553 408.648 160.33C408.473 160.104 408.254 159.99 407.992 159.99ZM407.998 168.316L412.697 159.264H413.553L408.871 168.316H407.998ZM411.713 165.984C411.713 165.367 411.867 164.846 412.176 164.42C412.484 163.99 412.934 163.775 413.523 163.775C414.062 163.775 414.508 163.969 414.859 164.355C415.215 164.738 415.393 165.303 415.393 166.049C415.393 166.775 415.213 167.336 414.854 167.73C414.498 168.121 414.057 168.316 413.529 168.316C413.01 168.316 412.576 168.123 412.229 167.736C411.885 167.346 411.713 166.762 411.713 165.984ZM413.553 164.502C413.287 164.502 413.066 164.615 412.891 164.842C412.719 165.068 412.633 165.484 412.633 166.09C412.633 166.637 412.721 167.023 412.896 167.25C413.072 167.477 413.289 167.59 413.547 167.59C413.816 167.59 414.037 167.477 414.209 167.25C414.385 167.023 414.473 166.609 414.473 166.008C414.473 165.453 414.385 165.064 414.209 164.842C414.033 164.615 413.814 164.502 413.553 164.502ZM417.619 170.525H416.863C418.031 168.65 418.615 166.773 418.615 164.895C418.615 164.16 418.531 163.432 418.363 162.709C418.23 162.123 418.045 161.561 417.807 161.021C417.654 160.67 417.34 160.084 416.863 159.264H417.619C418.354 160.244 418.896 161.229 419.248 162.217C419.549 163.068 419.699 163.959 419.699 164.889C419.699 165.943 419.496 166.963 419.09 167.947C418.688 168.932 418.197 169.791 417.619 170.525Z" fill="black"/>
<path d="M317 182H303C301.343 182 300 183.343 300 185V199C300 200.657 301.343 202 303 202H317C318.657 202 320 200.657 320 199V185C320 183.343 318.657 182 317 182Z" fill="url(#paint10_linear_55_138)"/>
<path d="M326.119 196V187.41H327.256V196H326.119ZM329.254 196V187.41H330.42L334.932 194.154V187.41H336.021V196H334.855L330.344 189.25V196H329.254ZM340.123 196V188.424H337.293V187.41H344.102V188.424H341.26V196H340.123ZM344.693 193.562L345.719 193.422C345.746 194.078 345.869 194.527 346.088 194.77C346.307 195.012 346.609 195.133 346.996 195.133C347.281 195.133 347.527 195.068 347.734 194.939C347.941 194.807 348.084 194.629 348.162 194.406C348.24 194.18 348.279 193.82 348.279 193.328V187.41H349.416V193.264C349.416 193.982 349.328 194.539 349.152 194.934C348.98 195.328 348.705 195.629 348.326 195.836C347.951 196.043 347.51 196.146 347.002 196.146C346.248 196.146 345.67 195.93 345.268 195.496C344.869 195.062 344.678 194.418 344.693 193.562ZM351.432 190.979V189.777H352.633V190.979H351.432ZM351.432 196V194.799H352.633V196H351.432ZM361.498 196H360.443V189.279C360.189 189.521 359.855 189.764 359.441 190.006C359.031 190.248 358.662 190.43 358.334 190.551V189.531C358.924 189.254 359.439 188.918 359.881 188.523C360.322 188.129 360.635 187.746 360.818 187.375H361.498V196ZM369.479 187.84H372.611V188.644H369.479V187.84ZM369.479 189.988H372.635V190.804H369.479V189.988ZM372.239 186.076H373.235V192.496H372.239V186.076ZM364.811 186.904H369.755V191.728H364.811V186.904ZM368.783 187.708H365.783V190.924H368.783V187.708ZM369.659 192.82C370.779 192.82 371.659 193 372.299 193.36C372.947 193.72 373.271 194.224 373.271 194.872C373.271 195.52 372.947 196.02 372.299 196.372C371.659 196.732 370.779 196.912 369.659 196.912C368.539 196.912 367.655 196.732 367.007 196.372C366.367 196.02 366.047 195.52 366.047 194.872C366.047 194.224 366.367 193.72 367.007 193.36C367.655 193 368.539 192.82 369.659 192.82ZM369.659 193.6C369.115 193.6 368.647 193.652 368.255 193.756C367.863 193.852 367.559 193.996 367.343 194.188C367.135 194.372 367.031 194.6 367.031 194.872C367.031 195.128 367.135 195.352 367.343 195.544C367.559 195.728 367.863 195.872 368.255 195.976C368.647 196.08 369.115 196.132 369.659 196.132C370.211 196.132 370.679 196.08 371.063 195.976C371.455 195.872 371.755 195.728 371.963 195.544C372.179 195.352 372.287 195.128 372.287 194.872C372.287 194.6 372.179 194.372 371.963 194.188C371.755 193.996 371.455 193.852 371.063 193.756C370.679 193.652 370.211 193.6 369.659 193.6ZM380.893 198.525C380.311 197.791 379.818 196.932 379.416 195.947C379.014 194.963 378.812 193.943 378.812 192.889C378.812 191.959 378.963 191.068 379.264 190.217C379.615 189.229 380.158 188.244 380.893 187.264H381.648C381.176 188.076 380.863 188.656 380.711 189.004C380.473 189.543 380.285 190.105 380.148 190.691C379.98 191.422 379.896 192.156 379.896 192.895C379.896 194.773 380.48 196.65 381.648 198.525H380.893ZM386.553 196H385.498V189.279C385.244 189.521 384.91 189.764 384.496 190.006C384.086 190.248 383.717 190.43 383.389 190.551V189.531C383.979 189.254 384.494 188.918 384.936 188.523C385.377 188.129 385.689 187.746 385.873 187.375H386.553V196ZM394.803 194.986V196H389.125C389.117 195.746 389.158 195.502 389.248 195.268C389.393 194.881 389.623 194.5 389.939 194.125C390.26 193.75 390.721 193.316 391.322 192.824C392.256 192.059 392.887 191.453 393.215 191.008C393.543 190.559 393.707 190.135 393.707 189.736C393.707 189.318 393.557 188.967 393.256 188.682C392.959 188.393 392.57 188.248 392.09 188.248C391.582 188.248 391.176 188.4 390.871 188.705C390.566 189.01 390.412 189.432 390.408 189.971L389.324 189.859C389.398 189.051 389.678 188.436 390.162 188.014C390.646 187.588 391.297 187.375 392.113 187.375C392.938 187.375 393.59 187.604 394.07 188.061C394.551 188.518 394.791 189.084 394.791 189.76C394.791 190.104 394.721 190.441 394.58 190.773C394.439 191.105 394.205 191.455 393.877 191.822C393.553 192.189 393.012 192.693 392.254 193.334C391.621 193.865 391.215 194.227 391.035 194.418C390.855 194.605 390.707 194.795 390.59 194.986H394.803ZM396.531 196V194.799H397.732V196H396.531ZM399.279 193.75L400.387 193.656C400.469 194.195 400.658 194.602 400.955 194.875C401.256 195.145 401.617 195.279 402.039 195.279C402.547 195.279 402.977 195.088 403.328 194.705C403.68 194.322 403.855 193.814 403.855 193.182C403.855 192.58 403.686 192.105 403.346 191.758C403.01 191.41 402.568 191.236 402.021 191.236C401.682 191.236 401.375 191.314 401.102 191.471C400.828 191.623 400.613 191.822 400.457 192.068L399.467 191.939L400.299 187.527H404.57V188.535H401.143L400.68 190.844C401.195 190.484 401.736 190.305 402.303 190.305C403.053 190.305 403.686 190.564 404.201 191.084C404.717 191.604 404.975 192.271 404.975 193.088C404.975 193.865 404.748 194.537 404.295 195.104C403.744 195.799 402.992 196.146 402.039 196.146C401.258 196.146 400.619 195.928 400.123 195.49C399.631 195.053 399.35 194.473 399.279 193.75ZM406.158 189.473C406.158 188.859 406.312 188.338 406.621 187.908C406.93 187.479 407.377 187.264 407.963 187.264C408.502 187.264 408.947 187.457 409.299 187.844C409.654 188.227 409.832 188.791 409.832 189.537C409.832 190.264 409.652 190.824 409.293 191.219C408.938 191.609 408.498 191.805 407.975 191.805C407.455 191.805 407.021 191.611 406.674 191.225C406.33 190.838 406.158 190.254 406.158 189.473ZM407.992 187.99C407.73 187.99 407.512 188.104 407.336 188.33C407.164 188.557 407.078 188.973 407.078 189.578C407.078 190.129 407.166 190.518 407.342 190.744C407.518 190.967 407.734 191.078 407.992 191.078C408.258 191.078 408.477 190.965 408.648 190.738C408.824 190.512 408.912 190.098 408.912 189.496C408.912 188.941 408.824 188.553 408.648 188.33C408.473 188.104 408.254 187.99 407.992 187.99ZM407.998 196.316L412.697 187.264H413.553L408.871 196.316H407.998ZM411.713 193.984C411.713 193.367 411.867 192.846 412.176 192.42C412.484 191.99 412.934 191.775 413.523 191.775C414.062 191.775 414.508 191.969 414.859 192.355C415.215 192.738 415.393 193.303 415.393 194.049C415.393 194.775 415.213 195.336 414.854 195.73C414.498 196.121 414.057 196.316 413.529 196.316C413.01 196.316 412.576 196.123 412.229 195.736C411.885 195.346 411.713 194.762 411.713 193.984ZM413.553 192.502C413.287 192.502 413.066 192.615 412.891 192.842C412.719 193.068 412.633 193.484 412.633 194.09C412.633 194.637 412.721 195.023 412.896 195.25C413.072 195.477 413.289 195.59 413.547 195.59C413.816 195.59 414.037 195.477 414.209 195.25C414.385 195.023 414.473 194.609 414.473 194.008C414.473 193.453 414.385 193.064 414.209 192.842C414.033 192.615 413.814 192.502 413.553 192.502ZM417.619 198.525H416.863C418.031 196.65 418.615 194.773 418.615 192.895C418.615 192.16 418.531 191.432 418.363 190.709C418.23 190.123 418.045 189.561 417.807 189.021C417.654 188.67 417.34 188.084 416.863 187.264H417.619C418.354 188.244 418.896 189.229 419.248 190.217C419.549 191.068 419.699 191.959 419.699 192.889C419.699 193.943 419.496 194.963 419.09 195.947C418.688 196.932 418.197 197.791 417.619 198.525Z" fill="black"/>
<path d="M317 210H303C301.343 210 300 211.343 300 213V227C300 228.657 301.343 230 303 230H317C318.657 230 320 228.657 320 227V213C320 211.343 318.657 210 317 210Z" fill="url(#paint11_linear_55_138)"/>
<path d="M326.119 224V215.41H327.256V224H326.119ZM329.254 224V215.41H330.42L334.932 222.154V215.41H336.021V224H334.855L330.344 217.25V224H329.254ZM340.123 224V216.424H337.293V215.41H344.102V216.424H341.26V224H340.123ZM345.273 224V215.41H348.514C349.084 215.41 349.52 215.438 349.82 215.492C350.242 215.562 350.596 215.697 350.881 215.896C351.166 216.092 351.395 216.367 351.566 216.723C351.742 217.078 351.83 217.469 351.83 217.895C351.83 218.625 351.598 219.244 351.133 219.752C350.668 220.256 349.828 220.508 348.613 220.508H346.41V224H345.273ZM346.41 219.494H348.631C349.365 219.494 349.887 219.357 350.195 219.084C350.504 218.811 350.658 218.426 350.658 217.93C350.658 217.57 350.566 217.264 350.383 217.01C350.203 216.752 349.965 216.582 349.668 216.5C349.477 216.449 349.123 216.424 348.607 216.424H346.41V219.494ZM353.436 218.979V217.777H354.637V218.979H353.436ZM353.436 224V222.799H354.637V224H353.436ZM363.502 224H362.447V217.279C362.193 217.521 361.859 217.764 361.445 218.006C361.035 218.248 360.666 218.43 360.338 218.551V217.531C360.928 217.254 361.443 216.918 361.885 216.523C362.326 216.129 362.639 215.746 362.822 215.375H363.502V224ZM371.483 215.84H374.615V216.644H371.483V215.84ZM371.483 217.988H374.639V218.804H371.483V217.988ZM374.243 214.076H375.239V220.496H374.243V214.076ZM366.815 214.904H371.759V219.728H366.815V214.904ZM370.787 215.708H367.787V218.924H370.787V215.708ZM371.663 220.82C372.783 220.82 373.663 221 374.303 221.36C374.951 221.72 375.275 222.224 375.275 222.872C375.275 223.52 374.951 224.02 374.303 224.372C373.663 224.732 372.783 224.912 371.663 224.912C370.543 224.912 369.659 224.732 369.011 224.372C368.371 224.02 368.051 223.52 368.051 222.872C368.051 222.224 368.371 221.72 369.011 221.36C369.659 221 370.543 220.82 371.663 220.82ZM371.663 221.6C371.119 221.6 370.651 221.652 370.259 221.756C369.867 221.852 369.563 221.996 369.347 222.188C369.139 222.372 369.035 222.6 369.035 222.872C369.035 223.128 369.139 223.352 369.347 223.544C369.563 223.728 369.867 223.872 370.259 223.976C370.651 224.08 371.119 224.132 371.663 224.132C372.215 224.132 372.683 224.08 373.067 223.976C373.459 223.872 373.759 223.728 373.967 223.544C374.183 223.352 374.291 223.128 374.291 222.872C374.291 222.6 374.183 222.372 373.967 222.188C373.759 221.996 373.459 221.852 373.067 221.756C372.683 221.652 372.215 221.6 371.663 221.6ZM382.896 226.525C382.314 225.791 381.822 224.932 381.42 223.947C381.018 222.963 380.816 221.943 380.816 220.889C380.816 219.959 380.967 219.068 381.268 218.217C381.619 217.229 382.162 216.244 382.896 215.264H383.652C383.18 216.076 382.867 216.656 382.715 217.004C382.477 217.543 382.289 218.105 382.152 218.691C381.984 219.422 381.9 220.156 381.9 220.895C381.9 222.773 382.484 224.65 383.652 226.525H382.896ZM388.557 224H387.502V217.279C387.248 217.521 386.914 217.764 386.5 218.006C386.09 218.248 385.721 218.43 385.393 218.551V217.531C385.982 217.254 386.498 216.918 386.939 216.523C387.381 216.129 387.693 215.746 387.877 215.375H388.557V224ZM396.807 222.986V224H391.129C391.121 223.746 391.162 223.502 391.252 223.268C391.396 222.881 391.627 222.5 391.943 222.125C392.264 221.75 392.725 221.316 393.326 220.824C394.26 220.059 394.891 219.453 395.219 219.008C395.547 218.559 395.711 218.135 395.711 217.736C395.711 217.318 395.561 216.967 395.26 216.682C394.963 216.393 394.574 216.248 394.094 216.248C393.586 216.248 393.18 216.4 392.875 216.705C392.57 217.01 392.416 217.432 392.412 217.971L391.328 217.859C391.402 217.051 391.682 216.436 392.166 216.014C392.65 215.588 393.301 215.375 394.117 215.375C394.941 215.375 395.594 215.604 396.074 216.061C396.555 216.518 396.795 217.084 396.795 217.76C396.795 218.104 396.725 218.441 396.584 218.773C396.443 219.105 396.209 219.455 395.881 219.822C395.557 220.189 395.016 220.693 394.258 221.334C393.625 221.865 393.219 222.227 393.039 222.418C392.859 222.605 392.711 222.795 392.594 222.986H396.807ZM398.535 224V222.799H399.736V224H398.535ZM401.283 221.75L402.391 221.656C402.473 222.195 402.662 222.602 402.959 222.875C403.26 223.145 403.621 223.279 404.043 223.279C404.551 223.279 404.98 223.088 405.332 222.705C405.684 222.322 405.859 221.814 405.859 221.182C405.859 220.58 405.689 220.105 405.35 219.758C405.014 219.41 404.572 219.236 404.025 219.236C403.686 219.236 403.379 219.314 403.105 219.471C402.832 219.623 402.617 219.822 402.461 220.068L401.471 219.939L402.303 215.527H406.574V216.535H403.146L402.684 218.844C403.199 218.484 403.74 218.305 404.307 218.305C405.057 218.305 405.689 218.564 406.205 219.084C406.721 219.604 406.979 220.271 406.979 221.088C406.979 221.865 406.752 222.537 406.299 223.104C405.748 223.799 404.996 224.146 404.043 224.146C403.262 224.146 402.623 223.928 402.127 223.49C401.635 223.053 401.354 222.473 401.283 221.75ZM408.162 217.473C408.162 216.859 408.316 216.338 408.625 215.908C408.934 215.479 409.381 215.264 409.967 215.264C410.506 215.264 410.951 215.457 411.303 215.844C411.658 216.227 411.836 216.791 411.836 217.537C411.836 218.264 411.656 218.824 411.297 219.219C410.941 219.609 410.502 219.805 409.979 219.805C409.459 219.805 409.025 219.611 408.678 219.225C408.334 218.838 408.162 218.254 408.162 217.473ZM409.996 215.99C409.734 215.99 409.516 216.104 409.34 216.33C409.168 216.557 409.082 216.973 409.082 217.578C409.082 218.129 409.17 218.518 409.346 218.744C409.521 218.967 409.738 219.078 409.996 219.078C410.262 219.078 410.48 218.965 410.652 218.738C410.828 218.512 410.916 218.098 410.916 217.496C410.916 216.941 410.828 216.553 410.652 216.33C410.477 216.104 410.258 215.99 409.996 215.99ZM410.002 224.316L414.701 215.264H415.557L410.875 224.316H410.002ZM413.717 221.984C413.717 221.367 413.871 220.846 414.18 220.42C414.488 219.99 414.938 219.775 415.527 219.775C416.066 219.775 416.512 219.969 416.863 220.355C417.219 220.738 417.396 221.303 417.396 222.049C417.396 222.775 417.217 223.336 416.857 223.73C416.502 224.121 416.061 224.316 415.533 224.316C415.014 224.316 414.58 224.123 414.232 223.736C413.889 223.346 413.717 222.762 413.717 221.984ZM415.557 220.502C415.291 220.502 415.07 220.615 414.895 220.842C414.723 221.068 414.637 221.484 414.637 222.09C414.637 222.637 414.725 223.023 414.9 223.25C415.076 223.477 415.293 223.59 415.551 223.59C415.82 223.59 416.041 223.477 416.213 223.25C416.389 223.023 416.477 222.609 416.477 222.008C416.477 221.453 416.389 221.064 416.213 220.842C416.037 220.615 415.818 220.502 415.557 220.502ZM419.623 226.525H418.867C420.035 224.65 420.619 222.773 420.619 220.895C420.619 220.16 420.535 219.432 420.367 218.709C420.234 218.123 420.049 217.561 419.811 217.021C419.658 216.67 419.344 216.084 418.867 215.264H419.623C420.357 216.244 420.9 217.229 421.252 218.217C421.553 219.068 421.703 219.959 421.703 220.889C421.703 221.943 421.5 222.963 421.094 223.947C420.691 224.932 420.201 225.791 419.623 226.525Z" fill="black"/>
<path d="M42.8887 93V83.6943H44.7676V93H42.8887ZM46.583 93V83.6943H48.4111L52.2197 89.9087V83.6943H53.9653V93H52.0801L48.3286 86.9316V93H46.583ZM58.0532 93V85.2686H55.292V83.6943H62.687V85.2686H59.9321V93H58.0532ZM67.2637 83.6943H69.1362V89.585C69.1362 90.3551 69.0685 90.9476 68.9331 91.3623C68.7511 91.904 68.4211 92.3398 67.9429 92.6699C67.4647 92.9958 66.8341 93.1587 66.0513 93.1587C65.133 93.1587 64.4263 92.9027 63.9312 92.3906C63.436 91.8743 63.1864 91.119 63.1821 90.1245L64.9531 89.9214C64.9743 90.4546 65.0526 90.8312 65.188 91.0513C65.3911 91.3856 65.7 91.5527 66.1147 91.5527C66.5337 91.5527 66.8299 91.4342 67.0034 91.1973C67.1769 90.9561 67.2637 90.4588 67.2637 89.7056V83.6943Z" fill="white"/>
<path d="M191.889 93V83.6943H193.768V93H191.889ZM195.583 93V83.6943H197.411L201.22 89.9087V83.6943H202.965V93H201.08L197.329 86.9316V93H195.583ZM207.053 93V85.2686H204.292V83.6943H211.687V85.2686H208.932V93H207.053ZM212.906 93V83.6943H215.921C217.063 83.6943 217.808 83.7409 218.155 83.834C218.688 83.9736 219.135 84.2783 219.495 84.748C219.854 85.2135 220.034 85.8166 220.034 86.5571C220.034 87.1284 219.931 87.6087 219.723 87.998C219.516 88.3874 219.251 88.6942 218.93 88.9185C218.612 89.1385 218.289 89.2845 217.958 89.3564C217.51 89.4453 216.86 89.4897 216.01 89.4897H214.785V93H212.906ZM214.785 85.2686V87.9092H215.813C216.554 87.9092 217.049 87.8605 217.298 87.7632C217.548 87.6659 217.743 87.5135 217.882 87.3062C218.026 87.0988 218.098 86.8576 218.098 86.5825C218.098 86.244 217.999 85.9647 217.8 85.7446C217.601 85.5246 217.349 85.387 217.044 85.332C216.82 85.2897 216.369 85.2686 215.692 85.2686H214.785Z" fill="white"/>
<path d="M204.946 190V180.694H211.846V182.269H206.825V184.332H211.497V185.899H206.825V188.432H212.023V190H204.946ZM213.636 190V180.694H215.464L219.272 186.909V180.694H221.018V190H219.133L215.381 183.932V190H213.636ZM223.024 190V180.694H229.403V182.269H224.903V184.471H228.788V186.045H224.903V190H223.024ZM230.958 190V180.694H233.974C235.116 180.694 235.861 180.741 236.208 180.834C236.741 180.974 237.188 181.278 237.547 181.748C237.907 182.214 238.087 182.817 238.087 183.557C238.087 184.128 237.983 184.609 237.776 184.998C237.569 185.387 237.304 185.694 236.982 185.918C236.665 186.139 236.341 186.285 236.011 186.356C235.563 186.445 234.913 186.49 234.062 186.49H232.837V190H230.958ZM232.837 182.269V184.909H233.866C234.606 184.909 235.101 184.861 235.351 184.763C235.601 184.666 235.795 184.514 235.935 184.306C236.079 184.099 236.151 183.858 236.151 183.583C236.151 183.244 236.051 182.965 235.853 182.745C235.654 182.525 235.402 182.387 235.097 182.332C234.873 182.29 234.422 182.269 233.745 182.269H232.837Z" fill="white"/>
<path d="M28.8887 197V187.694H30.7676V197H28.8887ZM32.0879 193.972L33.916 193.794C34.026 194.408 34.2482 194.859 34.5825 195.146C34.9211 195.434 35.376 195.578 35.9473 195.578C36.5524 195.578 37.0073 195.451 37.312 195.197C37.6209 194.939 37.7754 194.639 37.7754 194.296C37.7754 194.076 37.7098 193.89 37.5786 193.737C37.4517 193.581 37.2274 193.445 36.9058 193.331C36.6857 193.255 36.1842 193.119 35.4014 192.925C34.3942 192.675 33.6875 192.368 33.2812 192.004C32.71 191.492 32.4243 190.868 32.4243 190.132C32.4243 189.658 32.5576 189.216 32.8242 188.805C33.0951 188.39 33.4823 188.075 33.9858 187.859C34.4937 187.644 35.1051 187.536 35.8203 187.536C36.9883 187.536 37.8664 187.792 38.4546 188.304C39.047 188.816 39.3581 189.499 39.3877 190.354L37.5088 190.437C37.4284 189.958 37.2549 189.616 36.9883 189.408C36.7259 189.197 36.3302 189.091 35.8013 189.091C35.2554 189.091 34.828 189.203 34.519 189.427C34.3201 189.571 34.2207 189.764 34.2207 190.005C34.2207 190.225 34.3138 190.413 34.5 190.57C34.737 190.769 35.3125 190.976 36.2266 191.192C37.1406 191.408 37.8156 191.632 38.2515 191.865C38.6916 192.093 39.0343 192.409 39.2798 192.811C39.5295 193.208 39.6543 193.701 39.6543 194.29C39.6543 194.823 39.5062 195.322 39.21 195.788C38.9137 196.253 38.4948 196.6 37.9531 196.829C37.4115 197.053 36.7365 197.165 35.9282 197.165C34.7518 197.165 33.8483 196.894 33.2178 196.353C32.5872 195.807 32.2106 195.013 32.0879 193.972ZM43.3296 197V189.269H40.5684V187.694H47.9634V189.269H45.2085V197H43.3296ZM49.1821 197V187.694H52.1973C53.3398 187.694 54.0846 187.741 54.4316 187.834C54.9648 187.974 55.4113 188.278 55.771 188.748C56.1307 189.214 56.3105 189.817 56.3105 190.557C56.3105 191.128 56.2069 191.609 55.9995 191.998C55.7922 192.387 55.5277 192.694 55.2061 192.918C54.8887 193.139 54.5649 193.285 54.2349 193.356C53.7863 193.445 53.1367 193.49 52.2861 193.49H51.061V197H49.1821ZM51.061 189.269V191.909H52.0894C52.8299 191.909 53.325 191.861 53.5747 191.763C53.8244 191.666 54.019 191.514 54.1587 191.306C54.3026 191.099 54.3745 190.858 54.3745 190.583C54.3745 190.244 54.2751 189.965 54.0762 189.745C53.8773 189.525 53.6255 189.387 53.3208 189.332C53.0965 189.29 52.6458 189.269 51.9688 189.269H51.061Z" fill="white"/>
<path d="M153.946 244V234.694H160.846V236.269H155.825V238.332H160.497V239.899H155.825V242.432H161.023V244H153.946ZM162.636 244V234.694H164.464L168.272 240.909V234.694H170.018V244H168.133L164.381 237.932V244H162.636ZM172.024 244V234.694H178.403V236.269H173.903V238.471H177.788V240.045H173.903V244H172.024ZM183.316 234.694H185.189V240.585C185.189 241.355 185.121 241.948 184.986 242.362C184.804 242.904 184.474 243.34 183.996 243.67C183.517 243.996 182.887 244.159 182.104 244.159C181.186 244.159 180.479 243.903 179.984 243.391C179.489 242.874 179.239 242.119 179.235 241.125L181.006 240.921C181.027 241.455 181.105 241.831 181.241 242.051C181.444 242.386 181.753 242.553 182.167 242.553C182.586 242.553 182.883 242.434 183.056 242.197C183.23 241.956 183.316 241.459 183.316 240.706V234.694Z" fill="white"/>
<path d="M82.8887 245V235.694H84.7676V245H82.8887ZM86.583 245V235.694H88.4111L92.2197 241.909V235.694H93.9653V245H92.0801L88.3286 238.932V245H86.583ZM95.9712 245V235.694H102.351V237.269H97.8501V239.471H101.735V241.045H97.8501V245H95.9712ZM107.264 235.694H109.136V241.585C109.136 242.355 109.069 242.948 108.933 243.362C108.751 243.904 108.421 244.34 107.943 244.67C107.465 244.996 106.834 245.159 106.051 245.159C105.133 245.159 104.426 244.903 103.931 244.391C103.436 243.874 103.186 243.119 103.182 242.125L104.953 241.921C104.974 242.455 105.053 242.831 105.188 243.051C105.391 243.386 105.7 243.553 106.115 243.553C106.534 243.553 106.83 243.434 107.003 243.197C107.177 242.956 107.264 242.459 107.264 241.706V235.694Z" fill="white"/>
<defs>
<linearGradient id="paint0_linear_55_138" x1="195" y1="150" x2="195" y2="240.439" gradientUnits="userSpaceOnUse">
<stop stop-color="#76D5FC"/>
<stop offset="1" stop-color="#6EC5EE"/>
</linearGradient>
<linearGradient id="paint1_linear_55_138" x1="176.693" y1="150" x2="176.693" y2="279.933" gradientUnits="userSpaceOnUse">
<stop stop-color="#F5EA6F"/>
<stop offset="1" stop-color="#D2D862"/>
</linearGradient>
<linearGradient id="paint2_linear_55_138" x1="88.3838" y1="150" x2="88.3838" y2="280" gradientUnits="userSpaceOnUse">
<stop stop-color="#EC8934"/>
<stop offset="1" stop-color="#EA6A35"/>
</linearGradient>
<linearGradient id="paint3_linear_55_138" x1="65.1335" y1="150" x2="65.1335" y2="246.236" gradientUnits="userSpaceOnUse">
<stop stop-color="#85E5A7"/>
<stop offset="1" stop-color="#6CD8A0"/>
</linearGradient>
<linearGradient id="paint4_linear_55_138" x1="65" y1="20.0668" x2="65" y2="158.329" gradientUnits="userSpaceOnUse">
<stop stop-color="#BC9BE5"/>
<stop offset="1" stop-color="#9A72FF"/>
</linearGradient>
<linearGradient id="paint5_linear_55_138" x1="192.917" y1="20" x2="192.917" y2="150" gradientUnits="userSpaceOnUse">
<stop stop-color="#EB74EA"/>
<stop offset="1" stop-color="#D862D8"/>
</linearGradient>
<linearGradient id="paint6_linear_55_138" x1="310" y1="70" x2="310" y2="90" gradientUnits="userSpaceOnUse">
<stop stop-color="#76D5FC"/>
<stop offset="1" stop-color="#6EC5EE"/>
</linearGradient>
<linearGradient id="paint7_linear_55_138" x1="310" y1="98" x2="310" y2="118" gradientUnits="userSpaceOnUse">
<stop stop-color="#85E5A7"/>
<stop offset="1" stop-color="#6CD8A0"/>
</linearGradient>
<linearGradient id="paint8_linear_55_138" x1="310" y1="126" x2="310" y2="146" gradientUnits="userSpaceOnUse">
<stop stop-color="#F5EA6F"/>
<stop offset="1" stop-color="#D2D862"/>
</linearGradient>
<linearGradient id="paint9_linear_55_138" x1="310" y1="154" x2="310" y2="174" gradientUnits="userSpaceOnUse">
<stop stop-color="#EC8934"/>
<stop offset="1" stop-color="#EA6A35"/>
</linearGradient>
<linearGradient id="paint10_linear_55_138" x1="310" y1="182" x2="310" y2="202" gradientUnits="userSpaceOnUse">
<stop stop-color="#BC9BE5"/>
<stop offset="1" stop-color="#9A72FF"/>
</linearGradient>
<linearGradient id="paint11_linear_55_138" x1="310" y1="210" x2="310" y2="230" gradientUnits="userSpaceOnUse">
<stop stop-color="#EB74EA"/>
<stop offset="1" stop-color="#D862D8"/>
</linearGradient>
</defs>
</svg>
