<svg width="450" height="300" viewBox="0 0 450 300" fill="none" xmlns="http://www.w3.org/2000/svg">
<rect width="450" height="300" fill="white"/>
<path d="M130 150H260C260 167.072 256.637 183.977 250.104 199.749C243.571 215.521 233.996 229.852 221.924 241.924C209.852 253.996 195.521 263.571 179.749 270.104C163.977 276.637 147.072 280 130 280V150Z" fill="url(#paint0_linear_55_189)"/>
<path d="M130 150V280C95.5219 280 62.4558 266.304 38.0761 241.924C13.6964 217.544 0 184.478 0 150H130Z" fill="url(#paint1_linear_55_189)"/>
<path d="M130 150H0C0 132.928 3.36255 116.023 9.89566 100.251C16.4288 84.4788 26.0045 70.1477 38.0761 58.0761C62.4558 33.6964 95.5219 20 130 20V150Z" fill="url(#paint2_linear_55_189)"/>
<path d="M130 150V20C147.072 20 163.977 23.3625 179.749 29.8957C195.521 36.4288 209.852 46.0045 221.924 58.0761C233.996 70.1477 243.571 84.4788 250.104 100.251C256.637 116.023 260 132.928 260 150H130Z" fill="url(#paint3_linear_55_189)"/>
<path d="M130 215C165.899 215 195 185.899 195 150C195 114.101 165.899 85 130 85C94.1015 85 65 114.101 65 150C65 185.899 94.1015 215 130 215Z" fill="white"/>
<path d="M121.56 137.328C122.051 137.2 122.787 137.168 123.768 137.232C124.749 137.275 125.432 137.392 125.816 137.584C126.008 137.669 126.2 137.733 126.392 137.776C126.797 137.904 127.085 138.107 127.256 138.384C127.448 138.661 127.544 139.067 127.544 139.6C127.544 139.984 127.523 140.229 127.48 140.336C127.459 140.421 127.373 140.539 127.224 140.688C126.605 141.285 125.912 141.371 125.144 140.944C124.824 140.773 124.557 140.688 124.344 140.688C124.152 140.667 123.992 140.613 123.864 140.528C123.715 140.464 123.523 140.443 123.288 140.464C123.053 140.464 122.861 140.496 122.712 140.56C122.584 140.624 122.445 140.677 122.296 140.72C122.147 140.741 121.901 140.859 121.56 141.072C121.219 141.264 120.963 141.424 120.792 141.552C120.493 141.829 120.376 142.256 120.44 142.832C120.525 143.387 120.771 143.899 121.176 144.368C121.283 144.475 121.336 144.56 121.336 144.624C121.4 144.731 121.752 145.019 122.392 145.488C123.032 145.936 123.587 146.299 124.056 146.576C125.059 147.131 125.837 147.717 126.392 148.336C126.456 148.4 126.509 148.464 126.552 148.528C126.595 148.571 126.627 148.613 126.648 148.656C126.691 148.677 126.712 148.688 126.712 148.688C126.883 148.837 127.107 149.168 127.384 149.68C127.683 150.171 127.832 150.48 127.832 150.608C127.832 150.672 127.885 150.811 127.992 151.024C128.099 151.237 128.163 151.44 128.184 151.632C128.205 151.803 128.259 152.048 128.344 152.368C128.813 154.032 128.248 155.568 126.648 156.976C126.541 157.083 126.211 157.275 125.656 157.552C125.101 157.808 124.728 157.957 124.536 158C124.344 158.043 124.152 158.107 123.96 158.192C123.512 158.384 122.637 158.491 121.336 158.512C120.056 158.533 119.299 158.448 119.064 158.256C119.021 158.213 118.883 158.16 118.648 158.096C118.029 157.861 117.229 157.264 116.248 156.304C115.885 155.963 115.661 155.739 115.576 155.632C115.512 155.525 115.459 155.355 115.416 155.12C115.245 154.501 115.299 153.989 115.576 153.584C115.853 153.179 116.248 152.987 116.76 153.008C117.272 153.008 117.784 153.232 118.296 153.68C119.747 155.003 120.867 155.515 121.656 155.216C121.827 155.152 122.104 155.088 122.488 155.024C123.341 154.896 124.109 154.597 124.792 154.128C124.877 154.064 124.931 153.861 124.952 153.52C124.973 153.179 124.963 152.837 124.92 152.496C124.856 152.091 124.696 151.675 124.44 151.248C124.184 150.821 123.885 150.48 123.544 150.224C123.224 149.989 122.669 149.648 121.88 149.2C121.155 148.773 120.632 148.453 120.312 148.24C120.013 148.027 119.651 147.696 119.224 147.248C118.648 146.693 118.275 146.288 118.104 146.032C117.677 145.349 117.432 144.848 117.368 144.528C117.347 144.379 117.283 144.197 117.176 143.984C117.048 143.771 116.984 143.312 116.984 142.608C116.984 141.904 117.037 141.467 117.144 141.296C117.251 141.168 117.325 140.976 117.368 140.72C117.432 140.421 117.592 140.069 117.848 139.664C118.125 139.237 118.349 138.981 118.52 138.896C118.627 138.832 118.808 138.704 119.064 138.512C119.704 138.064 120.195 137.797 120.536 137.712C120.749 137.669 120.909 137.605 121.016 137.52C121.101 137.456 121.283 137.392 121.56 137.328ZM136.013 137.04C136.226 136.976 136.653 136.955 137.293 136.976C137.933 136.997 138.306 137.04 138.413 137.104C138.498 137.168 138.647 137.221 138.861 137.264C139.394 137.392 140.045 137.776 140.813 138.416C141.581 139.056 142.018 139.579 142.125 139.984C142.125 140.091 142.178 140.208 142.285 140.336C142.391 140.485 142.455 140.624 142.477 140.752C142.498 140.859 142.573 141.04 142.701 141.296C142.829 141.552 142.903 141.765 142.925 141.936C142.946 142.085 143.01 142.235 143.117 142.384C143.202 142.512 143.277 142.789 143.341 143.216C143.426 143.664 143.501 143.995 143.565 144.208C143.65 144.443 143.693 145.552 143.693 147.536C143.714 149.52 143.693 150.629 143.629 150.864C143.522 151.163 143.415 151.621 143.309 152.24C143.245 152.603 143.17 152.837 143.085 152.944C143.021 153.051 142.957 153.221 142.893 153.456C142.85 153.648 142.775 153.829 142.669 154C142.583 154.171 142.509 154.341 142.445 154.512C142.402 154.683 142.349 154.789 142.285 154.832C142.242 154.896 142.189 155.003 142.125 155.152C141.997 155.408 141.655 155.856 141.101 156.496C140.781 156.88 140.322 157.275 139.725 157.68C139.127 158.064 138.615 158.309 138.189 158.416C137.933 158.48 137.25 158.512 136.141 158.512C135.031 158.512 134.391 158.469 134.221 158.384C133.965 158.277 133.751 158.192 133.581 158.128C133.026 157.915 132.61 157.691 132.333 157.456C132.269 157.392 132.215 157.36 132.173 157.36C131.917 157.36 131.511 156.944 130.957 156.112C130.402 155.28 130.05 154.565 129.901 153.968C129.837 153.776 129.773 153.605 129.709 153.456C129.623 153.307 129.559 153.051 129.517 152.688C129.474 152.368 129.399 152.112 129.293 151.92C129.207 151.707 129.154 150.736 129.133 149.008C129.111 147.259 129.154 146.245 129.261 145.968C129.346 145.755 129.431 145.349 129.517 144.752C129.602 144.155 129.677 143.792 129.741 143.664C129.805 143.536 129.858 143.333 129.901 143.056C129.965 142.757 130.05 142.48 130.157 142.224C130.263 141.968 130.317 141.819 130.317 141.776C130.317 141.733 130.413 141.52 130.605 141.136C130.797 140.731 130.914 140.517 130.957 140.496C130.978 140.475 131.095 140.315 131.309 140.016C131.458 139.803 131.714 139.515 132.077 139.152C132.439 138.789 132.695 138.565 132.845 138.48C132.994 138.416 133.111 138.341 133.197 138.256C133.453 138.064 133.73 137.883 134.029 137.712C134.178 137.627 134.327 137.541 134.477 137.456C134.626 137.349 134.765 137.296 134.893 137.296C134.999 137.296 135.181 137.264 135.437 137.2C135.479 137.179 135.543 137.157 135.629 137.136C135.714 137.115 135.789 137.093 135.853 137.072C135.938 137.051 135.991 137.04 136.013 137.04ZM137.901 140.784C137.047 140.507 136.13 140.688 135.149 141.328C134.189 141.968 133.623 142.768 133.453 143.728C133.41 143.984 133.346 144.219 133.261 144.432C133.175 144.645 133.111 144.891 133.069 145.168C133.026 145.445 132.973 145.691 132.909 145.904C132.823 146.117 132.77 146.405 132.749 146.768C132.706 147.088 132.653 147.429 132.589 147.792C132.461 148.475 132.471 149.307 132.621 150.288C132.77 151.248 133.015 152.133 133.357 152.944C133.463 153.2 133.516 153.349 133.516 153.392C133.516 153.669 133.741 153.979 134.189 154.32C134.658 154.661 135.17 154.907 135.725 155.056C136.066 155.163 136.311 155.216 136.461 155.216C136.61 155.195 136.845 155.131 137.165 155.024C137.421 154.939 137.751 154.725 138.157 154.384C138.562 154.021 138.829 153.723 138.957 153.488C138.999 153.381 139.063 153.285 139.149 153.2C139.255 153.072 139.437 152.645 139.693 151.92C139.949 151.216 140.087 150.608 140.109 150.096C140.151 149.605 140.194 149.2 140.237 148.88C140.301 148.496 140.333 148.005 140.333 147.408C140.333 146.789 140.301 146.32 140.237 146C140.173 145.616 140.13 145.307 140.109 145.072C140.066 144.709 139.917 144.165 139.661 143.44C139.426 142.715 139.213 142.171 139.021 141.808C138.829 141.488 138.658 141.264 138.509 141.136C138.359 140.987 138.157 140.869 137.901 140.784Z" fill="black"/>
<path d="M317 98H303C301.343 98 300 99.3431 300 101V115C300 116.657 301.343 118 303 118H317C318.657 118 320 116.657 320 115V101C320 99.3431 318.657 98 317 98Z" fill="url(#paint4_linear_55_189)"/>
<path d="M325.949 112V103.41H332.16V104.424H327.086V107.055H331.838V108.062H327.086V110.986H332.359V112H325.949ZM333.918 112V103.41H335.084L339.596 110.154V103.41H340.686V112H339.52L335.008 105.25V112H333.918ZM344.787 112V104.424H341.957V103.41H348.766V104.424H345.924V112H344.787ZM349.938 112V103.41H353.178C353.748 103.41 354.184 103.438 354.484 103.492C354.906 103.562 355.26 103.697 355.545 103.896C355.83 104.092 356.059 104.367 356.23 104.723C356.406 105.078 356.494 105.469 356.494 105.895C356.494 106.625 356.262 107.244 355.797 107.752C355.332 108.256 354.492 108.508 353.277 108.508H351.074V112H349.938ZM351.074 107.494H353.295C354.029 107.494 354.551 107.357 354.859 107.084C355.168 106.811 355.322 106.426 355.322 105.93C355.322 105.57 355.23 105.264 355.047 105.01C354.867 104.752 354.629 104.582 354.332 104.5C354.141 104.449 353.787 104.424 353.271 104.424H351.074V107.494ZM358.1 106.979V105.777H359.301V106.979H358.1ZM358.1 112V110.799H359.301V112H358.1ZM368.166 112H367.111V105.279C366.857 105.521 366.523 105.764 366.109 106.006C365.699 106.248 365.33 106.43 365.002 106.551V105.531C365.592 105.254 366.107 104.918 366.549 104.523C366.99 104.129 367.303 103.746 367.486 103.375H368.166V112ZM376.147 103.84H379.279V104.644H376.147V103.84ZM376.147 105.988H379.303V106.804H376.147V105.988ZM378.907 102.076H379.903V108.496H378.907V102.076ZM371.479 102.904H376.423V107.728H371.479V102.904ZM375.451 103.708H372.451V106.924H375.451V103.708ZM376.327 108.82C377.447 108.82 378.327 109 378.967 109.36C379.615 109.72 379.939 110.224 379.939 110.872C379.939 111.52 379.615 112.02 378.967 112.372C378.327 112.732 377.447 112.912 376.327 112.912C375.207 112.912 374.323 112.732 373.675 112.372C373.035 112.02 372.715 111.52 372.715 110.872C372.715 110.224 373.035 109.72 373.675 109.36C374.323 109 375.207 108.82 376.327 108.82ZM376.327 109.6C375.783 109.6 375.315 109.652 374.923 109.756C374.531 109.852 374.227 109.996 374.011 110.188C373.803 110.372 373.699 110.6 373.699 110.872C373.699 111.128 373.803 111.352 374.011 111.544C374.227 111.728 374.531 111.872 374.923 111.976C375.315 112.08 375.783 112.132 376.327 112.132C376.879 112.132 377.347 112.08 377.731 111.976C378.123 111.872 378.423 111.728 378.631 111.544C378.847 111.352 378.955 111.128 378.955 110.872C378.955 110.6 378.847 110.372 378.631 110.188C378.423 109.996 378.123 109.852 377.731 109.756C377.347 109.652 376.879 109.6 376.327 109.6ZM387.561 114.525C386.979 113.791 386.486 112.932 386.084 111.947C385.682 110.963 385.48 109.943 385.48 108.889C385.48 107.959 385.631 107.068 385.932 106.217C386.283 105.229 386.826 104.244 387.561 103.264H388.316C387.844 104.076 387.531 104.656 387.379 105.004C387.141 105.543 386.953 106.105 386.816 106.691C386.648 107.422 386.564 108.156 386.564 108.895C386.564 110.773 387.148 112.65 388.316 114.525H387.561ZM394.791 110.986V112H389.113C389.105 111.746 389.146 111.502 389.236 111.268C389.381 110.881 389.611 110.5 389.928 110.125C390.248 109.75 390.709 109.316 391.311 108.824C392.244 108.059 392.875 107.453 393.203 107.008C393.531 106.559 393.695 106.135 393.695 105.736C393.695 105.318 393.545 104.967 393.244 104.682C392.947 104.393 392.559 104.248 392.078 104.248C391.57 104.248 391.164 104.4 390.859 104.705C390.555 105.01 390.4 105.432 390.396 105.971L389.312 105.859C389.387 105.051 389.666 104.436 390.15 104.014C390.635 103.588 391.285 103.375 392.102 103.375C392.926 103.375 393.578 103.604 394.059 104.061C394.539 104.518 394.779 105.084 394.779 105.76C394.779 106.104 394.709 106.441 394.568 106.773C394.428 107.105 394.193 107.455 393.865 107.822C393.541 108.189 393 108.693 392.242 109.334C391.609 109.865 391.203 110.227 391.023 110.418C390.844 110.605 390.695 110.795 390.578 110.986H394.791ZM395.928 109.75L397.035 109.656C397.117 110.195 397.307 110.602 397.604 110.875C397.904 111.145 398.266 111.279 398.688 111.279C399.195 111.279 399.625 111.088 399.977 110.705C400.328 110.322 400.504 109.814 400.504 109.182C400.504 108.58 400.334 108.105 399.994 107.758C399.658 107.41 399.217 107.236 398.67 107.236C398.33 107.236 398.023 107.314 397.75 107.471C397.477 107.623 397.262 107.822 397.105 108.068L396.115 107.939L396.947 103.527H401.219V104.535H397.791L397.328 106.844C397.844 106.484 398.385 106.305 398.951 106.305C399.701 106.305 400.334 106.564 400.85 107.084C401.365 107.604 401.623 108.271 401.623 109.088C401.623 109.865 401.396 110.537 400.943 111.104C400.393 111.799 399.641 112.146 398.688 112.146C397.906 112.146 397.268 111.928 396.771 111.49C396.279 111.053 395.998 110.473 395.928 109.75ZM403.199 112V110.799H404.4V112H403.199ZM405.947 107.764C405.947 106.748 406.051 105.932 406.258 105.314C406.469 104.693 406.779 104.215 407.189 103.879C407.604 103.543 408.123 103.375 408.748 103.375C409.209 103.375 409.613 103.469 409.961 103.656C410.309 103.84 410.596 104.107 410.822 104.459C411.049 104.807 411.227 105.232 411.355 105.736C411.484 106.236 411.549 106.912 411.549 107.764C411.549 108.771 411.445 109.586 411.238 110.207C411.031 110.824 410.721 111.303 410.307 111.643C409.896 111.979 409.377 112.146 408.748 112.146C407.92 112.146 407.27 111.85 406.797 111.256C406.23 110.541 405.947 109.377 405.947 107.764ZM407.031 107.764C407.031 109.174 407.195 110.113 407.523 110.582C407.855 111.047 408.264 111.279 408.748 111.279C409.232 111.279 409.639 111.045 409.967 110.576C410.299 110.107 410.465 109.17 410.465 107.764C410.465 106.35 410.299 105.41 409.967 104.945C409.639 104.48 409.229 104.248 408.736 104.248C408.252 104.248 407.865 104.453 407.576 104.863C407.213 105.387 407.031 106.354 407.031 107.764ZM412.826 105.473C412.826 104.859 412.98 104.338 413.289 103.908C413.598 103.479 414.045 103.264 414.631 103.264C415.17 103.264 415.615 103.457 415.967 103.844C416.322 104.227 416.5 104.791 416.5 105.537C416.5 106.264 416.32 106.824 415.961 107.219C415.605 107.609 415.166 107.805 414.643 107.805C414.123 107.805 413.689 107.611 413.342 107.225C412.998 106.838 412.826 106.254 412.826 105.473ZM414.66 103.99C414.398 103.99 414.18 104.104 414.004 104.33C413.832 104.557 413.746 104.973 413.746 105.578C413.746 106.129 413.834 106.518 414.01 106.744C414.186 106.967 414.402 107.078 414.66 107.078C414.926 107.078 415.145 106.965 415.316 106.738C415.492 106.512 415.58 106.098 415.58 105.496C415.58 104.941 415.492 104.553 415.316 104.33C415.141 104.104 414.922 103.99 414.66 103.99ZM414.666 112.316L419.365 103.264H420.221L415.539 112.316H414.666ZM418.381 109.984C418.381 109.367 418.535 108.846 418.844 108.42C419.152 107.99 419.602 107.775 420.191 107.775C420.73 107.775 421.176 107.969 421.527 108.355C421.883 108.738 422.061 109.303 422.061 110.049C422.061 110.775 421.881 111.336 421.521 111.73C421.166 112.121 420.725 112.316 420.197 112.316C419.678 112.316 419.244 112.123 418.896 111.736C418.553 111.346 418.381 110.762 418.381 109.984ZM420.221 108.502C419.955 108.502 419.734 108.615 419.559 108.842C419.387 109.068 419.301 109.484 419.301 110.09C419.301 110.637 419.389 111.023 419.564 111.25C419.74 111.477 419.957 111.59 420.215 111.59C420.484 111.59 420.705 111.477 420.877 111.25C421.053 111.023 421.141 110.609 421.141 110.008C421.141 109.453 421.053 109.064 420.877 108.842C420.701 108.615 420.482 108.502 420.221 108.502ZM424.287 114.525H423.531C424.699 112.65 425.283 110.773 425.283 108.895C425.283 108.16 425.199 107.432 425.031 106.709C424.898 106.123 424.713 105.561 424.475 105.021C424.322 104.67 424.008 104.084 423.531 103.264H424.287C425.021 104.244 425.564 105.229 425.916 106.217C426.217 107.068 426.367 107.959 426.367 108.889C426.367 109.943 426.164 110.963 425.758 111.947C425.355 112.932 424.865 113.791 424.287 114.525Z" fill="black"/>
<path d="M317 126H303C301.343 126 300 127.343 300 129V143C300 144.657 301.343 146 303 146H317C318.657 146 320 144.657 320 143V129C320 127.343 318.657 126 317 126Z" fill="url(#paint5_linear_55_189)"/>
<path d="M326.119 140V131.41H327.256V140H326.119ZM329.254 140V131.41H330.42L334.932 138.154V131.41H336.021V140H334.855L330.344 133.25V140H329.254ZM337.996 140V131.41H343.791V132.424H339.133V135.084H343.164V136.098H339.133V140H337.996ZM345.273 140V131.41H348.514C349.084 131.41 349.52 131.438 349.82 131.492C350.242 131.562 350.596 131.697 350.881 131.896C351.166 132.092 351.395 132.367 351.566 132.723C351.742 133.078 351.83 133.469 351.83 133.895C351.83 134.625 351.598 135.244 351.133 135.752C350.668 136.256 349.828 136.508 348.613 136.508H346.41V140H345.273ZM346.41 135.494H348.631C349.365 135.494 349.887 135.357 350.195 135.084C350.504 134.811 350.658 134.426 350.658 133.93C350.658 133.57 350.566 133.264 350.383 133.01C350.203 132.752 349.965 132.582 349.668 132.5C349.477 132.449 349.123 132.424 348.607 132.424H346.41V135.494ZM353.436 134.979V133.777H354.637V134.979H353.436ZM353.436 140V138.799H354.637V140H353.436ZM363.502 140H362.447V133.279C362.193 133.521 361.859 133.764 361.445 134.006C361.035 134.248 360.666 134.43 360.338 134.551V133.531C360.928 133.254 361.443 132.918 361.885 132.523C362.326 132.129 362.639 131.746 362.822 131.375H363.502V140ZM371.483 131.84H374.615V132.644H371.483V131.84ZM371.483 133.988H374.639V134.804H371.483V133.988ZM374.243 130.076H375.239V136.496H374.243V130.076ZM366.815 130.904H371.759V135.728H366.815V130.904ZM370.787 131.708H367.787V134.924H370.787V131.708ZM371.663 136.82C372.783 136.82 373.663 137 374.303 137.36C374.951 137.72 375.275 138.224 375.275 138.872C375.275 139.52 374.951 140.02 374.303 140.372C373.663 140.732 372.783 140.912 371.663 140.912C370.543 140.912 369.659 140.732 369.011 140.372C368.371 140.02 368.051 139.52 368.051 138.872C368.051 138.224 368.371 137.72 369.011 137.36C369.659 137 370.543 136.82 371.663 136.82ZM371.663 137.6C371.119 137.6 370.651 137.652 370.259 137.756C369.867 137.852 369.563 137.996 369.347 138.188C369.139 138.372 369.035 138.6 369.035 138.872C369.035 139.128 369.139 139.352 369.347 139.544C369.563 139.728 369.867 139.872 370.259 139.976C370.651 140.08 371.119 140.132 371.663 140.132C372.215 140.132 372.683 140.08 373.067 139.976C373.459 139.872 373.759 139.728 373.967 139.544C374.183 139.352 374.291 139.128 374.291 138.872C374.291 138.6 374.183 138.372 373.967 138.188C373.759 137.996 373.459 137.852 373.067 137.756C372.683 137.652 372.215 137.6 371.663 137.6ZM382.896 142.525C382.314 141.791 381.822 140.932 381.42 139.947C381.018 138.963 380.816 137.943 380.816 136.889C380.816 135.959 380.967 135.068 381.268 134.217C381.619 133.229 382.162 132.244 382.896 131.264H383.652C383.18 132.076 382.867 132.656 382.715 133.004C382.477 133.543 382.289 134.105 382.152 134.691C381.984 135.422 381.9 136.156 381.9 136.895C381.9 138.773 382.484 140.65 383.652 142.525H382.896ZM390.127 138.986V140H384.449C384.441 139.746 384.482 139.502 384.572 139.268C384.717 138.881 384.947 138.5 385.264 138.125C385.584 137.75 386.045 137.316 386.646 136.824C387.58 136.059 388.211 135.453 388.539 135.008C388.867 134.559 389.031 134.135 389.031 133.736C389.031 133.318 388.881 132.967 388.58 132.682C388.283 132.393 387.895 132.248 387.414 132.248C386.906 132.248 386.5 132.4 386.195 132.705C385.891 133.01 385.736 133.432 385.732 133.971L384.648 133.859C384.723 133.051 385.002 132.436 385.486 132.014C385.971 131.588 386.621 131.375 387.438 131.375C388.262 131.375 388.914 131.604 389.395 132.061C389.875 132.518 390.115 133.084 390.115 133.76C390.115 134.104 390.045 134.441 389.904 134.773C389.764 135.105 389.529 135.455 389.201 135.822C388.877 136.189 388.336 136.693 387.578 137.334C386.945 137.865 386.539 138.227 386.359 138.418C386.18 138.605 386.031 138.795 385.914 138.986H390.127ZM391.264 137.75L392.371 137.656C392.453 138.195 392.643 138.602 392.939 138.875C393.24 139.145 393.602 139.279 394.023 139.279C394.531 139.279 394.961 139.088 395.312 138.705C395.664 138.322 395.84 137.814 395.84 137.182C395.84 136.58 395.67 136.105 395.33 135.758C394.994 135.41 394.553 135.236 394.006 135.236C393.666 135.236 393.359 135.314 393.086 135.471C392.812 135.623 392.598 135.822 392.441 136.068L391.451 135.939L392.283 131.527H396.555V132.535H393.127L392.664 134.844C393.18 134.484 393.721 134.305 394.287 134.305C395.037 134.305 395.67 134.564 396.186 135.084C396.701 135.604 396.959 136.271 396.959 137.088C396.959 137.865 396.732 138.537 396.279 139.104C395.729 139.799 394.977 140.146 394.023 140.146C393.242 140.146 392.604 139.928 392.107 139.49C391.615 139.053 391.334 138.473 391.264 137.75ZM398.535 140V138.799H399.736V140H398.535ZM401.283 135.764C401.283 134.748 401.387 133.932 401.594 133.314C401.805 132.693 402.115 132.215 402.525 131.879C402.939 131.543 403.459 131.375 404.084 131.375C404.545 131.375 404.949 131.469 405.297 131.656C405.645 131.84 405.932 132.107 406.158 132.459C406.385 132.807 406.562 133.232 406.691 133.736C406.82 134.236 406.885 134.912 406.885 135.764C406.885 136.771 406.781 137.586 406.574 138.207C406.367 138.824 406.057 139.303 405.643 139.643C405.232 139.979 404.713 140.146 404.084 140.146C403.256 140.146 402.605 139.85 402.133 139.256C401.566 138.541 401.283 137.377 401.283 135.764ZM402.367 135.764C402.367 137.174 402.531 138.113 402.859 138.582C403.191 139.047 403.6 139.279 404.084 139.279C404.568 139.279 404.975 139.045 405.303 138.576C405.635 138.107 405.801 137.17 405.801 135.764C405.801 134.35 405.635 133.41 405.303 132.945C404.975 132.48 404.564 132.248 404.072 132.248C403.588 132.248 403.201 132.453 402.912 132.863C402.549 133.387 402.367 134.354 402.367 135.764ZM408.162 133.473C408.162 132.859 408.316 132.338 408.625 131.908C408.934 131.479 409.381 131.264 409.967 131.264C410.506 131.264 410.951 131.457 411.303 131.844C411.658 132.227 411.836 132.791 411.836 133.537C411.836 134.264 411.656 134.824 411.297 135.219C410.941 135.609 410.502 135.805 409.979 135.805C409.459 135.805 409.025 135.611 408.678 135.225C408.334 134.838 408.162 134.254 408.162 133.473ZM409.996 131.99C409.734 131.99 409.516 132.104 409.34 132.33C409.168 132.557 409.082 132.973 409.082 133.578C409.082 134.129 409.17 134.518 409.346 134.744C409.521 134.967 409.738 135.078 409.996 135.078C410.262 135.078 410.48 134.965 410.652 134.738C410.828 134.512 410.916 134.098 410.916 133.496C410.916 132.941 410.828 132.553 410.652 132.33C410.477 132.104 410.258 131.99 409.996 131.99ZM410.002 140.316L414.701 131.264H415.557L410.875 140.316H410.002ZM413.717 137.984C413.717 137.367 413.871 136.846 414.18 136.42C414.488 135.99 414.938 135.775 415.527 135.775C416.066 135.775 416.512 135.969 416.863 136.355C417.219 136.738 417.396 137.303 417.396 138.049C417.396 138.775 417.217 139.336 416.857 139.73C416.502 140.121 416.061 140.316 415.533 140.316C415.014 140.316 414.58 140.123 414.232 139.736C413.889 139.346 413.717 138.762 413.717 137.984ZM415.557 136.502C415.291 136.502 415.07 136.615 414.895 136.842C414.723 137.068 414.637 137.484 414.637 138.09C414.637 138.637 414.725 139.023 414.9 139.25C415.076 139.477 415.293 139.59 415.551 139.59C415.82 139.59 416.041 139.477 416.213 139.25C416.389 139.023 416.477 138.609 416.477 138.008C416.477 137.453 416.389 137.064 416.213 136.842C416.037 136.615 415.818 136.502 415.557 136.502ZM419.623 142.525H418.867C420.035 140.65 420.619 138.773 420.619 136.895C420.619 136.16 420.535 135.432 420.367 134.709C420.234 134.123 420.049 133.561 419.811 133.021C419.658 132.67 419.344 132.084 418.867 131.264H419.623C420.357 132.244 420.9 133.229 421.252 134.217C421.553 135.068 421.703 135.959 421.703 136.889C421.703 137.943 421.5 138.963 421.094 139.947C420.691 140.932 420.201 141.791 419.623 142.525Z" fill="black"/>
<path d="M317 154H303C301.343 154 300 155.343 300 157V171C300 172.657 301.343 174 303 174H317C318.657 174 320 172.657 320 171V157C320 155.343 318.657 154 317 154Z" fill="url(#paint6_linear_55_189)"/>
<path d="M326.119 168V159.41H327.256V168H326.119ZM329.254 168V159.41H330.42L334.932 166.154V159.41H336.021V168H334.855L330.344 161.25V168H329.254ZM340.123 168V160.424H337.293V159.41H344.102V160.424H341.26V168H340.123ZM345.273 168V159.41H348.514C349.084 159.41 349.52 159.438 349.82 159.492C350.242 159.562 350.596 159.697 350.881 159.896C351.166 160.092 351.395 160.367 351.566 160.723C351.742 161.078 351.83 161.469 351.83 161.895C351.83 162.625 351.598 163.244 351.133 163.752C350.668 164.256 349.828 164.508 348.613 164.508H346.41V168H345.273ZM346.41 163.494H348.631C349.365 163.494 349.887 163.357 350.195 163.084C350.504 162.811 350.658 162.426 350.658 161.93C350.658 161.57 350.566 161.264 350.383 161.01C350.203 160.752 349.965 160.582 349.668 160.5C349.477 160.449 349.123 160.424 348.607 160.424H346.41V163.494ZM353.436 162.979V161.777H354.637V162.979H353.436ZM353.436 168V166.799H354.637V168H353.436ZM363.502 168H362.447V161.279C362.193 161.521 361.859 161.764 361.445 162.006C361.035 162.248 360.666 162.43 360.338 162.551V161.531C360.928 161.254 361.443 160.918 361.885 160.523C362.326 160.129 362.639 159.746 362.822 159.375H363.502V168ZM371.483 159.84H374.615V160.644H371.483V159.84ZM371.483 161.988H374.639V162.804H371.483V161.988ZM374.243 158.076H375.239V164.496H374.243V158.076ZM366.815 158.904H371.759V163.728H366.815V158.904ZM370.787 159.708H367.787V162.924H370.787V159.708ZM371.663 164.82C372.783 164.82 373.663 165 374.303 165.36C374.951 165.72 375.275 166.224 375.275 166.872C375.275 167.52 374.951 168.02 374.303 168.372C373.663 168.732 372.783 168.912 371.663 168.912C370.543 168.912 369.659 168.732 369.011 168.372C368.371 168.02 368.051 167.52 368.051 166.872C368.051 166.224 368.371 165.72 369.011 165.36C369.659 165 370.543 164.82 371.663 164.82ZM371.663 165.6C371.119 165.6 370.651 165.652 370.259 165.756C369.867 165.852 369.563 165.996 369.347 166.188C369.139 166.372 369.035 166.6 369.035 166.872C369.035 167.128 369.139 167.352 369.347 167.544C369.563 167.728 369.867 167.872 370.259 167.976C370.651 168.08 371.119 168.132 371.663 168.132C372.215 168.132 372.683 168.08 373.067 167.976C373.459 167.872 373.759 167.728 373.967 167.544C374.183 167.352 374.291 167.128 374.291 166.872C374.291 166.6 374.183 166.372 373.967 166.188C373.759 165.996 373.459 165.852 373.067 165.756C372.683 165.652 372.215 165.6 371.663 165.6ZM382.896 170.525C382.314 169.791 381.822 168.932 381.42 167.947C381.018 166.963 380.816 165.943 380.816 164.889C380.816 163.959 380.967 163.068 381.268 162.217C381.619 161.229 382.162 160.244 382.896 159.264H383.652C383.18 160.076 382.867 160.656 382.715 161.004C382.477 161.543 382.289 162.105 382.152 162.691C381.984 163.422 381.9 164.156 381.9 164.895C381.9 166.773 382.484 168.65 383.652 170.525H382.896ZM390.127 166.986V168H384.449C384.441 167.746 384.482 167.502 384.572 167.268C384.717 166.881 384.947 166.5 385.264 166.125C385.584 165.75 386.045 165.316 386.646 164.824C387.58 164.059 388.211 163.453 388.539 163.008C388.867 162.559 389.031 162.135 389.031 161.736C389.031 161.318 388.881 160.967 388.58 160.682C388.283 160.393 387.895 160.248 387.414 160.248C386.906 160.248 386.5 160.4 386.195 160.705C385.891 161.01 385.736 161.432 385.732 161.971L384.648 161.859C384.723 161.051 385.002 160.436 385.486 160.014C385.971 159.588 386.621 159.375 387.438 159.375C388.262 159.375 388.914 159.604 389.395 160.061C389.875 160.518 390.115 161.084 390.115 161.76C390.115 162.104 390.045 162.441 389.904 162.773C389.764 163.105 389.529 163.455 389.201 163.822C388.877 164.189 388.336 164.693 387.578 165.334C386.945 165.865 386.539 166.227 386.359 166.418C386.18 166.605 386.031 166.795 385.914 166.986H390.127ZM391.264 165.75L392.371 165.656C392.453 166.195 392.643 166.602 392.939 166.875C393.24 167.145 393.602 167.279 394.023 167.279C394.531 167.279 394.961 167.088 395.312 166.705C395.664 166.322 395.84 165.814 395.84 165.182C395.84 164.58 395.67 164.105 395.33 163.758C394.994 163.41 394.553 163.236 394.006 163.236C393.666 163.236 393.359 163.314 393.086 163.471C392.812 163.623 392.598 163.822 392.441 164.068L391.451 163.939L392.283 159.527H396.555V160.535H393.127L392.664 162.844C393.18 162.484 393.721 162.305 394.287 162.305C395.037 162.305 395.67 162.564 396.186 163.084C396.701 163.604 396.959 164.271 396.959 165.088C396.959 165.865 396.732 166.537 396.279 167.104C395.729 167.799 394.977 168.146 394.023 168.146C393.242 168.146 392.604 167.928 392.107 167.49C391.615 167.053 391.334 166.473 391.264 165.75ZM398.535 168V166.799H399.736V168H398.535ZM401.283 163.764C401.283 162.748 401.387 161.932 401.594 161.314C401.805 160.693 402.115 160.215 402.525 159.879C402.939 159.543 403.459 159.375 404.084 159.375C404.545 159.375 404.949 159.469 405.297 159.656C405.645 159.84 405.932 160.107 406.158 160.459C406.385 160.807 406.562 161.232 406.691 161.736C406.82 162.236 406.885 162.912 406.885 163.764C406.885 164.771 406.781 165.586 406.574 166.207C406.367 166.824 406.057 167.303 405.643 167.643C405.232 167.979 404.713 168.146 404.084 168.146C403.256 168.146 402.605 167.85 402.133 167.256C401.566 166.541 401.283 165.377 401.283 163.764ZM402.367 163.764C402.367 165.174 402.531 166.113 402.859 166.582C403.191 167.047 403.6 167.279 404.084 167.279C404.568 167.279 404.975 167.045 405.303 166.576C405.635 166.107 405.801 165.17 405.801 163.764C405.801 162.35 405.635 161.41 405.303 160.945C404.975 160.48 404.564 160.248 404.072 160.248C403.588 160.248 403.201 160.453 402.912 160.863C402.549 161.387 402.367 162.354 402.367 163.764ZM408.162 161.473C408.162 160.859 408.316 160.338 408.625 159.908C408.934 159.479 409.381 159.264 409.967 159.264C410.506 159.264 410.951 159.457 411.303 159.844C411.658 160.227 411.836 160.791 411.836 161.537C411.836 162.264 411.656 162.824 411.297 163.219C410.941 163.609 410.502 163.805 409.979 163.805C409.459 163.805 409.025 163.611 408.678 163.225C408.334 162.838 408.162 162.254 408.162 161.473ZM409.996 159.99C409.734 159.99 409.516 160.104 409.34 160.33C409.168 160.557 409.082 160.973 409.082 161.578C409.082 162.129 409.17 162.518 409.346 162.744C409.521 162.967 409.738 163.078 409.996 163.078C410.262 163.078 410.48 162.965 410.652 162.738C410.828 162.512 410.916 162.098 410.916 161.496C410.916 160.941 410.828 160.553 410.652 160.33C410.477 160.104 410.258 159.99 409.996 159.99ZM410.002 168.316L414.701 159.264H415.557L410.875 168.316H410.002ZM413.717 165.984C413.717 165.367 413.871 164.846 414.18 164.42C414.488 163.99 414.938 163.775 415.527 163.775C416.066 163.775 416.512 163.969 416.863 164.355C417.219 164.738 417.396 165.303 417.396 166.049C417.396 166.775 417.217 167.336 416.857 167.73C416.502 168.121 416.061 168.316 415.533 168.316C415.014 168.316 414.58 168.123 414.232 167.736C413.889 167.346 413.717 166.762 413.717 165.984ZM415.557 164.502C415.291 164.502 415.07 164.615 414.895 164.842C414.723 165.068 414.637 165.484 414.637 166.09C414.637 166.637 414.725 167.023 414.9 167.25C415.076 167.477 415.293 167.59 415.551 167.59C415.82 167.59 416.041 167.477 416.213 167.25C416.389 167.023 416.477 166.609 416.477 166.008C416.477 165.453 416.389 165.064 416.213 164.842C416.037 164.615 415.818 164.502 415.557 164.502ZM419.623 170.525H418.867C420.035 168.65 420.619 166.773 420.619 164.895C420.619 164.16 420.535 163.432 420.367 162.709C420.234 162.123 420.049 161.561 419.811 161.021C419.658 160.67 419.344 160.084 418.867 159.264H419.623C420.357 160.244 420.9 161.229 421.252 162.217C421.553 163.068 421.703 163.959 421.703 164.889C421.703 165.943 421.5 166.963 421.094 167.947C420.691 168.932 420.201 169.791 419.623 170.525Z" fill="black"/>
<path d="M317 182H303C301.343 182 300 183.343 300 185V199C300 200.657 301.343 202 303 202H317C318.657 202 320 200.657 320 199V185C320 183.343 318.657 182 317 182Z" fill="url(#paint7_linear_55_189)"/>
<path d="M326.119 196V187.41H327.256V196H326.119ZM328.879 193.24L329.951 193.146C330.002 193.576 330.119 193.93 330.303 194.207C330.49 194.48 330.779 194.703 331.17 194.875C331.561 195.043 332 195.127 332.488 195.127C332.922 195.127 333.305 195.062 333.637 194.934C333.969 194.805 334.215 194.629 334.375 194.406C334.539 194.18 334.621 193.934 334.621 193.668C334.621 193.398 334.543 193.164 334.387 192.965C334.23 192.762 333.973 192.592 333.613 192.455C333.383 192.365 332.873 192.227 332.084 192.039C331.295 191.848 330.742 191.668 330.426 191.5C330.016 191.285 329.709 191.02 329.506 190.703C329.307 190.383 329.207 190.025 329.207 189.631C329.207 189.197 329.33 188.793 329.576 188.418C329.822 188.039 330.182 187.752 330.654 187.557C331.127 187.361 331.652 187.264 332.23 187.264C332.867 187.264 333.428 187.367 333.912 187.574C334.4 187.777 334.775 188.078 335.037 188.477C335.299 188.875 335.439 189.326 335.459 189.83L334.369 189.912C334.311 189.369 334.111 188.959 333.771 188.682C333.436 188.404 332.938 188.266 332.277 188.266C331.59 188.266 331.088 188.393 330.771 188.646C330.459 188.896 330.303 189.199 330.303 189.555C330.303 189.863 330.414 190.117 330.637 190.316C330.855 190.516 331.426 190.721 332.348 190.932C333.273 191.139 333.908 191.32 334.252 191.477C334.752 191.707 335.121 192 335.359 192.355C335.598 192.707 335.717 193.113 335.717 193.574C335.717 194.031 335.586 194.463 335.324 194.869C335.062 195.271 334.686 195.586 334.193 195.812C333.705 196.035 333.154 196.146 332.541 196.146C331.764 196.146 331.111 196.033 330.584 195.807C330.061 195.58 329.648 195.24 329.348 194.787C329.051 194.33 328.895 193.814 328.879 193.24ZM337.328 196V187.41H343.123V188.424H338.465V191.084H342.496V192.098H338.465V196H337.328ZM344.025 193.562L345.051 193.422C345.078 194.078 345.201 194.527 345.42 194.77C345.639 195.012 345.941 195.133 346.328 195.133C346.613 195.133 346.859 195.068 347.066 194.939C347.273 194.807 347.416 194.629 347.494 194.406C347.572 194.18 347.611 193.82 347.611 193.328V187.41H348.748V193.264C348.748 193.982 348.66 194.539 348.484 194.934C348.312 195.328 348.037 195.629 347.658 195.836C347.283 196.043 346.842 196.146 346.334 196.146C345.58 196.146 345.002 195.93 344.6 195.496C344.201 195.062 344.01 194.418 344.025 193.562ZM350.764 190.979V189.777H351.965V190.979H350.764ZM350.764 196V194.799H351.965V196H350.764ZM360.83 196H359.775V189.279C359.521 189.521 359.188 189.764 358.773 190.006C358.363 190.248 357.994 190.43 357.666 190.551V189.531C358.256 189.254 358.771 188.918 359.213 188.523C359.654 188.129 359.967 187.746 360.15 187.375H360.83V196ZM368.811 187.84H371.943V188.644H368.811V187.84ZM368.811 189.988H371.967V190.804H368.811V189.988ZM371.571 186.076H372.567V192.496H371.571V186.076ZM364.143 186.904H369.087V191.728H364.143V186.904ZM368.115 187.708H365.115V190.924H368.115V187.708ZM368.991 192.82C370.111 192.82 370.991 193 371.631 193.36C372.279 193.72 372.603 194.224 372.603 194.872C372.603 195.52 372.279 196.02 371.631 196.372C370.991 196.732 370.111 196.912 368.991 196.912C367.871 196.912 366.987 196.732 366.339 196.372C365.699 196.02 365.379 195.52 365.379 194.872C365.379 194.224 365.699 193.72 366.339 193.36C366.987 193 367.871 192.82 368.991 192.82ZM368.991 193.6C368.447 193.6 367.979 193.652 367.587 193.756C367.195 193.852 366.891 193.996 366.675 194.188C366.467 194.372 366.363 194.6 366.363 194.872C366.363 195.128 366.467 195.352 366.675 195.544C366.891 195.728 367.195 195.872 367.587 195.976C367.979 196.08 368.447 196.132 368.991 196.132C369.543 196.132 370.011 196.08 370.395 195.976C370.787 195.872 371.087 195.728 371.295 195.544C371.511 195.352 371.619 195.128 371.619 194.872C371.619 194.6 371.511 194.372 371.295 194.188C371.087 193.996 370.787 193.852 370.395 193.756C370.011 193.652 369.543 193.6 368.991 193.6ZM380.225 198.525C379.643 197.791 379.15 196.932 378.748 195.947C378.346 194.963 378.145 193.943 378.145 192.889C378.145 191.959 378.295 191.068 378.596 190.217C378.947 189.229 379.49 188.244 380.225 187.264H380.98C380.508 188.076 380.195 188.656 380.043 189.004C379.805 189.543 379.617 190.105 379.48 190.691C379.312 191.422 379.229 192.156 379.229 192.895C379.229 194.773 379.812 196.65 380.98 198.525H380.225ZM387.455 194.986V196H381.777C381.77 195.746 381.811 195.502 381.9 195.268C382.045 194.881 382.275 194.5 382.592 194.125C382.912 193.75 383.373 193.316 383.975 192.824C384.908 192.059 385.539 191.453 385.867 191.008C386.195 190.559 386.359 190.135 386.359 189.736C386.359 189.318 386.209 188.967 385.908 188.682C385.611 188.393 385.223 188.248 384.742 188.248C384.234 188.248 383.828 188.4 383.523 188.705C383.219 189.01 383.064 189.432 383.061 189.971L381.977 189.859C382.051 189.051 382.33 188.436 382.814 188.014C383.299 187.588 383.949 187.375 384.766 187.375C385.59 187.375 386.242 187.604 386.723 188.061C387.203 188.518 387.443 189.084 387.443 189.76C387.443 190.104 387.373 190.441 387.232 190.773C387.092 191.105 386.857 191.455 386.529 191.822C386.205 192.189 385.664 192.693 384.906 193.334C384.273 193.865 383.867 194.227 383.688 194.418C383.508 194.605 383.359 194.795 383.242 194.986H387.455ZM388.592 193.75L389.699 193.656C389.781 194.195 389.971 194.602 390.268 194.875C390.568 195.145 390.93 195.279 391.352 195.279C391.859 195.279 392.289 195.088 392.641 194.705C392.992 194.322 393.168 193.814 393.168 193.182C393.168 192.58 392.998 192.105 392.658 191.758C392.322 191.41 391.881 191.236 391.334 191.236C390.994 191.236 390.688 191.314 390.414 191.471C390.141 191.623 389.926 191.822 389.77 192.068L388.779 191.939L389.611 187.527H393.883V188.535H390.455L389.992 190.844C390.508 190.484 391.049 190.305 391.615 190.305C392.365 190.305 392.998 190.564 393.514 191.084C394.029 191.604 394.287 192.271 394.287 193.088C394.287 193.865 394.061 194.537 393.607 195.104C393.057 195.799 392.305 196.146 391.352 196.146C390.57 196.146 389.932 195.928 389.436 195.49C388.943 195.053 388.662 194.473 388.592 193.75ZM395.863 196V194.799H397.064V196H395.863ZM398.611 191.764C398.611 190.748 398.715 189.932 398.922 189.314C399.133 188.693 399.443 188.215 399.854 187.879C400.268 187.543 400.787 187.375 401.412 187.375C401.873 187.375 402.277 187.469 402.625 187.656C402.973 187.84 403.26 188.107 403.486 188.459C403.713 188.807 403.891 189.232 404.02 189.736C404.148 190.236 404.213 190.912 404.213 191.764C404.213 192.771 404.109 193.586 403.902 194.207C403.695 194.824 403.385 195.303 402.971 195.643C402.561 195.979 402.041 196.146 401.412 196.146C400.584 196.146 399.934 195.85 399.461 195.256C398.895 194.541 398.611 193.377 398.611 191.764ZM399.695 191.764C399.695 193.174 399.859 194.113 400.188 194.582C400.52 195.047 400.928 195.279 401.412 195.279C401.896 195.279 402.303 195.045 402.631 194.576C402.963 194.107 403.129 193.17 403.129 191.764C403.129 190.35 402.963 189.41 402.631 188.945C402.303 188.48 401.893 188.248 401.4 188.248C400.916 188.248 400.529 188.453 400.24 188.863C399.877 189.387 399.695 190.354 399.695 191.764ZM405.49 189.473C405.49 188.859 405.645 188.338 405.953 187.908C406.262 187.479 406.709 187.264 407.295 187.264C407.834 187.264 408.279 187.457 408.631 187.844C408.986 188.227 409.164 188.791 409.164 189.537C409.164 190.264 408.984 190.824 408.625 191.219C408.27 191.609 407.83 191.805 407.307 191.805C406.787 191.805 406.354 191.611 406.006 191.225C405.662 190.838 405.49 190.254 405.49 189.473ZM407.324 187.99C407.062 187.99 406.844 188.104 406.668 188.33C406.496 188.557 406.41 188.973 406.41 189.578C406.41 190.129 406.498 190.518 406.674 190.744C406.85 190.967 407.066 191.078 407.324 191.078C407.59 191.078 407.809 190.965 407.98 190.738C408.156 190.512 408.244 190.098 408.244 189.496C408.244 188.941 408.156 188.553 407.98 188.33C407.805 188.104 407.586 187.99 407.324 187.99ZM407.33 196.316L412.029 187.264H412.885L408.203 196.316H407.33ZM411.045 193.984C411.045 193.367 411.199 192.846 411.508 192.42C411.816 191.99 412.266 191.775 412.855 191.775C413.395 191.775 413.84 191.969 414.191 192.355C414.547 192.738 414.725 193.303 414.725 194.049C414.725 194.775 414.545 195.336 414.186 195.73C413.83 196.121 413.389 196.316 412.861 196.316C412.342 196.316 411.908 196.123 411.561 195.736C411.217 195.346 411.045 194.762 411.045 193.984ZM412.885 192.502C412.619 192.502 412.398 192.615 412.223 192.842C412.051 193.068 411.965 193.484 411.965 194.09C411.965 194.637 412.053 195.023 412.229 195.25C412.404 195.477 412.621 195.59 412.879 195.59C413.148 195.59 413.369 195.477 413.541 195.25C413.717 195.023 413.805 194.609 413.805 194.008C413.805 193.453 413.717 193.064 413.541 192.842C413.365 192.615 413.146 192.502 412.885 192.502ZM416.951 198.525H416.195C417.363 196.65 417.947 194.773 417.947 192.895C417.947 192.16 417.863 191.432 417.695 190.709C417.562 190.123 417.377 189.561 417.139 189.021C416.986 188.67 416.672 188.084 416.195 187.264H416.951C417.686 188.244 418.229 189.229 418.58 190.217C418.881 191.068 419.031 191.959 419.031 192.889C419.031 193.943 418.828 194.963 418.422 195.947C418.02 196.932 417.529 197.791 416.951 198.525Z" fill="black"/>
<path d="M41.8887 93V83.6943H43.7676V93H41.8887ZM45.0879 89.9722L46.916 89.7944C47.026 90.408 47.2482 90.8587 47.5825 91.1465C47.9211 91.4342 48.376 91.5781 48.9473 91.5781C49.5524 91.5781 50.0073 91.4512 50.312 91.1973C50.6209 90.9391 50.7754 90.6387 50.7754 90.2959C50.7754 90.0758 50.7098 89.8896 50.5786 89.7373C50.4517 89.5807 50.2274 89.4453 49.9058 89.3311C49.6857 89.2549 49.1842 89.1195 48.4014 88.9248C47.3942 88.6751 46.6875 88.3683 46.2812 88.0044C45.71 87.4924 45.4243 86.8682 45.4243 86.1318C45.4243 85.6579 45.5576 85.2157 45.8242 84.8052C46.0951 84.3905 46.4823 84.0752 46.9858 83.8594C47.4937 83.6436 48.1051 83.5356 48.8203 83.5356C49.9883 83.5356 50.8664 83.7917 51.4546 84.3037C52.047 84.8158 52.3581 85.4992 52.3877 86.354L50.5088 86.4365C50.4284 85.9583 50.2549 85.6156 49.9883 85.4082C49.7259 85.1966 49.3302 85.0908 48.8013 85.0908C48.2554 85.0908 47.828 85.203 47.519 85.4272C47.3201 85.5711 47.2207 85.7637 47.2207 86.0049C47.2207 86.2249 47.3138 86.4132 47.5 86.5698C47.737 86.7687 48.3125 86.9761 49.2266 87.1919C50.1406 87.4077 50.8156 87.632 51.2515 87.8647C51.6916 88.0933 52.0343 88.4085 52.2798 88.8105C52.5295 89.2083 52.6543 89.7013 52.6543 90.2896C52.6543 90.8228 52.5062 91.3221 52.21 91.7876C51.9137 92.2531 51.4948 92.6001 50.9531 92.8286C50.4115 93.0529 49.7365 93.165 48.9282 93.165C47.7518 93.165 46.8483 92.8942 46.2178 92.3525C45.5872 91.8066 45.2106 91.0132 45.0879 89.9722ZM54.2476 93V83.6943H60.627V85.2686H56.1265V87.4712H60.0112V89.0454H56.1265V93H54.2476ZM65.54 83.6943H67.4126V89.585C67.4126 90.3551 67.3449 90.9476 67.2095 91.3623C67.0275 91.904 66.6974 92.3398 66.2192 92.6699C65.741 92.9958 65.1105 93.1587 64.3276 93.1587C63.4093 93.1587 62.7026 92.9027 62.2075 92.3906C61.7124 91.8743 61.4627 91.119 61.4585 90.1245L63.2295 89.9214C63.2507 90.4546 63.3289 90.8312 63.4644 91.0513C63.6675 91.3856 63.9764 91.5527 64.3911 91.5527C64.8101 91.5527 65.1063 91.4342 65.2798 91.1973C65.4533 90.9561 65.54 90.4588 65.54 89.7056V83.6943Z" fill="white"/>
<path d="M193.889 93V83.6943H195.768V93H193.889ZM197.583 93V83.6943H199.411L203.22 89.9087V83.6943H204.965V93H203.08L199.329 86.9316V93H197.583ZM206.971 93V83.6943H213.351V85.2686H208.85V87.4712H212.735V89.0454H208.85V93H206.971ZM214.906 93V83.6943H217.921C219.063 83.6943 219.808 83.7409 220.155 83.834C220.688 83.9736 221.135 84.2783 221.495 84.748C221.854 85.2135 222.034 85.8166 222.034 86.5571C222.034 87.1284 221.931 87.6087 221.723 87.998C221.516 88.3874 221.251 88.6942 220.93 88.9185C220.612 89.1385 220.289 89.2845 219.958 89.3564C219.51 89.4453 218.86 89.4897 218.01 89.4897H216.785V93H214.906ZM216.785 85.2686V87.9092H217.813C218.554 87.9092 219.049 87.8605 219.298 87.7632C219.548 87.6659 219.743 87.5135 219.882 87.3062C220.026 87.0988 220.098 86.8576 220.098 86.5825C220.098 86.244 219.999 85.9647 219.8 85.7446C219.601 85.5246 219.349 85.387 219.044 85.332C218.82 85.2897 218.369 85.2686 217.692 85.2686H216.785Z" fill="white"/>
<path d="M50.8887 229V219.694H52.7676V229H50.8887ZM54.583 229V219.694H56.4111L60.2197 225.909V219.694H61.9653V229H60.0801L56.3286 222.932V229H54.583ZM66.0532 229V221.269H63.292V219.694H70.687V221.269H67.9321V229H66.0532ZM71.9058 229V219.694H74.9209C76.0635 219.694 76.8083 219.741 77.1553 219.834C77.6885 219.974 78.1349 220.278 78.4946 220.748C78.8543 221.214 79.0342 221.817 79.0342 222.557C79.0342 223.128 78.9305 223.609 78.7231 223.998C78.5158 224.387 78.2513 224.694 77.9297 224.918C77.6123 225.139 77.2886 225.285 76.9585 225.356C76.5099 225.445 75.8604 225.49 75.0098 225.49H73.7847V229H71.9058ZM73.7847 221.269V223.909H74.813C75.5535 223.909 76.0487 223.861 76.2983 223.763C76.548 223.666 76.7427 223.514 76.8823 223.306C77.0262 223.099 77.0981 222.858 77.0981 222.583C77.0981 222.244 76.9987 221.965 76.7998 221.745C76.6009 221.525 76.3491 221.387 76.0444 221.332C75.8201 221.29 75.3695 221.269 74.6924 221.269H73.7847Z" fill="white"/>
<path d="M178.946 229V219.694H185.846V221.269H180.825V223.332H185.497V224.899H180.825V227.432H186.023V229H178.946ZM187.636 229V219.694H189.464L193.272 225.909V219.694H195.018V229H193.133L189.381 222.932V229H187.636ZM199.106 229V221.269H196.345V219.694H203.74V221.269H200.985V229H199.106ZM204.958 229V219.694H207.974C209.116 219.694 209.861 219.741 210.208 219.834C210.741 219.974 211.188 220.278 211.547 220.748C211.907 221.214 212.087 221.817 212.087 222.557C212.087 223.128 211.983 223.609 211.776 223.998C211.569 224.387 211.304 224.694 210.982 224.918C210.665 225.139 210.341 225.285 210.011 225.356C209.563 225.445 208.913 225.49 208.062 225.49H206.837V229H204.958ZM206.837 221.269V223.909H207.866C208.606 223.909 209.101 223.861 209.351 223.763C209.601 223.666 209.795 223.514 209.935 223.306C210.079 223.099 210.151 222.858 210.151 222.583C210.151 222.244 210.051 221.965 209.853 221.745C209.654 221.525 209.402 221.387 209.097 221.332C208.873 221.29 208.422 221.269 207.745 221.269H206.837Z" fill="white"/>
<defs>
<linearGradient id="paint0_linear_55_189" x1="195" y1="150" x2="195" y2="280" gradientUnits="userSpaceOnUse">
<stop stop-color="#76D5FC"/>
<stop offset="1" stop-color="#6EC5EE"/>
</linearGradient>
<linearGradient id="paint1_linear_55_189" x1="65" y1="150" x2="65" y2="280" gradientUnits="userSpaceOnUse">
<stop stop-color="#F5EA6F"/>
<stop offset="1" stop-color="#D2D862"/>
</linearGradient>
<linearGradient id="paint2_linear_55_189" x1="65" y1="20" x2="65" y2="150" gradientUnits="userSpaceOnUse">
<stop stop-color="#EC8934"/>
<stop offset="1" stop-color="#EA6A35"/>
</linearGradient>
<linearGradient id="paint3_linear_55_189" x1="195" y1="20" x2="195" y2="150" gradientUnits="userSpaceOnUse">
<stop stop-color="#85E5A7"/>
<stop offset="1" stop-color="#6CD8A0"/>
</linearGradient>
<linearGradient id="paint4_linear_55_189" x1="310" y1="98" x2="310" y2="118" gradientUnits="userSpaceOnUse">
<stop stop-color="#76D5FC"/>
<stop offset="1" stop-color="#6EC5EE"/>
</linearGradient>
<linearGradient id="paint5_linear_55_189" x1="310" y1="126" x2="310" y2="146" gradientUnits="userSpaceOnUse">
<stop stop-color="#85E5A7"/>
<stop offset="1" stop-color="#6CD8A0"/>
</linearGradient>
<linearGradient id="paint6_linear_55_189" x1="310" y1="154" x2="310" y2="174" gradientUnits="userSpaceOnUse">
<stop stop-color="#F5EA6F"/>
<stop offset="1" stop-color="#D2D862"/>
</linearGradient>
<linearGradient id="paint7_linear_55_189" x1="310" y1="182" x2="310" y2="202" gradientUnits="userSpaceOnUse">
<stop stop-color="#EC8934"/>
<stop offset="1" stop-color="#EA6A35"/>
</linearGradient>
</defs>
</svg>
