<svg width="1062" height="1071" viewBox="0 0 1062 1071" fill="none" xmlns="http://www.w3.org/2000/svg">
<path d="M608.227 132.339C562.288 188.764 493.915 186.196 465.471 177.859C430.586 -24.7289 37.7369 5.28502 82.818 108.83C84.3436 111.083 85.7942 113.761 87.169 116.833C146.945 250.39 111.038 439.461 59.2041 559.525C15.8403 659.968 108.757 877.495 160.637 973.704C231.478 1064.74 903.822 1047.24 837.39 840.146C773.525 641.06 760.108 477.489 820.753 290.908C881.398 104.327 665.652 61.809 608.227 132.339Z" fill="#26185C"/>
<path d="M450.759 186.778C442.503 166.587 453.536 146.843 473.727 138.589C493.918 130.333 515.622 136.692 523.877 156.883C532.132 177.074 522.457 200.134 502.266 208.39C482.075 216.644 459.015 206.969 450.759 186.778Z" fill="#FAD857"/>
<path d="M449.207 182.134C449.617 183.676 450.125 185.224 450.76 186.777C450.901 187.12 451.056 187.451 451.204 187.788C462.235 187.799 476.747 185.64 493.073 177.715C502.904 172.942 515.819 163.73 522.761 154.423C521.661 152.186 520.39 150.137 518.961 148.285C499.439 169.766 469.056 178.565 449.207 182.134Z" fill="#FAAE57"/>
<path d="M462.29 202.394C464.102 203.875 466.04 205.177 468.071 206.309C477.233 206.036 489.147 203.976 502.575 197.515C510.017 193.934 519.577 187.458 525.802 180.684C526.521 177.571 526.866 174.36 526.808 171.117C509.048 191.656 479.395 199.488 462.29 202.394Z" fill="#FAAE57"/>
<path d="M449.353 163.875C448.92 165.35 448.579 166.853 448.353 168.386C457.43 168.731 470.01 167.315 484.327 160.364C492.854 156.225 504.271 147.917 509.378 139.859C507.792 138.935 506.134 138.147 504.416 137.491C488.816 154.133 465.034 161.038 449.353 163.875Z" fill="#FAAE57"/>
<path d="M448.866 180.776C459.512 178.889 478.53 173.874 482.103 171.523C486.796 168.437 483.124 166.414 473.567 168.625C467.183 170.101 455.244 172.464 448.012 173.873C448.058 176.141 448.341 178.448 448.866 180.776Z" fill="#FAE182"/>
<path d="M476.3 155.936C475.591 156.28 474.91 156.627 474.171 156.97C474.904 156.654 475.609 156.303 476.3 155.936Z" fill="#FAE182"/>
<path d="M526.295 165.468C522.875 168.857 518.385 172.239 512.538 174.73C495.2 182.116 484.828 191.73 493.19 189.159C500.186 187.008 513.771 184.628 526.704 174.77C526.936 171.701 526.806 168.581 526.295 165.468Z" fill="#FAE182"/>
<path d="M494.2 135.206C491.127 141.92 485.501 151.058 476.3 155.936C490.852 148.869 499.349 141.47 503.497 137.15C500.54 136.113 497.419 135.464 494.2 135.206Z" fill="#FAE182"/>
<path d="M509.864 199.309C510.275 196.393 484.521 205.624 474.698 209.245C480.414 211.176 486.584 211.818 492.746 210.96C500.551 206.688 509.577 201.341 509.864 199.309Z" fill="#FAE182"/>
<path d="M510.713 140.683C510.228 140.37 509.736 140.068 509.236 139.78C507.074 142.845 502.299 149.088 497.254 152.267C504.672 147.452 508.759 143.119 510.713 140.683Z" fill="#FA9C2F"/>
<path d="M483.808 181.745C474.546 185.774 451.202 187.789 451.202 187.789C451.88 189.324 452.635 190.803 453.478 192.208C461.191 190.659 481.043 184.178 483.808 181.745Z" fill="#FA9C2F"/>
<path d="M501.518 197.912C490.85 203.748 475.234 205.65 467.952 206.241C469.228 206.958 470.538 207.608 471.883 208.179C481.374 206.168 497.816 201.727 501.518 197.912Z" fill="#FA9C2F"/>
<path opacity="0.1" d="M487.996 211.193C509.809 211.193 527.492 193.51 527.492 171.696C527.492 160.271 522.635 150.969 514.881 144.693C514.035 162.655 507.65 197.435 471.912 207.768C476.827 209.962 482.267 211.193 487.996 211.193Z" fill="black"/>
<path d="M916.328 664.515C942.664 718.798 789.537 825.061 721.288 676.45C653.039 527.839 704.703 272.083 785.191 292.685C865.679 313.288 763.532 469.367 692.501 375.466C621.473 281.567 622.853 128.08 488.331 186.422" stroke="white" stroke-miterlimit="10" stroke-linecap="round" stroke-dasharray="1 10"/>
<path d="M144.971 434.851C144.968 434.093 141.528 433.725 134.166 433.399C134.128 430.374 133.964 422.67 133.284 422.671C132.529 422.672 132.202 426.06 131.881 433.367C128.919 433.433 121.103 433.672 121.104 434.358C121.105 435.116 124.499 435.75 131.895 436.104C132.057 439.299 132.496 446.54 133.155 446.537C133.899 446.536 133.852 443.23 134.12 436.109C137.093 435.97 144.972 435.537 144.971 434.851Z" fill="white"/>
<path d="M155.588 755.683C155.587 754.925 152.145 754.557 144.784 754.231C144.746 751.206 144.581 743.502 143.902 743.503C143.147 743.504 142.819 746.892 142.498 754.199C139.537 754.265 131.72 754.504 131.722 755.19C131.723 755.948 135.117 756.582 142.513 756.936C142.675 760.132 143.113 767.372 143.773 767.369C144.518 767.368 144.47 764.062 144.738 756.941C147.713 756.802 155.591 756.369 155.588 755.683Z" fill="white"/>
<path d="M447.576 300.129C447.574 299.372 444.133 299.003 436.771 298.677C436.733 295.653 436.569 287.948 435.889 287.949C435.134 287.951 434.807 291.338 434.486 298.646C431.524 298.711 423.708 298.951 423.709 299.636C423.711 300.395 427.105 301.029 434.5 301.382C434.662 304.578 435.101 311.818 435.76 311.816C436.505 311.814 436.457 308.508 436.725 301.388C439.699 301.248 447.578 300.814 447.576 300.129Z" fill="white"/>
<path d="M445.002 747.152C445 746.394 441.56 746.026 434.198 745.7C434.16 742.675 433.995 734.97 433.316 734.972C432.561 734.974 432.233 738.361 431.912 745.668C428.951 745.734 421.134 745.973 421.136 746.658C421.137 747.417 424.531 748.051 431.927 748.405C432.089 751.6 432.528 758.841 433.187 758.838C433.931 758.837 433.884 755.531 434.152 748.41C437.125 748.271 445.004 747.837 445.002 747.152Z" fill="white"/>
<path d="M324.284 462.602C324.284 461.206 325.416 460.073 326.813 460.073C328.21 460.073 329.342 461.206 329.342 462.602C329.342 463.999 328.21 465.132 326.813 465.132C325.418 465.133 324.284 463.999 324.284 462.602Z" fill="white"/>
<path d="M585.316 651.114C585.316 649.717 586.449 648.585 587.846 648.585C589.243 648.585 590.375 649.717 590.375 651.114C590.375 652.511 589.243 653.643 587.846 653.643C586.449 653.645 585.316 652.513 585.316 651.114Z" fill="white"/>
<path d="M446.355 1065.25C446.355 1063.86 447.488 1062.72 448.885 1062.72C450.282 1062.72 451.414 1063.86 451.414 1065.25C451.414 1066.65 450.282 1067.78 448.885 1067.78C447.488 1067.78 446.355 1066.65 446.355 1065.25Z" fill="white"/>
<path d="M899.047 802.768C899.047 801.371 900.179 800.238 901.576 800.238C902.973 800.238 904.105 801.371 904.105 802.768C904.105 804.164 902.973 805.297 901.576 805.297C900.179 805.297 899.047 804.164 899.047 802.768Z" fill="white"/>
<path d="M915.593 601.813C915.593 600.416 916.725 599.284 918.122 599.284C919.519 599.284 920.651 600.416 920.651 601.813C920.651 603.21 919.519 604.343 918.122 604.343C916.725 604.343 915.593 603.21 915.593 601.813Z" fill="white"/>
<path d="M888.092 471.844C888.092 470.447 889.224 469.314 890.621 469.314C892.018 469.314 893.15 470.447 893.15 471.844C893.15 473.241 892.018 474.373 890.621 474.373C889.224 474.373 888.092 473.241 888.092 471.844Z" fill="#FCE376"/>
<path d="M400.267 485.144C400.267 483.748 401.4 482.615 402.797 482.615C404.193 482.615 405.326 483.748 405.326 485.144C405.326 486.541 404.193 487.674 402.797 487.674C401.4 487.675 400.267 486.541 400.267 485.144Z" fill="#FCE376"/>
<path d="M329.002 828.255C329.002 826.858 330.134 825.726 331.531 825.726C332.928 825.726 334.06 826.858 334.06 828.255C334.06 829.652 332.928 830.784 331.531 830.784C330.134 830.784 329.002 829.652 329.002 828.255Z" fill="#FCE376"/>
<path d="M652.458 700.352C652.458 698.956 653.591 697.823 654.988 697.823C656.385 697.823 657.517 698.956 657.517 700.352C657.517 701.749 656.385 702.882 654.988 702.882C653.591 702.882 652.458 701.749 652.458 700.352Z" fill="#FCE376"/>
<path d="M529.475 1027.66C529.475 1026.26 530.607 1025.13 532.004 1025.13C533.401 1025.13 534.533 1026.26 534.533 1027.66C534.533 1029.05 533.401 1030.19 532.004 1030.19C530.609 1030.19 529.475 1029.05 529.475 1027.66Z" fill="#FCE376"/>
<path d="M771.777 753.024C771.777 751.627 772.91 750.495 774.307 750.495C775.703 750.495 776.836 751.627 776.836 753.024C776.836 754.421 775.703 755.554 774.307 755.554C772.91 755.555 771.777 754.423 771.777 753.024Z" fill="#FCE376"/>
<path d="M314.356 963.529C314.356 962.132 315.488 961 316.885 961C318.282 961 319.414 962.132 319.414 963.529C319.414 964.926 318.282 966.058 316.885 966.058C315.488 966.058 314.356 964.926 314.356 963.529Z" fill="#FCE376"/>
<path d="M853.547 852.456C853.547 851.059 854.68 849.927 856.077 849.927C857.473 849.927 858.606 851.059 858.606 852.456C858.606 853.853 857.473 854.985 856.077 854.985C854.681 854.987 853.547 853.855 853.547 852.456Z" fill="#FCE376"/>
<path d="M278.292 1041.96C278.292 1040.57 279.425 1039.43 280.822 1039.43C282.219 1039.43 283.351 1040.57 283.351 1041.96C283.351 1043.36 282.219 1044.49 280.822 1044.49C279.425 1044.49 278.292 1043.36 278.292 1041.96Z" fill="#FCE376"/>
<path d="M309.312 528.379C309.312 526.982 310.444 525.85 311.841 525.85C313.238 525.85 314.37 526.982 314.37 528.379C314.37 529.776 313.238 530.908 311.841 530.908C310.444 530.908 309.312 529.776 309.312 528.379Z" fill="#FCE376"/>
<path d="M210.842 721.255C210.842 719.858 211.974 718.726 213.371 718.726C214.768 718.726 215.9 719.858 215.9 721.255C215.9 722.652 214.768 723.784 213.371 723.784C211.974 723.784 210.842 722.652 210.842 721.255Z" fill="#FCE376"/>
<path d="M816.47 611.081C816.47 609.684 817.602 608.552 818.999 608.552C820.396 608.552 821.528 609.684 821.528 611.081C821.528 612.478 820.396 613.61 818.999 613.61C817.602 613.61 816.47 612.478 816.47 611.081Z" fill="white"/>
<path d="M712.447 951.268C712.447 949.871 713.579 948.738 714.976 948.738C716.373 948.738 717.505 949.871 717.505 951.268C717.505 952.664 716.373 953.797 714.976 953.797C713.579 953.797 712.447 952.664 712.447 951.268Z" fill="white"/>
<path d="M913.063 1044.49C913.063 1043.1 914.196 1041.96 915.593 1041.96C916.99 1041.96 918.122 1043.1 918.122 1044.49C918.122 1045.89 916.99 1047.02 915.593 1047.02C914.196 1047.02 913.063 1045.89 913.063 1044.49Z" fill="white"/>
<path d="M620.473 492.433C620.473 491.036 621.605 489.903 623.002 489.903C624.399 489.903 625.531 491.036 625.531 492.433C625.531 493.829 624.399 494.962 623.002 494.962C621.605 494.962 620.473 493.829 620.473 492.433Z" fill="white"/>
<path d="M370.747 748.653C370.747 747.256 371.879 746.124 373.276 746.124C374.673 746.124 375.805 747.256 375.805 748.653C375.805 750.05 374.673 751.182 373.276 751.182C371.879 751.182 370.747 750.05 370.747 748.653Z" fill="white"/>
<path d="M304.512 898.192C304.512 896.795 305.644 895.663 307.041 895.663C308.438 895.663 309.57 896.795 309.57 898.192C309.57 899.589 308.438 900.722 307.041 900.722C305.644 900.723 304.512 899.591 304.512 898.192Z" fill="white"/>
<path d="M210.842 1067.78C210.842 1066.39 211.974 1065.25 213.371 1065.25C214.768 1065.25 215.9 1066.39 215.9 1067.78C215.9 1069.18 214.768 1070.31 213.371 1070.31C211.974 1070.31 210.842 1069.18 210.842 1067.78Z" fill="white"/>
<path d="M579.903 977.538C579.903 976.141 581.035 975.009 582.432 975.009C583.829 975.009 584.961 976.141 584.961 977.538C584.961 978.935 583.829 980.067 582.432 980.067C581.035 980.067 579.903 978.935 579.903 977.538Z" fill="white"/>
<path d="M206.911 599.609C206.911 598.212 208.043 597.08 209.44 597.08C210.837 597.08 211.969 598.212 211.969 599.609C211.969 601.006 210.837 602.139 209.44 602.139C208.043 602.139 206.911 601.006 206.911 599.609Z" fill="white"/>
<path d="M196 894.308C196 892.912 197.132 891.779 198.529 891.779C199.926 891.779 201.058 892.912 201.058 894.308C201.058 895.705 199.926 896.838 198.529 896.838C197.132 896.838 196 895.705 196 894.308Z" fill="white"/>
<path d="M599.799 185.536C599.797 184.779 596.356 184.411 588.994 184.084C588.956 181.06 588.792 173.355 588.112 173.356C587.357 173.358 587.03 176.745 586.709 184.053C583.747 184.119 575.931 184.358 575.932 185.043C575.933 185.802 579.328 186.436 586.723 186.79C586.885 189.985 587.323 197.226 587.983 197.223C588.729 197.222 588.68 193.916 588.948 186.795C591.923 186.655 599.801 186.223 599.799 185.536Z" fill="white"/>
<path d="M889.213 177.005C889.21 176.248 885.77 175.879 878.408 175.553C878.37 172.529 878.206 164.824 877.526 164.825C876.771 164.828 876.444 168.214 876.123 175.522C873.161 175.587 865.345 175.827 865.346 176.512C865.348 177.271 868.742 177.905 876.137 178.258C876.299 181.454 876.738 188.694 877.397 188.692C878.141 188.69 878.094 185.384 878.362 178.264C881.336 178.124 889.214 177.69 889.213 177.005Z" fill="white"/>
<path d="M385.355 104.253C385.355 102.856 386.488 101.724 387.885 101.724C389.282 101.724 390.414 102.856 390.414 104.253C390.414 105.65 389.282 106.782 387.885 106.782C386.488 106.782 385.355 105.65 385.355 104.253Z" fill="white"/>
<path d="M812.178 214.831C812.178 213.434 813.31 212.302 814.707 212.302C816.104 212.302 817.236 213.434 817.236 214.831C817.236 216.228 816.104 217.36 814.707 217.36C813.31 217.36 812.178 216.228 812.178 214.831Z" fill="white"/>
<path d="M518.903 148.386C518.903 146.989 520.035 145.856 521.432 145.856C522.829 145.856 523.961 146.989 523.961 148.386C523.961 149.783 522.829 150.915 521.432 150.915C520.035 150.915 518.903 149.783 518.903 148.386Z" fill="#FCE376"/>
<path d="M468.475 66.6562C468.475 65.2593 469.607 64.127 471.004 64.127C472.401 64.127 473.533 65.2593 473.533 66.6562C473.533 68.0531 472.401 69.1854 471.004 69.1854C469.609 69.1854 468.475 68.0531 468.475 66.6562Z" fill="#FCE376"/>
<path d="M734.546 245.093C734.546 243.696 735.678 242.563 737.075 242.563C738.472 242.563 739.605 243.696 739.605 245.093C739.605 246.49 738.472 247.622 737.075 247.622C735.678 247.622 734.546 246.49 734.546 245.093Z" fill="#FCE376"/>
<path d="M253.356 2.52923C253.356 1.13232 254.488 0 255.885 0C257.282 0 258.414 1.13232 258.414 2.52923C258.414 3.92613 257.282 5.05845 255.885 5.05845C254.488 5.05845 253.356 3.92613 253.356 2.52923Z" fill="#FCE376"/>
<path d="M217.292 80.9628C217.292 79.5659 218.425 78.4336 219.822 78.4336C221.219 78.4336 222.351 79.5659 222.351 80.9628C222.351 82.3597 221.219 83.492 219.822 83.492C218.425 83.4937 217.292 82.3597 217.292 80.9628Z" fill="#FCE376"/>
<path d="M852.063 83.4931C852.063 82.0962 853.196 80.9639 854.593 80.9639C855.99 80.9639 857.122 82.0962 857.122 83.4931C857.122 84.89 855.99 86.0223 854.593 86.0223C853.196 86.0223 852.063 84.8884 852.063 83.4931Z" fill="white"/>
<path d="M149.842 106.782C149.842 105.385 150.974 104.253 152.371 104.253C153.768 104.253 154.9 105.385 154.9 106.782C154.9 108.179 153.768 109.311 152.371 109.311C150.974 109.311 149.842 108.179 149.842 106.782Z" fill="white"/>
<path d="M518.903 16.538C518.903 15.1411 520.035 14.0088 521.432 14.0088C522.829 14.0088 523.961 15.1411 523.961 16.538C523.961 17.9349 522.829 19.0672 521.432 19.0672C520.035 19.0672 518.903 17.9349 518.903 16.538Z" fill="white"/>
<path d="M834.231 1029.98C854.793 1029.98 871.462 1013.88 871.462 994.027C871.462 974.17 854.793 958.073 834.231 958.073C813.669 958.073 797 974.17 797 994.027C797 1013.88 813.669 1029.98 834.231 1029.98Z" fill="#94DEF2"/>
<path d="M838.398 999.579C833.76 1002.94 827.385 1012.43 835.21 1027.52C835.659 1028.38 836.127 1029.17 836.607 1029.9C845.034 1029.41 852.696 1026.32 858.68 1021.37C859.228 1014.9 858.94 1008.12 856.076 1004.78C849.701 997.35 843.035 996.222 838.398 999.579Z" fill="#B4C960"/>
<path d="M819.856 1027.3C820.486 1023.95 826.825 1008.32 824.232 1001.27C821.146 992.879 807.212 995.941 814.02 987.644C820.828 979.347 820.615 980.198 817.849 974.879C816.378 972.049 810.871 970.485 805.623 970.729C801.111 975.909 798.113 982.41 797.258 989.715C800.792 994.783 808.775 997.025 810.19 1001.27C811.891 1006.37 805.937 1012.32 807.367 1019.18C810.874 1022.66 815.113 1025.44 819.856 1027.3Z" fill="#B4C960"/>
<path d="M871.332 991.052C870.329 978.493 863.026 968.168 852.559 962.585C850.499 965.085 847.327 967.669 842.344 970.199C828.515 977.22 828.09 984.551 830.643 989.289C833.196 994.027 838.089 995.535 838.089 991.058C838.089 986.581 840.277 979.986 843.119 983.815C845.961 987.644 852.556 988.556 856.811 987.568C861.066 986.58 871.065 993.736 871.065 993.736L871.332 991.052Z" fill="#B4C960"/>
<path opacity="0.1" d="M834.231 1029.98C854.793 1029.98 871.462 1014.59 871.462 994.028C871.462 981.9 865.66 971.573 856.683 965.14C856.386 986.648 850.994 1022.2 819.183 1027.02C823.785 1028.93 828.874 1029.98 834.231 1029.98Z" fill="black"/>
<path d="M844.362 90.2098L839.224 92.7878C838.955 92.9228 838.625 92.8128 838.49 92.5448L838.129 91.8258C837.994 91.5568 838.104 91.2268 838.372 91.0918L843.51 88.5138C843.779 88.3788 844.109 88.4888 844.244 88.7568L844.605 89.4758C844.74 89.7448 844.631 90.0748 844.362 90.2098Z" fill="#87989C"/>
<path d="M856.47 84.6258L851.332 87.2038C851.063 87.3388 850.733 87.2288 850.598 86.9608L850.237 86.2418C850.102 85.9728 850.212 85.6428 850.48 85.5078L855.618 82.9298C855.887 82.7948 856.217 82.9048 856.352 83.1728L856.712 83.8918C856.848 84.1608 856.738 84.4908 856.47 84.6258Z" fill="#87989C"/>
<path d="M836.952 85.2909L817 95.3027L822.677 106.616L842.629 96.6037L836.952 85.2909Z" fill="#A2B6BA" stroke="white" stroke-width="0.5" stroke-miterlimit="10"/>
<path d="M820.669 93.457L826.345 104.77" stroke="white" stroke-width="0.5" stroke-miterlimit="10"/>
<path d="M824.659 91.4551L830.335 102.768" stroke="white" stroke-width="0.5" stroke-miterlimit="10"/>
<path d="M828.65 89.4521L834.326 100.766" stroke="white" stroke-width="0.5" stroke-miterlimit="10"/>
<path d="M832.64 87.4502L838.316 98.7632" stroke="white" stroke-width="0.5" stroke-miterlimit="10"/>
<path d="M818.852 99.0374L838.804 89.0264" stroke="white" stroke-width="0.5" stroke-miterlimit="10"/>
<path d="M820.786 102.891L840.738 92.8799" stroke="white" stroke-width="0.5" stroke-miterlimit="10"/>
<path d="M872.242 68.0731L852.29 78.085L857.967 89.3978L877.919 79.3859L872.242 68.0731Z" fill="#A2B6BA" stroke="white" stroke-width="0.5" stroke-miterlimit="10"/>
<path d="M855.961 76.2393L861.637 87.5522" stroke="white" stroke-width="0.5" stroke-miterlimit="10"/>
<path d="M859.952 74.2373L865.628 85.5503" stroke="white" stroke-width="0.5" stroke-miterlimit="10"/>
<path d="M863.942 72.2354L869.618 83.5483" stroke="white" stroke-width="0.5" stroke-miterlimit="10"/>
<path d="M867.932 70.2324L873.608 81.5454" stroke="white" stroke-width="0.5" stroke-miterlimit="10"/>
<path d="M854.144 81.8196L874.096 71.8086" stroke="white" stroke-width="0.5" stroke-miterlimit="10"/>
<path d="M856.078 85.6741L876.03 75.6631" stroke="white" stroke-width="0.5" stroke-miterlimit="10"/>
<path d="M860.638 112.23C863.483 110.803 866.309 108.794 868.574 107.003C865.875 103.259 860.791 101.911 856.533 104.047C852.315 106.163 850.351 110.974 851.665 115.344C854.289 114.737 857.588 113.761 860.638 112.23Z" fill="#F29A7E"/>
<path d="M853.282 103.375L854.286 105.376C854.286 105.376 854.364 105.746 856.452 104.699C858.54 103.652 858.948 103.036 858.948 103.036L857.9 100.948L853.282 103.375Z" fill="#FA9C2F"/>
<path d="M843.904 79.6895C838.937 82.1815 838.262 81.1085 842.601 89.7565C846.94 98.4045 848.83 102.17 849.323 103.152C849.816 104.134 851.291 104.487 855.33 102.461C859.369 100.435 859.968 99.0415 859.475 98.0585C858.982 97.0765 857.093 93.3095 852.754 84.6625C848.414 76.0155 848.871 77.1975 843.904 79.6895Z" fill="#FAAE57"/>
<path d="M0.226043 1000.21C-1.51996 988.252 7.04904 979.106 19.01 977.36C30.972 975.614 41.7971 981.93 43.5431 993.892C45.2891 1005.85 37.0071 1016.97 25.0461 1018.71C13.0841 1020.46 1.97204 1012.18 0.226043 1000.21Z" fill="#A088D8"/>
<path opacity="0.4" d="M0.0109863 997.51C0.0269863 998.394 0.0929897 999.295 0.22699 1000.22C0.25699 1000.42 0.295994 1000.62 0.330994 1000.82C6.26299 1002.3 14.356 1003.07 24.195 1000.99C30.12 999.732 38.296 996.5 43.272 992.421C42.979 991.072 42.569 989.8 42.047 988.613C28.68 997.56 11.163 998.239 0.0109863 997.51Z" fill="#8850A0"/>
<path opacity="0.4" d="M4.34399 1010.15C5.12099 1011.19 5.99 1012.15 6.931 1013.03C11.895 1014.11 18.578 1014.59 26.662 1012.91C31.143 1011.97 37.149 1009.76 41.401 1006.95C42.203 1005.37 42.817 1003.69 43.219 1001.94C30.926 1010.62 13.932 1010.87 4.34399 1010.15Z" fill="#8850A0"/>
<path opacity="0.4" d="M2.526 987.709C2.096 988.445 1.71199 989.208 1.38599 990.002C6.22299 991.399 13.178 992.316 21.806 990.488C26.944 989.4 34.194 986.455 38.016 982.802C37.287 982.094 36.5 981.448 35.664 980.866C25.052 987.735 11.339 988.276 2.526 987.709Z" fill="#8850A0"/>
<path opacity="0.4" d="M0.0090332 996.734C5.98703 997.14 16.885 996.98 19.121 996.193C22.057 995.159 20.352 993.581 14.916 993.495C11.286 993.438 4.54803 993.115 0.470032 992.907C0.193032 994.133 0.0370332 995.412 0.0090332 996.734Z" fill="#B8A6E3"/>
<path d="M18.0801 987.034C17.6521 987.125 17.2401 987.221 16.7971 987.306C17.2331 987.235 17.6581 987.139 18.0801 987.034Z" fill="#FAE182"/>
<path opacity="0.4" d="M43.6981 998.834C41.4061 1000.2 38.5391 1001.42 35.0621 1001.98C24.7511 1003.64 17.8891 1007.43 22.7301 1007.16C26.7801 1006.94 34.4051 1007.47 42.6761 1003.89C43.2111 1002.27 43.5581 1000.58 43.6981 998.834Z" fill="#B8A6E3"/>
<path opacity="0.4" d="M30.4731 978.273C27.9251 981.474 23.6791 985.638 18.0791 987.034C26.8491 985.175 32.4071 982.329 35.2141 980.559C33.7621 979.607 32.1701 978.841 30.4731 978.273Z" fill="#B8A6E3"/>
<path opacity="0.4" d="M30.344 1014.84C30.954 1013.33 15.87 1014.86 10.103 1015.49C12.92 1017.29 16.153 1018.46 19.582 1018.82C24.35 1017.57 29.919 1015.9 30.344 1014.84Z" fill="#B8A6E3"/>
<path opacity="0.4" d="M38.6241 983.423C38.4051 983.189 38.1811 982.962 37.9501 982.74C36.3781 984.1 32.9771 986.821 29.8391 987.857C34.4721 986.257 37.2491 984.472 38.6241 983.423Z" fill="#77408F"/>
<path opacity="0.4" d="M18.6741 1001.92C13.1541 1002.85 0.330078 1000.82 0.330078 1000.82C0.490078 1001.73 0.698081 1002.63 0.964081 1003.5C5.31908 1003.69 16.8621 1002.86 18.6741 1001.92Z" fill="#77408F"/>
<path opacity="0.4" d="M26.041 1012.98C19.524 1014.69 10.871 1013.63 6.87598 1012.98C7.46598 1013.53 8.08396 1014.06 8.73096 1014.55C14.105 1014.73 23.541 1014.54 26.041 1012.98Z" fill="#77408F"/>
<path opacity="0.1" d="M22.028 1018.93C34.116 1018.93 43.916 1009.13 43.916 997.043C43.916 990.712 41.225 985.556 36.928 982.079C36.459 992.033 32.921 1011.31 13.115 1017.03C15.838 1018.25 18.853 1018.93 22.028 1018.93Z" fill="black"/>
<path d="M400.5 130.973C403.033 130.307 405.067 131.407 406.6 134.273L407.3 135.673L407.4 160.073C407.4 176.273 407.5 185.007 407.7 186.273C408.433 190.34 408.2 193.373 407 195.373C405.867 197.373 403.9 198.073 401.1 197.473C399.633 197.14 398.467 196.04 397.6 194.173L397 192.673L396.8 175.173C396.733 163.44 396.6 157.14 396.4 156.273C396.067 154.673 395.933 150.707 396 144.373C396.067 137.973 396.267 134.473 396.6 133.873C397.133 132.94 397.633 132.307 398.1 131.973C398.633 131.573 399.433 131.24 400.5 130.973Z" fill="#FAD857"/>
<path d="M389 135.073L414 135.073" stroke="#FAD857" stroke-width="9" stroke-linecap="round"/>
<path d="M388 193.073L418 193.073" stroke="#FAD857" stroke-width="9" stroke-linecap="round"/>
</svg>
