<svg width="943" height="1039" viewBox="0 0 943 1039" fill="none" xmlns="http://www.w3.org/2000/svg">
<path d="M153.284 2.52922C153.284 1.13232 154.416 0 155.813 0C157.21 0 158.342 1.13232 158.342 2.52922C158.342 3.92613 157.21 5.05845 155.813 5.05845C154.418 5.06009 153.284 3.92613 153.284 2.52922Z" fill="white"/>
<path d="M717.092 11.7704C717.092 10.3735 718.224 9.24121 719.621 9.24121C721.018 9.24121 722.15 10.3735 722.15 11.7704C722.15 13.1673 721.018 14.2997 719.621 14.2997C718.224 14.2997 717.092 13.1673 717.092 11.7704Z" fill="#FCE376"/>
<path d="M229.267 25.0712C229.267 23.6743 230.4 22.542 231.797 22.542C233.193 22.542 234.326 23.6743 234.326 25.0712C234.326 26.4681 233.193 27.6004 231.797 27.6004C230.4 27.6021 229.267 26.4681 229.267 25.0712Z" fill="#FCE376"/>
<path d="M449.472 32.3593C449.472 30.9624 450.605 29.8301 452.002 29.8301C453.399 29.8301 454.531 30.9624 454.531 32.3593C454.531 33.7562 453.399 34.8885 452.002 34.8885C450.605 34.8885 449.472 33.7562 449.472 32.3593Z" fill="white"/>
<path d="M465.316 966.041C465.316 964.644 466.449 963.512 467.846 963.512C469.243 963.512 470.375 964.644 470.375 966.041C470.375 967.438 469.243 968.57 467.846 968.57C466.449 968.572 465.316 967.439 465.316 966.041Z" fill="white"/>
<path d="M532.458 1015.28C532.458 1013.88 533.591 1012.75 534.988 1012.75C536.385 1012.75 537.517 1013.88 537.517 1015.28C537.517 1016.68 536.385 1017.81 534.988 1017.81C533.591 1017.81 532.458 1016.68 532.458 1015.28Z" fill="#FCE376"/>
<path d="M114 400C120 164 234.833 170 291.5 202.5C489 202.5 401.5 125.001 521.5 67.5006C641.5 10.0006 814 170.001 904 297.501C994 425.001 879 887.501 764 970.001C649 1052.5 441.5 1050 401.5 945.001C369.5 861.001 273.167 806.667 229 790.001C188.167 758.334 108 636 114 400Z" fill="#26185C" stroke="black"/>
<path d="M328.923 246.504C351.943 246.504 370.604 228.483 370.604 206.252C370.604 184.021 351.943 166 328.923 166C305.904 166 287.242 184.021 287.242 206.252C287.242 228.483 305.904 246.504 328.923 246.504Z" fill="#AEA9F2"/>
<path opacity="0.1" d="M328.923 246.503C351.943 246.503 370.604 229.271 370.604 206.251C370.604 192.673 364.108 181.113 354.058 173.91C353.726 197.989 347.689 237.787 312.076 243.186C317.229 245.324 322.925 246.503 328.923 246.503Z" fill="black"/>
<path d="M308.109 178.352C307.503 176.709 308.834 174.706 311.081 173.877C313.328 173.048 315.641 173.708 316.247 175.351C316.853 176.994 315.522 178.997 313.275 179.826C311.028 180.654 308.715 179.994 308.109 178.352Z" fill="#9C97D9"/>
<path d="M318.651 183.352C318.045 181.709 319.376 179.706 321.623 178.877C323.87 178.048 326.183 178.708 326.789 180.351C327.395 181.994 326.064 183.997 323.817 184.826C321.57 185.655 319.257 184.995 318.651 183.352Z" fill="#9C97D9"/>
<path d="M317.674 175.372C317.326 174.429 318.09 173.278 319.381 172.802C320.671 172.326 322 172.705 322.348 173.648C322.696 174.591 321.932 175.742 320.641 176.218C319.351 176.694 318.022 176.315 317.674 175.372Z" fill="#9C97D9"/>
<path d="M309.84 188.283C309.492 187.34 310.256 186.189 311.547 185.713C312.838 185.237 314.166 185.616 314.514 186.559C314.862 187.502 314.098 188.653 312.807 189.129C311.516 189.606 310.188 189.226 309.84 188.283Z" fill="#9C97D9"/>
<path d="M304.784 184.346C304.576 183.783 305.032 183.096 305.803 182.812C306.574 182.528 307.366 182.754 307.574 183.317C307.782 183.88 307.325 184.567 306.555 184.851C305.785 185.136 304.992 184.91 304.784 184.346Z" fill="#9C97D9"/>
<path d="M312.626 182.366C312.418 181.803 312.874 181.116 313.645 180.832C314.416 180.548 315.208 180.774 315.416 181.337C315.624 181.9 315.168 182.587 314.397 182.871C313.627 183.156 312.834 182.93 312.626 182.366Z" fill="#9C97D9"/>
<path d="M376.666 174.705C375.88 172.939 374.532 171.781 372.768 171.353C367.279 170.03 359.175 176.375 358.27 177.104C358.216 177.148 358.172 177.199 358.125 177.247C358.943 178.012 359.724 178.814 360.474 179.644C363.429 177.296 369.073 173.922 371.98 174.618C372.732 174.801 373.232 175.249 373.598 176.072C374.441 177.967 372.352 183.504 367.364 190.339C361.141 198.868 350.4 209.42 335.164 217.463C320.208 225.358 305.809 229.376 295.316 230.395C286.948 231.207 281.061 230.113 279.373 227.542C278.416 226.086 278.143 224.592 278.535 222.977C279.677 218.261 285.881 214.102 287.787 212.92C287.6 211.78 287.467 210.619 287.377 209.442C287.149 209.463 286.922 209.529 286.709 209.648C286.312 209.871 276.967 215.204 275.272 222.178C274.655 224.714 275.091 227.139 276.565 229.385C278.544 232.398 283.587 233.974 290.611 233.972C292.859 233.972 295.315 233.806 297.933 233.478C308.836 232.114 322.627 227.877 336.731 220.432C350.52 213.153 361.699 203.143 368.77 194.13C375.277 185.841 378.308 178.394 376.666 174.705Z" fill="#C9C6F2"/>
<path d="M183.65 860.431C189.487 920.481 375.559 931.298 356.294 768.903C337.03 606.508 159.574 415.224 101.64 474.777C43.7069 534.33 212.259 614.237 223.898 497.074C235.536 379.913 154.318 249.669 299.524 229.298" stroke="white" stroke-miterlimit="10" stroke-linecap="round" stroke-dasharray="1 10"/>
<path d="M414.316 191.041C414.316 189.644 415.449 188.512 416.846 188.512C418.243 188.512 419.375 189.644 419.375 191.041C419.375 192.438 418.243 193.57 416.846 193.57C415.449 193.572 414.316 192.439 414.316 191.041Z" fill="white"/>
<path d="M275.355 605.18C275.355 603.783 276.488 602.65 277.885 602.65C279.282 602.65 280.414 603.783 280.414 605.18C280.414 606.577 279.282 607.709 277.885 607.709C276.488 607.709 275.355 606.577 275.355 605.18Z" fill="white"/>
<path d="M702.178 715.758C702.178 714.361 703.31 713.229 704.707 713.229C706.104 713.229 707.236 714.361 707.236 715.758C707.236 717.155 706.104 718.287 704.707 718.287C703.31 718.287 702.178 717.155 702.178 715.758Z" fill="white"/>
<path d="M728.047 342.694C728.047 341.297 729.179 340.165 730.576 340.165C731.973 340.165 733.106 341.297 733.106 342.694C733.106 344.091 731.973 345.223 730.576 345.223C729.179 345.223 728.047 344.091 728.047 342.694Z" fill="white"/>
<path d="M744.593 141.74C744.593 140.343 745.725 139.211 747.122 139.211C748.519 139.211 749.651 140.343 749.651 141.74C749.651 143.137 748.519 144.269 747.122 144.269C745.725 144.269 744.593 143.137 744.593 141.74Z" fill="white"/>
<path d="M158.002 368.182C158.002 366.785 159.134 365.652 160.531 365.652C161.928 365.652 163.06 366.785 163.06 368.182C163.06 369.578 161.928 370.711 160.531 370.711C159.134 370.711 158.002 369.578 158.002 368.182Z" fill="#FCE376"/>
<path d="M481.458 240.279C481.458 238.882 482.591 237.75 483.988 237.75C485.385 237.75 486.517 238.882 486.517 240.279C486.517 241.676 485.385 242.808 483.988 242.808C482.591 242.808 481.458 241.676 481.458 240.279Z" fill="#FCE376"/>
<path d="M408.903 649.312C408.903 647.916 410.035 646.783 411.432 646.783C412.829 646.783 413.961 647.916 413.961 649.312C413.961 650.709 412.829 651.842 411.432 651.842C410.035 651.842 408.903 650.709 408.903 649.312Z" fill="#FCE376"/>
<path d="M358.475 567.583C358.475 566.186 359.607 565.054 361.004 565.054C362.401 565.054 363.533 566.186 363.533 567.583C363.533 568.98 362.401 570.112 361.004 570.112C359.609 570.112 358.475 568.98 358.475 567.583Z" fill="#FCE376"/>
<path d="M624.546 746.019C624.546 744.623 625.678 743.49 627.075 743.49C628.472 743.49 629.605 744.623 629.605 746.019C629.605 747.416 628.472 748.549 627.075 748.549C625.678 748.549 624.546 747.416 624.546 746.019Z" fill="#FCE376"/>
<path d="M600.777 292.95C600.777 291.553 601.91 290.421 603.307 290.421C604.703 290.421 605.836 291.553 605.836 292.95C605.836 294.347 604.703 295.479 603.307 295.479C601.91 295.481 600.777 294.349 600.777 292.95Z" fill="#FCE376"/>
<path d="M143.356 503.456C143.356 502.059 144.488 500.927 145.885 500.927C147.282 500.927 148.414 502.059 148.414 503.456C148.414 504.853 147.282 505.985 145.885 505.985C144.488 505.985 143.356 504.853 143.356 503.456Z" fill="#FCE376"/>
<path d="M682.547 392.383C682.547 390.986 683.68 389.854 685.077 389.854C686.473 389.854 687.606 390.986 687.606 392.383C687.606 393.78 686.473 394.912 685.077 394.912C683.681 394.914 682.547 393.781 682.547 392.383Z" fill="#FCE376"/>
<path d="M107.292 581.89C107.292 580.493 108.425 579.36 109.822 579.36C111.219 579.36 112.351 580.493 112.351 581.89C112.351 583.286 111.219 584.419 109.822 584.419C108.425 584.42 107.292 583.286 107.292 581.89Z" fill="#FCE376"/>
<path d="M138.312 68.3056C138.312 66.9087 139.445 65.7764 140.841 65.7764C142.238 65.7764 143.371 66.9087 143.371 68.3056C143.371 69.7025 142.238 70.8348 140.841 70.8348C139.445 70.8348 138.312 69.7025 138.312 68.3056Z" fill="#FCE376"/>
<path d="M645.47 151.008C645.47 149.611 646.602 148.479 647.999 148.479C649.396 148.479 650.528 149.611 650.528 151.008C650.528 152.405 649.396 153.537 647.999 153.537C646.602 153.537 645.47 152.405 645.47 151.008Z" fill="white"/>
<path d="M541.447 491.194C541.447 489.797 542.579 488.665 543.976 488.665C545.373 488.665 546.505 489.797 546.505 491.194C546.505 492.591 545.373 493.723 543.976 493.723C542.579 493.723 541.447 492.591 541.447 491.194Z" fill="white"/>
<path d="M742.064 584.42C742.064 583.023 743.196 581.891 744.593 581.891C745.99 581.891 747.122 583.023 747.122 584.42C747.122 585.817 745.99 586.949 744.593 586.949C743.196 586.949 742.064 585.815 742.064 584.42Z" fill="white"/>
<path d="M199.747 288.58C199.747 287.183 200.879 286.051 202.276 286.051C203.673 286.051 204.805 287.183 204.805 288.58C204.805 289.977 203.673 291.109 202.276 291.109C200.879 291.109 199.747 289.977 199.747 288.58Z" fill="white"/>
<path d="M133.512 438.119C133.512 436.722 134.644 435.59 136.041 435.59C137.438 435.59 138.57 436.722 138.57 438.119C138.57 439.516 137.438 440.648 136.041 440.648C134.644 440.65 133.512 439.518 133.512 438.119Z" fill="white"/>
<path d="M408.903 517.465C408.903 516.068 410.035 514.936 411.432 514.936C412.829 514.936 413.961 516.068 413.961 517.465C413.961 518.862 412.829 519.994 411.432 519.994C410.035 519.994 408.903 518.862 408.903 517.465Z" fill="white"/>
<path d="M99.8679 253.18C99.8665 252.422 96.4251 252.054 89.0635 251.728C89.0254 248.703 88.861 240.999 88.1812 241C87.4263 241.001 87.0989 244.389 86.7767 251.696C83.8152 251.762 75.9987 252.002 76 252.687C76.0013 253.445 79.3954 254.079 86.7912 254.433C86.9529 257.629 87.3921 264.869 88.051 264.867C88.7966 264.865 88.7479 261.559 89.0162 254.438C91.9908 254.3 99.8692 253.866 99.8679 253.18Z" fill="white"/>
<path d="M130.066 481.407C130.064 480.65 126.624 480.282 119.262 479.956C119.224 476.931 119.06 469.226 118.38 469.228C117.625 469.229 117.297 472.616 116.975 479.924C114.014 479.99 106.197 480.229 106.198 480.914C106.2 481.673 109.594 482.307 116.99 482.661C117.151 485.856 117.591 493.097 118.249 493.094C118.995 493.093 118.946 489.787 119.215 482.666C122.189 482.528 130.069 482.094 130.066 481.407Z" fill="white"/>
<path d="M332.971 407.778C332.968 407.02 329.528 406.652 322.166 406.326C322.128 403.301 321.964 395.596 321.284 395.598C320.529 395.599 320.202 398.987 319.881 406.294C316.919 406.36 309.103 406.599 309.104 407.284C309.106 408.043 312.5 408.677 319.895 409.031C320.057 412.226 320.496 419.467 321.155 419.464C321.9 419.463 321.852 416.157 322.12 409.036C325.094 408.897 332.972 408.464 332.971 407.778Z" fill="white"/>
<path d="M343.588 728.61C343.587 727.852 340.145 727.484 332.784 727.158C332.746 724.133 332.581 716.428 331.902 716.43C331.147 716.431 330.819 719.819 330.498 727.126C327.537 727.192 319.72 727.431 319.722 728.116C319.723 728.875 323.117 729.509 330.513 729.863C330.675 733.058 331.113 740.299 331.773 740.296C332.518 740.295 332.47 736.989 332.738 729.868C335.713 729.729 343.591 729.296 343.588 728.61Z" fill="white"/>
<path d="M635.576 273.056C635.574 272.298 632.133 271.93 624.771 271.604C624.733 268.579 624.569 260.875 623.889 260.876C623.134 260.877 622.807 264.265 622.486 271.572C619.524 271.638 611.708 271.878 611.709 272.563C611.711 273.321 615.105 273.955 622.5 274.309C622.662 277.505 623.101 284.745 623.76 284.743C624.505 284.741 624.457 281.435 624.725 274.314C627.699 274.175 635.578 273.741 635.576 273.056Z" fill="white"/>
<path d="M633.002 720.078C633 719.321 629.56 718.953 622.198 718.626C622.16 715.602 621.995 707.897 621.316 707.898C620.561 707.901 620.233 711.287 619.912 718.595C616.951 718.661 609.134 718.9 609.136 719.585C609.137 720.344 612.531 720.978 619.927 721.332C620.089 724.527 620.528 731.768 621.187 731.765C621.931 731.764 621.884 728.458 622.152 721.337C625.125 721.197 633.004 720.763 633.002 720.078Z" fill="white"/>
<path d="M204.284 777.529C204.284 776.132 205.416 775 206.813 775C208.21 775 209.342 776.132 209.342 777.529C209.342 778.926 208.21 780.058 206.813 780.058C205.418 780.06 204.284 778.926 204.284 777.529Z" fill="white"/>
<path d="M795.593 916.74C795.593 915.343 796.725 914.211 798.122 914.211C799.519 914.211 800.651 915.343 800.651 916.74C800.651 918.137 799.519 919.269 798.122 919.269C796.725 919.269 795.593 918.137 795.593 916.74Z" fill="white"/>
<path d="M768.092 786.77C768.092 785.374 769.224 784.241 770.621 784.241C772.018 784.241 773.15 785.374 773.15 786.77C773.15 788.167 772.018 789.3 770.621 789.3C769.224 789.3 768.092 788.167 768.092 786.77Z" fill="#FCE376"/>
<path d="M280.267 800.071C280.267 798.674 281.4 797.542 282.797 797.542C284.193 797.542 285.326 798.674 285.326 800.071C285.326 801.468 284.193 802.6 282.797 802.6C281.4 802.602 280.267 801.468 280.267 800.071Z" fill="#FCE376"/>
<path d="M189.312 843.306C189.312 841.909 190.445 840.776 191.841 840.776C193.238 840.776 194.371 841.909 194.371 843.306C194.371 844.702 193.238 845.835 191.841 845.835C190.445 845.835 189.312 844.702 189.312 843.306Z" fill="#FCE376"/>
<path d="M696.47 926.008C696.47 924.611 697.602 923.479 698.999 923.479C700.396 923.479 701.528 924.611 701.528 926.008C701.528 927.405 700.396 928.537 698.999 928.537C697.602 928.537 696.47 927.405 696.47 926.008Z" fill="white"/>
<path d="M500.472 807.359C500.472 805.962 501.605 804.83 503.002 804.83C504.399 804.83 505.531 805.962 505.531 807.359C505.531 808.756 504.399 809.889 503.002 809.889C501.605 809.889 500.472 808.756 500.472 807.359Z" fill="white"/>
<path d="M910.868 250.18C910.867 249.422 907.425 249.054 900.064 248.728C900.025 245.703 899.861 237.999 899.181 238C898.426 238.001 898.099 241.389 897.777 248.696C894.815 248.762 886.999 249.002 887 249.687C887.001 250.445 890.395 251.079 897.791 251.433C897.953 254.629 898.392 261.869 899.051 261.867C899.797 261.865 899.748 258.559 900.016 251.438C902.991 251.3 910.869 250.866 910.868 250.18Z" fill="white"/>
<path d="M941.066 478.407C941.064 477.65 937.624 477.282 930.262 476.956C930.224 473.931 930.06 466.226 929.38 466.228C928.625 466.229 928.297 469.616 927.975 476.924C925.014 476.99 917.197 477.229 917.198 477.914C917.2 478.673 920.594 479.307 927.99 479.661C928.151 482.856 928.591 490.097 929.249 490.094C929.995 490.093 929.946 486.787 930.215 479.666C933.189 479.528 941.069 479.094 941.066 478.407Z" fill="white"/>
<path d="M103.452 180.364C115.852 180.364 125.904 170.657 125.904 158.682C125.904 146.707 115.852 137 103.452 137C91.0521 137 81 146.707 81 158.682C81 170.657 91.0521 180.364 103.452 180.364Z" fill="#94EFF2"/>
<g opacity="0.35">
<path d="M86.531 173.096C87.279 173.916 88.09 174.678 88.958 175.375C93.711 175.773 100.399 175.657 109.045 173.923C115.852 172.557 121.532 169.159 124.906 165.245C125.37 163.775 125.675 162.227 125.814 160.62C117.046 168.894 96.856 172.013 86.531 173.096Z" fill="#6CE2E6"/>
<path d="M106.231 162.264C114.843 160.536 121.657 155.555 124.272 150.39C124.013 149.766 123.725 149.158 123.41 148.567C114.125 157.889 90.485 160.857 81.208 161.68C81.272 162.151 81.346 162.619 81.44 163.078C85.94 163.959 94.194 164.679 106.231 162.264Z" fill="#6CE2E6"/>
<path d="M117.943 141.987C117.063 141.28 116.127 140.637 115.139 140.068C106.378 145.451 92.4821 148.016 83.1721 149.188C82.7531 150.041 82.3931 150.929 82.0901 151.846C86.8521 152.257 93.5841 152.156 102.311 150.405C108.966 149.069 114.544 145.791 117.943 141.987Z" fill="#6CE2E6"/>
</g>
<path opacity="0.35" d="M82.7808 150.027C87.4948 150.37 93.9988 150.198 102.311 148.531C108.325 147.324 113.459 144.53 116.901 141.195C115.814 140.424 114.648 139.751 113.421 139.179C105.015 143.694 92.9718 146.014 84.3058 147.167C83.7288 148.075 83.2168 149.029 82.7808 150.027Z" fill="#B3F0F2"/>
<path opacity="0.35" d="M125.888 158.069C118.021 167.308 96.4088 170.715 85.4888 171.871C86.1218 172.68 86.8118 173.441 87.5548 174.151C92.3198 174.569 99.0728 174.474 107.838 172.716C116.347 171.009 123.096 166.126 125.779 161.028C125.86 160.259 125.903 159.477 125.903 158.681C125.903 158.475 125.893 158.273 125.888 158.069Z" fill="#B3F0F2"/>
<path opacity="0.35" d="M106.231 160.254C114.345 158.626 120.858 154.11 123.772 149.274C123.436 148.582 123.067 147.91 122.661 147.264C112.848 156.089 89.9399 158.906 81.0259 159.687C81.0459 160.13 81.0759 160.57 81.1209 161.004C85.5429 161.912 93.8979 162.729 106.231 160.254Z" fill="#B3F0F2"/>
<path opacity="0.1" d="M103.452 180.364C115.852 180.364 125.904 171.082 125.904 158.682C125.904 151.368 122.405 145.141 116.992 141.261C116.813 154.231 113.561 175.669 94.3779 178.577C97.1529 179.729 100.221 180.364 103.452 180.364Z" fill="black"/>
<path d="M897.116 112.001C894.056 127.66 896.21 140.748 917.376 154.64L923.183 150.731L928.99 146.822C924.09 121.983 912.775 115.061 897.116 112.001Z" fill="#DBDAF2"/>
<path d="M928.991 146.823L923.184 150.732L917.377 154.641C917.253 158.039 917.315 164.175 920.599 162.115C923.883 160.055 927.651 157.369 927.651 157.369C927.651 157.369 931.558 154.89 934.703 152.623C937.847 150.354 932.185 147.987 928.991 146.823Z" fill="#D45E59"/>
<path d="M896.341 127.15C896.372 127.158 899.504 128.623 905.599 124.521C911.668 120.436 911.932 117.335 911.949 117.288C910.316 116.293 908.596 115.447 906.79 114.728L902.733 116.204L896.003 122.099C895.996 123.805 896.103 125.488 896.341 127.15Z" fill="#8A3D3A"/>
<path d="M896.085 124.753C898.294 124.272 901.427 124.159 904.092 122.366C906.576 120.694 907.972 117.859 909.487 115.933C905.754 114.082 901.615 112.88 897.116 112.001C896.25 116.432 895.803 120.657 896.085 124.753Z" fill="#D45E59"/>
<path d="M913.468 136.295C910.924 138.008 907.46 137.331 905.747 134.786C904.129 132.382 904.897 129.519 907.657 127.661C910.417 125.803 913.359 126.17 914.976 128.574C916.689 131.119 916.012 134.583 913.468 136.295Z" fill="#100D24"/>
<path d="M907.435 133.651C906.347 132.034 907.176 130.437 908.793 129.35C910.409 128.262 912.201 128.095 913.289 129.712C914.377 131.328 913.949 133.521 912.332 134.609C910.715 135.696 908.523 135.267 907.435 133.651Z" fill="#272057"/>
<path opacity="0.1" d="M918.296 131.269C922.631 143.419 928.334 156.93 928.334 156.93C929.591 156.119 932.357 154.313 934.702 152.622C937.847 150.355 932.185 147.987 928.991 146.823C925.816 130.73 919.945 122.163 911.948 117.289C911.139 116.796 910.309 116.339 909.458 115.918C909.448 115.913 909.438 115.908 909.428 115.903C909.032 115.708 908.631 115.52 908.226 115.339C908.188 115.322 908.15 115.303 908.111 115.286C907.677 115.094 907.238 114.908 906.794 114.731L906.79 114.729C906.256 114.516 905.713 114.317 905.164 114.125C905.107 114.105 905.048 114.086 904.99 114.066C904.571 113.921 904.149 113.781 903.721 113.647C903.607 113.611 903.492 113.576 903.377 113.541C903.002 113.426 902.624 113.315 902.243 113.208C902.101 113.168 901.958 113.128 901.815 113.089C901.454 112.991 901.09 112.896 900.724 112.804C900.568 112.765 900.413 112.725 900.257 112.687C899.884 112.596 899.506 112.51 899.127 112.425C898.982 112.392 898.838 112.358 898.692 112.326C898.171 112.213 897.647 112.104 897.116 112C897.116 112 913.961 119.119 918.296 131.269Z" fill="black"/>
<path d="M926.012 162.424C926.012 162.424 925.358 171.302 933.876 172.877C936.25 164.875 929.227 160.261 929.227 160.261L926.012 162.424Z" fill="#FAD857"/>
<path d="M927.125 161.674C927.125 161.674 927.552 167.115 931.725 169.677C932.761 167.42 928.569 160.702 928.569 160.702L927.125 161.674Z" fill="#FAAE57"/>
<path d="M935.557 156C935.557 156 944.028 158.736 942.28 167.22C933.973 166.407 932.342 158.163 932.342 158.163L935.557 156Z" fill="#FAD857"/>
<path d="M934.443 156.749C934.443 156.749 939.323 159.193 940.126 164.024C937.645 164.134 932.999 157.721 932.999 157.721L934.443 156.749Z" fill="#FAAE57"/>
<path d="M423.4 166.9C424.4 166.567 427.533 166.467 432.8 166.6C438.067 166.667 441.067 166.867 441.8 167.2C443.067 167.733 443.9 168.433 444.3 169.3C444.767 170.1 445 171.267 445 172.8C444.933 173.933 444.767 174.733 444.5 175.2C444.233 175.6 443.633 176.1 442.7 176.7C441.967 177.1 441.1 177.333 440.1 177.4C439.167 177.467 436.4 177.5 431.8 177.5C431.267 177.5 430.567 177.5 429.7 177.5C425.633 177.567 423.267 177.667 422.6 177.8C421.933 177.933 421.567 178.433 421.5 179.3C421.5 179.5 421.5 179.667 421.5 179.8C421.433 180.933 421.267 181.933 421 182.8C420.733 183.467 420.6 185.233 420.6 188.1C420.6 190.967 420.733 192.633 421 193.1C421.267 193.633 422.667 193.633 425.2 193.1C426.067 192.833 427.9 192.7 430.7 192.7C433.367 192.7 435.333 192.6 436.6 192.4C438.333 192 439.6 191.967 440.4 192.3C441 192.5 441.533 192.7 442 192.9C442.467 193.033 443.067 193.467 443.8 194.2L444.9 195.3V197.8C444.9 199.067 444.867 199.867 444.8 200.2C444.733 200.467 444.467 200.8 444 201.2C443.133 202.067 442.267 202.6 441.4 202.8C440.533 203 438.833 203.1 436.3 203.1C433.3 203.1 431.3 203.267 430.3 203.6C429.367 203.933 427.767 204.1 425.5 204.1C423.567 204.033 422.333 204.067 421.8 204.2C421.267 204.267 420.933 204.467 420.8 204.8C420.667 205.133 420.6 207.8 420.6 212.8C420.6 217.8 420.667 220.467 420.8 220.8C420.933 221.133 421.433 221.333 422.3 221.4C423.167 221.467 426.1 221.5 431.1 221.5C431.233 221.5 431.4 221.5 431.6 221.5C436.8 221.5 439.9 221.6 440.9 221.8C441.9 221.933 442.867 222.6 443.8 223.8C443.8 223.867 443.833 223.933 443.9 224C444.633 225 444.867 226.3 444.6 227.9C444.333 229.433 443.667 230.5 442.6 231.1C441.333 231.767 440 232.167 438.6 232.3C437.267 232.433 433.667 232.5 427.8 232.5L416.8 232.6L415.1 231.8C414.233 231.333 413.433 230.733 412.7 230C411.967 229.267 411.567 228.633 411.5 228.1C411.433 227.767 411.267 227.267 411 226.6C410.8 226 410.667 223.633 410.6 219.5C410.533 215.367 410.4 212.767 410.2 211.7C409.933 209.633 409.9 203.9 410.1 194.5C410.3 185.1 410.567 179.867 410.9 178.8C411.1 178.067 411.267 176.833 411.4 175.1C411.533 172.233 412.233 170.267 413.5 169.2C414.767 168.133 417.033 167.5 420.3 167.3C421.767 167.167 422.8 167.033 423.4 166.9Z" fill="#AEA9F2"/>
<path d="M90.8418 1036.18C90.8418 1034.78 91.9741 1033.65 93.371 1033.65C94.7679 1033.65 95.9002 1034.78 95.9002 1036.18C95.9002 1037.58 94.7679 1038.71 93.371 1038.71C91.9741 1038.71 90.8418 1037.58 90.8418 1036.18Z" fill="#FCE376"/>
<path d="M86.9106 914.536C86.9106 913.139 88.043 912.007 89.4399 912.007C90.8368 912.007 91.9691 913.139 91.9691 914.536C91.9691 915.933 90.8368 917.065 89.4399 917.065C88.043 917.065 86.9106 915.933 86.9106 914.536Z" fill="white"/>
<path d="M146.231 990.908C166.793 990.908 183.462 974.811 183.462 954.954C183.462 935.097 166.793 919 146.231 919C125.669 919 109 935.097 109 954.954C109 974.811 125.669 990.908 146.231 990.908Z" fill="#F2AB94"/>
<path d="M118.172 978.856C119.412 980.215 120.756 981.479 122.197 982.636C130.08 983.296 141.17 983.104 155.507 980.228C166.794 977.963 176.214 972.328 181.81 965.837C182.579 963.399 183.085 960.832 183.315 958.167C168.774 971.887 135.294 977.06 118.172 978.856Z" fill="#F29A7E"/>
<path d="M150.84 960.894C165.122 958.029 176.421 949.768 180.756 941.205C180.326 940.169 179.849 939.162 179.327 938.182C163.93 953.641 124.728 958.561 109.344 959.927C109.45 960.709 109.574 961.484 109.728 962.246C117.192 963.705 130.879 964.899 150.84 960.894Z" fill="#F29A7E"/>
<path d="M170.262 927.268C168.802 926.096 167.251 925.029 165.612 924.085C151.083 933.012 128.041 937.265 112.602 939.209C111.908 940.623 111.31 942.096 110.807 943.616C118.703 944.298 129.867 944.131 144.34 941.227C155.376 939.013 164.625 933.576 170.262 927.268Z" fill="#F29A7E"/>
<path d="M111.954 940.602C119.771 941.17 130.557 940.886 144.34 938.12C154.314 936.119 162.826 931.485 168.535 925.955C166.732 924.677 164.799 923.561 162.764 922.612C148.824 930.099 128.853 933.946 114.483 935.858C113.525 937.364 112.677 938.947 111.954 940.602Z" fill="#F2B9A7"/>
<path d="M183.437 953.939C170.391 969.26 134.552 974.909 116.445 976.827C117.495 978.168 118.64 979.431 119.871 980.608C127.773 981.301 138.971 981.144 153.507 978.228C167.618 975.397 178.81 967.299 183.258 958.846C183.392 957.572 183.463 956.274 183.463 954.955C183.462 954.613 183.446 954.277 183.437 953.939Z" fill="#F2B9A7"/>
<path d="M150.84 957.562C164.296 954.862 175.096 947.373 179.927 939.353C179.37 938.205 178.758 937.091 178.085 936.02C161.813 950.653 123.824 955.326 109.042 956.62C109.075 957.355 109.124 958.084 109.199 958.803C116.533 960.311 130.388 961.665 150.84 957.562Z" fill="#F2B9A7"/>
<path opacity="0.1" d="M146.231 990.909C166.793 990.909 183.462 975.517 183.462 954.955C183.462 942.827 177.66 932.5 168.683 926.067C168.386 947.575 162.994 983.125 131.183 987.947C135.786 989.855 140.874 990.909 146.231 990.909Z" fill="black"/>
<path d="M39.8418 261.182C39.8418 259.785 40.9741 258.652 42.371 258.652C43.7679 258.652 44.9002 259.785 44.9002 261.182C44.9002 262.578 43.7679 263.711 42.371 263.711C40.9741 263.711 39.8418 262.578 39.8418 261.182Z" fill="#FCE376"/>
<path d="M39.8418 607.709C39.8418 606.312 40.9741 605.18 42.371 605.18C43.7679 605.18 44.9002 606.312 44.9002 607.709C44.9002 609.106 43.7679 610.238 42.371 610.238C40.9741 610.238 39.8418 609.106 39.8418 607.709Z" fill="white"/>
<path d="M35.9106 139.536C35.9106 138.139 37.043 137.007 38.4399 137.007C39.8368 137.007 40.9691 138.139 40.9691 139.536C40.9691 140.933 39.8368 142.065 38.4399 142.065C37.043 142.065 35.9106 140.933 35.9106 139.536Z" fill="white"/>
<path d="M25 434.235C25 432.838 26.1323 431.706 27.5292 431.706C28.9261 431.706 30.0584 432.838 30.0584 434.235C30.0584 435.632 28.9261 436.764 27.5292 436.764C26.1323 436.764 25 435.632 25 434.235Z" fill="white"/>
</svg>
