<svg width="74" height="62" viewBox="0 0 74 62" fill="none" xmlns="http://www.w3.org/2000/svg">
<path fill-rule="evenodd" clip-rule="evenodd" d="M31.2815 0H36.6479V10.5591H29.0668C27.2865 10.5591 25.8299 9.10248 25.8299 7.32221V5.45169C25.8298 2.45325 28.2831 0 31.2815 0Z" fill="#EDCA7A"/>
<path fill-rule="evenodd" clip-rule="evenodd" d="M5.45164 51.4414H16.1846C19.1829 51.4414 21.6362 53.8947 21.6362 56.893V58.7636C21.6362 60.5439 20.1796 62.0005 18.3993 62.0005H3.23689C1.45662 62.0005 0 60.5439 0 58.7636V56.893C0 53.8946 2.45325 51.4414 5.45164 51.4414ZM31.2815 51.4414H36.6479V62.0005H29.0668C27.2865 62.0005 25.8299 60.5439 25.8299 58.7636V56.893C25.8298 53.8946 28.2831 51.4414 31.2815 51.4414Z" fill="#E89F9F"/>
<path fill-rule="evenodd" clip-rule="evenodd" d="M10.8181 38.1212C13.7701 38.1212 16.1632 40.5143 16.1632 43.4663C16.1632 46.4184 13.7701 48.8115 10.8181 48.8115C7.86601 48.8115 5.47293 46.4184 5.47293 43.4663C5.47293 40.5142 7.86607 38.1212 10.8181 38.1212ZM36.648 48.8114C33.6959 48.8114 31.3028 46.4184 31.3028 43.4663C31.3028 40.5142 33.6959 38.1211 36.648 38.1211V48.8114Z" fill="#F2DFD1"/>
<path d="M12.6164 33.2404C12.6164 34.2335 11.8113 35.0386 10.8181 35.0386C9.82497 35.0386 9.01987 34.2335 9.01987 33.2404V26.0025C9.01987 24.7644 9.52513 23.64 10.3391 22.826C11.153 22.0121 12.2774 21.5068 13.5156 21.5068H34.8498V15.3393C34.8498 14.3461 35.6549 13.541 36.648 13.541V35.0386C35.6549 35.0386 34.8498 34.2335 34.8498 33.2404V25.1034H13.5156C13.2702 25.1034 13.0458 25.2051 12.882 25.3689C12.7182 25.5327 12.6165 25.7571 12.6165 26.0025V33.2404H12.6164Z" fill="#A18585"/>
<path fill-rule="evenodd" clip-rule="evenodd" d="M36.6479 0H42.0144C45.0128 0 47.466 2.45325 47.466 5.45163V7.32221C47.466 9.10254 46.0094 10.5591 44.2291 10.5591H36.6479V0Z" fill="#EBBE5B"/>
<path fill-rule="evenodd" clip-rule="evenodd" d="M57.1114 51.4414H67.8443C70.8427 51.4414 73.2959 53.8947 73.2959 56.893V58.7636C73.2959 60.5439 71.8393 62.0005 70.059 62.0005H54.8966C53.1163 62.0005 51.6597 60.5439 51.6597 58.7636V56.893C51.6597 53.8946 54.113 51.4414 57.1114 51.4414ZM36.6479 62.0005V51.4414H42.0144C45.0128 51.4414 47.466 53.8947 47.466 56.893V58.7636C47.466 60.5439 46.0094 62.0005 44.2291 62.0005H36.6479Z" fill="#DE797A"/>
<path fill-rule="evenodd" clip-rule="evenodd" d="M36.6479 48.8114V38.1211C39.6 38.1211 41.9931 40.5142 41.9931 43.4663C41.9931 46.4183 39.6 48.8114 36.6479 48.8114ZM62.4778 38.1211C65.4298 38.1211 67.8229 40.5142 67.8229 43.4663C67.8229 46.4184 65.4298 48.8114 62.4778 48.8114C59.5257 48.8114 57.1326 46.4184 57.1326 43.4663C57.1326 40.5142 59.5257 38.1211 62.4778 38.1211Z" fill="#F0CAB0"/>
<path d="M36.6479 13.541C37.6411 13.541 38.4462 14.3461 38.4462 15.3393V21.5068H59.7803C61.0185 21.5068 62.1429 22.012 62.9568 22.826C63.7708 23.64 64.2761 24.7644 64.2761 26.0025V33.2404C64.2761 34.2335 63.4709 35.0386 62.4778 35.0386C61.4846 35.0386 60.6795 34.2335 60.6795 33.2404V26.0025C60.6795 25.7571 60.5778 25.5327 60.414 25.3689C60.2501 25.2051 60.0257 25.1034 59.7803 25.1034H38.4462V33.2404C38.4462 34.2335 37.6411 35.0386 36.6479 35.0386V13.541Z" fill="#A18585"/>
</svg>
