<svg width="121" height="98" viewBox="0 0 121 98" fill="none" xmlns="http://www.w3.org/2000/svg">
<path d="M64.5 91.9225V0H56.5V91.9225H46V98H56.5H64.5H75V91.9225H64.5Z" fill="#A8A8A8"/>
<path d="M5.93832 7H112.092V15.7035L94.2759 20.9256L121 24.9462V37.4628L86.1106 42.6849H112.092V54H10.3923V46.1673L32.6624 43.5558H0V33.5465L19.3004 30.5L5.93832 24.9462V7Z" fill="#759C2F"/>
<path d="M43.2 38.414C43.2 38.8647 43.0353 39.246 42.706 39.558C42.3767 39.8527 41.9953 40 41.562 40C41.0767 40 40.6867 39.8527 40.392 39.558C40.0973 39.246 39.95 38.8647 39.95 38.414V23.386C39.95 22.9353 40.106 22.5627 40.418 22.268C40.73 21.956 41.1287 21.8 41.614 21.8C42.03 21.8 42.394 21.956 42.706 22.268C43.0353 22.5627 43.2 22.9353 43.2 23.386V38.414ZM52.9602 40.26C51.7468 40.26 50.6548 40.1127 49.6842 39.818C48.7135 39.506 47.7862 38.9687 46.9022 38.206C46.6768 38.0153 46.5035 37.7987 46.3822 37.556C46.2608 37.3133 46.2002 37.0707 46.2002 36.828C46.2002 36.4293 46.3388 36.0827 46.6162 35.788C46.9108 35.476 47.2748 35.32 47.7082 35.32C48.0375 35.32 48.3322 35.424 48.5922 35.632C49.2508 36.1693 49.9008 36.5767 50.5422 36.854C51.2008 37.1313 52.0068 37.27 52.9602 37.27C53.6015 37.27 54.1908 37.1747 54.7282 36.984C55.2655 36.776 55.6988 36.5073 56.0282 36.178C56.3575 35.8313 56.5222 35.4413 56.5222 35.008C56.5222 34.488 56.3662 34.046 56.0542 33.682C55.7422 33.318 55.2655 33.0147 54.6242 32.772C53.9828 32.512 53.1682 32.3127 52.1802 32.174C51.2442 32.0353 50.4208 31.8273 49.7102 31.55C48.9995 31.2553 48.4015 30.8913 47.9162 30.458C47.4482 30.0073 47.0928 29.4873 46.8502 28.898C46.6075 28.2913 46.4862 27.6153 46.4862 26.87C46.4862 25.7433 46.7722 24.7813 47.3442 23.984C47.9335 23.1867 48.7222 22.58 49.7102 22.164C50.6982 21.748 51.7902 21.54 52.9862 21.54C54.1128 21.54 55.1528 21.7133 56.1062 22.06C57.0768 22.3893 57.8655 22.814 58.4722 23.334C58.9748 23.7327 59.2262 24.192 59.2262 24.712C59.2262 25.0933 59.0788 25.44 58.7842 25.752C58.4895 26.064 58.1428 26.22 57.7442 26.22C57.4842 26.22 57.2502 26.142 57.0422 25.986C56.7648 25.7433 56.3922 25.518 55.9242 25.31C55.4562 25.0847 54.9622 24.9027 54.4422 24.764C53.9222 24.608 53.4368 24.53 52.9862 24.53C52.2408 24.53 51.6082 24.6253 51.0882 24.816C50.5855 25.0067 50.2042 25.2667 49.9442 25.596C49.6842 25.9253 49.5542 26.3067 49.5542 26.74C49.5542 27.26 49.7015 27.6933 49.9962 28.04C50.3082 28.3693 50.7502 28.638 51.3222 28.846C51.8942 29.0367 52.5788 29.21 53.3762 29.366C54.4162 29.5567 55.3262 29.782 56.1062 30.042C56.9035 30.302 57.5622 30.64 58.0822 31.056C58.6022 31.4547 58.9922 31.966 59.2522 32.59C59.5122 33.1967 59.6422 33.942 59.6422 34.826C59.6422 35.9527 59.3302 36.9233 58.7062 37.738C58.0822 38.5527 57.2588 39.1767 56.2362 39.61C55.2308 40.0433 54.1388 40.26 52.9602 40.26ZM64.2618 40C63.7765 40 63.3778 39.8527 63.0658 39.558C62.7712 39.246 62.6238 38.8647 62.6238 38.414V23.386C62.6238 22.9353 62.7712 22.5627 63.0658 22.268C63.3778 21.956 63.7592 21.8 64.2098 21.8H72.6598C73.1105 21.8 73.4832 21.9473 73.7778 22.242C74.0898 22.5193 74.2458 22.8833 74.2458 23.334C74.2458 23.7153 74.0898 24.0533 73.7778 24.348C73.4832 24.6427 73.1105 24.79 72.6598 24.79H65.6398L65.8738 24.478V29.704L65.6918 29.366H71.4898C71.9405 29.366 72.3132 29.5133 72.6078 29.808C72.9198 30.0853 73.0758 30.4493 73.0758 30.9C73.0758 31.2813 72.9198 31.6193 72.6078 31.914C72.3132 32.2087 71.9405 32.356 71.4898 32.356H65.6398L65.8738 32.122V38.414C65.8738 38.8647 65.7092 39.246 65.3798 39.558C65.0678 39.8527 64.6952 40 64.2618 40ZM78.3384 40.26C77.3504 40.26 76.4317 40.0607 75.5824 39.662C74.7331 39.2633 74.0397 38.6913 73.5024 37.946C73.2944 37.634 73.1904 37.3307 73.1904 37.036C73.1904 36.6027 73.3551 36.2387 73.6844 35.944C74.0311 35.6493 74.3691 35.502 74.6984 35.502C74.9584 35.502 75.2097 35.58 75.4524 35.736C75.7124 35.892 75.9464 36.074 76.1544 36.282C76.5011 36.594 76.8391 36.8193 77.1684 36.958C77.5151 37.0793 77.9051 37.14 78.3384 37.14C78.8584 37.14 79.3437 37.01 79.7944 36.75C80.2451 36.49 80.6091 36.1433 80.8864 35.71C81.1637 35.2767 81.3024 34.8087 81.3024 34.306V23.386C81.3024 22.9353 81.4671 22.5627 81.7964 22.268C82.1257 21.956 82.5071 21.8 82.9404 21.8C83.4257 21.8 83.8157 21.956 84.1104 22.268C84.4051 22.5627 84.5524 22.9353 84.5524 23.386V34.306C84.5524 35.3633 84.2751 36.3427 83.7204 37.244C83.1657 38.1453 82.4204 38.8733 81.4844 39.428C80.5484 39.9827 79.4997 40.26 78.3384 40.26Z" fill="white"/>
</svg>
