<svg width="121" height="98" viewBox="0 0 121 98" fill="none" xmlns="http://www.w3.org/2000/svg">
<path d="M64.5 91.9225V0H56.5V91.9225H46V98H56.5H64.5H75V91.9225H64.5Z" fill="#A8A8A8"/>
<path d="M5.93832 7H112.092V15.7035L94.2759 20.9256L121 24.9462V37.4628L86.1106 42.6849H112.092V54H10.3923V46.1673L32.6624 43.5558H0V33.5465L19.3004 30.5L5.93832 24.9462V7Z" fill="#C73E1F"/>
<path d="M38.2 38.414C38.2 38.8647 38.0353 39.246 37.706 39.558C37.3767 39.8527 36.9953 40 36.562 40C36.0767 40 35.6867 39.8527 35.392 39.558C35.0973 39.246 34.95 38.8647 34.95 38.414V23.386C34.95 22.9353 35.106 22.5627 35.418 22.268C35.73 21.956 36.1287 21.8 36.614 21.8C37.03 21.8 37.394 21.956 37.706 22.268C38.0353 22.5627 38.2 22.9353 38.2 23.386V38.414ZM47.9602 40.26C46.7468 40.26 45.6548 40.1127 44.6842 39.818C43.7135 39.506 42.7862 38.9687 41.9022 38.206C41.6768 38.0153 41.5035 37.7987 41.3822 37.556C41.2608 37.3133 41.2002 37.0707 41.2002 36.828C41.2002 36.4293 41.3388 36.0827 41.6162 35.788C41.9108 35.476 42.2748 35.32 42.7082 35.32C43.0375 35.32 43.3322 35.424 43.5922 35.632C44.2508 36.1693 44.9008 36.5767 45.5422 36.854C46.2008 37.1313 47.0068 37.27 47.9602 37.27C48.6015 37.27 49.1908 37.1747 49.7282 36.984C50.2655 36.776 50.6988 36.5073 51.0282 36.178C51.3575 35.8313 51.5222 35.4413 51.5222 35.008C51.5222 34.488 51.3662 34.046 51.0542 33.682C50.7422 33.318 50.2655 33.0147 49.6242 32.772C48.9828 32.512 48.1682 32.3127 47.1802 32.174C46.2442 32.0353 45.4208 31.8273 44.7102 31.55C43.9995 31.2553 43.4015 30.8913 42.9162 30.458C42.4482 30.0073 42.0928 29.4873 41.8502 28.898C41.6075 28.2913 41.4862 27.6153 41.4862 26.87C41.4862 25.7433 41.7722 24.7813 42.3442 23.984C42.9335 23.1867 43.7222 22.58 44.7102 22.164C45.6982 21.748 46.7902 21.54 47.9862 21.54C49.1128 21.54 50.1528 21.7133 51.1062 22.06C52.0768 22.3893 52.8655 22.814 53.4722 23.334C53.9748 23.7327 54.2262 24.192 54.2262 24.712C54.2262 25.0933 54.0788 25.44 53.7842 25.752C53.4895 26.064 53.1428 26.22 52.7442 26.22C52.4842 26.22 52.2502 26.142 52.0422 25.986C51.7648 25.7433 51.3922 25.518 50.9242 25.31C50.4562 25.0847 49.9622 24.9027 49.4422 24.764C48.9222 24.608 48.4368 24.53 47.9862 24.53C47.2408 24.53 46.6082 24.6253 46.0882 24.816C45.5855 25.0067 45.2042 25.2667 44.9442 25.596C44.6842 25.9253 44.5542 26.3067 44.5542 26.74C44.5542 27.26 44.7015 27.6933 44.9962 28.04C45.3082 28.3693 45.7502 28.638 46.3222 28.846C46.8942 29.0367 47.5788 29.21 48.3762 29.366C49.4162 29.5567 50.3262 29.782 51.1062 30.042C51.9035 30.302 52.5622 30.64 53.0822 31.056C53.6022 31.4547 53.9922 31.966 54.2522 32.59C54.5122 33.1967 54.6422 33.942 54.6422 34.826C54.6422 35.9527 54.3302 36.9233 53.7062 37.738C53.0822 38.5527 52.2588 39.1767 51.2362 39.61C50.2308 40.0433 49.1388 40.26 47.9602 40.26ZM63.7858 40C63.3005 40 62.9018 39.8527 62.5898 39.558C62.2778 39.246 62.1218 38.8647 62.1218 38.414V23.334H65.5018V38.414C65.5018 38.8647 65.3372 39.246 65.0078 39.558C64.6958 39.8527 64.2885 40 63.7858 40ZM58.0398 24.79C57.5892 24.79 57.2078 24.6513 56.8958 24.374C56.6012 24.0967 56.4538 23.7327 56.4538 23.282C56.4538 22.8313 56.6012 22.476 56.8958 22.216C57.2078 21.9387 57.5892 21.8 58.0398 21.8H69.5838C70.0345 21.8 70.4072 21.9387 70.7018 22.216C71.0138 22.4933 71.1698 22.8573 71.1698 23.308C71.1698 23.7587 71.0138 24.1227 70.7018 24.4C70.4072 24.66 70.0345 24.79 69.5838 24.79H58.0398ZM81.4132 21.8C82.3146 21.8 83.1552 22.06 83.9352 22.58C84.7326 23.1 85.3739 23.802 85.8592 24.686C86.3446 25.57 86.5872 26.558 86.5872 27.65C86.5872 28.7247 86.3446 29.704 85.8592 30.588C85.3739 31.472 84.7326 32.1827 83.9352 32.72C83.1552 33.24 82.3146 33.5 81.4132 33.5H76.6292L76.8892 33.032V38.414C76.8892 38.8647 76.7506 39.246 76.4732 39.558C76.1959 39.8527 75.8319 40 75.3812 40C74.9479 40 74.5926 39.8527 74.3152 39.558C74.0379 39.246 73.8992 38.8647 73.8992 38.414V23.386C73.8992 22.9353 74.0466 22.5627 74.3412 22.268C74.6532 21.956 75.0346 21.8 75.4852 21.8H81.4132ZM81.4132 30.536C81.7426 30.536 82.0632 30.3973 82.3752 30.12C82.6872 29.8427 82.9472 29.4873 83.1552 29.054C83.3632 28.6033 83.4672 28.1353 83.4672 27.65C83.4672 27.1473 83.3632 26.6793 83.1552 26.246C82.9472 25.8127 82.6872 25.466 82.3752 25.206C82.0632 24.9287 81.7426 24.79 81.4132 24.79H76.5772L76.8892 24.322V30.952L76.6032 30.536H81.4132Z" fill="white"/>
</svg>
