<svg width="121" height="98" viewBox="0 0 121 98" fill="none" xmlns="http://www.w3.org/2000/svg">
<path d="M64.5 91.9225V0H56.5V91.9225H46V98H56.5H64.5H75V91.9225H64.5Z" fill="#A8A8A8"/>
<path d="M5.93832 7H112.092V15.7035L94.2759 20.9256L121 24.9462V37.4628L86.1106 42.6849H112.092V54H10.3923V46.1673L32.6624 43.5558H0V33.5465L19.3004 30.5L5.93832 24.9462V7Z" fill="#3DA773"/>
<path d="M31.536 21.8H40.246C40.6967 21.8 41.0693 21.9473 41.364 22.242C41.676 22.5193 41.832 22.8833 41.832 23.334C41.832 23.7673 41.676 24.1227 41.364 24.4C41.0693 24.66 40.6967 24.79 40.246 24.79H32.966L33.2 24.348V29.418L32.992 29.21H39.076C39.5267 29.21 39.8993 29.3573 40.194 29.652C40.506 29.9293 40.662 30.2933 40.662 30.744C40.662 31.1773 40.506 31.5327 40.194 31.81C39.8993 32.07 39.5267 32.2 39.076 32.2H33.07L33.2 31.992V37.244L32.992 37.01H40.246C40.6967 37.01 41.0693 37.166 41.364 37.478C41.676 37.7727 41.832 38.1193 41.832 38.518C41.832 38.9513 41.676 39.3067 41.364 39.584C41.0693 39.8613 40.6967 40 40.246 40H31.536C31.0853 40 30.704 39.8527 30.392 39.558C30.0973 39.246 29.95 38.8647 29.95 38.414V23.386C29.95 22.9353 30.0973 22.5627 30.392 22.268C30.704 21.956 31.0853 21.8 31.536 21.8ZM58.6349 21.8C59.0509 21.8 59.3889 21.9387 59.6489 22.216C59.9089 22.4933 60.0389 22.84 60.0389 23.256V38.414C60.0389 38.8647 59.8829 39.246 59.5709 39.558C59.2762 39.8527 58.9036 40 58.4529 40C58.2276 40 57.9936 39.9653 57.7509 39.896C57.5256 39.8093 57.3522 39.6967 57.2309 39.558L47.0129 26.584L47.6889 26.168V38.544C47.6889 38.96 47.5502 39.3067 47.2729 39.584C47.0129 39.8613 46.6662 40 46.2329 40C45.8169 40 45.4789 39.8613 45.2189 39.584C44.9589 39.3067 44.8289 38.96 44.8289 38.544V23.386C44.8289 22.9353 44.9762 22.5627 45.2709 22.268C45.5829 21.956 45.9642 21.8 46.4149 21.8C46.6576 21.8 46.9089 21.852 47.1689 21.956C47.4289 22.0427 47.6196 22.1813 47.7409 22.372L57.6469 35.008L57.2049 35.32V23.256C57.2049 22.84 57.3349 22.4933 57.5949 22.216C57.8549 21.9387 58.2016 21.8 58.6349 21.8ZM65.586 40C65.1007 40 64.702 39.8527 64.39 39.558C64.0954 39.246 63.948 38.8647 63.948 38.414V23.386C63.948 22.9353 64.0954 22.5627 64.39 22.268C64.702 21.956 65.0834 21.8 65.534 21.8H73.984C74.4347 21.8 74.8074 21.9473 75.102 22.242C75.414 22.5193 75.57 22.8833 75.57 23.334C75.57 23.7153 75.414 24.0533 75.102 24.348C74.8074 24.6427 74.4347 24.79 73.984 24.79H66.964L67.198 24.478V29.704L67.016 29.366H72.814C73.2647 29.366 73.6374 29.5133 73.932 29.808C74.244 30.0853 74.4 30.4493 74.4 30.9C74.4 31.2813 74.244 31.6193 73.932 31.914C73.6374 32.2087 73.2647 32.356 72.814 32.356H66.964L67.198 32.122V38.414C67.198 38.8647 67.0334 39.246 66.704 39.558C66.392 39.8527 66.0194 40 65.586 40ZM86.0617 21.8C86.963 21.8 87.8037 22.06 88.5837 22.58C89.381 23.1 90.0223 23.802 90.5077 24.686C90.993 25.57 91.2357 26.558 91.2357 27.65C91.2357 28.7247 90.993 29.704 90.5077 30.588C90.0223 31.472 89.381 32.1827 88.5837 32.72C87.8037 33.24 86.963 33.5 86.0617 33.5H81.2777L81.5377 33.032V38.414C81.5377 38.8647 81.399 39.246 81.1217 39.558C80.8443 39.8527 80.4803 40 80.0297 40C79.5963 40 79.241 39.8527 78.9637 39.558C78.6863 39.246 78.5477 38.8647 78.5477 38.414V23.386C78.5477 22.9353 78.695 22.5627 78.9897 22.268C79.3017 21.956 79.683 21.8 80.1337 21.8H86.0617ZM86.0617 30.536C86.391 30.536 86.7117 30.3973 87.0237 30.12C87.3357 29.8427 87.5957 29.4873 87.8037 29.054C88.0117 28.6033 88.1157 28.1353 88.1157 27.65C88.1157 27.1473 88.0117 26.6793 87.8037 26.246C87.5957 25.8127 87.3357 25.466 87.0237 25.206C86.7117 24.9287 86.391 24.79 86.0617 24.79H81.2257L81.5377 24.322V30.952L81.2517 30.536H86.0617Z" fill="white"/>
</svg>
