<svg width="121" height="98" viewBox="0 0 121 98" fill="none" xmlns="http://www.w3.org/2000/svg">
<path d="M64.5 91.9225V0H56.5V91.9225H46V98H56.5H64.5H75V91.9225H64.5Z" fill="#A8A8A8"/>
<path d="M5.93832 7H112.092V15.7035L94.2759 20.9256L121 24.9462V37.4628L86.1106 42.6849H112.092V54H10.3923V46.1673L32.6624 43.5558H0V33.5465L19.3004 30.5L5.93832 24.9462V7Z" fill="#F8AF02"/>
<path d="M40.2 38.414C40.2 38.8647 40.0353 39.246 39.706 39.558C39.3767 39.8527 38.9953 40 38.562 40C38.0767 40 37.6867 39.8527 37.392 39.558C37.0973 39.246 36.95 38.8647 36.95 38.414V23.386C36.95 22.9353 37.106 22.5627 37.418 22.268C37.73 21.956 38.1287 21.8 38.614 21.8C39.03 21.8 39.394 21.956 39.706 22.268C40.0353 22.5627 40.2 22.9353 40.2 23.386V38.414ZM49.9602 40.26C48.7468 40.26 47.6548 40.1127 46.6842 39.818C45.7135 39.506 44.7862 38.9687 43.9022 38.206C43.6768 38.0153 43.5035 37.7987 43.3822 37.556C43.2608 37.3133 43.2002 37.0707 43.2002 36.828C43.2002 36.4293 43.3388 36.0827 43.6162 35.788C43.9108 35.476 44.2748 35.32 44.7082 35.32C45.0375 35.32 45.3322 35.424 45.5922 35.632C46.2508 36.1693 46.9008 36.5767 47.5422 36.854C48.2008 37.1313 49.0068 37.27 49.9602 37.27C50.6015 37.27 51.1908 37.1747 51.7282 36.984C52.2655 36.776 52.6988 36.5073 53.0282 36.178C53.3575 35.8313 53.5222 35.4413 53.5222 35.008C53.5222 34.488 53.3662 34.046 53.0542 33.682C52.7422 33.318 52.2655 33.0147 51.6242 32.772C50.9828 32.512 50.1682 32.3127 49.1802 32.174C48.2442 32.0353 47.4208 31.8273 46.7102 31.55C45.9995 31.2553 45.4015 30.8913 44.9162 30.458C44.4482 30.0073 44.0928 29.4873 43.8502 28.898C43.6075 28.2913 43.4862 27.6153 43.4862 26.87C43.4862 25.7433 43.7722 24.7813 44.3442 23.984C44.9335 23.1867 45.7222 22.58 46.7102 22.164C47.6982 21.748 48.7902 21.54 49.9862 21.54C51.1128 21.54 52.1528 21.7133 53.1062 22.06C54.0768 22.3893 54.8655 22.814 55.4722 23.334C55.9748 23.7327 56.2262 24.192 56.2262 24.712C56.2262 25.0933 56.0788 25.44 55.7842 25.752C55.4895 26.064 55.1428 26.22 54.7442 26.22C54.4842 26.22 54.2502 26.142 54.0422 25.986C53.7648 25.7433 53.3922 25.518 52.9242 25.31C52.4562 25.0847 51.9622 24.9027 51.4422 24.764C50.9222 24.608 50.4368 24.53 49.9862 24.53C49.2408 24.53 48.6082 24.6253 48.0882 24.816C47.5855 25.0067 47.2042 25.2667 46.9442 25.596C46.6842 25.9253 46.5542 26.3067 46.5542 26.74C46.5542 27.26 46.7015 27.6933 46.9962 28.04C47.3082 28.3693 47.7502 28.638 48.3222 28.846C48.8942 29.0367 49.5788 29.21 50.3762 29.366C51.4162 29.5567 52.3262 29.782 53.1062 30.042C53.9035 30.302 54.5622 30.64 55.0822 31.056C55.6022 31.4547 55.9922 31.966 56.2522 32.59C56.5122 33.1967 56.6422 33.942 56.6422 34.826C56.6422 35.9527 56.3302 36.9233 55.7062 37.738C55.0822 38.5527 54.2588 39.1767 53.2362 39.61C52.2308 40.0433 51.1388 40.26 49.9602 40.26ZM65.7858 40C65.3005 40 64.9018 39.8527 64.5898 39.558C64.2778 39.246 64.1218 38.8647 64.1218 38.414V23.334H67.5018V38.414C67.5018 38.8647 67.3372 39.246 67.0078 39.558C66.6958 39.8527 66.2885 40 65.7858 40ZM60.0398 24.79C59.5892 24.79 59.2078 24.6513 58.8958 24.374C58.6012 24.0967 58.4538 23.7327 58.4538 23.282C58.4538 22.8313 58.6012 22.476 58.8958 22.216C59.2078 21.9387 59.5892 21.8 60.0398 21.8H71.5838C72.0345 21.8 72.4072 21.9387 72.7018 22.216C73.0138 22.4933 73.1698 22.8573 73.1698 23.308C73.1698 23.7587 73.0138 24.1227 72.7018 24.4C72.4072 24.66 72.0345 24.79 71.5838 24.79H60.0398ZM78.436 40.26C77.448 40.26 76.5294 40.0607 75.68 39.662C74.8307 39.2633 74.1374 38.6913 73.6 37.946C73.392 37.634 73.288 37.3307 73.288 37.036C73.288 36.6027 73.4527 36.2387 73.782 35.944C74.1287 35.6493 74.4667 35.502 74.796 35.502C75.056 35.502 75.3074 35.58 75.55 35.736C75.81 35.892 76.044 36.074 76.252 36.282C76.5987 36.594 76.9367 36.8193 77.266 36.958C77.6127 37.0793 78.0027 37.14 78.436 37.14C78.956 37.14 79.4414 37.01 79.892 36.75C80.3427 36.49 80.7067 36.1433 80.984 35.71C81.2614 35.2767 81.4 34.8087 81.4 34.306V23.386C81.4 22.9353 81.5647 22.5627 81.894 22.268C82.2234 21.956 82.6047 21.8 83.038 21.8C83.5234 21.8 83.9134 21.956 84.208 22.268C84.5027 22.5627 84.65 22.9353 84.65 23.386V34.306C84.65 35.3633 84.3727 36.3427 83.818 37.244C83.2634 38.1453 82.518 38.8733 81.582 39.428C80.646 39.9827 79.5974 40.26 78.436 40.26Z" fill="white"/>
</svg>
