<svg width="121" height="98" viewBox="0 0 121 98" fill="none" xmlns="http://www.w3.org/2000/svg">
<path d="M64.5 91.9225V0H56.5V91.9225H46V98H56.5H64.5H75V91.9225H64.5Z" fill="#A8A8A8"/>
<path d="M5.93832 7H112.092V15.7035L94.2759 20.9256L121 24.9462V37.4628L86.1106 42.6849H112.092V54H10.3923V46.1673L32.6624 43.5558H0V33.5465L19.3004 30.5L5.93832 24.9462V7Z" fill="#C29E63"/>
<path d="M33.2 38.414C33.2 38.8647 33.0353 39.246 32.706 39.558C32.3767 39.8527 31.9953 40 31.562 40C31.0767 40 30.6867 39.8527 30.392 39.558C30.0973 39.246 29.95 38.8647 29.95 38.414V23.386C29.95 22.9353 30.106 22.5627 30.418 22.268C30.73 21.956 31.1287 21.8 31.614 21.8C32.03 21.8 32.394 21.956 32.706 22.268C33.0353 22.5627 33.2 22.9353 33.2 23.386V38.414ZM50.9162 21.8C51.3322 21.8 51.6702 21.9387 51.9302 22.216C52.1902 22.4933 52.3202 22.84 52.3202 23.256V38.414C52.3202 38.8647 52.1642 39.246 51.8522 39.558C51.5575 39.8527 51.1848 40 50.7342 40C50.5088 40 50.2748 39.9653 50.0322 39.896C49.8068 39.8093 49.6335 39.6967 49.5122 39.558L39.2942 26.584L39.9702 26.168V38.544C39.9702 38.96 39.8315 39.3067 39.5542 39.584C39.2942 39.8613 38.9475 40 38.5142 40C38.0982 40 37.7602 39.8613 37.5002 39.584C37.2402 39.3067 37.1102 38.96 37.1102 38.544V23.386C37.1102 22.9353 37.2575 22.5627 37.5522 22.268C37.8642 21.956 38.2455 21.8 38.6962 21.8C38.9388 21.8 39.1902 21.852 39.4502 21.956C39.7102 22.0427 39.9008 22.1813 40.0222 22.372L49.9282 35.008L49.4862 35.32V23.256C49.4862 22.84 49.6162 22.4933 49.8762 22.216C50.1362 21.9387 50.4828 21.8 50.9162 21.8ZM62.3913 40C61.906 40 61.5073 39.8527 61.1953 39.558C60.8833 39.246 60.7273 38.8647 60.7273 38.414V23.334H64.1073V38.414C64.1073 38.8647 63.9426 39.246 63.6133 39.558C63.3013 39.8527 62.894 40 62.3913 40ZM56.6453 24.79C56.1946 24.79 55.8133 24.6513 55.5013 24.374C55.2066 24.0967 55.0593 23.7327 55.0593 23.282C55.0593 22.8313 55.2066 22.476 55.5013 22.216C55.8133 21.9387 56.1946 21.8 56.6453 21.8H68.1893C68.64 21.8 69.0126 21.9387 69.3073 22.216C69.6193 22.4933 69.7753 22.8573 69.7753 23.308C69.7753 23.7587 69.6193 24.1227 69.3073 24.4C69.0126 24.66 68.64 24.79 68.1893 24.79H56.6453ZM80.0187 21.8C80.92 21.8 81.7607 22.06 82.5407 22.58C83.338 23.1 83.9794 23.802 84.4647 24.686C84.95 25.57 85.1927 26.558 85.1927 27.65C85.1927 28.7247 84.95 29.704 84.4647 30.588C83.9794 31.472 83.338 32.1827 82.5407 32.72C81.7607 33.24 80.92 33.5 80.0187 33.5H75.2347L75.4947 33.032V38.414C75.4947 38.8647 75.356 39.246 75.0787 39.558C74.8014 39.8527 74.4374 40 73.9867 40C73.5534 40 73.198 39.8527 72.9207 39.558C72.6434 39.246 72.5047 38.8647 72.5047 38.414V23.386C72.5047 22.9353 72.652 22.5627 72.9467 22.268C73.2587 21.956 73.64 21.8 74.0907 21.8H80.0187ZM80.0187 30.536C80.348 30.536 80.6687 30.3973 80.9807 30.12C81.2927 29.8427 81.5527 29.4873 81.7607 29.054C81.9687 28.6033 82.0727 28.1353 82.0727 27.65C82.0727 27.1473 81.9687 26.6793 81.7607 26.246C81.5527 25.8127 81.2927 25.466 80.9807 25.206C80.6687 24.9287 80.348 24.79 80.0187 24.79H75.1827L75.4947 24.322V30.952L75.2087 30.536H80.0187Z" fill="white"/>
</svg>
