<svg width="121" height="98" viewBox="0 0 121 98" fill="none" xmlns="http://www.w3.org/2000/svg">
<path d="M64.5 91.9225V0H56.5V91.9225H46V98H56.5H64.5H75V91.9225H64.5Z" fill="#A8A8A8"/>
<path d="M5.93832 7H112.092V15.7035L94.2759 20.9256L121 24.9462V37.4628L86.1106 42.6849H112.092V54H10.3923V46.1673L32.6624 43.5558H0V33.5465L19.3004 30.5L5.93832 24.9462V7Z" fill="#605C5C"/>
<path d="M27.588 21.774C27.8307 21.774 28.082 21.8433 28.342 21.982C28.6193 22.1033 28.8273 22.268 28.966 22.476L35.284 32.2L33.984 32.148L40.458 22.476C40.7873 22.008 41.212 21.774 41.732 21.774C42.148 21.774 42.5207 21.9213 42.85 22.216C43.1793 22.5107 43.344 22.892 43.344 23.36V38.414C43.344 38.8647 43.1967 39.246 42.902 39.558C42.6073 39.8527 42.2173 40 41.732 40C41.2467 40 40.848 39.8527 40.536 39.558C40.2413 39.246 40.094 38.8647 40.094 38.414V26.168L41.108 26.402L35.804 34.488C35.648 34.6787 35.4487 34.8433 35.206 34.982C34.9807 35.1207 34.7467 35.1813 34.504 35.164C34.2787 35.1813 34.0447 35.1207 33.802 34.982C33.5767 34.8433 33.386 34.6787 33.23 34.488L28.264 26.636L28.94 25.258V38.414C28.94 38.8647 28.8013 39.246 28.524 39.558C28.2467 39.8527 27.8827 40 27.432 40C26.9987 40 26.6433 39.8527 26.366 39.558C26.0887 39.246 25.95 38.8647 25.95 38.414V23.36C25.95 22.9267 26.106 22.554 26.418 22.242C26.7473 21.93 27.1373 21.774 27.588 21.774ZM63.9967 30.9C63.9967 32.2 63.7801 33.4133 63.3467 34.54C62.9134 35.6667 62.2981 36.6633 61.5007 37.53C60.7207 38.3793 59.7847 39.0467 58.6927 39.532C57.6181 40.0173 56.4394 40.26 55.1567 40.26C53.8741 40.26 52.6954 40.0173 51.6207 39.532C50.5461 39.0467 49.6101 38.3793 48.8127 37.53C48.0327 36.6633 47.4261 35.6667 46.9927 34.54C46.5594 33.4133 46.3427 32.2 46.3427 30.9C46.3427 29.6 46.5594 28.3867 46.9927 27.26C47.4261 26.1333 48.0327 25.1453 48.8127 24.296C49.6101 23.4293 50.5461 22.7533 51.6207 22.268C52.6954 21.7827 53.8741 21.54 55.1567 21.54C56.4394 21.54 57.6181 21.7827 58.6927 22.268C59.7847 22.7533 60.7207 23.4293 61.5007 24.296C62.2981 25.1453 62.9134 26.1333 63.3467 27.26C63.7801 28.3867 63.9967 29.6 63.9967 30.9ZM60.6167 30.9C60.6167 29.7387 60.3827 28.69 59.9147 27.754C59.4467 26.8007 58.8054 26.0467 57.9907 25.492C57.1761 24.9373 56.2314 24.66 55.1567 24.66C54.0821 24.66 53.1374 24.9373 52.3227 25.492C51.5081 26.0467 50.8667 26.792 50.3987 27.728C49.9481 28.664 49.7227 29.7213 49.7227 30.9C49.7227 32.0613 49.9481 33.1187 50.3987 34.072C50.8667 35.008 51.5081 35.7533 52.3227 36.308C53.1374 36.8627 54.0821 37.14 55.1567 37.14C56.2314 37.14 57.1761 36.8627 57.9907 36.308C58.8054 35.7533 59.4467 35.008 59.9147 34.072C60.3827 33.1187 60.6167 32.0613 60.6167 30.9ZM77.0173 36.958C77.4679 36.958 77.8406 37.1053 78.1353 37.4C78.4473 37.6773 78.6033 38.0413 78.6033 38.492C78.6033 38.9253 78.4473 39.2893 78.1353 39.584C77.8406 39.8613 77.4679 40 77.0173 40H68.5673C68.1166 40 67.7353 39.8527 67.4233 39.558C67.1286 39.246 66.9813 38.8647 66.9813 38.414V23.386C66.9813 22.9353 67.1373 22.5627 67.4493 22.268C67.7613 21.956 68.1599 21.8 68.6453 21.8C69.0613 21.8 69.4253 21.956 69.7373 22.268C70.0666 22.5627 70.2313 22.9353 70.2313 23.386V37.4L69.6593 36.958H77.0173ZM88.2629 25.882L82.6469 39.09C82.5255 39.4193 82.3349 39.6793 82.0749 39.87C81.8322 40.0433 81.5635 40.13 81.2689 40.13C80.8009 40.13 80.4542 40 80.2289 39.74C80.0035 39.48 79.8909 39.1593 79.8909 38.778C79.8909 38.622 79.9169 38.4573 79.9689 38.284L86.4429 22.736C86.5815 22.3893 86.7895 22.1207 87.0669 21.93C87.3615 21.7393 87.6735 21.6613 88.0029 21.696C88.3149 21.696 88.6009 21.7913 88.8609 21.982C89.1382 22.1553 89.3375 22.4067 89.4589 22.736L95.8549 37.972C95.9415 38.1973 95.9849 38.4053 95.9849 38.596C95.9849 39.064 95.8289 39.4367 95.5169 39.714C95.2222 39.9913 94.8929 40.13 94.5289 40.13C94.2169 40.13 93.9309 40.0347 93.6709 39.844C93.4282 39.6533 93.2375 39.3933 93.0989 39.064L87.5089 26.038L88.2629 25.882ZM83.4529 35.918L84.8829 32.928H91.9029L92.3969 35.918H83.4529Z" fill="white"/>
</svg>
