<svg width="140" height="139" viewBox="0 0 140 139" fill="none" xmlns="http://www.w3.org/2000/svg">
<path d="M110.804 99.8991C134.554 124.619 105.804 151.209 95.4644 130.879C91.3744 123.809 87.3544 118.918 83.3144 115.939C75.5044 110.139 67.6244 111.459 59.1244 117.829C54.4544 121.319 49.6044 126.34 44.4644 132.539C27.1344 148.88 3.85437 128.399 25.4644 99.8991C-0.895626 113.899 -12.1956 98.7891 18.2344 80.8991C-12.1956 82.7891 42.4544 -18.2109 67.0544 4.86913C94.4644 -22.5809 152.424 74.7091 120.474 80.8991C156.994 102.609 133.554 113.899 110.804 99.8991Z" fill="#42D990"/>
<path d="M70.8023 63.4901C70.8023 63.4901 68.8033 64.4081 67.1363 61.5741C65.4693 58.7401 64.1363 54.6571 68.2193 54.6571C72.3023 54.6571 76.6363 54.2411 76.8863 56.3241C77.1363 58.4071 75.9693 63.1561 70.8023 63.4901Z" fill="#3BC281"/>
<path d="M60.8173 50.3211C61.6233 57.4811 57.5553 63.8161 51.7313 64.4721C45.9073 65.1261 40.5333 59.8551 39.7273 52.6961C38.9213 45.5381 42.9893 39.2022 48.8133 38.5472C54.6373 37.8912 60.0113 43.1631 60.8173 50.3211Z" fill="white"/>
<path d="M55.0033 55.8001C55.0033 56.8641 54.2163 57.7271 53.2463 57.7271C52.2753 57.7271 51.4883 56.8651 51.4883 55.8001C51.4883 54.7361 52.2753 53.8741 53.2463 53.8741C54.2173 53.8751 55.0033 54.7371 55.0033 55.8001Z" fill="#814682"/>
<path d="M81.0354 50.3211C80.2294 57.4811 84.2974 63.8161 90.1214 64.4721C95.9454 65.1261 101.319 59.8551 102.125 52.6961C102.931 45.5381 98.8634 39.2022 93.0404 38.5472C87.2164 37.8912 81.8424 43.1631 81.0354 50.3211Z" fill="white"/>
<path d="M86.8506 55.8001C86.8506 56.8641 87.6376 57.7271 88.6076 57.7271C89.5786 57.7271 90.3656 56.8651 90.3656 55.8001C90.3656 54.7361 89.5786 53.8741 88.6076 53.8741C87.6366 53.8751 86.8506 54.7371 86.8506 55.8001Z" fill="#814682"/>
<path d="M92.0046 98.7392C92.0046 105.749 90.3646 115.024 83.3146 115.939C75.5046 110.139 67.6246 111.459 59.1246 117.829C52.1746 114.159 47.4546 106.989 47.4546 98.7392C47.4546 86.7602 57.4296 82.5242 69.7296 82.5242C82.0296 82.5242 92.0046 86.7592 92.0046 98.7392Z" fill="#FFD37B"/>
<path d="M62.7383 69.4481C62.7383 69.4481 63.7603 76.6541 67.6753 78.0771C71.5893 79.5001 68.5993 67.9921 68.5993 67.9921C68.5993 67.9921 65.0063 67.8911 62.7383 69.4481Z" fill="white"/>
<path d="M79.6994 69.4481C79.6994 69.4481 78.6774 76.6541 74.7624 78.0771C70.8484 79.5001 73.8384 67.9921 73.8384 67.9921C73.8384 67.9921 77.4314 67.8911 79.6994 69.4481Z" fill="white"/>
</svg>
