<svg width="127" height="127" viewBox="0 0 127 127" fill="none" xmlns="http://www.w3.org/2000/svg">
<path d="M95.1376 73.2001L91.3276 54.418L91.2026 54.445C92.7026 54.096 105.889 50.514 107.097 32.354C107.448 27.074 112.016 23.08 117.293 23.429C122.573 23.78 126.569 28.345 126.218 33.625C124.444 60.301 105.112 71.1761 95.1376 73.2001Z" fill="#51BA87"/>
<path d="M9.59366 114.48C8.94866 114.48 8.29466 114.414 7.63766 114.278C2.45666 113.203 -0.873337 108.131 0.201663 102.95C5.44066 77.6911 24.8767 61.3831 25.7017 60.7021C29.7797 57.3301 35.8197 57.9031 39.1917 61.9821C42.5577 66.0531 41.9927 72.0791 37.9337 75.4541C37.6167 75.7221 22.7867 88.4231 18.9667 106.842C18.0287 111.367 14.0407 114.479 9.59366 114.48Z" fill="#51BA87"/>
<path d="M37.4166 126.604C32.1506 126.083 28.3026 121.392 28.8236 116.126L30.1426 102.776L49.2136 104.661L47.8946 118.011C47.3746 123.277 42.6836 127.124 37.4166 126.604Z" fill="#51BA87"/>
<path d="M84.0244 126.4C78.7964 127.223 73.8914 123.653 73.0684 118.425L70.9814 105.174L89.9124 102.192L91.9994 115.443C92.8224 120.671 89.2524 125.577 84.0244 126.4Z" fill="#51BA87"/>
<path d="M92.1486 50.7021C92.1486 50.3131 92.1436 49.9291 92.1346 49.5491C91.8156 36.3901 82.8916 25.4561 70.8836 21.7441C73.1126 20.0821 74.7556 17.6281 75.3816 14.9151C75.6966 13.5511 75.7546 12.0681 75.1696 10.7961C74.2296 8.75306 71.7046 7.71206 69.5006 8.15806C67.2966 8.60406 65.4826 10.3181 64.5386 12.3601C64.9726 9.39806 64.5666 6.31706 63.3786 3.56906C62.9766 2.63906 62.4746 1.73006 61.7326 1.04006C60.9906 0.350064 59.9766 -0.0999401 58.9706 0.0190599C57.2656 0.22006 56.1486 1.89106 55.4936 3.47806C54.0596 6.95206 53.6876 10.8561 54.4386 14.5381C53.4596 13.8361 52.7616 12.8201 52.0506 11.8461C51.3406 10.8731 50.5666 9.89407 49.5046 9.32507C48.4426 8.75607 47.0176 8.69706 46.1136 9.49406C45.0976 10.3901 45.0876 11.9631 45.3306 13.2951C45.8866 16.3471 47.8516 18.4571 48.8036 21.2661C48.8716 21.4661 48.9476 21.6541 49.0276 21.8371C37.1626 25.6321 28.3766 36.4941 28.0596 49.5491C28.0506 49.9291 28.0456 50.3131 28.0456 50.7021C28.0456 75.6041 17.5796 78.1311 17.5796 96.1761C17.5796 114.221 35.6246 121.8 47.1736 121.8H73.0186C84.5676 121.8 102.613 114.221 102.613 96.1761C102.613 78.1311 92.1486 75.6051 92.1486 50.7021Z" fill="#5FD99D"/>
<path d="M77.8989 47.0601C77.8989 56.8911 76.0749 62.5551 60.0979 62.5551C44.1969 62.5551 42.2969 56.8911 42.2969 47.0601C42.2969 37.2291 44.4569 26.8791 60.0979 26.8791C74.9699 26.8791 77.8989 37.2291 77.8989 47.0601Z" fill="#FFEDDB"/>
<path d="M77.1087 66.4911C75.5857 65.3261 73.4437 65.3051 71.8187 66.3231C67.5207 69.0151 62.8887 69.2851 60.9887 69.2661C60.3937 69.2601 59.8037 69.2601 59.2087 69.2661C57.3087 69.2841 52.6767 69.0151 48.3787 66.3231C46.7537 65.3051 44.6117 65.3261 43.0887 66.4911C41.1677 67.9601 40.7207 70.6031 41.9727 72.5771C44.1877 76.0711 49.2487 81.0491 60.0997 81.0491C70.9507 81.0491 76.0107 76.0721 78.2267 72.5771C79.4757 70.6031 79.0297 67.9601 77.1087 66.4911Z" fill="#A33434"/>
<path d="M49.8037 79.122C52.4607 80.271 55.8247 81.049 60.0977 81.049C64.3707 81.049 67.7347 80.271 70.3917 79.122C68.2757 75.647 64.4637 73.319 60.0977 73.319C55.7317 73.318 51.9197 75.647 49.8037 79.122Z" fill="#FF5252"/>
<path d="M55.2357 73.3181C57.2347 73.3181 58.8557 71.6971 58.8557 69.6981V69.2661C57.3307 69.2511 54.5787 69.0401 51.6157 67.9211V69.6971C51.6167 71.6981 53.2367 73.3181 55.2357 73.3181Z" fill="#FFEDDB"/>
<path d="M64.9515 73.3181C66.9505 73.3181 68.5715 71.697 68.5715 69.698V67.925C65.6065 69.043 62.8535 69.253 61.3315 69.267V69.6991C61.3315 71.6981 62.9515 73.3181 64.9515 73.3181Z" fill="#FFEDDB"/>
<path d="M84.0115 64.9751C86.6978 64.9751 88.8755 62.7974 88.8755 60.1111C88.8755 57.4248 86.6978 55.2471 84.0115 55.2471C81.3251 55.2471 79.1475 57.4248 79.1475 60.1111C79.1475 62.7974 81.3251 64.9751 84.0115 64.9751Z" fill="#FFAB40"/>
<path d="M60.0977 119.709C73.5944 119.709 84.5357 112.273 84.5357 103.1C84.5357 93.9272 73.5944 86.4911 60.0977 86.4911C46.6009 86.4911 35.6597 93.9272 35.6597 103.1C35.6597 112.273 46.6009 119.709 60.0977 119.709Z" fill="#FFD1A3"/>
<path d="M67.0571 51.6781C70.9017 47.8335 70.9017 41.6 67.0571 37.7553C63.2124 33.9107 56.9789 33.9107 53.1343 37.7553C49.2896 41.6 49.2896 47.8335 53.1343 51.6781C56.9789 55.5228 63.2124 55.5228 67.0571 51.6781Z" fill="#40C4FF"/>
<path d="M65.7739 44.7171C65.7739 47.8521 63.2329 50.3931 60.0979 50.3931C56.9629 50.3931 54.4219 47.8521 54.4219 44.7171C54.4219 41.5821 56.9629 39.041 60.0979 39.041C63.2329 39.042 65.7739 41.5831 65.7739 44.7171Z" fill="#0F445C"/>
<path d="M67.2008 41.265C67.2008 42.814 65.9448 44.069 64.3968 44.069C62.8478 44.069 61.5928 42.813 61.5928 41.265C61.5928 39.717 62.8488 38.461 64.3968 38.461C65.9458 38.461 67.2008 39.717 67.2008 41.265Z" fill="white"/>
<path d="M36.1848 64.9751C38.8711 64.9751 41.0488 62.7974 41.0488 60.1111C41.0488 57.4248 38.8711 55.2471 36.1848 55.2471C33.4985 55.2471 31.3208 57.4248 31.3208 60.1111C31.3208 62.7974 33.4985 64.9751 36.1848 64.9751Z" fill="#FFAB40"/>
</svg>
