<svg width="116" height="140" viewBox="0 0 116 140" fill="none" xmlns="http://www.w3.org/2000/svg">
<path d="M18.9706 94.0624C15.9976 104.482 9.6846 111.815 4.8666 110.44C0.0505962 109.065 -1.4444 99.5054 1.5296 89.0864C4.5026 78.6674 10.8166 71.3344 15.6336 72.7094C20.4496 74.0854 21.9446 83.6444 18.9706 94.0624Z" fill="#B53B4D"/>
<path d="M96.9487 94.0624C99.9217 104.482 106.235 111.815 111.051 110.44C115.867 109.065 117.362 99.5054 114.388 89.0864C111.415 78.6674 105.101 71.3344 100.284 72.7094C95.4697 74.0854 93.9757 83.6444 96.9487 94.0624Z" fill="#B53B4D"/>
<path d="M38.0417 127.865C38.2607 131.04 42.7607 136.817 40.1067 138.397C33.5247 142.317 20.0497 136.679 19.4867 129.283C18.7797 120.053 19.9467 110.77 22.9147 102.002C25.2907 94.9764 32.0307 91.9174 36.3817 94.6224C40.7697 97.3264 42.1367 103.132 40.5427 107.969C38.3787 114.363 37.5277 121.132 38.0417 127.865Z" fill="#B53B4D"/>
<path d="M78.4876 127.865C78.2686 131.04 73.7687 136.817 76.4227 138.397C83.0057 142.317 96.4806 136.679 97.0436 129.283C97.7496 120.053 96.5827 110.77 93.6157 102.002C91.2387 94.9764 84.4997 91.9174 80.1477 94.6224C75.7597 97.3264 74.3926 103.132 75.9866 107.969C78.1516 114.363 79.0016 121.132 78.4876 127.865Z" fill="#B53B4D"/>
<path d="M99.2157 72.9794C108.484 113.252 85.4287 141.116 57.9387 119.414C30.4467 141.116 7.39168 113.253 16.6597 72.9794C-1.74632 65.4164 -3.04832 55.4094 14.2347 51.8254C-5.23032 27.4494 4.99668 15.8784 28.8717 27.7144C23.1307 9.37344 29.7307 4.73144 42.8097 19.8484C43.4937 -3.50956 57.9397 -7.34356 57.9397 14.2044C72.5087 -6.87156 86.5797 7.04544 87.0057 27.7134C110.879 15.8784 121.107 27.4494 101.642 51.8254C118.924 55.4094 117.622 65.4174 99.2157 72.9794Z" fill="#FF536D"/>
<path d="M87.7765 46.6304C87.7765 51.6944 84.3655 55.8014 80.1605 55.8014C75.9515 55.8014 72.5425 51.6954 72.5425 46.6304C72.5425 41.5654 75.9515 37.4604 80.1605 37.4604C84.3655 37.4594 87.7765 41.5654 87.7765 46.6304Z" fill="#FFFCCC"/>
<path d="M83.4097 48.1824C83.4097 49.9784 81.9537 51.4344 80.1597 51.4344C78.3637 51.4344 76.9077 49.9784 76.9077 48.1824C76.9077 46.3884 78.3637 44.9324 80.1597 44.9324C81.9537 44.9324 83.4097 46.3884 83.4097 48.1824Z" fill="#BEFF57"/>
<path d="M81.6254 48.1825C81.6254 48.9945 80.9694 49.6515 80.1594 49.6515C79.3484 49.6515 78.6914 48.9945 78.6914 48.1825C78.6914 47.3735 79.3474 46.7155 80.1594 46.7155C80.9694 46.7155 81.6254 47.3745 81.6254 48.1825Z" fill="#201600"/>
<path d="M42.9377 46.6304C42.9377 51.6944 39.5257 55.8014 35.3197 55.8014C31.1127 55.8014 27.7017 51.6954 27.7017 46.6304C27.7017 41.5654 31.1127 37.4604 35.3197 37.4604C39.5257 37.4594 42.9377 41.5654 42.9377 46.6304Z" fill="#FFFCCC"/>
<path d="M38.5699 48.1824C38.5699 49.9784 37.1159 51.4344 35.3199 51.4344C33.5239 51.4344 32.0679 49.9784 32.0679 48.1824C32.0679 46.3884 33.5239 44.9324 35.3199 44.9324C37.1159 44.9324 38.5699 46.3884 38.5699 48.1824Z" fill="#BEFF57"/>
<path d="M36.7866 48.1825C36.7866 48.9945 36.1296 49.6515 35.3186 49.6515C34.5066 49.6515 33.8496 48.9945 33.8496 48.1825C33.8496 47.3735 34.5066 46.7155 35.3186 46.7155C36.1296 46.7155 36.7866 47.3745 36.7866 48.1825Z" fill="#201600"/>
<path d="M72.0785 63.0764C71.9365 64.3184 71.6355 65.5964 71.2985 66.8834C69.5405 71.7014 64.2515 75.2514 57.9415 75.2354H57.8975C51.5965 75.2354 46.3335 71.6944 44.5775 66.8834C44.2395 65.5964 43.9385 64.3194 43.7965 63.0764C43.4945 61.0794 45.1715 59.7034 47.3905 59.0194C47.7545 58.9044 48.1445 58.8164 48.5365 58.7364C49.5125 58.5324 50.5415 58.4344 51.6065 58.3994C52.9375 58.3544 54.3395 58.3994 55.7685 58.4244C56.4785 58.4344 57.2065 58.4434 57.9425 58.4344C58.2005 58.4344 58.4485 58.4434 58.7065 58.4434C59.1145 58.4434 59.5225 58.4344 59.9315 58.4344C61.3165 58.4084 62.6735 58.3634 63.9785 58.3994C65.1495 58.4244 66.2775 58.5144 67.3415 58.7364C67.6255 58.7894 67.9095 58.8604 68.1845 58.9314C70.5525 59.5884 72.3985 60.9814 72.0785 63.0764Z" fill="#B53B4D"/>
<path d="M51.6577 59.1264C51.6577 60.9554 50.7087 62.4454 49.5287 62.4454C48.3477 62.4454 47.3887 60.9554 47.3887 59.1264V59.0204C47.7527 58.9054 48.1427 58.8174 48.5347 58.7374C49.5107 58.5334 50.5397 58.4354 51.6047 58.4004C51.6407 58.6304 51.6577 58.8794 51.6577 59.1264Z" fill="white"/>
<path d="M59.9839 59.1264C59.9839 60.9554 59.0249 62.4454 57.8449 62.4454C56.6639 62.4454 55.7139 60.9554 55.7139 59.1264C55.7139 58.8874 55.7329 58.6474 55.7679 58.4254C56.4779 58.4354 57.2059 58.4444 57.9419 58.4354C58.1999 58.4354 58.4479 58.4444 58.7059 58.4444C59.1139 58.4444 59.5219 58.4354 59.9309 58.4354C59.9649 58.6564 59.9839 58.8864 59.9839 59.1264Z" fill="white"/>
<path d="M68.1928 59.1264C68.1928 60.9554 67.2338 62.4454 66.0538 62.4454C64.8728 62.4454 63.9229 60.9554 63.9229 59.1264C63.9229 58.8794 63.9419 58.6304 63.9769 58.3994C65.1479 58.4244 66.2759 58.5144 67.3399 58.7364C67.6239 58.7894 67.9078 58.8604 68.1828 58.9314C68.1928 58.9944 68.1928 59.0644 68.1928 59.1264Z" fill="white"/>
<path d="M62.4517 49.6515C62.4517 51.3365 60.3906 52.7025 57.8476 52.7025C55.3046 52.7025 53.2437 51.3365 53.2437 49.6515C53.2437 47.9665 55.3046 46.6005 57.8476 46.6005C60.3906 46.6005 62.4517 47.9665 62.4517 49.6515Z" fill="#B53B4D"/>
</svg>
