<svg width="113" height="146" viewBox="0 0 113 146" fill="none" xmlns="http://www.w3.org/2000/svg">
<path d="M55.6559 0C52.4199 0 49.7959 2.623 49.7959 5.86C49.7959 7.172 50.2269 8.381 50.9549 9.357C52.1939 11.017 53.9749 14.912 53.9749 19.157V30.788C53.9749 31.716 54.7279 32.469 55.6559 32.469C56.5839 32.469 57.3369 31.716 57.3369 30.788V19.156C57.3369 14.911 59.1179 11.016 60.3569 9.356C61.0859 8.38 61.5159 7.171 61.5159 5.859C61.5159 2.623 58.8929 0 55.6559 0Z" fill="#3EB5C7"/>
<path d="M23.8622 8.72097C21.0592 10.339 20.0992 13.923 21.7172 16.726C22.3732 17.861 23.3512 18.694 24.4702 19.175C26.3712 19.993 29.8622 22.476 31.9842 26.152L37.7992 36.224C38.2642 37.028 39.2922 37.304 40.0962 36.84C40.9002 36.376 41.1762 35.347 40.7112 34.543L34.8962 24.471C32.7742 20.795 32.3692 16.531 32.6112 14.474C32.7542 13.265 32.5222 12.001 31.8662 10.866C30.2482 8.06397 26.6652 7.10297 23.8622 8.72097Z" fill="#3EB5C7"/>
<path d="M0.786004 32.146C-0.831996 34.948 0.128008 38.532 2.93101 40.15C4.06701 40.806 5.33001 41.038 6.53901 40.895C8.59601 40.653 12.86 41.058 16.535 43.18L26.607 48.996C27.411 49.46 28.44 49.185 28.903 48.381C29.368 47.576 29.092 46.548 28.288 46.085L18.216 40.269C14.54 38.147 12.057 34.657 11.239 32.755C10.759 31.636 9.925 30.658 8.79 30.002C5.987 28.383 2.404 29.343 0.786004 32.146Z" fill="#3EB5C7"/>
<path d="M88.2611 8.72097C91.0641 10.339 92.0242 13.923 90.4062 16.726C89.7512 17.861 88.7722 18.694 87.6542 19.175C85.7522 19.993 82.2612 22.476 80.1392 26.152L74.3252 36.224C73.8602 37.028 72.8321 37.304 72.0281 36.84C71.2231 36.376 70.9482 35.347 71.4132 34.543L77.2282 24.471C79.3502 20.795 79.7562 16.531 79.5132 14.474C79.3692 13.265 79.6022 12.001 80.2582 10.866C81.8752 8.06397 85.4581 7.10297 88.2611 8.72097Z" fill="#3EB5C7"/>
<path d="M111.441 32.146C113.059 34.948 112.099 38.532 109.296 40.15C108.16 40.806 106.897 41.038 105.688 40.895C103.631 40.653 99.369 41.058 95.692 43.18L85.6201 48.996C84.8161 49.46 83.7881 49.185 83.3241 48.381C82.8591 47.576 83.1351 46.548 83.9391 46.085L94.011 40.269C97.686 38.147 100.169 34.657 100.988 32.755C101.468 31.636 102.302 30.658 103.437 30.002C106.24 28.383 109.823 29.343 111.441 32.146Z" fill="#3EB5C7"/>
<path d="M51.4759 138.963C51.4759 142.643 48.4939 145.626 44.8139 145.626C41.1349 145.626 38.1519 142.643 38.1519 138.963V121.165C38.1519 117.485 41.1349 114.502 44.8139 114.502C48.4939 114.502 51.4759 117.485 51.4759 121.165V138.963Z" fill="#3EB5C7"/>
<path d="M71.8401 138.963C71.8401 142.643 68.8581 145.626 65.1781 145.626C61.4981 145.626 58.5161 142.643 58.5161 138.963V121.165C58.5161 117.485 61.4981 114.502 65.1781 114.502C68.8581 114.502 71.8401 117.485 71.8401 121.165V138.963Z" fill="#3EB5C7"/>
<path d="M102.17 88.6431C102.17 114.108 81.5252 134.751 56.0612 134.751C30.5962 134.751 9.95215 114.108 9.95215 88.6431V67.6381C9.95215 42.1731 30.5952 21.5291 56.0612 21.5291C81.5252 21.5291 102.17 42.1731 102.17 67.6381V88.6431Z" fill="#5DC8DD"/>
<path d="M81.2281 63.591C81.2281 77.49 69.9611 88.758 56.0601 88.758C42.1611 88.758 30.8931 77.49 30.8931 63.591C30.8931 49.691 42.1611 38.423 56.0601 38.423C69.9611 38.423 81.2281 49.692 81.2281 63.591Z" fill="#FFFCCC"/>
<path d="M66.8013 63.591C66.8013 69.522 61.9923 74.332 56.0613 74.332C50.1303 74.332 45.3213 69.522 45.3213 63.591C45.3213 57.659 50.1303 52.85 56.0613 52.85C61.9923 52.85 66.8013 57.66 66.8013 63.591Z" fill="#FED283"/>
<path d="M60.9099 63.591C60.9099 66.269 58.7389 68.44 56.0599 68.44C53.3819 68.44 51.2109 66.269 51.2109 63.591C51.2109 60.913 53.3819 58.741 56.0599 58.741C58.7389 58.742 60.9099 60.913 60.9099 63.591Z" fill="#201600"/>
<path d="M55.6561 98.455C52.5971 98.455 49.7531 97.957 47.3721 97.104C47.3801 101.672 51.0861 105.374 55.6561 105.374C60.2251 105.374 63.9311 101.673 63.9381 97.104C61.5591 97.957 58.7141 98.455 55.6561 98.455Z" fill="#814682"/>
</svg>
