<svg width="135" height="149" viewBox="0 0 135 149" fill="none" xmlns="http://www.w3.org/2000/svg">
<path d="M13.7978 70.2071C13.7978 70.2071 -3.43724 82.1261 0.617759 125.359C0.617759 125.359 1.16676 131.506 13.7668 129.466C22.9898 127.973 20.0088 112.766 22.4488 97.5591C24.8888 82.3521 31.1898 72.5381 25.6248 70.2071C17.9888 67.0101 13.7978 70.2071 13.7978 70.2071Z" fill="#B2DCED"/>
<path d="M120.889 70.2071C120.889 70.2071 138.123 82.1261 134.069 125.359C134.069 125.359 133.52 131.506 120.919 129.466C111.696 127.973 114.679 112.766 112.237 97.5591C109.798 82.3521 103.497 72.5381 109.063 70.2071C116.697 67.0101 120.889 70.2071 120.889 70.2071Z" fill="#B2DCED"/>
<path d="M41.7476 19.7652C41.7476 19.7652 28.6576 15.3042 22.3276 3.1392C15.9976 -9.0268 -1.64342 16.3192 27.1496 42.2722C55.9416 68.2262 41.7476 19.7652 41.7476 19.7652Z" fill="#37454B"/>
<path d="M93.1117 19.7652C93.1117 19.7652 106.204 15.3042 112.534 3.1392C118.864 -9.0268 136.505 16.3192 107.712 42.2722C78.9187 68.2262 93.1117 19.7652 93.1117 19.7652Z" fill="#37454B"/>
<path d="M76.0957 132.453C74.6777 139.688 77.4867 147.716 84.4827 148.629C94.6917 149.734 100.352 148.365 102.499 137.842C105.179 124.708 105.179 111.163 102.499 98.0292C100.352 87.5062 91.2217 81.8952 84.4827 84.9952C77.6917 88.0872 74.6777 96.1812 76.0957 103.417C78.0497 112.995 78.0497 122.875 76.0957 132.453Z" fill="#B2DCED"/>
<path d="M54.8129 131.127C56.2309 138.363 53.4219 146.391 46.4249 147.303C36.2149 148.408 30.5559 147.039 28.4099 136.516C25.7299 123.383 25.7299 109.837 28.4099 96.7032C30.5559 86.1802 39.6859 80.5692 46.4249 83.6692C53.2169 86.7622 56.2309 94.8552 54.8129 102.092C52.8579 111.67 52.8579 121.549 54.8129 131.127Z" fill="#B2DCED"/>
<path d="M101.326 109.009C103.279 134.885 86.6345 141.424 67.4835 120.884C47.1955 141.414 29.8785 134.239 32.4515 107.966C7.31253 113.875 1.27754 83.2453 20.9475 77.5723C3.20354 72.1033 4.58953 63.5443 23.8085 59.3493C11.1175 23.8883 35.9415 -1.67575 67.4835 19.1672C67.3895 -1.66675 67.3895 -1.66675 67.4975 19.1672C98.8175 -1.66675 123.633 23.8973 111.154 59.3493C130.172 63.5433 131.547 72.1033 114.021 77.5723C136.16 96.9762 128.977 113.307 101.326 109.009Z" fill="#6EB5D2"/>
<path d="M77.8218 40.4761C77.0148 47.6361 81.0828 53.9711 86.9068 54.6271C92.7308 55.2811 98.1038 50.0101 98.9108 42.8511C99.7178 35.6931 95.6488 29.3571 89.8258 28.7021C83.9998 28.0461 78.6268 33.3181 77.8218 40.4761Z" fill="white"/>
<path d="M87.875 48.9642C87.875 49.8602 87.193 50.5862 86.354 50.5862C85.514 50.5862 84.833 49.8592 84.833 48.9642C84.833 48.0682 85.514 47.3422 86.354 47.3422C87.194 47.3422 87.875 48.0682 87.875 48.9642Z" fill="#37454B"/>
<path d="M57.7987 40.4762C58.6047 47.6362 54.5367 53.9712 48.7127 54.6272C42.8887 55.2812 37.5147 50.0102 36.7087 42.8512C35.9027 35.6932 39.9707 29.3572 45.7947 28.7022C51.6187 28.0472 56.9927 33.3182 57.7987 40.4762Z" fill="white"/>
<path d="M51.9847 45.9552C51.9847 47.0202 51.1977 47.8822 50.2277 47.8822C49.2567 47.8822 48.4697 47.0202 48.4697 45.9552C48.4697 44.8922 49.2567 44.0292 50.2277 44.0292C51.1977 44.0292 51.9847 44.8922 51.9847 45.9552Z" fill="#37454B"/>
<path d="M48.2646 57.9671C48.2646 57.9671 70.0267 69.7742 87.6517 57.8892" stroke="#37454B" stroke-width="3" stroke-miterlimit="10" stroke-linecap="round"/>
<path d="M71.7948 42.7762C70.4398 37.6952 66.3027 38.6652 65.0587 41.8302C63.8167 44.9952 56.5857 63.8072 65.0587 66.4872C72.3277 68.7862 77.5468 64.3552 71.7948 42.7762Z" fill="#B2DCED"/>
</svg>
