<svg width="146" height="130" viewBox="0 0 146 130" fill="none" xmlns="http://www.w3.org/2000/svg">
<path d="M36.3944 18.259C36.3944 23.649 32.0254 28.018 26.6364 28.018C21.2464 28.018 16.8774 23.649 16.8774 18.259C16.8774 12.869 21.2474 8.5 26.6364 8.5C32.0254 8.5 36.3944 12.869 36.3944 18.259Z" fill="#814682"/>
<path d="M127.794 18.259C127.794 23.649 123.425 28.018 118.035 28.018C112.645 28.018 108.276 23.649 108.276 18.259C108.276 12.869 112.645 8.5 118.035 8.5C123.425 8.5 127.794 12.869 127.794 18.259Z" fill="#814682"/>
<path d="M33.3525 98.129C35.0175 106.624 31.4785 116.125 23.5065 119.754C15.5965 123.394 4.8775 116.807 2.3595 104.455C-0.7865 89.038 -0.7865 73.137 2.3595 57.719C4.8785 45.367 15.5965 38.78 23.5065 42.42C31.4795 46.049 35.0175 55.55 33.3525 64.045C31.0575 75.288 31.0575 86.885 33.3525 98.129Z" fill="#814682"/>
<path d="M72.4516 107.014C74.1156 115.509 70.5776 125.01 62.6056 128.639C54.6956 132.279 43.9766 125.692 41.4586 113.34C38.3126 97.923 38.3126 82.022 41.4586 66.604C43.9766 54.252 54.6956 47.666 62.6056 51.305C70.5786 54.934 74.1156 64.435 72.4516 72.93C70.1566 84.174 70.1566 95.77 72.4516 107.014Z" fill="#814682"/>
<path d="M72.4654 107.014C70.8024 115.509 74.3394 125.01 82.3114 128.639C90.2214 132.279 100.94 125.692 103.459 113.34C106.606 97.923 106.606 82.022 103.459 66.604C100.94 54.252 90.2214 47.666 82.3114 51.305C74.3394 54.934 70.8014 64.435 72.4654 72.93C74.7604 84.174 74.7604 95.77 72.4654 107.014Z" fill="#814682"/>
<path d="M112.356 98.129C110.691 106.624 114.229 116.125 122.202 119.754C130.112 123.394 140.831 116.807 143.349 104.455C146.495 89.038 146.495 73.137 143.349 57.719C140.831 45.367 130.112 38.78 122.202 42.42C114.229 46.049 110.691 55.55 112.356 64.045C114.651 75.288 114.651 86.885 112.356 98.129Z" fill="#814682"/>
<path d="M124.317 72.278C119.375 97.949 98.8854 119.135 72.8544 119.127C46.8234 119.136 26.3344 97.949 21.3914 72.278C20.2494 65.198 18.9634 58.13 17.6334 51.063C12.1564 26.278 37.0374 0.605 72.8544 0C108.67 0.605 133.553 26.279 128.075 51.063C126.746 58.13 125.459 65.198 124.317 72.278Z" fill="#AC5DAE"/>
<path d="M64.3954 36.19C64.3954 43.069 58.8184 48.647 51.9394 48.647C45.0604 48.647 39.4824 43.07 39.4824 36.19C39.4824 29.31 45.0594 23.733 51.9394 23.733C58.8174 23.733 64.3954 29.31 64.3954 36.19Z" fill="#FFFCCC"/>
<path d="M57.2545 36.19C57.2545 39.126 54.8745 41.505 51.9395 41.505C49.0035 41.505 46.6235 39.125 46.6235 36.19C46.6235 33.254 49.0035 30.874 51.9395 30.874C54.8745 30.874 57.2545 33.254 57.2545 36.19Z" fill="#88DFFF"/>
<path d="M54.3396 36.19C54.3396 37.515 53.2646 38.59 51.9396 38.59C50.6136 38.59 49.5396 37.515 49.5396 36.19C49.5396 34.865 50.6146 33.79 51.9396 33.79C53.2646 33.79 54.3396 34.865 54.3396 36.19Z" fill="#201600"/>
<path d="M103.385 36.19C103.385 43.069 97.8077 48.647 90.9277 48.647C84.0487 48.647 78.4717 43.07 78.4717 36.19C78.4717 29.31 84.0487 23.733 90.9277 23.733C97.8077 23.733 103.385 29.31 103.385 36.19Z" fill="#FFFCCC"/>
<path d="M96.2448 36.19C96.2448 39.126 93.8648 41.505 90.9278 41.505C87.9928 41.505 85.6128 39.125 85.6128 36.19C85.6128 33.254 87.9928 30.874 90.9278 30.874C93.8638 30.874 96.2448 33.254 96.2448 36.19Z" fill="#88DFFF"/>
<path d="M93.3288 36.19C93.3288 37.515 92.2538 38.59 90.9288 38.59C89.6038 38.59 88.5288 37.515 88.5288 36.19C88.5288 34.865 89.6038 33.79 90.9288 33.79C92.2538 33.79 93.3288 34.865 93.3288 36.19Z" fill="#201600"/>
<path d="M73.4114 57.907C69.6224 57.907 66.0984 57.291 63.1494 56.234C63.1594 61.893 67.7504 66.479 73.4114 66.479C79.0734 66.479 83.6644 61.893 83.6744 56.234C80.7254 57.291 77.2004 57.907 73.4114 57.907Z" fill="#814682"/>
</svg>
