<svg width="123" height="151" viewBox="0 0 123 151" fill="none" xmlns="http://www.w3.org/2000/svg">
<path d="M67.0774 41.201H62.8164C62.8164 15.663 90.1384 14.226 90.4144 14.214L90.5924 18.471L90.5034 16.343L90.5954 18.471C89.6354 18.515 67.0774 19.774 67.0774 41.201Z" fill="#DE6038"/>
<path d="M86.9763 32.686C96.0023 32.686 103.319 25.369 103.319 16.343C103.319 7.31703 96.0023 0 86.9763 0C77.9503 0 70.6333 7.31703 70.6333 16.343C70.6333 25.369 77.9503 32.686 86.9763 32.686Z" fill="#FF6E40"/>
<path d="M90.5036 32.1411C99.2286 32.1411 106.302 25.068 106.302 16.343C106.302 7.61805 99.2286 0.545044 90.5036 0.545044C81.7786 0.545044 74.7056 7.61805 74.7056 16.343C74.7056 25.068 81.7786 32.1411 90.5036 32.1411Z" fill="#FFEDDB"/>
<path d="M90.5032 26.146C95.9172 26.146 100.306 21.7571 100.306 16.343C100.306 10.929 95.9172 6.54004 90.5032 6.54004C85.0891 6.54004 80.7002 10.929 80.7002 16.343C80.7002 21.7571 85.0891 26.146 90.5032 26.146Z" fill="#FF80AB"/>
<path d="M85.0835 16.343C85.0835 19.336 87.5095 21.763 90.5035 21.763C93.4965 21.763 95.9235 19.337 95.9235 16.343C95.9235 13.35 93.4975 10.923 90.5035 10.923C87.5105 10.924 85.0835 13.35 85.0835 16.343Z" fill="#7A3D52"/>
<path d="M94.5966 14.66C96.0673 14.66 97.2596 13.4677 97.2596 11.997C97.2596 10.5262 96.0673 9.33398 94.5966 9.33398C93.1259 9.33398 91.9336 10.5262 91.9336 11.997C91.9336 13.4677 93.1259 14.66 94.5966 14.66Z" fill="white"/>
<path d="M59.4464 41.201H55.1854C55.1854 19.702 32.6304 18.512 31.6704 18.471L31.8484 14.214C32.1244 14.226 59.4464 15.664 59.4464 41.201Z" fill="#DE6038"/>
<path d="M35.2864 32.686C44.3124 32.686 51.6294 25.369 51.6294 16.343C51.6294 7.31703 44.3124 0 35.2864 0C26.2604 0 18.9434 7.31703 18.9434 16.343C18.9434 25.369 26.2604 32.686 35.2864 32.686Z" fill="#FF6E40"/>
<path d="M31.7594 32.1411C40.4844 32.1411 47.5574 25.068 47.5574 16.343C47.5574 7.61805 40.4844 0.545044 31.7594 0.545044C23.0344 0.545044 15.9614 7.61805 15.9614 16.343C15.9614 25.068 23.0344 32.1411 31.7594 32.1411Z" fill="#FFEDDB"/>
<path d="M31.7595 26.146C37.1736 26.146 41.5625 21.7571 41.5625 16.343C41.5625 10.929 37.1736 6.54004 31.7595 6.54004C26.3455 6.54004 21.9565 10.929 21.9565 16.343C21.9565 21.7571 26.3455 26.146 31.7595 26.146Z" fill="#FF80AB"/>
<path d="M37.1784 16.343C37.1784 19.336 34.7524 21.763 31.7584 21.763C28.7654 21.763 26.3384 19.337 26.3384 16.343C26.3384 13.35 28.7644 10.923 31.7584 10.923C34.7524 10.924 37.1784 13.35 37.1784 16.343Z" fill="#7A3D52"/>
<path d="M35.6566 14.66C37.1274 14.66 38.3196 13.4677 38.3196 11.997C38.3196 10.5262 37.1274 9.33398 35.6566 9.33398C34.1859 9.33398 32.9937 10.5262 32.9937 11.997C32.9937 13.4677 34.1859 14.66 35.6566 14.66Z" fill="white"/>
<path d="M0.814601 98.486C0.230601 100.635 -0.283397 102.892 0.178603 105.071C0.916603 108.547 4.0726 111.116 7.4806 112.123C13.7596 113.978 20.7546 111.219 25.2856 106.493C29.8166 101.767 32.2266 95.385 33.6516 88.994C35.0296 82.815 35.5936 76.454 35.3256 70.129C35.1766 66.614 34.6756 62.876 32.3936 60.198C19.9756 45.626 2.8306 91.071 0.814601 98.486Z" fill="#DE6038"/>
<path d="M121.448 98.486C122.032 100.635 122.546 102.892 122.084 105.071C121.346 108.547 118.19 111.116 114.782 112.123C108.503 113.978 101.508 111.219 96.9767 106.493C92.4447 101.767 90.0357 95.385 88.6107 88.994C87.2327 82.815 86.6677 76.454 86.9367 70.129C87.0857 66.614 87.5867 62.876 89.8687 60.198C102.288 45.626 119.433 91.071 121.448 98.486Z" fill="#DE6038"/>
<path d="M115.304 125.533C115.304 125.533 106.895 118.076 106.895 78.6619C106.895 72.5769 106.06 67.3089 104.656 62.7429C106.295 62.9169 107.949 62.9559 109.597 62.8169C107.156 62.0589 104.926 60.6369 103.198 58.7539C103.095 58.5079 102.994 58.2589 102.888 58.0169C106.18 58.5089 109.664 57.5769 112.247 55.4769C108.99 56.0229 105.507 55.0199 103.04 52.8249C106.374 53.1319 109.806 51.2389 111.324 48.2549C107.18 49.7789 102.517 48.5729 98.5296 46.6749C96.0616 45.5009 93.0146 43.0999 89.9986 41.9079C89.8236 41.7779 89.6486 41.6369 89.4736 41.5109C82.4136 36.4389 73.8346 33.9209 65.1406 33.9209H57.1236C48.4296 33.9209 39.8516 36.4379 32.7906 41.5109C32.7796 41.5189 32.7676 41.5289 32.7566 41.5369C29.3966 42.5069 25.9066 45.3599 23.1426 46.6749C19.1556 48.5719 14.4926 49.7789 10.3486 48.2549C11.8666 51.2389 15.2986 53.1319 18.6326 52.8249C16.1646 55.0199 12.6826 56.0229 9.4256 55.4769C12.1026 57.6539 15.7496 58.5899 19.1436 57.9729C17.3426 60.2449 14.8436 61.9569 12.0746 62.8169C13.9256 62.9719 15.7866 62.9209 17.6236 62.6839C16.2086 67.2629 15.3676 72.5509 15.3676 78.6619C15.3676 118.076 6.9586 125.533 6.9586 125.533C6.9586 125.533 0.123598 133.522 5.1826 137.517C10.2416 141.512 20.6286 126.865 25.4216 131.126C30.2156 135.387 17.4536 144.109 26.7636 149.202C36.0736 154.295 37.7166 140.447 50.2106 140.447H72.0476C84.5416 140.447 86.1846 154.295 95.4946 149.202C104.805 144.109 92.0426 135.387 96.8366 131.126C101.631 126.865 112.017 141.512 117.077 137.517C122.139 133.522 115.304 125.533 115.304 125.533Z" fill="#FF6E40"/>
<path d="M61.1316 41.2019H51.7396C49.7706 41.2019 48.6306 43.4329 49.7826 45.0289C51.5156 47.4279 54.2946 48.8499 57.2546 48.8499H61.1306H65.0066C67.9666 48.8499 70.7456 47.4289 72.4786 45.0289C73.6316 43.4329 72.4906 41.2019 70.5216 41.2019H61.1316Z" fill="#5C1E1E"/>
<path d="M61.1058 45.0249C58.6208 45.0249 56.4858 46.4959 55.5068 48.6119C56.1718 48.7629 56.8558 48.8479 57.5508 48.8479H61.4268H65.3028C65.7948 48.8479 66.2778 48.7949 66.7558 48.7179C65.8018 46.5449 63.6328 45.0249 61.1058 45.0249Z" fill="#FF5252"/>
<path d="M88.5694 110.327C88.5694 120.674 79.0134 125.356 61.1314 125.356C43.2494 125.356 33.6934 120.674 33.6934 110.327C33.6934 99.9801 43.2494 86.6521 61.1314 86.6521C79.0134 86.6521 88.5694 99.9801 88.5694 110.327Z" fill="#FFE2C4"/>
<path d="M37.3498 56.741C40.0571 56.741 42.2518 54.5463 42.2518 51.839C42.2518 49.1317 40.0571 46.937 37.3498 46.937C34.6425 46.937 32.4478 49.1317 32.4478 51.839C32.4478 54.5463 34.6425 56.741 37.3498 56.741Z" fill="#F6FF9C"/>
<path d="M89.8147 51.839C89.8147 54.546 87.6207 56.741 84.9137 56.741C82.2067 56.741 80.0127 54.546 80.0127 51.839C80.0127 49.132 82.2067 46.938 84.9137 46.938C87.6207 46.937 89.8147 49.132 89.8147 51.839Z" fill="#F6FF9C"/>
</svg>
