<svg width="146" height="141" viewBox="0 0 146 141" fill="none" xmlns="http://www.w3.org/2000/svg">
<path d="M45.4465 20.8712C45.4465 20.8712 31.6245 16.1602 24.9405 3.31418C18.2565 -9.53082 -0.370506 17.2322 30.0315 44.6362C60.4335 72.0412 45.4465 20.8712 45.4465 20.8712Z" fill="#B5863B"/>
<path d="M99.6825 20.8712C99.6825 20.8712 113.504 16.1602 120.188 3.31418C126.874 -9.53082 145.499 17.2322 115.098 44.6362C84.6955 72.0412 99.6825 20.8712 99.6825 20.8712Z" fill="#B5863B"/>
<path d="M96.9028 123.043C95.4068 130.684 98.3718 139.16 105.76 140.125C116.539 141.291 122.516 139.846 124.781 128.734C127.611 114.867 127.611 100.564 124.781 86.6952C122.515 75.5842 112.875 69.6603 105.76 72.9333C98.5878 76.1973 95.4058 84.7442 96.9028 92.3842C98.9678 102.498 98.9678 112.93 96.9028 123.043Z" fill="#CFBB39"/>
<path d="M48.2256 123.043C49.7226 130.684 46.7566 139.16 39.3686 140.125C28.5886 141.291 22.6126 139.846 20.3466 128.734C17.5166 114.867 17.5166 100.564 20.3466 86.6952C22.6126 75.5842 32.2536 69.6603 39.3686 72.9333C46.5396 76.1973 49.7226 84.7442 48.2256 92.3842C46.1606 102.498 46.1606 112.93 48.2256 123.043Z" fill="#CFBB39"/>
<path d="M28.4546 96.2012C28.3196 103.986 23.6456 111.652 16.2196 111.049C5.43358 109.936 -0.107423 107.272 0.00157749 95.9322C0.135577 81.7802 3.12857 67.7932 8.79857 54.8252C13.3386 44.4322 24.0066 40.6572 30.2796 45.3472C36.6086 50.0402 37.9316 59.0642 34.8696 66.2222C30.7356 75.6802 28.5526 85.8792 28.4546 96.2012Z" fill="#CFBB39"/>
<path d="M116.674 96.2012C116.809 103.986 121.483 111.652 128.908 111.049C139.695 109.936 145.236 107.272 145.125 95.9322C144.992 81.7802 142 67.7932 136.33 54.8252C131.789 44.4322 121.121 40.6572 114.85 45.3472C108.52 50.0402 107.196 59.0642 110.258 66.2222C114.392 75.6802 116.576 85.8792 116.674 96.2012Z" fill="#CFBB39"/>
<path d="M115.617 123.535C104.965 132.476 89.9435 138.377 72.5665 138.642C54.3515 138.369 38.7215 131.894 27.9995 122.208C18.3565 113.515 12.6875 102.212 12.6875 90.5032C12.6875 88.1922 12.9105 85.8702 13.3645 83.5402C14.6485 75.8172 15.8995 68.0912 17.0045 60.3582C21.7915 32.3032 44.1945 9.23121 72.5675 9.24121C72.5765 9.24121 72.5765 9.24121 72.5845 9.24121C100.941 9.24121 123.335 32.3112 128.122 60.3582C129.235 68.0902 130.478 75.8172 131.771 83.5402C134.639 98.2642 128.154 113.002 115.617 123.535Z" fill="#EED91B"/>
<path d="M66.2337 37.7253C66.2337 43.9133 61.2167 48.9283 55.0287 48.9283C48.8407 48.9283 43.8247 43.9123 43.8247 37.7253C43.8247 31.5363 48.8417 26.5203 55.0287 26.5203C61.2177 26.5203 66.2337 31.5353 66.2337 37.7253Z" fill="#FFFCCC"/>
<path d="M61.8198 37.7253C61.8198 41.4733 58.7788 44.5143 55.0288 44.5143C51.2788 44.5143 48.2388 41.4733 48.2388 37.7253C48.2388 33.9753 51.2788 30.9343 55.0288 30.9343C58.7788 30.9343 61.8198 33.9753 61.8198 37.7253Z" fill="#5DC8DD"/>
<path d="M57.1876 37.7253C57.1876 38.9163 56.2216 39.8832 55.0286 39.8832C53.8366 39.8832 52.8696 38.9163 52.8696 37.7253C52.8696 36.5323 53.8366 35.5673 55.0286 35.5673C56.2216 35.5673 57.1876 36.5323 57.1876 37.7253Z" fill="#201600"/>
<path d="M102.524 37.7253C102.524 43.9133 97.5058 48.9283 91.3188 48.9283C85.1318 48.9283 80.1147 43.9123 80.1147 37.7253C80.1147 31.5363 85.1318 26.5203 91.3188 26.5203C97.5058 26.5203 102.524 31.5353 102.524 37.7253Z" fill="#FFFCCC"/>
<path d="M98.1098 37.7253C98.1098 41.4733 95.0688 44.5143 91.3188 44.5143C87.5688 44.5143 84.5288 41.4733 84.5288 37.7253C84.5288 33.9753 87.5688 30.9343 91.3188 30.9343C95.0688 30.9343 98.1098 33.9753 98.1098 37.7253Z" fill="#5DC8DD"/>
<path d="M91.3187 39.8832C92.5105 39.8832 93.4767 38.9171 93.4767 37.7253C93.4767 36.5334 92.5105 35.5673 91.3187 35.5673C90.1268 35.5673 89.1606 36.5334 89.1606 37.7253C89.1606 38.9171 90.1268 39.8832 91.3187 39.8832Z" fill="#201600"/>
<path d="M88.4865 62.9733C88.3245 65.0363 87.9815 67.1682 87.5955 69.3092C85.6005 77.3173 79.5795 83.2352 72.4125 83.2002H72.3525C65.2015 83.2002 59.2155 77.2922 57.2285 69.3092C56.8345 67.1682 56.5005 65.0363 56.3375 62.9733C56.0205 60.0183 57.5105 57.8852 59.6175 56.6532C60.2685 56.2662 60.9795 55.9683 61.7155 55.7623C63.5315 55.2033 65.4925 55.1452 67.5395 55.1882C69.1235 55.2132 70.7595 55.2992 72.4125 55.2562C72.7205 55.2642 73.0205 55.2642 73.3285 55.2642C74.6735 55.2642 75.9925 55.2032 77.2775 55.1882C79.3235 55.1452 81.2845 55.2043 83.0995 55.7623C83.8365 55.9673 84.5465 56.2662 85.1985 56.6432C87.3135 57.8772 88.7955 60.0083 88.4865 62.9733Z" fill="#B5863B"/>
<path d="M67.5397 55.1882C67.4967 55.7022 67.4457 56.2152 67.3937 56.7292C66.8887 60.3342 65.3477 62.9992 63.5147 62.9892H63.5057C61.6727 62.9892 60.1397 60.3272 59.6267 56.7292C59.6267 56.7042 59.6177 56.6762 59.6177 56.6532C60.2687 56.2662 60.9797 55.9683 61.7157 55.7623C63.5327 55.2033 65.4927 55.1452 67.5397 55.1882Z" fill="white"/>
<path d="M85.1988 56.6432C85.1988 56.6682 85.1899 56.7032 85.1899 56.7292C84.6759 60.3272 83.1529 62.9892 81.3189 62.9892H81.3108C79.4688 62.9992 77.9358 60.3352 77.4218 56.7292C77.3708 56.2152 77.3199 55.7022 77.2769 55.1882C79.3229 55.1452 81.2839 55.2042 83.0989 55.7622C83.8379 55.9672 84.5478 56.2662 85.1988 56.6432Z" fill="white"/>
<path d="M115.636 122.67C115.636 122.963 115.628 123.254 115.618 123.535C104.966 132.476 89.9435 138.377 72.5665 138.642C54.3515 138.369 38.7215 131.894 27.9995 122.208C28.3335 104.737 47.8255 90.6572 71.8125 90.6572C96.0145 90.6582 115.636 104.987 115.636 122.67Z" fill="#FFFEE2"/>
</svg>
