<svg width="124" height="150" viewBox="0 0 124 150" fill="none" xmlns="http://www.w3.org/2000/svg">
<path d="M2.87807 135.141L2.45808 135.027C0.682076 134.543 -0.365935 132.711 0.118065 130.935L1.53907 125.719C2.02307 123.943 3.85507 122.895 5.63107 123.379L6.05106 123.493C7.82706 123.977 8.87508 125.809 8.39108 127.585L6.97108 132.801C6.48608 134.577 4.65407 135.624 2.87807 135.141Z" fill="#EA80FC"/>
<path d="M12.8583 139.497L12.4243 139.475C10.5853 139.38 9.17229 137.812 9.26829 135.974L9.54728 130.575C9.64228 128.736 11.2103 127.323 13.0483 127.419L13.4823 127.441C15.3213 127.536 16.7343 129.104 16.6393 130.942L16.3603 136.341C16.2653 138.179 14.6973 139.593 12.8583 139.497Z" fill="#EA80FC"/>
<path d="M22.8799 137.557L22.4479 137.611C20.6209 137.838 18.9559 136.541 18.7289 134.714L18.0619 129.349C17.8349 127.522 19.1319 125.857 20.9589 125.63L21.3909 125.576C23.2179 125.349 24.8829 126.646 25.1099 128.473L25.7769 133.838C26.0029 135.665 24.7069 137.33 22.8799 137.557Z" fill="#EA80FC"/>
<path d="M1.0091 114.694C0.306101 120.829 0.670101 127.927 5.3991 131.898C10.5501 136.224 18.8421 134.55 23.7241 129.922C28.6051 125.294 30.8251 118.569 32.4861 112.051C35.0881 101.844 36.5791 90.3134 31.0211 81.3654C29.3461 78.6694 26.9551 76.2624 23.9191 75.3334C15.6951 72.8184 11.9641 81.5534 9.10509 87.3274C4.86209 95.8954 2.0981 105.195 1.0091 114.694Z" fill="#7E8EE6"/>
<path d="M120.167 135.141L120.587 135.027C122.363 134.543 123.411 132.711 122.927 130.935L121.506 125.719C121.022 123.943 119.19 122.895 117.414 123.379L116.994 123.493C115.218 123.977 114.17 125.809 114.654 127.585L116.075 132.801C116.558 134.577 118.39 135.624 120.167 135.141Z" fill="#EA80FC"/>
<path d="M110.186 139.497L110.62 139.475C112.459 139.38 113.872 137.812 113.776 135.974L113.496 130.575C113.401 128.736 111.833 127.323 109.995 127.419L109.561 127.441C107.723 127.536 106.309 129.104 106.405 130.942L106.685 136.341C106.779 138.179 108.347 139.593 110.186 139.497Z" fill="#EA80FC"/>
<path d="M100.164 137.557L100.596 137.611C102.423 137.838 104.088 136.541 104.315 134.714L104.982 129.349C105.209 127.522 103.912 125.857 102.085 125.63L101.653 125.576C99.8258 125.349 98.1608 126.646 97.9338 128.473L97.2668 133.838C97.0408 135.665 98.3368 137.33 100.164 137.557Z" fill="#EA80FC"/>
<path d="M122.035 114.694C122.738 120.829 122.374 127.927 117.645 131.898C112.494 136.224 104.202 134.55 99.321 129.922C94.439 125.294 92.22 118.569 90.559 112.051C87.957 101.844 86.466 90.3134 92.024 81.3654C93.699 78.6694 96.09 76.2624 99.126 75.3334C107.35 72.8184 111.081 81.5534 113.94 87.3274C118.182 95.8954 120.946 105.195 122.035 114.694Z" fill="#7E8EE6"/>
<path d="M49.6608 8.14033C49.8588 5.71333 49.5718 3.00433 47.8028 1.33033C45.6578 -0.699667 41.9018 -0.294666 39.8078 1.78733C37.7128 3.86933 37.1648 7.16435 37.8548 10.0353C38.5448 12.9073 40.3088 15.4093 42.3088 17.5823C44.8268 20.3183 48.4658 23.9013 52.1668 24.9013C54.2408 25.4623 55.8808 25.2663 54.9108 23.1713C53.9528 21.1003 51.4378 19.6723 50.2818 17.6233C48.5878 14.6203 49.3968 11.3883 49.6608 8.14033Z" fill="#7E8EE6"/>
<path d="M73.3829 8.14033C73.1849 5.71333 73.4719 3.00433 75.2409 1.33033C77.3859 -0.699667 81.1419 -0.294666 83.2359 1.78733C85.3309 3.86933 85.8789 7.16435 85.1889 10.0353C84.4989 12.9073 82.735 15.4093 80.735 17.5823C78.217 20.3183 74.577 23.9013 70.877 24.9013C68.803 25.4623 67.1629 25.2663 68.1329 23.1713C69.0909 21.1003 71.6059 19.6723 72.7619 17.6233C74.4559 14.6203 73.6469 11.3883 73.3829 8.14033Z" fill="#7E8EE6"/>
<path d="M20.1091 29.5454C19.5791 26.3964 18.3441 23.0465 15.5571 21.4875C12.1781 19.5965 7.5341 21.3195 5.5421 24.6395C3.5501 27.9595 3.91209 32.3235 5.71309 35.7515C7.51409 39.1795 10.5601 41.7934 13.8021 43.9114C17.8831 46.5794 23.6611 49.9624 28.6861 50.0434C31.5021 50.0894 33.5241 49.3135 31.6181 46.9625C29.7341 44.6385 26.0781 43.6324 23.9491 41.3994C20.8291 38.1274 20.8171 33.7584 20.1091 29.5454Z" fill="#7E8EE6"/>
<path d="M102.935 29.5454C103.465 26.3964 104.7 23.0465 107.487 21.4875C110.866 19.5965 115.51 21.3195 117.502 24.6395C119.494 27.9595 119.132 32.3235 117.331 35.7515C115.53 39.1795 112.484 41.7934 109.242 43.9114C105.161 46.5794 99.3832 49.9624 94.3582 50.0434C91.5422 50.0894 89.5202 49.3135 91.4262 46.9625C93.3102 44.6385 96.9662 43.6324 99.0942 41.3994C102.215 38.1274 102.227 33.7584 102.935 29.5454Z" fill="#7E8EE6"/>
<path d="M30.9589 144.547C32.9379 147.936 37.2699 149.53 41.1419 148.891C45.0139 148.252 48.3769 145.687 50.6739 142.505C52.9709 139.323 54.3139 135.556 55.3499 131.771C55.6839 130.552 55.9759 129.192 55.3899 128.071C54.6699 126.694 52.9499 126.248 51.4259 125.944C46.2989 124.919 36.7889 120.871 33.3279 126.739C30.6849 131.221 28.2309 139.875 30.9589 144.547Z" fill="#7E8EE6"/>
<path d="M92.085 144.547C90.106 147.936 85.774 149.53 81.902 148.891C78.03 148.252 74.667 145.687 72.37 142.505C70.073 139.323 68.73 135.556 67.694 131.771C67.36 130.552 67.068 129.192 67.654 128.071C68.374 126.694 70.094 126.248 71.618 125.944C76.745 124.919 86.255 120.871 89.716 126.739C92.359 131.221 94.813 139.875 92.085 144.547Z" fill="#7E8EE6"/>
<path d="M61.5222 18.9763C57.6262 18.9763 53.7431 19.4703 49.9911 20.5213C35.2781 24.6443 4.38215 39.0683 13.3771 86.6193C25.0651 148.403 53.7722 141.301 53.7722 141.301C56.1512 140.829 58.5712 140.591 60.9962 140.591H62.0462C64.4712 140.591 66.8911 140.829 69.2701 141.301C69.2701 141.301 97.9782 148.403 109.665 86.6193C118.66 39.0693 87.7641 24.6443 73.0511 20.5213C69.3011 19.4703 65.4182 18.9763 61.5222 18.9763Z" fill="#8C9EFF"/>
<path d="M71.9236 65.0124C77.6705 59.2655 77.6705 49.9479 71.9236 44.201C66.1767 38.4541 56.8591 38.4541 51.1122 44.201C45.3653 49.9479 45.3653 59.2655 51.1122 65.0124C56.8591 70.7593 66.1767 70.7593 71.9236 65.0124Z" fill="#40C4FF"/>
<path d="M79.7121 72.8011C89.7605 62.7526 89.7605 46.4608 79.7121 36.4123C69.6636 26.3638 53.3718 26.3638 43.3233 36.4123C33.2748 46.4608 33.2748 62.7526 43.3233 72.8011C53.3718 82.8496 69.6636 82.8495 79.7121 72.8011Z" fill="#FFEDDB"/>
<path d="M71.9236 65.0124C77.6705 59.2655 77.6705 49.9479 71.9236 44.201C66.1767 38.4541 56.8591 38.4541 51.1122 44.201C45.3653 49.9479 45.3653 59.2655 51.1122 65.0124C56.8591 70.7593 66.1767 70.7593 71.9236 65.0124Z" fill="#40C4FF"/>
<path d="M70.0056 54.6073C70.0056 59.2933 66.2066 63.0913 61.5216 63.0913C56.8356 63.0913 53.0366 59.2933 53.0366 54.6073C53.0366 49.9213 56.8356 46.1233 61.5216 46.1233C66.2076 46.1233 70.0056 49.9223 70.0056 54.6073Z" fill="#0F445C"/>
<path d="M72.1399 49.4474C72.1399 51.7624 70.2629 53.6394 67.9479 53.6394C65.6329 53.6394 63.7559 51.7624 63.7559 49.4474C63.7559 47.1324 65.6329 45.2554 67.9479 45.2554C70.2629 45.2554 72.1399 47.1324 72.1399 49.4474Z" fill="white"/>
<path d="M67.2028 98.5144C67.2028 104.986 64.6588 110.232 61.5218 110.232C58.3838 110.232 55.8408 104.986 55.8408 98.5144C55.8408 92.0434 58.3848 86.7964 61.5218 86.7964C64.6598 86.7964 67.2028 92.0424 67.2028 98.5144Z" fill="#5C1E1E"/>
<path d="M75.5939 122.775C75.5939 122.775 68.1229 119.549 61.5219 119.549C54.9209 119.549 47.4499 122.775 47.4499 122.775C35.7109 129.021 43.6579 136.606 51.5629 141.54C52.9619 141.499 53.7729 141.3 53.7729 141.3C56.1519 140.828 58.5719 140.59 60.9969 140.59H62.0469C64.4719 140.59 66.8919 140.828 69.2709 141.3C69.2709 141.3 70.0819 141.499 71.4809 141.54C79.3869 136.606 87.3329 129.021 75.5939 122.775Z" fill="#FFE2C4"/>
<path d="M61.5219 102.284C59.5649 102.284 57.8189 103.183 56.6709 104.59C57.6679 107.968 59.4649 110.231 61.5219 110.231C63.5789 110.231 65.3759 107.968 66.3729 104.59C65.2249 103.183 63.4789 102.284 61.5219 102.284Z" fill="#FF5252"/>
</svg>
