<svg width="145" height="132" viewBox="0 0 145 132" fill="none" xmlns="http://www.w3.org/2000/svg">
<path d="M127.784 81.1769C131.424 84.5679 137.136 85.7259 141.327 82.9359C145.504 80.1799 145.544 72.9489 140.279 67.9699C133.71 61.7539 125.949 56.9259 117.469 53.7819C110.676 51.2619 104.207 54.4929 103.582 59.4589C102.933 64.4519 106.496 69.0629 111.147 70.8289C117.332 73.1219 122.992 76.6429 127.784 81.1769Z" fill="#BD3C1E"/>
<path d="M106.567 119.743C106.226 124.706 108.925 129.872 113.732 131.369C118.504 132.877 124.144 128.353 124.695 121.128C125.385 112.11 124.246 103.042 121.346 94.475C119.025 87.611 112.44 84.623 108.189 87.266C103.903 89.907 102.567 95.5789 104.124 100.304C106.239 106.553 107.07 113.167 106.567 119.743Z" fill="#BD3C1E"/>
<path d="M38.748 119.743C39.089 124.706 36.39 129.872 31.583 131.369C26.811 132.877 21.171 128.353 20.62 121.128C19.931 112.11 21.07 103.042 23.969 94.475C26.291 87.611 32.875 84.623 37.126 87.266C41.412 89.907 42.748 95.5789 41.191 100.304C39.076 106.553 38.245 113.167 38.748 119.743Z" fill="#BD3C1E"/>
<path d="M16.5699 81.1769C12.9299 84.5679 7.21786 85.7259 3.02686 82.9359C-1.15014 80.1799 -1.19014 72.9489 4.07486 67.9699C10.6439 61.7539 18.4049 56.9259 26.8849 53.7819C33.6779 51.2619 40.1469 54.4929 40.7719 59.4589C41.4209 64.4519 37.8579 69.0629 33.2069 70.8289C27.0229 73.1219 21.3619 76.6429 16.5699 81.1769Z" fill="#BD3C1E"/>
<path d="M124.467 84.4759C124.566 115.059 101.86 127.851 72.4456 126.996C43.0316 127.851 20.3256 115.059 20.4246 84.4759C20.4246 76.5759 20.4246 68.6769 20.4246 60.7769C20.3256 30.1949 43.0316 17.4019 72.4456 18.2569C101.859 17.4009 124.565 30.1939 124.467 60.7769C124.467 68.6769 124.467 76.5759 124.467 84.4759Z" fill="#FF6542"/>
<path d="M92.7307 41.527C92.7307 45.637 89.3977 48.969 85.2897 48.969C81.1787 48.969 77.8477 45.637 77.8477 41.527C77.8477 37.417 81.1787 34.085 85.2897 34.085C89.3977 34.085 92.7307 37.417 92.7307 41.527Z" fill="#FFFCCC"/>
<path d="M88.4648 41.5271C88.4648 43.2811 87.0418 44.7031 85.2888 44.7031C83.5348 44.7031 82.1118 43.2811 82.1118 41.5271C82.1118 39.7731 83.5348 38.3511 85.2888 38.3511C87.0418 38.3511 88.4648 39.7731 88.4648 41.5271Z" fill="#BEFF57"/>
<path d="M86.7215 41.527C86.7215 42.318 86.0795 42.961 85.2885 42.961C84.4965 42.961 83.8545 42.319 83.8545 41.527C83.8545 40.735 84.4965 40.093 85.2885 40.093C86.0795 40.093 86.7215 40.735 86.7215 41.527Z" fill="#201600"/>
<path d="M58.8219 48.969C62.932 48.969 66.2639 45.6371 66.2639 41.527C66.2639 37.4169 62.932 34.085 58.8219 34.085C54.7118 34.085 51.3799 37.4169 51.3799 41.527C51.3799 45.6371 54.7118 48.969 58.8219 48.969Z" fill="#FFFCCC"/>
<path d="M61.997 41.5271C61.997 43.2811 60.576 44.7031 58.822 44.7031C57.067 44.7031 55.645 43.2811 55.645 41.5271C55.645 39.7731 57.067 38.3511 58.822 38.3511C60.576 38.3511 61.997 39.7731 61.997 41.5271Z" fill="#BEFF57"/>
<path d="M60.2557 41.527C60.2557 42.318 59.6137 42.961 58.8217 42.961C58.0287 42.961 57.3867 42.319 57.3867 41.527C57.3867 40.735 58.0287 40.093 58.8217 40.093C59.6137 40.093 60.2557 40.735 60.2557 41.527Z" fill="#201600"/>
<path d="M36.1171 0.886948C32.9551 2.71195 31.872 6.75495 33.697 9.91795C34.437 11.1989 35.5411 12.1379 36.8021 12.6809C38.9481 13.6039 42.8861 16.4059 45.2801 20.5529L51.8401 31.9169C52.3641 32.8239 53.5251 33.1349 54.4311 32.6109C55.3391 32.0869 55.6501 30.927 55.1251 30.02L48.5651 18.6559C46.1701 14.5089 45.7131 9.69794 45.9871 7.37794C46.1481 6.01394 45.8851 4.58795 45.1461 3.30695C43.3211 0.144946 39.2791 -0.939052 36.1171 0.886948Z" fill="#FF6542"/>
<path d="M108.774 0.886948C111.936 2.71195 113.019 6.75495 111.194 9.91795C110.454 11.1989 109.35 12.1379 108.089 12.6809C105.942 13.6039 102.005 16.4059 99.61 20.5529L93.05 31.9169C92.526 32.8239 91.365 33.1349 90.459 32.6109C89.551 32.0869 89.24 30.927 89.765 30.02L96.325 18.6559C98.72 14.5089 99.177 9.69794 98.903 7.37794C98.742 6.01394 99.004 4.58795 99.744 3.30695C101.568 0.144946 105.611 -0.939052 108.774 0.886948Z" fill="#FF6542"/>
<path d="M54.3457 55.3708C55.9087 66.0178 63.2417 74.0798 72.0547 74.0798C80.8677 74.0798 88.1997 66.0178 89.7647 55.3708H54.3457Z" fill="#BD3C1E"/>
</svg>
