<svg width="671" height="193" viewBox="0 0 671 193" fill="none" xmlns="http://www.w3.org/2000/svg">
<rect width="671" height="193" rx="96.5" fill="white"/>
<rect x="15" y="13" width="641" height="167" rx="83.5" fill="white" stroke="#FFCFCF" stroke-width="6" stroke-dasharray="12 12"/>
<path d="M201.571 62.5522L206.602 66.8844C214.604 73.0812 222.228 79.7804 229.943 86.3285C234.216 89.9551 238.892 93.4419 242.962 97.2674C242.689 98.3673 242.347 99.3704 241.925 100.423C238.014 98.5722 234.638 95.236 231.329 92.4614C222.392 84.9634 213.005 75.5295 202.493 70.3586C199.835 71.5798 197.265 73.071 194.682 74.4428C188.999 79.6018 168.184 99.4337 162.541 101.386C162.111 100.773 161.669 100.179 161.305 99.5264C161.63 97.9748 161.908 96.5677 162.921 95.2868C167.622 89.3385 194.334 67.6928 201.571 62.5522Z" fill="#D92B3E"/>
<path d="M198.162 41.3216C199.694 41.1286 202.4 40.6429 203.781 41.4513C208.001 43.9194 217.973 54.1753 222.283 57.95C232.06 66.5127 243.044 74.441 252.172 83.6466C253.301 84.7865 254.672 86.4038 254.917 88.0588C255.173 89.7741 254.828 90.1571 253.981 91.5808C252.696 92.4125 251.68 92.9466 250.136 93.1181C247.606 93.3995 244.895 92.6944 242.745 91.3525C239.578 89.3762 236.809 85.7711 233.903 83.309C223.881 74.9422 213.91 66.514 203.991 58.0241C202.976 57.395 201.68 56.6607 200.478 56.9337C193.383 58.5415 160.251 93.6898 153.147 93.2757C151.839 93.1993 150.729 92.6102 150.002 91.509C149.118 90.1713 148.851 88.0743 149.076 86.512C149.291 85.0052 149.792 84.1216 150.791 82.9924C158.252 74.5569 168.311 67.1639 176.816 59.7471C183.764 53.6895 190.616 46.5434 198.162 41.3216Z" fill="#F3505A"/>
<path d="M194.682 74.4426C197.265 73.0709 199.836 71.5796 202.492 70.3584C213.005 75.5294 222.391 84.9638 231.329 92.4613C234.638 95.2365 238.014 98.5721 241.925 100.422C242.346 99.3709 242.689 98.3672 242.962 97.2672C242.87 106.043 244.311 134.964 241.721 141.646C239.413 143.352 236.171 143.756 233.375 144.006C223.14 144.916 212.177 144.184 201.876 144.198C191.502 144.211 179.005 145.332 168.978 143.766C166.695 143.409 164.699 142.985 162.725 141.763C158.189 132.206 163.445 110.745 161.304 99.5256C161.669 100.179 162.112 100.772 162.541 101.385C168.184 99.4336 189 79.6017 194.682 74.4426Z" fill="#F3505A"/>
<path d="M190.573 103.258C197.51 103.15 204.447 103.161 211.383 103.291C211.563 111.198 211.435 119.136 211.444 127.046L190.539 127.133C190.293 119.174 190.304 111.216 190.573 103.258Z" fill="white"/>
<path d="M72.4605 81.4C72.7272 81.3333 73.2605 81.3333 74.0605 81.4C74.9272 81.4 75.4272 81.4667 75.5605 81.6C75.7605 81.7333 76.0939 81.9333 76.5605 82.2C78.4272 83.0667 79.2272 84.8 78.9605 87.4C78.8939 88.0667 78.5605 88.8 77.9605 89.6C77.3605 90.3333 76.8272 90.7 76.3605 90.7C76.1605 90.7 75.9605 90.8 75.7605 91C75.6272 91.1333 75.4272 91.2667 75.1605 91.4C74.7605 91.5333 73.7272 92.4 72.0605 94C71.0605 94.9333 70.3272 95.5667 69.8605 95.9C68.9939 96.5 68.7605 96.9333 69.1605 97.2C69.3605 97.3333 72.9939 97.4 80.0605 97.4C87.1272 97.3333 91.0605 97.2 91.8605 97C92.3272 96.9333 93.0605 96.8 94.0605 96.6C94.5939 96.5333 98.0605 96.4333 104.461 96.3C110.927 96.2333 114.461 96.1 115.061 95.9C115.794 95.6333 116.894 95.5333 118.361 95.6C119.827 95.6667 120.961 95.8667 121.761 96.2C123.494 96.9333 124.527 98.1 124.861 99.7C125.194 101.233 124.727 102.667 123.461 104C122.794 104.733 122.161 105.167 121.561 105.3C121.027 105.433 119.761 105.5 117.761 105.5C115.494 105.5 114.094 105.6 113.561 105.8C113.094 106 109.627 106.1 103.161 106.1C96.6272 106.1 92.9605 106.2 92.1606 106.4C91.3605 106.6 87.3605 106.767 80.1605 106.9C72.9605 106.967 69.2939 107.067 69.1605 107.2C68.9605 107.4 68.9605 107.567 69.1605 107.7C69.4272 107.7 70.0939 108.167 71.1605 109.1C71.5605 109.433 71.7939 109.6 71.8605 109.6C71.9939 109.6 72.4272 109.9 73.1605 110.5C73.9605 111.1 74.4272 111.4 74.5605 111.4C74.7605 111.4 75.3605 111.9 76.3605 112.9C77.4272 113.833 78.1605 114.567 78.5605 115.1C78.8272 115.5 78.9272 116.3 78.8605 117.5C78.8605 118.633 78.7272 119.4 78.4605 119.8C77.7939 120.733 77.1272 121.367 76.4605 121.7C75.8605 122.033 75.0272 122.167 73.9605 122.1C72.7605 122.033 72.1272 121.933 72.0605 121.8C72.0605 121.667 71.8272 121.433 71.3605 121.1C70.8939 120.833 70.3605 120.467 69.7605 120C69.0939 119.533 68.5605 119.233 68.1605 119.1C67.7605 118.9 67.5605 118.733 67.5605 118.6C67.5605 118.467 67.3272 118.267 66.8605 118C66.3272 117.667 65.7939 117.267 65.2605 116.8C64.9272 116.533 64.3939 116.167 63.6605 115.7C62.9272 115.167 62.2272 114.6 61.5605 114C60.8272 113.333 59.9605 112.633 58.9605 111.9C57.7605 110.9 56.2939 109.5 54.5605 107.7C52.8272 105.9 51.8939 104.8 51.7605 104.4C51.5605 103.933 51.3939 103.633 51.2605 103.5C51.1272 103.367 51.0605 102.9 51.0605 102.1C51.1272 101.233 51.2272 100.7 51.3605 100.5C51.6272 100.233 51.7605 100.033 51.7605 99.9C51.7605 99.1667 53.3272 97.4667 56.4605 94.8C56.7272 94.5333 57.0939 94.2 57.5605 93.8C58.0939 93.3333 58.3939 93.0667 58.4605 93C58.9939 92.5333 59.4939 92.1 59.9605 91.7C60.4272 91.2333 60.9939 90.7 61.6605 90.1C62.9272 88.8333 64.1272 87.8 65.2605 87C65.6605 86.6667 66.1939 86.1667 66.8605 85.5C67.4605 84.9 68.2605 84.2333 69.2605 83.5C70.0605 82.9 70.5939 82.5 70.8605 82.3C70.9939 82.1667 71.1605 82.1 71.3605 82.1C71.5605 82.1 71.7272 82 71.8605 81.8C71.9939 81.6667 72.1939 81.5333 72.4605 81.4Z" fill="#D92B3E"/>
<path d="M294.572 70.18C295.458 69.5267 296.275 69.41 297.022 69.83C297.255 69.97 297.465 70.04 297.652 70.04C298.025 70.04 298.492 70.4367 299.052 71.23C299.332 71.6967 299.565 73.19 299.752 75.71L299.822 76.97H304.442C306.682 76.97 308.012 76.9933 308.432 77.04C308.898 77.04 309.272 77.11 309.552 77.25C310.672 77.8567 311.395 78.72 311.722 79.84C311.815 80.2133 311.745 80.7033 311.512 81.31C311.278 81.87 310.975 82.3367 310.602 82.71C310.135 83.1767 309.622 83.5033 309.062 83.69C308.502 83.83 307.568 83.9 306.262 83.9C304.955 83.9 304.278 83.9233 304.232 83.97C304.185 84.0633 304.232 84.25 304.372 84.53C304.512 84.81 304.628 84.9967 304.722 85.09C304.815 85.1833 305.048 85.65 305.422 86.49C305.748 87.1433 305.958 87.9833 306.052 89.01C306.192 89.99 306.168 90.83 305.982 91.53C305.562 93.1167 304.978 94.4 304.232 95.38C303.532 96.36 302.435 97.2933 300.942 98.18C300.568 98.46 300.312 98.6933 300.172 98.88C300.078 99.02 300.032 99.3233 300.032 99.79C300.032 99.8367 300.032 99.8833 300.032 99.93C300.032 100.397 300.195 100.677 300.522 100.77C300.895 100.817 302.155 100.84 304.302 100.84C304.675 100.84 304.978 100.84 305.212 100.84C308.432 100.793 310.462 100.84 311.302 100.98C312.188 101.12 312.935 101.517 313.542 102.17C314.195 102.87 314.452 103.71 314.312 104.69C314.172 105.623 313.658 106.393 312.772 107C312.258 107.373 311.628 107.583 310.882 107.63C310.182 107.677 307.872 107.7 303.952 107.7C299.518 107.653 294.735 107.7 289.602 107.84C284.702 107.933 282.065 107.91 281.692 107.77C280.245 107.35 279.312 106.557 278.892 105.39C278.518 104.223 278.798 103.127 279.732 102.1C280.245 101.54 280.828 101.213 281.482 101.12C282.182 101.027 284.142 100.98 287.362 100.98C287.408 100.98 287.502 100.98 287.642 100.98C290.488 100.98 292.145 100.957 292.612 100.91C293.125 100.817 293.382 100.537 293.382 100.07C293.382 99.4167 293.102 99.0433 292.542 98.95C292.262 98.9033 291.702 98.6467 290.862 98.18C290.022 97.7133 289.368 97.2933 288.902 96.92C287.548 95.8 286.685 94.2367 286.312 92.23C285.938 90.2233 286.195 88.38 287.082 86.7C287.268 86.3267 287.362 86.14 287.362 86.14C287.502 85.86 287.665 85.5567 287.852 85.23C288.085 84.7633 288.038 84.5067 287.712 84.46C287.525 84.4133 286.918 84.39 285.892 84.39C284.538 84.39 283.652 84.2967 283.232 84.11C282.905 83.97 282.555 83.7367 282.182 83.41C281.808 83.0833 281.622 82.85 281.622 82.71C281.622 82.57 281.552 82.3833 281.412 82.15C281.178 81.6833 281.132 81.1233 281.272 80.47C281.412 79.8167 281.692 79.2567 282.112 78.79C282.532 78.3233 283.255 77.9967 284.282 77.81C285.355 77.5767 287.058 77.4367 289.392 77.39C291.352 77.3433 292.472 77.25 292.752 77.11C293.032 76.97 293.102 76.5033 292.962 75.71C292.728 74.2167 292.728 73.0733 292.962 72.28C293.195 71.4867 293.732 70.7867 294.572 70.18ZM298.352 88.52C298.072 88.38 297.535 88.2867 296.742 88.24C295.995 88.1933 295.435 88.2167 295.062 88.31C293.942 88.59 293.265 89.1967 293.032 90.13C292.798 91.0167 293.125 91.7167 294.012 92.23C294.432 92.4633 295.132 92.5567 296.112 92.51C297.138 92.4633 297.815 92.3 298.142 92.02C298.888 91.46 299.285 90.8067 299.332 90.06C299.378 89.3133 299.052 88.8 298.352 88.52ZM292.402 109.45C294.548 109.263 297.488 109.24 301.222 109.38C305.002 109.52 307.172 109.707 307.732 109.94C308.805 110.453 309.505 111.317 309.832 112.53C309.925 112.903 309.948 114.373 309.902 116.94C309.902 119.46 309.832 121.793 309.692 123.94C309.552 125.76 309.178 127.09 308.572 127.93C308.012 128.817 307.078 129.4 305.772 129.68C305.258 129.773 302.388 129.843 297.162 129.89C291.982 129.983 289.018 130.007 288.272 129.96C287.245 129.82 286.312 129.493 285.472 128.98C284.632 128.513 284.212 128.047 284.212 127.58C284.212 127.487 284.118 127.3 283.932 127.02C283.745 126.647 283.652 124.15 283.652 119.53C283.698 114.863 283.838 112.343 284.072 111.97C284.585 111.083 285.262 110.523 286.102 110.29C286.988 110.01 289.088 109.73 292.402 109.45ZM302.762 116.45C302.528 116.17 300.452 116.053 296.532 116.1C292.658 116.147 290.628 116.287 290.442 116.52C290.348 116.707 290.302 117.803 290.302 119.81C290.348 121.817 290.418 122.89 290.512 123.03C290.652 123.217 292.052 123.24 294.712 123.1C297.885 123.007 299.892 122.96 300.732 122.96C302.085 122.913 302.808 122.867 302.902 122.82C303.042 122.633 303.088 121.56 303.042 119.6C303.042 117.64 302.948 116.59 302.762 116.45ZM330.924 78.93C331.204 78.79 331.974 78.72 333.234 78.72C334.634 78.6733 335.941 78.86 337.154 79.28C337.481 79.42 337.714 79.49 337.854 79.49C338.134 79.49 338.694 79.7233 339.534 80.19C340.374 80.61 340.888 80.89 341.074 81.03C342.568 82.15 343.664 83.3633 344.364 84.67C344.878 85.65 345.321 87.0267 345.694 88.8C345.741 89.1733 345.764 89.8033 345.764 90.69C345.764 91.5767 345.741 92.23 345.694 92.65C345.414 93.91 345.204 94.7033 345.064 95.03C344.924 95.31 344.854 95.4967 344.854 95.59C344.854 95.73 344.621 96.1733 344.154 96.92C343.688 97.6667 343.268 98.2733 342.894 98.74C341.868 100.093 340.631 101.097 339.184 101.75C338.858 101.937 338.554 102.1 338.274 102.24C337.808 102.427 336.921 102.567 335.614 102.66C334.308 102.753 333.211 102.73 332.324 102.59C329.338 102.123 326.771 100.84 324.624 98.74C323.178 97.2933 322.221 95.52 321.754 93.42C321.334 91.32 321.498 89.2433 322.244 87.19C322.944 85.3233 323.971 83.7367 325.324 82.43C326.724 81.1233 328.591 79.9567 330.924 78.93ZM336.594 86.42C335.894 86.14 334.984 86.0467 333.864 86.14C332.791 86.2333 331.904 86.49 331.204 86.91C330.411 87.4233 329.781 88.24 329.314 89.36C328.848 90.48 328.708 91.5067 328.894 92.44C329.174 93.6533 329.968 94.5633 331.274 95.17C332.581 95.73 333.981 95.8467 335.474 95.52C335.941 95.38 336.244 95.2633 336.384 95.17C336.524 95.03 336.641 94.96 336.734 94.96C336.874 94.96 337.084 94.75 337.364 94.33C337.644 93.91 337.854 93.5133 337.994 93.14C339.301 89.6867 338.834 87.4467 336.594 86.42ZM319.024 113.37C319.724 113.323 320.168 113.323 320.354 113.37C320.634 113.37 322.968 113.417 327.354 113.51C331.788 113.603 334.051 113.673 334.144 113.72C334.238 113.767 337.014 113.813 342.474 113.86C342.848 113.86 343.361 113.86 344.014 113.86C347.608 113.86 349.754 113.907 350.454 114C351.154 114.093 351.738 114.397 352.204 114.91C352.298 115.003 352.368 115.073 352.414 115.12C353.208 115.913 353.464 116.847 353.184 117.92C352.951 118.993 352.251 119.857 351.084 120.51C350.338 120.977 345.438 121.07 336.384 120.79C332.884 120.65 329.011 120.557 324.764 120.51C321.638 120.463 319.794 120.44 319.234 120.44C318.674 120.393 318.208 120.277 317.834 120.09C316.761 119.483 316.084 118.667 315.804 117.64C315.571 116.567 315.734 115.61 316.294 114.77C316.901 113.93 317.811 113.463 319.024 113.37ZM374.229 77.18C377.402 76.9 379.736 76.9933 381.229 77.46C382.722 77.9267 383.656 78.86 384.029 80.26C384.216 80.82 384.286 82.5233 384.239 85.37C384.192 88.17 384.099 89.9433 383.959 90.69C383.539 92.6967 382.792 93.9567 381.719 94.47C381.439 94.5633 381.112 94.7033 380.739 94.89C380.132 95.17 379.292 95.3567 378.219 95.45C377.146 95.5433 375.116 95.59 372.129 95.59C371.802 95.59 371.359 95.59 370.799 95.59C368.979 95.59 367.906 95.66 367.579 95.8C367.299 95.94 367.159 96.3833 367.159 97.13C367.159 97.3633 367.159 97.55 367.159 97.69C367.159 98.7633 367.276 99.37 367.509 99.51C367.789 99.65 368.932 99.7433 370.939 99.79C373.226 99.8833 376.096 99.9067 379.549 99.86C382.536 99.86 384.309 99.9067 384.869 100C385.429 100.047 386.012 100.327 386.619 100.84C387.412 101.54 387.809 102.357 387.809 103.29C387.809 104.177 387.412 104.993 386.619 105.74C386.106 106.253 385.592 106.603 385.079 106.79C384.566 106.93 383.702 107 382.489 107C379.316 107 377.636 107.093 377.449 107.28C377.309 107.42 377.216 109.8 377.169 114.42C377.169 114.513 377.169 114.63 377.169 114.77C377.122 115.423 377.262 115.797 377.589 115.89C377.962 115.983 379.176 116.007 381.229 115.96C381.789 115.96 382.232 115.96 382.559 115.96C386.059 115.867 388.136 115.797 388.789 115.75C390.189 115.657 391.309 115.983 392.149 116.73C393.036 117.477 393.409 118.387 393.269 119.46C393.176 120.487 392.546 121.373 391.379 122.12C391.006 122.353 390.656 122.493 390.329 122.54C390.002 122.587 389.022 122.633 387.389 122.68C368.769 123.287 358.712 123.31 357.219 122.75C355.772 122.283 354.932 121.373 354.699 120.02C354.512 118.62 355.026 117.477 356.239 116.59L357.009 116.03H363.519C367.859 116.03 370.099 115.983 370.239 115.89C370.379 115.703 370.379 113.603 370.239 109.59C370.192 108.143 370.052 107.327 369.819 107.14C369.632 106.953 368.746 106.837 367.159 106.79C365.246 106.697 363.822 106.44 362.889 106.02C362.002 105.6 361.326 104.877 360.859 103.85C360.579 103.243 360.392 101.587 360.299 98.88C360.206 96.1267 360.252 94.0733 360.439 92.72C360.579 91.9267 360.906 91.18 361.419 90.48C361.932 89.7333 362.446 89.36 362.959 89.36C363.099 89.36 363.216 89.3133 363.309 89.22C363.402 89.08 364.289 88.94 365.969 88.8C367.696 88.6133 369.096 88.52 370.169 88.52C371.476 88.52 372.899 88.4733 374.439 88.38C375.979 88.24 376.819 88.1233 376.959 88.03C377.192 87.89 377.309 87.26 377.309 86.14C377.309 85.02 377.192 84.39 376.959 84.25C376.539 83.9233 372.852 84.1567 365.899 84.95C364.312 85.1367 363.052 84.88 362.119 84.18C361.186 83.4333 360.789 82.43 360.929 81.17C361.069 80.0033 361.536 79.1633 362.329 78.65C363.169 78.1367 364.522 77.8333 366.389 77.74C369.889 77.5067 372.502 77.32 374.229 77.18ZM432.826 71.16C434.226 71.1133 436.092 71.1133 438.426 71.16C440.759 71.16 442.136 71.2067 442.556 71.3C443.816 71.5333 444.679 72.2333 445.146 73.4C445.612 74.52 445.472 75.5233 444.726 76.41C444.679 76.4567 444.632 76.5267 444.586 76.62C444.026 77.2733 443.419 77.67 442.766 77.81C442.112 77.9033 440.106 77.95 436.746 77.95C436.372 77.95 436.069 77.9733 435.836 78.02C431.309 78.0667 428.999 78.1133 428.906 78.16C428.859 78.2533 428.836 78.8367 428.836 79.91C428.882 80.9367 428.976 81.5433 429.116 81.73C429.256 81.87 429.746 81.94 430.586 81.94C433.292 81.8933 436.326 81.94 439.686 82.08C443.046 82.1733 444.889 82.2667 445.216 82.36C446.196 82.78 446.872 83.4567 447.246 84.39C447.666 85.2767 447.642 86.14 447.176 86.98C446.756 87.82 446.172 88.3567 445.426 88.59C444.679 88.8233 443.302 88.9167 441.296 88.87C439.709 88.7767 438.822 88.8 438.636 88.94C438.449 89.08 438.356 89.71 438.356 90.83C438.356 90.97 438.332 91.1567 438.286 91.39C438.286 92.1367 438.449 92.58 438.776 92.72C439.102 92.8133 440.292 92.86 442.346 92.86C442.952 92.8133 443.442 92.79 443.816 92.79C446.756 92.79 448.506 92.8367 449.066 92.93C449.626 93.0233 450.139 93.35 450.606 93.91C451.492 95.0767 451.656 96.22 451.096 97.34C450.676 98.18 450.092 98.74 449.346 99.02C448.646 99.3 447.386 99.44 445.566 99.44C443.746 99.44 442.089 99.51 440.596 99.65C439.102 99.79 437.679 99.86 436.326 99.86C435.019 99.86 433.572 99.93 431.986 100.07C430.399 100.21 428.742 100.28 427.016 100.28C425.336 100.28 423.889 100.35 422.676 100.49C420.436 100.723 418.779 100.677 417.706 100.35C416.679 100.023 416.026 99.3467 415.746 98.32C415.652 97.9933 415.629 97.55 415.676 96.99C415.769 96.3833 415.862 96.01 415.956 95.87C416.096 95.7767 416.166 95.6833 416.166 95.59C416.166 95.45 416.329 95.24 416.656 94.96C416.982 94.68 417.286 94.4933 417.566 94.4C418.406 93.98 420.716 93.7233 424.496 93.63C428.649 93.5833 430.866 93.42 431.146 93.14C431.239 93.0933 431.309 92.4867 431.356 91.32C431.402 90.1067 431.379 89.3833 431.286 89.15C431.239 88.9633 431.099 88.87 430.866 88.87C430.632 88.8233 429.792 88.7767 428.346 88.73C425.872 88.73 424.262 88.4033 423.516 87.75C422.769 87.05 422.326 85.58 422.186 83.34C422.092 82.08 421.999 81.0767 421.906 80.33C421.439 75.8967 422.302 73.1667 424.496 72.14C425.429 71.72 428.206 71.3933 432.826 71.16ZM438.706 102.03C439.452 101.937 440.619 101.913 442.206 101.96C443.839 101.96 444.866 102.03 445.286 102.17C447.199 102.823 448.109 104.48 448.016 107.14C447.829 110.64 447.642 112.553 447.456 112.88C447.409 113.067 447.386 113.207 447.386 113.3C447.386 113.533 447.246 113.907 446.966 114.42C446.686 114.933 446.406 115.353 446.126 115.68C445.472 116.333 444.702 116.8 443.816 117.08C442.976 117.36 441.482 117.593 439.336 117.78C436.862 118.013 435.626 118.13 435.626 118.13C432.219 118.457 430.096 118.62 429.256 118.62C428.602 118.62 428.182 118.667 427.996 118.76C427.856 118.853 427.786 119.157 427.786 119.67C427.786 119.717 427.786 119.763 427.786 119.81C427.786 120.51 428.159 120.907 428.906 121C429.652 121.14 432.289 121.21 436.816 121.21C437.376 121.21 437.796 121.21 438.076 121.21C442.042 121.21 444.352 121.233 445.006 121.28C445.659 121.373 446.219 121.677 446.686 122.19C447.759 123.357 447.969 124.547 447.316 125.76C446.662 126.973 445.449 127.673 443.676 127.86C441.996 128.047 438.659 128.117 433.666 128.07C428.719 128.07 425.849 127.953 425.056 127.72C423.469 127.347 422.396 126.67 421.836 125.69C421.276 124.71 420.972 122.937 420.926 120.37C420.879 118.877 420.856 117.757 420.856 117.01C420.902 116.217 421.042 115.47 421.276 114.77C421.556 114.023 421.859 113.51 422.186 113.23C422.512 112.95 423.119 112.693 424.006 112.46C424.939 112.18 425.872 112.017 426.806 111.97C427.739 111.877 429.116 111.807 430.936 111.76C433.269 111.667 434.692 111.573 435.206 111.48C435.626 111.387 436.396 111.293 437.516 111.2C439.429 111.013 440.502 110.873 440.736 110.78C440.969 110.687 441.109 110.383 441.156 109.87C441.202 109.31 441.132 108.96 440.946 108.82C440.806 108.68 440.386 108.633 439.686 108.68C438.986 108.727 437.002 108.773 433.736 108.82C430.562 108.867 428.159 108.937 426.526 109.03C424.566 109.17 423.142 109.1 422.256 108.82C421.369 108.493 420.739 107.887 420.366 107C420.039 106.067 420.086 105.18 420.506 104.34C420.926 103.453 421.626 102.87 422.606 102.59C422.979 102.497 425.639 102.403 430.586 102.31C435.532 102.217 438.239 102.123 438.706 102.03ZM484.083 77.67C485.343 77.2033 486.44 77.4833 487.373 78.51C487.886 79.07 488.19 79.77 488.283 80.61C488.423 81.45 488.54 83.7367 488.633 87.47C488.726 91.7633 488.82 93.98 488.913 94.12C489.053 94.26 490.523 94.3067 493.323 94.26C495.563 94.26 497.033 94.3067 497.733 94.4C498.433 94.4467 499.063 94.5867 499.623 94.82C500.93 95.52 501.536 96.57 501.443 97.97C501.396 99.37 500.673 100.467 499.273 101.26C498.853 101.447 497.57 101.587 495.423 101.68C491.503 101.773 489.38 101.89 489.053 102.03C488.866 102.123 488.82 104.527 488.913 109.24C489.006 113.86 488.96 116.847 488.773 118.2C488.586 119.553 488.12 120.557 487.373 121.21C486.253 122.097 485.016 122.237 483.663 121.63C482.356 121.023 481.703 120.043 481.703 118.69C481.75 117.99 481.773 111.48 481.773 99.16C481.82 86.7 481.89 80.26 481.983 79.84C482.123 79.42 482.403 79 482.823 78.58C483.243 78.16 483.663 77.8567 484.083 77.67ZM461.893 85.79C463.34 85.37 465.066 85.51 467.073 86.21C469.08 86.8633 470.713 87.8433 471.973 89.15C472.346 89.57 472.72 90.0833 473.093 90.69C473.513 91.25 473.723 91.6233 473.723 91.81C473.723 91.9033 473.77 92.0667 473.863 92.3C474.563 93.6067 474.936 95.4967 474.983 97.97C475.03 100.397 474.75 102.427 474.143 104.06C473.676 105.367 472.883 106.743 471.763 108.19C470.69 109.637 469.85 110.453 469.243 110.64C469.01 110.687 468.893 110.733 468.893 110.78C468.893 110.827 468.683 110.943 468.263 111.13C465.79 112.25 463.223 112.227 460.563 111.06C457.903 109.847 455.896 107.84 454.543 105.04C454.263 104.48 454.053 104.06 453.913 103.78C453.773 103.593 453.703 103.407 453.703 103.22C453.703 102.987 453.68 102.847 453.633 102.8C453.54 102.753 453.47 102.543 453.423 102.17C453.33 101.703 453.213 101.283 453.073 100.91C452.84 100.07 452.77 98.9967 452.863 97.69C453.003 96.3367 453.236 95.2167 453.563 94.33C454.543 91.9033 455.803 89.9433 457.343 88.45C458.65 87.1433 460.166 86.2567 461.893 85.79ZM465.883 93.35C464.763 92.9767 463.69 93.0467 462.663 93.56C461.683 94.0733 460.936 94.8433 460.423 95.87C459.91 96.85 459.653 97.9933 459.653 99.3C459.7 100.607 460.12 101.797 460.913 102.87C461.66 103.85 462.64 104.387 463.853 104.48C465.113 104.573 466.046 104.13 466.653 103.15C467.82 101.283 468.31 99.3233 468.123 97.27C467.983 95.17 467.236 93.8633 465.883 93.35ZM533.772 77.18C533.819 77.04 534.052 76.9933 534.472 77.04C534.939 77.0867 535.335 77.2033 535.662 77.39C536.222 77.6233 536.619 77.88 536.852 78.16C537.132 78.44 537.365 79.0933 537.552 80.12C537.739 81.1 537.855 82.2667 537.902 83.62C537.995 84.9267 538.089 87.05 538.182 89.99C538.229 92.6033 538.299 94.0033 538.392 94.19C538.485 94.3767 538.719 94.4933 539.092 94.54C539.512 94.54 540.842 94.54 543.082 94.54C545.462 94.54 547.025 94.5867 547.772 94.68C548.519 94.7267 549.125 94.9133 549.592 95.24C550.805 96.1267 551.249 97.27 550.922 98.67C550.595 100.023 549.662 100.863 548.122 101.19C547.842 101.237 546.839 101.283 545.112 101.33C540.725 101.377 538.439 101.47 538.252 101.61C538.205 101.703 538.159 104.69 538.112 110.57C538.065 116.543 537.995 119.623 537.902 119.81C537.809 119.997 537.762 120.207 537.762 120.44C537.762 120.86 537.459 121.443 536.852 122.19C536.339 122.843 535.592 123.17 534.612 123.17C533.632 123.17 532.839 122.867 532.232 122.26C532.185 122.213 532.115 122.143 532.022 122.05C531.649 121.63 531.415 120.907 531.322 119.88C531.275 118.853 531.275 115.423 531.322 109.59C531.322 108.143 531.345 107 531.392 106.16C531.439 96.64 531.415 90.5267 531.322 87.82C531.229 84.4133 531.182 82.1967 531.182 81.17C531.229 80.0967 531.369 79.35 531.602 78.93C532.069 77.9967 532.629 77.46 533.282 77.32C533.515 77.2733 533.679 77.2267 533.772 77.18ZM509.202 84.81C514.009 84.6233 517.182 84.67 518.722 84.95C520.262 85.1833 521.312 85.8833 521.872 87.05C522.245 87.7967 522.409 89.1033 522.362 90.97C522.315 92.8367 522.059 94.7733 521.592 96.78C521.545 97.0133 521.475 97.4567 521.382 98.11C521.242 99.0433 521.032 100.07 520.752 101.19C520.612 101.703 520.495 102.147 520.402 102.52C520.122 103.78 519.865 104.807 519.632 105.6C519.632 105.693 519.585 105.95 519.492 106.37C519.399 106.743 519.329 107.023 519.282 107.21C519.095 107.863 518.932 108.493 518.792 109.1C518.745 109.287 518.675 109.497 518.582 109.73C518.535 109.917 518.489 110.103 518.442 110.29C518.395 110.477 518.372 110.593 518.372 110.64C518.232 111.247 518.022 112.087 517.742 113.16C517.462 114.047 517.042 114.91 516.482 115.75C515.922 116.543 515.479 116.94 515.152 116.94C515.059 116.94 514.872 117.01 514.592 117.15C513.985 117.477 513.355 117.523 512.702 117.29C510.555 116.59 509.949 114.793 510.882 111.9C511.209 110.92 511.442 110.173 511.582 109.66C511.722 109.053 511.839 108.563 511.932 108.19C512.072 107.63 512.165 107.257 512.212 107.07C512.305 106.417 512.632 105.11 513.192 103.15C513.379 102.45 513.495 101.983 513.542 101.75C513.635 101.47 513.752 101.003 513.892 100.35C513.985 100.07 514.102 99.5567 514.242 98.81C514.522 97.5967 514.755 96.4533 514.942 95.38C515.409 93.1867 515.549 91.95 515.362 91.67C515.175 91.39 512.702 91.3667 507.942 91.6C506.262 91.6467 505.235 91.5767 504.862 91.39C503.742 90.83 503.089 90.06 502.902 89.08C502.762 88.1 503.112 87.1433 503.952 86.21C504.372 85.6967 504.909 85.37 505.562 85.23C506.215 85.0433 507.429 84.9033 509.202 84.81ZM585.364 77.81C586.204 77.6233 586.974 77.74 587.674 78.16C588.421 78.58 588.934 79.1867 589.214 79.98C589.774 81.4733 589.984 88.0767 589.844 99.79C589.751 111.503 589.401 118.177 588.794 119.81C588.281 121.35 587.324 122.12 585.924 122.12C584.524 122.167 583.451 121.467 582.704 120.02C582.518 119.693 582.424 119.39 582.424 119.11C582.424 118.83 582.494 117.99 582.634 116.59C582.774 114.77 582.868 108.283 582.914 97.13C582.961 88.7767 582.984 83.8767 582.984 82.43C583.031 80.9833 583.124 80.0967 583.264 79.77C583.778 78.6967 584.478 78.0433 585.364 77.81ZM562.474 84.25C566.348 84.1567 568.728 84.18 569.614 84.32C570.548 84.4133 571.341 84.8333 571.994 85.58C573.114 86.7933 573.371 88.59 572.764 90.97C572.624 91.67 572.368 92.8133 571.994 94.4C571.948 94.82 571.831 95.24 571.644 95.66C571.551 95.9867 571.504 96.2667 571.504 96.5C571.504 96.7333 571.434 97.0367 571.294 97.41C571.108 98.0633 570.874 98.9733 570.594 100.14C570.501 100.607 570.221 101.657 569.754 103.29C569.708 103.43 569.638 103.687 569.544 104.06C569.451 104.387 569.381 104.62 569.334 104.76C569.054 105.973 568.774 107.093 568.494 108.12C568.308 108.727 568.168 109.31 568.074 109.87C567.981 110.337 567.888 110.71 567.794 110.99C567.794 111.037 567.724 111.247 567.584 111.62C567.491 111.947 567.421 112.227 567.374 112.46C567.001 113.72 566.441 114.723 565.694 115.47C564.948 116.17 564.108 116.52 563.174 116.52C562.988 116.52 562.614 116.403 562.054 116.17C561.494 115.89 561.121 115.657 560.934 115.47C560.934 115.423 560.864 115.353 560.724 115.26C560.631 115.12 560.561 115.027 560.514 114.98C559.861 114.187 559.931 112.577 560.724 110.15C561.191 108.563 561.518 107.42 561.704 106.72C561.891 105.927 562.148 104.923 562.474 103.71C562.614 103.29 562.848 102.45 563.174 101.19C563.221 100.817 563.314 100.537 563.454 100.35C563.501 100.21 563.571 99.9067 563.664 99.44C563.758 99.1133 563.874 98.6467 564.014 98.04C564.248 97.2933 564.388 96.7567 564.434 96.43C564.621 95.73 564.854 94.8433 565.134 93.77C565.508 92.3233 565.624 91.5067 565.484 91.32C565.251 91.04 562.824 91.0167 558.204 91.25C556.571 91.3433 555.498 91.3667 554.984 91.32C554.518 91.2267 554.074 91.0167 553.654 90.69C552.861 90.0367 552.441 89.22 552.394 88.24C552.348 87.26 552.698 86.3967 553.444 85.65C553.958 85.1833 554.751 84.88 555.824 84.74C556.898 84.5533 559.114 84.39 562.474 84.25Z" fill="#D92B3E"/>
</svg>
