<svg width="95" height="115" viewBox="0 0 95 115" fill="none" xmlns="http://www.w3.org/2000/svg">
<path d="M60.6533 35.3327V10.1888H64.4974C67.2223 10.1888 69.601 8.14088 69.7775 5.43365C69.9699 2.46606 67.6105 0 64.6728 0H30.5015C27.7766 0 25.3979 2.0479 25.2225 4.75626C25.029 7.72385 27.3884 10.1899 30.3272 10.1899H34.3467V35.3338C14.5141 41.0177 0 59.2098 0 80.791C0 91.9908 3.91425 102.275 10.4482 110.377C12.8189 113.316 16.4231 115 20.2083 115H74.7928C78.5792 115 82.1822 113.316 84.553 110.377C91.0858 102.275 95 91.9908 95 80.791C94.9989 59.2087 80.4848 41.0165 60.6533 35.3327Z" fill="#D6E7FF"/>
<path d="M86.0112 91.365L74.6522 91.521C74.3512 88.865 72.4892 86.695 70.0172 85.928C68.8542 82.902 66.2192 80.618 62.9942 79.947C63.5452 78.994 63.8602 77.888 63.8442 76.707C63.7962 73.219 60.9302 70.43 57.4412 70.478C53.9532 70.526 51.1642 73.392 51.2122 76.881C51.2442 79.23 52.5582 81.258 54.4762 82.32C52.9762 83.713 51.9172 85.569 51.5412 87.664C49.9832 86.552 48.0772 85.9 46.0162 85.929C42.0482 85.983 38.7042 88.517 37.4122 92.032L9.59717 92.413C10.9472 99.06 13.9902 105.08 18.2482 110.018H77.1572C81.6432 104.811 84.7802 98.412 86.0112 91.365Z" fill="#FF7D72"/>
</svg>
