<svg width="321" height="327" viewBox="0 0 321 327" fill="none" xmlns="http://www.w3.org/2000/svg">
<g filter="url(#filter0_d_2_2612)">
<path d="M175.958 176.163L186.753 160.563L202.352 171.358L191.558 186.958L175.958 176.163Z" fill="#F6D637"/>
<path d="M175.958 176.164L180.563 169.51L196.162 180.305L191.558 186.959L175.958 176.164Z" fill="#EBC925"/>
<path d="M288.051 242.214C292.302 236.072 290.768 227.648 284.627 223.397L204.645 168.045L189.252 190.286L269.234 245.639C275.376 249.889 283.8 248.356 288.051 242.214Z" fill="#625CDA"/>
<path d="M112.403 198.596C75.4913 189.732 52.7547 152.623 61.6191 115.712C70.4835 78.8001 107.592 56.0634 144.504 64.9279C181.415 73.7923 204.152 110.901 195.287 147.812C186.423 184.724 149.314 207.461 112.403 198.596Z" fill="#2B3662"/>
<path opacity="0.3" d="M115.306 191.471C82.3243 184.207 61.4767 151.58 68.7415 118.599C76.0063 85.6172 108.632 64.7696 141.614 72.0344C174.596 79.2993 195.443 111.925 188.178 144.907C180.914 177.889 148.288 198.736 115.306 191.471Z" fill="#2B3662"/>
<path d="M94.8501 178.447C69.0607 159.893 63.1954 123.946 81.7496 98.1561C100.304 72.3667 136.251 66.5014 162.041 85.0556C187.83 103.61 193.696 139.557 175.141 165.347C156.587 191.136 120.64 197.002 94.8501 178.447Z" fill="#BBE7F7"/>
<path d="M70.9816 134.164C74.7571 145.653 82.1661 156.052 92.8772 163.465C119.001 181.545 154.835 175.024 172.914 148.9C180.327 138.188 183.597 125.845 183.083 113.761C188.516 130.293 186.42 149.084 175.753 164.496C157.673 190.62 121.84 197.141 95.7158 179.061C80.3033 168.396 71.7209 151.549 70.9816 134.164Z" fill="#F0F0F0"/>
<path opacity="0.6" d="M173.147 105.207C174.041 106.606 174.886 108.106 175.056 109.758C175.226 111.411 174.56 113.253 173.081 114.01C170.793 115.181 168.178 113.331 166.264 111.616C156.386 102.76 145.322 94.024 132.161 92.3556C129.327 91.9955 126.42 91.9722 123.696 91.1092C120.972 90.2463 118.36 88.3152 117.677 85.5406C115.099 75.0884 131.964 79.3593 136.34 80.4311C145.702 82.7257 154.7 86.8739 162.186 92.99C166.441 96.4653 170.184 100.573 173.147 105.207Z" fill="white"/>
<path opacity="0.6" d="M105.028 86.7361C107.179 86.8015 109.738 87.2327 110.618 89.1969C111.337 90.8034 110.543 92.6593 109.65 94.1746C106.57 99.3946 102.114 103.796 96.8554 106.81C94.7877 107.995 91.9834 108.897 90.1988 107.318C88.6924 105.984 88.8104 103.609 89.3101 101.659C91.121 94.5827 97.0746 86.4921 105.028 86.7361Z" fill="white"/>
<path d="M195.315 194.471L210.706 172.229L216.082 175.948L200.69 198.191L195.315 194.471Z" fill="#B1ADFF"/>
<path d="M204.933 201.126L220.325 178.884L225.7 182.603L210.308 204.846L204.933 201.126Z" fill="#B1ADFF"/>
<path d="M214.55 207.781L229.942 185.539L235.317 189.259L219.925 211.501L214.55 207.781Z" fill="#B1ADFF"/>
<path d="M224.168 214.436L239.56 192.194L244.935 195.914L229.544 218.156L224.168 214.436Z" fill="#B1ADFF"/>
<path d="M233.786 221.092L249.177 198.849L254.552 202.568L239.16 224.811L233.786 221.092Z" fill="#B1ADFF"/>
<path d="M243.402 227.748L258.794 205.506L264.169 209.226L248.777 231.468L243.402 227.748Z" fill="#B1ADFF"/>
<path d="M269.234 245.638L189.252 190.286L193.676 183.893C208.929 201.24 228.586 214.431 248.805 225.783C258.103 231.004 267.954 236.008 278.601 236.603C282.552 236.825 286.64 236.28 290.434 235.009C290.346 237.506 289.577 240.008 288.05 242.215C283.8 248.356 275.376 249.889 269.234 245.638Z" fill="#8781FC"/>
<path opacity="0.6" d="M237.543 206.595C255.405 218.957 271.024 227.332 272.429 225.303C273.834 223.273 260.493 211.606 242.631 199.244C224.768 186.882 209.149 178.507 207.744 180.537C206.339 182.566 219.68 194.234 237.543 206.595Z" fill="white" fill-opacity="0.4"/>
<path d="M160.332 53.2967C161.876 56.5942 165.802 58.0153 169.099 56.4708C172.397 54.9262 173.819 51.0005 172.275 47.7029C170.73 44.4053 166.804 42.983 163.505 44.5281C160.208 46.0739 158.787 49.9991 160.332 53.2967Z" fill="#82D2EF"/>
<path d="M244.071 145.648C242.028 146.604 239.597 145.724 238.641 143.682C237.684 141.639 238.564 139.208 240.607 138.252C242.649 137.295 245.08 138.175 246.037 140.218C246.993 142.26 246.113 144.691 244.071 145.648Z" fill="#82D2EF"/>
<path d="M195.057 228.514C197.325 236.442 194.251 244.932 187.433 249.571C195.361 247.304 203.851 250.376 208.491 257.195C206.222 249.266 209.295 240.777 216.114 236.138C208.185 238.406 199.696 235.333 195.057 228.514Z" fill="#82D2EF"/>
</g>
<defs>
<filter id="filter0_d_2_2612" x="29.7031" y="33.9039" width="290.753" height="273.291" filterUnits="userSpaceOnUse" color-interpolation-filters="sRGB">
<feFlood flood-opacity="0" result="BackgroundImageFix"/>
<feColorMatrix in="SourceAlpha" type="matrix" values="0 0 0 0 0 0 0 0 0 0 0 0 0 0 0 0 0 0 127 0" result="hardAlpha"/>
<feOffset dy="20"/>
<feGaussianBlur stdDeviation="15"/>
<feComposite in2="hardAlpha" operator="out"/>
<feColorMatrix type="matrix" values="0 0 0 0 0 0 0 0 0 0 0 0 0 0 0 0 0 0 0.12 0"/>
<feBlend mode="normal" in2="BackgroundImageFix" result="effect1_dropShadow_2_2612"/>
<feBlend mode="normal" in="SourceGraphic" in2="effect1_dropShadow_2_2612" result="shape"/>
</filter>
</defs>
</svg>
