<svg width="283" height="260" viewBox="0 0 283 260" fill="none" xmlns="http://www.w3.org/2000/svg">
<g filter="url(#filter0_d_2_2579)">
<path d="M31.6719 33.614C47.6578 25.1635 82.2334 12.4521 89.1856 10.4789C96.1378 8.50572 155.548 34.2417 161.236 33.614C166.924 32.9863 235.814 6.58679 244.662 10.371C253.51 14.1551 252.246 176.104 252.246 181.125C252.246 186.147 177.668 210 170.716 210C163.764 210 103.722 184.8 92.9778 185.474C82.2335 186.147 41.7842 199.329 36.096 199.329C30.4079 199.329 28.1751 35.4625 31.6719 33.614Z" fill="white"/>
<path d="M41.7842 40.5188C47.3132 38.6919 87.2895 21.6876 92.3457 22.3153C97.4018 22.943 151.123 45.5405 163.132 44.2851C175.14 43.0296 230.126 20.3993 235.182 22.2989C240.238 24.1984 243.398 171.523 241.502 175.383C239.606 179.242 178.932 196.818 171.98 197.446C165.028 198.074 101.826 172.673 94.8738 173.447C87.9216 174.221 48.1044 188.658 44.9443 188.658C41.7842 188.658 37.6371 41.8892 41.7842 40.5188Z" fill="#9CDAF8"/>
<mask id="mask0_2_2579" style="mask-type:luminance" maskUnits="userSpaceOnUse" x="40" y="22" width="203" height="176">
<path d="M41.7842 40.5188C47.3132 38.6919 87.2895 21.6876 92.3457 22.3153C97.4018 22.943 151.123 45.5405 163.132 44.2851C175.14 43.0296 230.126 20.3993 235.182 22.2989C240.238 24.1984 243.398 171.523 241.502 175.383C239.606 179.242 178.932 196.818 171.98 197.446C165.028 198.074 101.826 172.673 94.8738 173.447C87.9216 174.221 48.1044 188.658 44.9443 188.658C41.7842 188.658 37.6371 41.8892 41.7842 40.5188Z" fill="white"/>
</mask>
<g mask="url(#mask0_2_2579)">
<path d="M36.096 177.987C37.992 175.476 62.6408 157.9 79.7053 149.74C96.7698 141.58 104.354 149.131 131.531 140.02C158.708 130.909 168.82 108.311 163.764 88.2246C158.708 68.1379 192.837 67.5036 205.477 54.3251C218.117 41.1465 210.533 22.1857 210.533 22.1857C210.533 22.1857 173.876 41.1465 161.236 36.7526C148.595 32.3586 96.7698 15.4105 91.7137 15.4105C86.6575 15.4105 36.096 36.7526 36.096 36.7526V177.987Z" fill="#ACD163"/>
</g>
<mask id="mask1_2_2579" style="mask-type:luminance" maskUnits="userSpaceOnUse" x="40" y="22" width="203" height="176">
<path d="M41.7842 40.5188C47.3132 38.6919 87.2895 21.6876 92.3457 22.3153C97.4018 22.943 151.123 45.5405 163.132 44.2851C175.14 43.0296 230.126 20.3993 235.182 22.2989C240.238 24.1984 243.398 171.523 241.502 175.383C239.606 179.242 178.932 196.818 171.98 197.446C165.028 198.074 101.826 172.673 94.8738 173.447C87.9216 174.221 48.1044 188.658 44.9443 188.658C41.7842 188.658 37.6371 41.8892 41.7842 40.5188Z" fill="white"/>
</mask>
<g mask="url(#mask1_2_2579)">
<path d="M141.154 192.424C141.154 192.424 134.059 165.21 159.34 153.081C184.62 140.952 187.781 137.186 189.677 113.333C191.573 89.4801 233.134 53.073 242.058 72.5319C250.982 91.9909 246.558 175.383 246.558 175.383L173.876 204.978L141.154 192.424Z" fill="#ACD163"/>
</g>
<mask id="mask2_2_2579" style="mask-type:luminance" maskUnits="userSpaceOnUse" x="40" y="22" width="203" height="176">
<path d="M41.7842 40.5188C47.3132 38.6919 87.2895 21.6876 92.3457 22.3153C97.4018 22.943 151.123 45.5405 163.132 44.2851C175.14 43.0296 230.126 20.3993 235.182 22.2989C240.238 24.1984 243.398 171.523 241.502 175.383C239.606 179.242 178.932 196.818 171.98 197.446C165.028 198.074 101.826 172.673 94.8738 173.447C87.9216 174.221 48.1044 188.658 44.9443 188.658C41.7842 188.658 37.6371 41.8892 41.7842 40.5188Z" fill="white"/>
</mask>
<g mask="url(#mask2_2_2579)">
<path opacity="0.49" d="M94.2417 16.6659C92.3457 39.8911 93.1914 146.9 96.2447 145.495C99.2978 144.091 113.202 142.207 118.258 124.632C123.315 107.056 136.242 111.45 141.154 91.9909C146.067 72.532 125.843 70.0211 116.994 51.1899C108.146 32.3586 112.307 34.8694 108.647 27.9647C104.986 21.0598 94.2417 16.6659 94.2417 16.6659Z" fill="#8EBD4C"/>
</g>
<mask id="mask3_2_2579" style="mask-type:luminance" maskUnits="userSpaceOnUse" x="40" y="22" width="203" height="176">
<path d="M41.7842 40.5188C47.3132 38.6919 87.2895 21.6876 92.3457 22.3153C97.4018 22.943 151.123 45.5405 163.132 44.2851C175.14 43.0296 230.126 20.3993 235.182 22.2989C240.238 24.1984 243.398 171.523 241.502 175.383C239.606 179.242 178.932 196.818 171.98 197.446C165.028 198.074 101.826 172.673 94.8738 173.447C87.9216 174.221 48.1044 188.658 44.9443 188.658C41.7842 188.658 37.6371 41.8892 41.7842 40.5188Z" fill="white"/>
</mask>
<g mask="url(#mask3_2_2579)">
<path d="M242.058 120.865C228.862 115.216 202.949 107.056 198.525 116.472C194.101 125.887 204.213 131.555 199.157 140.02C194.101 148.485 181.998 149.282 182.899 159.554C183.799 169.827 230.758 182.381 237.71 182.381C244.662 182.381 246.558 188.658 247.19 179.242C247.822 169.827 242.058 120.865 242.058 120.865Z" fill="#8EBD4C"/>
</g>
<mask id="mask4_2_2579" style="mask-type:luminance" maskUnits="userSpaceOnUse" x="40" y="22" width="203" height="176">
<path d="M41.7842 40.5188C47.3132 38.6919 87.2895 21.6876 92.3457 22.3153C97.4018 22.943 151.123 45.5405 163.132 44.2851C175.14 43.0296 230.126 20.3993 235.182 22.2989C240.238 24.1984 243.398 171.523 241.502 175.383C239.606 179.242 178.932 196.818 171.98 197.446C165.028 198.074 101.826 172.673 94.8738 173.447C87.9216 174.221 48.1044 188.658 44.9443 188.658C41.7842 188.658 37.6371 41.8892 41.7842 40.5188Z" fill="white"/>
</mask>
<g mask="url(#mask4_2_2579)">
<path d="M234.007 187.881C233.835 187.796 216.665 179.301 201.692 176.966C184.478 174.283 167.041 157.478 163.319 151.543C162.229 150.041 155.231 146.913 150.602 144.844C141.745 140.886 132.587 136.792 128.372 131.511C126.137 128.71 124.154 125.245 122.056 121.577C117.974 114.448 113.349 106.367 107.068 104.635C102.108 103.27 93.5671 105.517 85.3069 107.692C76.8329 109.924 68.8284 112.032 62.6103 111.003C50.8168 109.051 39.6659 96.8328 34.3068 90.9606C33.8675 90.478 33.4753 90.0494 33.1382 89.6873L39.0534 84.2515C39.4062 84.6312 39.8167 85.0806 40.2784 85.586C44.655 90.3822 54.9063 101.614 63.935 103.109C68.4403 103.855 75.9646 101.873 83.2412 99.9565C92.5428 97.507 102.158 94.9734 109.225 96.9234C118.711 99.5403 124.209 109.146 129.061 117.622C131.003 121.015 132.838 124.221 134.688 126.54C137.684 130.294 146.68 134.315 153.908 137.545C162.892 141.561 168.077 143.995 170.157 147.311C172.852 151.607 188.338 166.784 202.941 169.06C219.177 171.591 236.876 180.357 237.623 180.729L234.007 187.881Z" fill="#51423C"/>
</g>
<path d="M167.501 66.4467C163.582 59.1084 153.329 55.9354 146.686 62.3449C134.149 74.441 148.236 91.784 154.436 99.9214C154.436 99.9214 174.809 80.1277 167.501 66.4467ZM154.81 77.7073C151.754 77.4962 149.403 74.7785 149.565 71.7704C149.716 68.9586 152.023 66.634 154.81 66.4467C157.958 66.2354 160.858 68.8064 160.858 72.077C160.858 75.3146 158.016 77.9287 154.81 77.7073Z" fill="#E23437"/>
</g>
<defs>
<filter id="filter0_d_2_2579" x="0" y="0" width="282.309" height="260" filterUnits="userSpaceOnUse" color-interpolation-filters="sRGB">
<feFlood flood-opacity="0" result="BackgroundImageFix"/>
<feColorMatrix in="SourceAlpha" type="matrix" values="0 0 0 0 0 0 0 0 0 0 0 0 0 0 0 0 0 0 127 0" result="hardAlpha"/>
<feOffset dy="20"/>
<feGaussianBlur stdDeviation="15"/>
<feComposite in2="hardAlpha" operator="out"/>
<feColorMatrix type="matrix" values="0 0 0 0 0 0 0 0 0 0 0 0 0 0 0 0 0 0 0.12 0"/>
<feBlend mode="normal" in2="BackgroundImageFix" result="effect1_dropShadow_2_2579"/>
<feBlend mode="normal" in="SourceGraphic" in2="effect1_dropShadow_2_2579" result="shape"/>
</filter>
</defs>
</svg>
