<svg width="3156" height="1775" viewBox="0 0 3156 1775" fill="none" xmlns="http://www.w3.org/2000/svg">
<g clip-path="url(#clip0_22_2036)">
<rect width="3156" height="1775" fill="#EBEBEB"/>
<path d="M333.5 1119.5C503.5 1087 934.9 1312.4 882.5 1856" stroke="white" stroke-width="60"/>
<path d="M390 1121.5C282.5 1005.33 132 718.1 390 498.5C648 278.9 581.833 52.6667 516.5 -33M1189.5 -46.5C1106.83 34.8333 971.1 249.8 1089.5 459C1207.9 668.2 1105.5 1025.5 1039.5 1178C1133.17 1316 1229.4 1586.8 865 1566M2839 -18C2723.5 -19.3333 2458.1 82.1 2320.5 498.5M2481.5 879.5C2551.5 737 2796.8 519.1 3166 707.5M2481.5 1121.5C2632.83 1203.67 3054.1 1362 3238.5 1144M1795.5 385C1647.33 576.833 1410.7 1043.7 1649.5 1376.5C1888.3 1709.3 1650 1907.17 1501 1964.5" stroke="white" stroke-width="60"/>
<path d="M2240 1346.5C2257.33 1456.17 2407.5 1708.1 2869.5 1838.5M1769 383C1871.67 317.333 2065.9 118.4 2021.5 -152" stroke="white" stroke-width="60"/>
<path d="M-111.5 362C55.6667 442.333 520.4 573.9 1042 457.5C1694 312 2290.5 381.5 2406 587.5C2498.4 752.3 2491.5 1007.5 2476.5 1114.5C2386.17 1268.17 2081.1 1529.4 1583.5 1345C1085.9 1160.6 476.833 1114.5 234.5 1114.5C144.167 1111.17 -51.5 1141.6 -111.5 1290" stroke="white" stroke-width="60"/>
<path d="M2500 856C2359.33 902.333 1979.1 964.5 1583.5 842.5" stroke="white" stroke-width="60"/>
</g>
<defs>
<clipPath id="clip0_22_2036">
<rect width="3156" height="1775" fill="white"/>
</clipPath>
</defs>
</svg>
