<svg width="121" height="98" viewBox="0 0 121 98" fill="none" xmlns="http://www.w3.org/2000/svg">
<path d="M64.5 91.9225V0H56.5V91.9225H46V98H56.5H64.5H75V91.9225H64.5Z" fill="#A8A8A8"/>
<path d="M5.93832 7H112.092V15.7035L94.2759 20.9256L121 24.9462V37.4628L86.1106 42.6849H112.092V54H10.3923V46.1673L32.6624 43.5558H0V33.5465L19.3004 30.5L5.93832 24.9462V7Z" fill="#55A8CA"/>
<path d="M33.2 38.414C33.2 38.8647 33.0353 39.246 32.706 39.558C32.3767 39.8527 31.9953 40 31.562 40C31.0767 40 30.6867 39.8527 30.392 39.558C30.0973 39.246 29.95 38.8647 29.95 38.414V23.386C29.95 22.9353 30.106 22.5627 30.418 22.268C30.73 21.956 31.1287 21.8 31.614 21.8C32.03 21.8 32.394 21.956 32.706 22.268C33.0353 22.5627 33.2 22.9353 33.2 23.386V38.414ZM50.9162 21.8C51.3322 21.8 51.6702 21.9387 51.9302 22.216C52.1902 22.4933 52.3202 22.84 52.3202 23.256V38.414C52.3202 38.8647 52.1642 39.246 51.8522 39.558C51.5575 39.8527 51.1848 40 50.7342 40C50.5088 40 50.2748 39.9653 50.0322 39.896C49.8068 39.8093 49.6335 39.6967 49.5122 39.558L39.2942 26.584L39.9702 26.168V38.544C39.9702 38.96 39.8315 39.3067 39.5542 39.584C39.2942 39.8613 38.9475 40 38.5142 40C38.0982 40 37.7602 39.8613 37.5002 39.584C37.2402 39.3067 37.1102 38.96 37.1102 38.544V23.386C37.1102 22.9353 37.2575 22.5627 37.5522 22.268C37.8642 21.956 38.2455 21.8 38.6962 21.8C38.9388 21.8 39.1902 21.852 39.4502 21.956C39.7102 22.0427 39.9008 22.1813 40.0222 22.372L49.9282 35.008L49.4862 35.32V23.256C49.4862 22.84 49.6162 22.4933 49.8762 22.216C50.1362 21.9387 50.4828 21.8 50.9162 21.8ZM57.8673 40C57.382 40 56.9833 39.8527 56.6713 39.558C56.3766 39.246 56.2293 38.8647 56.2293 38.414V23.386C56.2293 22.9353 56.3766 22.5627 56.6713 22.268C56.9833 21.956 57.3646 21.8 57.8153 21.8H66.2653C66.716 21.8 67.0886 21.9473 67.3833 22.242C67.6953 22.5193 67.8513 22.8833 67.8513 23.334C67.8513 23.7153 67.6953 24.0533 67.3833 24.348C67.0886 24.6427 66.716 24.79 66.2653 24.79H59.2453L59.4793 24.478V29.704L59.2973 29.366H65.0953C65.546 29.366 65.9186 29.5133 66.2133 29.808C66.5253 30.0853 66.6813 30.4493 66.6813 30.9C66.6813 31.2813 66.5253 31.6193 66.2133 31.914C65.9186 32.2087 65.546 32.356 65.0953 32.356H59.2453L59.4793 32.122V38.414C59.4793 38.8647 59.3146 39.246 58.9853 39.558C58.6733 39.8527 58.3006 40 57.8673 40ZM71.9439 40.26C70.9559 40.26 70.0372 40.0607 69.1879 39.662C68.3385 39.2633 67.6452 38.6913 67.1079 37.946C66.8999 37.634 66.7959 37.3307 66.7959 37.036C66.7959 36.6027 66.9605 36.2387 67.2899 35.944C67.6365 35.6493 67.9745 35.502 68.3039 35.502C68.5639 35.502 68.8152 35.58 69.0579 35.736C69.3179 35.892 69.5519 36.074 69.7599 36.282C70.1065 36.594 70.4445 36.8193 70.7739 36.958C71.1205 37.0793 71.5105 37.14 71.9439 37.14C72.4639 37.14 72.9492 37.01 73.3999 36.75C73.8505 36.49 74.2145 36.1433 74.4919 35.71C74.7692 35.2767 74.9079 34.8087 74.9079 34.306V23.386C74.9079 22.9353 75.0725 22.5627 75.4019 22.268C75.7312 21.956 76.1125 21.8 76.5459 21.8C77.0312 21.8 77.4212 21.956 77.7159 22.268C78.0105 22.5627 78.1579 22.9353 78.1579 23.386V34.306C78.1579 35.3633 77.8805 36.3427 77.3259 37.244C76.7712 38.1453 76.0259 38.8733 75.0899 39.428C74.1539 39.9827 73.1052 40.26 71.9439 40.26Z" fill="white"/>
</svg>
