<svg width="121" height="98" viewBox="0 0 121 98" fill="none" xmlns="http://www.w3.org/2000/svg">
<path d="M64.5 91.9225V0H56.5V91.9225H46V98H56.5H64.5H75V91.9225H64.5Z" fill="#A8A8A8"/>
<path d="M5.93832 7H112.092V15.7035L94.2759 20.9256L121 24.9462V37.4628L86.1106 42.6849H112.092V54H10.3923V46.1673L32.6624 43.5558H0V33.5465L19.3004 30.5L5.93832 24.9462V7Z" fill="#59A35D"/>
<path d="M31.536 21.8H40.246C40.6967 21.8 41.0693 21.9473 41.364 22.242C41.676 22.5193 41.832 22.8833 41.832 23.334C41.832 23.7673 41.676 24.1227 41.364 24.4C41.0693 24.66 40.6967 24.79 40.246 24.79H32.966L33.2 24.348V29.418L32.992 29.21H39.076C39.5267 29.21 39.8993 29.3573 40.194 29.652C40.506 29.9293 40.662 30.2933 40.662 30.744C40.662 31.1773 40.506 31.5327 40.194 31.81C39.8993 32.07 39.5267 32.2 39.076 32.2H33.07L33.2 31.992V37.244L32.992 37.01H40.246C40.6967 37.01 41.0693 37.166 41.364 37.478C41.676 37.7727 41.832 38.1193 41.832 38.518C41.832 38.9513 41.676 39.3067 41.364 39.584C41.0693 39.8613 40.6967 40 40.246 40H31.536C31.0853 40 30.704 39.8527 30.392 39.558C30.0973 39.246 29.95 38.8647 29.95 38.414V23.386C29.95 22.9353 30.0973 22.5627 30.392 22.268C30.704 21.956 31.0853 21.8 31.536 21.8ZM50.6789 40.26C49.4656 40.26 48.3736 40.1127 47.4029 39.818C46.4322 39.506 45.5049 38.9687 44.6209 38.206C44.3956 38.0153 44.2222 37.7987 44.1009 37.556C43.9796 37.3133 43.9189 37.0707 43.9189 36.828C43.9189 36.4293 44.0576 36.0827 44.3349 35.788C44.6296 35.476 44.9936 35.32 45.4269 35.32C45.7562 35.32 46.0509 35.424 46.3109 35.632C46.9696 36.1693 47.6196 36.5767 48.2609 36.854C48.9196 37.1313 49.7256 37.27 50.6789 37.27C51.3202 37.27 51.9096 37.1747 52.4469 36.984C52.9842 36.776 53.4176 36.5073 53.7469 36.178C54.0762 35.8313 54.2409 35.4413 54.2409 35.008C54.2409 34.488 54.0849 34.046 53.7729 33.682C53.4609 33.318 52.9842 33.0147 52.3429 32.772C51.7016 32.512 50.8869 32.3127 49.8989 32.174C48.9629 32.0353 48.1396 31.8273 47.4289 31.55C46.7182 31.2553 46.1202 30.8913 45.6349 30.458C45.1669 30.0073 44.8116 29.4873 44.5689 28.898C44.3262 28.2913 44.2049 27.6153 44.2049 26.87C44.2049 25.7433 44.4909 24.7813 45.0629 23.984C45.6522 23.1867 46.4409 22.58 47.4289 22.164C48.4169 21.748 49.5089 21.54 50.7049 21.54C51.8316 21.54 52.8716 21.7133 53.8249 22.06C54.7956 22.3893 55.5842 22.814 56.1909 23.334C56.6936 23.7327 56.9449 24.192 56.9449 24.712C56.9449 25.0933 56.7976 25.44 56.5029 25.752C56.2082 26.064 55.8616 26.22 55.4629 26.22C55.2029 26.22 54.9689 26.142 54.7609 25.986C54.4836 25.7433 54.1109 25.518 53.6429 25.31C53.1749 25.0847 52.6809 24.9027 52.1609 24.764C51.6409 24.608 51.1556 24.53 50.7049 24.53C49.9596 24.53 49.3269 24.6253 48.8069 24.816C48.3042 25.0067 47.9229 25.2667 47.6629 25.596C47.4029 25.9253 47.2729 26.3067 47.2729 26.74C47.2729 27.26 47.4202 27.6933 47.7149 28.04C48.0269 28.3693 48.4689 28.638 49.0409 28.846C49.6129 29.0367 50.2976 29.21 51.0949 29.366C52.1349 29.5567 53.0449 29.782 53.8249 30.042C54.6222 30.302 55.2809 30.64 55.8009 31.056C56.3209 31.4547 56.7109 31.966 56.9709 32.59C57.2309 33.1967 57.3609 33.942 57.3609 34.826C57.3609 35.9527 57.0489 36.9233 56.4249 37.738C55.8009 38.5527 54.9776 39.1767 53.9549 39.61C52.9496 40.0433 51.8576 40.26 50.6789 40.26ZM66.5046 40C66.0192 40 65.6206 39.8527 65.3086 39.558C64.9966 39.246 64.8406 38.8647 64.8406 38.414V23.334H68.2206V38.414C68.2206 38.8647 68.0559 39.246 67.7266 39.558C67.4146 39.8527 67.0072 40 66.5046 40ZM60.7586 24.79C60.3079 24.79 59.9266 24.6513 59.6146 24.374C59.3199 24.0967 59.1726 23.7327 59.1726 23.282C59.1726 22.8313 59.3199 22.476 59.6146 22.216C59.9266 21.9387 60.3079 21.8 60.7586 21.8H72.3026C72.7532 21.8 73.1259 21.9387 73.4206 22.216C73.7326 22.4933 73.8886 22.8573 73.8886 23.308C73.8886 23.7587 73.7326 24.1227 73.4206 24.4C73.1259 24.66 72.7532 24.79 72.3026 24.79H60.7586ZM84.132 21.8C85.0333 21.8 85.874 22.06 86.654 22.58C87.4513 23.1 88.0926 23.802 88.578 24.686C89.0633 25.57 89.306 26.558 89.306 27.65C89.306 28.7247 89.0633 29.704 88.578 30.588C88.0926 31.472 87.4513 32.1827 86.654 32.72C85.874 33.24 85.0333 33.5 84.132 33.5H79.348L79.608 33.032V38.414C79.608 38.8647 79.4693 39.246 79.192 39.558C78.9146 39.8527 78.5506 40 78.1 40C77.6666 40 77.3113 39.8527 77.034 39.558C76.7566 39.246 76.618 38.8647 76.618 38.414V23.386C76.618 22.9353 76.7653 22.5627 77.06 22.268C77.372 21.956 77.7533 21.8 78.204 21.8H84.132ZM84.132 30.536C84.4613 30.536 84.782 30.3973 85.094 30.12C85.406 29.8427 85.666 29.4873 85.874 29.054C86.082 28.6033 86.186 28.1353 86.186 27.65C86.186 27.1473 86.082 26.6793 85.874 26.246C85.666 25.8127 85.406 25.466 85.094 25.206C84.782 24.9287 84.4613 24.79 84.132 24.79H79.296L79.608 24.322V30.952L79.322 30.536H84.132Z" fill="white"/>
</svg>
