<svg width="121" height="98" viewBox="0 0 121 98" fill="none" xmlns="http://www.w3.org/2000/svg">
<path d="M64.5 91.9225V0H56.5V91.9225H46V98H56.5H64.5H75V91.9225H64.5Z" fill="#A8A8A8"/>
<path d="M5.93832 7H112.092V15.7035L94.2759 20.9256L121 24.9462V37.4628L86.1106 42.6849H112.092V54H10.3923V46.1673L32.6624 43.5558H0V33.5465L19.3004 30.5L5.93832 24.9462V7Z" fill="#7082E6"/>
<path d="M37.2 38.414C37.2 38.8647 37.0353 39.246 36.706 39.558C36.3767 39.8527 35.9953 40 35.562 40C35.0767 40 34.6867 39.8527 34.392 39.558C34.0973 39.246 33.95 38.8647 33.95 38.414V23.386C33.95 22.9353 34.106 22.5627 34.418 22.268C34.73 21.956 35.1287 21.8 35.614 21.8C36.03 21.8 36.394 21.956 36.706 22.268C37.0353 22.5627 37.2 22.9353 37.2 23.386V38.414ZM46.9602 40.26C45.7468 40.26 44.6548 40.1127 43.6842 39.818C42.7135 39.506 41.7862 38.9687 40.9022 38.206C40.6768 38.0153 40.5035 37.7987 40.3822 37.556C40.2608 37.3133 40.2002 37.0707 40.2002 36.828C40.2002 36.4293 40.3388 36.0827 40.6162 35.788C40.9108 35.476 41.2748 35.32 41.7082 35.32C42.0375 35.32 42.3322 35.424 42.5922 35.632C43.2508 36.1693 43.9008 36.5767 44.5422 36.854C45.2008 37.1313 46.0068 37.27 46.9602 37.27C47.6015 37.27 48.1908 37.1747 48.7282 36.984C49.2655 36.776 49.6988 36.5073 50.0282 36.178C50.3575 35.8313 50.5222 35.4413 50.5222 35.008C50.5222 34.488 50.3662 34.046 50.0542 33.682C49.7422 33.318 49.2655 33.0147 48.6242 32.772C47.9828 32.512 47.1682 32.3127 46.1802 32.174C45.2442 32.0353 44.4208 31.8273 43.7102 31.55C42.9995 31.2553 42.4015 30.8913 41.9162 30.458C41.4482 30.0073 41.0928 29.4873 40.8502 28.898C40.6075 28.2913 40.4862 27.6153 40.4862 26.87C40.4862 25.7433 40.7722 24.7813 41.3442 23.984C41.9335 23.1867 42.7222 22.58 43.7102 22.164C44.6982 21.748 45.7902 21.54 46.9862 21.54C48.1128 21.54 49.1528 21.7133 50.1062 22.06C51.0768 22.3893 51.8655 22.814 52.4722 23.334C52.9748 23.7327 53.2262 24.192 53.2262 24.712C53.2262 25.0933 53.0788 25.44 52.7842 25.752C52.4895 26.064 52.1428 26.22 51.7442 26.22C51.4842 26.22 51.2502 26.142 51.0422 25.986C50.7648 25.7433 50.3922 25.518 49.9242 25.31C49.4562 25.0847 48.9622 24.9027 48.4422 24.764C47.9222 24.608 47.4368 24.53 46.9862 24.53C46.2408 24.53 45.6082 24.6253 45.0882 24.816C44.5855 25.0067 44.2042 25.2667 43.9442 25.596C43.6842 25.9253 43.5542 26.3067 43.5542 26.74C43.5542 27.26 43.7015 27.6933 43.9962 28.04C44.3082 28.3693 44.7502 28.638 45.3222 28.846C45.8942 29.0367 46.5788 29.21 47.3762 29.366C48.4162 29.5567 49.3262 29.782 50.1062 30.042C50.9035 30.302 51.5622 30.64 52.0822 31.056C52.6022 31.4547 52.9922 31.966 53.2522 32.59C53.5122 33.1967 53.6422 33.942 53.6422 34.826C53.6422 35.9527 53.3302 36.9233 52.7062 37.738C52.0822 38.5527 51.2588 39.1767 50.2362 39.61C49.2308 40.0433 48.1388 40.26 46.9602 40.26ZM58.2618 40C57.7765 40 57.3778 39.8527 57.0658 39.558C56.7712 39.246 56.6238 38.8647 56.6238 38.414V23.386C56.6238 22.9353 56.7712 22.5627 57.0658 22.268C57.3778 21.956 57.7592 21.8 58.2098 21.8H66.6598C67.1105 21.8 67.4832 21.9473 67.7778 22.242C68.0898 22.5193 68.2458 22.8833 68.2458 23.334C68.2458 23.7153 68.0898 24.0533 67.7778 24.348C67.4832 24.6427 67.1105 24.79 66.6598 24.79H59.6398L59.8738 24.478V29.704L59.6918 29.366H65.4898C65.9405 29.366 66.3132 29.5133 66.6078 29.808C66.9198 30.0853 67.0758 30.4493 67.0758 30.9C67.0758 31.2813 66.9198 31.6193 66.6078 31.914C66.3132 32.2087 65.9405 32.356 65.4898 32.356H59.6398L59.8738 32.122V38.414C59.8738 38.8647 59.7092 39.246 59.3798 39.558C59.0678 39.8527 58.6952 40 58.2618 40ZM78.7374 21.8C79.6388 21.8 80.4794 22.06 81.2594 22.58C82.0568 23.1 82.6981 23.802 83.1834 24.686C83.6688 25.57 83.9114 26.558 83.9114 27.65C83.9114 28.7247 83.6688 29.704 83.1834 30.588C82.6981 31.472 82.0568 32.1827 81.2594 32.72C80.4794 33.24 79.6388 33.5 78.7374 33.5H73.9534L74.2134 33.032V38.414C74.2134 38.8647 74.0748 39.246 73.7974 39.558C73.5201 39.8527 73.1561 40 72.7054 40C72.2721 40 71.9168 39.8527 71.6394 39.558C71.3621 39.246 71.2234 38.8647 71.2234 38.414V23.386C71.2234 22.9353 71.3708 22.5627 71.6654 22.268C71.9774 21.956 72.3588 21.8 72.8094 21.8H78.7374ZM78.7374 30.536C79.0668 30.536 79.3874 30.3973 79.6994 30.12C80.0114 29.8427 80.2714 29.4873 80.4794 29.054C80.6874 28.6033 80.7914 28.1353 80.7914 27.65C80.7914 27.1473 80.6874 26.6793 80.4794 26.246C80.2714 25.8127 80.0114 25.466 79.6994 25.206C79.3874 24.9287 79.0668 24.79 78.7374 24.79H73.9014L74.2134 24.322V30.952L73.9274 30.536H78.7374Z" fill="white"/>
</svg>
