<svg width="121" height="98" viewBox="0 0 121 98" fill="none" xmlns="http://www.w3.org/2000/svg">
<path d="M64.5 91.9225V0H56.5V91.9225H46V98H56.5H64.5H75V91.9225H64.5Z" fill="#A8A8A8"/>
<path d="M5.93832 7H112.092V15.7035L94.2759 20.9256L121 24.9462V37.4628L86.1106 42.6849H112.092V54H10.3923V46.1673L32.6624 43.5558H0V33.5465L19.3004 30.5L5.93832 24.9462V7Z" fill="#FF6E40"/>
<path d="M31.536 21.8H40.246C40.6967 21.8 41.0693 21.9473 41.364 22.242C41.676 22.5193 41.832 22.8833 41.832 23.334C41.832 23.7673 41.676 24.1227 41.364 24.4C41.0693 24.66 40.6967 24.79 40.246 24.79H32.966L33.2 24.348V29.418L32.992 29.21H39.076C39.5267 29.21 39.8993 29.3573 40.194 29.652C40.506 29.9293 40.662 30.2933 40.662 30.744C40.662 31.1773 40.506 31.5327 40.194 31.81C39.8993 32.07 39.5267 32.2 39.076 32.2H33.07L33.2 31.992V37.244L32.992 37.01H40.246C40.6967 37.01 41.0693 37.166 41.364 37.478C41.676 37.7727 41.832 38.1193 41.832 38.518C41.832 38.9513 41.676 39.3067 41.364 39.584C41.0693 39.8613 40.6967 40 40.246 40H31.536C31.0853 40 30.704 39.8527 30.392 39.558C30.0973 39.246 29.95 38.8647 29.95 38.414V23.386C29.95 22.9353 30.0973 22.5627 30.392 22.268C30.704 21.956 31.0853 21.8 31.536 21.8ZM58.6349 21.8C59.0509 21.8 59.3889 21.9387 59.6489 22.216C59.9089 22.4933 60.0389 22.84 60.0389 23.256V38.414C60.0389 38.8647 59.8829 39.246 59.5709 39.558C59.2762 39.8527 58.9036 40 58.4529 40C58.2276 40 57.9936 39.9653 57.7509 39.896C57.5256 39.8093 57.3522 39.6967 57.2309 39.558L47.0129 26.584L47.6889 26.168V38.544C47.6889 38.96 47.5502 39.3067 47.2729 39.584C47.0129 39.8613 46.6662 40 46.2329 40C45.8169 40 45.4789 39.8613 45.2189 39.584C44.9589 39.3067 44.8289 38.96 44.8289 38.544V23.386C44.8289 22.9353 44.9762 22.5627 45.2709 22.268C45.5829 21.956 45.9642 21.8 46.4149 21.8C46.6576 21.8 46.9089 21.852 47.1689 21.956C47.4289 22.0427 47.6196 22.1813 47.7409 22.372L57.6469 35.008L57.2049 35.32V23.256C57.2049 22.84 57.3349 22.4933 57.5949 22.216C57.8549 21.9387 58.2016 21.8 58.6349 21.8ZM70.11 40C69.6247 40 69.226 39.8527 68.914 39.558C68.602 39.246 68.446 38.8647 68.446 38.414V23.334H71.826V38.414C71.826 38.8647 71.6614 39.246 71.332 39.558C71.02 39.8527 70.6127 40 70.11 40ZM64.364 24.79C63.9134 24.79 63.532 24.6513 63.22 24.374C62.9254 24.0967 62.778 23.7327 62.778 23.282C62.778 22.8313 62.9254 22.476 63.22 22.216C63.532 21.9387 63.9134 21.8 64.364 21.8H75.908C76.3587 21.8 76.7314 21.9387 77.026 22.216C77.338 22.4933 77.494 22.8573 77.494 23.308C77.494 23.7587 77.338 24.1227 77.026 24.4C76.7314 24.66 76.3587 24.79 75.908 24.79H64.364ZM82.7603 40.26C81.7723 40.26 80.8536 40.0607 80.0043 39.662C79.1549 39.2633 78.4616 38.6913 77.9243 37.946C77.7163 37.634 77.6123 37.3307 77.6123 37.036C77.6123 36.6027 77.7769 36.2387 78.1063 35.944C78.4529 35.6493 78.7909 35.502 79.1203 35.502C79.3803 35.502 79.6316 35.58 79.8743 35.736C80.1343 35.892 80.3683 36.074 80.5763 36.282C80.9229 36.594 81.2609 36.8193 81.5903 36.958C81.9369 37.0793 82.3269 37.14 82.7603 37.14C83.2803 37.14 83.7656 37.01 84.2163 36.75C84.6669 36.49 85.0309 36.1433 85.3083 35.71C85.5856 35.2767 85.7243 34.8087 85.7243 34.306V23.386C85.7243 22.9353 85.8889 22.5627 86.2183 22.268C86.5476 21.956 86.9289 21.8 87.3623 21.8C87.8476 21.8 88.2376 21.956 88.5323 22.268C88.8269 22.5627 88.9743 22.9353 88.9743 23.386V34.306C88.9743 35.3633 88.6969 36.3427 88.1423 37.244C87.5876 38.1453 86.8423 38.8733 85.9063 39.428C84.9703 39.9827 83.9216 40.26 82.7603 40.26Z" fill="white"/>
</svg>
