<svg width="121" height="98" viewBox="0 0 121 98" fill="none" xmlns="http://www.w3.org/2000/svg">
<path d="M64.5 91.9225V0H56.5V91.9225H46V98H56.5H64.5H75V91.9225H64.5Z" fill="#A8A8A8"/>
<path d="M5.93832 7H112.092V15.7035L94.2759 20.9256L121 24.9462V37.4628L86.1106 42.6849H112.092V54H10.3923V46.1673L32.6624 43.5558H0V33.5465L19.3004 30.5L5.93832 24.9462V7Z" fill="#DF5326"/>
<path d="M42.2 38.414C42.2 38.8647 42.0353 39.246 41.706 39.558C41.3767 39.8527 40.9953 40 40.562 40C40.0767 40 39.6867 39.8527 39.392 39.558C39.0973 39.246 38.95 38.8647 38.95 38.414V23.386C38.95 22.9353 39.106 22.5627 39.418 22.268C39.73 21.956 40.1287 21.8 40.614 21.8C41.03 21.8 41.394 21.956 41.706 22.268C42.0353 22.5627 42.2 22.9353 42.2 23.386V38.414ZM59.9162 21.8C60.3322 21.8 60.6702 21.9387 60.9302 22.216C61.1902 22.4933 61.3202 22.84 61.3202 23.256V38.414C61.3202 38.8647 61.1642 39.246 60.8522 39.558C60.5575 39.8527 60.1848 40 59.7342 40C59.5088 40 59.2748 39.9653 59.0322 39.896C58.8068 39.8093 58.6335 39.6967 58.5122 39.558L48.2942 26.584L48.9702 26.168V38.544C48.9702 38.96 48.8315 39.3067 48.5542 39.584C48.2942 39.8613 47.9475 40 47.5142 40C47.0982 40 46.7602 39.8613 46.5002 39.584C46.2402 39.3067 46.1102 38.96 46.1102 38.544V23.386C46.1102 22.9353 46.2575 22.5627 46.5522 22.268C46.8642 21.956 47.2455 21.8 47.6962 21.8C47.9388 21.8 48.1902 21.852 48.4502 21.956C48.7102 22.0427 48.9008 22.1813 49.0222 22.372L58.9282 35.008L58.4862 35.32V23.256C58.4862 22.84 58.6162 22.4933 58.8762 22.216C59.1362 21.9387 59.4828 21.8 59.9162 21.8ZM71.3913 40C70.906 40 70.5073 39.8527 70.1953 39.558C69.8833 39.246 69.7273 38.8647 69.7273 38.414V23.334H73.1073V38.414C73.1073 38.8647 72.9426 39.246 72.6133 39.558C72.3013 39.8527 71.894 40 71.3913 40ZM65.6453 24.79C65.1946 24.79 64.8133 24.6513 64.5013 24.374C64.2066 24.0967 64.0593 23.7327 64.0593 23.282C64.0593 22.8313 64.2066 22.476 64.5013 22.216C64.8133 21.9387 65.1946 21.8 65.6453 21.8H77.1893C77.64 21.8 78.0126 21.9387 78.3073 22.216C78.6193 22.4933 78.7753 22.8573 78.7753 23.308C78.7753 23.7587 78.6193 24.1227 78.3073 24.4C78.0126 24.66 77.64 24.79 77.1893 24.79H65.6453ZM84.0415 40.26C83.0535 40.26 82.1348 40.0607 81.2855 39.662C80.4362 39.2633 79.7428 38.6913 79.2055 37.946C78.9975 37.634 78.8935 37.3307 78.8935 37.036C78.8935 36.6027 79.0582 36.2387 79.3875 35.944C79.7342 35.6493 80.0722 35.502 80.4015 35.502C80.6615 35.502 80.9128 35.58 81.1555 35.736C81.4155 35.892 81.6495 36.074 81.8575 36.282C82.2042 36.594 82.5422 36.8193 82.8715 36.958C83.2182 37.0793 83.6082 37.14 84.0415 37.14C84.5615 37.14 85.0468 37.01 85.4975 36.75C85.9482 36.49 86.3122 36.1433 86.5895 35.71C86.8668 35.2767 87.0055 34.8087 87.0055 34.306V23.386C87.0055 22.9353 87.1702 22.5627 87.4995 22.268C87.8288 21.956 88.2102 21.8 88.6435 21.8C89.1288 21.8 89.5188 21.956 89.8135 22.268C90.1082 22.5627 90.2555 22.9353 90.2555 23.386V34.306C90.2555 35.3633 89.9782 36.3427 89.4235 37.244C88.8688 38.1453 88.1235 38.8733 87.1875 39.428C86.2515 39.9827 85.2028 40.26 84.0415 40.26Z" fill="white"/>
</svg>
