<svg width="150" height="118" viewBox="0 0 150 118" fill="none" xmlns="http://www.w3.org/2000/svg">
<path d="M33.1994 105.64C31.3764 105.64 29.8994 104.163 29.8994 102.34V100.025C29.8994 98.202 31.3764 96.725 33.1994 96.725C35.0224 96.725 36.4994 98.202 36.4994 100.025V102.34C36.4994 104.162 35.0214 105.64 33.1994 105.64Z" fill="#963314"/>
<path d="M22.9307 103.654C21.2717 102.899 20.5387 100.943 21.2927 99.284L22.2507 97.177C23.0047 95.518 24.9617 94.785 26.6207 95.539C28.2797 96.293 29.0127 98.25 28.2587 99.909L27.3007 102.016C26.5467 103.675 24.5897 104.409 22.9307 103.654Z" fill="#963314"/>
<path d="M16.5326 93.624C15.6486 92.03 16.2236 90.022 17.8166 89.137L19.8406 88.014C21.4336 87.13 23.4426 87.705 24.3276 89.298C25.2116 90.892 24.6366 92.9 23.0436 93.785L21.0196 94.908C19.4256 95.793 17.4166 95.218 16.5326 93.624Z" fill="#963314"/>
<path d="M30.6847 60.056C30.6847 60.056 13.0777 88.473 25.3357 99.097C37.5937 109.721 52.0027 76.289 52.0027 76.289L30.6847 60.056Z" fill="#C25431"/>
<path d="M116.408 105.64C118.231 105.64 119.708 104.163 119.708 102.34V100.025C119.708 98.202 118.231 96.725 116.408 96.725C114.585 96.725 113.108 98.202 113.108 100.025V102.34C113.108 104.162 114.585 105.64 116.408 105.64Z" fill="#963314"/>
<path d="M126.676 103.654C128.335 102.899 129.068 100.943 128.314 99.284L127.356 97.177C126.602 95.518 124.645 94.785 122.986 95.539C121.327 96.293 120.594 98.25 121.348 99.909L122.306 102.016C123.06 103.675 125.017 104.409 126.676 103.654Z" fill="#963314"/>
<path d="M133.076 93.624C133.96 92.03 133.385 90.022 131.792 89.137L129.768 88.014C128.174 87.13 126.165 87.705 125.281 89.298C124.397 90.892 124.972 92.9 126.565 93.785L128.589 94.908C130.182 95.793 132.191 95.218 133.076 93.624Z" fill="#963314"/>
<path d="M118.922 60.056C118.922 60.056 136.529 88.473 124.271 99.097C112.013 109.721 97.6045 76.289 97.6045 76.289L118.922 60.056Z" fill="#C25431"/>
<path d="M119.345 16.577L134.403 11.353L138.223 4C140.284 0.0319967 146.161 0.584992 147.394 4.88299C151.576 19.449 153.343 44.294 119.27 49.259L119.345 16.577Z" fill="#A33434"/>
<path d="M30.2624 16.577L15.2054 11.353L11.3854 4C9.32445 0.0319967 3.44745 0.584992 2.21345 4.88299C-1.96755 19.449 -3.73556 44.294 30.3374 49.259L30.2624 16.577Z" fill="#A33434"/>
<path d="M55.1992 116.745C48.2252 116.181 43.1302 111.098 43.8192 105.391L45.5662 90.925L70.8222 92.967L69.0752 107.433C68.3862 113.14 62.1742 117.309 55.1992 116.745Z" fill="#C25431"/>
<path d="M95.1324 116.912C88.2094 117.804 81.7134 113.935 80.6234 108.27L77.8594 93.91L102.929 90.679L105.693 105.039C106.783 110.705 102.055 116.02 95.1324 116.912Z" fill="#C25431"/>
<path d="M128.515 20.917C129.393 20.804 130.307 20.904 131.144 20.617C131.981 20.33 132.724 19.44 132.423 18.609C132.185 17.953 131.443 17.655 130.778 17.443C128.44 16.693 126.066 16.055 123.667 15.532C123.175 14.892 123.748 13.969 124.404 13.499C125.06 13.029 125.888 12.622 126.086 11.84C126.818 8.948 122.71 10.29 121.639 10.905C120.527 11.545 119.471 12.168 118.648 13.168C118.635 13.184 118.625 13.202 118.612 13.218C107.896 0.193003 75.0514 0 75.0514 0C75.0514 0 41.6634 0.193995 31.2274 13.536C31.1354 13.416 31.0564 13.285 30.9604 13.169C30.1364 12.168 29.0814 11.545 27.9694 10.906C26.8984 10.29 22.7904 8.949 23.5224 11.841C23.7204 12.623 24.5484 13.03 25.2044 13.5C25.8604 13.97 26.4334 14.893 25.9414 15.533C23.5424 16.056 21.1684 16.695 18.8304 17.444C18.1664 17.657 17.4234 17.955 17.1854 18.61C16.8844 19.442 17.6274 20.331 18.4644 20.618C19.3014 20.905 20.2164 20.805 21.0934 20.918C21.9704 21.031 22.9264 21.477 23.1534 22.332C23.4274 23.365 22.4954 24.325 21.5514 24.826C20.5474 25.359 19.3914 25.697 18.6344 26.545C17.8774 27.393 17.8634 29.028 18.9294 29.423C20.2954 29.929 21.9844 27.995 23.0704 28.966C23.5604 29.404 23.5094 30.227 23.1364 30.767C22.7634 31.308 22.1574 31.632 21.5724 31.931C20.5304 32.463 19.4324 33.016 18.7734 33.983C18.1144 34.949 18.1014 36.467 19.0684 37.127C19.9574 37.734 21.1464 37.365 22.2084 37.193C23.2714 37.02 24.6854 37.333 24.8334 38.4C24.9594 39.31 24.0614 39.981 23.3664 40.582C22.6714 41.183 22.1114 42.344 22.8204 42.928C23.5394 42.319 24.7634 42.953 24.9914 43.868C25.2184 44.783 24.7394 45.732 24.1234 46.445C23.5074 47.159 22.7414 47.745 22.2144 48.526C21.6874 49.307 21.4454 50.398 21.9764 51.177C24.0694 51.628 26.1984 50.955 27.9504 49.681C28.9464 77.429 36.2194 111.953 75.0534 111.953C113.735 111.953 121.102 77.698 122.143 50.007C123.797 51.064 125.73 51.588 127.636 51.177C128.167 50.398 127.926 49.307 127.398 48.526C126.871 47.745 126.105 47.158 125.489 46.445C124.873 45.731 124.393 44.782 124.621 43.868C124.849 42.953 126.072 42.319 126.792 42.928C127.501 42.344 126.941 41.182 126.246 40.582C125.551 39.982 124.653 39.31 124.779 38.4C124.927 37.334 126.341 37.021 127.404 37.193C128.467 37.366 129.655 37.734 130.545 37.127C131.511 36.467 131.499 34.949 130.84 33.983C130.181 33.016 129.083 32.463 128.04 31.931C127.455 31.632 126.849 31.308 126.476 30.767C126.103 30.226 126.052 29.403 126.542 28.966C127.628 27.995 129.317 29.929 130.683 29.423C131.749 29.028 131.734 27.393 130.978 26.545C130.221 25.697 129.065 25.359 128.061 24.826C127.117 24.324 126.185 23.365 126.459 22.332C126.681 21.476 127.637 21.03 128.515 20.917Z" fill="#FF6E40"/>
<path d="M91.7423 46.155C91.7423 50.552 89.7603 56.517 74.8033 56.517C60.2813 56.517 57.8643 50.552 57.8643 46.155C57.8643 41.758 60.1333 35.807 74.8033 35.807C90.2043 35.807 91.7423 41.758 91.7423 46.155Z" fill="#FFEDDB"/>
<path d="M74.8036 52.774C78.4591 52.774 81.4226 49.8106 81.4226 46.155C81.4226 42.4994 78.4591 39.536 74.8036 39.536C71.148 39.536 68.1846 42.4994 68.1846 46.155C68.1846 49.8106 71.148 52.774 74.8036 52.774Z" fill="#90A4AE"/>
<path d="M79.2074 46.155C79.2074 48.587 77.2354 50.559 74.8034 50.559C72.3714 50.559 70.3994 48.587 70.3994 46.155C70.3994 43.723 72.3714 41.751 74.8034 41.751C77.2354 41.751 79.2074 43.723 79.2074 46.155Z" fill="#37474F"/>
<path d="M79.6626 43.543C79.6626 44.533 78.8596 45.335 77.8706 45.335C76.8806 45.335 76.0786 44.533 76.0786 43.543C76.0786 42.553 76.8806 41.751 77.8706 41.751C78.8596 41.751 79.6626 42.553 79.6626 43.543Z" fill="white"/>
<path d="M52.9365 68.9749C56.8989 67.4479 58.8732 62.9978 57.3461 59.0354C55.8191 55.0729 51.369 53.0987 47.4065 54.6257C43.4441 56.1528 41.4698 60.6029 42.9969 64.5653C44.5239 68.5277 48.974 70.502 52.9365 68.9749Z" fill="#FFEDDB"/>
<path d="M54.5795 61.794C54.5795 64.226 52.6075 66.198 50.1755 66.198C47.7435 66.198 45.7715 64.226 45.7715 61.794C45.7715 59.362 47.7435 57.39 50.1755 57.39C52.6075 57.39 54.5795 59.362 54.5795 61.794Z" fill="#90A4AE"/>
<path d="M50.1756 64.724C51.7938 64.724 53.1056 63.4122 53.1056 61.794C53.1056 60.1758 51.7938 58.864 50.1756 58.864C48.5574 58.864 47.2456 60.1758 47.2456 61.794C47.2456 63.4122 48.5574 64.724 50.1756 64.724Z" fill="#37474F"/>
<path d="M53.3767 60.056C53.3767 60.715 52.8427 61.248 52.1837 61.248C51.5247 61.248 50.9907 60.714 50.9907 60.056C50.9907 59.397 51.5247 58.863 52.1837 58.863C52.8427 58.864 53.3767 59.398 53.3767 60.056Z" fill="white"/>
<path d="M106.941 63.4019C107.837 59.2509 105.198 55.1595 101.047 54.2635C96.8959 53.3675 92.8045 56.0061 91.9085 60.1571C91.0125 64.3081 93.6512 68.3995 97.8021 69.2955C101.953 70.1915 106.044 67.5528 106.941 63.4019Z" fill="#FFEDDB"/>
<path d="M103.836 61.7941C103.836 64.2261 101.864 66.1981 99.4318 66.1981C96.9998 66.1981 95.0278 64.2261 95.0278 61.7941C95.0278 59.3621 96.9998 57.3901 99.4318 57.3901C101.865 57.3901 103.836 59.3621 103.836 61.7941Z" fill="#90A4AE"/>
<path d="M102.363 61.7941C102.363 63.4121 101.051 64.7241 99.433 64.7241C97.815 64.7241 96.5029 63.4121 96.5029 61.7941C96.5029 60.1761 97.815 58.8641 99.433 58.8641C101.051 58.8641 102.363 60.1761 102.363 61.7941Z" fill="#37474F"/>
<path d="M102.633 60.056C102.633 60.715 102.099 61.248 101.44 61.248C100.781 61.248 100.248 60.714 100.248 60.056C100.248 59.397 100.782 58.863 101.44 58.863C102.099 58.864 102.633 59.398 102.633 60.056Z" fill="white"/>
<path d="M74.8035 63.296C68.8945 63.296 64.1055 66.728 64.1055 70.962C64.1055 73.68 66.0855 76.062 69.0625 77.424V70.962C69.0625 70.223 69.6615 69.625 70.3995 69.625C71.1375 69.625 71.7365 70.223 71.7365 70.962V77.945C71.7365 78.067 71.7145 78.183 71.6845 78.295C71.2345 78.197 70.8005 78.075 70.3795 77.936C71.7295 78.376 73.2235 78.628 74.8035 78.628C76.3835 78.628 77.8775 78.376 79.2275 77.936C78.8065 78.075 78.3715 78.197 77.9225 78.295C77.8915 78.183 77.8705 78.067 77.8705 77.945V70.962C77.8705 70.223 78.4695 69.625 79.2075 69.625C79.9455 69.625 80.5445 70.223 80.5445 70.962V77.424C83.5215 76.063 85.5015 73.681 85.5015 70.962C85.5015 66.728 80.7125 63.296 74.8035 63.296Z" fill="#963314"/>
<path d="M80.5444 77.423C80.1654 77.596 79.7674 77.75 79.3594 77.89C79.7684 77.752 80.1654 77.597 80.5444 77.423Z" fill="#963314"/>
<path d="M70.2485 77.89C69.8395 77.75 69.4425 77.596 69.0635 77.423C69.4425 77.597 69.8385 77.752 70.2485 77.89Z" fill="#963314"/>
<path d="M82.2735 93.013C82.2735 98.675 78.9295 103.265 74.8035 103.265C70.6775 103.265 67.3335 98.675 67.3335 93.013C67.3335 87.351 70.6775 82.761 74.8035 82.761C78.9295 82.761 82.2735 87.351 82.2735 93.013Z" fill="#A33434"/>
<path d="M74.8035 95.242C72.1745 95.242 69.8784 96.645 68.6064 98.739C69.9484 101.47 72.2235 103.266 74.8035 103.266C77.3835 103.266 79.6585 101.47 81.0005 98.739C79.7285 96.645 77.4325 95.242 74.8035 95.242Z" fill="#FF5252"/>
<path d="M74.8035 31.754C88.1445 31.754 98.9595 25.6803 98.9595 18.188C98.9595 10.6957 88.1445 4.62201 74.8035 4.62201C61.4625 4.62201 50.6475 10.6957 50.6475 18.188C50.6475 25.6803 61.4625 31.754 74.8035 31.754Z" fill="#FFD1A3"/>
</svg>
