<svg width="119" height="164" viewBox="0 0 119 164" fill="none" xmlns="http://www.w3.org/2000/svg">
<path d="M30.1298 43.213C30.1298 43.213 12.5008 22.963 7.50076 27.213C2.50076 31.463 17.2508 54.713 17.2508 54.713L30.1298 43.213Z" fill="#FFD37B"/>
<path d="M88.124 43.213C88.124 43.213 105.753 22.963 110.753 27.213C115.753 31.463 101.003 54.713 101.003 54.713L88.124 43.213Z" fill="#FFD37B"/>
<path d="M19.4749 118.487C16.4229 129.185 9.94088 136.714 4.99588 135.302C0.0518823 133.891 -1.48314 124.075 1.57086 113.378C4.62286 102.682 11.1049 95.153 16.0499 96.565C20.9939 97.977 22.5269 107.791 19.4749 118.487Z" fill="#B53B4D"/>
<path d="M99.5341 118.487C102.586 129.185 109.068 136.714 114.013 135.302C118.957 133.891 120.492 124.075 117.439 113.378C114.387 102.682 107.904 95.153 102.959 96.565C98.016 97.977 96.4811 107.791 99.5341 118.487Z" fill="#B53B4D"/>
<path d="M80.6998 151.067C80.3418 156.282 83.1778 161.711 88.2288 163.284C93.2438 164.869 99.1708 160.116 99.7498 152.522C100.476 143.045 99.2778 133.515 96.2318 124.512C93.7918 117.299 86.8728 114.158 82.4058 116.936C77.9008 119.712 76.4968 125.673 78.1328 130.639C80.3538 137.204 81.2278 144.155 80.6998 151.067Z" fill="#B53B4D"/>
<path d="M38.1437 151.067C38.5017 156.282 35.6657 161.711 30.6147 163.284C25.5997 164.869 19.6727 160.116 19.0937 152.522C18.3687 143.045 19.5667 133.515 22.6137 124.512C25.0527 117.299 31.9727 114.158 36.4397 116.936C40.9447 119.712 42.3487 125.673 40.7117 130.639C38.4887 137.204 37.6157 144.155 38.1437 151.067Z" fill="#B53B4D"/>
<path d="M110.543 98.139C103.836 131.261 83.6051 155.711 59.4831 155.577C35.3591 155.712 15.1291 131.262 8.42112 98.139C7.10812 89.286 5.96613 80.503 5.42313 71.973C4.05213 55.968 13.0261 45.815 23.5281 42.146C28.9371 40.106 34.7301 36.033 40.7681 32.417C46.8061 28.801 53.0891 25.644 59.4821 25.437C72.2661 25.852 84.6141 38.065 95.4361 42.146C105.936 45.816 114.912 55.969 113.54 71.974C112.997 80.504 111.855 89.286 110.543 98.139Z" fill="#FF536D"/>
<path d="M90.1161 71.384C90.1161 75.703 86.6141 79.205 82.2971 79.205C77.9771 79.205 74.4761 75.703 74.4761 71.384C74.4761 67.066 77.9771 63.564 82.2971 63.564C86.6141 63.563 90.1161 67.065 90.1161 71.384Z" fill="#FFFCCC"/>
<path d="M85.634 71.3839C85.634 73.2279 84.139 74.7228 82.297 74.7228C80.454 74.7228 78.959 73.2279 78.959 71.3839C78.959 69.5409 80.454 68.0479 82.297 68.0479C84.139 68.0479 85.634 69.5409 85.634 71.3839Z" fill="#BEFF57"/>
<path d="M83.803 71.3839C83.803 72.2169 83.128 72.8919 82.297 72.8919C81.465 72.8919 80.79 72.2169 80.79 71.3839C80.79 70.5529 81.465 69.8779 82.297 69.8779C83.128 69.8779 83.803 70.5529 83.803 71.3839Z" fill="#201600"/>
<path d="M44.081 71.384C44.081 75.703 40.5789 79.205 36.2599 79.205C31.9409 79.205 28.439 75.703 28.439 71.384C28.439 67.066 31.9409 63.564 36.2599 63.564C40.5789 63.563 44.081 67.065 44.081 71.384Z" fill="#FFFCCC"/>
<path d="M39.5969 71.3839C39.5969 73.2279 38.1039 74.7228 36.2599 74.7228C34.4159 74.7228 32.9209 73.2279 32.9209 71.3839C32.9209 69.5409 34.4159 68.0479 36.2599 68.0479C38.1029 68.0479 39.5969 69.5409 39.5969 71.3839Z" fill="#BEFF57"/>
<path d="M37.767 71.3839C37.767 72.2169 37.092 72.8919 36.259 72.8919C35.426 72.8919 34.752 72.2169 34.752 71.3839C34.752 70.5529 35.426 69.8779 36.259 69.8779C37.093 69.8779 37.767 70.5529 37.767 71.3839Z" fill="#201600"/>
<path d="M74.0009 86.6741C73.8539 87.9501 73.5449 89.2621 73.1989 90.5831C71.3939 95.5301 65.9649 99.1751 59.4859 99.1571H59.4399C52.9709 99.1571 47.5679 95.5211 45.7639 90.5831C45.4169 89.2621 45.1079 87.9501 44.9619 86.6741C44.6519 84.6241 46.3739 83.2121 48.6509 82.5101C49.0249 82.3921 49.4249 82.301 49.8269 82.219C50.8289 82.009 51.8859 81.9091 52.9789 81.8731C54.3459 81.8261 55.7859 81.8731 57.2519 81.8991C57.9809 81.9091 58.7269 81.917 59.4839 81.909C59.7479 81.909 60.0039 81.918 60.2669 81.918C60.6859 81.918 61.1059 81.909 61.5249 81.909C62.9469 81.882 64.3399 81.8361 65.6799 81.8731C66.8819 81.8991 68.0389 81.991 69.1319 82.219C69.4239 82.274 69.7159 82.3471 69.9969 82.4191C72.4329 83.0941 74.3279 84.5231 74.0009 86.6741Z" fill="#B53B4D"/>
<path d="M85.5907 14.294C77.2767 7.85901 67.6527 15.604 67.3117 20.273C67.3117 20.273 69.0477 3.11401 59.4827 0.0440063V0C59.4617 0.006 59.4437 0.0160032 59.4217 0.0220032C59.4007 0.0160032 59.3827 0.007 59.3617 0V0.0440063C49.7967 3.11401 51.5327 20.273 51.5327 20.273C51.1907 15.603 41.5667 7.85901 33.2527 14.294C26.5317 19.495 32.3987 26.993 34.7527 23.349C37.2687 19.451 42.9527 19.542 44.0807 24.373C45.5347 30.6 33.7217 36.772 33.7217 36.772L59.3627 38.6V38.609L59.4227 38.605L59.4837 38.609V38.6L85.1247 36.772C85.1247 36.772 73.3107 30.599 74.7657 24.373C75.8937 19.542 81.5767 19.451 84.0937 23.349C86.4447 26.993 92.3107 19.495 85.5907 14.294Z" fill="#FF536D"/>
<path d="M53.0349 82.619C53.0349 84.497 52.0598 86.027 50.8478 86.027C49.6358 86.027 48.6519 84.497 48.6519 82.619V82.51C49.0259 82.392 49.4259 82.301 49.8279 82.219C50.8299 82.009 51.8868 81.909 52.9798 81.873C53.0168 82.109 53.0349 82.365 53.0349 82.619Z" fill="white"/>
<path d="M61.5817 82.6189C61.5817 84.4969 60.5977 86.0269 59.3857 86.0269C58.1747 86.0269 57.1997 84.4969 57.1997 82.6189C57.1997 82.3739 57.2177 82.1269 57.2547 81.8989C57.9837 81.9089 58.7297 81.9169 59.4867 81.9089C59.7507 81.9089 60.0067 81.9179 60.2697 81.9179C60.6887 81.9179 61.1087 81.9089 61.5277 81.9089C61.5627 82.1359 61.5817 82.3739 61.5817 82.6189Z" fill="white"/>
<path d="M70.0099 82.619C70.0099 84.497 69.027 86.027 67.815 86.027C66.603 86.027 65.627 84.497 65.627 82.619C65.627 82.365 65.646 82.109 65.683 81.873C66.885 81.899 68.0419 81.991 69.1349 82.219C69.4269 82.274 69.719 82.347 70 82.419C70.01 82.483 70.0099 82.556 70.0099 82.619Z" fill="white"/>
</svg>
