<svg width="124" height="127" viewBox="0 0 124 127" fill="none" xmlns="http://www.w3.org/2000/svg">
<path d="M79.9896 23.8194C80.6156 21.6074 81.2506 19.3735 82.3536 17.3555C83.4566 15.3385 85.0856 13.5275 87.2076 12.6405C88.1306 12.2545 89.1856 12.0105 89.8166 11.2345C90.4866 10.4095 90.4566 9.16646 89.9536 8.23046C89.4506 7.29446 88.5556 6.62745 87.6096 6.14245C83.7266 4.14945 78.5646 5.06845 75.6086 8.27945C74.7326 9.23145 74.0416 10.3495 73.0926 11.2285C72.1436 12.1075 70.8156 12.7365 69.5666 12.4005C67.9146 11.9555 67.1086 10.0614 66.9446 8.35845C66.7806 6.65545 67.0096 4.87645 66.4006 3.27745C65.7006 1.44045 63.8526 0.100451 61.8886 0.00545092C59.9246 -0.0895491 57.9566 1.06545 57.0816 2.82545C56.1996 4.59945 56.4216 6.68945 56.3166 8.66745C56.2116 10.6455 55.5416 12.8815 53.7246 13.6695C51.6006 14.5915 49.2146 13.0014 47.7716 11.1904C46.3296 9.37945 45.1776 7.16746 43.0996 6.14746C40.9856 5.10946 38.4576 5.58945 36.2116 6.29645C34.8546 6.72345 33.3016 7.49245 33.1566 8.90845C33.0596 9.85345 33.6756 10.7445 34.4386 11.3105C35.2006 11.8765 36.1096 12.2045 36.9466 12.6545C40.7136 14.6815 42.7516 19.4645 41.6046 23.5855C54.1816 23.0135 67.4306 22.9384 79.9896 23.8194Z" fill="#7986CB"/>
<path d="M15.4734 65.4335C15.4734 65.4335 -3.86856 110.167 22.2714 115.281L31.4614 83.5945L29.5814 69.4955L15.4734 65.4335Z" fill="#636DA6"/>
<path d="M108.53 65.4335C108.53 65.4335 127.872 110.167 101.732 115.281L92.5415 83.5945L94.4215 69.4955L108.53 65.4335Z" fill="#636DA6"/>
<path d="M36.7274 28.7335C36.7274 28.7335 22.0744 33.0805 17.6054 17.5205C17.3454 16.6145 17.2594 15.6715 17.1934 14.7315C17.1124 13.5715 16.3394 11.5125 12.0814 10.6755C5.99937 9.47848 4.20436 14.4435 4.20436 14.4435C4.20436 14.4435 -14.2416 49.5625 26.1404 59.5335L36.7274 28.7335Z" fill="#B7BEE3"/>
<path d="M87.2803 28.7335C87.2803 28.7335 101.932 33.0805 106.402 17.5205C106.662 16.6145 106.748 15.6715 106.814 14.7315C106.895 13.5715 107.668 11.5125 111.925 10.6755C118.007 9.47848 119.802 14.4435 119.802 14.4435C119.802 14.4435 138.248 49.5625 97.8663 59.5335L87.2803 28.7335Z" fill="#B7BEE3"/>
<path d="M93.7046 26.5924C85.7736 21.3404 76.3956 18.7064 66.8836 18.7064H62.0036H57.1236C47.6116 18.7064 38.2336 21.3404 30.3026 26.5924C22.4616 31.7854 14.9756 39.9024 14.9756 51.9684C14.9756 77.3044 15.9516 126.448 31.4786 126.448C47.0056 126.448 47.9816 113.999 47.9816 113.999C47.9816 113.999 53.5576 115.283 62.0036 115.283C70.4496 115.283 76.0256 113.999 76.0256 113.999C76.0256 113.999 77.0016 126.448 92.5286 126.448C108.056 126.448 109.032 77.3044 109.032 51.9684C109.032 39.9014 101.547 31.7844 93.7046 26.5924Z" fill="#7986CB"/>
<path d="M29.5825 63.1424C29.5725 69.9824 37.1126 71.4234 42.5516 71.1854C49.9086 70.8624 56.7185 68.7944 56.8335 60.1844C56.8605 58.1434 56.6046 56.0734 55.8186 54.1904C54.7086 51.5324 52.5635 49.7164 49.9195 48.6754C44.4525 46.5224 38.2575 48.3314 34.2485 52.4754C31.9555 54.8434 29.5875 59.2554 29.5825 63.1424Z" fill="#FFEDDB"/>
<path d="M45.8841 66.3624C49.6952 64.8805 51.5833 60.5897 50.1014 56.7786C48.6195 52.9676 44.3288 51.0794 40.5177 52.5613C36.7067 54.0432 34.8185 58.334 36.3004 62.145C37.7823 65.9561 42.0731 67.8443 45.8841 66.3624Z" fill="#EA80FC"/>
<path d="M43.2084 63.8784C45.6352 63.8784 47.6024 61.9112 47.6024 59.4845C47.6024 57.0577 45.6352 55.0905 43.2084 55.0905C40.7817 55.0905 38.8145 57.0577 38.8145 59.4845C38.8145 61.9112 40.7817 63.8784 43.2084 63.8784Z" fill="#6F3D78"/>
<path d="M48.3935 56.9415C48.3935 58.3735 47.2325 59.5335 45.8015 59.5335C44.3695 59.5335 43.2095 58.3725 43.2095 56.9415C43.2095 55.5095 44.3705 54.3495 45.8015 54.3495C47.2325 54.3485 48.3935 55.5095 48.3935 56.9415Z" fill="white"/>
<path d="M94.4253 63.1424C94.4353 69.9824 86.8953 71.4234 81.4563 71.1854C74.0993 70.8624 67.2893 68.7944 67.1743 60.1844C67.1473 58.1434 67.4033 56.0734 68.1893 54.1904C69.2993 51.5324 71.4443 49.7164 74.0883 48.6754C79.5553 46.5224 85.7503 48.3314 89.7593 52.4754C92.0513 54.8434 94.4193 59.2554 94.4253 63.1424Z" fill="#FFEDDB"/>
<path d="M87.6345 62.3103C89.2064 58.5352 87.4203 54.2007 83.6452 52.6289C79.8702 51.057 75.5356 52.8431 73.9638 56.6181C72.3919 60.3932 74.178 64.7277 77.9531 66.2996C81.7281 67.8714 86.0627 66.0854 87.6345 62.3103Z" fill="#EA80FC"/>
<path d="M80.7993 63.8784C83.226 63.8784 85.1933 61.9112 85.1933 59.4845C85.1933 57.0577 83.226 55.0905 80.7993 55.0905C78.3725 55.0905 76.4053 57.0577 76.4053 59.4845C76.4053 61.9112 78.3725 63.8784 80.7993 63.8784Z" fill="#6F3D78"/>
<path d="M75.6143 56.9414C75.6143 58.3734 76.7753 59.5334 78.2063 59.5334C79.6383 59.5334 80.7982 58.3724 80.7982 56.9414C80.7982 55.5094 79.6373 54.3494 78.2063 54.3494C76.7743 54.3484 75.6143 55.5094 75.6143 56.9414Z" fill="white"/>
<path d="M62.0036 77.0935H48.3926C48.3926 88.4605 62.0036 88.0615 62.0036 88.0615C62.0036 88.0615 75.6146 88.4605 75.6146 77.0935H62.0036Z" fill="#5C1E1E"/>
<path d="M62.0031 81.4464C58.5461 81.4464 55.5681 83.4664 54.1621 86.3854C57.8721 88.1774 62.0031 88.0604 62.0031 88.0604C62.0031 88.0604 66.1331 88.1774 69.8441 86.3854C68.4381 83.4664 65.4601 81.4464 62.0031 81.4464Z" fill="#FF5252"/>
<path d="M62.0033 66.2574C58.2713 66.2574 54.4482 68.1474 54.4482 70.4794C54.4482 70.5884 54.4563 70.6965 54.4733 70.8035C54.6363 71.8565 55.6383 72.5775 56.7043 72.5775H57.6243V70.8284C57.6243 70.1854 58.1453 69.6655 58.7873 69.6655C59.4303 69.6655 59.9503 70.1864 59.9503 70.8284V72.5775H64.0553V70.8284C64.0553 70.1854 64.5763 69.6655 65.2183 69.6655C65.8603 69.6655 66.3813 70.1864 66.3813 70.8284V72.5775H67.3013C68.3673 72.5775 69.3693 71.8565 69.5323 70.8035C69.5493 70.6965 69.5573 70.5884 69.5573 70.4794C69.5583 68.1474 65.7353 66.2574 62.0033 66.2574Z" fill="#DCE0F1"/>
<path d="M79.9824 97.4664C75.8614 96.0044 62.0044 96.1374 62.0044 96.1374C62.0044 96.1374 48.1464 96.0044 44.0254 97.4664C42.1364 98.1364 41.8074 99.9244 42.0054 101.663C42.3254 104.481 43.9754 106.96 46.3084 108.572C49.1324 110.523 54.0914 112.754 62.0034 112.754C69.9154 112.754 74.8744 110.523 77.6984 108.572C80.0324 106.96 81.6814 104.481 82.0014 101.663C82.2004 99.9244 81.8714 98.1374 79.9824 97.4664Z" fill="#FFE2C4"/>
</svg>
