<svg width="146" height="125" viewBox="0 0 146 125" fill="none" xmlns="http://www.w3.org/2000/svg">
<path d="M52.1358 48.9371C52.1358 48.9371 32.4048 53.2871 24.6428 42.0661C24.1128 41.3001 23.7098 40.4571 23.3508 39.5981C21.9868 36.3301 16.5308 25.8111 5.23677 33.2171C-2.67023 38.4021 -0.135227 48.8621 3.19577 56.4561C4.42677 59.2631 5.98278 61.8961 7.81078 64.3011C6.90178 66.4091 5.92578 68.3481 5.74678 70.8101C5.58078 73.0941 5.91478 75.4221 6.74678 77.5551C6.98578 78.1671 7.86278 78.1521 8.09378 77.5371C8.42478 76.6541 9.03077 75.8731 9.83177 75.3731C9.72877 77.3581 10.3328 79.3631 11.4688 80.9921C11.8658 81.5601 12.7748 81.3091 12.7898 80.6161C12.8218 79.1021 13.2908 77.5951 14.1548 76.3491C14.4868 77.5471 15.0908 78.6661 15.8988 79.6101C16.3138 80.0951 17.1448 79.8581 17.1768 79.2201C17.2428 77.9471 17.8818 76.6931 18.9468 75.9821C19.4608 75.6401 20.1308 75.2461 20.3418 74.7401C21.7348 75.4311 23.1748 76.0411 24.6708 76.5391C30.3808 78.4391 37.4228 79.1601 45.5798 76.8791C68.8818 70.3621 52.1358 48.9371 52.1358 48.9371Z" fill="#59A35D"/>
<path d="M15.697 46.3901L13.037 47.7811C10.821 48.9391 8.086 48.0821 6.928 45.8661C5.77 43.6501 6.62699 40.9151 8.84299 39.7571L11.503 38.3661C13.719 37.2081 16.454 38.0651 17.612 40.2811C18.77 42.4971 17.912 45.2321 15.697 46.3901Z" fill="#E6BC93"/>
<path d="M16.7396 34.656C16.7396 35.89 15.7386 36.8921 14.5036 36.8921C13.2686 36.8921 12.2676 35.891 12.2676 34.656C12.2676 33.421 13.2686 32.42 14.5036 32.42C15.7386 32.42 16.7396 33.421 16.7396 34.656Z" fill="#E6BC93"/>
<path d="M10.7889 35.964C10.7889 37.199 9.7879 38.2 8.5529 38.2C7.3179 38.2 6.31689 37.199 6.31689 35.964C6.31689 34.729 7.3179 33.728 8.5529 33.728C9.7879 33.728 10.7889 34.729 10.7889 35.964Z" fill="#E6BC93"/>
<path d="M5.93681 40.838C5.93681 42.073 4.93581 43.074 3.70181 43.074C2.46681 43.074 1.46582 42.073 1.46582 40.838C1.46582 39.603 2.46681 38.6021 3.70181 38.6021C4.93581 38.6021 5.93681 39.603 5.93681 40.838Z" fill="#E6BC93"/>
<path d="M140.169 33.2172C128.875 25.8112 123.42 36.3312 122.055 39.5982C121.696 40.4572 121.293 41.3002 120.763 42.0662C113.001 53.2872 93.2699 48.9372 93.2699 48.9372C93.2699 48.9372 76.5229 70.3622 99.8279 76.8782C107.985 79.1592 115.027 78.4382 120.737 76.5382C122.233 76.0402 123.673 75.4302 125.066 74.7392C125.276 75.2452 125.947 75.6392 126.461 75.9812C127.526 76.6922 128.165 77.9462 128.231 79.2192C128.264 79.8562 129.094 80.0932 129.509 79.6092C130.317 78.6652 130.922 77.5462 131.253 76.3482C132.116 77.5942 132.586 79.1012 132.618 80.6152C132.632 81.3082 133.542 81.5602 133.938 80.9912C135.075 79.3632 135.678 77.3582 135.575 75.3722C136.376 75.8722 136.982 76.6532 137.313 77.5362C137.544 78.1512 138.421 78.1662 138.66 77.5542C139.492 75.4202 139.826 73.0922 139.66 70.8092C139.481 68.3482 138.505 66.4082 137.596 64.3012C139.424 61.8962 140.98 59.2632 142.211 56.4562C145.541 48.8622 148.076 38.4022 140.169 33.2172Z" fill="#59A35D"/>
<path d="M129.71 46.3902L132.37 47.7812C134.586 48.9392 137.321 48.0822 138.479 45.8662C139.637 43.6502 138.78 40.9152 136.564 39.7572L133.904 38.3662C131.688 37.2082 128.953 38.0652 127.795 40.2812C126.637 42.4972 127.494 45.2322 129.71 46.3902Z" fill="#E6BC93"/>
<path d="M128.666 34.6562C128.666 35.8902 129.667 36.8922 130.902 36.8922C132.137 36.8922 133.138 35.8912 133.138 34.6562C133.138 33.4212 132.137 32.4202 130.902 32.4202C129.667 32.4212 128.666 33.4212 128.666 34.6562Z" fill="#E6BC93"/>
<path d="M134.618 35.9643C134.618 37.1993 135.619 38.2003 136.854 38.2003C138.089 38.2003 139.09 37.1993 139.09 35.9643C139.09 34.7293 138.089 33.7283 136.854 33.7283C135.619 33.7283 134.618 34.7293 134.618 35.9643Z" fill="#E6BC93"/>
<path d="M139.469 40.8382C139.469 42.0732 140.47 43.0742 141.705 43.0742C142.94 43.0742 143.941 42.0732 143.941 40.8382C143.941 39.6032 142.94 38.6022 141.705 38.6022C140.47 38.6022 139.469 39.6032 139.469 40.8382Z" fill="#E6BC93"/>
<path d="M29.7766 109.329C29.7766 109.329 19.7556 114.92 23.3486 121.151C26.9416 127.382 65.2456 126.099 64.1626 114.902L50.8376 100.435L29.7766 109.329Z" fill="#59A35D"/>
<path d="M115.34 108.707C115.34 108.707 125.763 114.522 122.025 121.002C118.288 127.482 78.4506 126.148 79.5756 114.502L93.4346 99.4562L115.34 108.707Z" fill="#59A35D"/>
<path d="M107.588 51.9511C107.588 51.4001 107.581 50.8541 107.568 50.3151C106.335 0.21413 39.0699 0.21413 37.8369 50.3151C37.8239 50.8541 37.8169 51.4001 37.8169 51.9511C37.8169 51.9511 18.8989 64.4482 18.8989 92.4042C18.8989 120.359 72.7019 118.035 72.7019 118.035C72.7019 118.035 126.505 120.36 126.505 92.4042C126.507 64.4482 107.588 51.9511 107.588 51.9511Z" fill="#80D8FF"/>
<path d="M107.588 51.9511C107.588 51.4001 107.581 50.8541 107.568 50.3151C107.102 31.3761 97.1979 19.6011 84.9939 14.9811L85.0069 14.9821C85.0069 14.9821 90.9129 14.8261 91.0519 10.9161C91.1909 7.00613 86.1389 8.16512 86.1389 8.16512C86.1389 8.16512 89.4649 5.26912 87.2929 3.09612C85.1209 0.924118 80.3649 5.84713 80.3649 5.84713C82.1249 2.37213 80.3649 0.634113 80.3649 0.634113C80.3649 0.634113 77.3009 -1.97288 74.5499 3.38512C71.7989 8.74312 65.2079 13.5541 65.2079 13.5541L65.2229 13.5551C50.9129 16.6901 38.3649 28.9381 37.8389 50.3141C37.8259 50.8531 37.8189 51.3991 37.8189 51.9501C37.8189 51.9501 18.9009 64.4471 18.9009 92.4031C18.9009 120.358 72.7039 118.034 72.7039 118.034C72.7039 118.034 126.508 120.359 126.508 92.4031C126.507 64.4481 107.588 51.9511 107.588 51.9511Z" fill="#66BB6A"/>
<path d="M64.4276 43.5791C64.4276 48.4621 60.4696 52.4201 55.5866 52.4201C50.7036 52.4201 46.7446 48.4621 46.7446 43.5791C46.7446 38.6961 50.7026 34.7371 55.5866 34.7371C60.4686 34.7381 64.4276 38.6961 64.4276 43.5791Z" fill="#FFEDDB"/>
<path d="M60.9517 43.5791C60.9517 46.5431 58.5497 48.9451 55.5857 48.9451C52.6217 48.9451 50.2197 46.5431 50.2197 43.5791C50.2197 40.6151 52.6227 38.2131 55.5857 38.2131C58.5497 38.2131 60.9517 40.6151 60.9517 43.5791Z" fill="#EA80FC"/>
<path d="M58.6525 43.5791C58.6525 45.2731 57.2795 46.6451 55.5865 46.6451C53.8925 46.6451 52.5205 45.2721 52.5205 43.5791C52.5205 41.8851 53.8935 40.5131 55.5865 40.5131C57.2795 40.5131 58.6525 41.8861 58.6525 43.5791Z" fill="#6B3A73"/>
<path d="M59.3705 41.4311C59.3705 42.3381 58.6355 43.0741 57.7275 43.0741C56.8205 43.0741 56.0845 42.3391 56.0845 41.4311C56.0845 40.5241 56.8205 39.7881 57.7275 39.7881C58.6345 39.7881 59.3705 40.5241 59.3705 41.4311Z" fill="white"/>
<path d="M98.0468 43.5791C98.0468 48.4621 94.0887 52.4201 89.2057 52.4201C84.3227 52.4201 80.3647 48.4621 80.3647 43.5791C80.3647 38.6961 84.3227 34.7371 89.2057 34.7371C94.0887 34.7381 98.0468 38.6961 98.0468 43.5791Z" fill="#FFEDDB"/>
<path d="M89.2058 48.9451C92.1694 48.9451 94.5718 46.5427 94.5718 43.5791C94.5718 40.6156 92.1694 38.2131 89.2058 38.2131C86.2423 38.2131 83.8398 40.6156 83.8398 43.5791C83.8398 46.5427 86.2423 48.9451 89.2058 48.9451Z" fill="#EA80FC"/>
<path d="M89.2057 46.6451C90.899 46.6451 92.2716 45.2724 92.2716 43.5791C92.2716 41.8858 90.899 40.5131 89.2057 40.5131C87.5124 40.5131 86.1396 41.8858 86.1396 43.5791C86.1396 45.2724 87.5124 46.6451 89.2057 46.6451Z" fill="#6B3A73"/>
<path d="M92.9896 41.4311C92.9896 42.3381 92.2546 43.0741 91.3466 43.0741C90.4396 43.0741 89.7036 42.3391 89.7036 41.4311C89.7036 40.5241 90.4396 39.7881 91.3466 39.7881C92.2546 39.7881 92.9896 40.5241 92.9896 41.4311Z" fill="white"/>
<path d="M45.6587 52.4201C53.9127 48.5981 65.8607 48.9451 65.8607 48.9451L60.9527 56.5681L47.9397 57.8711L45.6587 52.4201Z" fill="#66BB6A"/>
<path d="M65.8597 48.9451C65.8597 48.9451 64.5637 49.2441 62.6577 49.5621C62.1817 49.6411 61.6667 49.7261 61.1217 49.8171C60.5767 49.8971 60.0067 50.0061 59.4137 50.0831C58.2357 50.2631 56.9797 50.4551 55.7227 50.6471C55.0967 50.7451 54.4717 50.8431 53.8557 50.9401C53.2467 51.0621 52.6277 51.1071 52.0497 51.2321C51.4717 51.3551 50.8917 51.4091 50.3607 51.5251C49.8217 51.6231 49.3127 51.7161 48.8427 51.8011C48.3777 51.9061 47.9417 51.9821 47.5517 52.0501C47.1657 52.1311 46.8287 52.2021 46.5517 52.2601C45.9907 52.3721 45.6567 52.4211 45.6567 52.4211C45.6567 52.4211 45.9177 52.2201 46.3967 51.8931C46.8707 51.5521 47.5877 51.1401 48.4837 50.7101C49.3807 50.2881 50.4617 49.8601 51.6487 49.5171C52.8327 49.1571 54.1217 48.8781 55.4187 48.6721C56.7177 48.4801 58.0267 48.3651 59.2537 48.3351C60.4807 48.2911 61.6277 48.3361 62.6087 48.4211C64.5737 48.5751 65.8597 48.9451 65.8597 48.9451Z" fill="#4F9152"/>
<path d="M99.306 52.4201C91.052 48.5981 79.105 48.9451 79.105 48.9451L84.013 56.5681L97.026 57.8711L99.306 52.4201Z" fill="#66BB6A"/>
<path d="M79.105 48.9452C79.105 48.9452 80.391 48.5752 82.354 48.4202C83.334 48.3342 84.482 48.2902 85.709 48.3342C86.937 48.3642 88.245 48.4792 89.544 48.6712C90.842 48.8772 92.13 49.1572 93.314 49.5162C94.501 49.8602 95.582 50.2872 96.479 50.7092C97.376 51.1392 98.092 51.5512 98.566 51.8922C99.046 52.2192 99.306 52.4202 99.306 52.4202C99.306 52.4202 98.972 52.3712 98.411 52.2592C98.134 52.2012 97.797 52.1302 97.411 52.0492C97.022 51.9812 96.586 51.9052 96.12 51.8002C95.65 51.7142 95.141 51.6222 94.602 51.5242C94.071 51.4082 93.492 51.3552 92.913 51.2312C92.335 51.1062 91.716 51.0612 91.107 50.9392C90.491 50.8422 89.866 50.7442 89.24 50.6462C87.983 50.4542 86.727 50.2622 85.549 50.0822C84.957 50.0042 84.386 49.8962 83.841 49.8162C83.296 49.7262 82.781 49.6402 82.305 49.5612C80.4 49.2442 79.105 48.9452 79.105 48.9452Z" fill="#4F9152"/>
<path d="M81.5048 72.2052H63.6158C59.8628 72.2052 56.8208 69.1632 56.8208 65.4112C56.8208 61.6582 59.8628 58.6172 63.6158 58.6172H81.5048C85.2578 58.6172 88.2988 61.6592 88.2988 65.4112C88.2988 69.1632 85.2568 72.2052 81.5048 72.2052Z" fill="#5C1E1E"/>
<path d="M63.6157 72.2052H81.5047C81.6627 72.2052 81.8177 72.1922 81.9737 72.1812C81.1907 69.7902 77.3427 67.9722 72.7037 67.9722C68.0547 67.9722 64.2017 69.7972 63.4297 72.1952C63.4917 72.1972 63.5527 72.2052 63.6157 72.2052Z" fill="#FF5252"/>
<path d="M81.5047 58.6162H77.6387V58.9322C77.6387 60.4372 78.8587 61.6572 80.3637 61.6572C81.8687 61.6572 83.0887 60.4372 83.0887 58.9322V58.8102C82.5797 58.6872 82.0517 58.6162 81.5047 58.6162Z" fill="#FFEDDB"/>
<path d="M67.1527 58.9322V58.6162H63.6157C62.9507 58.6162 62.3087 58.7162 61.7017 58.8942V58.9322C61.7017 60.4372 62.9217 61.6572 64.4267 61.6572C65.9317 61.6572 67.1527 60.4372 67.1527 58.9322Z" fill="#FFEDDB"/>
<path d="M72.5606 87.7391C43.2346 87.7391 49.8676 110.667 49.8676 110.667C50.1216 112.122 51.3856 113.183 52.8616 113.183L54.8976 113.508C66.6926 115.391 78.7126 115.378 90.5026 113.468L92.2596 113.183C93.7366 113.183 94.9996 112.122 95.2536 110.667C95.2536 110.667 101.886 87.7391 72.5606 87.7391Z" fill="#FFE2C4"/>
</svg>
