<svg width="128" height="162" viewBox="0 0 128 162" fill="none" xmlns="http://www.w3.org/2000/svg">
<path d="M16.026 80.2283C16.026 84.1183 12.439 87.2703 8.013 87.2703C3.587 87.2703 0 84.1183 0 80.2283C0 76.3383 3.587 73.1853 8.013 73.1853C12.439 73.1853 16.026 76.3383 16.026 80.2283Z" fill="#759C2F"/>
<path d="M127.623 80.2283C127.623 84.1183 124.036 87.2703 119.61 87.2703C115.184 87.2703 111.597 84.1183 111.597 80.2283C111.597 76.3383 115.184 73.1853 119.61 73.1853C124.036 73.1853 127.623 76.3383 127.623 80.2283Z" fill="#759C2F"/>
<path d="M123.285 156.323C122.722 156.924 122.017 157.447 121.188 157.915C118.263 159.582 113.833 160.497 108.849 160.964C108.364 161.021 107.877 161.059 107.391 161.097C103.37 161.411 99.0629 161.479 94.9479 161.45C94.4909 161.45 94.0339 161.45 93.5759 161.441C88.7829 161.393 84.3429 161.231 81.0369 161.25C80.1219 161.25 79.2929 161.26 78.5689 161.298C72.0419 161.298 69.9269 150.237 63.8099 148.979C57.7029 150.237 55.5869 161.298 49.0509 161.298C48.3939 161.271 47.6409 161.25 46.8219 161.25C43.5439 161.231 39.1039 161.384 34.2829 161.441C33.8349 161.441 33.3679 161.45 32.9109 161.45C28.8049 161.479 24.4979 161.422 20.4679 161.117C19.9719 161.079 19.4869 161.041 19.0009 160.993C14.0559 160.536 9.62587 159.65 6.65287 158.049C5.72887 157.544 4.94687 156.973 4.33787 156.324C-6.83813 145.958 7.01487 119.451 7.82487 104.874V78.8343C7.01487 64.2573 10.5499 45.0203 21.7259 34.6443C31.4069 24.4023 47.5179 21.6013 61.2959 21.6013C62.1529 21.6013 62.9819 21.6293 63.8109 21.6483C64.6499 21.6303 65.4779 21.6013 66.3259 21.6013C80.1029 21.6013 96.2149 24.4023 105.896 34.6443C117.072 45.0203 120.607 64.2573 119.797 78.8343V104.874C120.608 119.45 134.461 145.957 123.285 156.323Z" fill="#9DCF3F"/>
<path d="M61.5907 57.4163C61.5907 68.0343 52.9837 76.6423 42.3647 76.6423C31.7467 76.6423 23.1377 68.0353 23.1377 57.4163C23.1377 46.7973 31.7457 38.1893 42.3647 38.1893C52.9827 38.1893 61.5907 46.7973 61.5907 57.4163Z" fill="#FFFCCC"/>
<path d="M50.5687 57.4163C50.5687 61.9463 46.8957 65.6203 42.3637 65.6203C37.8327 65.6203 34.1587 61.9463 34.1587 57.4163C34.1587 52.8853 37.8327 49.2103 42.3637 49.2103C46.8957 49.2103 50.5687 52.8853 50.5687 57.4163Z" fill="#FED283"/>
<path d="M46.0687 57.4163C46.0687 59.4613 44.4097 61.1203 42.3637 61.1203C40.3177 61.1203 38.6587 59.4613 38.6587 57.4163C38.6587 55.3703 40.3177 53.7113 42.3637 53.7113C44.4097 53.7113 46.0687 55.3703 46.0687 57.4163Z" fill="#201600"/>
<path d="M105.436 57.4163C105.436 68.0343 96.8289 76.6423 86.2099 76.6423C75.5909 76.6423 66.9829 68.0353 66.9829 57.4163C66.9829 46.7973 75.5909 38.1893 86.2099 38.1893C96.8289 38.1893 105.436 46.7973 105.436 57.4163Z" fill="#FFFCCC"/>
<path d="M94.4139 57.4163C94.4139 61.9463 90.7409 65.6203 86.2099 65.6203C81.6789 65.6203 78.0039 61.9463 78.0039 57.4163C78.0039 52.8853 81.6779 49.2103 86.2099 49.2103C90.7409 49.2103 94.4139 52.8853 94.4139 57.4163Z" fill="#FED283"/>
<path d="M89.9139 57.4163C89.9139 59.4613 88.2549 61.1203 86.2099 61.1203C84.1639 61.1203 82.5049 59.4613 82.5049 57.4163C82.5049 55.3703 84.1639 53.7113 86.2099 53.7113C88.2549 53.7113 89.9139 55.3703 89.9139 57.4163Z" fill="#201600"/>
<path d="M44.8257 87.0173C46.5437 98.7173 54.6007 107.577 64.2867 107.577C73.9717 107.577 82.0287 98.7183 83.7487 87.0173H44.8257Z" fill="#759C2F"/>
<path d="M79.6947 9.37531C74.4747 5.97931 67.3087 16.7603 67.3087 16.7603C67.3087 16.7603 69.5907 9.21929 69.6907 5.48529C69.8147 0.837291 66.1567 0.111297 64.5407 0.0142975V0.00729368C64.5407 0.00729368 64.3937 -0.00171011 64.1627 0.000289894C63.9327 -0.000710106 63.7847 0.00729368 63.7847 0.00729368V0.0142975C62.1687 0.111297 58.5117 0.837291 58.6347 5.48529C58.7347 9.21929 61.0167 16.7603 61.0167 16.7603C61.0167 16.7603 53.4537 6.26031 48.6307 9.37531C43.4867 12.6983 48.9637 19.4223 63.7847 25.1993V25.4933C63.9127 25.4453 64.0357 25.3943 64.1627 25.3473C64.2897 25.3953 64.4127 25.4463 64.5407 25.4933V25.1993C79.3617 19.4223 85.4317 13.1083 79.6947 9.37531Z" fill="#9DCF3F"/>
<path d="M19.1448 159.173C19.1448 159.791 19.0978 160.401 19.0018 160.992C14.0568 160.535 9.62681 159.649 6.65381 158.048C7.06381 153.941 9.69281 150.769 12.8758 150.769C16.3438 150.769 19.1448 154.532 19.1448 159.173Z" fill="#87B336"/>
<path d="M32.9886 160.211C32.9886 160.63 32.9696 161.05 32.9126 161.449C28.8066 161.478 24.4996 161.421 20.4696 161.116C20.4406 160.82 20.4316 160.516 20.4316 160.211C20.4316 155.571 23.2426 151.808 26.7106 151.808C30.1776 151.808 32.9886 155.571 32.9886 160.211Z" fill="#87B336"/>
<path d="M46.8239 161.249C43.5459 161.23 39.1059 161.383 34.2849 161.44C34.2749 161.373 34.2749 161.316 34.2749 161.249C34.2749 156.6 37.0859 152.836 40.5439 152.836C44.0129 152.836 46.8239 156.6 46.8239 161.249Z" fill="#87B336"/>
<path d="M121.189 157.915C118.264 159.582 113.834 160.497 108.85 160.964C108.755 160.382 108.707 159.782 108.707 159.173C108.707 154.532 111.518 150.769 114.986 150.769C118.13 150.769 120.741 153.865 121.189 157.915Z" fill="#87B336"/>
<path d="M107.421 160.211C107.421 160.517 107.412 160.812 107.393 161.097C103.372 161.411 99.065 161.479 94.95 161.45C94.893 161.05 94.874 160.631 94.874 160.212C94.874 155.572 97.685 151.809 101.153 151.809C104.62 151.808 107.421 155.571 107.421 160.211Z" fill="#87B336"/>
<path d="M93.5861 161.249C93.5861 161.316 93.5861 161.373 93.5771 161.44C88.7841 161.392 84.3441 161.23 81.0381 161.249C81.0381 156.6 83.8491 152.836 87.3071 152.836C90.7761 152.836 93.5861 156.6 93.5861 161.249Z" fill="#87B336"/>
</svg>
