<svg width="110" height="124" viewBox="0 0 110 124" fill="none" xmlns="http://www.w3.org/2000/svg">
<path d="M19.7807 11.397L26.0867 28.509C27.7297 32.968 33.2347 34.543 36.9877 31.628C40.7407 28.713 40.5777 22.9901 36.6637 20.2941L21.6447 9.94905C20.6497 9.26305 19.3627 10.263 19.7807 11.397Z" fill="#664F17"/>
<path d="M90.0207 11.397L83.7137 28.509C82.0707 32.968 76.5657 34.543 72.8127 31.628C69.0597 28.713 69.2227 22.9901 73.1367 20.2941L88.1557 9.94905C89.1517 9.26305 90.4387 10.263 90.0207 11.397Z" fill="#664F17"/>
<path d="M14.6366 55.603C14.6366 55.603 -10.2694 84.392 4.89657 97.206C20.0626 110.021 26.1806 63.071 26.1806 63.071L14.6366 55.603Z" fill="#DEAB31"/>
<path d="M94.7535 55.603C94.7535 55.603 119.659 84.392 104.493 97.206C89.3275 110.021 83.2095 63.071 83.2095 63.071L94.7535 55.603Z" fill="#DEAB31"/>
<path d="M26.4854 101.846C26.4854 101.846 4.73535 98.5949 4.73535 113.376C4.73535 125.684 29.5083 123.446 37.7993 122.352C40.8833 121.945 43.6074 119.956 44.6774 117.036C45.9024 113.694 45.3654 108.59 38.3194 101.543L26.4854 101.846Z" fill="#DEAB31"/>
<path d="M83.0984 101.846C83.0984 101.846 104.848 98.5949 104.848 113.376C104.848 125.684 80.0754 123.446 71.7844 122.352C68.7004 121.945 65.9764 119.956 64.9064 117.036C63.6814 113.694 64.2183 108.59 71.2643 101.543L83.0984 101.846Z" fill="#DEAB31"/>
<path d="M99.0624 78.122C99.0624 104.589 92.9454 121.288 54.7924 121.288C16.6395 121.288 10.5225 104.589 10.5225 78.122C10.5225 51.655 30.3424 12.27 54.7924 12.27C79.2414 12.27 99.0624 51.655 99.0624 78.122Z" fill="#FFC438"/>
<path d="M76.3906 53.8276C77.5032 41.9023 68.7378 31.3329 56.8124 30.2202C44.8871 29.1076 34.3177 37.873 33.2051 49.7984C32.0924 61.7237 40.8578 72.2931 52.7832 73.4057C64.7085 74.5184 75.2779 65.753 76.3906 53.8276Z" fill="#FFEDDB"/>
<path d="M65.7556 54.4184C67.1758 48.3731 63.4263 42.3211 57.381 40.9009C51.3357 39.4807 45.2837 43.2301 43.8635 49.2754C42.4433 55.3207 46.1927 61.3727 52.238 62.7929C58.2833 64.2131 64.3354 60.4637 65.7556 54.4184Z" fill="#FF5252"/>
<path d="M54.7925 57.851C58.1195 57.851 60.8165 55.1539 60.8165 51.827C60.8165 48.5 58.1195 45.803 54.7925 45.803C51.4656 45.803 48.7686 48.5 48.7686 51.827C48.7686 55.1539 51.4656 57.851 54.7925 57.851Z" fill="#5C1E1E"/>
<path d="M73.8416 75.4301C68.7476 77.4161 62.0426 79.2761 54.7916 79.2761C47.5406 79.2761 40.8356 77.4161 35.7416 75.4301C31.6566 73.8371 27.2776 75.9481 26.3406 80.2311C25.7366 82.9911 26.8656 85.7641 29.0956 87.3301C32.2666 89.5571 36.0526 91.1241 39.7326 92.2261C49.5396 95.1631 60.0416 95.1631 69.8486 92.2261C73.5286 91.1241 77.3156 89.5571 80.4856 87.3301C82.7156 85.7641 83.8446 82.9911 83.2406 80.2311C82.3056 75.9481 77.9266 73.8371 73.8416 75.4301Z" fill="#5C1E1E"/>
<path d="M54.7928 84.6641C46.8718 84.6641 40.1698 87.5991 37.9248 91.6421C38.5288 91.8481 39.1328 92.0451 39.7348 92.2251C49.5418 95.1621 60.0438 95.1621 69.8508 92.2251C70.4528 92.0451 71.0568 91.8471 71.6608 91.6421C69.4158 87.5991 62.7128 84.6641 54.7928 84.6641Z" fill="#FF5252"/>
<path d="M53.6116 0.864L48.0956 18.247C46.6586 22.777 50.0396 27.397 54.7916 27.397C59.5436 27.397 62.9256 22.777 61.4876 18.247L55.9716 0.864C55.6076 -0.288 53.9776 -0.288 53.6116 0.864Z" fill="#664F17"/>
<path d="M21.9946 73.78C24.9516 73.78 27.3486 71.383 27.3486 68.426C27.3486 65.4691 24.9516 63.072 21.9946 63.072C19.0377 63.072 16.6406 65.4691 16.6406 68.426C16.6406 71.383 19.0377 73.78 21.9946 73.78Z" fill="#FF6E40"/>
<path d="M87.5903 73.78C90.5473 73.78 92.9443 71.383 92.9443 68.426C92.9443 65.4691 90.5473 63.072 87.5903 63.072C84.6334 63.072 82.2363 65.4691 82.2363 68.426C82.2363 71.383 84.6334 73.78 87.5903 73.78Z" fill="#FF6E40"/>
<path d="M62.8757 48.431C62.8757 50.464 61.2277 52.112 59.1947 52.112C57.1617 52.112 55.5137 50.464 55.5137 48.431C55.5137 46.398 57.1617 44.75 59.1947 44.75C61.2277 44.749 62.8757 46.397 62.8757 48.431Z" fill="white"/>
<path d="M42.3196 79.1101L42.5936 77.6411C40.0996 76.9971 37.7866 76.2271 35.7426 75.4301C34.9296 75.1131 34.1056 74.9491 33.2986 74.9131L32.8456 77.3411C32.3566 79.9571 34.0816 82.4741 36.6986 82.9631C39.3136 83.4511 41.8306 81.7261 42.3196 79.1101Z" fill="#FFEDDB"/>
<path d="M76.2535 74.9131C75.4565 74.9521 74.6435 75.1171 73.8415 75.4301C71.7945 76.2281 69.4775 76.9991 66.9795 77.6441L67.8255 79.8551C68.7765 82.3411 71.5625 83.5851 74.0485 82.6341C76.5345 81.6831 77.7785 78.8971 76.8285 76.4111L76.2535 74.9131Z" fill="#FFEDDB"/>
<path d="M59.6116 80.782V78.999C58.0396 79.169 56.4326 79.275 54.7926 79.275C53.1526 79.275 51.5456 79.169 49.9736 78.999V80.782C49.9736 83.443 52.1316 85.601 54.7926 85.601C57.4536 85.601 59.6116 83.444 59.6116 80.782Z" fill="#FFEDDB"/>
</svg>
