<svg width="119" height="139" viewBox="0 0 119 139" fill="none" xmlns="http://www.w3.org/2000/svg">
<path d="M30.1298 17.776C30.1298 17.776 12.5008 -2.47402 7.50076 1.77598C2.50076 6.02598 17.2508 29.276 17.2508 29.276L30.1298 17.776Z" fill="#9653E7"/>
<path d="M88.124 17.776C88.124 17.776 105.753 -2.47402 110.753 1.77598C115.753 6.02598 101.003 29.276 101.003 29.276L88.124 17.776Z" fill="#9653E7"/>
<path d="M19.4749 93.05C16.4229 103.748 9.94088 111.277 4.99588 109.865C0.0518823 108.454 -1.48314 98.6379 1.57086 87.941C4.62286 77.245 11.1049 69.716 16.0499 71.128C20.9939 72.54 22.5269 82.354 19.4749 93.05Z" fill="#9552E6"/>
<path d="M99.5341 93.05C102.586 103.748 109.068 111.277 114.013 109.865C118.957 108.454 120.492 98.6379 117.439 87.941C114.387 77.245 107.904 69.716 102.959 71.128C98.016 72.54 96.4811 82.354 99.5341 93.05Z" fill="#9552E6"/>
<path d="M80.6998 125.63C80.3418 130.845 83.1778 136.274 88.2288 137.847C93.2438 139.432 99.1708 134.679 99.7498 127.085C100.476 117.608 99.2778 108.078 96.2318 99.075C93.7918 91.862 86.8728 88.721 82.4058 91.499C77.9008 94.275 76.4968 100.236 78.1328 105.202C80.3538 111.767 81.2278 118.718 80.6998 125.63Z" fill="#9552E6"/>
<path d="M38.1437 125.63C38.5017 130.845 35.6657 136.274 30.6147 137.847C25.5997 139.432 19.6727 134.679 19.0937 127.085C18.3687 117.608 19.5667 108.078 22.6137 99.075C25.0527 91.862 31.9727 88.721 36.4397 91.499C40.9447 94.275 42.3487 100.236 40.7117 105.202C38.4887 111.767 37.6157 118.718 38.1437 125.63Z" fill="#9552E6"/>
<path d="M110.543 72.702C103.836 105.824 83.6051 130.274 59.4831 130.14C35.3591 130.275 15.1291 105.825 8.42112 72.702C7.10812 63.849 5.96613 55.066 5.42313 46.536C4.05213 30.531 13.0261 20.378 23.5281 16.709C28.9371 14.669 34.7301 10.596 40.7681 6.97998C46.8061 3.36398 53.0891 0.207 59.4821 0C72.2661 0.415 84.6141 12.628 95.4361 16.709C105.936 20.379 114.912 30.532 113.54 46.537C112.997 55.067 111.855 63.849 110.543 72.702Z" fill="url(#paint0_radial_42_7135)"/>
<path d="M90.1161 45.947C90.1161 50.266 86.6141 53.768 82.2971 53.768C77.9771 53.768 74.4761 50.266 74.4761 45.947C74.4761 41.629 77.9771 38.127 82.2971 38.127C86.6141 38.126 90.1161 41.628 90.1161 45.947Z" fill="#FFFCCC"/>
<path d="M85.634 45.947C85.634 47.791 84.139 49.2859 82.297 49.2859C80.454 49.2859 78.959 47.791 78.959 45.947C78.959 44.104 80.454 42.611 82.297 42.611C84.139 42.611 85.634 44.104 85.634 45.947Z" fill="#BEFF57"/>
<path d="M83.803 45.9469C83.803 46.7799 83.128 47.4549 82.297 47.4549C81.465 47.4549 80.79 46.7799 80.79 45.9469C80.79 45.1159 81.465 44.4409 82.297 44.4409C83.128 44.4409 83.803 45.1159 83.803 45.9469Z" fill="#201600"/>
<path d="M44.081 45.947C44.081 50.266 40.5789 53.768 36.2599 53.768C31.9409 53.768 28.439 50.266 28.439 45.947C28.439 41.629 31.9409 38.127 36.2599 38.127C40.5789 38.126 44.081 41.628 44.081 45.947Z" fill="#FFFCCC"/>
<path d="M39.5969 45.947C39.5969 47.791 38.1039 49.2859 36.2599 49.2859C34.4159 49.2859 32.9209 47.791 32.9209 45.947C32.9209 44.104 34.4159 42.611 36.2599 42.611C38.1029 42.611 39.5969 44.104 39.5969 45.947Z" fill="#BEFF57"/>
<path d="M37.767 45.9469C37.767 46.7799 37.092 47.4549 36.259 47.4549C35.426 47.4549 34.752 46.7799 34.752 45.9469C34.752 45.1159 35.426 44.4409 36.259 44.4409C37.093 44.4409 37.767 45.1159 37.767 45.9469Z" fill="#201600"/>
<path d="M74.0009 61.237C73.8539 62.513 73.5449 63.825 73.1989 65.146C71.3939 70.093 65.9649 73.738 59.4859 73.72H59.4399C52.9709 73.72 47.5679 70.084 45.7639 65.146C45.4169 63.825 45.1079 62.513 44.9619 61.237C44.6519 59.187 46.3739 57.775 48.6509 57.073C49.0249 56.955 49.4249 56.864 49.8269 56.782C50.8289 56.572 51.8859 56.4721 52.9789 56.4361C54.3459 56.3891 55.7859 56.4361 57.2519 56.4621C57.9809 56.4721 58.7269 56.48 59.4839 56.472C59.7479 56.472 60.0039 56.481 60.2669 56.481C60.6859 56.481 61.1059 56.472 61.5249 56.472C62.9469 56.445 64.3399 56.3991 65.6799 56.4361C66.8819 56.4621 68.0389 56.554 69.1319 56.782C69.4239 56.837 69.7159 56.91 69.9969 56.982C72.4329 57.657 74.3279 59.086 74.0009 61.237Z" fill="#9552E6"/>
<path d="M53.0349 57.182C53.0349 59.06 52.0598 60.59 50.8478 60.59C49.6358 60.59 48.6519 59.06 48.6519 57.182V57.073C49.0259 56.955 49.4259 56.864 49.8279 56.782C50.8299 56.572 51.8868 56.472 52.9798 56.436C53.0168 56.672 53.0349 56.928 53.0349 57.182Z" fill="white"/>
<path d="M61.5817 57.182C61.5817 59.06 60.5977 60.59 59.3857 60.59C58.1747 60.59 57.1997 59.06 57.1997 57.182C57.1997 56.937 57.2177 56.69 57.2547 56.462C57.9837 56.472 58.7297 56.48 59.4867 56.472C59.7507 56.472 60.0067 56.481 60.2697 56.481C60.6887 56.481 61.1087 56.472 61.5277 56.472C61.5627 56.699 61.5817 56.937 61.5817 57.182Z" fill="white"/>
<path d="M70.0099 57.182C70.0099 59.06 69.027 60.59 67.815 60.59C66.603 60.59 65.627 59.06 65.627 57.182C65.627 56.928 65.646 56.672 65.683 56.436C66.885 56.462 68.0419 56.554 69.1349 56.782C69.4269 56.837 69.719 56.91 70 56.982C70.01 57.046 70.0099 57.119 70.0099 57.182Z" fill="white"/>
<defs>
<radialGradient id="paint0_radial_42_7135" cx="0" cy="0" r="1" gradientUnits="userSpaceOnUse" gradientTransform="translate(59.4817 65.0703) rotate(90) scale(65.0703 54.1975)">
<stop stop-color="#FF536D"/>
<stop offset="0.2" stop-color="#FFA048"/>
<stop offset="0.4" stop-color="#EDE746"/>
<stop offset="0.6" stop-color="#AEE55E"/>
<stop offset="0.8" stop-color="#6FB7E3"/>
<stop offset="1" stop-color="#9552E6"/>
</radialGradient>
</defs>
</svg>
