<svg width="450" height="300" viewBox="0 0 450 300" fill="none" xmlns="http://www.w3.org/2000/svg">
<rect width="450" height="300" fill="white"/>
<path d="M130 150H260C260 177.453 251.309 204.202 235.172 226.412C219.036 248.622 196.282 265.154 170.172 273.637L130 150Z" fill="url(#paint0_linear_55_121)"/>
<path d="M130 150L170.172 273.637C144.063 282.121 115.937 282.121 89.8278 273.637C63.7181 265.154 40.9644 248.622 24.8278 226.412L130 150Z" fill="url(#paint1_linear_55_121)"/>
<path d="M130 150L24.8278 226.412C8.69114 204.202 0 177.453 0 150C0 122.547 8.69114 95.7981 24.8278 73.5879L130 150Z" fill="url(#paint2_linear_55_121)"/>
<path d="M130 150L24.8278 73.5879C40.9644 51.3777 63.7181 34.8462 89.8278 26.3627C115.937 17.8791 144.063 17.8791 170.172 26.3627L130 150Z" fill="url(#paint3_linear_55_121)"/>
<path d="M130 150L170.172 26.3627C196.282 34.8462 219.036 51.3777 235.172 73.5879C251.309 95.7981 260 122.547 260 150H130Z" fill="url(#paint4_linear_55_121)"/>
<path d="M130 215C165.899 215 195 185.899 195 150C195 114.101 165.899 85 130 85C94.1015 85 65 114.101 65 150C65 185.899 94.1015 215 130 215Z" fill="white"/>
<path d="M113.488 137.168C113.893 136.955 114.352 136.933 114.864 137.104C115.376 137.275 115.707 137.563 115.856 137.968C115.941 138.181 116.016 138.363 116.08 138.512C116.144 138.64 116.208 138.832 116.272 139.088C116.336 139.344 116.411 139.6 116.496 139.856C116.709 140.475 116.88 141.019 117.008 141.488C117.093 141.808 117.179 142.043 117.264 142.192C117.328 142.32 117.392 142.48 117.456 142.672C117.499 142.843 117.563 143.003 117.648 143.152C117.712 143.28 117.776 143.451 117.84 143.664C117.883 143.835 117.947 144.027 118.032 144.24C118.139 144.453 118.203 144.635 118.224 144.784C118.245 144.955 118.309 145.136 118.416 145.328C118.523 145.52 118.597 145.712 118.64 145.904C118.683 146.096 118.736 146.235 118.8 146.32C118.949 146.491 119.024 146.715 119.024 146.992C119.024 147.12 119.067 147.28 119.152 147.472C119.259 147.643 119.344 147.835 119.408 148.048C119.451 148.24 119.504 148.4 119.568 148.528C119.653 148.635 119.728 148.837 119.792 149.136C119.856 149.392 119.931 149.584 120.016 149.712C120.101 149.861 120.165 150.043 120.208 150.256C120.251 150.448 120.315 150.661 120.4 150.896C120.507 151.109 120.581 151.301 120.624 151.472C120.645 151.621 120.699 151.771 120.784 151.92C120.869 152.048 120.933 152.197 120.976 152.368C120.997 152.56 121.061 152.752 121.168 152.944C121.275 153.157 121.349 153.381 121.392 153.616C121.435 153.829 121.488 154.032 121.552 154.224C121.637 154.373 121.701 154.565 121.744 154.8C121.808 155.035 121.893 155.28 122 155.536C122.085 155.749 122.139 156.101 122.16 156.592C122.181 157.083 122.149 157.403 122.064 157.552C121.744 158.192 121.221 158.512 120.496 158.512C119.984 158.512 119.579 158.363 119.28 158.064C118.981 157.765 118.747 157.275 118.576 156.592C118.341 155.717 118.085 154.939 117.808 154.256C117.701 153.936 117.595 153.627 117.488 153.328C117.445 153.2 117.392 153.019 117.328 152.784C117.072 152.037 116.848 151.6 116.656 151.472C116.485 151.344 115.973 151.291 115.12 151.312C114.864 151.312 114.661 151.312 114.512 151.312C112.677 151.291 111.739 151.312 111.696 151.376C111.653 151.397 111.6 151.6 111.536 151.984C111.472 152.368 111.408 152.645 111.344 152.816C111.259 153.029 111.205 153.211 111.184 153.36C111.099 153.829 110.885 154.448 110.544 155.216C110.437 155.429 110.373 155.611 110.352 155.76C110.331 155.888 110.267 156.048 110.16 156.24C110.075 156.432 110.011 156.656 109.968 156.912C109.861 157.488 109.595 157.925 109.168 158.224C108.699 158.544 108.155 158.608 107.536 158.416C106.917 158.224 106.533 157.883 106.384 157.392C106.299 157.115 106.277 156.709 106.32 156.176C106.384 155.643 106.48 155.312 106.608 155.184C106.672 155.12 106.736 155.003 106.8 154.832C106.864 154.64 106.928 154.491 106.992 154.384C107.077 154.256 107.141 154.085 107.184 153.872C107.248 153.616 107.301 153.456 107.344 153.392C107.408 153.285 107.493 153.051 107.6 152.688C107.685 152.347 107.76 152.101 107.824 151.952C107.888 151.845 107.941 151.653 107.984 151.376C108.048 151.077 108.112 150.864 108.176 150.736C108.24 150.608 108.304 150.32 108.368 149.872C108.432 149.424 108.496 149.136 108.56 149.008C108.624 148.837 108.699 148.592 108.784 148.272C108.997 147.568 109.179 147.024 109.328 146.64C109.413 146.448 109.488 146.203 109.552 145.904C109.637 145.584 109.712 145.381 109.776 145.296C109.84 145.211 109.904 145.04 109.968 144.784C110.053 144.528 110.117 144.357 110.16 144.272C110.224 144.187 110.288 144.016 110.352 143.76C110.416 143.483 110.48 143.301 110.544 143.216C110.608 143.131 110.661 142.971 110.704 142.736C110.747 142.501 110.821 142.288 110.928 142.096C111.141 141.584 111.323 141.115 111.472 140.688C111.557 140.411 111.643 140.208 111.728 140.08C111.792 139.931 111.867 139.728 111.952 139.472C112.037 139.195 112.101 139.045 112.144 139.024C112.165 139.003 112.219 138.885 112.304 138.672C112.539 137.947 112.933 137.445 113.488 137.168ZM114.192 144.272C114.064 144.123 113.957 144.187 113.872 144.464C113.829 144.656 113.765 144.827 113.68 144.976C113.616 145.083 113.563 145.264 113.52 145.52C113.499 145.776 113.435 146.032 113.328 146.288C113.2 146.544 113.136 146.715 113.136 146.8C113.136 146.864 113.104 146.96 113.04 147.088C112.933 147.323 113.008 147.461 113.264 147.504C113.456 147.547 113.819 147.568 114.352 147.568C114.843 147.568 115.12 147.547 115.184 147.504C115.269 147.44 115.269 147.291 115.184 147.056C115.099 146.8 115.056 146.64 115.056 146.576C115.056 146.512 115.013 146.395 114.928 146.224C114.757 145.883 114.576 145.392 114.384 144.752C114.277 144.453 114.213 144.293 114.192 144.272ZM132.837 137.392C133.007 137.328 133.221 137.307 133.477 137.328C133.733 137.328 133.903 137.36 133.989 137.424C134.095 137.509 134.17 137.552 134.213 137.552C134.298 137.552 134.426 137.669 134.597 137.904C134.767 138.139 134.863 138.32 134.885 138.448C134.906 138.619 134.959 138.821 135.045 139.056C135.13 139.291 135.173 142.32 135.173 148.144C135.194 153.947 135.162 156.933 135.077 157.104C134.991 157.232 134.927 157.349 134.885 157.456C134.778 157.648 134.511 157.829 134.085 158C133.679 158.171 133.274 158.256 132.869 158.256C132.634 158.256 132.357 158.288 132.037 158.352C131.738 158.437 130.991 158.48 129.797 158.48C128.623 158.501 127.898 158.48 127.621 158.416C127.429 158.352 127.119 158.277 126.693 158.192C126.245 158.064 125.658 157.797 124.933 157.392C124.229 156.965 123.877 156.667 123.877 156.496C123.877 156.475 123.791 156.368 123.621 156.176C123.45 155.963 123.365 155.824 123.365 155.76C123.365 155.696 123.311 155.6 123.205 155.472C123.034 155.259 122.906 154.757 122.821 153.968C122.757 153.157 122.767 152.485 122.853 151.952C122.895 151.739 122.938 151.483 122.981 151.184C123.023 150.885 123.087 150.683 123.173 150.576C123.258 150.448 123.333 150.299 123.397 150.128C123.631 149.488 124.186 148.848 125.061 148.208C125.935 147.547 126.821 147.131 127.717 146.96C128.058 146.896 128.303 146.832 128.453 146.768C128.623 146.704 129.178 146.661 130.117 146.64C131.055 146.619 131.557 146.587 131.621 146.544C131.706 146.501 131.749 145.136 131.749 142.448C131.749 140.421 131.759 139.227 131.781 138.864C131.802 138.501 131.866 138.245 131.973 138.096C132.186 137.733 132.474 137.499 132.837 137.392ZM131.589 150.384C131.503 150.299 131.407 150.256 131.301 150.256C131.194 150.235 130.821 150.213 130.181 150.192C129.37 150.192 128.901 150.213 128.773 150.256C127.877 150.491 127.247 150.768 126.885 151.088C126.522 151.408 126.309 151.856 126.245 152.432C126.138 153.499 126.287 154.192 126.693 154.512C127.119 154.811 128.133 154.96 129.733 154.96C129.882 154.96 130.074 154.96 130.309 154.96C131.055 154.981 131.482 154.928 131.589 154.8C131.717 154.672 131.781 154.245 131.781 153.52C131.781 153.285 131.781 153.104 131.781 152.976C131.802 151.931 131.802 151.269 131.781 150.992C131.759 150.715 131.695 150.512 131.589 150.384ZM147.243 145.904C147.585 145.797 148.097 145.733 148.779 145.712C149.483 145.691 149.953 145.723 150.187 145.808C150.251 145.851 150.443 145.925 150.763 146.032C151.062 146.139 151.435 146.395 151.883 146.8C152.353 147.205 152.63 147.515 152.715 147.728C152.779 147.877 152.843 147.995 152.907 148.08C152.993 148.165 153.067 148.347 153.131 148.624C153.195 148.901 153.281 149.147 153.387 149.36C153.515 149.595 153.579 150.768 153.579 152.88C153.579 154.971 153.526 156.176 153.419 156.496C153.334 156.752 153.291 156.923 153.291 157.008C153.291 157.541 153.014 157.957 152.459 158.256C151.905 158.576 151.371 158.608 150.859 158.352C150.155 158.053 149.825 157.509 149.867 156.72C149.953 155.184 150.049 154.267 150.155 153.968C150.241 153.733 150.283 153.264 150.283 152.56C150.305 151.835 150.273 151.365 150.187 151.152C150.123 150.981 150.059 150.736 149.995 150.416C149.91 149.947 149.782 149.627 149.611 149.456C149.441 149.285 149.174 149.2 148.811 149.2C148.022 149.2 147.329 149.573 146.731 150.32C146.582 150.512 146.497 150.757 146.475 151.056C146.454 151.333 146.443 152.272 146.443 153.872V156.88L146.219 157.2C145.921 157.669 145.483 157.936 144.907 158C144.331 158.064 143.862 157.904 143.499 157.52C143.243 157.243 143.094 156.987 143.051 156.752C143.009 156.517 142.977 155.685 142.955 154.256C142.934 152.869 142.902 151.995 142.859 151.632C142.838 151.248 142.763 150.885 142.635 150.544C142.23 149.541 141.633 149.339 140.843 149.936C140.459 150.213 140.203 150.437 140.075 150.608C139.969 150.779 139.894 151.013 139.851 151.312C139.787 151.589 139.713 151.824 139.627 152.016C139.542 152.187 139.489 152.379 139.467 152.592C139.467 152.784 139.467 153.392 139.467 154.416C139.467 155.611 139.446 156.357 139.403 156.656C139.361 156.933 139.243 157.168 139.051 157.36C138.71 157.744 138.294 157.936 137.803 157.936C137.313 157.936 136.886 157.755 136.523 157.392C136.289 157.179 136.15 156.901 136.107 156.56C136.086 156.219 136.065 155.024 136.043 152.976C136.001 150.523 135.958 149.211 135.915 149.04C135.83 148.72 135.83 148.357 135.915 147.952C136.022 147.525 136.193 147.205 136.427 146.992C136.577 146.864 136.833 146.768 137.195 146.704C137.558 146.64 137.835 146.651 138.027 146.736C138.646 146.971 139.105 146.96 139.403 146.704C139.638 146.491 140.043 146.331 140.619 146.224C141.195 146.096 141.707 146.053 142.155 146.096C142.539 146.16 142.987 146.309 143.499 146.544C144.033 146.757 144.342 146.949 144.427 147.12C144.577 147.333 144.769 147.333 145.003 147.12C145.473 146.672 146.219 146.267 147.243 145.904Z" fill="black"/>
<path d="M317 70H303C301.343 70 300 71.3431 300 73V87C300 88.6569 301.343 90 303 90H317C318.657 90 320 88.6569 320 87V73C320 71.3431 318.657 70 317 70Z" fill="url(#paint5_linear_55_121)"/>
<path d="M325.949 84V75.4102H332.16V76.4238H327.086V79.0547H331.838V80.0625H327.086V82.9863H332.359V84H325.949ZM333.918 84V75.4102H335.084L339.596 82.1543V75.4102H340.686V84H339.52L335.008 77.25V84H333.918ZM342.66 84V75.4102H348.455V76.4238H343.797V79.084H347.828V80.0977H343.797V84H342.66ZM349.938 84V75.4102H353.178C353.748 75.4102 354.184 75.4375 354.484 75.4922C354.906 75.5625 355.26 75.6973 355.545 75.8965C355.83 76.0918 356.059 76.3672 356.23 76.7227C356.406 77.0781 356.494 77.4688 356.494 77.8945C356.494 78.625 356.262 79.2441 355.797 79.752C355.332 80.2559 354.492 80.5078 353.277 80.5078H351.074V84H349.938ZM351.074 79.4941H353.295C354.029 79.4941 354.551 79.3574 354.859 79.084C355.168 78.8105 355.322 78.4258 355.322 77.9297C355.322 77.5703 355.23 77.2637 355.047 77.0098C354.867 76.752 354.629 76.582 354.332 76.5C354.141 76.4492 353.787 76.4238 353.271 76.4238H351.074V79.4941ZM358.1 78.9785V77.7773H359.301V78.9785H358.1ZM358.1 84V82.7988H359.301V84H358.1ZM368.166 84H367.111V77.2793C366.857 77.5215 366.523 77.7637 366.109 78.0059C365.699 78.248 365.33 78.4297 365.002 78.5508V77.5312C365.592 77.2539 366.107 76.918 366.549 76.5234C366.99 76.1289 367.303 75.7461 367.486 75.375H368.166V84ZM376.147 75.84H379.279V76.644H376.147V75.84ZM376.147 77.988H379.303V78.804H376.147V77.988ZM378.907 74.076H379.903V80.496H378.907V74.076ZM371.479 74.904H376.423V79.728H371.479V74.904ZM375.451 75.708H372.451V78.924H375.451V75.708ZM376.327 80.82C377.447 80.82 378.327 81 378.967 81.36C379.615 81.72 379.939 82.224 379.939 82.872C379.939 83.52 379.615 84.02 378.967 84.372C378.327 84.732 377.447 84.912 376.327 84.912C375.207 84.912 374.323 84.732 373.675 84.372C373.035 84.02 372.715 83.52 372.715 82.872C372.715 82.224 373.035 81.72 373.675 81.36C374.323 81 375.207 80.82 376.327 80.82ZM376.327 81.6C375.783 81.6 375.315 81.652 374.923 81.756C374.531 81.852 374.227 81.996 374.011 82.188C373.803 82.372 373.699 82.6 373.699 82.872C373.699 83.128 373.803 83.352 374.011 83.544C374.227 83.728 374.531 83.872 374.923 83.976C375.315 84.08 375.783 84.132 376.327 84.132C376.879 84.132 377.347 84.08 377.731 83.976C378.123 83.872 378.423 83.728 378.631 83.544C378.847 83.352 378.955 83.128 378.955 82.872C378.955 82.6 378.847 82.372 378.631 82.188C378.423 81.996 378.123 81.852 377.731 81.756C377.347 81.652 376.879 81.6 376.327 81.6ZM387.561 86.5254C386.979 85.791 386.486 84.9316 386.084 83.9473C385.682 82.9629 385.48 81.9434 385.48 80.8887C385.48 79.959 385.631 79.0684 385.932 78.2168C386.283 77.2285 386.826 76.2441 387.561 75.2637H388.316C387.844 76.0762 387.531 76.6562 387.379 77.0039C387.141 77.543 386.953 78.1055 386.816 78.6914C386.648 79.4219 386.564 80.1562 386.564 80.8945C386.564 82.7734 387.148 84.6504 388.316 86.5254H387.561ZM394.791 82.9863V84H389.113C389.105 83.7461 389.146 83.502 389.236 83.2676C389.381 82.8809 389.611 82.5 389.928 82.125C390.248 81.75 390.709 81.3164 391.311 80.8242C392.244 80.0586 392.875 79.4531 393.203 79.0078C393.531 78.5586 393.695 78.1348 393.695 77.7363C393.695 77.3184 393.545 76.9668 393.244 76.6816C392.947 76.3926 392.559 76.248 392.078 76.248C391.57 76.248 391.164 76.4004 390.859 76.7051C390.555 77.0098 390.4 77.4316 390.396 77.9707L389.312 77.8594C389.387 77.0508 389.666 76.4355 390.15 76.0137C390.635 75.5879 391.285 75.375 392.102 75.375C392.926 75.375 393.578 75.6035 394.059 76.0605C394.539 76.5176 394.779 77.084 394.779 77.7598C394.779 78.1035 394.709 78.4414 394.568 78.7734C394.428 79.1055 394.193 79.4551 393.865 79.8223C393.541 80.1895 393 80.6934 392.242 81.334C391.609 81.8652 391.203 82.2266 391.023 82.418C390.844 82.6055 390.695 82.7949 390.578 82.9863H394.791ZM395.928 79.7637C395.928 78.748 396.031 77.9316 396.238 77.3145C396.449 76.6934 396.76 76.2148 397.17 75.8789C397.584 75.543 398.104 75.375 398.729 75.375C399.189 75.375 399.594 75.4688 399.941 75.6562C400.289 75.8398 400.576 76.1074 400.803 76.459C401.029 76.8066 401.207 77.2324 401.336 77.7363C401.465 78.2363 401.529 78.9121 401.529 79.7637C401.529 80.7715 401.426 81.5859 401.219 82.207C401.012 82.8242 400.701 83.3027 400.287 83.6426C399.877 83.9785 399.357 84.1465 398.729 84.1465C397.9 84.1465 397.25 83.8496 396.777 83.2559C396.211 82.541 395.928 81.377 395.928 79.7637ZM397.012 79.7637C397.012 81.1738 397.176 82.1133 397.504 82.582C397.836 83.0469 398.244 83.2793 398.729 83.2793C399.213 83.2793 399.619 83.0449 399.947 82.5762C400.279 82.1074 400.445 81.1699 400.445 79.7637C400.445 78.3496 400.279 77.4102 399.947 76.9453C399.619 76.4805 399.209 76.248 398.717 76.248C398.232 76.248 397.846 76.4531 397.557 76.8633C397.193 77.3867 397.012 78.3535 397.012 79.7637ZM403.199 84V82.7988H404.4V84H403.199ZM405.947 79.7637C405.947 78.748 406.051 77.9316 406.258 77.3145C406.469 76.6934 406.779 76.2148 407.189 75.8789C407.604 75.543 408.123 75.375 408.748 75.375C409.209 75.375 409.613 75.4688 409.961 75.6562C410.309 75.8398 410.596 76.1074 410.822 76.459C411.049 76.8066 411.227 77.2324 411.355 77.7363C411.484 78.2363 411.549 78.9121 411.549 79.7637C411.549 80.7715 411.445 81.5859 411.238 82.207C411.031 82.8242 410.721 83.3027 410.307 83.6426C409.896 83.9785 409.377 84.1465 408.748 84.1465C407.92 84.1465 407.27 83.8496 406.797 83.2559C406.23 82.541 405.947 81.377 405.947 79.7637ZM407.031 79.7637C407.031 81.1738 407.195 82.1133 407.523 82.582C407.855 83.0469 408.264 83.2793 408.748 83.2793C409.232 83.2793 409.639 83.0449 409.967 82.5762C410.299 82.1074 410.465 81.1699 410.465 79.7637C410.465 78.3496 410.299 77.4102 409.967 76.9453C409.639 76.4805 409.229 76.248 408.736 76.248C408.252 76.248 407.865 76.4531 407.576 76.8633C407.213 77.3867 407.031 78.3535 407.031 79.7637ZM412.826 77.4727C412.826 76.8594 412.98 76.3379 413.289 75.9082C413.598 75.4785 414.045 75.2637 414.631 75.2637C415.17 75.2637 415.615 75.457 415.967 75.8438C416.322 76.2266 416.5 76.791 416.5 77.5371C416.5 78.2637 416.32 78.8242 415.961 79.2188C415.605 79.6094 415.166 79.8047 414.643 79.8047C414.123 79.8047 413.689 79.6113 413.342 79.2246C412.998 78.8379 412.826 78.2539 412.826 77.4727ZM414.66 75.9902C414.398 75.9902 414.18 76.1035 414.004 76.3301C413.832 76.5566 413.746 76.9727 413.746 77.5781C413.746 78.1289 413.834 78.5176 414.01 78.7441C414.186 78.9668 414.402 79.0781 414.66 79.0781C414.926 79.0781 415.145 78.9648 415.316 78.7383C415.492 78.5117 415.58 78.0977 415.58 77.4961C415.58 76.9414 415.492 76.5527 415.316 76.3301C415.141 76.1035 414.922 75.9902 414.66 75.9902ZM414.666 84.3164L419.365 75.2637H420.221L415.539 84.3164H414.666ZM418.381 81.9844C418.381 81.3672 418.535 80.8457 418.844 80.4199C419.152 79.9902 419.602 79.7754 420.191 79.7754C420.73 79.7754 421.176 79.9688 421.527 80.3555C421.883 80.7383 422.061 81.3027 422.061 82.0488C422.061 82.7754 421.881 83.3359 421.521 83.7305C421.166 84.1211 420.725 84.3164 420.197 84.3164C419.678 84.3164 419.244 84.123 418.896 83.7363C418.553 83.3457 418.381 82.7617 418.381 81.9844ZM420.221 80.502C419.955 80.502 419.734 80.6152 419.559 80.8418C419.387 81.0684 419.301 81.4844 419.301 82.0898C419.301 82.6367 419.389 83.0234 419.564 83.25C419.74 83.4766 419.957 83.5898 420.215 83.5898C420.484 83.5898 420.705 83.4766 420.877 83.25C421.053 83.0234 421.141 82.6094 421.141 82.0078C421.141 81.4531 421.053 81.0645 420.877 80.8418C420.701 80.6152 420.482 80.502 420.221 80.502ZM424.287 86.5254H423.531C424.699 84.6504 425.283 82.7734 425.283 80.8945C425.283 80.1602 425.199 79.4316 425.031 78.709C424.898 78.123 424.713 77.5605 424.475 77.0215C424.322 76.6699 424.008 76.084 423.531 75.2637H424.287C425.021 76.2441 425.564 77.2285 425.916 78.2168C426.217 79.0684 426.367 79.959 426.367 80.8887C426.367 81.9434 426.164 82.9629 425.758 83.9473C425.355 84.9316 424.865 85.791 424.287 86.5254Z" fill="black"/>
<path d="M317 98H303C301.343 98 300 99.3431 300 101V115C300 116.657 301.343 118 303 118H317C318.657 118 320 116.657 320 115V101C320 99.3431 318.657 98 317 98Z" fill="url(#paint6_linear_55_121)"/>
<path d="M325.949 112V103.41H332.16V104.424H327.086V107.055H331.838V108.062H327.086V110.986H332.359V112H325.949ZM333.918 112V103.41H335.084L339.596 110.154V103.41H340.686V112H339.52L335.008 105.25V112H333.918ZM344.787 112V104.424H341.957V103.41H348.766V104.424H345.924V112H344.787ZM349.357 109.562L350.383 109.422C350.41 110.078 350.533 110.527 350.752 110.77C350.971 111.012 351.273 111.133 351.66 111.133C351.945 111.133 352.191 111.068 352.398 110.939C352.605 110.807 352.748 110.629 352.826 110.406C352.904 110.18 352.943 109.82 352.943 109.328V103.41H354.08V109.264C354.08 109.982 353.992 110.539 353.816 110.934C353.645 111.328 353.369 111.629 352.99 111.836C352.615 112.043 352.174 112.146 351.666 112.146C350.912 112.146 350.334 111.93 349.932 111.496C349.533 111.062 349.342 110.418 349.357 109.562ZM356.096 106.979V105.777H357.297V106.979H356.096ZM356.096 112V110.799H357.297V112H356.096ZM366.162 112H365.107V105.279C364.854 105.521 364.52 105.764 364.105 106.006C363.695 106.248 363.326 106.43 362.998 106.551V105.531C363.588 105.254 364.104 104.918 364.545 104.523C364.986 104.129 365.299 103.746 365.482 103.375H366.162V112ZM374.143 103.84H377.275V104.644H374.143V103.84ZM374.143 105.988H377.299V106.804H374.143V105.988ZM376.903 102.076H377.899V108.496H376.903V102.076ZM369.475 102.904H374.419V107.728H369.475V102.904ZM373.447 103.708H370.447V106.924H373.447V103.708ZM374.323 108.82C375.443 108.82 376.323 109 376.963 109.36C377.611 109.72 377.935 110.224 377.935 110.872C377.935 111.52 377.611 112.02 376.963 112.372C376.323 112.732 375.443 112.912 374.323 112.912C373.203 112.912 372.319 112.732 371.671 112.372C371.031 112.02 370.711 111.52 370.711 110.872C370.711 110.224 371.031 109.72 371.671 109.36C372.319 109 373.203 108.82 374.323 108.82ZM374.323 109.6C373.779 109.6 373.311 109.652 372.919 109.756C372.527 109.852 372.223 109.996 372.007 110.188C371.799 110.372 371.695 110.6 371.695 110.872C371.695 111.128 371.799 111.352 372.007 111.544C372.223 111.728 372.527 111.872 372.919 111.976C373.311 112.08 373.779 112.132 374.323 112.132C374.875 112.132 375.343 112.08 375.727 111.976C376.119 111.872 376.419 111.728 376.627 111.544C376.843 111.352 376.951 111.128 376.951 110.872C376.951 110.6 376.843 110.372 376.627 110.188C376.419 109.996 376.119 109.852 375.727 109.756C375.343 109.652 374.875 109.6 374.323 109.6ZM385.557 114.525C384.975 113.791 384.482 112.932 384.08 111.947C383.678 110.963 383.477 109.943 383.477 108.889C383.477 107.959 383.627 107.068 383.928 106.217C384.279 105.229 384.822 104.244 385.557 103.264H386.312C385.84 104.076 385.527 104.656 385.375 105.004C385.137 105.543 384.949 106.105 384.812 106.691C384.645 107.422 384.561 108.156 384.561 108.895C384.561 110.773 385.145 112.65 386.312 114.525H385.557ZM392.787 110.986V112H387.109C387.102 111.746 387.143 111.502 387.232 111.268C387.377 110.881 387.607 110.5 387.924 110.125C388.244 109.75 388.705 109.316 389.307 108.824C390.24 108.059 390.871 107.453 391.199 107.008C391.527 106.559 391.691 106.135 391.691 105.736C391.691 105.318 391.541 104.967 391.24 104.682C390.943 104.393 390.555 104.248 390.074 104.248C389.566 104.248 389.16 104.4 388.855 104.705C388.551 105.01 388.396 105.432 388.393 105.971L387.309 105.859C387.383 105.051 387.662 104.436 388.146 104.014C388.631 103.588 389.281 103.375 390.098 103.375C390.922 103.375 391.574 103.604 392.055 104.061C392.535 104.518 392.775 105.084 392.775 105.76C392.775 106.104 392.705 106.441 392.564 106.773C392.424 107.105 392.189 107.455 391.861 107.822C391.537 108.189 390.996 108.693 390.238 109.334C389.605 109.865 389.199 110.227 389.02 110.418C388.84 110.605 388.691 110.795 388.574 110.986H392.787ZM393.924 107.764C393.924 106.748 394.027 105.932 394.234 105.314C394.445 104.693 394.756 104.215 395.166 103.879C395.58 103.543 396.1 103.375 396.725 103.375C397.186 103.375 397.59 103.469 397.938 103.656C398.285 103.84 398.572 104.107 398.799 104.459C399.025 104.807 399.203 105.232 399.332 105.736C399.461 106.236 399.525 106.912 399.525 107.764C399.525 108.771 399.422 109.586 399.215 110.207C399.008 110.824 398.697 111.303 398.283 111.643C397.873 111.979 397.354 112.146 396.725 112.146C395.896 112.146 395.246 111.85 394.773 111.256C394.207 110.541 393.924 109.377 393.924 107.764ZM395.008 107.764C395.008 109.174 395.172 110.113 395.5 110.582C395.832 111.047 396.24 111.279 396.725 111.279C397.209 111.279 397.615 111.045 397.943 110.576C398.275 110.107 398.441 109.17 398.441 107.764C398.441 106.35 398.275 105.41 397.943 104.945C397.615 104.48 397.205 104.248 396.713 104.248C396.229 104.248 395.842 104.453 395.553 104.863C395.189 105.387 395.008 106.354 395.008 107.764ZM401.195 112V110.799H402.396V112H401.195ZM403.943 107.764C403.943 106.748 404.047 105.932 404.254 105.314C404.465 104.693 404.775 104.215 405.186 103.879C405.6 103.543 406.119 103.375 406.744 103.375C407.205 103.375 407.609 103.469 407.957 103.656C408.305 103.84 408.592 104.107 408.818 104.459C409.045 104.807 409.223 105.232 409.352 105.736C409.48 106.236 409.545 106.912 409.545 107.764C409.545 108.771 409.441 109.586 409.234 110.207C409.027 110.824 408.717 111.303 408.303 111.643C407.893 111.979 407.373 112.146 406.744 112.146C405.916 112.146 405.266 111.85 404.793 111.256C404.227 110.541 403.943 109.377 403.943 107.764ZM405.027 107.764C405.027 109.174 405.191 110.113 405.52 110.582C405.852 111.047 406.26 111.279 406.744 111.279C407.229 111.279 407.635 111.045 407.963 110.576C408.295 110.107 408.461 109.17 408.461 107.764C408.461 106.35 408.295 105.41 407.963 104.945C407.635 104.48 407.225 104.248 406.732 104.248C406.248 104.248 405.861 104.453 405.572 104.863C405.209 105.387 405.027 106.354 405.027 107.764ZM410.822 105.473C410.822 104.859 410.977 104.338 411.285 103.908C411.594 103.479 412.041 103.264 412.627 103.264C413.166 103.264 413.611 103.457 413.963 103.844C414.318 104.227 414.496 104.791 414.496 105.537C414.496 106.264 414.316 106.824 413.957 107.219C413.602 107.609 413.162 107.805 412.639 107.805C412.119 107.805 411.686 107.611 411.338 107.225C410.994 106.838 410.822 106.254 410.822 105.473ZM412.656 103.99C412.395 103.99 412.176 104.104 412 104.33C411.828 104.557 411.742 104.973 411.742 105.578C411.742 106.129 411.83 106.518 412.006 106.744C412.182 106.967 412.398 107.078 412.656 107.078C412.922 107.078 413.141 106.965 413.312 106.738C413.488 106.512 413.576 106.098 413.576 105.496C413.576 104.941 413.488 104.553 413.312 104.33C413.137 104.104 412.918 103.99 412.656 103.99ZM412.662 112.316L417.361 103.264H418.217L413.535 112.316H412.662ZM416.377 109.984C416.377 109.367 416.531 108.846 416.84 108.42C417.148 107.99 417.598 107.775 418.188 107.775C418.727 107.775 419.172 107.969 419.523 108.355C419.879 108.738 420.057 109.303 420.057 110.049C420.057 110.775 419.877 111.336 419.518 111.73C419.162 112.121 418.721 112.316 418.193 112.316C417.674 112.316 417.24 112.123 416.893 111.736C416.549 111.346 416.377 110.762 416.377 109.984ZM418.217 108.502C417.951 108.502 417.73 108.615 417.555 108.842C417.383 109.068 417.297 109.484 417.297 110.09C417.297 110.637 417.385 111.023 417.561 111.25C417.736 111.477 417.953 111.59 418.211 111.59C418.48 111.59 418.701 111.477 418.873 111.25C419.049 111.023 419.137 110.609 419.137 110.008C419.137 109.453 419.049 109.064 418.873 108.842C418.697 108.615 418.479 108.502 418.217 108.502ZM422.283 114.525H421.527C422.695 112.65 423.279 110.773 423.279 108.895C423.279 108.16 423.195 107.432 423.027 106.709C422.895 106.123 422.709 105.561 422.471 105.021C422.318 104.67 422.004 104.084 421.527 103.264H422.283C423.018 104.244 423.561 105.229 423.912 106.217C424.213 107.068 424.363 107.959 424.363 108.889C424.363 109.943 424.16 110.963 423.754 111.947C423.352 112.932 422.861 113.791 422.283 114.525Z" fill="black"/>
<path d="M317 126H303C301.343 126 300 127.343 300 129V143C300 144.657 301.343 146 303 146H317C318.657 146 320 144.657 320 143V129C320 127.343 318.657 126 317 126Z" fill="url(#paint7_linear_55_121)"/>
<path d="M326.119 140V131.41H327.256V140H326.119ZM329.254 140V131.41H330.42L334.932 138.154V131.41H336.021V140H334.855L330.344 133.25V140H329.254ZM340.123 140V132.424H337.293V131.41H344.102V132.424H341.26V140H340.123ZM344.693 137.562L345.719 137.422C345.746 138.078 345.869 138.527 346.088 138.77C346.307 139.012 346.609 139.133 346.996 139.133C347.281 139.133 347.527 139.068 347.734 138.939C347.941 138.807 348.084 138.629 348.162 138.406C348.24 138.18 348.279 137.82 348.279 137.328V131.41H349.416V137.264C349.416 137.982 349.328 138.539 349.152 138.934C348.98 139.328 348.705 139.629 348.326 139.836C347.951 140.043 347.51 140.146 347.002 140.146C346.248 140.146 345.67 139.93 345.268 139.496C344.869 139.062 344.678 138.418 344.693 137.562ZM351.432 134.979V133.777H352.633V134.979H351.432ZM351.432 140V138.799H352.633V140H351.432ZM361.498 140H360.443V133.279C360.189 133.521 359.855 133.764 359.441 134.006C359.031 134.248 358.662 134.43 358.334 134.551V133.531C358.924 133.254 359.439 132.918 359.881 132.523C360.322 132.129 360.635 131.746 360.818 131.375H361.498V140ZM369.479 131.84H372.611V132.644H369.479V131.84ZM369.479 133.988H372.635V134.804H369.479V133.988ZM372.239 130.076H373.235V136.496H372.239V130.076ZM364.811 130.904H369.755V135.728H364.811V130.904ZM368.783 131.708H365.783V134.924H368.783V131.708ZM369.659 136.82C370.779 136.82 371.659 137 372.299 137.36C372.947 137.72 373.271 138.224 373.271 138.872C373.271 139.52 372.947 140.02 372.299 140.372C371.659 140.732 370.779 140.912 369.659 140.912C368.539 140.912 367.655 140.732 367.007 140.372C366.367 140.02 366.047 139.52 366.047 138.872C366.047 138.224 366.367 137.72 367.007 137.36C367.655 137 368.539 136.82 369.659 136.82ZM369.659 137.6C369.115 137.6 368.647 137.652 368.255 137.756C367.863 137.852 367.559 137.996 367.343 138.188C367.135 138.372 367.031 138.6 367.031 138.872C367.031 139.128 367.135 139.352 367.343 139.544C367.559 139.728 367.863 139.872 368.255 139.976C368.647 140.08 369.115 140.132 369.659 140.132C370.211 140.132 370.679 140.08 371.063 139.976C371.455 139.872 371.755 139.728 371.963 139.544C372.179 139.352 372.287 139.128 372.287 138.872C372.287 138.6 372.179 138.372 371.963 138.188C371.755 137.996 371.455 137.852 371.063 137.756C370.679 137.652 370.211 137.6 369.659 137.6ZM380.893 142.525C380.311 141.791 379.818 140.932 379.416 139.947C379.014 138.963 378.812 137.943 378.812 136.889C378.812 135.959 378.963 135.068 379.264 134.217C379.615 133.229 380.158 132.244 380.893 131.264H381.648C381.176 132.076 380.863 132.656 380.711 133.004C380.473 133.543 380.285 134.105 380.148 134.691C379.98 135.422 379.896 136.156 379.896 136.895C379.896 138.773 380.48 140.65 381.648 142.525H380.893ZM388.123 138.986V140H382.445C382.438 139.746 382.479 139.502 382.568 139.268C382.713 138.881 382.943 138.5 383.26 138.125C383.58 137.75 384.041 137.316 384.643 136.824C385.576 136.059 386.207 135.453 386.535 135.008C386.863 134.559 387.027 134.135 387.027 133.736C387.027 133.318 386.877 132.967 386.576 132.682C386.279 132.393 385.891 132.248 385.41 132.248C384.902 132.248 384.496 132.4 384.191 132.705C383.887 133.01 383.732 133.432 383.729 133.971L382.645 133.859C382.719 133.051 382.998 132.436 383.482 132.014C383.967 131.588 384.617 131.375 385.434 131.375C386.258 131.375 386.91 131.604 387.391 132.061C387.871 132.518 388.111 133.084 388.111 133.76C388.111 134.104 388.041 134.441 387.9 134.773C387.76 135.105 387.525 135.455 387.197 135.822C386.873 136.189 386.332 136.693 385.574 137.334C384.941 137.865 384.535 138.227 384.355 138.418C384.176 138.605 384.027 138.795 383.91 138.986H388.123ZM389.26 135.764C389.26 134.748 389.363 133.932 389.57 133.314C389.781 132.693 390.092 132.215 390.502 131.879C390.916 131.543 391.436 131.375 392.061 131.375C392.521 131.375 392.926 131.469 393.273 131.656C393.621 131.84 393.908 132.107 394.135 132.459C394.361 132.807 394.539 133.232 394.668 133.736C394.797 134.236 394.861 134.912 394.861 135.764C394.861 136.771 394.758 137.586 394.551 138.207C394.344 138.824 394.033 139.303 393.619 139.643C393.209 139.979 392.689 140.146 392.061 140.146C391.232 140.146 390.582 139.85 390.109 139.256C389.543 138.541 389.26 137.377 389.26 135.764ZM390.344 135.764C390.344 137.174 390.508 138.113 390.836 138.582C391.168 139.047 391.576 139.279 392.061 139.279C392.545 139.279 392.951 139.045 393.279 138.576C393.611 138.107 393.777 137.17 393.777 135.764C393.777 134.35 393.611 133.41 393.279 132.945C392.951 132.48 392.541 132.248 392.049 132.248C391.564 132.248 391.178 132.453 390.889 132.863C390.525 133.387 390.344 134.354 390.344 135.764ZM396.531 140V138.799H397.732V140H396.531ZM399.279 135.764C399.279 134.748 399.383 133.932 399.59 133.314C399.801 132.693 400.111 132.215 400.521 131.879C400.936 131.543 401.455 131.375 402.08 131.375C402.541 131.375 402.945 131.469 403.293 131.656C403.641 131.84 403.928 132.107 404.154 132.459C404.381 132.807 404.559 133.232 404.688 133.736C404.816 134.236 404.881 134.912 404.881 135.764C404.881 136.771 404.777 137.586 404.57 138.207C404.363 138.824 404.053 139.303 403.639 139.643C403.229 139.979 402.709 140.146 402.08 140.146C401.252 140.146 400.602 139.85 400.129 139.256C399.562 138.541 399.279 137.377 399.279 135.764ZM400.363 135.764C400.363 137.174 400.527 138.113 400.855 138.582C401.188 139.047 401.596 139.279 402.08 139.279C402.564 139.279 402.971 139.045 403.299 138.576C403.631 138.107 403.797 137.17 403.797 135.764C403.797 134.35 403.631 133.41 403.299 132.945C402.971 132.48 402.561 132.248 402.068 132.248C401.584 132.248 401.197 132.453 400.908 132.863C400.545 133.387 400.363 134.354 400.363 135.764ZM406.158 133.473C406.158 132.859 406.312 132.338 406.621 131.908C406.93 131.479 407.377 131.264 407.963 131.264C408.502 131.264 408.947 131.457 409.299 131.844C409.654 132.227 409.832 132.791 409.832 133.537C409.832 134.264 409.652 134.824 409.293 135.219C408.938 135.609 408.498 135.805 407.975 135.805C407.455 135.805 407.021 135.611 406.674 135.225C406.33 134.838 406.158 134.254 406.158 133.473ZM407.992 131.99C407.73 131.99 407.512 132.104 407.336 132.33C407.164 132.557 407.078 132.973 407.078 133.578C407.078 134.129 407.166 134.518 407.342 134.744C407.518 134.967 407.734 135.078 407.992 135.078C408.258 135.078 408.477 134.965 408.648 134.738C408.824 134.512 408.912 134.098 408.912 133.496C408.912 132.941 408.824 132.553 408.648 132.33C408.473 132.104 408.254 131.99 407.992 131.99ZM407.998 140.316L412.697 131.264H413.553L408.871 140.316H407.998ZM411.713 137.984C411.713 137.367 411.867 136.846 412.176 136.42C412.484 135.99 412.934 135.775 413.523 135.775C414.062 135.775 414.508 135.969 414.859 136.355C415.215 136.738 415.393 137.303 415.393 138.049C415.393 138.775 415.213 139.336 414.854 139.73C414.498 140.121 414.057 140.316 413.529 140.316C413.01 140.316 412.576 140.123 412.229 139.736C411.885 139.346 411.713 138.762 411.713 137.984ZM413.553 136.502C413.287 136.502 413.066 136.615 412.891 136.842C412.719 137.068 412.633 137.484 412.633 138.09C412.633 138.637 412.721 139.023 412.896 139.25C413.072 139.477 413.289 139.59 413.547 139.59C413.816 139.59 414.037 139.477 414.209 139.25C414.385 139.023 414.473 138.609 414.473 138.008C414.473 137.453 414.385 137.064 414.209 136.842C414.033 136.615 413.814 136.502 413.553 136.502ZM417.619 142.525H416.863C418.031 140.65 418.615 138.773 418.615 136.895C418.615 136.16 418.531 135.432 418.363 134.709C418.23 134.123 418.045 133.561 417.807 133.021C417.654 132.67 417.34 132.084 416.863 131.264H417.619C418.354 132.244 418.896 133.229 419.248 134.217C419.549 135.068 419.699 135.959 419.699 136.889C419.699 137.943 419.496 138.963 419.09 139.947C418.688 140.932 418.197 141.791 417.619 142.525Z" fill="black"/>
<path d="M317 154H303C301.343 154 300 155.343 300 157V171C300 172.657 301.343 174 303 174H317C318.657 174 320 172.657 320 171V157C320 155.343 318.657 154 317 154Z" fill="url(#paint8_linear_55_121)"/>
<path d="M326.119 168V159.41H327.256V168H326.119ZM328.879 165.24L329.951 165.146C330.002 165.576 330.119 165.93 330.303 166.207C330.49 166.48 330.779 166.703 331.17 166.875C331.561 167.043 332 167.127 332.488 167.127C332.922 167.127 333.305 167.062 333.637 166.934C333.969 166.805 334.215 166.629 334.375 166.406C334.539 166.18 334.621 165.934 334.621 165.668C334.621 165.398 334.543 165.164 334.387 164.965C334.23 164.762 333.973 164.592 333.613 164.455C333.383 164.365 332.873 164.227 332.084 164.039C331.295 163.848 330.742 163.668 330.426 163.5C330.016 163.285 329.709 163.02 329.506 162.703C329.307 162.383 329.207 162.025 329.207 161.631C329.207 161.197 329.33 160.793 329.576 160.418C329.822 160.039 330.182 159.752 330.654 159.557C331.127 159.361 331.652 159.264 332.23 159.264C332.867 159.264 333.428 159.367 333.912 159.574C334.4 159.777 334.775 160.078 335.037 160.477C335.299 160.875 335.439 161.326 335.459 161.83L334.369 161.912C334.311 161.369 334.111 160.959 333.771 160.682C333.436 160.404 332.938 160.266 332.277 160.266C331.59 160.266 331.088 160.393 330.771 160.646C330.459 160.896 330.303 161.199 330.303 161.555C330.303 161.863 330.414 162.117 330.637 162.316C330.855 162.516 331.426 162.721 332.348 162.932C333.273 163.139 333.908 163.32 334.252 163.477C334.752 163.707 335.121 164 335.359 164.355C335.598 164.707 335.717 165.113 335.717 165.574C335.717 166.031 335.586 166.463 335.324 166.869C335.062 167.271 334.686 167.586 334.193 167.812C333.705 168.035 333.154 168.146 332.541 168.146C331.764 168.146 331.111 168.033 330.584 167.807C330.061 167.58 329.648 167.24 329.348 166.787C329.051 166.33 328.895 165.814 328.879 165.24ZM337.328 168V159.41H343.123V160.424H338.465V163.084H342.496V164.098H338.465V168H337.328ZM344.025 165.562L345.051 165.422C345.078 166.078 345.201 166.527 345.42 166.77C345.639 167.012 345.941 167.133 346.328 167.133C346.613 167.133 346.859 167.068 347.066 166.939C347.273 166.807 347.416 166.629 347.494 166.406C347.572 166.18 347.611 165.82 347.611 165.328V159.41H348.748V165.264C348.748 165.982 348.66 166.539 348.484 166.934C348.312 167.328 348.037 167.629 347.658 167.836C347.283 168.043 346.842 168.146 346.334 168.146C345.58 168.146 345.002 167.93 344.6 167.496C344.201 167.062 344.01 166.418 344.025 165.562ZM350.764 162.979V161.777H351.965V162.979H350.764ZM350.764 168V166.799H351.965V168H350.764ZM360.83 168H359.775V161.279C359.521 161.521 359.188 161.764 358.773 162.006C358.363 162.248 357.994 162.43 357.666 162.551V161.531C358.256 161.254 358.771 160.918 359.213 160.523C359.654 160.129 359.967 159.746 360.15 159.375H360.83V168ZM368.811 159.84H371.943V160.644H368.811V159.84ZM368.811 161.988H371.967V162.804H368.811V161.988ZM371.571 158.076H372.567V164.496H371.571V158.076ZM364.143 158.904H369.087V163.728H364.143V158.904ZM368.115 159.708H365.115V162.924H368.115V159.708ZM368.991 164.82C370.111 164.82 370.991 165 371.631 165.36C372.279 165.72 372.603 166.224 372.603 166.872C372.603 167.52 372.279 168.02 371.631 168.372C370.991 168.732 370.111 168.912 368.991 168.912C367.871 168.912 366.987 168.732 366.339 168.372C365.699 168.02 365.379 167.52 365.379 166.872C365.379 166.224 365.699 165.72 366.339 165.36C366.987 165 367.871 164.82 368.991 164.82ZM368.991 165.6C368.447 165.6 367.979 165.652 367.587 165.756C367.195 165.852 366.891 165.996 366.675 166.188C366.467 166.372 366.363 166.6 366.363 166.872C366.363 167.128 366.467 167.352 366.675 167.544C366.891 167.728 367.195 167.872 367.587 167.976C367.979 168.08 368.447 168.132 368.991 168.132C369.543 168.132 370.011 168.08 370.395 167.976C370.787 167.872 371.087 167.728 371.295 167.544C371.511 167.352 371.619 167.128 371.619 166.872C371.619 166.6 371.511 166.372 371.295 166.188C371.087 165.996 370.787 165.852 370.395 165.756C370.011 165.652 369.543 165.6 368.991 165.6ZM380.225 170.525C379.643 169.791 379.15 168.932 378.748 167.947C378.346 166.963 378.145 165.943 378.145 164.889C378.145 163.959 378.295 163.068 378.596 162.217C378.947 161.229 379.49 160.244 380.225 159.264H380.98C380.508 160.076 380.195 160.656 380.043 161.004C379.805 161.543 379.617 162.105 379.48 162.691C379.312 163.422 379.229 164.156 379.229 164.895C379.229 166.773 379.812 168.65 380.98 170.525H380.225ZM387.455 166.986V168H381.777C381.77 167.746 381.811 167.502 381.9 167.268C382.045 166.881 382.275 166.5 382.592 166.125C382.912 165.75 383.373 165.316 383.975 164.824C384.908 164.059 385.539 163.453 385.867 163.008C386.195 162.559 386.359 162.135 386.359 161.736C386.359 161.318 386.209 160.967 385.908 160.682C385.611 160.393 385.223 160.248 384.742 160.248C384.234 160.248 383.828 160.4 383.523 160.705C383.219 161.01 383.064 161.432 383.061 161.971L381.977 161.859C382.051 161.051 382.33 160.436 382.814 160.014C383.299 159.588 383.949 159.375 384.766 159.375C385.59 159.375 386.242 159.604 386.723 160.061C387.203 160.518 387.443 161.084 387.443 161.76C387.443 162.104 387.373 162.441 387.232 162.773C387.092 163.105 386.857 163.455 386.529 163.822C386.205 164.189 385.664 164.693 384.906 165.334C384.273 165.865 383.867 166.227 383.688 166.418C383.508 166.605 383.359 166.795 383.242 166.986H387.455ZM388.592 163.764C388.592 162.748 388.695 161.932 388.902 161.314C389.113 160.693 389.424 160.215 389.834 159.879C390.248 159.543 390.768 159.375 391.393 159.375C391.854 159.375 392.258 159.469 392.605 159.656C392.953 159.84 393.24 160.107 393.467 160.459C393.693 160.807 393.871 161.232 394 161.736C394.129 162.236 394.193 162.912 394.193 163.764C394.193 164.771 394.09 165.586 393.883 166.207C393.676 166.824 393.365 167.303 392.951 167.643C392.541 167.979 392.021 168.146 391.393 168.146C390.564 168.146 389.914 167.85 389.441 167.256C388.875 166.541 388.592 165.377 388.592 163.764ZM389.676 163.764C389.676 165.174 389.84 166.113 390.168 166.582C390.5 167.047 390.908 167.279 391.393 167.279C391.877 167.279 392.283 167.045 392.611 166.576C392.943 166.107 393.109 165.17 393.109 163.764C393.109 162.35 392.943 161.41 392.611 160.945C392.283 160.48 391.873 160.248 391.381 160.248C390.896 160.248 390.51 160.453 390.221 160.863C389.857 161.387 389.676 162.354 389.676 163.764ZM395.863 168V166.799H397.064V168H395.863ZM398.611 163.764C398.611 162.748 398.715 161.932 398.922 161.314C399.133 160.693 399.443 160.215 399.854 159.879C400.268 159.543 400.787 159.375 401.412 159.375C401.873 159.375 402.277 159.469 402.625 159.656C402.973 159.84 403.26 160.107 403.486 160.459C403.713 160.807 403.891 161.232 404.02 161.736C404.148 162.236 404.213 162.912 404.213 163.764C404.213 164.771 404.109 165.586 403.902 166.207C403.695 166.824 403.385 167.303 402.971 167.643C402.561 167.979 402.041 168.146 401.412 168.146C400.584 168.146 399.934 167.85 399.461 167.256C398.895 166.541 398.611 165.377 398.611 163.764ZM399.695 163.764C399.695 165.174 399.859 166.113 400.188 166.582C400.52 167.047 400.928 167.279 401.412 167.279C401.896 167.279 402.303 167.045 402.631 166.576C402.963 166.107 403.129 165.17 403.129 163.764C403.129 162.35 402.963 161.41 402.631 160.945C402.303 160.48 401.893 160.248 401.4 160.248C400.916 160.248 400.529 160.453 400.24 160.863C399.877 161.387 399.695 162.354 399.695 163.764ZM405.49 161.473C405.49 160.859 405.645 160.338 405.953 159.908C406.262 159.479 406.709 159.264 407.295 159.264C407.834 159.264 408.279 159.457 408.631 159.844C408.986 160.227 409.164 160.791 409.164 161.537C409.164 162.264 408.984 162.824 408.625 163.219C408.27 163.609 407.83 163.805 407.307 163.805C406.787 163.805 406.354 163.611 406.006 163.225C405.662 162.838 405.49 162.254 405.49 161.473ZM407.324 159.99C407.062 159.99 406.844 160.104 406.668 160.33C406.496 160.557 406.41 160.973 406.41 161.578C406.41 162.129 406.498 162.518 406.674 162.744C406.85 162.967 407.066 163.078 407.324 163.078C407.59 163.078 407.809 162.965 407.98 162.738C408.156 162.512 408.244 162.098 408.244 161.496C408.244 160.941 408.156 160.553 407.98 160.33C407.805 160.104 407.586 159.99 407.324 159.99ZM407.33 168.316L412.029 159.264H412.885L408.203 168.316H407.33ZM411.045 165.984C411.045 165.367 411.199 164.846 411.508 164.42C411.816 163.99 412.266 163.775 412.855 163.775C413.395 163.775 413.84 163.969 414.191 164.355C414.547 164.738 414.725 165.303 414.725 166.049C414.725 166.775 414.545 167.336 414.186 167.73C413.83 168.121 413.389 168.316 412.861 168.316C412.342 168.316 411.908 168.123 411.561 167.736C411.217 167.346 411.045 166.762 411.045 165.984ZM412.885 164.502C412.619 164.502 412.398 164.615 412.223 164.842C412.051 165.068 411.965 165.484 411.965 166.09C411.965 166.637 412.053 167.023 412.229 167.25C412.404 167.477 412.621 167.59 412.879 167.59C413.148 167.59 413.369 167.477 413.541 167.25C413.717 167.023 413.805 166.609 413.805 166.008C413.805 165.453 413.717 165.064 413.541 164.842C413.365 164.615 413.146 164.502 412.885 164.502ZM416.951 170.525H416.195C417.363 168.65 417.947 166.773 417.947 164.895C417.947 164.16 417.863 163.432 417.695 162.709C417.562 162.123 417.377 161.561 417.139 161.021C416.986 160.67 416.672 160.084 416.195 159.264H416.951C417.686 160.244 418.229 161.229 418.58 162.217C418.881 163.068 419.031 163.959 419.031 164.889C419.031 165.943 418.828 166.963 418.422 167.947C418.02 168.932 417.529 169.791 416.951 170.525Z" fill="black"/>
<path d="M317 182H303C301.343 182 300 183.343 300 185V199C300 200.657 301.343 202 303 202H317C318.657 202 320 200.657 320 199V185C320 183.343 318.657 182 317 182Z" fill="url(#paint9_linear_55_121)"/>
<path d="M326.119 196V187.41H327.256V196H326.119ZM328.879 193.24L329.951 193.146C330.002 193.576 330.119 193.93 330.303 194.207C330.49 194.48 330.779 194.703 331.17 194.875C331.561 195.043 332 195.127 332.488 195.127C332.922 195.127 333.305 195.062 333.637 194.934C333.969 194.805 334.215 194.629 334.375 194.406C334.539 194.18 334.621 193.934 334.621 193.668C334.621 193.398 334.543 193.164 334.387 192.965C334.23 192.762 333.973 192.592 333.613 192.455C333.383 192.365 332.873 192.227 332.084 192.039C331.295 191.848 330.742 191.668 330.426 191.5C330.016 191.285 329.709 191.02 329.506 190.703C329.307 190.383 329.207 190.025 329.207 189.631C329.207 189.197 329.33 188.793 329.576 188.418C329.822 188.039 330.182 187.752 330.654 187.557C331.127 187.361 331.652 187.264 332.23 187.264C332.867 187.264 333.428 187.367 333.912 187.574C334.4 187.777 334.775 188.078 335.037 188.477C335.299 188.875 335.439 189.326 335.459 189.83L334.369 189.912C334.311 189.369 334.111 188.959 333.771 188.682C333.436 188.404 332.938 188.266 332.277 188.266C331.59 188.266 331.088 188.393 330.771 188.646C330.459 188.896 330.303 189.199 330.303 189.555C330.303 189.863 330.414 190.117 330.637 190.316C330.855 190.516 331.426 190.721 332.348 190.932C333.273 191.139 333.908 191.32 334.252 191.477C334.752 191.707 335.121 192 335.359 192.355C335.598 192.707 335.717 193.113 335.717 193.574C335.717 194.031 335.586 194.463 335.324 194.869C335.062 195.271 334.686 195.586 334.193 195.812C333.705 196.035 333.154 196.146 332.541 196.146C331.764 196.146 331.111 196.033 330.584 195.807C330.061 195.58 329.648 195.24 329.348 194.787C329.051 194.33 328.895 193.814 328.879 193.24ZM337.328 196V187.41H343.123V188.424H338.465V191.084H342.496V192.098H338.465V196H337.328ZM344.605 196V187.41H347.846C348.416 187.41 348.852 187.438 349.152 187.492C349.574 187.562 349.928 187.697 350.213 187.896C350.498 188.092 350.727 188.367 350.898 188.723C351.074 189.078 351.162 189.469 351.162 189.895C351.162 190.625 350.93 191.244 350.465 191.752C350 192.256 349.16 192.508 347.945 192.508H345.742V196H344.605ZM345.742 191.494H347.963C348.697 191.494 349.219 191.357 349.527 191.084C349.836 190.811 349.99 190.426 349.99 189.93C349.99 189.57 349.898 189.264 349.715 189.01C349.535 188.752 349.297 188.582 349 188.5C348.809 188.449 348.455 188.424 347.939 188.424H345.742V191.494ZM352.768 190.979V189.777H353.969V190.979H352.768ZM352.768 196V194.799H353.969V196H352.768ZM362.834 196H361.779V189.279C361.525 189.521 361.191 189.764 360.777 190.006C360.367 190.248 359.998 190.43 359.67 190.551V189.531C360.26 189.254 360.775 188.918 361.217 188.523C361.658 188.129 361.971 187.746 362.154 187.375H362.834V196ZM370.815 187.84H373.947V188.644H370.815V187.84ZM370.815 189.988H373.971V190.804H370.815V189.988ZM373.575 186.076H374.571V192.496H373.575V186.076ZM366.147 186.904H371.091V191.728H366.147V186.904ZM370.119 187.708H367.119V190.924H370.119V187.708ZM370.995 192.82C372.115 192.82 372.995 193 373.635 193.36C374.283 193.72 374.607 194.224 374.607 194.872C374.607 195.52 374.283 196.02 373.635 196.372C372.995 196.732 372.115 196.912 370.995 196.912C369.875 196.912 368.991 196.732 368.343 196.372C367.703 196.02 367.383 195.52 367.383 194.872C367.383 194.224 367.703 193.72 368.343 193.36C368.991 193 369.875 192.82 370.995 192.82ZM370.995 193.6C370.451 193.6 369.983 193.652 369.591 193.756C369.199 193.852 368.895 193.996 368.679 194.188C368.471 194.372 368.367 194.6 368.367 194.872C368.367 195.128 368.471 195.352 368.679 195.544C368.895 195.728 369.199 195.872 369.591 195.976C369.983 196.08 370.451 196.132 370.995 196.132C371.547 196.132 372.015 196.08 372.399 195.976C372.791 195.872 373.091 195.728 373.299 195.544C373.515 195.352 373.623 195.128 373.623 194.872C373.623 194.6 373.515 194.372 373.299 194.188C373.091 193.996 372.791 193.852 372.399 193.756C372.015 193.652 371.547 193.6 370.995 193.6ZM382.229 198.525C381.646 197.791 381.154 196.932 380.752 195.947C380.35 194.963 380.148 193.943 380.148 192.889C380.148 191.959 380.299 191.068 380.6 190.217C380.951 189.229 381.494 188.244 382.229 187.264H382.984C382.512 188.076 382.199 188.656 382.047 189.004C381.809 189.543 381.621 190.105 381.484 190.691C381.316 191.422 381.232 192.156 381.232 192.895C381.232 194.773 381.816 196.65 382.984 198.525H382.229ZM389.459 194.986V196H383.781C383.773 195.746 383.814 195.502 383.904 195.268C384.049 194.881 384.279 194.5 384.596 194.125C384.916 193.75 385.377 193.316 385.979 192.824C386.912 192.059 387.543 191.453 387.871 191.008C388.199 190.559 388.363 190.135 388.363 189.736C388.363 189.318 388.213 188.967 387.912 188.682C387.615 188.393 387.227 188.248 386.746 188.248C386.238 188.248 385.832 188.4 385.527 188.705C385.223 189.01 385.068 189.432 385.064 189.971L383.98 189.859C384.055 189.051 384.334 188.436 384.818 188.014C385.303 187.588 385.953 187.375 386.77 187.375C387.594 187.375 388.246 187.604 388.727 188.061C389.207 188.518 389.447 189.084 389.447 189.76C389.447 190.104 389.377 190.441 389.236 190.773C389.096 191.105 388.861 191.455 388.533 191.822C388.209 192.189 387.668 192.693 386.91 193.334C386.277 193.865 385.871 194.227 385.691 194.418C385.512 194.605 385.363 194.795 385.246 194.986H389.459ZM390.596 191.764C390.596 190.748 390.699 189.932 390.906 189.314C391.117 188.693 391.428 188.215 391.838 187.879C392.252 187.543 392.771 187.375 393.396 187.375C393.857 187.375 394.262 187.469 394.609 187.656C394.957 187.84 395.244 188.107 395.471 188.459C395.697 188.807 395.875 189.232 396.004 189.736C396.133 190.236 396.197 190.912 396.197 191.764C396.197 192.771 396.094 193.586 395.887 194.207C395.68 194.824 395.369 195.303 394.955 195.643C394.545 195.979 394.025 196.146 393.396 196.146C392.568 196.146 391.918 195.85 391.445 195.256C390.879 194.541 390.596 193.377 390.596 191.764ZM391.68 191.764C391.68 193.174 391.844 194.113 392.172 194.582C392.504 195.047 392.912 195.279 393.396 195.279C393.881 195.279 394.287 195.045 394.615 194.576C394.947 194.107 395.113 193.17 395.113 191.764C395.113 190.35 394.947 189.41 394.615 188.945C394.287 188.48 393.877 188.248 393.385 188.248C392.9 188.248 392.514 188.453 392.225 188.863C391.861 189.387 391.68 190.354 391.68 191.764ZM397.867 196V194.799H399.068V196H397.867ZM400.615 191.764C400.615 190.748 400.719 189.932 400.926 189.314C401.137 188.693 401.447 188.215 401.857 187.879C402.271 187.543 402.791 187.375 403.416 187.375C403.877 187.375 404.281 187.469 404.629 187.656C404.977 187.84 405.264 188.107 405.49 188.459C405.717 188.807 405.895 189.232 406.023 189.736C406.152 190.236 406.217 190.912 406.217 191.764C406.217 192.771 406.113 193.586 405.906 194.207C405.699 194.824 405.389 195.303 404.975 195.643C404.564 195.979 404.045 196.146 403.416 196.146C402.588 196.146 401.938 195.85 401.465 195.256C400.898 194.541 400.615 193.377 400.615 191.764ZM401.699 191.764C401.699 193.174 401.863 194.113 402.191 194.582C402.523 195.047 402.932 195.279 403.416 195.279C403.9 195.279 404.307 195.045 404.635 194.576C404.967 194.107 405.133 193.17 405.133 191.764C405.133 190.35 404.967 189.41 404.635 188.945C404.307 188.48 403.896 188.248 403.404 188.248C402.92 188.248 402.533 188.453 402.244 188.863C401.881 189.387 401.699 190.354 401.699 191.764ZM407.494 189.473C407.494 188.859 407.648 188.338 407.957 187.908C408.266 187.479 408.713 187.264 409.299 187.264C409.838 187.264 410.283 187.457 410.635 187.844C410.99 188.227 411.168 188.791 411.168 189.537C411.168 190.264 410.988 190.824 410.629 191.219C410.273 191.609 409.834 191.805 409.311 191.805C408.791 191.805 408.357 191.611 408.01 191.225C407.666 190.838 407.494 190.254 407.494 189.473ZM409.328 187.99C409.066 187.99 408.848 188.104 408.672 188.33C408.5 188.557 408.414 188.973 408.414 189.578C408.414 190.129 408.502 190.518 408.678 190.744C408.854 190.967 409.07 191.078 409.328 191.078C409.594 191.078 409.812 190.965 409.984 190.738C410.16 190.512 410.248 190.098 410.248 189.496C410.248 188.941 410.16 188.553 409.984 188.33C409.809 188.104 409.59 187.99 409.328 187.99ZM409.334 196.316L414.033 187.264H414.889L410.207 196.316H409.334ZM413.049 193.984C413.049 193.367 413.203 192.846 413.512 192.42C413.82 191.99 414.27 191.775 414.859 191.775C415.398 191.775 415.844 191.969 416.195 192.355C416.551 192.738 416.729 193.303 416.729 194.049C416.729 194.775 416.549 195.336 416.189 195.73C415.834 196.121 415.393 196.316 414.865 196.316C414.346 196.316 413.912 196.123 413.564 195.736C413.221 195.346 413.049 194.762 413.049 193.984ZM414.889 192.502C414.623 192.502 414.402 192.615 414.227 192.842C414.055 193.068 413.969 193.484 413.969 194.09C413.969 194.637 414.057 195.023 414.232 195.25C414.408 195.477 414.625 195.59 414.883 195.59C415.152 195.59 415.373 195.477 415.545 195.25C415.721 195.023 415.809 194.609 415.809 194.008C415.809 193.453 415.721 193.064 415.545 192.842C415.369 192.615 415.15 192.502 414.889 192.502ZM418.955 198.525H418.199C419.367 196.65 419.951 194.773 419.951 192.895C419.951 192.16 419.867 191.432 419.699 190.709C419.566 190.123 419.381 189.561 419.143 189.021C418.99 188.67 418.676 188.084 418.199 187.264H418.955C419.689 188.244 420.232 189.229 420.584 190.217C420.885 191.068 421.035 191.959 421.035 192.889C421.035 193.943 420.832 194.963 420.426 195.947C420.023 196.932 419.533 197.791 418.955 198.525Z" fill="black"/>
<path d="M80.9458 66V56.6943H87.8457V58.2686H82.8247V60.3315H87.4966V61.8994H82.8247V64.4321H88.0234V66H80.9458ZM89.6357 66V56.6943H91.4639L95.2725 62.9087V56.6943H97.0181V66H95.1328L91.3813 59.9316V66H89.6357ZM101.106 66V58.2686H98.3447V56.6943H105.74V58.2686H102.985V66H101.106ZM110.316 56.6943H112.189V62.585C112.189 63.3551 112.121 63.9476 111.986 64.3623C111.804 64.904 111.474 65.3398 110.996 65.6699C110.517 65.9958 109.887 66.1587 109.104 66.1587C108.186 66.1587 107.479 65.9027 106.984 65.3906C106.489 64.8743 106.239 64.119 106.235 63.1245L108.006 62.9214C108.027 63.4546 108.105 63.8312 108.241 64.0513C108.444 64.3856 108.753 64.5527 109.167 64.5527C109.586 64.5527 109.883 64.4342 110.056 64.1973C110.23 63.9561 110.316 63.4588 110.316 62.7056V56.6943Z" fill="white"/>
<path d="M197.889 101V91.6943H199.768V101H197.889ZM201.088 97.9722L202.916 97.7944C203.026 98.408 203.248 98.8587 203.583 99.1465C203.921 99.4342 204.376 99.5781 204.947 99.5781C205.552 99.5781 206.007 99.4512 206.312 99.1973C206.621 98.9391 206.775 98.6387 206.775 98.2959C206.775 98.0758 206.71 97.8896 206.579 97.7373C206.452 97.5807 206.227 97.4453 205.906 97.3311C205.686 97.2549 205.184 97.1195 204.401 96.9248C203.394 96.6751 202.688 96.3683 202.281 96.0044C201.71 95.4924 201.424 94.8682 201.424 94.1318C201.424 93.6579 201.558 93.2157 201.824 92.8052C202.095 92.3905 202.482 92.0752 202.986 91.8594C203.494 91.6436 204.105 91.5356 204.82 91.5356C205.988 91.5356 206.866 91.7917 207.455 92.3037C208.047 92.8158 208.358 93.4992 208.388 94.354L206.509 94.4365C206.428 93.9583 206.255 93.6156 205.988 93.4082C205.726 93.1966 205.33 93.0908 204.801 93.0908C204.255 93.0908 203.828 93.203 203.519 93.4272C203.32 93.5711 203.221 93.7637 203.221 94.0049C203.221 94.2249 203.314 94.4132 203.5 94.5698C203.737 94.7687 204.312 94.9761 205.227 95.1919C206.141 95.4077 206.816 95.632 207.251 95.8647C207.692 96.0933 208.034 96.4085 208.28 96.8105C208.529 97.2083 208.654 97.7013 208.654 98.2896C208.654 98.8228 208.506 99.3221 208.21 99.7876C207.914 100.253 207.495 100.6 206.953 100.829C206.411 101.053 205.736 101.165 204.928 101.165C203.752 101.165 202.848 100.894 202.218 100.353C201.587 99.8066 201.211 99.0132 201.088 97.9722ZM210.248 101V91.6943H216.627V93.2686H212.126V95.4712H216.011V97.0454H212.126V101H210.248ZM218.182 101V91.6943H221.197C222.34 91.6943 223.085 91.7409 223.432 91.834C223.965 91.9736 224.411 92.2783 224.771 92.748C225.131 93.2135 225.311 93.8166 225.311 94.5571C225.311 95.1284 225.207 95.6087 225 95.998C224.792 96.3874 224.528 96.6942 224.206 96.9185C223.889 97.1385 223.565 97.2845 223.235 97.3564C222.786 97.4453 222.137 97.4897 221.286 97.4897H220.061V101H218.182ZM220.061 93.2686V95.9092H221.089C221.83 95.9092 222.325 95.8605 222.575 95.7632C222.824 95.6659 223.019 95.5135 223.159 95.3062C223.303 95.0988 223.375 94.8576 223.375 94.5825C223.375 94.244 223.275 93.9647 223.076 93.7446C222.877 93.5246 222.625 93.387 222.321 93.332C222.097 93.2897 221.646 93.2686 220.969 93.2686H220.061Z" fill="white"/>
<path d="M18.8887 154V144.694H20.7676V154H18.8887ZM22.0879 150.972L23.916 150.794C24.026 151.408 24.2482 151.859 24.5825 152.146C24.9211 152.434 25.376 152.578 25.9473 152.578C26.5524 152.578 27.0073 152.451 27.312 152.197C27.6209 151.939 27.7754 151.639 27.7754 151.296C27.7754 151.076 27.7098 150.89 27.5786 150.737C27.4517 150.581 27.2274 150.445 26.9058 150.331C26.6857 150.255 26.1842 150.119 25.4014 149.925C24.3942 149.675 23.6875 149.368 23.2812 149.004C22.71 148.492 22.4243 147.868 22.4243 147.132C22.4243 146.658 22.5576 146.216 22.8242 145.805C23.0951 145.39 23.4823 145.075 23.9858 144.859C24.4937 144.644 25.1051 144.536 25.8203 144.536C26.9883 144.536 27.8664 144.792 28.4546 145.304C29.047 145.816 29.3581 146.499 29.3877 147.354L27.5088 147.437C27.4284 146.958 27.2549 146.616 26.9883 146.408C26.7259 146.197 26.3302 146.091 25.8013 146.091C25.2554 146.091 24.828 146.203 24.519 146.427C24.3201 146.571 24.2207 146.764 24.2207 147.005C24.2207 147.225 24.3138 147.413 24.5 147.57C24.737 147.769 25.3125 147.976 26.2266 148.192C27.1406 148.408 27.8156 148.632 28.2515 148.865C28.6916 149.093 29.0343 149.409 29.2798 149.811C29.5295 150.208 29.6543 150.701 29.6543 151.29C29.6543 151.823 29.5062 152.322 29.21 152.788C28.9137 153.253 28.4948 153.6 27.9531 153.829C27.4115 154.053 26.7365 154.165 25.9282 154.165C24.7518 154.165 23.8483 153.894 23.2178 153.353C22.5872 152.807 22.2106 152.013 22.0879 150.972ZM31.2476 154V144.694H37.627V146.269H33.1265V148.471H37.0112V150.045H33.1265V154H31.2476ZM42.54 144.694H44.4126V150.585C44.4126 151.355 44.3449 151.948 44.2095 152.362C44.0275 152.904 43.6974 153.34 43.2192 153.67C42.741 153.996 42.1105 154.159 41.3276 154.159C40.4093 154.159 39.7026 153.903 39.2075 153.391C38.7124 152.874 38.4627 152.119 38.4585 151.125L40.2295 150.921C40.2507 151.455 40.3289 151.831 40.4644 152.051C40.6675 152.386 40.9764 152.553 41.3911 152.553C41.8101 152.553 42.1063 152.434 42.2798 152.197C42.4533 151.956 42.54 151.459 42.54 150.706V144.694Z" fill="white"/>
<path d="M190.946 215V205.694H197.846V207.269H192.825V209.332H197.497V210.899H192.825V213.432H198.023V215H190.946ZM199.636 215V205.694H201.464L205.272 211.909V205.694H207.018V215H205.133L201.381 208.932V215H199.636ZM209.024 215V205.694H215.403V207.269H210.903V209.471H214.788V211.045H210.903V215H209.024ZM216.958 215V205.694H219.974C221.116 205.694 221.861 205.741 222.208 205.834C222.741 205.974 223.188 206.278 223.547 206.748C223.907 207.214 224.087 207.817 224.087 208.557C224.087 209.128 223.983 209.609 223.776 209.998C223.569 210.387 223.304 210.694 222.982 210.918C222.665 211.139 222.341 211.285 222.011 211.356C221.563 211.445 220.913 211.49 220.062 211.49H218.837V215H216.958ZM218.837 207.269V209.909H219.866C220.606 209.909 221.101 209.861 221.351 209.763C221.601 209.666 221.795 209.514 221.935 209.306C222.079 209.099 222.151 208.858 222.151 208.583C222.151 208.244 222.051 207.965 221.853 207.745C221.654 207.525 221.402 207.387 221.097 207.332C220.873 207.29 220.422 207.269 219.745 207.269H218.837Z" fill="white"/>
<path d="M83.8887 246V236.694H85.7676V246H83.8887ZM87.583 246V236.694H89.4111L93.2197 242.909V236.694H94.9653V246H93.0801L89.3286 239.932V246H87.583ZM99.0532 246V238.269H96.292V236.694H103.687V238.269H100.932V246H99.0532ZM108.264 236.694H110.136V242.585C110.136 243.355 110.069 243.948 109.933 244.362C109.751 244.904 109.421 245.34 108.943 245.67C108.465 245.996 107.834 246.159 107.051 246.159C106.133 246.159 105.426 245.903 104.931 245.391C104.436 244.874 104.186 244.119 104.182 243.125L105.953 242.921C105.974 243.455 106.053 243.831 106.188 244.051C106.391 244.386 106.7 244.553 107.115 244.553C107.534 244.553 107.83 244.434 108.003 244.197C108.177 243.956 108.264 243.459 108.264 242.706V236.694Z" fill="white"/>
<defs>
<linearGradient id="paint0_linear_55_121" x1="195" y1="150" x2="195" y2="273.637" gradientUnits="userSpaceOnUse">
<stop stop-color="#76D5FC"/>
<stop offset="1" stop-color="#6EC5EE"/>
</linearGradient>
<linearGradient id="paint1_linear_55_121" x1="97.5" y1="150" x2="97.5" y2="280" gradientUnits="userSpaceOnUse">
<stop stop-color="#F5EA6F"/>
<stop offset="1" stop-color="#D2D862"/>
</linearGradient>
<linearGradient id="paint2_linear_55_121" x1="65" y1="73.5879" x2="65" y2="226.412" gradientUnits="userSpaceOnUse">
<stop stop-color="#EC8934"/>
<stop offset="1" stop-color="#EA6A35"/>
</linearGradient>
<linearGradient id="paint3_linear_55_121" x1="97.5" y1="20" x2="97.5" y2="150" gradientUnits="userSpaceOnUse">
<stop stop-color="#85E5A7"/>
<stop offset="1" stop-color="#6CD8A0"/>
</linearGradient>
<linearGradient id="paint4_linear_55_121" x1="195" y1="26.3627" x2="195" y2="150" gradientUnits="userSpaceOnUse">
<stop stop-color="#BC9BE5"/>
<stop offset="1" stop-color="#9A72FF"/>
</linearGradient>
<linearGradient id="paint5_linear_55_121" x1="310" y1="70" x2="310" y2="90" gradientUnits="userSpaceOnUse">
<stop stop-color="#76D5FC"/>
<stop offset="1" stop-color="#6EC5EE"/>
</linearGradient>
<linearGradient id="paint6_linear_55_121" x1="310" y1="98" x2="310" y2="118" gradientUnits="userSpaceOnUse">
<stop stop-color="#85E5A7"/>
<stop offset="1" stop-color="#6CD8A0"/>
</linearGradient>
<linearGradient id="paint7_linear_55_121" x1="310" y1="126" x2="310" y2="146" gradientUnits="userSpaceOnUse">
<stop stop-color="#F5EA6F"/>
<stop offset="1" stop-color="#D2D862"/>
</linearGradient>
<linearGradient id="paint8_linear_55_121" x1="310" y1="154" x2="310" y2="174" gradientUnits="userSpaceOnUse">
<stop stop-color="#EC8934"/>
<stop offset="1" stop-color="#EA6A35"/>
</linearGradient>
<linearGradient id="paint9_linear_55_121" x1="310" y1="182" x2="310" y2="202" gradientUnits="userSpaceOnUse">
<stop stop-color="#BC9BE5"/>
<stop offset="1" stop-color="#9A72FF"/>
</linearGradient>
</defs>
</svg>
