<svg width="450" height="300" viewBox="0 0 450 300" fill="none" xmlns="http://www.w3.org/2000/svg">
<rect width="450" height="300" fill="white"/>
<path d="M130 150H260C260 172.363 254.231 194.348 243.251 213.829C232.271 233.311 216.451 249.631 197.32 261.211C178.19 272.792 156.395 279.242 134.043 279.937C111.691 280.633 89.5375 275.55 69.7238 265.181L130 150Z" fill="url(#paint0_linear_55_82)"/>
<path d="M130 150L69.7237 265.181C49.3026 254.495 32.0898 238.571 19.8491 219.042C7.6083 199.513 0.779667 177.08 0.0628662 154.043L130 150Z" fill="url(#paint1_linear_55_82)"/>
<path d="M130 150L0.0628964 154.043C-0.653904 131.006 4.7669 108.192 15.7699 87.9398C26.7728 67.6873 42.9624 50.7243 62.6796 38.7887L130 150Z" fill="url(#paint2_linear_55_82)"/>
<path d="M130 150L62.6796 38.7887C82.3968 26.8531 104.933 20.3742 127.978 20.0157C151.024 19.6573 173.75 25.4322 193.829 36.7488L130 150Z" fill="url(#paint3_linear_55_82)"/>
<path d="M130 150L193.829 36.7488C213.908 48.0654 230.617 64.5167 242.245 84.4172C253.872 104.318 260 126.952 260 150H130Z" fill="url(#paint4_linear_55_82)"/>
<path d="M130 215C165.899 215 195 185.899 195 150C195 114.101 165.899 85 130 85C94.1015 85 65 114.101 65 150C65 185.899 94.1015 215 130 215Z" fill="white"/>
<path d="M115.68 138.168C115.851 138.104 116.096 138.072 116.416 138.072C116.736 138.072 117.003 138.104 117.216 138.168C117.429 138.232 117.771 138.296 118.24 138.36C118.688 138.424 119.04 138.509 119.296 138.616C119.531 138.701 119.68 138.744 119.744 138.744C119.936 138.744 120.437 138.989 121.248 139.48C121.675 139.736 122.176 140.227 122.752 140.952C123.349 141.677 123.648 142.179 123.648 142.456C123.648 142.52 123.701 142.659 123.808 142.872C123.936 143.085 124 143.459 124 143.992C124 144.504 123.936 144.867 123.808 145.08C123.701 145.272 123.637 145.453 123.616 145.624C123.595 145.795 123.531 145.944 123.424 146.072C123.317 146.221 123.264 146.317 123.264 146.36C123.264 146.403 123.221 146.499 123.136 146.648C123.051 146.755 123.019 146.84 123.04 146.904C123.061 146.947 123.2 147.075 123.456 147.288C123.989 147.736 124.469 148.259 124.896 148.856C125.344 149.432 125.568 149.848 125.568 150.104C125.568 150.168 125.621 150.317 125.728 150.552C126.005 151.107 126.133 151.875 126.112 152.856C126.112 153.816 125.973 154.541 125.696 155.032C125.589 155.267 125.536 155.405 125.536 155.448C125.536 155.491 125.472 155.608 125.344 155.8C125.216 155.992 125.152 156.099 125.152 156.12C125.152 156.163 125.024 156.333 124.768 156.632C124.512 156.909 124.267 157.155 124.032 157.368C123.52 157.859 123.093 158.147 122.752 158.232C122.624 158.253 122.485 158.317 122.336 158.424C122.208 158.531 122.112 158.584 122.048 158.584C121.963 158.584 121.707 158.659 121.28 158.808C120.875 158.936 120.608 159 120.48 159C120.352 159 120.139 159.053 119.84 159.16C119.584 159.245 119.2 159.309 118.688 159.352C118.219 159.373 117.877 159.405 117.664 159.448C117.493 159.491 117.056 159.512 116.352 159.512C114.027 159.512 112.725 159.213 112.448 158.616C112.384 158.488 112.341 155.704 112.32 150.264C112.299 144.803 112.32 141.645 112.384 140.792C112.448 140.024 112.693 139.437 113.12 139.032C113.547 138.627 114.197 138.381 115.072 138.296C115.328 138.275 115.531 138.232 115.68 138.168ZM117.408 141.624C117.152 141.539 116.832 141.496 116.448 141.496C116.085 141.496 115.883 141.549 115.84 141.656C115.776 141.741 115.744 142.435 115.744 143.736C115.765 145.016 115.797 145.688 115.84 145.752C115.925 145.859 116.427 145.891 117.344 145.848C118.283 145.784 118.891 145.688 119.168 145.56C119.723 145.325 120.043 145.144 120.128 145.016C120.213 144.867 120.288 144.749 120.352 144.664C120.672 144.216 120.555 143.672 120 143.032C119.467 142.371 118.784 141.955 117.952 141.784C117.824 141.763 117.643 141.709 117.408 141.624ZM119.968 149.368C119.819 149.304 119.456 149.261 118.88 149.24C118.325 149.219 117.931 149.229 117.696 149.272C117.525 149.293 117.237 149.304 116.832 149.304C116.555 149.325 116.341 149.357 116.192 149.4C116.064 149.443 115.936 149.528 115.808 149.656C115.701 149.763 115.627 149.987 115.584 150.328C115.563 150.669 115.541 151.053 115.52 151.48C115.499 151.885 115.499 152.493 115.52 153.304C115.52 153.411 115.52 153.56 115.52 153.752C115.52 154.861 115.531 155.512 115.552 155.704C115.595 155.896 115.712 156.003 115.904 156.024C115.947 156.045 115.979 156.056 116 156.056C116.213 156.077 116.704 156.077 117.472 156.056C118.24 156.035 118.699 156.003 118.848 155.96C118.955 155.917 119.253 155.832 119.744 155.704C120.363 155.533 120.917 155.363 121.408 155.192C121.515 155.149 121.643 155.053 121.792 154.904C121.963 154.733 122.069 154.595 122.112 154.488C122.176 154.36 122.261 154.243 122.368 154.136C122.56 153.923 122.656 153.443 122.656 152.696C122.656 151.949 122.56 151.437 122.368 151.16C122.283 151.032 122.187 150.872 122.08 150.68C121.867 150.211 121.387 149.848 120.64 149.592C120.256 149.464 120.032 149.389 119.968 149.368ZM129.958 141.944C130.427 141.752 130.843 141.752 131.206 141.944C131.59 142.115 131.899 142.36 132.134 142.68C132.368 142.979 132.475 143.341 132.454 143.768C132.454 144.195 132.294 144.568 131.974 144.888C131.803 145.059 131.675 145.165 131.59 145.208C131.526 145.229 131.355 145.24 131.078 145.24C130.651 145.261 130.363 145.251 130.214 145.208C130.064 145.165 129.883 145.037 129.67 144.824C129.158 144.355 128.934 143.821 128.998 143.224C129.062 142.605 129.382 142.179 129.958 141.944ZM130.086 147.256C130.854 146.893 131.515 147.075 132.07 147.8L132.358 148.216L132.39 151.416C132.39 153.571 132.411 154.787 132.454 155.064C132.496 155.469 132.518 156.035 132.518 156.76C132.539 157.464 132.528 157.891 132.486 158.04C132.464 158.168 132.432 158.317 132.39 158.488C132.347 158.744 132.166 158.979 131.846 159.192C131.547 159.405 131.238 159.512 130.918 159.512C130.555 159.512 130.278 159.459 130.086 159.352C129.915 159.245 129.712 159.021 129.478 158.68L129.158 158.232L129.094 156.312C128.944 151.192 129.008 148.44 129.286 148.056C129.35 147.949 129.424 147.821 129.51 147.672C129.616 147.523 129.808 147.384 130.086 147.256ZM136.789 146.68C136.96 146.659 138.453 146.648 141.269 146.648C141.333 146.648 141.408 146.648 141.493 146.648C143.733 146.648 145.056 146.68 145.461 146.744C145.888 146.808 146.25 147 146.549 147.32C146.549 147.341 146.56 147.363 146.581 147.384C146.794 147.619 146.912 147.949 146.933 148.376C146.976 148.781 146.912 149.091 146.741 149.304C146.656 149.411 146.581 149.517 146.517 149.624C146.304 150.008 146.112 150.307 145.941 150.52C145.877 150.584 145.813 150.669 145.749 150.776C145.706 150.883 145.578 151.053 145.365 151.288C145.152 151.523 145.002 151.715 144.917 151.864C144.832 151.992 144.704 152.152 144.533 152.344C144.341 152.536 144.224 152.664 144.181 152.728C144.138 152.813 144 152.984 143.765 153.24C143.509 153.56 143.338 153.784 143.253 153.912C143.104 154.083 142.89 154.328 142.613 154.648C141.845 155.48 141.493 155.928 141.557 155.992C141.578 156.013 142.432 156.035 144.117 156.056C145.354 156.077 146.09 156.099 146.325 156.12C146.56 156.141 146.752 156.195 146.901 156.28C147.541 156.664 147.818 157.229 147.733 157.976C147.712 158.232 147.605 158.488 147.413 158.744C147.242 158.979 147.05 159.128 146.837 159.192C146.688 159.235 146.549 159.299 146.421 159.384C146.272 159.469 144.736 159.512 141.813 159.512C138.89 159.512 137.386 159.469 137.301 159.384C137.216 159.32 137.13 159.267 137.045 159.224C136.981 159.203 136.842 159.085 136.629 158.872C136.373 158.637 136.234 158.275 136.213 157.784C136.192 157.272 136.277 156.888 136.469 156.632C136.704 156.333 136.917 156.067 137.109 155.832C137.194 155.725 137.333 155.565 137.525 155.352C137.717 155.117 137.834 154.968 137.877 154.904C138.09 154.648 138.229 154.467 138.293 154.36C138.378 154.253 138.485 154.125 138.613 153.976C138.848 153.699 139.05 153.453 139.221 153.24C139.541 152.877 139.776 152.611 139.925 152.44C140.096 152.248 140.202 152.12 140.245 152.056C140.288 151.971 140.597 151.608 141.173 150.968C141.557 150.563 141.696 150.317 141.589 150.232C141.461 150.147 140.618 150.093 139.061 150.072C137.696 150.051 136.896 150.029 136.661 150.008C136.448 149.965 136.202 149.816 135.925 149.56C135.456 149.133 135.317 148.589 135.509 147.928C135.722 147.245 136.149 146.829 136.789 146.68Z" fill="black"/>
<path d="M317 84H303C301.343 84 300 85.3431 300 87V101C300 102.657 301.343 104 303 104H317C318.657 104 320 102.657 320 101V87C320 85.3431 318.657 84 317 84Z" fill="url(#paint5_linear_55_82)"/>
<path d="M325.949 98V89.4102H332.16V90.4238H327.086V93.0547H331.838V94.0625H327.086V96.9863H332.359V98H325.949ZM333.918 98V89.4102H335.084L339.596 96.1543V89.4102H340.686V98H339.52L335.008 91.25V98H333.918ZM344.787 98V90.4238H341.957V89.4102H348.766V90.4238H345.924V98H344.787ZM349.938 98V89.4102H353.178C353.748 89.4102 354.184 89.4375 354.484 89.4922C354.906 89.5625 355.26 89.6973 355.545 89.8965C355.83 90.0918 356.059 90.3672 356.23 90.7227C356.406 91.0781 356.494 91.4688 356.494 91.8945C356.494 92.625 356.262 93.2441 355.797 93.752C355.332 94.2559 354.492 94.5078 353.277 94.5078H351.074V98H349.938ZM351.074 93.4941H353.295C354.029 93.4941 354.551 93.3574 354.859 93.084C355.168 92.8105 355.322 92.4258 355.322 91.9297C355.322 91.5703 355.23 91.2637 355.047 91.0098C354.867 90.752 354.629 90.582 354.332 90.5C354.141 90.4492 353.787 90.4238 353.271 90.4238H351.074V93.4941ZM358.1 92.9785V91.7773H359.301V92.9785H358.1ZM358.1 98V96.7988H359.301V98H358.1ZM369.736 96.9863V98H364.059C364.051 97.7461 364.092 97.502 364.182 97.2676C364.326 96.8809 364.557 96.5 364.873 96.125C365.193 95.75 365.654 95.3164 366.256 94.8242C367.189 94.0586 367.82 93.4531 368.148 93.0078C368.477 92.5586 368.641 92.1348 368.641 91.7363C368.641 91.3184 368.49 90.9668 368.189 90.6816C367.893 90.3926 367.504 90.248 367.023 90.248C366.516 90.248 366.109 90.4004 365.805 90.7051C365.5 91.0098 365.346 91.4316 365.342 91.9707L364.258 91.8594C364.332 91.0508 364.611 90.4355 365.096 90.0137C365.58 89.5879 366.23 89.375 367.047 89.375C367.871 89.375 368.523 89.6035 369.004 90.0605C369.484 90.5176 369.725 91.084 369.725 91.7598C369.725 92.1035 369.654 92.4414 369.514 92.7734C369.373 93.1055 369.139 93.4551 368.811 93.8223C368.486 94.1895 367.945 94.6934 367.188 95.334C366.555 95.8652 366.148 96.2266 365.969 96.418C365.789 96.6055 365.641 96.7949 365.523 96.9863H369.736ZM376.147 89.84H379.279V90.644H376.147V89.84ZM376.147 91.988H379.303V92.804H376.147V91.988ZM378.907 88.076H379.903V94.496H378.907V88.076ZM371.479 88.904H376.423V93.728H371.479V88.904ZM375.451 89.708H372.451V92.924H375.451V89.708ZM376.327 94.82C377.447 94.82 378.327 95 378.967 95.36C379.615 95.72 379.939 96.224 379.939 96.872C379.939 97.52 379.615 98.02 378.967 98.372C378.327 98.732 377.447 98.912 376.327 98.912C375.207 98.912 374.323 98.732 373.675 98.372C373.035 98.02 372.715 97.52 372.715 96.872C372.715 96.224 373.035 95.72 373.675 95.36C374.323 95 375.207 94.82 376.327 94.82ZM376.327 95.6C375.783 95.6 375.315 95.652 374.923 95.756C374.531 95.852 374.227 95.996 374.011 96.188C373.803 96.372 373.699 96.6 373.699 96.872C373.699 97.128 373.803 97.352 374.011 97.544C374.227 97.728 374.531 97.872 374.923 97.976C375.315 98.08 375.783 98.132 376.327 98.132C376.879 98.132 377.347 98.08 377.731 97.976C378.123 97.872 378.423 97.728 378.631 97.544C378.847 97.352 378.955 97.128 378.955 96.872C378.955 96.6 378.847 96.372 378.631 96.188C378.423 95.996 378.123 95.852 377.731 95.756C377.347 95.652 376.879 95.6 376.327 95.6ZM387.561 100.525C386.979 99.791 386.486 98.9316 386.084 97.9473C385.682 96.9629 385.48 95.9434 385.48 94.8887C385.48 93.959 385.631 93.0684 385.932 92.2168C386.283 91.2285 386.826 90.2441 387.561 89.2637H388.316C387.844 90.0762 387.531 90.6562 387.379 91.0039C387.141 91.543 386.953 92.1055 386.816 92.6914C386.648 93.4219 386.564 94.1562 386.564 94.8945C386.564 96.7734 387.148 98.6504 388.316 100.525H387.561ZM389.254 95.7324L390.309 95.5918C390.43 96.1895 390.635 96.6211 390.924 96.8867C391.217 97.1484 391.572 97.2793 391.99 97.2793C392.486 97.2793 392.904 97.1074 393.244 96.7637C393.588 96.4199 393.76 95.9941 393.76 95.4863C393.76 95.002 393.602 94.6035 393.285 94.291C392.969 93.9746 392.566 93.8164 392.078 93.8164C391.879 93.8164 391.631 93.8555 391.334 93.9336L391.451 93.0078C391.521 93.0156 391.578 93.0195 391.621 93.0195C392.07 93.0195 392.475 92.9023 392.834 92.668C393.193 92.4336 393.373 92.0723 393.373 91.584C393.373 91.1973 393.242 90.877 392.98 90.623C392.719 90.3691 392.381 90.2422 391.967 90.2422C391.557 90.2422 391.215 90.3711 390.941 90.6289C390.668 90.8867 390.492 91.2734 390.414 91.7891L389.359 91.6016C389.488 90.8945 389.781 90.3477 390.238 89.9609C390.695 89.5703 391.264 89.375 391.943 89.375C392.412 89.375 392.844 89.4766 393.238 89.6797C393.633 89.8789 393.934 90.1523 394.141 90.5C394.352 90.8477 394.457 91.2168 394.457 91.6074C394.457 91.9785 394.357 92.3164 394.158 92.6211C393.959 92.9258 393.664 93.168 393.273 93.3477C393.781 93.4648 394.176 93.709 394.457 94.0801C394.738 94.4473 394.879 94.9082 394.879 95.4629C394.879 96.2129 394.605 96.8496 394.059 97.373C393.512 97.8926 392.82 98.1523 391.984 98.1523C391.23 98.1523 390.604 97.9277 390.104 97.4785C389.607 97.0293 389.324 96.4473 389.254 95.7324ZM395.934 95.7324L396.988 95.5918C397.109 96.1895 397.314 96.6211 397.604 96.8867C397.896 97.1484 398.252 97.2793 398.67 97.2793C399.166 97.2793 399.584 97.1074 399.924 96.7637C400.268 96.4199 400.439 95.9941 400.439 95.4863C400.439 95.002 400.281 94.6035 399.965 94.291C399.648 93.9746 399.246 93.8164 398.758 93.8164C398.559 93.8164 398.311 93.8555 398.014 93.9336L398.131 93.0078C398.201 93.0156 398.258 93.0195 398.301 93.0195C398.75 93.0195 399.154 92.9023 399.514 92.668C399.873 92.4336 400.053 92.0723 400.053 91.584C400.053 91.1973 399.922 90.877 399.66 90.623C399.398 90.3691 399.061 90.2422 398.646 90.2422C398.236 90.2422 397.895 90.3711 397.621 90.6289C397.348 90.8867 397.172 91.2734 397.094 91.7891L396.039 91.6016C396.168 90.8945 396.461 90.3477 396.918 89.9609C397.375 89.5703 397.943 89.375 398.623 89.375C399.092 89.375 399.523 89.4766 399.918 89.6797C400.312 89.8789 400.613 90.1523 400.82 90.5C401.031 90.8477 401.137 91.2168 401.137 91.6074C401.137 91.9785 401.037 92.3164 400.838 92.6211C400.639 92.9258 400.344 93.168 399.953 93.3477C400.461 93.4648 400.855 93.709 401.137 94.0801C401.418 94.4473 401.559 94.9082 401.559 95.4629C401.559 96.2129 401.285 96.8496 400.738 97.373C400.191 97.8926 399.5 98.1523 398.664 98.1523C397.91 98.1523 397.283 97.9277 396.783 97.4785C396.287 97.0293 396.004 96.4473 395.934 95.7324ZM403.199 98V96.7988H404.4V98H403.199ZM405.953 95.7324L407.008 95.5918C407.129 96.1895 407.334 96.6211 407.623 96.8867C407.916 97.1484 408.271 97.2793 408.689 97.2793C409.186 97.2793 409.604 97.1074 409.943 96.7637C410.287 96.4199 410.459 95.9941 410.459 95.4863C410.459 95.002 410.301 94.6035 409.984 94.291C409.668 93.9746 409.266 93.8164 408.777 93.8164C408.578 93.8164 408.33 93.8555 408.033 93.9336L408.15 93.0078C408.221 93.0156 408.277 93.0195 408.32 93.0195C408.77 93.0195 409.174 92.9023 409.533 92.668C409.893 92.4336 410.072 92.0723 410.072 91.584C410.072 91.1973 409.941 90.877 409.68 90.623C409.418 90.3691 409.08 90.2422 408.666 90.2422C408.256 90.2422 407.914 90.3711 407.641 90.6289C407.367 90.8867 407.191 91.2734 407.113 91.7891L406.059 91.6016C406.188 90.8945 406.48 90.3477 406.938 89.9609C407.395 89.5703 407.963 89.375 408.643 89.375C409.111 89.375 409.543 89.4766 409.938 89.6797C410.332 89.8789 410.633 90.1523 410.84 90.5C411.051 90.8477 411.156 91.2168 411.156 91.6074C411.156 91.9785 411.057 92.3164 410.857 92.6211C410.658 92.9258 410.363 93.168 409.973 93.3477C410.48 93.4648 410.875 93.709 411.156 94.0801C411.438 94.4473 411.578 94.9082 411.578 95.4629C411.578 96.2129 411.305 96.8496 410.758 97.373C410.211 97.8926 409.52 98.1523 408.684 98.1523C407.93 98.1523 407.303 97.9277 406.803 97.4785C406.307 97.0293 406.023 96.4473 405.953 95.7324ZM412.826 91.4727C412.826 90.8594 412.98 90.3379 413.289 89.9082C413.598 89.4785 414.045 89.2637 414.631 89.2637C415.17 89.2637 415.615 89.457 415.967 89.8438C416.322 90.2266 416.5 90.791 416.5 91.5371C416.5 92.2637 416.32 92.8242 415.961 93.2188C415.605 93.6094 415.166 93.8047 414.643 93.8047C414.123 93.8047 413.689 93.6113 413.342 93.2246C412.998 92.8379 412.826 92.2539 412.826 91.4727ZM414.66 89.9902C414.398 89.9902 414.18 90.1035 414.004 90.3301C413.832 90.5566 413.746 90.9727 413.746 91.5781C413.746 92.1289 413.834 92.5176 414.01 92.7441C414.186 92.9668 414.402 93.0781 414.66 93.0781C414.926 93.0781 415.145 92.9648 415.316 92.7383C415.492 92.5117 415.58 92.0977 415.58 91.4961C415.58 90.9414 415.492 90.5527 415.316 90.3301C415.141 90.1035 414.922 89.9902 414.66 89.9902ZM414.666 98.3164L419.365 89.2637H420.221L415.539 98.3164H414.666ZM418.381 95.9844C418.381 95.3672 418.535 94.8457 418.844 94.4199C419.152 93.9902 419.602 93.7754 420.191 93.7754C420.73 93.7754 421.176 93.9688 421.527 94.3555C421.883 94.7383 422.061 95.3027 422.061 96.0488C422.061 96.7754 421.881 97.3359 421.521 97.7305C421.166 98.1211 420.725 98.3164 420.197 98.3164C419.678 98.3164 419.244 98.123 418.896 97.7363C418.553 97.3457 418.381 96.7617 418.381 95.9844ZM420.221 94.502C419.955 94.502 419.734 94.6152 419.559 94.8418C419.387 95.0684 419.301 95.4844 419.301 96.0898C419.301 96.6367 419.389 97.0234 419.564 97.25C419.74 97.4766 419.957 97.5898 420.215 97.5898C420.484 97.5898 420.705 97.4766 420.877 97.25C421.053 97.0234 421.141 96.6094 421.141 96.0078C421.141 95.4531 421.053 95.0645 420.877 94.8418C420.701 94.6152 420.482 94.502 420.221 94.502ZM424.287 100.525H423.531C424.699 98.6504 425.283 96.7734 425.283 94.8945C425.283 94.1602 425.199 93.4316 425.031 92.709C424.898 92.123 424.713 91.5605 424.475 91.0215C424.322 90.6699 424.008 90.084 423.531 89.2637H424.287C425.021 90.2441 425.564 91.2285 425.916 92.2168C426.217 93.0684 426.367 93.959 426.367 94.8887C426.367 95.9434 426.164 96.9629 425.758 97.9473C425.355 98.9316 424.865 99.791 424.287 100.525Z" fill="black"/>
<path d="M317 112H303C301.343 112 300 113.343 300 115V129C300 130.657 301.343 132 303 132H317C318.657 132 320 130.657 320 129V115C320 113.343 318.657 112 317 112Z" fill="url(#paint6_linear_55_82)"/>
<path d="M325.949 126V117.41H332.16V118.424H327.086V121.055H331.838V122.062H327.086V124.986H332.359V126H325.949ZM333.918 126V117.41H335.084L339.596 124.154V117.41H340.686V126H339.52L335.008 119.25V126H333.918ZM342.66 126V117.41H348.455V118.424H343.797V121.084H347.828V122.098H343.797V126H342.66ZM349.357 123.562L350.383 123.422C350.41 124.078 350.533 124.527 350.752 124.77C350.971 125.012 351.273 125.133 351.66 125.133C351.945 125.133 352.191 125.068 352.398 124.939C352.605 124.807 352.748 124.629 352.826 124.406C352.904 124.18 352.943 123.82 352.943 123.328V117.41H354.08V123.264C354.08 123.982 353.992 124.539 353.816 124.934C353.645 125.328 353.369 125.629 352.99 125.836C352.615 126.043 352.174 126.146 351.666 126.146C350.912 126.146 350.334 125.93 349.932 125.496C349.533 125.062 349.342 124.418 349.357 123.562ZM356.096 120.979V119.777H357.297V120.979H356.096ZM356.096 126V124.799H357.297V126H356.096ZM366.162 126H365.107V119.279C364.854 119.521 364.52 119.764 364.105 120.006C363.695 120.248 363.326 120.43 362.998 120.551V119.531C363.588 119.254 364.104 118.918 364.545 118.523C364.986 118.129 365.299 117.746 365.482 117.375H366.162V126ZM374.143 117.84H377.275V118.644H374.143V117.84ZM374.143 119.988H377.299V120.804H374.143V119.988ZM376.903 116.076H377.899V122.496H376.903V116.076ZM369.475 116.904H374.419V121.728H369.475V116.904ZM373.447 117.708H370.447V120.924H373.447V117.708ZM374.323 122.82C375.443 122.82 376.323 123 376.963 123.36C377.611 123.72 377.935 124.224 377.935 124.872C377.935 125.52 377.611 126.02 376.963 126.372C376.323 126.732 375.443 126.912 374.323 126.912C373.203 126.912 372.319 126.732 371.671 126.372C371.031 126.02 370.711 125.52 370.711 124.872C370.711 124.224 371.031 123.72 371.671 123.36C372.319 123 373.203 122.82 374.323 122.82ZM374.323 123.6C373.779 123.6 373.311 123.652 372.919 123.756C372.527 123.852 372.223 123.996 372.007 124.188C371.799 124.372 371.695 124.6 371.695 124.872C371.695 125.128 371.799 125.352 372.007 125.544C372.223 125.728 372.527 125.872 372.919 125.976C373.311 126.08 373.779 126.132 374.323 126.132C374.875 126.132 375.343 126.08 375.727 125.976C376.119 125.872 376.419 125.728 376.627 125.544C376.843 125.352 376.951 125.128 376.951 124.872C376.951 124.6 376.843 124.372 376.627 124.188C376.419 123.996 376.119 123.852 375.727 123.756C375.343 123.652 374.875 123.6 374.323 123.6ZM385.557 128.525C384.975 127.791 384.482 126.932 384.08 125.947C383.678 124.963 383.477 123.943 383.477 122.889C383.477 121.959 383.627 121.068 383.928 120.217C384.279 119.229 384.822 118.244 385.557 117.264H386.312C385.84 118.076 385.527 118.656 385.375 119.004C385.137 119.543 384.949 120.105 384.812 120.691C384.645 121.422 384.561 122.156 384.561 122.895C384.561 124.773 385.145 126.65 386.312 128.525H385.557ZM391.217 126H390.162V119.279C389.908 119.521 389.574 119.764 389.16 120.006C388.75 120.248 388.381 120.43 388.053 120.551V119.531C388.643 119.254 389.158 118.918 389.6 118.523C390.041 118.129 390.354 117.746 390.537 117.375H391.217V126ZM399.396 119.514L398.348 119.596C398.254 119.182 398.121 118.881 397.949 118.693C397.664 118.393 397.312 118.242 396.895 118.242C396.559 118.242 396.264 118.336 396.01 118.523C395.678 118.766 395.416 119.119 395.225 119.584C395.033 120.049 394.934 120.711 394.926 121.57C395.18 121.184 395.49 120.896 395.857 120.709C396.225 120.521 396.609 120.428 397.012 120.428C397.715 120.428 398.312 120.688 398.805 121.207C399.301 121.723 399.549 122.391 399.549 123.211C399.549 123.75 399.432 124.252 399.197 124.717C398.967 125.178 398.648 125.531 398.242 125.777C397.836 126.023 397.375 126.146 396.859 126.146C395.98 126.146 395.264 125.824 394.709 125.18C394.154 124.531 393.877 123.465 393.877 121.98C393.877 120.32 394.184 119.113 394.797 118.359C395.332 117.703 396.053 117.375 396.959 117.375C397.635 117.375 398.188 117.564 398.617 117.943C399.051 118.322 399.311 118.846 399.396 119.514ZM395.09 123.217C395.09 123.58 395.166 123.928 395.318 124.26C395.475 124.592 395.691 124.846 395.969 125.021C396.246 125.193 396.537 125.279 396.842 125.279C397.287 125.279 397.67 125.1 397.99 124.74C398.311 124.381 398.471 123.893 398.471 123.275C398.471 122.682 398.312 122.215 397.996 121.875C397.68 121.531 397.281 121.359 396.801 121.359C396.324 121.359 395.92 121.531 395.588 121.875C395.256 122.215 395.09 122.662 395.09 123.217ZM401.195 126V124.799H402.396V126H401.195ZM404.014 118.535V117.521H409.574V118.342C409.027 118.924 408.484 119.697 407.945 120.662C407.41 121.627 406.996 122.619 406.703 123.639C406.492 124.357 406.357 125.145 406.299 126H405.215C405.227 125.324 405.359 124.508 405.613 123.551C405.867 122.594 406.23 121.672 406.703 120.785C407.18 119.895 407.686 119.145 408.221 118.535H404.014ZM410.822 119.473C410.822 118.859 410.977 118.338 411.285 117.908C411.594 117.479 412.041 117.264 412.627 117.264C413.166 117.264 413.611 117.457 413.963 117.844C414.318 118.227 414.496 118.791 414.496 119.537C414.496 120.264 414.316 120.824 413.957 121.219C413.602 121.609 413.162 121.805 412.639 121.805C412.119 121.805 411.686 121.611 411.338 121.225C410.994 120.838 410.822 120.254 410.822 119.473ZM412.656 117.99C412.395 117.99 412.176 118.104 412 118.33C411.828 118.557 411.742 118.973 411.742 119.578C411.742 120.129 411.83 120.518 412.006 120.744C412.182 120.967 412.398 121.078 412.656 121.078C412.922 121.078 413.141 120.965 413.312 120.738C413.488 120.512 413.576 120.098 413.576 119.496C413.576 118.941 413.488 118.553 413.312 118.33C413.137 118.104 412.918 117.99 412.656 117.99ZM412.662 126.316L417.361 117.264H418.217L413.535 126.316H412.662ZM416.377 123.984C416.377 123.367 416.531 122.846 416.84 122.42C417.148 121.99 417.598 121.775 418.188 121.775C418.727 121.775 419.172 121.969 419.523 122.355C419.879 122.738 420.057 123.303 420.057 124.049C420.057 124.775 419.877 125.336 419.518 125.73C419.162 126.121 418.721 126.316 418.193 126.316C417.674 126.316 417.24 126.123 416.893 125.736C416.549 125.346 416.377 124.762 416.377 123.984ZM418.217 122.502C417.951 122.502 417.73 122.615 417.555 122.842C417.383 123.068 417.297 123.484 417.297 124.09C417.297 124.637 417.385 125.023 417.561 125.25C417.736 125.477 417.953 125.59 418.211 125.59C418.48 125.59 418.701 125.477 418.873 125.25C419.049 125.023 419.137 124.609 419.137 124.008C419.137 123.453 419.049 123.064 418.873 122.842C418.697 122.615 418.479 122.502 418.217 122.502ZM422.283 128.525H421.527C422.695 126.65 423.279 124.773 423.279 122.895C423.279 122.16 423.195 121.432 423.027 120.709C422.895 120.123 422.709 119.561 422.471 119.021C422.318 118.67 422.004 118.084 421.527 117.264H422.283C423.018 118.244 423.561 119.229 423.912 120.217C424.213 121.068 424.363 121.959 424.363 122.889C424.363 123.943 424.16 124.963 423.754 125.947C423.352 126.932 422.861 127.791 422.283 128.525Z" fill="black"/>
<path d="M317 140H303C301.343 140 300 141.343 300 143V157C300 158.657 301.343 160 303 160H317C318.657 160 320 158.657 320 157V143C320 141.343 318.657 140 317 140Z" fill="url(#paint7_linear_55_82)"/>
<path d="M325.949 154V145.41H332.16V146.424H327.086V149.055H331.838V150.062H327.086V152.986H332.359V154H325.949ZM333.543 151.24L334.615 151.146C334.666 151.576 334.783 151.93 334.967 152.207C335.154 152.48 335.443 152.703 335.834 152.875C336.225 153.043 336.664 153.127 337.152 153.127C337.586 153.127 337.969 153.062 338.301 152.934C338.633 152.805 338.879 152.629 339.039 152.406C339.203 152.18 339.285 151.934 339.285 151.668C339.285 151.398 339.207 151.164 339.051 150.965C338.895 150.762 338.637 150.592 338.277 150.455C338.047 150.365 337.537 150.227 336.748 150.039C335.959 149.848 335.406 149.668 335.09 149.5C334.68 149.285 334.373 149.02 334.17 148.703C333.971 148.383 333.871 148.025 333.871 147.631C333.871 147.197 333.994 146.793 334.24 146.418C334.486 146.039 334.846 145.752 335.318 145.557C335.791 145.361 336.316 145.264 336.895 145.264C337.531 145.264 338.092 145.367 338.576 145.574C339.064 145.777 339.439 146.078 339.701 146.477C339.963 146.875 340.104 147.326 340.123 147.83L339.033 147.912C338.975 147.369 338.775 146.959 338.436 146.682C338.1 146.404 337.602 146.266 336.941 146.266C336.254 146.266 335.752 146.393 335.436 146.646C335.123 146.896 334.967 147.199 334.967 147.555C334.967 147.863 335.078 148.117 335.301 148.316C335.52 148.516 336.09 148.721 337.012 148.932C337.938 149.139 338.572 149.32 338.916 149.477C339.416 149.707 339.785 150 340.023 150.355C340.262 150.707 340.381 151.113 340.381 151.574C340.381 152.031 340.25 152.463 339.988 152.869C339.727 153.271 339.35 153.586 338.857 153.812C338.369 154.035 337.818 154.146 337.205 154.146C336.428 154.146 335.775 154.033 335.248 153.807C334.725 153.58 334.312 153.24 334.012 152.787C333.715 152.33 333.559 151.814 333.543 151.24ZM344.119 154V146.424H341.289V145.41H348.098V146.424H345.256V154H344.119ZM349.27 154V145.41H352.51C353.08 145.41 353.516 145.438 353.816 145.492C354.238 145.562 354.592 145.697 354.877 145.896C355.162 146.092 355.391 146.367 355.562 146.723C355.738 147.078 355.826 147.469 355.826 147.895C355.826 148.625 355.594 149.244 355.129 149.752C354.664 150.256 353.824 150.508 352.609 150.508H350.406V154H349.27ZM350.406 149.494H352.627C353.361 149.494 353.883 149.357 354.191 149.084C354.5 148.811 354.654 148.426 354.654 147.93C354.654 147.57 354.562 147.264 354.379 147.01C354.199 146.752 353.961 146.582 353.664 146.5C353.473 146.449 353.119 146.424 352.604 146.424H350.406V149.494ZM357.432 148.979V147.777H358.633V148.979H357.432ZM357.432 154V152.799H358.633V154H357.432ZM367.498 154H366.443V147.279C366.189 147.521 365.855 147.764 365.441 148.006C365.031 148.248 364.662 148.43 364.334 148.551V147.531C364.924 147.254 365.439 146.918 365.881 146.523C366.322 146.129 366.635 145.746 366.818 145.375H367.498V154ZM375.479 145.84H378.611V146.644H375.479V145.84ZM375.479 147.988H378.635V148.804H375.479V147.988ZM378.239 144.076H379.235V150.496H378.239V144.076ZM370.811 144.904H375.755V149.728H370.811V144.904ZM374.783 145.708H371.783V148.924H374.783V145.708ZM375.659 150.82C376.779 150.82 377.659 151 378.299 151.36C378.947 151.72 379.271 152.224 379.271 152.872C379.271 153.52 378.947 154.02 378.299 154.372C377.659 154.732 376.779 154.912 375.659 154.912C374.539 154.912 373.655 154.732 373.007 154.372C372.367 154.02 372.047 153.52 372.047 152.872C372.047 152.224 372.367 151.72 373.007 151.36C373.655 151 374.539 150.82 375.659 150.82ZM375.659 151.6C375.115 151.6 374.647 151.652 374.255 151.756C373.863 151.852 373.559 151.996 373.343 152.188C373.135 152.372 373.031 152.6 373.031 152.872C373.031 153.128 373.135 153.352 373.343 153.544C373.559 153.728 373.863 153.872 374.255 153.976C374.647 154.08 375.115 154.132 375.659 154.132C376.211 154.132 376.679 154.08 377.063 153.976C377.455 153.872 377.755 153.728 377.963 153.544C378.179 153.352 378.287 153.128 378.287 152.872C378.287 152.6 378.179 152.372 377.963 152.188C377.755 151.996 377.455 151.852 377.063 151.756C376.679 151.652 376.211 151.6 375.659 151.6ZM386.893 156.525C386.311 155.791 385.818 154.932 385.416 153.947C385.014 152.963 384.812 151.943 384.812 150.889C384.812 149.959 384.963 149.068 385.264 148.217C385.615 147.229 386.158 146.244 386.893 145.264H387.648C387.176 146.076 386.863 146.656 386.711 147.004C386.473 147.543 386.285 148.105 386.148 148.691C385.98 149.422 385.896 150.156 385.896 150.895C385.896 152.773 386.48 154.65 387.648 156.525H386.893ZM392.553 154H391.498V147.279C391.244 147.521 390.91 147.764 390.496 148.006C390.086 148.248 389.717 148.43 389.389 148.551V147.531C389.979 147.254 390.494 146.918 390.936 146.523C391.377 146.129 391.689 145.746 391.873 145.375H392.553V154ZM400.732 147.514L399.684 147.596C399.59 147.182 399.457 146.881 399.285 146.693C399 146.393 398.648 146.242 398.23 146.242C397.895 146.242 397.6 146.336 397.346 146.523C397.014 146.766 396.752 147.119 396.561 147.584C396.369 148.049 396.27 148.711 396.262 149.57C396.516 149.184 396.826 148.896 397.193 148.709C397.561 148.521 397.945 148.428 398.348 148.428C399.051 148.428 399.648 148.688 400.141 149.207C400.637 149.723 400.885 150.391 400.885 151.211C400.885 151.75 400.768 152.252 400.533 152.717C400.303 153.178 399.984 153.531 399.578 153.777C399.172 154.023 398.711 154.146 398.195 154.146C397.316 154.146 396.6 153.824 396.045 153.18C395.49 152.531 395.213 151.465 395.213 149.98C395.213 148.32 395.52 147.113 396.133 146.359C396.668 145.703 397.389 145.375 398.295 145.375C398.971 145.375 399.523 145.564 399.953 145.943C400.387 146.322 400.646 146.846 400.732 147.514ZM396.426 151.217C396.426 151.58 396.502 151.928 396.654 152.26C396.811 152.592 397.027 152.846 397.305 153.021C397.582 153.193 397.873 153.279 398.178 153.279C398.623 153.279 399.006 153.1 399.326 152.74C399.646 152.381 399.807 151.893 399.807 151.275C399.807 150.682 399.648 150.215 399.332 149.875C399.016 149.531 398.617 149.359 398.137 149.359C397.66 149.359 397.256 149.531 396.924 149.875C396.592 150.215 396.426 150.662 396.426 151.217ZM402.531 154V152.799H403.732V154H402.531ZM405.35 146.535V145.521H410.91V146.342C410.363 146.924 409.82 147.697 409.281 148.662C408.746 149.627 408.332 150.619 408.039 151.639C407.828 152.357 407.693 153.145 407.635 154H406.551C406.562 153.324 406.695 152.508 406.949 151.551C407.203 150.594 407.566 149.672 408.039 148.785C408.516 147.895 409.021 147.145 409.557 146.535H405.35ZM412.158 147.473C412.158 146.859 412.312 146.338 412.621 145.908C412.93 145.479 413.377 145.264 413.963 145.264C414.502 145.264 414.947 145.457 415.299 145.844C415.654 146.227 415.832 146.791 415.832 147.537C415.832 148.264 415.652 148.824 415.293 149.219C414.938 149.609 414.498 149.805 413.975 149.805C413.455 149.805 413.021 149.611 412.674 149.225C412.33 148.838 412.158 148.254 412.158 147.473ZM413.992 145.99C413.73 145.99 413.512 146.104 413.336 146.33C413.164 146.557 413.078 146.973 413.078 147.578C413.078 148.129 413.166 148.518 413.342 148.744C413.518 148.967 413.734 149.078 413.992 149.078C414.258 149.078 414.477 148.965 414.648 148.738C414.824 148.512 414.912 148.098 414.912 147.496C414.912 146.941 414.824 146.553 414.648 146.33C414.473 146.104 414.254 145.99 413.992 145.99ZM413.998 154.316L418.697 145.264H419.553L414.871 154.316H413.998ZM417.713 151.984C417.713 151.367 417.867 150.846 418.176 150.42C418.484 149.99 418.934 149.775 419.523 149.775C420.062 149.775 420.508 149.969 420.859 150.355C421.215 150.738 421.393 151.303 421.393 152.049C421.393 152.775 421.213 153.336 420.854 153.73C420.498 154.121 420.057 154.316 419.529 154.316C419.01 154.316 418.576 154.123 418.229 153.736C417.885 153.346 417.713 152.762 417.713 151.984ZM419.553 150.502C419.287 150.502 419.066 150.615 418.891 150.842C418.719 151.068 418.633 151.484 418.633 152.09C418.633 152.637 418.721 153.023 418.896 153.25C419.072 153.477 419.289 153.59 419.547 153.59C419.816 153.59 420.037 153.477 420.209 153.25C420.385 153.023 420.473 152.609 420.473 152.008C420.473 151.453 420.385 151.064 420.209 150.842C420.033 150.615 419.814 150.502 419.553 150.502ZM423.619 156.525H422.863C424.031 154.65 424.615 152.773 424.615 150.895C424.615 150.16 424.531 149.432 424.363 148.709C424.23 148.123 424.045 147.561 423.807 147.021C423.654 146.67 423.34 146.084 422.863 145.264H423.619C424.354 146.244 424.896 147.229 425.248 148.217C425.549 149.068 425.699 149.959 425.699 150.889C425.699 151.943 425.496 152.963 425.09 153.947C424.688 154.932 424.197 155.791 423.619 156.525Z" fill="black"/>
<path d="M317 168H303C301.343 168 300 169.343 300 171V185C300 186.657 301.343 188 303 188H317C318.657 188 320 186.657 320 185V171C320 169.343 318.657 168 317 168Z" fill="url(#paint8_linear_55_82)"/>
<path d="M326.119 182V173.41H327.256V182H326.119ZM329.254 182V173.41H330.42L334.932 180.154V173.41H336.021V182H334.855L330.344 175.25V182H329.254ZM340.123 182V174.424H337.293V173.41H344.102V174.424H341.26V182H340.123ZM345.273 182V173.41H348.514C349.084 173.41 349.52 173.438 349.82 173.492C350.242 173.562 350.596 173.697 350.881 173.896C351.166 174.092 351.395 174.367 351.566 174.723C351.742 175.078 351.83 175.469 351.83 175.895C351.83 176.625 351.598 177.244 351.133 177.752C350.668 178.256 349.828 178.508 348.613 178.508H346.41V182H345.273ZM346.41 177.494H348.631C349.365 177.494 349.887 177.357 350.195 177.084C350.504 176.811 350.658 176.426 350.658 175.93C350.658 175.57 350.566 175.264 350.383 175.01C350.203 174.752 349.965 174.582 349.668 174.5C349.477 174.449 349.123 174.424 348.607 174.424H346.41V177.494ZM353.436 176.979V175.777H354.637V176.979H353.436ZM353.436 182V180.799H354.637V182H353.436ZM363.502 182H362.447V175.279C362.193 175.521 361.859 175.764 361.445 176.006C361.035 176.248 360.666 176.43 360.338 176.551V175.531C360.928 175.254 361.443 174.918 361.885 174.523C362.326 174.129 362.639 173.746 362.822 173.375H363.502V182ZM371.483 173.84H374.615V174.644H371.483V173.84ZM371.483 175.988H374.639V176.804H371.483V175.988ZM374.243 172.076H375.239V178.496H374.243V172.076ZM366.815 172.904H371.759V177.728H366.815V172.904ZM370.787 173.708H367.787V176.924H370.787V173.708ZM371.663 178.82C372.783 178.82 373.663 179 374.303 179.36C374.951 179.72 375.275 180.224 375.275 180.872C375.275 181.52 374.951 182.02 374.303 182.372C373.663 182.732 372.783 182.912 371.663 182.912C370.543 182.912 369.659 182.732 369.011 182.372C368.371 182.02 368.051 181.52 368.051 180.872C368.051 180.224 368.371 179.72 369.011 179.36C369.659 179 370.543 178.82 371.663 178.82ZM371.663 179.6C371.119 179.6 370.651 179.652 370.259 179.756C369.867 179.852 369.563 179.996 369.347 180.188C369.139 180.372 369.035 180.6 369.035 180.872C369.035 181.128 369.139 181.352 369.347 181.544C369.563 181.728 369.867 181.872 370.259 181.976C370.651 182.08 371.119 182.132 371.663 182.132C372.215 182.132 372.683 182.08 373.067 181.976C373.459 181.872 373.759 181.728 373.967 181.544C374.183 181.352 374.291 181.128 374.291 180.872C374.291 180.6 374.183 180.372 373.967 180.188C373.759 179.996 373.459 179.852 373.067 179.756C372.683 179.652 372.215 179.6 371.663 179.6ZM382.896 184.525C382.314 183.791 381.822 182.932 381.42 181.947C381.018 180.963 380.816 179.943 380.816 178.889C380.816 177.959 380.967 177.068 381.268 176.217C381.619 175.229 382.162 174.244 382.896 173.264H383.652C383.18 174.076 382.867 174.656 382.715 175.004C382.477 175.543 382.289 176.105 382.152 176.691C381.984 177.422 381.9 178.156 381.9 178.895C381.9 180.773 382.484 182.65 383.652 184.525H382.896ZM388.557 182H387.502V175.279C387.248 175.521 386.914 175.764 386.5 176.006C386.09 176.248 385.721 176.43 385.393 176.551V175.531C385.982 175.254 386.498 174.918 386.939 174.523C387.381 174.129 387.693 173.746 387.877 173.375H388.557V182ZM396.736 175.514L395.688 175.596C395.594 175.182 395.461 174.881 395.289 174.693C395.004 174.393 394.652 174.242 394.234 174.242C393.898 174.242 393.604 174.336 393.35 174.523C393.018 174.766 392.756 175.119 392.564 175.584C392.373 176.049 392.273 176.711 392.266 177.57C392.52 177.184 392.83 176.896 393.197 176.709C393.564 176.521 393.949 176.428 394.352 176.428C395.055 176.428 395.652 176.688 396.145 177.207C396.641 177.723 396.889 178.391 396.889 179.211C396.889 179.75 396.771 180.252 396.537 180.717C396.307 181.178 395.988 181.531 395.582 181.777C395.176 182.023 394.715 182.146 394.199 182.146C393.32 182.146 392.604 181.824 392.049 181.18C391.494 180.531 391.217 179.465 391.217 177.98C391.217 176.32 391.523 175.113 392.137 174.359C392.672 173.703 393.393 173.375 394.299 173.375C394.975 173.375 395.527 173.564 395.957 173.943C396.391 174.322 396.65 174.846 396.736 175.514ZM392.43 179.217C392.43 179.58 392.506 179.928 392.658 180.26C392.814 180.592 393.031 180.846 393.309 181.021C393.586 181.193 393.877 181.279 394.182 181.279C394.627 181.279 395.01 181.1 395.33 180.74C395.65 180.381 395.811 179.893 395.811 179.275C395.811 178.682 395.652 178.215 395.336 177.875C395.02 177.531 394.621 177.359 394.141 177.359C393.664 177.359 393.26 177.531 392.928 177.875C392.596 178.215 392.43 178.662 392.43 179.217ZM398.535 182V180.799H399.736V182H398.535ZM401.354 174.535V173.521H406.914V174.342C406.367 174.924 405.824 175.697 405.285 176.662C404.75 177.627 404.336 178.619 404.043 179.639C403.832 180.357 403.697 181.145 403.639 182H402.555C402.566 181.324 402.699 180.508 402.953 179.551C403.207 178.594 403.57 177.672 404.043 176.785C404.52 175.895 405.025 175.145 405.561 174.535H401.354ZM408.162 175.473C408.162 174.859 408.316 174.338 408.625 173.908C408.934 173.479 409.381 173.264 409.967 173.264C410.506 173.264 410.951 173.457 411.303 173.844C411.658 174.227 411.836 174.791 411.836 175.537C411.836 176.264 411.656 176.824 411.297 177.219C410.941 177.609 410.502 177.805 409.979 177.805C409.459 177.805 409.025 177.611 408.678 177.225C408.334 176.838 408.162 176.254 408.162 175.473ZM409.996 173.99C409.734 173.99 409.516 174.104 409.34 174.33C409.168 174.557 409.082 174.973 409.082 175.578C409.082 176.129 409.17 176.518 409.346 176.744C409.521 176.967 409.738 177.078 409.996 177.078C410.262 177.078 410.48 176.965 410.652 176.738C410.828 176.512 410.916 176.098 410.916 175.496C410.916 174.941 410.828 174.553 410.652 174.33C410.477 174.104 410.258 173.99 409.996 173.99ZM410.002 182.316L414.701 173.264H415.557L410.875 182.316H410.002ZM413.717 179.984C413.717 179.367 413.871 178.846 414.18 178.42C414.488 177.99 414.938 177.775 415.527 177.775C416.066 177.775 416.512 177.969 416.863 178.355C417.219 178.738 417.396 179.303 417.396 180.049C417.396 180.775 417.217 181.336 416.857 181.73C416.502 182.121 416.061 182.316 415.533 182.316C415.014 182.316 414.58 182.123 414.232 181.736C413.889 181.346 413.717 180.762 413.717 179.984ZM415.557 178.502C415.291 178.502 415.07 178.615 414.895 178.842C414.723 179.068 414.637 179.484 414.637 180.09C414.637 180.637 414.725 181.023 414.9 181.25C415.076 181.477 415.293 181.59 415.551 181.59C415.82 181.59 416.041 181.477 416.213 181.25C416.389 181.023 416.477 180.609 416.477 180.008C416.477 179.453 416.389 179.064 416.213 178.842C416.037 178.615 415.818 178.502 415.557 178.502ZM419.623 184.525H418.867C420.035 182.65 420.619 180.773 420.619 178.895C420.619 178.16 420.535 177.432 420.367 176.709C420.234 176.123 420.049 175.561 419.811 175.021C419.658 174.67 419.344 174.084 418.867 173.264H419.623C420.357 174.244 420.9 175.229 421.252 176.217C421.553 177.068 421.703 177.959 421.703 178.889C421.703 179.943 421.5 180.963 421.094 181.947C420.691 182.932 420.201 183.791 419.623 184.525Z" fill="black"/>
<path d="M317 196H303C301.343 196 300 197.343 300 199V213C300 214.657 301.343 216 303 216H317C318.657 216 320 214.657 320 213V199C320 197.343 318.657 196 317 196Z" fill="url(#paint9_linear_55_82)"/>
<path d="M326.119 210V201.41H327.256V210H326.119ZM328.879 207.24L329.951 207.146C330.002 207.576 330.119 207.93 330.303 208.207C330.49 208.48 330.779 208.703 331.17 208.875C331.561 209.043 332 209.127 332.488 209.127C332.922 209.127 333.305 209.062 333.637 208.934C333.969 208.805 334.215 208.629 334.375 208.406C334.539 208.18 334.621 207.934 334.621 207.668C334.621 207.398 334.543 207.164 334.387 206.965C334.23 206.762 333.973 206.592 333.613 206.455C333.383 206.365 332.873 206.227 332.084 206.039C331.295 205.848 330.742 205.668 330.426 205.5C330.016 205.285 329.709 205.02 329.506 204.703C329.307 204.383 329.207 204.025 329.207 203.631C329.207 203.197 329.33 202.793 329.576 202.418C329.822 202.039 330.182 201.752 330.654 201.557C331.127 201.361 331.652 201.264 332.23 201.264C332.867 201.264 333.428 201.367 333.912 201.574C334.4 201.777 334.775 202.078 335.037 202.477C335.299 202.875 335.439 203.326 335.459 203.83L334.369 203.912C334.311 203.369 334.111 202.959 333.771 202.682C333.436 202.404 332.938 202.266 332.277 202.266C331.59 202.266 331.088 202.393 330.771 202.646C330.459 202.896 330.303 203.199 330.303 203.555C330.303 203.863 330.414 204.117 330.637 204.316C330.855 204.516 331.426 204.721 332.348 204.932C333.273 205.139 333.908 205.32 334.252 205.477C334.752 205.707 335.121 206 335.359 206.355C335.598 206.707 335.717 207.113 335.717 207.574C335.717 208.031 335.586 208.463 335.324 208.869C335.062 209.271 334.686 209.586 334.193 209.812C333.705 210.035 333.154 210.146 332.541 210.146C331.764 210.146 331.111 210.033 330.584 209.807C330.061 209.58 329.648 209.24 329.348 208.787C329.051 208.33 328.895 207.814 328.879 207.24ZM339.455 210V202.424H336.625V201.41H343.434V202.424H340.592V210H339.455ZM344.025 207.562L345.051 207.422C345.078 208.078 345.201 208.527 345.42 208.77C345.639 209.012 345.941 209.133 346.328 209.133C346.613 209.133 346.859 209.068 347.066 208.939C347.273 208.807 347.416 208.629 347.494 208.406C347.572 208.18 347.611 207.82 347.611 207.328V201.41H348.748V207.264C348.748 207.982 348.66 208.539 348.484 208.934C348.312 209.328 348.037 209.629 347.658 209.836C347.283 210.043 346.842 210.146 346.334 210.146C345.58 210.146 345.002 209.93 344.6 209.496C344.201 209.062 344.01 208.418 344.025 207.562ZM350.764 204.979V203.777H351.965V204.979H350.764ZM350.764 210V208.799H351.965V210H350.764ZM360.83 210H359.775V203.279C359.521 203.521 359.188 203.764 358.773 204.006C358.363 204.248 357.994 204.43 357.666 204.551V203.531C358.256 203.254 358.771 202.918 359.213 202.523C359.654 202.129 359.967 201.746 360.15 201.375H360.83V210ZM368.811 201.84H371.943V202.644H368.811V201.84ZM368.811 203.988H371.967V204.804H368.811V203.988ZM371.571 200.076H372.567V206.496H371.571V200.076ZM364.143 200.904H369.087V205.728H364.143V200.904ZM368.115 201.708H365.115V204.924H368.115V201.708ZM368.991 206.82C370.111 206.82 370.991 207 371.631 207.36C372.279 207.72 372.603 208.224 372.603 208.872C372.603 209.52 372.279 210.02 371.631 210.372C370.991 210.732 370.111 210.912 368.991 210.912C367.871 210.912 366.987 210.732 366.339 210.372C365.699 210.02 365.379 209.52 365.379 208.872C365.379 208.224 365.699 207.72 366.339 207.36C366.987 207 367.871 206.82 368.991 206.82ZM368.991 207.6C368.447 207.6 367.979 207.652 367.587 207.756C367.195 207.852 366.891 207.996 366.675 208.188C366.467 208.372 366.363 208.6 366.363 208.872C366.363 209.128 366.467 209.352 366.675 209.544C366.891 209.728 367.195 209.872 367.587 209.976C367.979 210.08 368.447 210.132 368.991 210.132C369.543 210.132 370.011 210.08 370.395 209.976C370.787 209.872 371.087 209.728 371.295 209.544C371.511 209.352 371.619 209.128 371.619 208.872C371.619 208.6 371.511 208.372 371.295 208.188C371.087 207.996 370.787 207.852 370.395 207.756C370.011 207.652 369.543 207.6 368.991 207.6ZM380.225 212.525C379.643 211.791 379.15 210.932 378.748 209.947C378.346 208.963 378.145 207.943 378.145 206.889C378.145 205.959 378.295 205.068 378.596 204.217C378.947 203.229 379.49 202.244 380.225 201.264H380.98C380.508 202.076 380.195 202.656 380.043 203.004C379.805 203.543 379.617 204.105 379.48 204.691C379.312 205.422 379.229 206.156 379.229 206.895C379.229 208.773 379.812 210.65 380.98 212.525H380.225ZM385.885 210H384.83V203.279C384.576 203.521 384.242 203.764 383.828 204.006C383.418 204.248 383.049 204.43 382.721 204.551V203.531C383.311 203.254 383.826 202.918 384.268 202.523C384.709 202.129 385.021 201.746 385.205 201.375H385.885V210ZM394.064 203.514L393.016 203.596C392.922 203.182 392.789 202.881 392.617 202.693C392.332 202.393 391.98 202.242 391.562 202.242C391.227 202.242 390.932 202.336 390.678 202.523C390.346 202.766 390.084 203.119 389.893 203.584C389.701 204.049 389.602 204.711 389.594 205.57C389.848 205.184 390.158 204.896 390.525 204.709C390.893 204.521 391.277 204.428 391.68 204.428C392.383 204.428 392.98 204.688 393.473 205.207C393.969 205.723 394.217 206.391 394.217 207.211C394.217 207.75 394.1 208.252 393.865 208.717C393.635 209.178 393.316 209.531 392.91 209.777C392.504 210.023 392.043 210.146 391.527 210.146C390.648 210.146 389.932 209.824 389.377 209.18C388.822 208.531 388.545 207.465 388.545 205.98C388.545 204.32 388.852 203.113 389.465 202.359C390 201.703 390.721 201.375 391.627 201.375C392.303 201.375 392.855 201.564 393.285 201.943C393.719 202.322 393.979 202.846 394.064 203.514ZM389.758 207.217C389.758 207.58 389.834 207.928 389.986 208.26C390.143 208.592 390.359 208.846 390.637 209.021C390.914 209.193 391.205 209.279 391.51 209.279C391.955 209.279 392.338 209.1 392.658 208.74C392.979 208.381 393.139 207.893 393.139 207.275C393.139 206.682 392.98 206.215 392.664 205.875C392.348 205.531 391.949 205.359 391.469 205.359C390.992 205.359 390.588 205.531 390.256 205.875C389.924 206.215 389.758 206.662 389.758 207.217ZM395.863 210V208.799H397.064V210H395.863ZM398.682 202.535V201.521H404.242V202.342C403.695 202.924 403.152 203.697 402.613 204.662C402.078 205.627 401.664 206.619 401.371 207.639C401.16 208.357 401.025 209.145 400.967 210H399.883C399.895 209.324 400.027 208.508 400.281 207.551C400.535 206.594 400.898 205.672 401.371 204.785C401.848 203.895 402.354 203.145 402.889 202.535H398.682ZM405.49 203.473C405.49 202.859 405.645 202.338 405.953 201.908C406.262 201.479 406.709 201.264 407.295 201.264C407.834 201.264 408.279 201.457 408.631 201.844C408.986 202.227 409.164 202.791 409.164 203.537C409.164 204.264 408.984 204.824 408.625 205.219C408.27 205.609 407.83 205.805 407.307 205.805C406.787 205.805 406.354 205.611 406.006 205.225C405.662 204.838 405.49 204.254 405.49 203.473ZM407.324 201.99C407.062 201.99 406.844 202.104 406.668 202.33C406.496 202.557 406.41 202.973 406.41 203.578C406.41 204.129 406.498 204.518 406.674 204.744C406.85 204.967 407.066 205.078 407.324 205.078C407.59 205.078 407.809 204.965 407.98 204.738C408.156 204.512 408.244 204.098 408.244 203.496C408.244 202.941 408.156 202.553 407.98 202.33C407.805 202.104 407.586 201.99 407.324 201.99ZM407.33 210.316L412.029 201.264H412.885L408.203 210.316H407.33ZM411.045 207.984C411.045 207.367 411.199 206.846 411.508 206.42C411.816 205.99 412.266 205.775 412.855 205.775C413.395 205.775 413.84 205.969 414.191 206.355C414.547 206.738 414.725 207.303 414.725 208.049C414.725 208.775 414.545 209.336 414.186 209.73C413.83 210.121 413.389 210.316 412.861 210.316C412.342 210.316 411.908 210.123 411.561 209.736C411.217 209.346 411.045 208.762 411.045 207.984ZM412.885 206.502C412.619 206.502 412.398 206.615 412.223 206.842C412.051 207.068 411.965 207.484 411.965 208.09C411.965 208.637 412.053 209.023 412.229 209.25C412.404 209.477 412.621 209.59 412.879 209.59C413.148 209.59 413.369 209.477 413.541 209.25C413.717 209.023 413.805 208.609 413.805 208.008C413.805 207.453 413.717 207.064 413.541 206.842C413.365 206.615 413.146 206.502 412.885 206.502ZM416.951 212.525H416.195C417.363 210.65 417.947 208.773 417.947 206.895C417.947 206.16 417.863 205.432 417.695 204.709C417.562 204.123 417.377 203.561 417.139 203.021C416.986 202.67 416.672 202.084 416.195 201.264H416.951C417.686 202.244 418.229 203.229 418.58 204.217C418.881 205.068 419.031 205.959 419.031 206.889C419.031 207.943 418.828 208.963 418.422 209.947C418.02 210.932 417.529 211.791 416.951 212.525Z" fill="black"/>
<path d="M111.946 58V48.6943H118.846V50.2686H113.825V52.3315H118.497V53.8994H113.825V56.4321H119.023V58H111.946ZM120.636 58V48.6943H122.464L126.272 54.9087V48.6943H128.018V58H126.133L122.381 51.9316V58H120.636ZM130.024 58V48.6943H136.403V50.2686H131.903V52.4712H135.788V54.0454H131.903V58H130.024ZM141.316 48.6943H143.189V54.585C143.189 55.3551 143.121 55.9476 142.986 56.3623C142.804 56.904 142.474 57.3398 141.996 57.6699C141.517 57.9958 140.887 58.1587 140.104 58.1587C139.186 58.1587 138.479 57.9027 137.984 57.3906C137.489 56.8743 137.239 56.119 137.235 55.1245L139.006 54.9214C139.027 55.4546 139.105 55.8312 139.241 56.0513C139.444 56.3856 139.753 56.5527 140.167 56.5527C140.586 56.5527 140.883 56.4342 141.056 56.1973C141.23 55.9561 141.316 55.4588 141.316 54.7056V48.6943Z" fill="white"/>
<path d="M29.8887 108V98.6943H31.7676V108H29.8887ZM33.583 108V98.6943H35.4111L39.2197 104.909V98.6943H40.9653V108H39.0801L35.3286 101.932V108H33.583ZM45.0532 108V100.269H42.292V98.6943H49.687V100.269H46.9321V108H45.0532ZM50.9058 108V98.6943H53.9209C55.0635 98.6943 55.8083 98.7409 56.1553 98.834C56.6885 98.9736 57.1349 99.2783 57.4946 99.748C57.8543 100.214 58.0342 100.817 58.0342 101.557C58.0342 102.128 57.9305 102.609 57.7231 102.998C57.5158 103.387 57.2513 103.694 56.9297 103.918C56.6123 104.139 56.2886 104.285 55.9585 104.356C55.5099 104.445 54.8604 104.49 54.0098 104.49H52.7847V108H50.9058ZM52.7847 100.269V102.909H53.813C54.5535 102.909 55.0487 102.861 55.2983 102.763C55.548 102.666 55.7427 102.514 55.8823 102.306C56.0262 102.099 56.0981 101.858 56.0981 101.583C56.0981 101.244 55.9987 100.965 55.7998 100.745C55.6009 100.525 55.3491 100.387 55.0444 100.332C54.8201 100.29 54.3695 100.269 53.6924 100.269H52.7847Z" fill="white"/>
<path d="M201.889 108V98.6943H203.768V108H201.889ZM205.088 104.972L206.916 104.794C207.026 105.408 207.248 105.859 207.583 106.146C207.921 106.434 208.376 106.578 208.947 106.578C209.552 106.578 210.007 106.451 210.312 106.197C210.621 105.939 210.775 105.639 210.775 105.296C210.775 105.076 210.71 104.89 210.579 104.737C210.452 104.581 210.227 104.445 209.906 104.331C209.686 104.255 209.184 104.119 208.401 103.925C207.394 103.675 206.688 103.368 206.281 103.004C205.71 102.492 205.424 101.868 205.424 101.132C205.424 100.658 205.558 100.216 205.824 99.8052C206.095 99.3905 206.482 99.0752 206.986 98.8594C207.494 98.6436 208.105 98.5356 208.82 98.5356C209.988 98.5356 210.866 98.7917 211.455 99.3037C212.047 99.8158 212.358 100.499 212.388 101.354L210.509 101.437C210.428 100.958 210.255 100.616 209.988 100.408C209.726 100.197 209.33 100.091 208.801 100.091C208.255 100.091 207.828 100.203 207.519 100.427C207.32 100.571 207.221 100.764 207.221 101.005C207.221 101.225 207.314 101.413 207.5 101.57C207.737 101.769 208.312 101.976 209.227 102.192C210.141 102.408 210.816 102.632 211.251 102.865C211.692 103.093 212.034 103.409 212.28 103.811C212.529 104.208 212.654 104.701 212.654 105.29C212.654 105.823 212.506 106.322 212.21 106.788C211.914 107.253 211.495 107.6 210.953 107.829C210.411 108.053 209.736 108.165 208.928 108.165C207.752 108.165 206.848 107.894 206.218 107.353C205.587 106.807 205.211 106.013 205.088 104.972ZM216.33 108V100.269H213.568V98.6943H220.963V100.269H218.208V108H216.33ZM225.54 98.6943H227.413V104.585C227.413 105.355 227.345 105.948 227.209 106.362C227.028 106.904 226.697 107.34 226.219 107.67C225.741 107.996 225.111 108.159 224.328 108.159C223.409 108.159 222.703 107.903 222.208 107.391C221.712 106.874 221.463 106.119 221.458 105.125L223.229 104.921C223.251 105.455 223.329 105.831 223.464 106.051C223.667 106.386 223.976 106.553 224.391 106.553C224.81 106.553 225.106 106.434 225.28 106.197C225.453 105.956 225.54 105.459 225.54 104.706V98.6943Z" fill="white"/>
<path d="M32.9458 209V199.694H39.8457V201.269H34.8247V203.332H39.4966V204.899H34.8247V207.432H40.0234V209H32.9458ZM41.1406 205.972L42.9688 205.794C43.0788 206.408 43.3009 206.859 43.6353 207.146C43.9738 207.434 44.4287 207.578 45 207.578C45.6051 207.578 46.0601 207.451 46.3647 207.197C46.6737 206.939 46.8281 206.639 46.8281 206.296C46.8281 206.076 46.7625 205.89 46.6313 205.737C46.5044 205.581 46.2801 205.445 45.9585 205.331C45.7384 205.255 45.237 205.119 44.4541 204.925C43.4469 204.675 42.7402 204.368 42.334 204.004C41.7627 203.492 41.4771 202.868 41.4771 202.132C41.4771 201.658 41.6104 201.216 41.877 200.805C42.1478 200.39 42.535 200.075 43.0386 199.859C43.5464 199.644 44.1579 199.536 44.873 199.536C46.041 199.536 46.9191 199.792 47.5073 200.304C48.0998 200.816 48.4108 201.499 48.4404 202.354L46.5615 202.437C46.4811 201.958 46.3076 201.616 46.041 201.408C45.7786 201.197 45.383 201.091 44.854 201.091C44.3081 201.091 43.8807 201.203 43.5718 201.427C43.3729 201.571 43.2734 201.764 43.2734 202.005C43.2734 202.225 43.3665 202.413 43.5527 202.57C43.7897 202.769 44.3652 202.976 45.2793 203.192C46.1934 203.408 46.8683 203.632 47.3042 203.865C47.7443 204.093 48.0871 204.409 48.3325 204.811C48.5822 205.208 48.707 205.701 48.707 206.29C48.707 206.823 48.5589 207.322 48.2627 207.788C47.9665 208.253 47.5475 208.6 47.0059 208.829C46.4642 209.053 45.7892 209.165 44.981 209.165C43.8045 209.165 42.901 208.894 42.2705 208.353C41.64 207.807 41.2633 207.013 41.1406 205.972ZM52.3823 209V201.269H49.6211V199.694H57.0161V201.269H54.2612V209H52.3823ZM58.2349 209V199.694H61.25C62.3926 199.694 63.1374 199.741 63.4844 199.834C64.0176 199.974 64.464 200.278 64.8237 200.748C65.1834 201.214 65.3633 201.817 65.3633 202.557C65.3633 203.128 65.2596 203.609 65.0522 203.998C64.8449 204.387 64.5804 204.694 64.2588 204.918C63.9414 205.139 63.6177 205.285 63.2876 205.356C62.839 205.445 62.1895 205.49 61.3389 205.49H60.1138V209H58.2349ZM60.1138 201.269V203.909H61.1421C61.8826 203.909 62.3778 203.861 62.6274 203.763C62.8771 203.666 63.0718 203.514 63.2114 203.306C63.3553 203.099 63.4272 202.858 63.4272 202.583C63.4272 202.244 63.3278 201.965 63.1289 201.745C62.93 201.525 62.6782 201.387 62.3735 201.332C62.1493 201.29 61.6986 201.269 61.0215 201.269H60.1138Z" fill="white"/>
<path d="M167.946 237V227.694H174.846V229.269H169.825V231.332H174.497V232.899H169.825V235.432H175.023V237H167.946ZM176.636 237V227.694H178.464L182.272 233.909V227.694H184.018V237H182.133L178.381 230.932V237H176.636ZM188.106 237V229.269H185.345V227.694H192.74V229.269H189.985V237H188.106ZM193.958 237V227.694H196.974C198.116 227.694 198.861 227.741 199.208 227.834C199.741 227.974 200.188 228.278 200.547 228.748C200.907 229.214 201.087 229.817 201.087 230.557C201.087 231.128 200.983 231.609 200.776 231.998C200.569 232.387 200.304 232.694 199.982 232.918C199.665 233.139 199.341 233.285 199.011 233.356C198.563 233.445 197.913 233.49 197.062 233.49H195.837V237H193.958ZM195.837 229.269V231.909H196.866C197.606 231.909 198.101 231.861 198.351 231.763C198.601 231.666 198.795 231.514 198.935 231.306C199.079 231.099 199.151 230.858 199.151 230.583C199.151 230.244 199.051 229.965 198.853 229.745C198.654 229.525 198.402 229.387 198.097 229.332C197.873 229.29 197.422 229.269 196.745 229.269H195.837Z" fill="white"/>
<defs>
<linearGradient id="paint0_linear_55_82" x1="164.862" y1="150" x2="164.862" y2="280" gradientUnits="userSpaceOnUse">
<stop stop-color="#76D5FC"/>
<stop offset="1" stop-color="#6EC5EE"/>
</linearGradient>
<linearGradient id="paint1_linear_55_82" x1="65.0314" y1="150" x2="65.0314" y2="265.181" gradientUnits="userSpaceOnUse">
<stop stop-color="#F5EA6F"/>
<stop offset="1" stop-color="#D2D862"/>
</linearGradient>
<linearGradient id="paint2_linear_55_82" x1="65" y1="38.7887" x2="65" y2="154.043" gradientUnits="userSpaceOnUse">
<stop stop-color="#EC8934"/>
<stop offset="1" stop-color="#EA6A35"/>
</linearGradient>
<linearGradient id="paint3_linear_55_82" x1="128.254" y1="20" x2="128.254" y2="150" gradientUnits="userSpaceOnUse">
<stop stop-color="#85E5A7"/>
<stop offset="1" stop-color="#6CD8A0"/>
</linearGradient>
<linearGradient id="paint4_linear_55_82" x1="195" y1="36.7488" x2="195" y2="150" gradientUnits="userSpaceOnUse">
<stop stop-color="#BC9BE5"/>
<stop offset="1" stop-color="#9A72FF"/>
</linearGradient>
<linearGradient id="paint5_linear_55_82" x1="310" y1="84" x2="310" y2="104" gradientUnits="userSpaceOnUse">
<stop stop-color="#76D5FC"/>
<stop offset="1" stop-color="#6EC5EE"/>
</linearGradient>
<linearGradient id="paint6_linear_55_82" x1="310" y1="112" x2="310" y2="132" gradientUnits="userSpaceOnUse">
<stop stop-color="#85E5A7"/>
<stop offset="1" stop-color="#6CD8A0"/>
</linearGradient>
<linearGradient id="paint7_linear_55_82" x1="310" y1="140" x2="310" y2="160" gradientUnits="userSpaceOnUse">
<stop stop-color="#F5EA6F"/>
<stop offset="1" stop-color="#D2D862"/>
</linearGradient>
<linearGradient id="paint8_linear_55_82" x1="310" y1="168" x2="310" y2="188" gradientUnits="userSpaceOnUse">
<stop stop-color="#EC8934"/>
<stop offset="1" stop-color="#EA6A35"/>
</linearGradient>
<linearGradient id="paint9_linear_55_82" x1="310" y1="196" x2="310" y2="216" gradientUnits="userSpaceOnUse">
<stop stop-color="#BC9BE5"/>
<stop offset="1" stop-color="#9A72FF"/>
</linearGradient>
</defs>
</svg>
