<svg width="450" height="300" viewBox="0 0 450 300" fill="none" xmlns="http://www.w3.org/2000/svg">
<rect width="450" height="300" fill="white"/>
<path d="M260 150C260 184.478 246.304 217.544 221.924 241.924C197.544 266.304 164.478 280 130 280C95.5219 280 62.4558 266.304 38.0761 241.924C13.6964 217.544 0 184.478 0 150C0 115.522 13.6964 82.4558 38.0761 58.0761C62.4558 33.6964 95.5219 20 130 20C164.478 20 197.544 33.6964 221.924 58.0761C246.304 82.4558 260 115.522 260 150Z" fill="url(#paint0_linear_55_116)"/>
<path d="M130 215C165.899 215 195 185.899 195 150C195 114.101 165.899 85 130 85C94.1015 85 65 114.101 65 150C65 185.899 94.1015 215 130 215Z" fill="white"/>
<path d="M108.752 137.488C109.093 137.403 109.723 137.36 110.64 137.36C111.579 137.36 112.197 137.403 112.496 137.488C112.709 137.552 112.891 137.595 113.04 137.616C113.531 137.68 113.957 137.904 114.32 138.288C114.704 138.651 114.896 139.035 114.896 139.44C114.896 140.059 114.661 140.528 114.192 140.848C113.744 141.147 113.211 141.189 112.592 140.976C112.293 140.869 112.08 140.816 111.952 140.816C111.824 140.816 111.632 140.773 111.376 140.688C110.757 140.475 110.245 140.475 109.84 140.688C109.691 140.773 109.552 140.827 109.424 140.848C109.04 140.933 108.571 141.285 108.016 141.904C107.461 142.501 107.045 143.099 106.768 143.696C106.683 143.867 106.597 144.048 106.512 144.24C106.171 144.944 105.968 145.605 105.904 146.224C105.883 146.523 105.819 146.779 105.712 146.992C105.605 147.227 105.552 147.792 105.552 148.688C105.573 149.563 105.637 150.117 105.744 150.352C105.829 150.544 105.872 150.704 105.872 150.832C105.893 150.981 105.925 151.131 105.968 151.28C106.011 151.387 106.096 151.589 106.224 151.888C106.309 152.187 106.395 152.389 106.48 152.496C106.587 152.645 106.661 152.784 106.704 152.912C106.768 153.04 106.992 153.307 107.376 153.712C107.781 154.117 108.059 154.352 108.208 154.416C108.336 154.48 108.443 154.555 108.528 154.64C108.848 154.917 109.36 155.109 110.064 155.216C110.789 155.301 111.408 155.259 111.92 155.088C112.197 155.003 112.539 154.917 112.944 154.832C113.349 154.747 113.595 154.715 113.68 154.736C113.723 154.757 113.851 154.8 114.064 154.864C114.427 154.949 114.693 155.173 114.864 155.536C115.035 155.899 115.077 156.293 114.992 156.72C114.843 157.381 114.288 157.872 113.328 158.192C113.029 158.299 112.795 158.373 112.624 158.416C112.432 158.501 111.76 158.533 110.608 158.512C109.733 158.491 109.2 158.469 109.008 158.448C108.816 158.427 108.571 158.352 108.272 158.224C106.608 157.52 105.339 156.603 104.464 155.472C104.037 154.939 103.824 154.619 103.824 154.512C103.824 154.469 103.771 154.363 103.664 154.192C103.536 154 103.397 153.744 103.248 153.424C103.099 153.083 103.024 152.859 103.024 152.752C103.024 152.667 102.971 152.528 102.864 152.336C102.757 152.144 102.683 151.888 102.64 151.568C102.597 151.312 102.555 151.024 102.512 150.704C102.384 149.957 102.32 149.349 102.32 148.88C102.32 148.389 102.384 147.664 102.512 146.704C102.555 146.405 102.597 146.032 102.64 145.584C102.661 145.179 102.725 144.88 102.832 144.688C102.939 144.517 103.003 144.336 103.024 144.144C103.045 143.867 103.227 143.355 103.568 142.608C103.909 141.861 104.208 141.328 104.464 141.008C104.549 140.88 104.667 140.709 104.816 140.496C105.328 139.749 105.936 139.109 106.64 138.576C107.344 138.043 108.048 137.68 108.752 137.488ZM116.72 137.136C117.146 136.965 117.562 136.955 117.968 137.104C118.373 137.232 118.714 137.488 118.992 137.872L119.184 138.16L119.152 144.144C119.152 148.112 119.184 150.565 119.248 151.504C119.354 153.104 119.386 154.491 119.344 155.664C119.301 156.816 119.184 157.52 118.992 157.776C118.672 158.203 118.234 158.437 117.68 158.48C117.125 158.544 116.666 158.384 116.304 158C116.069 157.765 115.93 157.509 115.888 157.232C115.866 156.933 115.845 156.016 115.824 154.48C115.802 152.731 115.77 151.6 115.728 151.088C115.685 150.597 115.664 148.347 115.664 144.336C115.664 140.304 115.685 138.213 115.728 138.064C115.77 137.893 115.888 137.723 116.08 137.552C116.272 137.36 116.485 137.221 116.72 137.136ZM124.424 145.68C124.765 145.616 125.096 145.637 125.416 145.744C125.544 145.765 125.842 145.819 126.312 145.904C126.888 146.011 127.517 146.235 128.2 146.576C128.498 146.704 128.882 146.992 129.352 147.44C129.821 147.867 130.13 148.208 130.28 148.464C130.322 148.549 130.418 148.72 130.568 148.976C130.674 149.189 130.749 149.328 130.792 149.392C130.856 149.499 130.92 149.68 130.984 149.936C131.048 150.192 131.112 150.395 131.176 150.544C131.24 150.736 131.272 151.259 131.272 152.112C131.272 152.944 131.229 153.445 131.144 153.616C131.058 153.765 131.005 153.947 130.984 154.16C130.962 154.352 130.866 154.608 130.696 154.928C130.333 155.568 129.928 156.112 129.48 156.56C129.053 157.008 128.488 157.445 127.784 157.872C127.357 158.149 126.76 158.341 125.992 158.448C125.224 158.555 124.68 158.523 124.36 158.352C124.189 158.288 124.008 158.235 123.816 158.192C123.069 158.064 122.322 157.648 121.576 156.944C120.829 156.219 120.402 155.504 120.296 154.8C120.253 154.608 120.2 154.405 120.136 154.192C120.072 153.979 120.029 153.467 120.008 152.656C119.986 151.845 120.008 151.355 120.072 151.184C120.114 151.077 120.189 150.779 120.296 150.288C120.445 149.541 120.637 148.965 120.872 148.56C120.978 148.368 121.053 148.229 121.096 148.144C121.394 147.547 121.864 147.013 122.504 146.544C123.144 146.075 123.784 145.787 124.424 145.68ZM126.248 149.424C125.693 149.211 125.32 149.168 125.128 149.296C125.085 149.339 124.946 149.392 124.712 149.456C124.306 149.584 124.05 149.851 123.944 150.256C123.901 150.427 123.826 150.64 123.72 150.896C123.549 151.365 123.464 151.909 123.464 152.528C123.464 153.147 123.57 153.659 123.784 154.064C123.954 154.448 124.146 154.704 124.36 154.832C124.594 154.96 124.946 155.024 125.416 155.024C125.8 155.024 126.066 154.992 126.216 154.928C126.386 154.843 126.642 154.608 126.984 154.224C127.688 153.499 127.954 152.603 127.784 151.536C127.613 150.448 127.101 149.744 126.248 149.424ZM140.138 145.904C140.799 145.605 141.375 145.659 141.866 146.064C142.356 146.448 142.602 147.067 142.602 147.92C142.602 148.368 142.634 148.848 142.698 149.36C142.762 149.872 142.794 150.299 142.794 150.64C142.794 150.981 142.836 151.28 142.922 151.536C143.007 151.792 143.071 152.101 143.114 152.464C143.156 152.827 143.22 153.179 143.306 153.52C143.412 153.861 143.487 154.171 143.53 154.448C143.551 154.725 143.615 154.992 143.722 155.248C143.85 155.611 143.924 156.048 143.946 156.56C143.967 157.072 143.924 157.435 143.818 157.648C143.626 158.032 143.284 158.288 142.794 158.416C142.324 158.565 141.919 158.523 141.578 158.288C141.087 157.968 140.788 157.616 140.682 157.232C140.618 157.019 140.554 156.912 140.49 156.912C140.426 156.912 140.266 157.029 140.01 157.264C139.732 157.499 139.423 157.712 139.082 157.904C138.74 158.096 138.474 158.192 138.282 158.192C138.111 158.192 137.876 158.224 137.578 158.288C137.279 158.352 136.714 158.32 135.882 158.192C135.156 158.085 134.452 157.701 133.77 157.04C133.087 156.357 132.66 155.643 132.49 154.896C132.426 154.576 132.351 154.267 132.266 153.968C132.159 153.584 132.095 153.093 132.074 152.496C132.052 151.856 132.02 151.429 131.978 151.216C131.935 150.917 131.914 150.256 131.914 149.232C131.914 148.187 131.946 147.557 132.01 147.344C132.18 146.725 132.586 146.341 133.226 146.192C133.887 146.021 134.463 146.171 134.954 146.64C135.103 146.789 135.188 146.971 135.21 147.184C135.252 147.376 135.284 148.016 135.306 149.104C135.327 150.491 135.38 151.333 135.466 151.632C135.551 151.931 135.615 152.336 135.658 152.848C135.722 153.488 135.882 154 136.138 154.384C136.415 154.768 136.767 154.96 137.194 154.96C137.386 154.96 137.62 154.757 137.898 154.352C138.175 153.947 138.335 153.563 138.378 153.2C138.42 152.987 138.495 152.795 138.602 152.624C138.687 152.432 138.751 151.92 138.794 151.088C138.836 150.277 138.9 149.787 138.986 149.616C139.092 149.445 139.156 148.933 139.178 148.08C139.199 147.035 139.274 146.512 139.402 146.512C139.444 146.512 139.498 146.448 139.562 146.32C139.647 146.192 139.839 146.053 140.138 145.904ZM154.649 137.392C154.82 137.328 155.033 137.307 155.289 137.328C155.545 137.328 155.716 137.36 155.801 137.424C155.908 137.509 155.983 137.552 156.025 137.552C156.111 137.552 156.239 137.669 156.409 137.904C156.58 138.139 156.676 138.32 156.697 138.448C156.719 138.619 156.772 138.821 156.857 139.056C156.943 139.291 156.985 142.32 156.985 148.144C157.007 153.947 156.975 156.933 156.889 157.104C156.804 157.232 156.74 157.349 156.697 157.456C156.591 157.648 156.324 157.829 155.897 158C155.492 158.171 155.087 158.256 154.681 158.256C154.447 158.256 154.169 158.288 153.849 158.352C153.551 158.437 152.804 158.48 151.609 158.48C150.436 158.501 149.711 158.48 149.433 158.416C149.241 158.352 148.932 158.277 148.505 158.192C148.057 158.064 147.471 157.797 146.745 157.392C146.041 156.965 145.689 156.667 145.689 156.496C145.689 156.475 145.604 156.368 145.433 156.176C145.263 155.963 145.177 155.824 145.177 155.76C145.177 155.696 145.124 155.6 145.017 155.472C144.847 155.259 144.719 154.757 144.633 153.968C144.569 153.157 144.58 152.485 144.665 151.952C144.708 151.739 144.751 151.483 144.793 151.184C144.836 150.885 144.9 150.683 144.985 150.576C145.071 150.448 145.145 150.299 145.209 150.128C145.444 149.488 145.999 148.848 146.873 148.208C147.748 147.547 148.633 147.131 149.529 146.96C149.871 146.896 150.116 146.832 150.265 146.768C150.436 146.704 150.991 146.661 151.929 146.64C152.868 146.619 153.369 146.587 153.433 146.544C153.519 146.501 153.561 145.136 153.561 142.448C153.561 140.421 153.572 139.227 153.593 138.864C153.615 138.501 153.679 138.245 153.785 138.096C153.999 137.733 154.287 137.499 154.649 137.392ZM153.401 150.384C153.316 150.299 153.22 150.256 153.113 150.256C153.007 150.235 152.633 150.213 151.993 150.192C151.183 150.192 150.713 150.213 150.585 150.256C149.689 150.491 149.06 150.768 148.697 151.088C148.335 151.408 148.121 151.856 148.057 152.432C147.951 153.499 148.1 154.192 148.505 154.512C148.932 154.811 149.945 154.96 151.545 154.96C151.695 154.96 151.887 154.96 152.121 154.96C152.868 154.981 153.295 154.928 153.401 154.8C153.529 154.672 153.593 154.245 153.593 153.52C153.593 153.285 153.593 153.104 153.593 152.976C153.615 151.931 153.615 151.269 153.593 150.992C153.572 150.715 153.508 150.512 153.401 150.384Z" fill="black"/>
<path d="M317 140H303C301.343 140 300 141.343 300 143V157C300 158.657 301.343 160 303 160H317C318.657 160 320 158.657 320 157V143C320 141.343 318.657 140 317 140Z" fill="url(#paint1_linear_55_116)"/>
<path d="M326.119 154V145.41H327.256V154H326.119ZM328.879 151.24L329.951 151.146C330.002 151.576 330.119 151.93 330.303 152.207C330.49 152.48 330.779 152.703 331.17 152.875C331.561 153.043 332 153.127 332.488 153.127C332.922 153.127 333.305 153.062 333.637 152.934C333.969 152.805 334.215 152.629 334.375 152.406C334.539 152.18 334.621 151.934 334.621 151.668C334.621 151.398 334.543 151.164 334.387 150.965C334.23 150.762 333.973 150.592 333.613 150.455C333.383 150.365 332.873 150.227 332.084 150.039C331.295 149.848 330.742 149.668 330.426 149.5C330.016 149.285 329.709 149.02 329.506 148.703C329.307 148.383 329.207 148.025 329.207 147.631C329.207 147.197 329.33 146.793 329.576 146.418C329.822 146.039 330.182 145.752 330.654 145.557C331.127 145.361 331.652 145.264 332.23 145.264C332.867 145.264 333.428 145.367 333.912 145.574C334.4 145.777 334.775 146.078 335.037 146.477C335.299 146.875 335.439 147.326 335.459 147.83L334.369 147.912C334.311 147.369 334.111 146.959 333.771 146.682C333.436 146.404 332.938 146.266 332.277 146.266C331.59 146.266 331.088 146.393 330.771 146.646C330.459 146.896 330.303 147.199 330.303 147.555C330.303 147.863 330.414 148.117 330.637 148.316C330.855 148.516 331.426 148.721 332.348 148.932C333.273 149.139 333.908 149.32 334.252 149.477C334.752 149.707 335.121 150 335.359 150.355C335.598 150.707 335.717 151.113 335.717 151.574C335.717 152.031 335.586 152.463 335.324 152.869C335.062 153.271 334.686 153.586 334.193 153.812C333.705 154.035 333.154 154.146 332.541 154.146C331.764 154.146 331.111 154.033 330.584 153.807C330.061 153.58 329.648 153.24 329.348 152.787C329.051 152.33 328.895 151.814 328.879 151.24ZM339.455 154V146.424H336.625V145.41H343.434V146.424H340.592V154H339.455ZM344.025 151.562L345.051 151.422C345.078 152.078 345.201 152.527 345.42 152.77C345.639 153.012 345.941 153.133 346.328 153.133C346.613 153.133 346.859 153.068 347.066 152.939C347.273 152.807 347.416 152.629 347.494 152.406C347.572 152.18 347.611 151.82 347.611 151.328V145.41H348.748V151.264C348.748 151.982 348.66 152.539 348.484 152.934C348.312 153.328 348.037 153.629 347.658 153.836C347.283 154.043 346.842 154.146 346.334 154.146C345.58 154.146 345.002 153.93 344.6 153.496C344.201 153.062 344.01 152.418 344.025 151.562ZM350.764 148.979V147.777H351.965V148.979H350.764ZM350.764 154V152.799H351.965V154H350.764ZM362.4 152.986V154H356.723C356.715 153.746 356.756 153.502 356.846 153.268C356.99 152.881 357.221 152.5 357.537 152.125C357.857 151.75 358.318 151.316 358.92 150.824C359.854 150.059 360.484 149.453 360.812 149.008C361.141 148.559 361.305 148.135 361.305 147.736C361.305 147.318 361.154 146.967 360.854 146.682C360.557 146.393 360.168 146.248 359.688 146.248C359.18 146.248 358.773 146.4 358.469 146.705C358.164 147.01 358.01 147.432 358.006 147.971L356.922 147.859C356.996 147.051 357.275 146.436 357.76 146.014C358.244 145.588 358.895 145.375 359.711 145.375C360.535 145.375 361.188 145.604 361.668 146.061C362.148 146.518 362.389 147.084 362.389 147.76C362.389 148.104 362.318 148.441 362.178 148.773C362.037 149.105 361.803 149.455 361.475 149.822C361.15 150.189 360.609 150.693 359.852 151.334C359.219 151.865 358.812 152.227 358.633 152.418C358.453 152.605 358.305 152.795 358.188 152.986H362.4ZM368.811 145.84H371.943V146.644H368.811V145.84ZM368.811 147.988H371.967V148.804H368.811V147.988ZM371.571 144.076H372.567V150.496H371.571V144.076ZM364.143 144.904H369.087V149.728H364.143V144.904ZM368.115 145.708H365.115V148.924H368.115V145.708ZM368.991 150.82C370.111 150.82 370.991 151 371.631 151.36C372.279 151.72 372.603 152.224 372.603 152.872C372.603 153.52 372.279 154.02 371.631 154.372C370.991 154.732 370.111 154.912 368.991 154.912C367.871 154.912 366.987 154.732 366.339 154.372C365.699 154.02 365.379 153.52 365.379 152.872C365.379 152.224 365.699 151.72 366.339 151.36C366.987 151 367.871 150.82 368.991 150.82ZM368.991 151.6C368.447 151.6 367.979 151.652 367.587 151.756C367.195 151.852 366.891 151.996 366.675 152.188C366.467 152.372 366.363 152.6 366.363 152.872C366.363 153.128 366.467 153.352 366.675 153.544C366.891 153.728 367.195 153.872 367.587 153.976C367.979 154.08 368.447 154.132 368.991 154.132C369.543 154.132 370.011 154.08 370.395 153.976C370.787 153.872 371.087 153.728 371.295 153.544C371.511 153.352 371.619 153.128 371.619 152.872C371.619 152.6 371.511 152.372 371.295 152.188C371.087 151.996 370.787 151.852 370.395 151.756C370.011 151.652 369.543 151.6 368.991 151.6ZM380.225 156.525C379.643 155.791 379.15 154.932 378.748 153.947C378.346 152.963 378.145 151.943 378.145 150.889C378.145 149.959 378.295 149.068 378.596 148.217C378.947 147.229 379.49 146.244 380.225 145.264H380.98C380.508 146.076 380.195 146.656 380.043 147.004C379.805 147.543 379.617 148.105 379.48 148.691C379.312 149.422 379.229 150.156 379.229 150.895C379.229 152.773 379.812 154.65 380.98 156.525H380.225ZM385.885 154H384.83V147.279C384.576 147.521 384.242 147.764 383.828 148.006C383.418 148.248 383.049 148.43 382.721 148.551V147.531C383.311 147.254 383.826 146.918 384.268 146.523C384.709 146.129 385.021 145.746 385.205 145.375H385.885V154ZM388.592 149.764C388.592 148.748 388.695 147.932 388.902 147.314C389.113 146.693 389.424 146.215 389.834 145.879C390.248 145.543 390.768 145.375 391.393 145.375C391.854 145.375 392.258 145.469 392.605 145.656C392.953 145.84 393.24 146.107 393.467 146.459C393.693 146.807 393.871 147.232 394 147.736C394.129 148.236 394.193 148.912 394.193 149.764C394.193 150.771 394.09 151.586 393.883 152.207C393.676 152.824 393.365 153.303 392.951 153.643C392.541 153.979 392.021 154.146 391.393 154.146C390.564 154.146 389.914 153.85 389.441 153.256C388.875 152.541 388.592 151.377 388.592 149.764ZM389.676 149.764C389.676 151.174 389.84 152.113 390.168 152.582C390.5 153.047 390.908 153.279 391.393 153.279C391.877 153.279 392.283 153.045 392.611 152.576C392.943 152.107 393.109 151.17 393.109 149.764C393.109 148.35 392.943 147.41 392.611 146.945C392.283 146.48 391.873 146.248 391.381 146.248C390.896 146.248 390.51 146.453 390.221 146.863C389.857 147.387 389.676 148.354 389.676 149.764ZM395.271 149.764C395.271 148.748 395.375 147.932 395.582 147.314C395.793 146.693 396.104 146.215 396.514 145.879C396.928 145.543 397.447 145.375 398.072 145.375C398.533 145.375 398.938 145.469 399.285 145.656C399.633 145.84 399.92 146.107 400.146 146.459C400.373 146.807 400.551 147.232 400.68 147.736C400.809 148.236 400.873 148.912 400.873 149.764C400.873 150.771 400.77 151.586 400.562 152.207C400.355 152.824 400.045 153.303 399.631 153.643C399.221 153.979 398.701 154.146 398.072 154.146C397.244 154.146 396.594 153.85 396.121 153.256C395.555 152.541 395.271 151.377 395.271 149.764ZM396.355 149.764C396.355 151.174 396.52 152.113 396.848 152.582C397.18 153.047 397.588 153.279 398.072 153.279C398.557 153.279 398.963 153.045 399.291 152.576C399.623 152.107 399.789 151.17 399.789 149.764C399.789 148.35 399.623 147.41 399.291 146.945C398.963 146.48 398.553 146.248 398.061 146.248C397.576 146.248 397.189 146.453 396.9 146.863C396.537 147.387 396.355 148.354 396.355 149.764ZM402.543 154V152.799H403.744V154H402.543ZM405.291 149.764C405.291 148.748 405.395 147.932 405.602 147.314C405.812 146.693 406.123 146.215 406.533 145.879C406.947 145.543 407.467 145.375 408.092 145.375C408.553 145.375 408.957 145.469 409.305 145.656C409.652 145.84 409.939 146.107 410.166 146.459C410.393 146.807 410.57 147.232 410.699 147.736C410.828 148.236 410.893 148.912 410.893 149.764C410.893 150.771 410.789 151.586 410.582 152.207C410.375 152.824 410.064 153.303 409.65 153.643C409.24 153.979 408.721 154.146 408.092 154.146C407.264 154.146 406.613 153.85 406.141 153.256C405.574 152.541 405.291 151.377 405.291 149.764ZM406.375 149.764C406.375 151.174 406.539 152.113 406.867 152.582C407.199 153.047 407.607 153.279 408.092 153.279C408.576 153.279 408.982 153.045 409.311 152.576C409.643 152.107 409.809 151.17 409.809 149.764C409.809 148.35 409.643 147.41 409.311 146.945C408.982 146.48 408.572 146.248 408.08 146.248C407.596 146.248 407.209 146.453 406.92 146.863C406.557 147.387 406.375 148.354 406.375 149.764ZM412.17 147.473C412.17 146.859 412.324 146.338 412.633 145.908C412.941 145.479 413.389 145.264 413.975 145.264C414.514 145.264 414.959 145.457 415.311 145.844C415.666 146.227 415.844 146.791 415.844 147.537C415.844 148.264 415.664 148.824 415.305 149.219C414.949 149.609 414.51 149.805 413.986 149.805C413.467 149.805 413.033 149.611 412.686 149.225C412.342 148.838 412.17 148.254 412.17 147.473ZM414.004 145.99C413.742 145.99 413.523 146.104 413.348 146.33C413.176 146.557 413.09 146.973 413.09 147.578C413.09 148.129 413.178 148.518 413.354 148.744C413.529 148.967 413.746 149.078 414.004 149.078C414.27 149.078 414.488 148.965 414.66 148.738C414.836 148.512 414.924 148.098 414.924 147.496C414.924 146.941 414.836 146.553 414.66 146.33C414.484 146.104 414.266 145.99 414.004 145.99ZM414.01 154.316L418.709 145.264H419.564L414.883 154.316H414.01ZM417.725 151.984C417.725 151.367 417.879 150.846 418.188 150.42C418.496 149.99 418.945 149.775 419.535 149.775C420.074 149.775 420.52 149.969 420.871 150.355C421.227 150.738 421.404 151.303 421.404 152.049C421.404 152.775 421.225 153.336 420.865 153.73C420.51 154.121 420.068 154.316 419.541 154.316C419.021 154.316 418.588 154.123 418.24 153.736C417.896 153.346 417.725 152.762 417.725 151.984ZM419.564 150.502C419.299 150.502 419.078 150.615 418.902 150.842C418.73 151.068 418.645 151.484 418.645 152.09C418.645 152.637 418.732 153.023 418.908 153.25C419.084 153.477 419.301 153.59 419.559 153.59C419.828 153.59 420.049 153.477 420.221 153.25C420.396 153.023 420.484 152.609 420.484 152.008C420.484 151.453 420.396 151.064 420.221 150.842C420.045 150.615 419.826 150.502 419.564 150.502ZM423.631 156.525H422.875C424.043 154.65 424.627 152.773 424.627 150.895C424.627 150.16 424.543 149.432 424.375 148.709C424.242 148.123 424.057 147.561 423.818 147.021C423.666 146.67 423.352 146.084 422.875 145.264H423.631C424.365 146.244 424.908 147.229 425.26 148.217C425.561 149.068 425.711 149.959 425.711 150.889C425.711 151.943 425.508 152.963 425.102 153.947C424.699 154.932 424.209 155.791 423.631 156.525Z" fill="black"/>
<path d="M133.889 63V53.6943H135.768V63H133.889ZM137.088 59.9722L138.916 59.7944C139.026 60.408 139.248 60.8587 139.583 61.1465C139.921 61.4342 140.376 61.5781 140.947 61.5781C141.552 61.5781 142.007 61.4512 142.312 61.1973C142.621 60.9391 142.775 60.6387 142.775 60.2959C142.775 60.0758 142.71 59.8896 142.579 59.7373C142.452 59.5807 142.227 59.4453 141.906 59.3311C141.686 59.2549 141.184 59.1195 140.401 58.9248C139.394 58.6751 138.688 58.3683 138.281 58.0044C137.71 57.4924 137.424 56.8682 137.424 56.1318C137.424 55.6579 137.558 55.2157 137.824 54.8052C138.095 54.3905 138.482 54.0752 138.986 53.8594C139.494 53.6436 140.105 53.5356 140.82 53.5356C141.988 53.5356 142.866 53.7917 143.455 54.3037C144.047 54.8158 144.358 55.4992 144.388 56.354L142.509 56.4365C142.428 55.9583 142.255 55.6156 141.988 55.4082C141.726 55.1966 141.33 55.0908 140.801 55.0908C140.255 55.0908 139.828 55.203 139.519 55.4272C139.32 55.5711 139.221 55.7637 139.221 56.0049C139.221 56.2249 139.314 56.4132 139.5 56.5698C139.737 56.7687 140.312 56.9761 141.227 57.1919C142.141 57.4077 142.816 57.632 143.251 57.8647C143.692 58.0933 144.034 58.4085 144.28 58.8105C144.529 59.2083 144.654 59.7013 144.654 60.2896C144.654 60.8228 144.506 61.3221 144.21 61.7876C143.914 62.2531 143.495 62.6001 142.953 62.8286C142.411 63.0529 141.736 63.165 140.928 63.165C139.752 63.165 138.848 62.8942 138.218 62.3525C137.587 61.8066 137.211 61.0132 137.088 59.9722ZM148.33 63V55.2686H145.568V53.6943H152.963V55.2686H150.208V63H148.33ZM157.54 53.6943H159.413V59.585C159.413 60.3551 159.345 60.9476 159.209 61.3623C159.028 61.904 158.697 62.3398 158.219 62.6699C157.741 62.9958 157.111 63.1587 156.328 63.1587C155.409 63.1587 154.703 62.9027 154.208 62.3906C153.712 61.8743 153.463 61.119 153.458 60.1245L155.229 59.9214C155.251 60.4546 155.329 60.8312 155.464 61.0513C155.667 61.3856 155.976 61.5527 156.391 61.5527C156.81 61.5527 157.106 61.4342 157.28 61.1973C157.453 60.9561 157.54 60.4588 157.54 59.7056V53.6943Z" fill="white"/>
<defs>
<linearGradient id="paint0_linear_55_116" x1="130" y1="20" x2="130" y2="280" gradientUnits="userSpaceOnUse">
<stop stop-color="#76D5FC"/>
<stop offset="1" stop-color="#6EC5EE"/>
</linearGradient>
<linearGradient id="paint1_linear_55_116" x1="310" y1="140" x2="310" y2="160" gradientUnits="userSpaceOnUse">
<stop stop-color="#76D5FC"/>
<stop offset="1" stop-color="#6EC5EE"/>
</linearGradient>
</defs>
</svg>
