<svg width="450" height="300" viewBox="0 0 450 300" fill="none" xmlns="http://www.w3.org/2000/svg">
<rect width="450" height="300" fill="white"/>
<path d="M130 150H260C260 167.072 256.637 183.977 250.104 199.749C243.571 215.521 233.996 229.852 221.924 241.924C209.852 253.996 195.521 263.571 179.749 270.104C163.977 276.637 147.072 280 130 280C95.5219 280 62.4558 266.304 38.0761 241.924C13.6964 217.544 0 184.478 0 150H130Z" fill="url(#paint0_linear_55_64)"/>
<path d="M130 150H0C0 115.522 13.6964 82.4558 38.0761 58.0761C62.4558 33.6964 95.5219 20 130 20C164.478 20 197.544 33.6964 221.924 58.0761C246.304 82.4558 260 115.522 260 150H130Z" fill="url(#paint1_linear_55_64)"/>
<path d="M130 215C165.899 215 195 185.899 195 150C195 114.101 165.899 85 130 85C94.1015 85 65 114.101 65 150C65 185.899 94.1015 215 130 215Z" fill="white"/>
<path d="M116.92 137.392C117.155 137.307 117.976 137.275 119.384 137.296C120.792 137.317 121.581 137.36 121.752 137.424C121.923 137.509 122.093 137.573 122.264 137.616C122.776 137.744 123.277 137.989 123.768 138.352C123.96 138.501 124.184 138.661 124.44 138.832C124.675 138.981 125.112 139.387 125.752 140.048C126.413 140.709 126.776 141.115 126.84 141.264C126.925 141.435 127.011 141.584 127.096 141.712C127.203 141.819 127.267 141.947 127.288 142.096C127.309 142.245 127.384 142.416 127.512 142.608C127.619 142.8 127.683 142.971 127.704 143.12C127.747 143.248 127.811 143.408 127.896 143.6C128.003 143.792 128.056 143.931 128.056 144.016C128.056 144.101 128.109 144.293 128.216 144.592C128.408 145.083 128.504 145.403 128.504 145.552C128.504 145.68 128.547 145.84 128.632 146.032C128.717 146.245 128.792 146.523 128.856 146.864C128.899 147.099 128.941 147.365 128.984 147.664C129.091 148.133 129.101 148.837 129.016 149.776C128.952 150.715 128.845 151.408 128.696 151.856C128.611 152.091 128.547 152.315 128.504 152.528C128.397 153.168 127.885 154.117 126.968 155.376C126.691 155.76 126.328 156.155 125.88 156.56C125.432 156.944 125.037 157.232 124.696 157.424C124.589 157.467 124.504 157.52 124.44 157.584C124.333 157.669 123.917 157.84 123.192 158.096C122.787 158.245 122.563 158.331 122.52 158.352C122.179 158.48 121.251 158.533 119.736 158.512C118.243 158.491 117.357 158.405 117.08 158.256C116.739 158.064 116.493 157.84 116.344 157.584C116.216 157.307 116.152 156.923 116.152 156.432C116.131 156.155 116.077 155.888 115.992 155.632C115.907 155.376 115.853 154.811 115.832 153.936C115.789 153.083 115.747 152.581 115.704 152.432C115.661 152.261 115.619 151.728 115.576 150.832C115.533 149.893 115.48 149.211 115.416 148.784C115.352 148.379 115.32 147.237 115.32 145.36C115.32 143.461 115.341 141.936 115.384 140.784C115.427 139.547 115.544 138.725 115.736 138.32C115.928 137.893 116.323 137.584 116.92 137.392ZM120.92 140.88C120.643 140.816 120.259 140.784 119.768 140.784C119.299 140.784 119.032 140.827 118.968 140.912C118.904 140.976 118.872 142.555 118.872 145.648C118.872 148.72 118.904 150.384 118.968 150.64C119.032 150.896 119.085 151.472 119.128 152.368C119.171 153.243 119.235 153.819 119.32 154.096C119.405 154.352 119.448 154.533 119.448 154.64C119.448 154.789 119.523 154.885 119.672 154.928C119.843 154.971 120.184 154.981 120.696 154.96C121.507 154.939 122.264 154.736 122.968 154.352C123.672 153.947 124.163 153.456 124.44 152.88C124.525 152.731 124.6 152.624 124.664 152.56C124.749 152.453 124.856 152.272 124.984 152.016C125.112 151.76 125.187 151.568 125.208 151.44C125.229 151.248 125.293 151.077 125.4 150.928C125.507 150.779 125.571 150.149 125.592 149.04C125.613 147.931 125.571 147.312 125.464 147.184C125.293 146.949 125.208 146.672 125.208 146.352C125.208 146.245 125.165 146.117 125.08 145.968C124.995 145.797 124.92 145.616 124.856 145.424C124.813 145.232 124.749 145.029 124.664 144.816C124.557 144.603 124.493 144.432 124.472 144.304C124.344 143.685 123.885 143.003 123.096 142.256C122.328 141.509 121.603 141.051 120.92 140.88ZM130.686 137.136C130.985 137.008 131.358 136.987 131.806 137.072C132.276 137.136 132.617 137.275 132.83 137.488C133.044 137.723 133.193 138.021 133.278 138.384C133.364 138.725 133.353 139.045 133.246 139.344C133.118 139.685 133.118 140.144 133.246 140.72C133.31 141.04 133.342 142 133.342 143.6C133.342 145.2 133.374 146.171 133.438 146.512C133.502 146.832 133.545 147.589 133.566 148.784C133.588 150 133.63 150.64 133.694 150.704C133.716 150.768 133.737 151.461 133.758 152.784C133.801 154.107 133.854 154.8 133.918 154.864C134.046 154.992 134.857 155.088 136.35 155.152C137.865 155.216 138.857 155.195 139.326 155.088C139.668 155.003 140.265 154.949 141.118 154.928C141.972 154.885 142.516 154.896 142.75 154.96C143.198 155.067 143.529 155.333 143.742 155.76C143.956 156.187 143.977 156.635 143.806 157.104C143.636 157.573 143.422 157.872 143.166 158C143.038 158.043 142.9 158.107 142.75 158.192C142.622 158.256 142.27 158.299 141.694 158.32C141.076 158.363 140.542 158.405 140.094 158.448C139.668 158.491 138.334 158.512 136.094 158.512C133.876 158.512 132.606 158.491 132.286 158.448C131.625 158.384 131.166 158.171 130.91 157.808C130.676 157.445 130.548 156.784 130.526 155.824C130.484 155.035 130.43 154.384 130.366 153.872C130.302 153.317 130.27 152.432 130.27 151.216C130.27 149.979 130.228 149.243 130.142 149.008C130.057 148.795 129.993 147.813 129.95 146.064C129.865 142.032 129.79 139.675 129.726 138.992C129.662 138.075 129.982 137.456 130.686 137.136Z" fill="black"/>
<path d="M317 126H303C301.343 126 300 127.343 300 129V143C300 144.657 301.343 146 303 146H317C318.657 146 320 144.657 320 143V129C320 127.343 318.657 126 317 126Z" fill="url(#paint2_linear_55_64)"/>
<path d="M325.949 140V131.41H332.16V132.424H327.086V135.055H331.838V136.062H327.086V138.986H332.359V140H325.949ZM333.918 140V131.41H335.084L339.596 138.154V131.41H340.686V140H339.52L335.008 133.25V140H333.918ZM342.66 140V131.41H348.455V132.424H343.797V135.084H347.828V136.098H343.797V140H342.66ZM349.938 140V131.41H353.178C353.748 131.41 354.184 131.438 354.484 131.492C354.906 131.562 355.26 131.697 355.545 131.896C355.83 132.092 356.059 132.367 356.23 132.723C356.406 133.078 356.494 133.469 356.494 133.895C356.494 134.625 356.262 135.244 355.797 135.752C355.332 136.256 354.492 136.508 353.277 136.508H351.074V140H349.938ZM351.074 135.494H353.295C354.029 135.494 354.551 135.357 354.859 135.084C355.168 134.811 355.322 134.426 355.322 133.93C355.322 133.57 355.23 133.264 355.047 133.01C354.867 132.752 354.629 132.582 354.332 132.5C354.141 132.449 353.787 132.424 353.271 132.424H351.074V135.494ZM358.1 134.979V133.777H359.301V134.979H358.1ZM358.1 140V138.799H359.301V140H358.1ZM368.166 140H367.111V133.279C366.857 133.521 366.523 133.764 366.109 134.006C365.699 134.248 365.33 134.43 365.002 134.551V133.531C365.592 133.254 366.107 132.918 366.549 132.523C366.99 132.129 367.303 131.746 367.486 131.375H368.166V140ZM376.147 131.84H379.279V132.644H376.147V131.84ZM376.147 133.988H379.303V134.804H376.147V133.988ZM378.907 130.076H379.903V136.496H378.907V130.076ZM371.479 130.904H376.423V135.728H371.479V130.904ZM375.451 131.708H372.451V134.924H375.451V131.708ZM376.327 136.82C377.447 136.82 378.327 137 378.967 137.36C379.615 137.72 379.939 138.224 379.939 138.872C379.939 139.52 379.615 140.02 378.967 140.372C378.327 140.732 377.447 140.912 376.327 140.912C375.207 140.912 374.323 140.732 373.675 140.372C373.035 140.02 372.715 139.52 372.715 138.872C372.715 138.224 373.035 137.72 373.675 137.36C374.323 137 375.207 136.82 376.327 136.82ZM376.327 137.6C375.783 137.6 375.315 137.652 374.923 137.756C374.531 137.852 374.227 137.996 374.011 138.188C373.803 138.372 373.699 138.6 373.699 138.872C373.699 139.128 373.803 139.352 374.011 139.544C374.227 139.728 374.531 139.872 374.923 139.976C375.315 140.08 375.783 140.132 376.327 140.132C376.879 140.132 377.347 140.08 377.731 139.976C378.123 139.872 378.423 139.728 378.631 139.544C378.847 139.352 378.955 139.128 378.955 138.872C378.955 138.6 378.847 138.372 378.631 138.188C378.423 137.996 378.123 137.852 377.731 137.756C377.347 137.652 376.879 137.6 376.327 137.6ZM387.561 142.525C386.979 141.791 386.486 140.932 386.084 139.947C385.682 138.963 385.48 137.943 385.48 136.889C385.48 135.959 385.631 135.068 385.932 134.217C386.283 133.229 386.826 132.244 387.561 131.264H388.316C387.844 132.076 387.531 132.656 387.379 133.004C387.141 133.543 386.953 134.105 386.816 134.691C386.648 135.422 386.564 136.156 386.564 136.895C386.564 138.773 387.148 140.65 388.316 142.525H387.561ZM389.248 137.75L390.355 137.656C390.438 138.195 390.627 138.602 390.924 138.875C391.225 139.145 391.586 139.279 392.008 139.279C392.516 139.279 392.945 139.088 393.297 138.705C393.648 138.322 393.824 137.814 393.824 137.182C393.824 136.58 393.654 136.105 393.314 135.758C392.979 135.41 392.537 135.236 391.99 135.236C391.65 135.236 391.344 135.314 391.07 135.471C390.797 135.623 390.582 135.822 390.426 136.068L389.436 135.939L390.268 131.527H394.539V132.535H391.111L390.648 134.844C391.164 134.484 391.705 134.305 392.271 134.305C393.021 134.305 393.654 134.564 394.17 135.084C394.686 135.604 394.943 136.271 394.943 137.088C394.943 137.865 394.717 138.537 394.264 139.104C393.713 139.799 392.961 140.146 392.008 140.146C391.227 140.146 390.588 139.928 390.092 139.49C389.6 139.053 389.318 138.473 389.248 137.75ZM395.928 135.764C395.928 134.748 396.031 133.932 396.238 133.314C396.449 132.693 396.76 132.215 397.17 131.879C397.584 131.543 398.104 131.375 398.729 131.375C399.189 131.375 399.594 131.469 399.941 131.656C400.289 131.84 400.576 132.107 400.803 132.459C401.029 132.807 401.207 133.232 401.336 133.736C401.465 134.236 401.529 134.912 401.529 135.764C401.529 136.771 401.426 137.586 401.219 138.207C401.012 138.824 400.701 139.303 400.287 139.643C399.877 139.979 399.357 140.146 398.729 140.146C397.9 140.146 397.25 139.85 396.777 139.256C396.211 138.541 395.928 137.377 395.928 135.764ZM397.012 135.764C397.012 137.174 397.176 138.113 397.504 138.582C397.836 139.047 398.244 139.279 398.729 139.279C399.213 139.279 399.619 139.045 399.947 138.576C400.279 138.107 400.445 137.17 400.445 135.764C400.445 134.35 400.279 133.41 399.947 132.945C399.619 132.48 399.209 132.248 398.717 132.248C398.232 132.248 397.846 132.453 397.557 132.863C397.193 133.387 397.012 134.354 397.012 135.764ZM403.199 140V138.799H404.4V140H403.199ZM405.947 135.764C405.947 134.748 406.051 133.932 406.258 133.314C406.469 132.693 406.779 132.215 407.189 131.879C407.604 131.543 408.123 131.375 408.748 131.375C409.209 131.375 409.613 131.469 409.961 131.656C410.309 131.84 410.596 132.107 410.822 132.459C411.049 132.807 411.227 133.232 411.355 133.736C411.484 134.236 411.549 134.912 411.549 135.764C411.549 136.771 411.445 137.586 411.238 138.207C411.031 138.824 410.721 139.303 410.307 139.643C409.896 139.979 409.377 140.146 408.748 140.146C407.92 140.146 407.27 139.85 406.797 139.256C406.23 138.541 405.947 137.377 405.947 135.764ZM407.031 135.764C407.031 137.174 407.195 138.113 407.523 138.582C407.855 139.047 408.264 139.279 408.748 139.279C409.232 139.279 409.639 139.045 409.967 138.576C410.299 138.107 410.465 137.17 410.465 135.764C410.465 134.35 410.299 133.41 409.967 132.945C409.639 132.48 409.229 132.248 408.736 132.248C408.252 132.248 407.865 132.453 407.576 132.863C407.213 133.387 407.031 134.354 407.031 135.764ZM412.826 133.473C412.826 132.859 412.98 132.338 413.289 131.908C413.598 131.479 414.045 131.264 414.631 131.264C415.17 131.264 415.615 131.457 415.967 131.844C416.322 132.227 416.5 132.791 416.5 133.537C416.5 134.264 416.32 134.824 415.961 135.219C415.605 135.609 415.166 135.805 414.643 135.805C414.123 135.805 413.689 135.611 413.342 135.225C412.998 134.838 412.826 134.254 412.826 133.473ZM414.66 131.99C414.398 131.99 414.18 132.104 414.004 132.33C413.832 132.557 413.746 132.973 413.746 133.578C413.746 134.129 413.834 134.518 414.01 134.744C414.186 134.967 414.402 135.078 414.66 135.078C414.926 135.078 415.145 134.965 415.316 134.738C415.492 134.512 415.58 134.098 415.58 133.496C415.58 132.941 415.492 132.553 415.316 132.33C415.141 132.104 414.922 131.99 414.66 131.99ZM414.666 140.316L419.365 131.264H420.221L415.539 140.316H414.666ZM418.381 137.984C418.381 137.367 418.535 136.846 418.844 136.42C419.152 135.99 419.602 135.775 420.191 135.775C420.73 135.775 421.176 135.969 421.527 136.355C421.883 136.738 422.061 137.303 422.061 138.049C422.061 138.775 421.881 139.336 421.521 139.73C421.166 140.121 420.725 140.316 420.197 140.316C419.678 140.316 419.244 140.123 418.896 139.736C418.553 139.346 418.381 138.762 418.381 137.984ZM420.221 136.502C419.955 136.502 419.734 136.615 419.559 136.842C419.387 137.068 419.301 137.484 419.301 138.09C419.301 138.637 419.389 139.023 419.564 139.25C419.74 139.477 419.957 139.59 420.215 139.59C420.484 139.59 420.705 139.477 420.877 139.25C421.053 139.023 421.141 138.609 421.141 138.008C421.141 137.453 421.053 137.064 420.877 136.842C420.701 136.615 420.482 136.502 420.221 136.502ZM424.287 142.525H423.531C424.699 140.65 425.283 138.773 425.283 136.895C425.283 136.16 425.199 135.432 425.031 134.709C424.898 134.123 424.713 133.561 424.475 133.021C424.322 132.67 424.008 132.084 423.531 131.264H424.287C425.021 132.244 425.564 133.229 425.916 134.217C426.217 135.068 426.367 135.959 426.367 136.889C426.367 137.943 426.164 138.963 425.758 139.947C425.355 140.932 424.865 141.791 424.287 142.525Z" fill="black"/>
<path d="M317 154H303C301.343 154 300 155.343 300 157V171C300 172.657 301.343 174 303 174H317C318.657 174 320 172.657 320 171V157C320 155.343 318.657 154 317 154Z" fill="url(#paint3_linear_55_64)"/>
<path d="M325.949 168V159.41H332.16V160.424H327.086V163.055H331.838V164.062H327.086V166.986H332.359V168H325.949ZM333.543 165.24L334.615 165.146C334.666 165.576 334.783 165.93 334.967 166.207C335.154 166.48 335.443 166.703 335.834 166.875C336.225 167.043 336.664 167.127 337.152 167.127C337.586 167.127 337.969 167.062 338.301 166.934C338.633 166.805 338.879 166.629 339.039 166.406C339.203 166.18 339.285 165.934 339.285 165.668C339.285 165.398 339.207 165.164 339.051 164.965C338.895 164.762 338.637 164.592 338.277 164.455C338.047 164.365 337.537 164.227 336.748 164.039C335.959 163.848 335.406 163.668 335.09 163.5C334.68 163.285 334.373 163.02 334.17 162.703C333.971 162.383 333.871 162.025 333.871 161.631C333.871 161.197 333.994 160.793 334.24 160.418C334.486 160.039 334.846 159.752 335.318 159.557C335.791 159.361 336.316 159.264 336.895 159.264C337.531 159.264 338.092 159.367 338.576 159.574C339.064 159.777 339.439 160.078 339.701 160.477C339.963 160.875 340.104 161.326 340.123 161.83L339.033 161.912C338.975 161.369 338.775 160.959 338.436 160.682C338.1 160.404 337.602 160.266 336.941 160.266C336.254 160.266 335.752 160.393 335.436 160.646C335.123 160.896 334.967 161.199 334.967 161.555C334.967 161.863 335.078 162.117 335.301 162.316C335.52 162.516 336.09 162.721 337.012 162.932C337.938 163.139 338.572 163.32 338.916 163.477C339.416 163.707 339.785 164 340.023 164.355C340.262 164.707 340.381 165.113 340.381 165.574C340.381 166.031 340.25 166.463 339.988 166.869C339.727 167.271 339.35 167.586 338.857 167.812C338.369 168.035 337.818 168.146 337.205 168.146C336.428 168.146 335.775 168.033 335.248 167.807C334.725 167.58 334.312 167.24 334.012 166.787C333.715 166.33 333.559 165.814 333.543 165.24ZM344.119 168V160.424H341.289V159.41H348.098V160.424H345.256V168H344.119ZM348.689 165.562L349.715 165.422C349.742 166.078 349.865 166.527 350.084 166.77C350.303 167.012 350.605 167.133 350.992 167.133C351.277 167.133 351.523 167.068 351.73 166.939C351.938 166.807 352.08 166.629 352.158 166.406C352.236 166.18 352.275 165.82 352.275 165.328V159.41H353.412V165.264C353.412 165.982 353.324 166.539 353.148 166.934C352.977 167.328 352.701 167.629 352.322 167.836C351.947 168.043 351.506 168.146 350.998 168.146C350.244 168.146 349.666 167.93 349.264 167.496C348.865 167.062 348.674 166.418 348.689 165.562ZM355.428 162.979V161.777H356.629V162.979H355.428ZM355.428 168V166.799H356.629V168H355.428ZM365.494 168H364.439V161.279C364.186 161.521 363.852 161.764 363.438 162.006C363.027 162.248 362.658 162.43 362.33 162.551V161.531C362.92 161.254 363.436 160.918 363.877 160.523C364.318 160.129 364.631 159.746 364.814 159.375H365.494V168ZM373.475 159.84H376.607V160.644H373.475V159.84ZM373.475 161.988H376.631V162.804H373.475V161.988ZM376.235 158.076H377.231V164.496H376.235V158.076ZM368.807 158.904H373.751V163.728H368.807V158.904ZM372.779 159.708H369.779V162.924H372.779V159.708ZM373.655 164.82C374.775 164.82 375.655 165 376.295 165.36C376.943 165.72 377.267 166.224 377.267 166.872C377.267 167.52 376.943 168.02 376.295 168.372C375.655 168.732 374.775 168.912 373.655 168.912C372.535 168.912 371.651 168.732 371.003 168.372C370.363 168.02 370.043 167.52 370.043 166.872C370.043 166.224 370.363 165.72 371.003 165.36C371.651 165 372.535 164.82 373.655 164.82ZM373.655 165.6C373.111 165.6 372.643 165.652 372.251 165.756C371.859 165.852 371.555 165.996 371.339 166.188C371.131 166.372 371.027 166.6 371.027 166.872C371.027 167.128 371.131 167.352 371.339 167.544C371.555 167.728 371.859 167.872 372.251 167.976C372.643 168.08 373.111 168.132 373.655 168.132C374.207 168.132 374.675 168.08 375.059 167.976C375.451 167.872 375.751 167.728 375.959 167.544C376.175 167.352 376.283 167.128 376.283 166.872C376.283 166.6 376.175 166.372 375.959 166.188C375.751 165.996 375.451 165.852 375.059 165.756C374.675 165.652 374.207 165.6 373.655 165.6ZM384.889 170.525C384.307 169.791 383.814 168.932 383.412 167.947C383.01 166.963 382.809 165.943 382.809 164.889C382.809 163.959 382.959 163.068 383.26 162.217C383.611 161.229 384.154 160.244 384.889 159.264H385.645C385.172 160.076 384.859 160.656 384.707 161.004C384.469 161.543 384.281 162.105 384.145 162.691C383.977 163.422 383.893 164.156 383.893 164.895C383.893 166.773 384.477 168.65 385.645 170.525H384.889ZM386.576 165.75L387.684 165.656C387.766 166.195 387.955 166.602 388.252 166.875C388.553 167.145 388.914 167.279 389.336 167.279C389.844 167.279 390.273 167.088 390.625 166.705C390.977 166.322 391.152 165.814 391.152 165.182C391.152 164.58 390.982 164.105 390.643 163.758C390.307 163.41 389.865 163.236 389.318 163.236C388.979 163.236 388.672 163.314 388.398 163.471C388.125 163.623 387.91 163.822 387.754 164.068L386.764 163.939L387.596 159.527H391.867V160.535H388.439L387.977 162.844C388.492 162.484 389.033 162.305 389.6 162.305C390.35 162.305 390.982 162.564 391.498 163.084C392.014 163.604 392.271 164.271 392.271 165.088C392.271 165.865 392.045 166.537 391.592 167.104C391.041 167.799 390.289 168.146 389.336 168.146C388.555 168.146 387.916 167.928 387.42 167.49C386.928 167.053 386.646 166.473 386.576 165.75ZM393.256 163.764C393.256 162.748 393.359 161.932 393.566 161.314C393.777 160.693 394.088 160.215 394.498 159.879C394.912 159.543 395.432 159.375 396.057 159.375C396.518 159.375 396.922 159.469 397.27 159.656C397.617 159.84 397.904 160.107 398.131 160.459C398.357 160.807 398.535 161.232 398.664 161.736C398.793 162.236 398.857 162.912 398.857 163.764C398.857 164.771 398.754 165.586 398.547 166.207C398.34 166.824 398.029 167.303 397.615 167.643C397.205 167.979 396.686 168.146 396.057 168.146C395.229 168.146 394.578 167.85 394.105 167.256C393.539 166.541 393.256 165.377 393.256 163.764ZM394.34 163.764C394.34 165.174 394.504 166.113 394.832 166.582C395.164 167.047 395.572 167.279 396.057 167.279C396.541 167.279 396.947 167.045 397.275 166.576C397.607 166.107 397.773 165.17 397.773 163.764C397.773 162.35 397.607 161.41 397.275 160.945C396.947 160.48 396.537 160.248 396.045 160.248C395.561 160.248 395.174 160.453 394.885 160.863C394.521 161.387 394.34 162.354 394.34 163.764ZM400.527 168V166.799H401.729V168H400.527ZM403.275 163.764C403.275 162.748 403.379 161.932 403.586 161.314C403.797 160.693 404.107 160.215 404.518 159.879C404.932 159.543 405.451 159.375 406.076 159.375C406.537 159.375 406.941 159.469 407.289 159.656C407.637 159.84 407.924 160.107 408.15 160.459C408.377 160.807 408.555 161.232 408.684 161.736C408.812 162.236 408.877 162.912 408.877 163.764C408.877 164.771 408.773 165.586 408.566 166.207C408.359 166.824 408.049 167.303 407.635 167.643C407.225 167.979 406.705 168.146 406.076 168.146C405.248 168.146 404.598 167.85 404.125 167.256C403.559 166.541 403.275 165.377 403.275 163.764ZM404.359 163.764C404.359 165.174 404.523 166.113 404.852 166.582C405.184 167.047 405.592 167.279 406.076 167.279C406.561 167.279 406.967 167.045 407.295 166.576C407.627 166.107 407.793 165.17 407.793 163.764C407.793 162.35 407.627 161.41 407.295 160.945C406.967 160.48 406.557 160.248 406.064 160.248C405.58 160.248 405.193 160.453 404.904 160.863C404.541 161.387 404.359 162.354 404.359 163.764ZM410.154 161.473C410.154 160.859 410.309 160.338 410.617 159.908C410.926 159.479 411.373 159.264 411.959 159.264C412.498 159.264 412.943 159.457 413.295 159.844C413.65 160.227 413.828 160.791 413.828 161.537C413.828 162.264 413.648 162.824 413.289 163.219C412.934 163.609 412.494 163.805 411.971 163.805C411.451 163.805 411.018 163.611 410.67 163.225C410.326 162.838 410.154 162.254 410.154 161.473ZM411.988 159.99C411.727 159.99 411.508 160.104 411.332 160.33C411.16 160.557 411.074 160.973 411.074 161.578C411.074 162.129 411.162 162.518 411.338 162.744C411.514 162.967 411.73 163.078 411.988 163.078C412.254 163.078 412.473 162.965 412.645 162.738C412.82 162.512 412.908 162.098 412.908 161.496C412.908 160.941 412.82 160.553 412.645 160.33C412.469 160.104 412.25 159.99 411.988 159.99ZM411.994 168.316L416.693 159.264H417.549L412.867 168.316H411.994ZM415.709 165.984C415.709 165.367 415.863 164.846 416.172 164.42C416.48 163.99 416.93 163.775 417.52 163.775C418.059 163.775 418.504 163.969 418.855 164.355C419.211 164.738 419.389 165.303 419.389 166.049C419.389 166.775 419.209 167.336 418.85 167.73C418.494 168.121 418.053 168.316 417.525 168.316C417.006 168.316 416.572 168.123 416.225 167.736C415.881 167.346 415.709 166.762 415.709 165.984ZM417.549 164.502C417.283 164.502 417.062 164.615 416.887 164.842C416.715 165.068 416.629 165.484 416.629 166.09C416.629 166.637 416.717 167.023 416.893 167.25C417.068 167.477 417.285 167.59 417.543 167.59C417.812 167.59 418.033 167.477 418.205 167.25C418.381 167.023 418.469 166.609 418.469 166.008C418.469 165.453 418.381 165.064 418.205 164.842C418.029 164.615 417.811 164.502 417.549 164.502ZM421.615 170.525H420.859C422.027 168.65 422.611 166.773 422.611 164.895C422.611 164.16 422.527 163.432 422.359 162.709C422.227 162.123 422.041 161.561 421.803 161.021C421.65 160.67 421.336 160.084 420.859 159.264H421.615C422.35 160.244 422.893 161.229 423.244 162.217C423.545 163.068 423.695 163.959 423.695 164.889C423.695 165.943 423.492 166.963 423.086 167.947C422.684 168.932 422.193 169.791 421.615 170.525Z" fill="black"/>
<path d="M110.946 61V51.6943H117.846V53.2686H112.825V55.3315H117.497V56.8994H112.825V59.4321H118.023V61H110.946ZM119.636 61V51.6943H121.464L125.272 57.9087V51.6943H127.018V61H125.133L121.381 54.9316V61H119.636ZM129.024 61V51.6943H135.403V53.2686H130.903V55.4712H134.788V57.0454H130.903V61H129.024ZM136.958 61V51.6943H139.974C141.116 51.6943 141.861 51.7409 142.208 51.834C142.741 51.9736 143.188 52.2783 143.547 52.748C143.907 53.2135 144.087 53.8166 144.087 54.5571C144.087 55.1284 143.983 55.6087 143.776 55.998C143.569 56.3874 143.304 56.6942 142.982 56.9185C142.665 57.1385 142.341 57.2845 142.011 57.3564C141.563 57.4453 140.913 57.4897 140.062 57.4897H138.837V61H136.958ZM138.837 53.2686V55.9092H139.866C140.606 55.9092 141.101 55.8605 141.351 55.7632C141.601 55.6659 141.795 55.5135 141.935 55.3062C142.079 55.0988 142.151 54.8576 142.151 54.5825C142.151 54.244 142.051 53.9647 141.853 53.7446C141.654 53.5246 141.402 53.387 141.097 53.332C140.873 53.2897 140.422 53.2686 139.745 53.2686H138.837Z" fill="white"/>
<path d="M114.946 250V240.694H121.846V242.269H116.825V244.332H121.497V245.899H116.825V248.432H122.023V250H114.946ZM123.141 246.972L124.969 246.794C125.079 247.408 125.301 247.859 125.635 248.146C125.974 248.434 126.429 248.578 127 248.578C127.605 248.578 128.06 248.451 128.365 248.197C128.674 247.939 128.828 247.639 128.828 247.296C128.828 247.076 128.763 246.89 128.631 246.737C128.504 246.581 128.28 246.445 127.958 246.331C127.738 246.255 127.237 246.119 126.454 245.925C125.447 245.675 124.74 245.368 124.334 245.004C123.763 244.492 123.477 243.868 123.477 243.132C123.477 242.658 123.61 242.216 123.877 241.805C124.148 241.39 124.535 241.075 125.039 240.859C125.546 240.644 126.158 240.536 126.873 240.536C128.041 240.536 128.919 240.792 129.507 241.304C130.1 241.816 130.411 242.499 130.44 243.354L128.562 243.437C128.481 242.958 128.308 242.616 128.041 242.408C127.779 242.197 127.383 242.091 126.854 242.091C126.308 242.091 125.881 242.203 125.572 242.427C125.373 242.571 125.273 242.764 125.273 243.005C125.273 243.225 125.367 243.413 125.553 243.57C125.79 243.769 126.365 243.976 127.279 244.192C128.193 244.408 128.868 244.632 129.304 244.865C129.744 245.093 130.087 245.409 130.333 245.811C130.582 246.208 130.707 246.701 130.707 247.29C130.707 247.823 130.559 248.322 130.263 248.788C129.966 249.253 129.548 249.6 129.006 249.829C128.464 250.053 127.789 250.165 126.981 250.165C125.805 250.165 124.901 249.894 124.271 249.353C123.64 248.807 123.263 248.013 123.141 246.972ZM134.382 250V242.269H131.621V240.694H139.016V242.269H136.261V250H134.382ZM143.593 240.694H145.465V246.585C145.465 247.355 145.398 247.948 145.262 248.362C145.08 248.904 144.75 249.34 144.272 249.67C143.794 249.996 143.163 250.159 142.38 250.159C141.462 250.159 140.755 249.903 140.26 249.391C139.765 248.874 139.515 248.119 139.511 247.125L141.282 246.921C141.303 247.455 141.382 247.831 141.517 248.051C141.72 248.386 142.029 248.553 142.444 248.553C142.863 248.553 143.159 248.434 143.333 248.197C143.506 247.956 143.593 247.459 143.593 246.706V240.694Z" fill="white"/>
<defs>
<linearGradient id="paint0_linear_55_64" x1="130" y1="150" x2="130" y2="280" gradientUnits="userSpaceOnUse">
<stop stop-color="#85E5A7"/>
<stop offset="1" stop-color="#6CD8A0"/>
</linearGradient>
<linearGradient id="paint1_linear_55_64" x1="130" y1="20" x2="130" y2="150" gradientUnits="userSpaceOnUse">
<stop stop-color="#76D5FC"/>
<stop offset="1" stop-color="#6EC5EE"/>
</linearGradient>
<linearGradient id="paint2_linear_55_64" x1="310" y1="126" x2="310" y2="146" gradientUnits="userSpaceOnUse">
<stop stop-color="#76D5FC"/>
<stop offset="1" stop-color="#6EC5EE"/>
</linearGradient>
<linearGradient id="paint3_linear_55_64" x1="310" y1="154" x2="310" y2="174" gradientUnits="userSpaceOnUse">
<stop stop-color="#85E5A7"/>
<stop offset="1" stop-color="#6CD8A0"/>
</linearGradient>
</defs>
</svg>
