<svg width="450" height="300" viewBox="0 0 450 300" fill="none" xmlns="http://www.w3.org/2000/svg">
<rect width="450" height="300" fill="white"/>
<path d="M130 150H260C260 167.072 256.637 183.977 250.104 199.749C243.571 215.521 233.996 229.852 221.924 241.924C209.852 253.996 195.521 263.571 179.749 270.104C163.977 276.637 147.072 280 130 280C95.5219 280 62.4558 266.304 38.0761 241.924C13.6964 217.544 0 184.478 0 150H130Z" fill="url(#paint0_linear_55_178)"/>
<path d="M130 150H0C0 132.928 3.36255 116.023 9.89566 100.251C16.4288 84.4788 26.0045 70.1477 38.0761 58.0761C62.4558 33.6964 95.5219 20 130 20V150Z" fill="url(#paint1_linear_55_178)"/>
<path d="M130 150V20C147.072 20 163.977 23.3625 179.749 29.8957C195.521 36.4288 209.852 46.0045 221.924 58.0761C233.996 70.1477 243.571 84.4788 250.104 100.251C256.637 116.023 260 132.928 260 150H130Z" fill="url(#paint2_linear_55_178)"/>
<path d="M130 215C165.899 215 195 185.899 195 150C195 114.101 165.899 85 130 85C94.1015 85 65 114.101 65 150C65 185.899 94.1015 215 130 215Z" fill="white"/>
<path d="M114.536 137.264C115.048 137.157 115.453 137.179 115.752 137.328C116.072 137.477 116.339 137.776 116.552 138.224L116.808 138.736V141.104C116.787 142.704 116.819 143.717 116.904 144.144C116.947 144.528 117 145.349 117.064 146.608C117.085 147.803 117.128 148.56 117.192 148.88C117.213 149.136 117.224 150.629 117.224 153.36L117.192 157.424L117 157.68C116.659 158.128 116.264 158.395 115.816 158.48C115.368 158.565 114.963 158.459 114.6 158.16C114.301 157.925 114.131 157.701 114.088 157.488C114.045 157.253 114.013 156.528 113.992 155.312C113.992 153.925 113.949 153.061 113.864 152.72C113.779 152.4 113.736 151.387 113.736 149.68C113.736 147.952 113.704 146.843 113.64 146.352C113.576 145.84 113.544 145.371 113.544 144.944C113.544 144.432 113.501 144.176 113.416 144.176C113.373 144.176 113.288 144.261 113.16 144.432C113.096 144.517 113 144.656 112.872 144.848C112.744 144.997 112.637 145.157 112.552 145.328C112.467 145.477 112.157 145.904 111.624 146.608C111.069 147.376 110.771 147.792 110.728 147.856C110.621 147.984 110.451 148.197 110.216 148.496C109.939 148.837 109.779 149.04 109.736 149.104C109.693 149.189 109.544 149.36 109.288 149.616C109.075 149.872 108.947 150.053 108.904 150.16C108.755 150.523 108.456 150.864 108.008 151.184C107.56 151.504 107.176 151.643 106.856 151.6C106.387 151.557 106.013 151.408 105.736 151.152C105.48 150.875 104.893 150.053 103.976 148.688C103.912 148.581 103.731 148.315 103.432 147.888C103.24 147.611 103.037 147.312 102.824 146.992C102.312 146.181 101.971 145.669 101.8 145.456C101.715 145.392 101.64 145.275 101.576 145.104C101.491 144.955 101.373 144.805 101.224 144.656C101.096 144.507 101 144.432 100.936 144.432C100.893 144.432 100.861 144.72 100.84 145.296C100.84 145.872 100.851 146.48 100.872 147.12C100.915 147.739 100.968 148.112 101.032 148.24C101.096 148.432 101.149 149.573 101.192 151.664C101.213 153.755 101.245 154.96 101.288 155.28C101.395 155.984 101.299 156.549 101 156.976C100.701 157.403 100.253 157.616 99.656 157.616C99.3573 157.616 99.08 157.531 98.824 157.36C98.3973 157.083 98.1307 156.763 98.024 156.4C97.9387 156.016 97.8853 155.067 97.864 153.552C97.8427 152.037 97.8107 151.248 97.768 151.184C97.7467 151.141 97.7147 150.501 97.672 149.264C97.6507 148.027 97.5867 147.291 97.48 147.056C97.3947 146.843 97.3413 145.52 97.32 143.088C97.32 140.656 97.3627 139.365 97.448 139.216C97.512 139.131 97.576 138.971 97.64 138.736C97.7893 138.267 98.0987 137.925 98.568 137.712C99.0587 137.499 99.56 137.467 100.072 137.616C100.605 137.765 100.979 138.064 101.192 138.512C101.277 138.704 101.331 138.811 101.352 138.832C101.395 138.853 101.469 138.949 101.576 139.12C101.789 139.419 101.917 139.6 101.96 139.664C102.003 139.749 102.088 139.888 102.216 140.08C102.707 140.891 103.208 141.595 103.72 142.192C103.891 142.405 104.072 142.651 104.264 142.928C104.563 143.355 104.733 143.6 104.776 143.664C104.904 143.813 105 143.952 105.064 144.08C105.107 144.187 105.16 144.283 105.224 144.368C105.309 144.432 105.405 144.549 105.512 144.72C105.747 145.147 105.917 145.424 106.024 145.552C106.088 145.637 106.248 145.883 106.504 146.288C106.739 146.715 106.899 146.949 106.984 146.992C107.069 147.013 107.208 146.875 107.4 146.576C107.549 146.341 107.72 146.107 107.912 145.872C108.104 145.616 108.211 145.445 108.232 145.36C108.296 145.275 108.381 145.168 108.488 145.04C108.893 144.549 109.213 144.101 109.448 143.696C109.555 143.547 109.704 143.344 109.896 143.088C110.067 142.875 110.184 142.715 110.248 142.608C110.525 142.16 110.845 141.691 111.208 141.2C111.464 140.859 111.635 140.624 111.72 140.496C111.827 140.325 111.987 140.123 112.2 139.888C112.435 139.589 112.552 139.419 112.552 139.376C112.552 139.333 112.627 139.227 112.776 139.056C112.925 138.885 113.16 138.576 113.48 138.128C113.715 137.787 113.885 137.573 113.992 137.488C114.12 137.381 114.301 137.307 114.536 137.264ZM125.531 137.424C125.787 137.403 126.171 137.403 126.683 137.424C127.217 137.445 127.622 137.499 127.899 137.584C128.219 137.648 128.433 137.68 128.539 137.68C128.667 137.68 128.998 137.808 129.531 138.064C130.065 138.32 130.427 138.523 130.619 138.672C130.875 138.885 131.014 139.269 131.035 139.824C131.057 140.379 130.95 140.773 130.715 141.008C130.417 141.349 130.011 141.531 129.499 141.552C128.987 141.552 128.486 141.403 127.995 141.104C127.803 140.997 127.345 140.955 126.619 140.976C125.894 140.976 125.382 141.04 125.083 141.168C124.614 141.339 124.027 141.765 123.323 142.448C122.619 143.131 122.267 143.611 122.267 143.888C122.267 143.952 122.203 144.08 122.075 144.272C121.969 144.464 121.905 144.677 121.883 144.912C121.841 145.189 121.777 145.424 121.691 145.616C121.585 145.872 121.521 146.117 121.499 146.352C121.457 146.608 121.393 146.853 121.307 147.088C121.222 147.365 121.19 147.952 121.211 148.848C121.233 149.723 121.286 150.299 121.371 150.576C121.478 150.832 121.531 151.003 121.531 151.088C121.531 151.195 121.585 151.333 121.691 151.504C121.819 151.675 121.883 151.781 121.883 151.824C121.883 151.973 122.097 152.176 122.523 152.432C122.95 152.688 123.377 152.869 123.803 152.976C125.979 153.445 127.259 152.763 127.643 150.928C127.707 150.608 127.782 150.373 127.867 150.224C127.931 150.075 127.974 149.872 127.995 149.616C128.017 149.36 128.006 149.189 127.963 149.104C127.921 149.019 127.494 148.987 126.683 149.008C126.001 149.008 125.531 148.987 125.275 148.944C125.019 148.88 124.742 148.731 124.443 148.496C123.931 148.091 123.707 147.579 123.771 146.96C123.857 146.341 124.209 145.893 124.827 145.616C124.998 145.531 125.798 145.488 127.227 145.488C128.657 145.467 129.521 145.413 129.819 145.328C130.609 145.093 131.27 145.221 131.803 145.712C132.337 146.181 132.475 146.789 132.219 147.536C132.177 147.728 132.134 148.144 132.091 148.784C132.049 149.403 131.995 149.797 131.931 149.968C131.867 150.139 131.835 151.323 131.835 153.52C131.835 155.205 131.814 156.261 131.771 156.688C131.75 157.115 131.675 157.413 131.547 157.584C131.547 157.605 131.526 157.637 131.483 157.68C131.462 157.723 131.43 157.765 131.387 157.808C131.366 157.851 131.345 157.893 131.323 157.936C131.238 158.064 131.153 158.139 131.067 158.16C130.982 158.203 130.854 158.267 130.683 158.352C130.193 158.672 129.617 158.512 128.955 157.872C128.763 157.723 128.635 157.573 128.571 157.424C128.529 157.253 128.486 156.987 128.443 156.624C128.422 156.133 128.369 155.867 128.283 155.824C128.198 155.76 127.963 155.824 127.579 156.016C127.046 156.293 126.662 156.464 126.427 156.528C126.193 156.571 125.681 156.581 124.891 156.56C123.953 156.539 123.398 156.485 123.227 156.4C123.035 156.293 122.843 156.229 122.651 156.208C122.438 156.187 122.267 156.144 122.139 156.08C122.011 155.995 121.851 155.92 121.659 155.856C121.467 155.792 121.297 155.707 121.147 155.6C121.019 155.493 120.923 155.44 120.859 155.44C120.795 155.44 120.571 155.28 120.187 154.96C119.825 154.64 119.569 154.395 119.419 154.224C119.249 154.011 119.153 153.893 119.131 153.872C119.025 153.787 118.854 153.52 118.619 153.072C118.406 152.603 118.278 152.24 118.235 151.984C118.171 151.707 118.118 151.525 118.075 151.44C118.033 151.333 117.979 150.917 117.915 150.192C117.851 149.445 117.83 148.891 117.851 148.528C117.937 147.099 118.022 146.267 118.107 146.032C118.171 145.861 118.225 145.627 118.267 145.328C118.31 145.008 118.353 144.816 118.395 144.752C118.417 144.688 118.502 144.432 118.651 143.984C118.779 143.536 118.875 143.259 118.939 143.152C119.003 143.088 119.035 143.024 119.035 142.96C119.035 142.875 119.067 142.779 119.131 142.672C119.217 142.501 119.291 142.32 119.355 142.128C119.505 141.765 119.91 141.2 120.571 140.432C121.254 139.643 121.819 139.077 122.267 138.736C122.545 138.523 122.929 138.299 123.419 138.064C123.91 137.829 124.273 137.691 124.507 137.648C124.614 137.648 124.763 137.616 124.955 137.552C125.126 137.509 125.318 137.467 125.531 137.424ZM150.192 137.264C150.704 137.157 151.11 137.179 151.408 137.328C151.728 137.477 151.995 137.776 152.208 138.224L152.464 138.736V141.104C152.443 142.704 152.475 143.717 152.56 144.144C152.603 144.528 152.656 145.349 152.72 146.608C152.742 147.803 152.784 148.56 152.848 148.88C152.87 149.136 152.88 150.629 152.88 153.36L152.848 157.424L152.656 157.68C152.315 158.128 151.92 158.395 151.472 158.48C151.024 158.565 150.619 158.459 150.256 158.16C149.958 157.925 149.787 157.701 149.744 157.488C149.702 157.253 149.67 156.528 149.648 155.312C149.648 153.925 149.606 153.061 149.52 152.72C149.435 152.4 149.392 151.387 149.392 149.68C149.392 147.952 149.36 146.843 149.296 146.352C149.232 145.84 149.2 145.371 149.2 144.944C149.2 144.432 149.158 144.176 149.072 144.176C149.03 144.176 148.944 144.261 148.816 144.432C148.752 144.517 148.656 144.656 148.528 144.848C148.4 144.997 148.294 145.157 148.208 145.328C148.123 145.477 147.814 145.904 147.28 146.608C146.726 147.376 146.427 147.792 146.384 147.856C146.278 147.984 146.107 148.197 145.872 148.496C145.595 148.837 145.435 149.04 145.392 149.104C145.35 149.189 145.2 149.36 144.944 149.616C144.731 149.872 144.603 150.053 144.56 150.16C144.411 150.523 144.112 150.864 143.664 151.184C143.216 151.504 142.832 151.643 142.512 151.6C142.043 151.557 141.67 151.408 141.392 151.152C141.136 150.875 140.55 150.053 139.632 148.688C139.568 148.581 139.387 148.315 139.088 147.888C138.896 147.611 138.694 147.312 138.48 146.992C137.968 146.181 137.627 145.669 137.456 145.456C137.371 145.392 137.296 145.275 137.232 145.104C137.147 144.955 137.03 144.805 136.88 144.656C136.752 144.507 136.656 144.432 136.592 144.432C136.55 144.432 136.518 144.72 136.496 145.296C136.496 145.872 136.507 146.48 136.528 147.12C136.571 147.739 136.624 148.112 136.688 148.24C136.752 148.432 136.806 149.573 136.848 151.664C136.87 153.755 136.902 154.96 136.944 155.28C137.051 155.984 136.955 156.549 136.656 156.976C136.358 157.403 135.91 157.616 135.312 157.616C135.014 157.616 134.736 157.531 134.48 157.36C134.054 157.083 133.787 156.763 133.68 156.4C133.595 156.016 133.542 155.067 133.52 153.552C133.499 152.037 133.467 151.248 133.424 151.184C133.403 151.141 133.371 150.501 133.328 149.264C133.307 148.027 133.243 147.291 133.136 147.056C133.051 146.843 132.998 145.52 132.976 143.088C132.976 140.656 133.019 139.365 133.104 139.216C133.168 139.131 133.232 138.971 133.296 138.736C133.446 138.267 133.755 137.925 134.224 137.712C134.715 137.499 135.216 137.467 135.728 137.616C136.262 137.765 136.635 138.064 136.848 138.512C136.934 138.704 136.987 138.811 137.008 138.832C137.051 138.853 137.126 138.949 137.232 139.12C137.446 139.419 137.574 139.6 137.616 139.664C137.659 139.749 137.744 139.888 137.872 140.08C138.363 140.891 138.864 141.595 139.376 142.192C139.547 142.405 139.728 142.651 139.92 142.928C140.219 143.355 140.39 143.6 140.432 143.664C140.56 143.813 140.656 143.952 140.72 144.08C140.763 144.187 140.816 144.283 140.88 144.368C140.966 144.432 141.062 144.549 141.168 144.72C141.403 145.147 141.574 145.424 141.68 145.552C141.744 145.637 141.904 145.883 142.16 146.288C142.395 146.715 142.555 146.949 142.64 146.992C142.726 147.013 142.864 146.875 143.056 146.576C143.206 146.341 143.376 146.107 143.568 145.872C143.76 145.616 143.867 145.445 143.888 145.36C143.952 145.275 144.038 145.168 144.144 145.04C144.55 144.549 144.87 144.101 145.104 143.696C145.211 143.547 145.36 143.344 145.552 143.088C145.723 142.875 145.84 142.715 145.904 142.608C146.182 142.16 146.502 141.691 146.864 141.2C147.12 140.859 147.291 140.624 147.376 140.496C147.483 140.325 147.643 140.123 147.856 139.888C148.091 139.589 148.208 139.419 148.208 139.376C148.208 139.333 148.283 139.227 148.432 139.056C148.582 138.885 148.816 138.576 149.136 138.128C149.371 137.787 149.542 137.573 149.648 137.488C149.776 137.381 149.958 137.307 150.192 137.264ZM161.828 137.232C162.148 137.125 163.289 137.083 165.252 137.104C167.236 137.125 168.356 137.189 168.612 137.296C169.06 137.467 169.444 137.797 169.764 138.288C169.977 138.629 169.998 139.035 169.828 139.504C169.678 139.952 169.38 140.283 168.932 140.496L168.516 140.72L165.796 140.752C163.982 140.752 163.044 140.784 162.98 140.848C162.937 140.891 162.905 142.587 162.884 145.936C162.862 149.285 162.873 152.293 162.916 154.96C162.937 156.24 162.926 157.008 162.884 157.264C162.841 157.499 162.692 157.744 162.436 158C162.009 158.448 161.518 158.608 160.964 158.48C160.43 158.352 160.025 157.989 159.748 157.392L159.524 156.912L159.492 149.104C159.47 143.92 159.438 141.285 159.396 141.2C159.332 141.115 158.809 141.072 157.828 141.072C156.846 141.051 156.206 141.083 155.908 141.168C155.225 141.339 154.649 141.264 154.18 140.944C153.732 140.603 153.508 140.08 153.508 139.376C153.508 138.715 153.7 138.245 154.084 137.968C154.489 137.691 155.161 137.552 156.1 137.552C156.761 137.552 157.166 137.531 157.316 137.488C157.486 137.445 158.222 137.403 159.524 137.36C160.846 137.339 161.614 137.296 161.828 137.232Z" fill="black"/>
<path d="M317 112H303C301.343 112 300 113.343 300 115V129C300 130.657 301.343 132 303 132H317C318.657 132 320 130.657 320 129V115C320 113.343 318.657 112 317 112Z" fill="url(#paint3_linear_55_178)"/>
<path d="M325.949 126V117.41H332.16V118.424H327.086V121.055H331.838V122.062H327.086V124.986H332.359V126H325.949ZM333.918 126V117.41H335.084L339.596 124.154V117.41H340.686V126H339.52L335.008 119.25V126H333.918ZM344.787 126V118.424H341.957V117.41H348.766V118.424H345.924V126H344.787ZM349.938 126V117.41H353.178C353.748 117.41 354.184 117.438 354.484 117.492C354.906 117.562 355.26 117.697 355.545 117.896C355.83 118.092 356.059 118.367 356.23 118.723C356.406 119.078 356.494 119.469 356.494 119.895C356.494 120.625 356.262 121.244 355.797 121.752C355.332 122.256 354.492 122.508 353.277 122.508H351.074V126H349.938ZM351.074 121.494H353.295C354.029 121.494 354.551 121.357 354.859 121.084C355.168 120.811 355.322 120.426 355.322 119.93C355.322 119.57 355.23 119.264 355.047 119.01C354.867 118.752 354.629 118.582 354.332 118.5C354.141 118.449 353.787 118.424 353.271 118.424H351.074V121.494ZM358.1 120.979V119.777H359.301V120.979H358.1ZM358.1 126V124.799H359.301V126H358.1ZM369.736 124.986V126H364.059C364.051 125.746 364.092 125.502 364.182 125.268C364.326 124.881 364.557 124.5 364.873 124.125C365.193 123.75 365.654 123.316 366.256 122.824C367.189 122.059 367.82 121.453 368.148 121.008C368.477 120.559 368.641 120.135 368.641 119.736C368.641 119.318 368.49 118.967 368.189 118.682C367.893 118.393 367.504 118.248 367.023 118.248C366.516 118.248 366.109 118.4 365.805 118.705C365.5 119.01 365.346 119.432 365.342 119.971L364.258 119.859C364.332 119.051 364.611 118.436 365.096 118.014C365.58 117.588 366.23 117.375 367.047 117.375C367.871 117.375 368.523 117.604 369.004 118.061C369.484 118.518 369.725 119.084 369.725 119.76C369.725 120.104 369.654 120.441 369.514 120.773C369.373 121.105 369.139 121.455 368.811 121.822C368.486 122.189 367.945 122.693 367.188 123.334C366.555 123.865 366.148 124.227 365.969 124.418C365.789 124.605 365.641 124.795 365.523 124.986H369.736ZM376.147 117.84H379.279V118.644H376.147V117.84ZM376.147 119.988H379.303V120.804H376.147V119.988ZM378.907 116.076H379.903V122.496H378.907V116.076ZM371.479 116.904H376.423V121.728H371.479V116.904ZM375.451 117.708H372.451V120.924H375.451V117.708ZM376.327 122.82C377.447 122.82 378.327 123 378.967 123.36C379.615 123.72 379.939 124.224 379.939 124.872C379.939 125.52 379.615 126.02 378.967 126.372C378.327 126.732 377.447 126.912 376.327 126.912C375.207 126.912 374.323 126.732 373.675 126.372C373.035 126.02 372.715 125.52 372.715 124.872C372.715 124.224 373.035 123.72 373.675 123.36C374.323 123 375.207 122.82 376.327 122.82ZM376.327 123.6C375.783 123.6 375.315 123.652 374.923 123.756C374.531 123.852 374.227 123.996 374.011 124.188C373.803 124.372 373.699 124.6 373.699 124.872C373.699 125.128 373.803 125.352 374.011 125.544C374.227 125.728 374.531 125.872 374.923 125.976C375.315 126.08 375.783 126.132 376.327 126.132C376.879 126.132 377.347 126.08 377.731 125.976C378.123 125.872 378.423 125.728 378.631 125.544C378.847 125.352 378.955 125.128 378.955 124.872C378.955 124.6 378.847 124.372 378.631 124.188C378.423 123.996 378.123 123.852 377.731 123.756C377.347 123.652 376.879 123.6 376.327 123.6ZM387.561 128.525C386.979 127.791 386.486 126.932 386.084 125.947C385.682 124.963 385.48 123.943 385.48 122.889C385.48 121.959 385.631 121.068 385.932 120.217C386.283 119.229 386.826 118.244 387.561 117.264H388.316C387.844 118.076 387.531 118.656 387.379 119.004C387.141 119.543 386.953 120.105 386.816 120.691C386.648 121.422 386.564 122.156 386.564 122.895C386.564 124.773 387.148 126.65 388.316 128.525H387.561ZM389.248 123.75L390.355 123.656C390.438 124.195 390.627 124.602 390.924 124.875C391.225 125.145 391.586 125.279 392.008 125.279C392.516 125.279 392.945 125.088 393.297 124.705C393.648 124.322 393.824 123.814 393.824 123.182C393.824 122.58 393.654 122.105 393.314 121.758C392.979 121.41 392.537 121.236 391.99 121.236C391.65 121.236 391.344 121.314 391.07 121.471C390.797 121.623 390.582 121.822 390.426 122.068L389.436 121.939L390.268 117.527H394.539V118.535H391.111L390.648 120.844C391.164 120.484 391.705 120.305 392.271 120.305C393.021 120.305 393.654 120.564 394.17 121.084C394.686 121.604 394.943 122.271 394.943 123.088C394.943 123.865 394.717 124.537 394.264 125.104C393.713 125.799 392.961 126.146 392.008 126.146C391.227 126.146 390.588 125.928 390.092 125.49C389.6 125.053 389.318 124.473 389.248 123.75ZM395.928 121.764C395.928 120.748 396.031 119.932 396.238 119.314C396.449 118.693 396.76 118.215 397.17 117.879C397.584 117.543 398.104 117.375 398.729 117.375C399.189 117.375 399.594 117.469 399.941 117.656C400.289 117.84 400.576 118.107 400.803 118.459C401.029 118.807 401.207 119.232 401.336 119.736C401.465 120.236 401.529 120.912 401.529 121.764C401.529 122.771 401.426 123.586 401.219 124.207C401.012 124.824 400.701 125.303 400.287 125.643C399.877 125.979 399.357 126.146 398.729 126.146C397.9 126.146 397.25 125.85 396.777 125.256C396.211 124.541 395.928 123.377 395.928 121.764ZM397.012 121.764C397.012 123.174 397.176 124.113 397.504 124.582C397.836 125.047 398.244 125.279 398.729 125.279C399.213 125.279 399.619 125.045 399.947 124.576C400.279 124.107 400.445 123.17 400.445 121.764C400.445 120.35 400.279 119.41 399.947 118.945C399.619 118.48 399.209 118.248 398.717 118.248C398.232 118.248 397.846 118.453 397.557 118.863C397.193 119.387 397.012 120.354 397.012 121.764ZM403.199 126V124.799H404.4V126H403.199ZM405.947 121.764C405.947 120.748 406.051 119.932 406.258 119.314C406.469 118.693 406.779 118.215 407.189 117.879C407.604 117.543 408.123 117.375 408.748 117.375C409.209 117.375 409.613 117.469 409.961 117.656C410.309 117.84 410.596 118.107 410.822 118.459C411.049 118.807 411.227 119.232 411.355 119.736C411.484 120.236 411.549 120.912 411.549 121.764C411.549 122.771 411.445 123.586 411.238 124.207C411.031 124.824 410.721 125.303 410.307 125.643C409.896 125.979 409.377 126.146 408.748 126.146C407.92 126.146 407.27 125.85 406.797 125.256C406.23 124.541 405.947 123.377 405.947 121.764ZM407.031 121.764C407.031 123.174 407.195 124.113 407.523 124.582C407.855 125.047 408.264 125.279 408.748 125.279C409.232 125.279 409.639 125.045 409.967 124.576C410.299 124.107 410.465 123.17 410.465 121.764C410.465 120.35 410.299 119.41 409.967 118.945C409.639 118.48 409.229 118.248 408.736 118.248C408.252 118.248 407.865 118.453 407.576 118.863C407.213 119.387 407.031 120.354 407.031 121.764ZM412.826 119.473C412.826 118.859 412.98 118.338 413.289 117.908C413.598 117.479 414.045 117.264 414.631 117.264C415.17 117.264 415.615 117.457 415.967 117.844C416.322 118.227 416.5 118.791 416.5 119.537C416.5 120.264 416.32 120.824 415.961 121.219C415.605 121.609 415.166 121.805 414.643 121.805C414.123 121.805 413.689 121.611 413.342 121.225C412.998 120.838 412.826 120.254 412.826 119.473ZM414.66 117.99C414.398 117.99 414.18 118.104 414.004 118.33C413.832 118.557 413.746 118.973 413.746 119.578C413.746 120.129 413.834 120.518 414.01 120.744C414.186 120.967 414.402 121.078 414.66 121.078C414.926 121.078 415.145 120.965 415.316 120.738C415.492 120.512 415.58 120.098 415.58 119.496C415.58 118.941 415.492 118.553 415.316 118.33C415.141 118.104 414.922 117.99 414.66 117.99ZM414.666 126.316L419.365 117.264H420.221L415.539 126.316H414.666ZM418.381 123.984C418.381 123.367 418.535 122.846 418.844 122.42C419.152 121.99 419.602 121.775 420.191 121.775C420.73 121.775 421.176 121.969 421.527 122.355C421.883 122.738 422.061 123.303 422.061 124.049C422.061 124.775 421.881 125.336 421.521 125.73C421.166 126.121 420.725 126.316 420.197 126.316C419.678 126.316 419.244 126.123 418.896 125.736C418.553 125.346 418.381 124.762 418.381 123.984ZM420.221 122.502C419.955 122.502 419.734 122.615 419.559 122.842C419.387 123.068 419.301 123.484 419.301 124.09C419.301 124.637 419.389 125.023 419.564 125.25C419.74 125.477 419.957 125.59 420.215 125.59C420.484 125.59 420.705 125.477 420.877 125.25C421.053 125.023 421.141 124.609 421.141 124.008C421.141 123.453 421.053 123.064 420.877 122.842C420.701 122.615 420.482 122.502 420.221 122.502ZM424.287 128.525H423.531C424.699 126.65 425.283 124.773 425.283 122.895C425.283 122.16 425.199 121.432 425.031 120.709C424.898 120.123 424.713 119.561 424.475 119.021C424.322 118.67 424.008 118.084 423.531 117.264H424.287C425.021 118.244 425.564 119.229 425.916 120.217C426.217 121.068 426.367 121.959 426.367 122.889C426.367 123.943 426.164 124.963 425.758 125.947C425.355 126.932 424.865 127.791 424.287 128.525Z" fill="black"/>
<path d="M317 140H303C301.343 140 300 141.343 300 143V157C300 158.657 301.343 160 303 160H317C318.657 160 320 158.657 320 157V143C320 141.343 318.657 140 317 140Z" fill="url(#paint4_linear_55_178)"/>
<path d="M325.949 154V145.41H332.16V146.424H327.086V149.055H331.838V150.062H327.086V152.986H332.359V154H325.949ZM333.918 154V145.41H335.084L339.596 152.154V145.41H340.686V154H339.52L335.008 147.25V154H333.918ZM342.66 154V145.41H348.455V146.424H343.797V149.084H347.828V150.098H343.797V154H342.66ZM349.357 151.562L350.383 151.422C350.41 152.078 350.533 152.527 350.752 152.77C350.971 153.012 351.273 153.133 351.66 153.133C351.945 153.133 352.191 153.068 352.398 152.939C352.605 152.807 352.748 152.629 352.826 152.406C352.904 152.18 352.943 151.82 352.943 151.328V145.41H354.08V151.264C354.08 151.982 353.992 152.539 353.816 152.934C353.645 153.328 353.369 153.629 352.99 153.836C352.615 154.043 352.174 154.146 351.666 154.146C350.912 154.146 350.334 153.93 349.932 153.496C349.533 153.062 349.342 152.418 349.357 151.562ZM356.096 148.979V147.777H357.297V148.979H356.096ZM356.096 154V152.799H357.297V154H356.096ZM366.162 154H365.107V147.279C364.854 147.521 364.52 147.764 364.105 148.006C363.695 148.248 363.326 148.43 362.998 148.551V147.531C363.588 147.254 364.104 146.918 364.545 146.523C364.986 146.129 365.299 145.746 365.482 145.375H366.162V154ZM374.143 145.84H377.275V146.644H374.143V145.84ZM374.143 147.988H377.299V148.804H374.143V147.988ZM376.903 144.076H377.899V150.496H376.903V144.076ZM369.475 144.904H374.419V149.728H369.475V144.904ZM373.447 145.708H370.447V148.924H373.447V145.708ZM374.323 150.82C375.443 150.82 376.323 151 376.963 151.36C377.611 151.72 377.935 152.224 377.935 152.872C377.935 153.52 377.611 154.02 376.963 154.372C376.323 154.732 375.443 154.912 374.323 154.912C373.203 154.912 372.319 154.732 371.671 154.372C371.031 154.02 370.711 153.52 370.711 152.872C370.711 152.224 371.031 151.72 371.671 151.36C372.319 151 373.203 150.82 374.323 150.82ZM374.323 151.6C373.779 151.6 373.311 151.652 372.919 151.756C372.527 151.852 372.223 151.996 372.007 152.188C371.799 152.372 371.695 152.6 371.695 152.872C371.695 153.128 371.799 153.352 372.007 153.544C372.223 153.728 372.527 153.872 372.919 153.976C373.311 154.08 373.779 154.132 374.323 154.132C374.875 154.132 375.343 154.08 375.727 153.976C376.119 153.872 376.419 153.728 376.627 153.544C376.843 153.352 376.951 153.128 376.951 152.872C376.951 152.6 376.843 152.372 376.627 152.188C376.419 151.996 376.119 151.852 375.727 151.756C375.343 151.652 374.875 151.6 374.323 151.6ZM385.557 156.525C384.975 155.791 384.482 154.932 384.08 153.947C383.678 152.963 383.477 151.943 383.477 150.889C383.477 149.959 383.627 149.068 383.928 148.217C384.279 147.229 384.822 146.244 385.557 145.264H386.312C385.84 146.076 385.527 146.656 385.375 147.004C385.137 147.543 384.949 148.105 384.812 148.691C384.645 149.422 384.561 150.156 384.561 150.895C384.561 152.773 385.145 154.65 386.312 156.525H385.557ZM392.787 152.986V154H387.109C387.102 153.746 387.143 153.502 387.232 153.268C387.377 152.881 387.607 152.5 387.924 152.125C388.244 151.75 388.705 151.316 389.307 150.824C390.24 150.059 390.871 149.453 391.199 149.008C391.527 148.559 391.691 148.135 391.691 147.736C391.691 147.318 391.541 146.967 391.24 146.682C390.943 146.393 390.555 146.248 390.074 146.248C389.566 146.248 389.16 146.4 388.855 146.705C388.551 147.01 388.396 147.432 388.393 147.971L387.309 147.859C387.383 147.051 387.662 146.436 388.146 146.014C388.631 145.588 389.281 145.375 390.098 145.375C390.922 145.375 391.574 145.604 392.055 146.061C392.535 146.518 392.775 147.084 392.775 147.76C392.775 148.104 392.705 148.441 392.564 148.773C392.424 149.105 392.189 149.455 391.861 149.822C391.537 150.189 390.996 150.693 390.238 151.334C389.605 151.865 389.199 152.227 389.02 152.418C388.84 152.605 388.691 152.795 388.574 152.986H392.787ZM393.924 151.75L395.031 151.656C395.113 152.195 395.303 152.602 395.6 152.875C395.9 153.145 396.262 153.279 396.684 153.279C397.191 153.279 397.621 153.088 397.973 152.705C398.324 152.322 398.5 151.814 398.5 151.182C398.5 150.58 398.33 150.105 397.99 149.758C397.654 149.41 397.213 149.236 396.666 149.236C396.326 149.236 396.02 149.314 395.746 149.471C395.473 149.623 395.258 149.822 395.102 150.068L394.111 149.939L394.943 145.527H399.215V146.535H395.787L395.324 148.844C395.84 148.484 396.381 148.305 396.947 148.305C397.697 148.305 398.33 148.564 398.846 149.084C399.361 149.604 399.619 150.271 399.619 151.088C399.619 151.865 399.393 152.537 398.939 153.104C398.389 153.799 397.637 154.146 396.684 154.146C395.902 154.146 395.264 153.928 394.768 153.49C394.275 153.053 393.994 152.473 393.924 151.75ZM401.195 154V152.799H402.396V154H401.195ZM403.943 149.764C403.943 148.748 404.047 147.932 404.254 147.314C404.465 146.693 404.775 146.215 405.186 145.879C405.6 145.543 406.119 145.375 406.744 145.375C407.205 145.375 407.609 145.469 407.957 145.656C408.305 145.84 408.592 146.107 408.818 146.459C409.045 146.807 409.223 147.232 409.352 147.736C409.48 148.236 409.545 148.912 409.545 149.764C409.545 150.771 409.441 151.586 409.234 152.207C409.027 152.824 408.717 153.303 408.303 153.643C407.893 153.979 407.373 154.146 406.744 154.146C405.916 154.146 405.266 153.85 404.793 153.256C404.227 152.541 403.943 151.377 403.943 149.764ZM405.027 149.764C405.027 151.174 405.191 152.113 405.52 152.582C405.852 153.047 406.26 153.279 406.744 153.279C407.229 153.279 407.635 153.045 407.963 152.576C408.295 152.107 408.461 151.17 408.461 149.764C408.461 148.35 408.295 147.41 407.963 146.945C407.635 146.48 407.225 146.248 406.732 146.248C406.248 146.248 405.861 146.453 405.572 146.863C405.209 147.387 405.027 148.354 405.027 149.764ZM410.822 147.473C410.822 146.859 410.977 146.338 411.285 145.908C411.594 145.479 412.041 145.264 412.627 145.264C413.166 145.264 413.611 145.457 413.963 145.844C414.318 146.227 414.496 146.791 414.496 147.537C414.496 148.264 414.316 148.824 413.957 149.219C413.602 149.609 413.162 149.805 412.639 149.805C412.119 149.805 411.686 149.611 411.338 149.225C410.994 148.838 410.822 148.254 410.822 147.473ZM412.656 145.99C412.395 145.99 412.176 146.104 412 146.33C411.828 146.557 411.742 146.973 411.742 147.578C411.742 148.129 411.83 148.518 412.006 148.744C412.182 148.967 412.398 149.078 412.656 149.078C412.922 149.078 413.141 148.965 413.312 148.738C413.488 148.512 413.576 148.098 413.576 147.496C413.576 146.941 413.488 146.553 413.312 146.33C413.137 146.104 412.918 145.99 412.656 145.99ZM412.662 154.316L417.361 145.264H418.217L413.535 154.316H412.662ZM416.377 151.984C416.377 151.367 416.531 150.846 416.84 150.42C417.148 149.99 417.598 149.775 418.188 149.775C418.727 149.775 419.172 149.969 419.523 150.355C419.879 150.738 420.057 151.303 420.057 152.049C420.057 152.775 419.877 153.336 419.518 153.73C419.162 154.121 418.721 154.316 418.193 154.316C417.674 154.316 417.24 154.123 416.893 153.736C416.549 153.346 416.377 152.762 416.377 151.984ZM418.217 150.502C417.951 150.502 417.73 150.615 417.555 150.842C417.383 151.068 417.297 151.484 417.297 152.09C417.297 152.637 417.385 153.023 417.561 153.25C417.736 153.477 417.953 153.59 418.211 153.59C418.48 153.59 418.701 153.477 418.873 153.25C419.049 153.023 419.137 152.609 419.137 152.008C419.137 151.453 419.049 151.064 418.873 150.842C418.697 150.615 418.479 150.502 418.217 150.502ZM422.283 156.525H421.527C422.695 154.65 423.279 152.773 423.279 150.895C423.279 150.16 423.195 149.432 423.027 148.709C422.895 148.123 422.709 147.561 422.471 147.021C422.318 146.67 422.004 146.084 421.527 145.264H422.283C423.018 146.244 423.561 147.229 423.912 148.217C424.213 149.068 424.363 149.959 424.363 150.889C424.363 151.943 424.16 152.963 423.754 153.947C423.352 154.932 422.861 155.791 422.283 156.525Z" fill="black"/>
<path d="M317 168H303C301.343 168 300 169.343 300 171V185C300 186.657 301.343 188 303 188H317C318.657 188 320 186.657 320 185V171C320 169.343 318.657 168 317 168Z" fill="url(#paint5_linear_55_178)"/>
<path d="M326.119 182V173.41H327.256V182H326.119ZM329.254 182V173.41H330.42L334.932 180.154V173.41H336.021V182H334.855L330.344 175.25V182H329.254ZM340.123 182V174.424H337.293V173.41H344.102V174.424H341.26V182H340.123ZM344.693 179.562L345.719 179.422C345.746 180.078 345.869 180.527 346.088 180.77C346.307 181.012 346.609 181.133 346.996 181.133C347.281 181.133 347.527 181.068 347.734 180.939C347.941 180.807 348.084 180.629 348.162 180.406C348.24 180.18 348.279 179.82 348.279 179.328V173.41H349.416V179.264C349.416 179.982 349.328 180.539 349.152 180.934C348.98 181.328 348.705 181.629 348.326 181.836C347.951 182.043 347.51 182.146 347.002 182.146C346.248 182.146 345.67 181.93 345.268 181.496C344.869 181.062 344.678 180.418 344.693 179.562ZM351.432 176.979V175.777H352.633V176.979H351.432ZM351.432 182V180.799H352.633V182H351.432ZM361.498 182H360.443V175.279C360.189 175.521 359.855 175.764 359.441 176.006C359.031 176.248 358.662 176.43 358.334 176.551V175.531C358.924 175.254 359.439 174.918 359.881 174.523C360.322 174.129 360.635 173.746 360.818 173.375H361.498V182ZM369.479 173.84H372.611V174.644H369.479V173.84ZM369.479 175.988H372.635V176.804H369.479V175.988ZM372.239 172.076H373.235V178.496H372.239V172.076ZM364.811 172.904H369.755V177.728H364.811V172.904ZM368.783 173.708H365.783V176.924H368.783V173.708ZM369.659 178.82C370.779 178.82 371.659 179 372.299 179.36C372.947 179.72 373.271 180.224 373.271 180.872C373.271 181.52 372.947 182.02 372.299 182.372C371.659 182.732 370.779 182.912 369.659 182.912C368.539 182.912 367.655 182.732 367.007 182.372C366.367 182.02 366.047 181.52 366.047 180.872C366.047 180.224 366.367 179.72 367.007 179.36C367.655 179 368.539 178.82 369.659 178.82ZM369.659 179.6C369.115 179.6 368.647 179.652 368.255 179.756C367.863 179.852 367.559 179.996 367.343 180.188C367.135 180.372 367.031 180.6 367.031 180.872C367.031 181.128 367.135 181.352 367.343 181.544C367.559 181.728 367.863 181.872 368.255 181.976C368.647 182.08 369.115 182.132 369.659 182.132C370.211 182.132 370.679 182.08 371.063 181.976C371.455 181.872 371.755 181.728 371.963 181.544C372.179 181.352 372.287 181.128 372.287 180.872C372.287 180.6 372.179 180.372 371.963 180.188C371.755 179.996 371.455 179.852 371.063 179.756C370.679 179.652 370.211 179.6 369.659 179.6ZM380.893 184.525C380.311 183.791 379.818 182.932 379.416 181.947C379.014 180.963 378.812 179.943 378.812 178.889C378.812 177.959 378.963 177.068 379.264 176.217C379.615 175.229 380.158 174.244 380.893 173.264H381.648C381.176 174.076 380.863 174.656 380.711 175.004C380.473 175.543 380.285 176.105 380.148 176.691C379.98 177.422 379.896 178.156 379.896 178.895C379.896 180.773 380.48 182.65 381.648 184.525H380.893ZM388.123 180.986V182H382.445C382.438 181.746 382.479 181.502 382.568 181.268C382.713 180.881 382.943 180.5 383.26 180.125C383.58 179.75 384.041 179.316 384.643 178.824C385.576 178.059 386.207 177.453 386.535 177.008C386.863 176.559 387.027 176.135 387.027 175.736C387.027 175.318 386.877 174.967 386.576 174.682C386.279 174.393 385.891 174.248 385.41 174.248C384.902 174.248 384.496 174.4 384.191 174.705C383.887 175.01 383.732 175.432 383.729 175.971L382.645 175.859C382.719 175.051 382.998 174.436 383.482 174.014C383.967 173.588 384.617 173.375 385.434 173.375C386.258 173.375 386.91 173.604 387.391 174.061C387.871 174.518 388.111 175.084 388.111 175.76C388.111 176.104 388.041 176.441 387.9 176.773C387.76 177.105 387.525 177.455 387.197 177.822C386.873 178.189 386.332 178.693 385.574 179.334C384.941 179.865 384.535 180.227 384.355 180.418C384.176 180.605 384.027 180.795 383.91 180.986H388.123ZM389.26 179.75L390.367 179.656C390.449 180.195 390.639 180.602 390.936 180.875C391.236 181.145 391.598 181.279 392.02 181.279C392.527 181.279 392.957 181.088 393.309 180.705C393.66 180.322 393.836 179.814 393.836 179.182C393.836 178.58 393.666 178.105 393.326 177.758C392.99 177.41 392.549 177.236 392.002 177.236C391.662 177.236 391.355 177.314 391.082 177.471C390.809 177.623 390.594 177.822 390.438 178.068L389.447 177.939L390.279 173.527H394.551V174.535H391.123L390.66 176.844C391.176 176.484 391.717 176.305 392.283 176.305C393.033 176.305 393.666 176.564 394.182 177.084C394.697 177.604 394.955 178.271 394.955 179.088C394.955 179.865 394.729 180.537 394.275 181.104C393.725 181.799 392.973 182.146 392.02 182.146C391.238 182.146 390.6 181.928 390.104 181.49C389.611 181.053 389.33 180.473 389.26 179.75ZM396.531 182V180.799H397.732V182H396.531ZM399.279 177.764C399.279 176.748 399.383 175.932 399.59 175.314C399.801 174.693 400.111 174.215 400.521 173.879C400.936 173.543 401.455 173.375 402.08 173.375C402.541 173.375 402.945 173.469 403.293 173.656C403.641 173.84 403.928 174.107 404.154 174.459C404.381 174.807 404.559 175.232 404.688 175.736C404.816 176.236 404.881 176.912 404.881 177.764C404.881 178.771 404.777 179.586 404.57 180.207C404.363 180.824 404.053 181.303 403.639 181.643C403.229 181.979 402.709 182.146 402.08 182.146C401.252 182.146 400.602 181.85 400.129 181.256C399.562 180.541 399.279 179.377 399.279 177.764ZM400.363 177.764C400.363 179.174 400.527 180.113 400.855 180.582C401.188 181.047 401.596 181.279 402.08 181.279C402.564 181.279 402.971 181.045 403.299 180.576C403.631 180.107 403.797 179.17 403.797 177.764C403.797 176.35 403.631 175.41 403.299 174.945C402.971 174.48 402.561 174.248 402.068 174.248C401.584 174.248 401.197 174.453 400.908 174.863C400.545 175.387 400.363 176.354 400.363 177.764ZM406.158 175.473C406.158 174.859 406.312 174.338 406.621 173.908C406.93 173.479 407.377 173.264 407.963 173.264C408.502 173.264 408.947 173.457 409.299 173.844C409.654 174.227 409.832 174.791 409.832 175.537C409.832 176.264 409.652 176.824 409.293 177.219C408.938 177.609 408.498 177.805 407.975 177.805C407.455 177.805 407.021 177.611 406.674 177.225C406.33 176.838 406.158 176.254 406.158 175.473ZM407.992 173.99C407.73 173.99 407.512 174.104 407.336 174.33C407.164 174.557 407.078 174.973 407.078 175.578C407.078 176.129 407.166 176.518 407.342 176.744C407.518 176.967 407.734 177.078 407.992 177.078C408.258 177.078 408.477 176.965 408.648 176.738C408.824 176.512 408.912 176.098 408.912 175.496C408.912 174.941 408.824 174.553 408.648 174.33C408.473 174.104 408.254 173.99 407.992 173.99ZM407.998 182.316L412.697 173.264H413.553L408.871 182.316H407.998ZM411.713 179.984C411.713 179.367 411.867 178.846 412.176 178.42C412.484 177.99 412.934 177.775 413.523 177.775C414.062 177.775 414.508 177.969 414.859 178.355C415.215 178.738 415.393 179.303 415.393 180.049C415.393 180.775 415.213 181.336 414.854 181.73C414.498 182.121 414.057 182.316 413.529 182.316C413.01 182.316 412.576 182.123 412.229 181.736C411.885 181.346 411.713 180.762 411.713 179.984ZM413.553 178.502C413.287 178.502 413.066 178.615 412.891 178.842C412.719 179.068 412.633 179.484 412.633 180.09C412.633 180.637 412.721 181.023 412.896 181.25C413.072 181.477 413.289 181.59 413.547 181.59C413.816 181.59 414.037 181.477 414.209 181.25C414.385 181.023 414.473 180.609 414.473 180.008C414.473 179.453 414.385 179.064 414.209 178.842C414.033 178.615 413.814 178.502 413.553 178.502ZM417.619 184.525H416.863C418.031 182.65 418.615 180.773 418.615 178.895C418.615 178.16 418.531 177.432 418.363 176.709C418.23 176.123 418.045 175.561 417.807 175.021C417.654 174.67 417.34 174.084 416.863 173.264H417.619C418.354 174.244 418.896 175.229 419.248 176.217C419.549 177.068 419.699 177.959 419.699 178.889C419.699 179.943 419.496 180.963 419.09 181.947C418.688 182.932 418.197 183.791 417.619 184.525Z" fill="black"/>
<path d="M49.9458 93V83.6943H56.8457V85.2686H51.8247V87.3315H56.4966V88.8994H51.8247V91.4321H57.0234V93H49.9458ZM58.6357 93V83.6943H60.4639L64.2725 89.9087V83.6943H66.0181V93H64.1328L60.3813 86.9316V93H58.6357ZM68.0239 93V83.6943H74.4033V85.2686H69.9028V87.4712H73.7876V89.0454H69.9028V93H68.0239ZM79.3164 83.6943H81.189V89.585C81.189 90.3551 81.1213 90.9476 80.9858 91.3623C80.8039 91.904 80.4738 92.3398 79.9956 92.6699C79.5174 92.9958 78.8869 93.1587 78.104 93.1587C77.1857 93.1587 76.479 92.9027 75.9839 92.3906C75.4888 91.8743 75.2391 91.119 75.2349 90.1245L77.0059 89.9214C77.027 90.4546 77.1053 90.8312 77.2407 91.0513C77.4438 91.3856 77.7528 91.5527 78.1675 91.5527C78.5864 91.5527 78.8826 91.4342 79.0562 91.1973C79.2297 90.9561 79.3164 90.4588 79.3164 89.7056V83.6943Z" fill="white"/>
<path d="M203.889 93V83.6943H205.768V93H203.889ZM207.583 93V83.6943H209.411L213.22 89.9087V83.6943H214.965V93H213.08L209.329 86.9316V93H207.583ZM219.053 93V85.2686H216.292V83.6943H223.687V85.2686H220.932V93H219.053ZM228.264 83.6943H230.136V89.585C230.136 90.3551 230.069 90.9476 229.933 91.3623C229.751 91.904 229.421 92.3398 228.943 92.6699C228.465 92.9958 227.834 93.1587 227.051 93.1587C226.133 93.1587 225.426 92.9027 224.931 92.3906C224.436 91.8743 224.186 91.119 224.182 90.1245L225.953 89.9214C225.974 90.4546 226.053 90.8312 226.188 91.0513C226.391 91.3856 226.7 91.5527 227.115 91.5527C227.534 91.5527 227.83 91.4342 228.003 91.1973C228.177 90.9561 228.264 90.4588 228.264 89.7056V83.6943Z" fill="white"/>
<path d="M131.946 251V241.694H138.846V243.269H133.825V245.332H138.497V246.899H133.825V249.432H139.023V251H131.946ZM140.636 251V241.694H142.464L146.272 247.909V241.694H148.018V251H146.133L142.381 244.932V251H140.636ZM152.106 251V243.269H149.345V241.694H156.74V243.269H153.985V251H152.106ZM157.958 251V241.694H160.974C162.116 241.694 162.861 241.741 163.208 241.834C163.741 241.974 164.188 242.278 164.547 242.748C164.907 243.214 165.087 243.817 165.087 244.557C165.087 245.128 164.983 245.609 164.776 245.998C164.569 246.387 164.304 246.694 163.982 246.918C163.665 247.139 163.341 247.285 163.011 247.356C162.563 247.445 161.913 247.49 161.062 247.49H159.837V251H157.958ZM159.837 243.269V245.909H160.866C161.606 245.909 162.101 245.861 162.351 245.763C162.601 245.666 162.795 245.514 162.935 245.306C163.079 245.099 163.151 244.858 163.151 244.583C163.151 244.244 163.051 243.965 162.853 243.745C162.654 243.525 162.402 243.387 162.097 243.332C161.873 243.29 161.422 243.269 160.745 243.269H159.837Z" fill="white"/>
<defs>
<linearGradient id="paint0_linear_55_178" x1="130" y1="150" x2="130" y2="280" gradientUnits="userSpaceOnUse">
<stop stop-color="#76D5FC"/>
<stop offset="1" stop-color="#6EC5EE"/>
</linearGradient>
<linearGradient id="paint1_linear_55_178" x1="65" y1="20" x2="65" y2="150" gradientUnits="userSpaceOnUse">
<stop stop-color="#F5EA6F"/>
<stop offset="1" stop-color="#D2D862"/>
</linearGradient>
<linearGradient id="paint2_linear_55_178" x1="195" y1="20" x2="195" y2="150" gradientUnits="userSpaceOnUse">
<stop stop-color="#EC8934"/>
<stop offset="1" stop-color="#EA6A35"/>
</linearGradient>
<linearGradient id="paint3_linear_55_178" x1="310" y1="112" x2="310" y2="132" gradientUnits="userSpaceOnUse">
<stop stop-color="#76D5FC"/>
<stop offset="1" stop-color="#6EC5EE"/>
</linearGradient>
<linearGradient id="paint4_linear_55_178" x1="310" y1="140" x2="310" y2="160" gradientUnits="userSpaceOnUse">
<stop stop-color="#F5EA6F"/>
<stop offset="1" stop-color="#D2D862"/>
</linearGradient>
<linearGradient id="paint5_linear_55_178" x1="310" y1="168" x2="310" y2="188" gradientUnits="userSpaceOnUse">
<stop stop-color="#EC8934"/>
<stop offset="1" stop-color="#EA6A35"/>
</linearGradient>
</defs>
</svg>
