<svg width="450" height="300" viewBox="0 0 450 300" fill="none" xmlns="http://www.w3.org/2000/svg">
<rect width="450" height="300" fill="white"/>
<path d="M130 150H260C260 172.82 253.993 195.238 242.583 215C231.173 234.762 214.762 251.173 195 262.583C175.238 273.993 152.82 280 130 280C107.18 280 84.7625 273.993 65 262.583L130 150Z" fill="url(#paint0_linear_55_158)"/>
<path d="M130 150L65 262.583C45.2375 251.173 28.8266 234.762 17.4167 215C6.00681 195.238 0 172.82 0 150H130Z" fill="url(#paint1_linear_55_158)"/>
<path d="M130 150H0C0 127.18 6.00681 104.763 17.4167 85C28.8266 65.2376 45.2375 48.8266 65 37.4167L130 150Z" fill="url(#paint2_linear_55_158)"/>
<path d="M130 150L65 37.4167C84.7625 26.0068 107.18 20 130 20V150Z" fill="url(#paint3_linear_55_158)"/>
<path d="M130 150V20C152.82 20 175.238 26.0068 195 37.4167L130 150Z" fill="url(#paint4_linear_55_158)"/>
<path d="M130 150L195 37.4167C214.762 48.8266 231.173 65.2376 242.583 85L130 150Z" fill="url(#paint5_linear_55_158)"/>
<path d="M130 150L242.583 85C253.993 104.762 260 127.18 260 150H130Z" fill="url(#paint6_linear_55_158)"/>
<path d="M130 215C165.899 215 195 185.899 195 150C195 114.101 165.899 85 130 85C94.1015 85 65 114.101 65 150C65 185.899 94.1015 215 130 215Z" fill="white"/>
<path d="M117.2 136.04C117.413 135.976 117.84 135.955 118.48 135.976C119.12 135.997 119.493 136.04 119.6 136.104C119.685 136.168 119.835 136.221 120.048 136.264C120.581 136.392 121.232 136.776 122 137.416C122.768 138.056 123.205 138.579 123.312 138.984C123.312 139.091 123.365 139.208 123.472 139.336C123.579 139.485 123.643 139.624 123.664 139.752C123.685 139.859 123.76 140.04 123.888 140.296C124.016 140.552 124.091 140.765 124.112 140.936C124.133 141.085 124.197 141.235 124.304 141.384C124.389 141.512 124.464 141.789 124.528 142.216C124.613 142.664 124.688 142.995 124.752 143.208C124.837 143.443 124.88 144.552 124.88 146.536C124.901 148.52 124.88 149.629 124.816 149.864C124.709 150.163 124.603 150.621 124.496 151.24C124.432 151.603 124.357 151.837 124.272 151.944C124.208 152.051 124.144 152.221 124.08 152.456C124.037 152.648 123.963 152.829 123.856 153C123.771 153.171 123.696 153.341 123.632 153.512C123.589 153.683 123.536 153.789 123.472 153.832C123.429 153.896 123.376 154.003 123.312 154.152C123.184 154.408 122.843 154.856 122.288 155.496C121.968 155.88 121.509 156.275 120.912 156.68C120.315 157.064 119.803 157.309 119.376 157.416C119.12 157.48 118.437 157.512 117.328 157.512C116.219 157.512 115.579 157.469 115.408 157.384C115.152 157.277 114.939 157.192 114.768 157.128C114.213 156.915 113.797 156.691 113.52 156.456C113.456 156.392 113.403 156.36 113.36 156.36C113.104 156.36 112.699 155.944 112.144 155.112C111.589 154.28 111.237 153.565 111.088 152.968C111.024 152.776 110.96 152.605 110.896 152.456C110.811 152.307 110.747 152.051 110.704 151.688C110.661 151.368 110.587 151.112 110.48 150.92C110.395 150.707 110.341 149.736 110.32 148.008C110.299 146.259 110.341 145.245 110.448 144.968C110.533 144.755 110.619 144.349 110.704 143.752C110.789 143.155 110.864 142.792 110.928 142.664C110.992 142.536 111.045 142.333 111.088 142.056C111.152 141.757 111.237 141.48 111.344 141.224C111.451 140.968 111.504 140.819 111.504 140.776C111.504 140.733 111.6 140.52 111.792 140.136C111.984 139.731 112.101 139.517 112.144 139.496C112.165 139.475 112.283 139.315 112.496 139.016C112.645 138.803 112.901 138.515 113.264 138.152C113.627 137.789 113.883 137.565 114.032 137.48C114.181 137.416 114.299 137.341 114.384 137.256C114.64 137.064 114.917 136.883 115.216 136.712C115.365 136.627 115.515 136.541 115.664 136.456C115.813 136.349 115.952 136.296 116.08 136.296C116.187 136.296 116.368 136.264 116.624 136.2C116.667 136.179 116.731 136.157 116.816 136.136C116.901 136.115 116.976 136.093 117.04 136.072C117.125 136.051 117.179 136.04 117.2 136.04ZM119.088 139.784C118.235 139.507 117.317 139.688 116.336 140.328C115.376 140.968 114.811 141.768 114.64 142.728C114.597 142.984 114.533 143.219 114.448 143.432C114.363 143.645 114.299 143.891 114.256 144.168C114.213 144.445 114.16 144.691 114.096 144.904C114.011 145.117 113.957 145.405 113.936 145.768C113.893 146.088 113.84 146.429 113.776 146.792C113.648 147.475 113.659 148.307 113.808 149.288C113.957 150.248 114.203 151.133 114.544 151.944C114.651 152.2 114.704 152.349 114.704 152.392C114.704 152.669 114.928 152.979 115.376 153.32C115.845 153.661 116.357 153.907 116.912 154.056C117.253 154.163 117.499 154.216 117.648 154.216C117.797 154.195 118.032 154.131 118.352 154.024C118.608 153.939 118.939 153.725 119.344 153.384C119.749 153.021 120.016 152.723 120.144 152.488C120.187 152.381 120.251 152.285 120.336 152.2C120.443 152.072 120.624 151.645 120.88 150.92C121.136 150.216 121.275 149.608 121.296 149.096C121.339 148.605 121.381 148.2 121.424 147.88C121.488 147.496 121.52 147.005 121.52 146.408C121.52 145.789 121.488 145.32 121.424 145C121.36 144.616 121.317 144.307 121.296 144.072C121.253 143.709 121.104 143.165 120.848 142.44C120.613 141.715 120.4 141.171 120.208 140.808C120.016 140.488 119.845 140.264 119.696 140.136C119.547 139.987 119.344 139.869 119.088 139.784ZM128.579 144.68C129.133 144.616 129.955 144.616 131.043 144.68C132.131 144.744 132.771 144.84 132.963 144.968C133.048 145.032 133.197 145.085 133.411 145.128C133.688 145.192 134.072 145.416 134.563 145.8C135.075 146.163 135.437 146.493 135.651 146.792C136.035 147.389 136.227 147.72 136.227 147.784C136.227 147.869 136.291 148.04 136.419 148.296C136.632 148.701 136.739 149.363 136.739 150.28C136.76 151.176 136.685 151.827 136.515 152.232C136.387 152.488 136.291 152.723 136.227 152.936C136.184 153.128 135.971 153.437 135.587 153.864C135.224 154.291 134.829 154.664 134.403 154.984C134.253 155.112 133.88 155.336 133.283 155.656C132.685 155.955 132.301 156.125 132.131 156.168C132.003 156.189 131.875 156.243 131.747 156.328C131.576 156.413 130.968 156.584 129.923 156.84C129.539 156.947 129.304 157.011 129.219 157.032C129.133 157.075 129.059 157.149 128.995 157.256C128.931 157.405 128.899 157.928 128.899 158.824C128.92 159.741 128.973 160.392 129.059 160.776C129.208 161.395 129.261 162.077 129.219 162.824C129.197 163.592 129.101 164.147 128.931 164.488C128.376 165.555 127.619 165.821 126.659 165.288C126.296 165.096 126.061 164.84 125.955 164.52C125.848 164.221 125.795 163.667 125.795 162.856C125.795 162.109 125.752 161.48 125.667 160.968C125.581 160.413 125.539 159.56 125.539 158.408C125.539 157.277 125.581 156.413 125.667 155.816C125.752 155.304 125.795 154.355 125.795 152.968C125.816 151.56 125.795 150.643 125.731 150.216C125.688 149.917 125.656 149.235 125.635 148.168C125.635 147.379 125.645 146.899 125.667 146.728C125.688 146.557 125.752 146.365 125.859 146.152C126.264 145.363 127.171 144.872 128.579 144.68ZM131.491 148.232C131.171 148.168 130.755 148.136 130.243 148.136C129.539 148.136 129.133 148.189 129.027 148.296C128.92 148.403 128.92 148.797 129.027 149.48C129.091 149.928 129.133 150.643 129.155 151.624C129.197 152.627 129.229 153.139 129.251 153.16C129.336 153.245 129.688 153.203 130.307 153.032C130.947 152.861 131.448 152.669 131.811 152.456C131.917 152.392 132.045 152.328 132.195 152.264C132.685 152.029 133.027 151.667 133.219 151.176C133.411 150.664 133.421 150.12 133.251 149.544C133.144 149.203 132.952 148.936 132.675 148.744C132.419 148.552 132.024 148.381 131.491 148.232ZM143.206 144.552C143.696 144.467 144.368 144.499 145.222 144.648C146.096 144.776 146.672 144.936 146.95 145.128C147.483 145.491 147.856 145.928 148.07 146.44C148.304 146.952 148.336 147.453 148.166 147.944C147.952 148.52 147.558 148.851 146.982 148.936C146.406 149.021 145.894 148.829 145.446 148.36C145.104 148.019 144.763 147.816 144.422 147.752C144.102 147.667 143.675 147.72 143.142 147.912C142.672 148.061 142.224 148.339 141.798 148.744C141.371 149.149 141.104 149.555 140.998 149.96C140.934 150.152 140.859 150.333 140.774 150.504C140.688 150.696 140.646 150.973 140.646 151.336C140.646 151.677 140.688 151.955 140.774 152.168C140.88 152.36 140.955 152.52 140.998 152.648C141.019 152.819 141.158 153.075 141.414 153.416C141.67 153.757 141.84 153.928 141.926 153.928C141.947 153.928 142.075 153.981 142.31 154.088C142.566 154.216 142.886 154.291 143.27 154.312C143.675 154.312 144.038 154.237 144.358 154.088C145.126 153.747 145.552 153.48 145.638 153.288C145.872 152.733 146.342 152.467 147.046 152.488C147.75 152.488 148.24 152.755 148.518 153.288C148.795 153.821 148.816 154.365 148.582 154.92C148.347 155.475 147.91 155.923 147.27 156.264C147.099 156.349 146.864 156.488 146.566 156.68C145.947 157.043 145.147 157.288 144.166 157.416C143.184 157.565 142.416 157.544 141.862 157.352C141.627 157.267 141.35 157.192 141.03 157.128C140.752 157.064 140.539 156.979 140.39 156.872C140.262 156.765 140.166 156.712 140.102 156.712C140.059 156.712 139.952 156.648 139.782 156.52C139.76 156.499 139.686 156.445 139.558 156.36C139.451 156.275 139.376 156.211 139.334 156.168C139.078 155.955 138.779 155.581 138.438 155.048C138.246 154.728 138.107 154.493 138.022 154.344C137.936 154.237 137.862 154.067 137.798 153.832C137.734 153.555 137.659 153.299 137.574 153.064C137.467 152.787 137.414 152.189 137.414 151.272C137.414 150.333 137.467 149.736 137.574 149.48C137.659 149.245 137.723 149.032 137.766 148.84C137.83 148.669 137.904 148.509 137.99 148.36C138.054 148.232 138.139 148.083 138.246 147.912C138.31 147.763 138.502 147.464 138.822 147.016C138.928 146.867 139.152 146.621 139.494 146.28C139.835 145.917 140.016 145.736 140.038 145.736C140.08 145.736 140.187 145.672 140.358 145.544C140.55 145.416 140.699 145.331 140.806 145.288C140.891 145.245 140.998 145.181 141.126 145.096C141.211 145.032 141.488 144.936 141.958 144.808C142.448 144.68 142.864 144.595 143.206 144.552Z" fill="black"/>
<path d="M317 56H303C301.343 56 300 57.3431 300 59V73C300 74.6569 301.343 76 303 76H317C318.657 76 320 74.6569 320 73V59C320 57.3431 318.657 56 317 56Z" fill="url(#paint7_linear_55_158)"/>
<path d="M326.119 70V61.4102H327.256V70H326.119ZM328.879 67.2402L329.951 67.1465C330.002 67.5762 330.119 67.9297 330.303 68.207C330.49 68.4805 330.779 68.7031 331.17 68.875C331.561 69.043 332 69.127 332.488 69.127C332.922 69.127 333.305 69.0625 333.637 68.9336C333.969 68.8047 334.215 68.6289 334.375 68.4062C334.539 68.1797 334.621 67.9336 334.621 67.668C334.621 67.3984 334.543 67.1641 334.387 66.9648C334.23 66.7617 333.973 66.5918 333.613 66.4551C333.383 66.3652 332.873 66.2266 332.084 66.0391C331.295 65.8477 330.742 65.668 330.426 65.5C330.016 65.2852 329.709 65.0195 329.506 64.7031C329.307 64.3828 329.207 64.0254 329.207 63.6309C329.207 63.1973 329.33 62.793 329.576 62.418C329.822 62.0391 330.182 61.752 330.654 61.5566C331.127 61.3613 331.652 61.2637 332.23 61.2637C332.867 61.2637 333.428 61.3672 333.912 61.5742C334.4 61.7773 334.775 62.0781 335.037 62.4766C335.299 62.875 335.439 63.3262 335.459 63.8301L334.369 63.9121C334.311 63.3691 334.111 62.959 333.771 62.6816C333.436 62.4043 332.938 62.2656 332.277 62.2656C331.59 62.2656 331.088 62.3926 330.771 62.6465C330.459 62.8965 330.303 63.1992 330.303 63.5547C330.303 63.8633 330.414 64.1172 330.637 64.3164C330.855 64.5156 331.426 64.7207 332.348 64.9316C333.273 65.1387 333.908 65.3203 334.252 65.4766C334.752 65.707 335.121 66 335.359 66.3555C335.598 66.707 335.717 67.1133 335.717 67.5742C335.717 68.0312 335.586 68.4629 335.324 68.8691C335.062 69.2715 334.686 69.5859 334.193 69.8125C333.705 70.0352 333.154 70.1465 332.541 70.1465C331.764 70.1465 331.111 70.0332 330.584 69.8066C330.061 69.5801 329.648 69.2402 329.348 68.7871C329.051 68.3301 328.895 67.8145 328.879 67.2402ZM337.328 70V61.4102H343.123V62.4238H338.465V65.084H342.496V66.0977H338.465V70H337.328ZM344.025 67.5625L345.051 67.4219C345.078 68.0781 345.201 68.5273 345.42 68.7695C345.639 69.0117 345.941 69.1328 346.328 69.1328C346.613 69.1328 346.859 69.0684 347.066 68.9395C347.273 68.8066 347.416 68.6289 347.494 68.4062C347.572 68.1797 347.611 67.8203 347.611 67.3281V61.4102H348.748V67.2637C348.748 67.9824 348.66 68.5391 348.484 68.9336C348.312 69.3281 348.037 69.6289 347.658 69.8359C347.283 70.043 346.842 70.1465 346.334 70.1465C345.58 70.1465 345.002 69.9297 344.6 69.4961C344.201 69.0625 344.01 68.418 344.025 67.5625ZM350.764 64.9785V63.7773H351.965V64.9785H350.764ZM350.764 70V68.7988H351.965V70H350.764ZM360.238 70V67.9434H356.512V66.9766L360.432 61.4102H361.293V66.9766H362.453V67.9434H361.293V70H360.238ZM360.238 66.9766V63.1035L357.549 66.9766H360.238ZM368.811 61.84H371.943V62.644H368.811V61.84ZM368.811 63.988H371.967V64.804H368.811V63.988ZM371.571 60.076H372.567V66.496H371.571V60.076ZM364.143 60.904H369.087V65.728H364.143V60.904ZM368.115 61.708H365.115V64.924H368.115V61.708ZM368.991 66.82C370.111 66.82 370.991 67 371.631 67.36C372.279 67.72 372.603 68.224 372.603 68.872C372.603 69.52 372.279 70.02 371.631 70.372C370.991 70.732 370.111 70.912 368.991 70.912C367.871 70.912 366.987 70.732 366.339 70.372C365.699 70.02 365.379 69.52 365.379 68.872C365.379 68.224 365.699 67.72 366.339 67.36C366.987 67 367.871 66.82 368.991 66.82ZM368.991 67.6C368.447 67.6 367.979 67.652 367.587 67.756C367.195 67.852 366.891 67.996 366.675 68.188C366.467 68.372 366.363 68.6 366.363 68.872C366.363 69.128 366.467 69.352 366.675 69.544C366.891 69.728 367.195 69.872 367.587 69.976C367.979 70.08 368.447 70.132 368.991 70.132C369.543 70.132 370.011 70.08 370.395 69.976C370.787 69.872 371.087 69.728 371.295 69.544C371.511 69.352 371.619 69.128 371.619 68.872C371.619 68.6 371.511 68.372 371.295 68.188C371.087 67.996 370.787 67.852 370.395 67.756C370.011 67.652 369.543 67.6 368.991 67.6ZM380.225 72.5254C379.643 71.791 379.15 70.9316 378.748 69.9473C378.346 68.9629 378.145 67.9434 378.145 66.8887C378.145 65.959 378.295 65.0684 378.596 64.2168C378.947 63.2285 379.49 62.2441 380.225 61.2637H380.98C380.508 62.0762 380.195 62.6562 380.043 63.0039C379.805 63.543 379.617 64.1055 379.48 64.6914C379.312 65.4219 379.229 66.1562 379.229 66.8945C379.229 68.7734 379.812 70.6504 380.98 72.5254H380.225ZM381.918 67.7324L382.973 67.5918C383.094 68.1895 383.299 68.6211 383.588 68.8867C383.881 69.1484 384.236 69.2793 384.654 69.2793C385.15 69.2793 385.568 69.1074 385.908 68.7637C386.252 68.4199 386.424 67.9941 386.424 67.4863C386.424 67.002 386.266 66.6035 385.949 66.291C385.633 65.9746 385.23 65.8164 384.742 65.8164C384.543 65.8164 384.295 65.8555 383.998 65.9336L384.115 65.0078C384.186 65.0156 384.242 65.0195 384.285 65.0195C384.734 65.0195 385.139 64.9023 385.498 64.668C385.857 64.4336 386.037 64.0723 386.037 63.584C386.037 63.1973 385.906 62.877 385.645 62.623C385.383 62.3691 385.045 62.2422 384.631 62.2422C384.221 62.2422 383.879 62.3711 383.605 62.6289C383.332 62.8867 383.156 63.2734 383.078 63.7891L382.023 63.6016C382.152 62.8945 382.445 62.3477 382.902 61.9609C383.359 61.5703 383.928 61.375 384.607 61.375C385.076 61.375 385.508 61.4766 385.902 61.6797C386.297 61.8789 386.598 62.1523 386.805 62.5C387.016 62.8477 387.121 63.2168 387.121 63.6074C387.121 63.9785 387.021 64.3164 386.822 64.6211C386.623 64.9258 386.328 65.168 385.938 65.3477C386.445 65.4648 386.84 65.709 387.121 66.0801C387.402 66.4473 387.543 66.9082 387.543 67.4629C387.543 68.2129 387.27 68.8496 386.723 69.373C386.176 69.8926 385.484 70.1523 384.648 70.1523C383.895 70.1523 383.268 69.9277 382.768 69.4785C382.271 69.0293 381.988 68.4473 381.918 67.7324ZM388.592 65.7637C388.592 64.748 388.695 63.9316 388.902 63.3145C389.113 62.6934 389.424 62.2148 389.834 61.8789C390.248 61.543 390.768 61.375 391.393 61.375C391.854 61.375 392.258 61.4688 392.605 61.6562C392.953 61.8398 393.24 62.1074 393.467 62.459C393.693 62.8066 393.871 63.2324 394 63.7363C394.129 64.2363 394.193 64.9121 394.193 65.7637C394.193 66.7715 394.09 67.5859 393.883 68.207C393.676 68.8242 393.365 69.3027 392.951 69.6426C392.541 69.9785 392.021 70.1465 391.393 70.1465C390.564 70.1465 389.914 69.8496 389.441 69.2559C388.875 68.541 388.592 67.377 388.592 65.7637ZM389.676 65.7637C389.676 67.1738 389.84 68.1133 390.168 68.582C390.5 69.0469 390.908 69.2793 391.393 69.2793C391.877 69.2793 392.283 69.0449 392.611 68.5762C392.943 68.1074 393.109 67.1699 393.109 65.7637C393.109 64.3496 392.943 63.4102 392.611 62.9453C392.283 62.4805 391.873 62.248 391.381 62.248C390.896 62.248 390.51 62.4531 390.221 62.8633C389.857 63.3867 389.676 64.3535 389.676 65.7637ZM395.863 70V68.7988H397.064V70H395.863ZM398.611 65.7637C398.611 64.748 398.715 63.9316 398.922 63.3145C399.133 62.6934 399.443 62.2148 399.854 61.8789C400.268 61.543 400.787 61.375 401.412 61.375C401.873 61.375 402.277 61.4688 402.625 61.6562C402.973 61.8398 403.26 62.1074 403.486 62.459C403.713 62.8066 403.891 63.2324 404.02 63.7363C404.148 64.2363 404.213 64.9121 404.213 65.7637C404.213 66.7715 404.109 67.5859 403.902 68.207C403.695 68.8242 403.385 69.3027 402.971 69.6426C402.561 69.9785 402.041 70.1465 401.412 70.1465C400.584 70.1465 399.934 69.8496 399.461 69.2559C398.895 68.541 398.611 67.377 398.611 65.7637ZM399.695 65.7637C399.695 67.1738 399.859 68.1133 400.188 68.582C400.52 69.0469 400.928 69.2793 401.412 69.2793C401.896 69.2793 402.303 69.0449 402.631 68.5762C402.963 68.1074 403.129 67.1699 403.129 65.7637C403.129 64.3496 402.963 63.4102 402.631 62.9453C402.303 62.4805 401.893 62.248 401.4 62.248C400.916 62.248 400.529 62.4531 400.24 62.8633C399.877 63.3867 399.695 64.3535 399.695 65.7637ZM405.49 63.4727C405.49 62.8594 405.645 62.3379 405.953 61.9082C406.262 61.4785 406.709 61.2637 407.295 61.2637C407.834 61.2637 408.279 61.457 408.631 61.8438C408.986 62.2266 409.164 62.791 409.164 63.5371C409.164 64.2637 408.984 64.8242 408.625 65.2188C408.27 65.6094 407.83 65.8047 407.307 65.8047C406.787 65.8047 406.354 65.6113 406.006 65.2246C405.662 64.8379 405.49 64.2539 405.49 63.4727ZM407.324 61.9902C407.062 61.9902 406.844 62.1035 406.668 62.3301C406.496 62.5566 406.41 62.9727 406.41 63.5781C406.41 64.1289 406.498 64.5176 406.674 64.7441C406.85 64.9668 407.066 65.0781 407.324 65.0781C407.59 65.0781 407.809 64.9648 407.98 64.7383C408.156 64.5117 408.244 64.0977 408.244 63.4961C408.244 62.9414 408.156 62.5527 407.98 62.3301C407.805 62.1035 407.586 61.9902 407.324 61.9902ZM407.33 70.3164L412.029 61.2637H412.885L408.203 70.3164H407.33ZM411.045 67.9844C411.045 67.3672 411.199 66.8457 411.508 66.4199C411.816 65.9902 412.266 65.7754 412.855 65.7754C413.395 65.7754 413.84 65.9688 414.191 66.3555C414.547 66.7383 414.725 67.3027 414.725 68.0488C414.725 68.7754 414.545 69.3359 414.186 69.7305C413.83 70.1211 413.389 70.3164 412.861 70.3164C412.342 70.3164 411.908 70.123 411.561 69.7363C411.217 69.3457 411.045 68.7617 411.045 67.9844ZM412.885 66.502C412.619 66.502 412.398 66.6152 412.223 66.8418C412.051 67.0684 411.965 67.4844 411.965 68.0898C411.965 68.6367 412.053 69.0234 412.229 69.25C412.404 69.4766 412.621 69.5898 412.879 69.5898C413.148 69.5898 413.369 69.4766 413.541 69.25C413.717 69.0234 413.805 68.6094 413.805 68.0078C413.805 67.4531 413.717 67.0645 413.541 66.8418C413.365 66.6152 413.146 66.502 412.885 66.502ZM416.951 72.5254H416.195C417.363 70.6504 417.947 68.7734 417.947 66.8945C417.947 66.1602 417.863 65.4316 417.695 64.709C417.562 64.123 417.377 63.5605 417.139 63.0215C416.986 62.6699 416.672 62.084 416.195 61.2637H416.951C417.686 62.2441 418.229 63.2285 418.58 64.2168C418.881 65.0684 419.031 65.959 419.031 66.8887C419.031 67.9434 418.828 68.9629 418.422 69.9473C418.02 70.9316 417.529 71.791 416.951 72.5254Z" fill="black"/>
<path d="M317 84H303C301.343 84 300 85.3431 300 87V101C300 102.657 301.343 104 303 104H317C318.657 104 320 102.657 320 101V87C320 85.3431 318.657 84 317 84Z" fill="#AEEA89"/>
<path d="M326.119 98V89.4102H327.256V98H326.119ZM329.254 98V89.4102H330.42L334.932 96.1543V89.4102H336.021V98H334.855L330.344 91.25V98H329.254ZM340.123 98V90.4238H337.293V89.4102H344.102V90.4238H341.26V98H340.123ZM344.693 95.5625L345.719 95.4219C345.746 96.0781 345.869 96.5273 346.088 96.7695C346.307 97.0117 346.609 97.1328 346.996 97.1328C347.281 97.1328 347.527 97.0684 347.734 96.9395C347.941 96.8066 348.084 96.6289 348.162 96.4062C348.24 96.1797 348.279 95.8203 348.279 95.3281V89.4102H349.416V95.2637C349.416 95.9824 349.328 96.5391 349.152 96.9336C348.98 97.3281 348.705 97.6289 348.326 97.8359C347.951 98.043 347.51 98.1465 347.002 98.1465C346.248 98.1465 345.67 97.9297 345.268 97.4961C344.869 97.0625 344.678 96.418 344.693 95.5625ZM351.432 92.9785V91.7773H352.633V92.9785H351.432ZM351.432 98V96.7988H352.633V98H351.432ZM363.068 96.9863V98H357.391C357.383 97.7461 357.424 97.502 357.514 97.2676C357.658 96.8809 357.889 96.5 358.205 96.125C358.525 95.75 358.986 95.3164 359.588 94.8242C360.521 94.0586 361.152 93.4531 361.48 93.0078C361.809 92.5586 361.973 92.1348 361.973 91.7363C361.973 91.3184 361.822 90.9668 361.521 90.6816C361.225 90.3926 360.836 90.248 360.355 90.248C359.848 90.248 359.441 90.4004 359.137 90.7051C358.832 91.0098 358.678 91.4316 358.674 91.9707L357.59 91.8594C357.664 91.0508 357.943 90.4355 358.428 90.0137C358.912 89.5879 359.562 89.375 360.379 89.375C361.203 89.375 361.855 89.6035 362.336 90.0605C362.816 90.5176 363.057 91.084 363.057 91.7598C363.057 92.1035 362.986 92.4414 362.846 92.7734C362.705 93.1055 362.471 93.4551 362.143 93.8223C361.818 94.1895 361.277 94.6934 360.52 95.334C359.887 95.8652 359.48 96.2266 359.301 96.418C359.121 96.6055 358.973 96.7949 358.855 96.9863H363.068ZM369.479 89.84H372.611V90.644H369.479V89.84ZM369.479 91.988H372.635V92.804H369.479V91.988ZM372.239 88.076H373.235V94.496H372.239V88.076ZM364.811 88.904H369.755V93.728H364.811V88.904ZM368.783 89.708H365.783V92.924H368.783V89.708ZM369.659 94.82C370.779 94.82 371.659 95 372.299 95.36C372.947 95.72 373.271 96.224 373.271 96.872C373.271 97.52 372.947 98.02 372.299 98.372C371.659 98.732 370.779 98.912 369.659 98.912C368.539 98.912 367.655 98.732 367.007 98.372C366.367 98.02 366.047 97.52 366.047 96.872C366.047 96.224 366.367 95.72 367.007 95.36C367.655 95 368.539 94.82 369.659 94.82ZM369.659 95.6C369.115 95.6 368.647 95.652 368.255 95.756C367.863 95.852 367.559 95.996 367.343 96.188C367.135 96.372 367.031 96.6 367.031 96.872C367.031 97.128 367.135 97.352 367.343 97.544C367.559 97.728 367.863 97.872 368.255 97.976C368.647 98.08 369.115 98.132 369.659 98.132C370.211 98.132 370.679 98.08 371.063 97.976C371.455 97.872 371.755 97.728 371.963 97.544C372.179 97.352 372.287 97.128 372.287 96.872C372.287 96.6 372.179 96.372 371.963 96.188C371.755 95.996 371.455 95.852 371.063 95.756C370.679 95.652 370.211 95.6 369.659 95.6ZM380.893 100.525C380.311 99.791 379.818 98.9316 379.416 97.9473C379.014 96.9629 378.812 95.9434 378.812 94.8887C378.812 93.959 378.963 93.0684 379.264 92.2168C379.615 91.2285 380.158 90.2441 380.893 89.2637H381.648C381.176 90.0762 380.863 90.6562 380.711 91.0039C380.473 91.543 380.285 92.1055 380.148 92.6914C379.98 93.4219 379.896 94.1562 379.896 94.8945C379.896 96.7734 380.48 98.6504 381.648 100.525H380.893ZM388.123 96.9863V98H382.445C382.438 97.7461 382.479 97.502 382.568 97.2676C382.713 96.8809 382.943 96.5 383.26 96.125C383.58 95.75 384.041 95.3164 384.643 94.8242C385.576 94.0586 386.207 93.4531 386.535 93.0078C386.863 92.5586 387.027 92.1348 387.027 91.7363C387.027 91.3184 386.877 90.9668 386.576 90.6816C386.279 90.3926 385.891 90.248 385.41 90.248C384.902 90.248 384.496 90.4004 384.191 90.7051C383.887 91.0098 383.732 91.4316 383.729 91.9707L382.645 91.8594C382.719 91.0508 382.998 90.4355 383.482 90.0137C383.967 89.5879 384.617 89.375 385.434 89.375C386.258 89.375 386.91 89.6035 387.391 90.0605C387.871 90.5176 388.111 91.084 388.111 91.7598C388.111 92.1035 388.041 92.4414 387.9 92.7734C387.76 93.1055 387.525 93.4551 387.197 93.8223C386.873 94.1895 386.332 94.6934 385.574 95.334C384.941 95.8652 384.535 96.2266 384.355 96.418C384.176 96.6055 384.027 96.7949 383.91 96.9863H388.123ZM389.26 93.7637C389.26 92.748 389.363 91.9316 389.57 91.3145C389.781 90.6934 390.092 90.2148 390.502 89.8789C390.916 89.543 391.436 89.375 392.061 89.375C392.521 89.375 392.926 89.4688 393.273 89.6562C393.621 89.8398 393.908 90.1074 394.135 90.459C394.361 90.8066 394.539 91.2324 394.668 91.7363C394.797 92.2363 394.861 92.9121 394.861 93.7637C394.861 94.7715 394.758 95.5859 394.551 96.207C394.344 96.8242 394.033 97.3027 393.619 97.6426C393.209 97.9785 392.689 98.1465 392.061 98.1465C391.232 98.1465 390.582 97.8496 390.109 97.2559C389.543 96.541 389.26 95.377 389.26 93.7637ZM390.344 93.7637C390.344 95.1738 390.508 96.1133 390.836 96.582C391.168 97.0469 391.576 97.2793 392.061 97.2793C392.545 97.2793 392.951 97.0449 393.279 96.5762C393.611 96.1074 393.777 95.1699 393.777 93.7637C393.777 92.3496 393.611 91.4102 393.279 90.9453C392.951 90.4805 392.541 90.248 392.049 90.248C391.564 90.248 391.178 90.4531 390.889 90.8633C390.525 91.3867 390.344 92.3535 390.344 93.7637ZM396.531 98V96.7988H397.732V98H396.531ZM399.279 93.7637C399.279 92.748 399.383 91.9316 399.59 91.3145C399.801 90.6934 400.111 90.2148 400.521 89.8789C400.936 89.543 401.455 89.375 402.08 89.375C402.541 89.375 402.945 89.4688 403.293 89.6562C403.641 89.8398 403.928 90.1074 404.154 90.459C404.381 90.8066 404.559 91.2324 404.688 91.7363C404.816 92.2363 404.881 92.9121 404.881 93.7637C404.881 94.7715 404.777 95.5859 404.57 96.207C404.363 96.8242 404.053 97.3027 403.639 97.6426C403.229 97.9785 402.709 98.1465 402.08 98.1465C401.252 98.1465 400.602 97.8496 400.129 97.2559C399.562 96.541 399.279 95.377 399.279 93.7637ZM400.363 93.7637C400.363 95.1738 400.527 96.1133 400.855 96.582C401.188 97.0469 401.596 97.2793 402.08 97.2793C402.564 97.2793 402.971 97.0449 403.299 96.5762C403.631 96.1074 403.797 95.1699 403.797 93.7637C403.797 92.3496 403.631 91.4102 403.299 90.9453C402.971 90.4805 402.561 90.248 402.068 90.248C401.584 90.248 401.197 90.4531 400.908 90.8633C400.545 91.3867 400.363 92.3535 400.363 93.7637ZM406.158 91.4727C406.158 90.8594 406.312 90.3379 406.621 89.9082C406.93 89.4785 407.377 89.2637 407.963 89.2637C408.502 89.2637 408.947 89.457 409.299 89.8438C409.654 90.2266 409.832 90.791 409.832 91.5371C409.832 92.2637 409.652 92.8242 409.293 93.2188C408.938 93.6094 408.498 93.8047 407.975 93.8047C407.455 93.8047 407.021 93.6113 406.674 93.2246C406.33 92.8379 406.158 92.2539 406.158 91.4727ZM407.992 89.9902C407.73 89.9902 407.512 90.1035 407.336 90.3301C407.164 90.5566 407.078 90.9727 407.078 91.5781C407.078 92.1289 407.166 92.5176 407.342 92.7441C407.518 92.9668 407.734 93.0781 407.992 93.0781C408.258 93.0781 408.477 92.9648 408.648 92.7383C408.824 92.5117 408.912 92.0977 408.912 91.4961C408.912 90.9414 408.824 90.5527 408.648 90.3301C408.473 90.1035 408.254 89.9902 407.992 89.9902ZM407.998 98.3164L412.697 89.2637H413.553L408.871 98.3164H407.998ZM411.713 95.9844C411.713 95.3672 411.867 94.8457 412.176 94.4199C412.484 93.9902 412.934 93.7754 413.523 93.7754C414.062 93.7754 414.508 93.9688 414.859 94.3555C415.215 94.7383 415.393 95.3027 415.393 96.0488C415.393 96.7754 415.213 97.3359 414.854 97.7305C414.498 98.1211 414.057 98.3164 413.529 98.3164C413.01 98.3164 412.576 98.123 412.229 97.7363C411.885 97.3457 411.713 96.7617 411.713 95.9844ZM413.553 94.502C413.287 94.502 413.066 94.6152 412.891 94.8418C412.719 95.0684 412.633 95.4844 412.633 96.0898C412.633 96.6367 412.721 97.0234 412.896 97.25C413.072 97.4766 413.289 97.5898 413.547 97.5898C413.816 97.5898 414.037 97.4766 414.209 97.25C414.385 97.0234 414.473 96.6094 414.473 96.0078C414.473 95.4531 414.385 95.0645 414.209 94.8418C414.033 94.6152 413.814 94.502 413.553 94.502ZM417.619 100.525H416.863C418.031 98.6504 418.615 96.7734 418.615 94.8945C418.615 94.1602 418.531 93.4316 418.363 92.709C418.23 92.123 418.045 91.5605 417.807 91.0215C417.654 90.6699 417.34 90.084 416.863 89.2637H417.619C418.354 90.2441 418.896 91.2285 419.248 92.2168C419.549 93.0684 419.699 93.959 419.699 94.8887C419.699 95.9434 419.496 96.9629 419.09 97.9473C418.688 98.9316 418.197 99.791 417.619 100.525Z" fill="black"/>
<path d="M317 112H303C301.343 112 300 113.343 300 115V129C300 130.657 301.343 132 303 132H317C318.657 132 320 130.657 320 129V115C320 113.343 318.657 112 317 112Z" fill="url(#paint8_linear_55_158)"/>
<path d="M326.119 126V117.41H327.256V126H326.119ZM329.254 126V117.41H330.42L334.932 124.154V117.41H336.021V126H334.855L330.344 119.25V126H329.254ZM340.123 126V118.424H337.293V117.41H344.102V118.424H341.26V126H340.123ZM345.273 126V117.41H348.514C349.084 117.41 349.52 117.438 349.82 117.492C350.242 117.562 350.596 117.697 350.881 117.896C351.166 118.092 351.395 118.367 351.566 118.723C351.742 119.078 351.83 119.469 351.83 119.895C351.83 120.625 351.598 121.244 351.133 121.752C350.668 122.256 349.828 122.508 348.613 122.508H346.41V126H345.273ZM346.41 121.494H348.631C349.365 121.494 349.887 121.357 350.195 121.084C350.504 120.811 350.658 120.426 350.658 119.93C350.658 119.57 350.566 119.264 350.383 119.01C350.203 118.752 349.965 118.582 349.668 118.5C349.477 118.449 349.123 118.424 348.607 118.424H346.41V121.494ZM353.436 120.979V119.777H354.637V120.979H353.436ZM353.436 126V124.799H354.637V126H353.436ZM365.072 124.986V126H359.395C359.387 125.746 359.428 125.502 359.518 125.268C359.662 124.881 359.893 124.5 360.209 124.125C360.529 123.75 360.99 123.316 361.592 122.824C362.525 122.059 363.156 121.453 363.484 121.008C363.812 120.559 363.977 120.135 363.977 119.736C363.977 119.318 363.826 118.967 363.525 118.682C363.229 118.393 362.84 118.248 362.359 118.248C361.852 118.248 361.445 118.4 361.141 118.705C360.836 119.01 360.682 119.432 360.678 119.971L359.594 119.859C359.668 119.051 359.947 118.436 360.432 118.014C360.916 117.588 361.566 117.375 362.383 117.375C363.207 117.375 363.859 117.604 364.34 118.061C364.82 118.518 365.061 119.084 365.061 119.76C365.061 120.104 364.99 120.441 364.85 120.773C364.709 121.105 364.475 121.455 364.146 121.822C363.822 122.189 363.281 122.693 362.523 123.334C361.891 123.865 361.484 124.227 361.305 124.418C361.125 124.605 360.977 124.795 360.859 124.986H365.072ZM371.483 117.84H374.615V118.644H371.483V117.84ZM371.483 119.988H374.639V120.804H371.483V119.988ZM374.243 116.076H375.239V122.496H374.243V116.076ZM366.815 116.904H371.759V121.728H366.815V116.904ZM370.787 117.708H367.787V120.924H370.787V117.708ZM371.663 122.82C372.783 122.82 373.663 123 374.303 123.36C374.951 123.72 375.275 124.224 375.275 124.872C375.275 125.52 374.951 126.02 374.303 126.372C373.663 126.732 372.783 126.912 371.663 126.912C370.543 126.912 369.659 126.732 369.011 126.372C368.371 126.02 368.051 125.52 368.051 124.872C368.051 124.224 368.371 123.72 369.011 123.36C369.659 123 370.543 122.82 371.663 122.82ZM371.663 123.6C371.119 123.6 370.651 123.652 370.259 123.756C369.867 123.852 369.563 123.996 369.347 124.188C369.139 124.372 369.035 124.6 369.035 124.872C369.035 125.128 369.139 125.352 369.347 125.544C369.563 125.728 369.867 125.872 370.259 125.976C370.651 126.08 371.119 126.132 371.663 126.132C372.215 126.132 372.683 126.08 373.067 125.976C373.459 125.872 373.759 125.728 373.967 125.544C374.183 125.352 374.291 125.128 374.291 124.872C374.291 124.6 374.183 124.372 373.967 124.188C373.759 123.996 373.459 123.852 373.067 123.756C372.683 123.652 372.215 123.6 371.663 123.6ZM382.896 128.525C382.314 127.791 381.822 126.932 381.42 125.947C381.018 124.963 380.816 123.943 380.816 122.889C380.816 121.959 380.967 121.068 381.268 120.217C381.619 119.229 382.162 118.244 382.896 117.264H383.652C383.18 118.076 382.867 118.656 382.715 119.004C382.477 119.543 382.289 120.105 382.152 120.691C381.984 121.422 381.9 122.156 381.9 122.895C381.9 124.773 382.484 126.65 383.652 128.525H382.896ZM390.127 124.986V126H384.449C384.441 125.746 384.482 125.502 384.572 125.268C384.717 124.881 384.947 124.5 385.264 124.125C385.584 123.75 386.045 123.316 386.646 122.824C387.58 122.059 388.211 121.453 388.539 121.008C388.867 120.559 389.031 120.135 389.031 119.736C389.031 119.318 388.881 118.967 388.58 118.682C388.283 118.393 387.895 118.248 387.414 118.248C386.906 118.248 386.5 118.4 386.195 118.705C385.891 119.01 385.736 119.432 385.732 119.971L384.648 119.859C384.723 119.051 385.002 118.436 385.486 118.014C385.971 117.588 386.621 117.375 387.438 117.375C388.262 117.375 388.914 117.604 389.395 118.061C389.875 118.518 390.115 119.084 390.115 119.76C390.115 120.104 390.045 120.441 389.904 120.773C389.764 121.105 389.529 121.455 389.201 121.822C388.877 122.189 388.336 122.693 387.578 123.334C386.945 123.865 386.539 124.227 386.359 124.418C386.18 124.605 386.031 124.795 385.914 124.986H390.127ZM391.264 121.764C391.264 120.748 391.367 119.932 391.574 119.314C391.785 118.693 392.096 118.215 392.506 117.879C392.92 117.543 393.439 117.375 394.064 117.375C394.525 117.375 394.93 117.469 395.277 117.656C395.625 117.84 395.912 118.107 396.139 118.459C396.365 118.807 396.543 119.232 396.672 119.736C396.801 120.236 396.865 120.912 396.865 121.764C396.865 122.771 396.762 123.586 396.555 124.207C396.348 124.824 396.037 125.303 395.623 125.643C395.213 125.979 394.693 126.146 394.064 126.146C393.236 126.146 392.586 125.85 392.113 125.256C391.547 124.541 391.264 123.377 391.264 121.764ZM392.348 121.764C392.348 123.174 392.512 124.113 392.84 124.582C393.172 125.047 393.58 125.279 394.064 125.279C394.549 125.279 394.955 125.045 395.283 124.576C395.615 124.107 395.781 123.17 395.781 121.764C395.781 120.35 395.615 119.41 395.283 118.945C394.955 118.48 394.545 118.248 394.053 118.248C393.568 118.248 393.182 118.453 392.893 118.863C392.529 119.387 392.348 120.354 392.348 121.764ZM398.535 126V124.799H399.736V126H398.535ZM401.283 121.764C401.283 120.748 401.387 119.932 401.594 119.314C401.805 118.693 402.115 118.215 402.525 117.879C402.939 117.543 403.459 117.375 404.084 117.375C404.545 117.375 404.949 117.469 405.297 117.656C405.645 117.84 405.932 118.107 406.158 118.459C406.385 118.807 406.562 119.232 406.691 119.736C406.82 120.236 406.885 120.912 406.885 121.764C406.885 122.771 406.781 123.586 406.574 124.207C406.367 124.824 406.057 125.303 405.643 125.643C405.232 125.979 404.713 126.146 404.084 126.146C403.256 126.146 402.605 125.85 402.133 125.256C401.566 124.541 401.283 123.377 401.283 121.764ZM402.367 121.764C402.367 123.174 402.531 124.113 402.859 124.582C403.191 125.047 403.6 125.279 404.084 125.279C404.568 125.279 404.975 125.045 405.303 124.576C405.635 124.107 405.801 123.17 405.801 121.764C405.801 120.35 405.635 119.41 405.303 118.945C404.975 118.48 404.564 118.248 404.072 118.248C403.588 118.248 403.201 118.453 402.912 118.863C402.549 119.387 402.367 120.354 402.367 121.764ZM408.162 119.473C408.162 118.859 408.316 118.338 408.625 117.908C408.934 117.479 409.381 117.264 409.967 117.264C410.506 117.264 410.951 117.457 411.303 117.844C411.658 118.227 411.836 118.791 411.836 119.537C411.836 120.264 411.656 120.824 411.297 121.219C410.941 121.609 410.502 121.805 409.979 121.805C409.459 121.805 409.025 121.611 408.678 121.225C408.334 120.838 408.162 120.254 408.162 119.473ZM409.996 117.99C409.734 117.99 409.516 118.104 409.34 118.33C409.168 118.557 409.082 118.973 409.082 119.578C409.082 120.129 409.17 120.518 409.346 120.744C409.521 120.967 409.738 121.078 409.996 121.078C410.262 121.078 410.48 120.965 410.652 120.738C410.828 120.512 410.916 120.098 410.916 119.496C410.916 118.941 410.828 118.553 410.652 118.33C410.477 118.104 410.258 117.99 409.996 117.99ZM410.002 126.316L414.701 117.264H415.557L410.875 126.316H410.002ZM413.717 123.984C413.717 123.367 413.871 122.846 414.18 122.42C414.488 121.99 414.938 121.775 415.527 121.775C416.066 121.775 416.512 121.969 416.863 122.355C417.219 122.738 417.396 123.303 417.396 124.049C417.396 124.775 417.217 125.336 416.857 125.73C416.502 126.121 416.061 126.316 415.533 126.316C415.014 126.316 414.58 126.123 414.232 125.736C413.889 125.346 413.717 124.762 413.717 123.984ZM415.557 122.502C415.291 122.502 415.07 122.615 414.895 122.842C414.723 123.068 414.637 123.484 414.637 124.09C414.637 124.637 414.725 125.023 414.9 125.25C415.076 125.477 415.293 125.59 415.551 125.59C415.82 125.59 416.041 125.477 416.213 125.25C416.389 125.023 416.477 124.609 416.477 124.008C416.477 123.453 416.389 123.064 416.213 122.842C416.037 122.615 415.818 122.502 415.557 122.502ZM419.623 128.525H418.867C420.035 126.65 420.619 124.773 420.619 122.895C420.619 122.16 420.535 121.432 420.367 120.709C420.234 120.123 420.049 119.561 419.811 119.021C419.658 118.67 419.344 118.084 418.867 117.264H419.623C420.357 118.244 420.9 119.229 421.252 120.217C421.553 121.068 421.703 121.959 421.703 122.889C421.703 123.943 421.5 124.963 421.094 125.947C420.691 126.932 420.201 127.791 419.623 128.525Z" fill="black"/>
<path d="M317 140H303C301.343 140 300 141.343 300 143V157C300 158.657 301.343 160 303 160H317C318.657 160 320 158.657 320 157V143C320 141.343 318.657 140 317 140Z" fill="url(#paint9_linear_55_158)"/>
<path d="M325.949 154V145.41H332.16V146.424H327.086V149.055H331.838V150.062H327.086V152.986H332.359V154H325.949ZM333.918 154V145.41H335.084L339.596 152.154V145.41H340.686V154H339.52L335.008 147.25V154H333.918ZM344.787 154V146.424H341.957V145.41H348.766V146.424H345.924V154H344.787ZM349.357 151.562L350.383 151.422C350.41 152.078 350.533 152.527 350.752 152.77C350.971 153.012 351.273 153.133 351.66 153.133C351.945 153.133 352.191 153.068 352.398 152.939C352.605 152.807 352.748 152.629 352.826 152.406C352.904 152.18 352.943 151.82 352.943 151.328V145.41H354.08V151.264C354.08 151.982 353.992 152.539 353.816 152.934C353.645 153.328 353.369 153.629 352.99 153.836C352.615 154.043 352.174 154.146 351.666 154.146C350.912 154.146 350.334 153.93 349.932 153.496C349.533 153.062 349.342 152.418 349.357 151.562ZM356.096 148.979V147.777H357.297V148.979H356.096ZM356.096 154V152.799H357.297V154H356.096ZM366.162 154H365.107V147.279C364.854 147.521 364.52 147.764 364.105 148.006C363.695 148.248 363.326 148.43 362.998 148.551V147.531C363.588 147.254 364.104 146.918 364.545 146.523C364.986 146.129 365.299 145.746 365.482 145.375H366.162V154ZM374.143 145.84H377.275V146.644H374.143V145.84ZM374.143 147.988H377.299V148.804H374.143V147.988ZM376.903 144.076H377.899V150.496H376.903V144.076ZM369.475 144.904H374.419V149.728H369.475V144.904ZM373.447 145.708H370.447V148.924H373.447V145.708ZM374.323 150.82C375.443 150.82 376.323 151 376.963 151.36C377.611 151.72 377.935 152.224 377.935 152.872C377.935 153.52 377.611 154.02 376.963 154.372C376.323 154.732 375.443 154.912 374.323 154.912C373.203 154.912 372.319 154.732 371.671 154.372C371.031 154.02 370.711 153.52 370.711 152.872C370.711 152.224 371.031 151.72 371.671 151.36C372.319 151 373.203 150.82 374.323 150.82ZM374.323 151.6C373.779 151.6 373.311 151.652 372.919 151.756C372.527 151.852 372.223 151.996 372.007 152.188C371.799 152.372 371.695 152.6 371.695 152.872C371.695 153.128 371.799 153.352 372.007 153.544C372.223 153.728 372.527 153.872 372.919 153.976C373.311 154.08 373.779 154.132 374.323 154.132C374.875 154.132 375.343 154.08 375.727 153.976C376.119 153.872 376.419 153.728 376.627 153.544C376.843 153.352 376.951 153.128 376.951 152.872C376.951 152.6 376.843 152.372 376.627 152.188C376.419 151.996 376.119 151.852 375.727 151.756C375.343 151.652 374.875 151.6 374.323 151.6ZM385.557 156.525C384.975 155.791 384.482 154.932 384.08 153.947C383.678 152.963 383.477 151.943 383.477 150.889C383.477 149.959 383.627 149.068 383.928 148.217C384.279 147.229 384.822 146.244 385.557 145.264H386.312C385.84 146.076 385.527 146.656 385.375 147.004C385.137 147.543 384.949 148.105 384.812 148.691C384.645 149.422 384.561 150.156 384.561 150.895C384.561 152.773 385.145 154.65 386.312 156.525H385.557ZM391.217 154H390.162V147.279C389.908 147.521 389.574 147.764 389.16 148.006C388.75 148.248 388.381 148.43 388.053 148.551V147.531C388.643 147.254 389.158 146.918 389.6 146.523C390.041 146.129 390.354 145.746 390.537 145.375H391.217V154ZM393.924 149.764C393.924 148.748 394.027 147.932 394.234 147.314C394.445 146.693 394.756 146.215 395.166 145.879C395.58 145.543 396.1 145.375 396.725 145.375C397.186 145.375 397.59 145.469 397.938 145.656C398.285 145.84 398.572 146.107 398.799 146.459C399.025 146.807 399.203 147.232 399.332 147.736C399.461 148.236 399.525 148.912 399.525 149.764C399.525 150.771 399.422 151.586 399.215 152.207C399.008 152.824 398.697 153.303 398.283 153.643C397.873 153.979 397.354 154.146 396.725 154.146C395.896 154.146 395.246 153.85 394.773 153.256C394.207 152.541 393.924 151.377 393.924 149.764ZM395.008 149.764C395.008 151.174 395.172 152.113 395.5 152.582C395.832 153.047 396.24 153.279 396.725 153.279C397.209 153.279 397.615 153.045 397.943 152.576C398.275 152.107 398.441 151.17 398.441 149.764C398.441 148.35 398.275 147.41 397.943 146.945C397.615 146.48 397.205 146.248 396.713 146.248C396.229 146.248 395.842 146.453 395.553 146.863C395.189 147.387 395.008 148.354 395.008 149.764ZM401.195 154V152.799H402.396V154H401.195ZM403.943 149.764C403.943 148.748 404.047 147.932 404.254 147.314C404.465 146.693 404.775 146.215 405.186 145.879C405.6 145.543 406.119 145.375 406.744 145.375C407.205 145.375 407.609 145.469 407.957 145.656C408.305 145.84 408.592 146.107 408.818 146.459C409.045 146.807 409.223 147.232 409.352 147.736C409.48 148.236 409.545 148.912 409.545 149.764C409.545 150.771 409.441 151.586 409.234 152.207C409.027 152.824 408.717 153.303 408.303 153.643C407.893 153.979 407.373 154.146 406.744 154.146C405.916 154.146 405.266 153.85 404.793 153.256C404.227 152.541 403.943 151.377 403.943 149.764ZM405.027 149.764C405.027 151.174 405.191 152.113 405.52 152.582C405.852 153.047 406.26 153.279 406.744 153.279C407.229 153.279 407.635 153.045 407.963 152.576C408.295 152.107 408.461 151.17 408.461 149.764C408.461 148.35 408.295 147.41 407.963 146.945C407.635 146.48 407.225 146.248 406.732 146.248C406.248 146.248 405.861 146.453 405.572 146.863C405.209 147.387 405.027 148.354 405.027 149.764ZM410.822 147.473C410.822 146.859 410.977 146.338 411.285 145.908C411.594 145.479 412.041 145.264 412.627 145.264C413.166 145.264 413.611 145.457 413.963 145.844C414.318 146.227 414.496 146.791 414.496 147.537C414.496 148.264 414.316 148.824 413.957 149.219C413.602 149.609 413.162 149.805 412.639 149.805C412.119 149.805 411.686 149.611 411.338 149.225C410.994 148.838 410.822 148.254 410.822 147.473ZM412.656 145.99C412.395 145.99 412.176 146.104 412 146.33C411.828 146.557 411.742 146.973 411.742 147.578C411.742 148.129 411.83 148.518 412.006 148.744C412.182 148.967 412.398 149.078 412.656 149.078C412.922 149.078 413.141 148.965 413.312 148.738C413.488 148.512 413.576 148.098 413.576 147.496C413.576 146.941 413.488 146.553 413.312 146.33C413.137 146.104 412.918 145.99 412.656 145.99ZM412.662 154.316L417.361 145.264H418.217L413.535 154.316H412.662ZM416.377 151.984C416.377 151.367 416.531 150.846 416.84 150.42C417.148 149.99 417.598 149.775 418.188 149.775C418.727 149.775 419.172 149.969 419.523 150.355C419.879 150.738 420.057 151.303 420.057 152.049C420.057 152.775 419.877 153.336 419.518 153.73C419.162 154.121 418.721 154.316 418.193 154.316C417.674 154.316 417.24 154.123 416.893 153.736C416.549 153.346 416.377 152.762 416.377 151.984ZM418.217 150.502C417.951 150.502 417.73 150.615 417.555 150.842C417.383 151.068 417.297 151.484 417.297 152.09C417.297 152.637 417.385 153.023 417.561 153.25C417.736 153.477 417.953 153.59 418.211 153.59C418.48 153.59 418.701 153.477 418.873 153.25C419.049 153.023 419.137 152.609 419.137 152.008C419.137 151.453 419.049 151.064 418.873 150.842C418.697 150.615 418.479 150.502 418.217 150.502ZM422.283 156.525H421.527C422.695 154.65 423.279 152.773 423.279 150.895C423.279 150.16 423.195 149.432 423.027 148.709C422.895 148.123 422.709 147.561 422.471 147.021C422.318 146.67 422.004 146.084 421.527 145.264H422.283C423.018 146.244 423.561 147.229 423.912 148.217C424.213 149.068 424.363 149.959 424.363 150.889C424.363 151.943 424.16 152.963 423.754 153.947C423.352 154.932 422.861 155.791 422.283 156.525Z" fill="black"/>
<path d="M317 168H303C301.343 168 300 169.343 300 171V185C300 186.657 301.343 188 303 188H317C318.657 188 320 186.657 320 185V171C320 169.343 318.657 168 317 168Z" fill="url(#paint10_linear_55_158)"/>
<path d="M325.949 182V173.41H332.16V174.424H327.086V177.055H331.838V178.062H327.086V180.986H332.359V182H325.949ZM333.543 179.24L334.615 179.146C334.666 179.576 334.783 179.93 334.967 180.207C335.154 180.48 335.443 180.703 335.834 180.875C336.225 181.043 336.664 181.127 337.152 181.127C337.586 181.127 337.969 181.062 338.301 180.934C338.633 180.805 338.879 180.629 339.039 180.406C339.203 180.18 339.285 179.934 339.285 179.668C339.285 179.398 339.207 179.164 339.051 178.965C338.895 178.762 338.637 178.592 338.277 178.455C338.047 178.365 337.537 178.227 336.748 178.039C335.959 177.848 335.406 177.668 335.09 177.5C334.68 177.285 334.373 177.02 334.17 176.703C333.971 176.383 333.871 176.025 333.871 175.631C333.871 175.197 333.994 174.793 334.24 174.418C334.486 174.039 334.846 173.752 335.318 173.557C335.791 173.361 336.316 173.264 336.895 173.264C337.531 173.264 338.092 173.367 338.576 173.574C339.064 173.777 339.439 174.078 339.701 174.477C339.963 174.875 340.104 175.326 340.123 175.83L339.033 175.912C338.975 175.369 338.775 174.959 338.436 174.682C338.1 174.404 337.602 174.266 336.941 174.266C336.254 174.266 335.752 174.393 335.436 174.646C335.123 174.896 334.967 175.199 334.967 175.555C334.967 175.863 335.078 176.117 335.301 176.316C335.52 176.516 336.09 176.721 337.012 176.932C337.938 177.139 338.572 177.32 338.916 177.477C339.416 177.707 339.785 178 340.023 178.355C340.262 178.707 340.381 179.113 340.381 179.574C340.381 180.031 340.25 180.463 339.988 180.869C339.727 181.271 339.35 181.586 338.857 181.812C338.369 182.035 337.818 182.146 337.205 182.146C336.428 182.146 335.775 182.033 335.248 181.807C334.725 181.58 334.312 181.24 334.012 180.787C333.715 180.33 333.559 179.814 333.543 179.24ZM344.119 182V174.424H341.289V173.41H348.098V174.424H345.256V182H344.119ZM348.689 179.562L349.715 179.422C349.742 180.078 349.865 180.527 350.084 180.77C350.303 181.012 350.605 181.133 350.992 181.133C351.277 181.133 351.523 181.068 351.73 180.939C351.938 180.807 352.08 180.629 352.158 180.406C352.236 180.18 352.275 179.82 352.275 179.328V173.41H353.412V179.264C353.412 179.982 353.324 180.539 353.148 180.934C352.977 181.328 352.701 181.629 352.322 181.836C351.947 182.043 351.506 182.146 350.998 182.146C350.244 182.146 349.666 181.93 349.264 181.496C348.865 181.062 348.674 180.418 348.689 179.562ZM355.428 176.979V175.777H356.629V176.979H355.428ZM355.428 182V180.799H356.629V182H355.428ZM365.494 182H364.439V175.279C364.186 175.521 363.852 175.764 363.438 176.006C363.027 176.248 362.658 176.43 362.33 176.551V175.531C362.92 175.254 363.436 174.918 363.877 174.523C364.318 174.129 364.631 173.746 364.814 173.375H365.494V182ZM373.475 173.84H376.607V174.644H373.475V173.84ZM373.475 175.988H376.631V176.804H373.475V175.988ZM376.235 172.076H377.231V178.496H376.235V172.076ZM368.807 172.904H373.751V177.728H368.807V172.904ZM372.779 173.708H369.779V176.924H372.779V173.708ZM373.655 178.82C374.775 178.82 375.655 179 376.295 179.36C376.943 179.72 377.267 180.224 377.267 180.872C377.267 181.52 376.943 182.02 376.295 182.372C375.655 182.732 374.775 182.912 373.655 182.912C372.535 182.912 371.651 182.732 371.003 182.372C370.363 182.02 370.043 181.52 370.043 180.872C370.043 180.224 370.363 179.72 371.003 179.36C371.651 179 372.535 178.82 373.655 178.82ZM373.655 179.6C373.111 179.6 372.643 179.652 372.251 179.756C371.859 179.852 371.555 179.996 371.339 180.188C371.131 180.372 371.027 180.6 371.027 180.872C371.027 181.128 371.131 181.352 371.339 181.544C371.555 181.728 371.859 181.872 372.251 181.976C372.643 182.08 373.111 182.132 373.655 182.132C374.207 182.132 374.675 182.08 375.059 181.976C375.451 181.872 375.751 181.728 375.959 181.544C376.175 181.352 376.283 181.128 376.283 180.872C376.283 180.6 376.175 180.372 375.959 180.188C375.751 179.996 375.451 179.852 375.059 179.756C374.675 179.652 374.207 179.6 373.655 179.6ZM384.889 184.525C384.307 183.791 383.814 182.932 383.412 181.947C383.01 180.963 382.809 179.943 382.809 178.889C382.809 177.959 382.959 177.068 383.26 176.217C383.611 175.229 384.154 174.244 384.889 173.264H385.645C385.172 174.076 384.859 174.656 384.707 175.004C384.469 175.543 384.281 176.105 384.145 176.691C383.977 177.422 383.893 178.156 383.893 178.895C383.893 180.773 384.477 182.65 385.645 184.525H384.889ZM390.549 182H389.494V175.279C389.24 175.521 388.906 175.764 388.492 176.006C388.082 176.248 387.713 176.43 387.385 176.551V175.531C387.975 175.254 388.49 174.918 388.932 174.523C389.373 174.129 389.686 173.746 389.869 173.375H390.549V182ZM393.256 177.764C393.256 176.748 393.359 175.932 393.566 175.314C393.777 174.693 394.088 174.215 394.498 173.879C394.912 173.543 395.432 173.375 396.057 173.375C396.518 173.375 396.922 173.469 397.27 173.656C397.617 173.84 397.904 174.107 398.131 174.459C398.357 174.807 398.535 175.232 398.664 175.736C398.793 176.236 398.857 176.912 398.857 177.764C398.857 178.771 398.754 179.586 398.547 180.207C398.34 180.824 398.029 181.303 397.615 181.643C397.205 181.979 396.686 182.146 396.057 182.146C395.229 182.146 394.578 181.85 394.105 181.256C393.539 180.541 393.256 179.377 393.256 177.764ZM394.34 177.764C394.34 179.174 394.504 180.113 394.832 180.582C395.164 181.047 395.572 181.279 396.057 181.279C396.541 181.279 396.947 181.045 397.275 180.576C397.607 180.107 397.773 179.17 397.773 177.764C397.773 176.35 397.607 175.41 397.275 174.945C396.947 174.48 396.537 174.248 396.045 174.248C395.561 174.248 395.174 174.453 394.885 174.863C394.521 175.387 394.34 176.354 394.34 177.764ZM400.527 182V180.799H401.729V182H400.527ZM403.275 177.764C403.275 176.748 403.379 175.932 403.586 175.314C403.797 174.693 404.107 174.215 404.518 173.879C404.932 173.543 405.451 173.375 406.076 173.375C406.537 173.375 406.941 173.469 407.289 173.656C407.637 173.84 407.924 174.107 408.15 174.459C408.377 174.807 408.555 175.232 408.684 175.736C408.812 176.236 408.877 176.912 408.877 177.764C408.877 178.771 408.773 179.586 408.566 180.207C408.359 180.824 408.049 181.303 407.635 181.643C407.225 181.979 406.705 182.146 406.076 182.146C405.248 182.146 404.598 181.85 404.125 181.256C403.559 180.541 403.275 179.377 403.275 177.764ZM404.359 177.764C404.359 179.174 404.523 180.113 404.852 180.582C405.184 181.047 405.592 181.279 406.076 181.279C406.561 181.279 406.967 181.045 407.295 180.576C407.627 180.107 407.793 179.17 407.793 177.764C407.793 176.35 407.627 175.41 407.295 174.945C406.967 174.48 406.557 174.248 406.064 174.248C405.58 174.248 405.193 174.453 404.904 174.863C404.541 175.387 404.359 176.354 404.359 177.764ZM410.154 175.473C410.154 174.859 410.309 174.338 410.617 173.908C410.926 173.479 411.373 173.264 411.959 173.264C412.498 173.264 412.943 173.457 413.295 173.844C413.65 174.227 413.828 174.791 413.828 175.537C413.828 176.264 413.648 176.824 413.289 177.219C412.934 177.609 412.494 177.805 411.971 177.805C411.451 177.805 411.018 177.611 410.67 177.225C410.326 176.838 410.154 176.254 410.154 175.473ZM411.988 173.99C411.727 173.99 411.508 174.104 411.332 174.33C411.16 174.557 411.074 174.973 411.074 175.578C411.074 176.129 411.162 176.518 411.338 176.744C411.514 176.967 411.73 177.078 411.988 177.078C412.254 177.078 412.473 176.965 412.645 176.738C412.82 176.512 412.908 176.098 412.908 175.496C412.908 174.941 412.82 174.553 412.645 174.33C412.469 174.104 412.25 173.99 411.988 173.99ZM411.994 182.316L416.693 173.264H417.549L412.867 182.316H411.994ZM415.709 179.984C415.709 179.367 415.863 178.846 416.172 178.42C416.48 177.99 416.93 177.775 417.52 177.775C418.059 177.775 418.504 177.969 418.855 178.355C419.211 178.738 419.389 179.303 419.389 180.049C419.389 180.775 419.209 181.336 418.85 181.73C418.494 182.121 418.053 182.316 417.525 182.316C417.006 182.316 416.572 182.123 416.225 181.736C415.881 181.346 415.709 180.762 415.709 179.984ZM417.549 178.502C417.283 178.502 417.062 178.615 416.887 178.842C416.715 179.068 416.629 179.484 416.629 180.09C416.629 180.637 416.717 181.023 416.893 181.25C417.068 181.477 417.285 181.59 417.543 181.59C417.812 181.59 418.033 181.477 418.205 181.25C418.381 181.023 418.469 180.609 418.469 180.008C418.469 179.453 418.381 179.064 418.205 178.842C418.029 178.615 417.811 178.502 417.549 178.502ZM421.615 184.525H420.859C422.027 182.65 422.611 180.773 422.611 178.895C422.611 178.16 422.527 177.432 422.359 176.709C422.227 176.123 422.041 175.561 421.803 175.021C421.65 174.67 421.336 174.084 420.859 173.264H421.615C422.35 174.244 422.893 175.229 423.244 176.217C423.545 177.068 423.695 177.959 423.695 178.889C423.695 179.943 423.492 180.963 423.086 181.947C422.684 182.932 422.193 183.791 421.615 184.525Z" fill="black"/>
<path d="M317 196H303C301.343 196 300 197.343 300 199V213C300 214.657 301.343 216 303 216H317C318.657 216 320 214.657 320 213V199C320 197.343 318.657 196 317 196Z" fill="url(#paint11_linear_55_158)"/>
<path d="M326.119 210V201.41H327.256V210H326.119ZM328.879 207.24L329.951 207.146C330.002 207.576 330.119 207.93 330.303 208.207C330.49 208.48 330.779 208.703 331.17 208.875C331.561 209.043 332 209.127 332.488 209.127C332.922 209.127 333.305 209.062 333.637 208.934C333.969 208.805 334.215 208.629 334.375 208.406C334.539 208.18 334.621 207.934 334.621 207.668C334.621 207.398 334.543 207.164 334.387 206.965C334.23 206.762 333.973 206.592 333.613 206.455C333.383 206.365 332.873 206.227 332.084 206.039C331.295 205.848 330.742 205.668 330.426 205.5C330.016 205.285 329.709 205.02 329.506 204.703C329.307 204.383 329.207 204.025 329.207 203.631C329.207 203.197 329.33 202.793 329.576 202.418C329.822 202.039 330.182 201.752 330.654 201.557C331.127 201.361 331.652 201.264 332.23 201.264C332.867 201.264 333.428 201.367 333.912 201.574C334.4 201.777 334.775 202.078 335.037 202.477C335.299 202.875 335.439 203.326 335.459 203.83L334.369 203.912C334.311 203.369 334.111 202.959 333.771 202.682C333.436 202.404 332.938 202.266 332.277 202.266C331.59 202.266 331.088 202.393 330.771 202.646C330.459 202.896 330.303 203.199 330.303 203.555C330.303 203.863 330.414 204.117 330.637 204.316C330.855 204.516 331.426 204.721 332.348 204.932C333.273 205.139 333.908 205.32 334.252 205.477C334.752 205.707 335.121 206 335.359 206.355C335.598 206.707 335.717 207.113 335.717 207.574C335.717 208.031 335.586 208.463 335.324 208.869C335.062 209.271 334.686 209.586 334.193 209.812C333.705 210.035 333.154 210.146 332.541 210.146C331.764 210.146 331.111 210.033 330.584 209.807C330.061 209.58 329.648 209.24 329.348 208.787C329.051 208.33 328.895 207.814 328.879 207.24ZM337.328 210V201.41H343.123V202.424H338.465V205.084H342.496V206.098H338.465V210H337.328ZM344.605 210V201.41H347.846C348.416 201.41 348.852 201.438 349.152 201.492C349.574 201.562 349.928 201.697 350.213 201.896C350.498 202.092 350.727 202.367 350.898 202.723C351.074 203.078 351.162 203.469 351.162 203.895C351.162 204.625 350.93 205.244 350.465 205.752C350 206.256 349.16 206.508 347.945 206.508H345.742V210H344.605ZM345.742 205.494H347.963C348.697 205.494 349.219 205.357 349.527 205.084C349.836 204.811 349.99 204.426 349.99 203.93C349.99 203.57 349.898 203.264 349.715 203.01C349.535 202.752 349.297 202.582 349 202.5C348.809 202.449 348.455 202.424 347.939 202.424H345.742V205.494ZM352.768 204.979V203.777H353.969V204.979H352.768ZM352.768 210V208.799H353.969V210H352.768ZM362.834 210H361.779V203.279C361.525 203.521 361.191 203.764 360.777 204.006C360.367 204.248 359.998 204.43 359.67 204.551V203.531C360.26 203.254 360.775 202.918 361.217 202.523C361.658 202.129 361.971 201.746 362.154 201.375H362.834V210ZM370.815 201.84H373.947V202.644H370.815V201.84ZM370.815 203.988H373.971V204.804H370.815V203.988ZM373.575 200.076H374.571V206.496H373.575V200.076ZM366.147 200.904H371.091V205.728H366.147V200.904ZM370.119 201.708H367.119V204.924H370.119V201.708ZM370.995 206.82C372.115 206.82 372.995 207 373.635 207.36C374.283 207.72 374.607 208.224 374.607 208.872C374.607 209.52 374.283 210.02 373.635 210.372C372.995 210.732 372.115 210.912 370.995 210.912C369.875 210.912 368.991 210.732 368.343 210.372C367.703 210.02 367.383 209.52 367.383 208.872C367.383 208.224 367.703 207.72 368.343 207.36C368.991 207 369.875 206.82 370.995 206.82ZM370.995 207.6C370.451 207.6 369.983 207.652 369.591 207.756C369.199 207.852 368.895 207.996 368.679 208.188C368.471 208.372 368.367 208.6 368.367 208.872C368.367 209.128 368.471 209.352 368.679 209.544C368.895 209.728 369.199 209.872 369.591 209.976C369.983 210.08 370.451 210.132 370.995 210.132C371.547 210.132 372.015 210.08 372.399 209.976C372.791 209.872 373.091 209.728 373.299 209.544C373.515 209.352 373.623 209.128 373.623 208.872C373.623 208.6 373.515 208.372 373.299 208.188C373.091 207.996 372.791 207.852 372.399 207.756C372.015 207.652 371.547 207.6 370.995 207.6ZM382.229 212.525C381.646 211.791 381.154 210.932 380.752 209.947C380.35 208.963 380.148 207.943 380.148 206.889C380.148 205.959 380.299 205.068 380.6 204.217C380.951 203.229 381.494 202.244 382.229 201.264H382.984C382.512 202.076 382.199 202.656 382.047 203.004C381.809 203.543 381.621 204.105 381.484 204.691C381.316 205.422 381.232 206.156 381.232 206.895C381.232 208.773 381.816 210.65 382.984 212.525H382.229ZM387.889 210H386.834V203.279C386.58 203.521 386.246 203.764 385.832 204.006C385.422 204.248 385.053 204.43 384.725 204.551V203.531C385.314 203.254 385.83 202.918 386.271 202.523C386.713 202.129 387.025 201.746 387.209 201.375H387.889V210ZM390.596 205.764C390.596 204.748 390.699 203.932 390.906 203.314C391.117 202.693 391.428 202.215 391.838 201.879C392.252 201.543 392.771 201.375 393.396 201.375C393.857 201.375 394.262 201.469 394.609 201.656C394.957 201.84 395.244 202.107 395.471 202.459C395.697 202.807 395.875 203.232 396.004 203.736C396.133 204.236 396.197 204.912 396.197 205.764C396.197 206.771 396.094 207.586 395.887 208.207C395.68 208.824 395.369 209.303 394.955 209.643C394.545 209.979 394.025 210.146 393.396 210.146C392.568 210.146 391.918 209.85 391.445 209.256C390.879 208.541 390.596 207.377 390.596 205.764ZM391.68 205.764C391.68 207.174 391.844 208.113 392.172 208.582C392.504 209.047 392.912 209.279 393.396 209.279C393.881 209.279 394.287 209.045 394.615 208.576C394.947 208.107 395.113 207.17 395.113 205.764C395.113 204.35 394.947 203.41 394.615 202.945C394.287 202.48 393.877 202.248 393.385 202.248C392.9 202.248 392.514 202.453 392.225 202.863C391.861 203.387 391.68 204.354 391.68 205.764ZM397.867 210V208.799H399.068V210H397.867ZM400.615 205.764C400.615 204.748 400.719 203.932 400.926 203.314C401.137 202.693 401.447 202.215 401.857 201.879C402.271 201.543 402.791 201.375 403.416 201.375C403.877 201.375 404.281 201.469 404.629 201.656C404.977 201.84 405.264 202.107 405.49 202.459C405.717 202.807 405.895 203.232 406.023 203.736C406.152 204.236 406.217 204.912 406.217 205.764C406.217 206.771 406.113 207.586 405.906 208.207C405.699 208.824 405.389 209.303 404.975 209.643C404.564 209.979 404.045 210.146 403.416 210.146C402.588 210.146 401.938 209.85 401.465 209.256C400.898 208.541 400.615 207.377 400.615 205.764ZM401.699 205.764C401.699 207.174 401.863 208.113 402.191 208.582C402.523 209.047 402.932 209.279 403.416 209.279C403.9 209.279 404.307 209.045 404.635 208.576C404.967 208.107 405.133 207.17 405.133 205.764C405.133 204.35 404.967 203.41 404.635 202.945C404.307 202.48 403.896 202.248 403.404 202.248C402.92 202.248 402.533 202.453 402.244 202.863C401.881 203.387 401.699 204.354 401.699 205.764ZM407.494 203.473C407.494 202.859 407.648 202.338 407.957 201.908C408.266 201.479 408.713 201.264 409.299 201.264C409.838 201.264 410.283 201.457 410.635 201.844C410.99 202.227 411.168 202.791 411.168 203.537C411.168 204.264 410.988 204.824 410.629 205.219C410.273 205.609 409.834 205.805 409.311 205.805C408.791 205.805 408.357 205.611 408.01 205.225C407.666 204.838 407.494 204.254 407.494 203.473ZM409.328 201.99C409.066 201.99 408.848 202.104 408.672 202.33C408.5 202.557 408.414 202.973 408.414 203.578C408.414 204.129 408.502 204.518 408.678 204.744C408.854 204.967 409.07 205.078 409.328 205.078C409.594 205.078 409.812 204.965 409.984 204.738C410.16 204.512 410.248 204.098 410.248 203.496C410.248 202.941 410.16 202.553 409.984 202.33C409.809 202.104 409.59 201.99 409.328 201.99ZM409.334 210.316L414.033 201.264H414.889L410.207 210.316H409.334ZM413.049 207.984C413.049 207.367 413.203 206.846 413.512 206.42C413.82 205.99 414.27 205.775 414.859 205.775C415.398 205.775 415.844 205.969 416.195 206.355C416.551 206.738 416.729 207.303 416.729 208.049C416.729 208.775 416.549 209.336 416.189 209.73C415.834 210.121 415.393 210.316 414.865 210.316C414.346 210.316 413.912 210.123 413.564 209.736C413.221 209.346 413.049 208.762 413.049 207.984ZM414.889 206.502C414.623 206.502 414.402 206.615 414.227 206.842C414.055 207.068 413.969 207.484 413.969 208.09C413.969 208.637 414.057 209.023 414.232 209.25C414.408 209.477 414.625 209.59 414.883 209.59C415.152 209.59 415.373 209.477 415.545 209.25C415.721 209.023 415.809 208.609 415.809 208.008C415.809 207.453 415.721 207.064 415.545 206.842C415.369 206.615 415.15 206.502 414.889 206.502ZM418.955 212.525H418.199C419.367 210.65 419.951 208.773 419.951 206.895C419.951 206.16 419.867 205.432 419.699 204.709C419.566 204.123 419.381 203.561 419.143 203.021C418.99 202.67 418.676 202.084 418.199 201.264H418.955C419.689 202.244 420.232 203.229 420.584 204.217C420.885 205.068 421.035 205.959 421.035 206.889C421.035 207.943 420.832 208.963 420.426 209.947C420.023 210.932 419.533 211.791 418.955 212.525Z" fill="black"/>
<path d="M317 224H303C301.343 224 300 225.343 300 227V241C300 242.657 301.343 244 303 244H317C318.657 244 320 242.657 320 241V227C320 225.343 318.657 224 317 224Z" fill="url(#paint12_linear_55_158)"/>
<path d="M326.119 238V229.41H327.256V238H326.119ZM329.254 238V229.41H330.42L334.932 236.154V229.41H336.021V238H334.855L330.344 231.25V238H329.254ZM337.996 238V229.41H343.791V230.424H339.133V233.084H343.164V234.098H339.133V238H337.996ZM345.273 238V229.41H348.514C349.084 229.41 349.52 229.438 349.82 229.492C350.242 229.562 350.596 229.697 350.881 229.896C351.166 230.092 351.395 230.367 351.566 230.723C351.742 231.078 351.83 231.469 351.83 231.895C351.83 232.625 351.598 233.244 351.133 233.752C350.668 234.256 349.828 234.508 348.613 234.508H346.41V238H345.273ZM346.41 233.494H348.631C349.365 233.494 349.887 233.357 350.195 233.084C350.504 232.811 350.658 232.426 350.658 231.93C350.658 231.57 350.566 231.264 350.383 231.01C350.203 230.752 349.965 230.582 349.668 230.5C349.477 230.449 349.123 230.424 348.607 230.424H346.41V233.494ZM353.436 232.979V231.777H354.637V232.979H353.436ZM353.436 238V236.799H354.637V238H353.436ZM363.502 238H362.447V231.279C362.193 231.521 361.859 231.764 361.445 232.006C361.035 232.248 360.666 232.43 360.338 232.551V231.531C360.928 231.254 361.443 230.918 361.885 230.523C362.326 230.129 362.639 229.746 362.822 229.375H363.502V238ZM371.483 229.84H374.615V230.644H371.483V229.84ZM371.483 231.988H374.639V232.804H371.483V231.988ZM374.243 228.076H375.239V234.496H374.243V228.076ZM366.815 228.904H371.759V233.728H366.815V228.904ZM370.787 229.708H367.787V232.924H370.787V229.708ZM371.663 234.82C372.783 234.82 373.663 235 374.303 235.36C374.951 235.72 375.275 236.224 375.275 236.872C375.275 237.52 374.951 238.02 374.303 238.372C373.663 238.732 372.783 238.912 371.663 238.912C370.543 238.912 369.659 238.732 369.011 238.372C368.371 238.02 368.051 237.52 368.051 236.872C368.051 236.224 368.371 235.72 369.011 235.36C369.659 235 370.543 234.82 371.663 234.82ZM371.663 235.6C371.119 235.6 370.651 235.652 370.259 235.756C369.867 235.852 369.563 235.996 369.347 236.188C369.139 236.372 369.035 236.6 369.035 236.872C369.035 237.128 369.139 237.352 369.347 237.544C369.563 237.728 369.867 237.872 370.259 237.976C370.651 238.08 371.119 238.132 371.663 238.132C372.215 238.132 372.683 238.08 373.067 237.976C373.459 237.872 373.759 237.728 373.967 237.544C374.183 237.352 374.291 237.128 374.291 236.872C374.291 236.6 374.183 236.372 373.967 236.188C373.759 235.996 373.459 235.852 373.067 235.756C372.683 235.652 372.215 235.6 371.663 235.6ZM382.896 240.525C382.314 239.791 381.822 238.932 381.42 237.947C381.018 236.963 380.816 235.943 380.816 234.889C380.816 233.959 380.967 233.068 381.268 232.217C381.619 231.229 382.162 230.244 382.896 229.264H383.652C383.18 230.076 382.867 230.656 382.715 231.004C382.477 231.543 382.289 232.105 382.152 232.691C381.984 233.422 381.9 234.156 381.9 234.895C381.9 236.773 382.484 238.65 383.652 240.525H382.896ZM388.557 238H387.502V231.279C387.248 231.521 386.914 231.764 386.5 232.006C386.09 232.248 385.721 232.43 385.393 232.551V231.531C385.982 231.254 386.498 230.918 386.939 230.523C387.381 230.129 387.693 229.746 387.877 229.375H388.557V238ZM391.264 233.764C391.264 232.748 391.367 231.932 391.574 231.314C391.785 230.693 392.096 230.215 392.506 229.879C392.92 229.543 393.439 229.375 394.064 229.375C394.525 229.375 394.93 229.469 395.277 229.656C395.625 229.84 395.912 230.107 396.139 230.459C396.365 230.807 396.543 231.232 396.672 231.736C396.801 232.236 396.865 232.912 396.865 233.764C396.865 234.771 396.762 235.586 396.555 236.207C396.348 236.824 396.037 237.303 395.623 237.643C395.213 237.979 394.693 238.146 394.064 238.146C393.236 238.146 392.586 237.85 392.113 237.256C391.547 236.541 391.264 235.377 391.264 233.764ZM392.348 233.764C392.348 235.174 392.512 236.113 392.84 236.582C393.172 237.047 393.58 237.279 394.064 237.279C394.549 237.279 394.955 237.045 395.283 236.576C395.615 236.107 395.781 235.17 395.781 233.764C395.781 232.35 395.615 231.41 395.283 230.945C394.955 230.48 394.545 230.248 394.053 230.248C393.568 230.248 393.182 230.453 392.893 230.863C392.529 231.387 392.348 232.354 392.348 233.764ZM398.535 238V236.799H399.736V238H398.535ZM401.283 233.764C401.283 232.748 401.387 231.932 401.594 231.314C401.805 230.693 402.115 230.215 402.525 229.879C402.939 229.543 403.459 229.375 404.084 229.375C404.545 229.375 404.949 229.469 405.297 229.656C405.645 229.84 405.932 230.107 406.158 230.459C406.385 230.807 406.562 231.232 406.691 231.736C406.82 232.236 406.885 232.912 406.885 233.764C406.885 234.771 406.781 235.586 406.574 236.207C406.367 236.824 406.057 237.303 405.643 237.643C405.232 237.979 404.713 238.146 404.084 238.146C403.256 238.146 402.605 237.85 402.133 237.256C401.566 236.541 401.283 235.377 401.283 233.764ZM402.367 233.764C402.367 235.174 402.531 236.113 402.859 236.582C403.191 237.047 403.6 237.279 404.084 237.279C404.568 237.279 404.975 237.045 405.303 236.576C405.635 236.107 405.801 235.17 405.801 233.764C405.801 232.35 405.635 231.41 405.303 230.945C404.975 230.48 404.564 230.248 404.072 230.248C403.588 230.248 403.201 230.453 402.912 230.863C402.549 231.387 402.367 232.354 402.367 233.764ZM408.162 231.473C408.162 230.859 408.316 230.338 408.625 229.908C408.934 229.479 409.381 229.264 409.967 229.264C410.506 229.264 410.951 229.457 411.303 229.844C411.658 230.227 411.836 230.791 411.836 231.537C411.836 232.264 411.656 232.824 411.297 233.219C410.941 233.609 410.502 233.805 409.979 233.805C409.459 233.805 409.025 233.611 408.678 233.225C408.334 232.838 408.162 232.254 408.162 231.473ZM409.996 229.99C409.734 229.99 409.516 230.104 409.34 230.33C409.168 230.557 409.082 230.973 409.082 231.578C409.082 232.129 409.17 232.518 409.346 232.744C409.521 232.967 409.738 233.078 409.996 233.078C410.262 233.078 410.48 232.965 410.652 232.738C410.828 232.512 410.916 232.098 410.916 231.496C410.916 230.941 410.828 230.553 410.652 230.33C410.477 230.104 410.258 229.99 409.996 229.99ZM410.002 238.316L414.701 229.264H415.557L410.875 238.316H410.002ZM413.717 235.984C413.717 235.367 413.871 234.846 414.18 234.42C414.488 233.99 414.938 233.775 415.527 233.775C416.066 233.775 416.512 233.969 416.863 234.355C417.219 234.738 417.396 235.303 417.396 236.049C417.396 236.775 417.217 237.336 416.857 237.73C416.502 238.121 416.061 238.316 415.533 238.316C415.014 238.316 414.58 238.123 414.232 237.736C413.889 237.346 413.717 236.762 413.717 235.984ZM415.557 234.502C415.291 234.502 415.07 234.615 414.895 234.842C414.723 235.068 414.637 235.484 414.637 236.09C414.637 236.637 414.725 237.023 414.9 237.25C415.076 237.477 415.293 237.59 415.551 237.59C415.82 237.59 416.041 237.477 416.213 237.25C416.389 237.023 416.477 236.609 416.477 236.008C416.477 235.453 416.389 235.064 416.213 234.842C416.037 234.615 415.818 234.502 415.557 234.502ZM419.623 240.525H418.867C420.035 238.65 420.619 236.773 420.619 234.895C420.619 234.16 420.535 233.432 420.367 232.709C420.234 232.123 420.049 231.561 419.811 231.021C419.658 230.67 419.344 230.084 418.867 229.264H419.623C420.357 230.244 420.9 231.229 421.252 232.217C421.553 233.068 421.703 233.959 421.703 234.889C421.703 235.943 421.5 236.963 421.094 237.947C420.691 238.932 420.201 239.791 419.623 240.525Z" fill="black"/>
<path d="M182.946 85V75.6943H189.846V77.2686H184.825V79.3315H189.497V80.8994H184.825V83.4321H190.023V85H182.946ZM191.141 81.9722L192.969 81.7944C193.079 82.408 193.301 82.8587 193.635 83.1465C193.974 83.4342 194.429 83.5781 195 83.5781C195.605 83.5781 196.06 83.4512 196.365 83.1973C196.674 82.9391 196.828 82.6387 196.828 82.2959C196.828 82.0758 196.763 81.8896 196.631 81.7373C196.504 81.5807 196.28 81.4453 195.958 81.3311C195.738 81.2549 195.237 81.1195 194.454 80.9248C193.447 80.6751 192.74 80.3683 192.334 80.0044C191.763 79.4924 191.477 78.8682 191.477 78.1318C191.477 77.6579 191.61 77.2157 191.877 76.8052C192.148 76.3905 192.535 76.0752 193.039 75.8594C193.546 75.6436 194.158 75.5356 194.873 75.5356C196.041 75.5356 196.919 75.7917 197.507 76.3037C198.1 76.8158 198.411 77.4992 198.44 78.354L196.562 78.4365C196.481 77.9583 196.308 77.6156 196.041 77.4082C195.779 77.1966 195.383 77.0908 194.854 77.0908C194.308 77.0908 193.881 77.203 193.572 77.4272C193.373 77.5711 193.273 77.7637 193.273 78.0049C193.273 78.2249 193.367 78.4132 193.553 78.5698C193.79 78.7687 194.365 78.9761 195.279 79.1919C196.193 79.4077 196.868 79.632 197.304 79.8647C197.744 80.0933 198.087 80.4085 198.333 80.8105C198.582 81.2083 198.707 81.7013 198.707 82.2896C198.707 82.8228 198.559 83.3221 198.263 83.7876C197.966 84.2531 197.548 84.6001 197.006 84.8286C196.464 85.0529 195.789 85.165 194.981 85.165C193.805 85.165 192.901 84.8942 192.271 84.3525C191.64 83.8066 191.263 83.0132 191.141 81.9722ZM202.382 85V77.2686H199.621V75.6943H207.016V77.2686H204.261V85H202.382ZM211.593 75.6943H213.465V81.585C213.465 82.3551 213.398 82.9476 213.262 83.3623C213.08 83.904 212.75 84.3398 212.272 84.6699C211.794 84.9958 211.163 85.1587 210.38 85.1587C209.462 85.1587 208.755 84.9027 208.26 84.3906C207.765 83.8743 207.515 83.119 207.511 82.1245L209.282 81.9214C209.303 82.4546 209.382 82.8312 209.517 83.0513C209.72 83.3856 210.029 83.5527 210.444 83.5527C210.863 83.5527 211.159 83.4342 211.333 83.1973C211.506 82.9561 211.593 82.4588 211.593 81.7056V75.6943Z" fill="white"/>
<path d="M208.889 130V120.694H210.768V130H208.889ZM212.583 130V120.694H214.411L218.22 126.909V120.694H219.965V130H218.08L214.329 123.932V130H212.583ZM221.971 130V120.694H228.351V122.269H223.85V124.471H227.735V126.045H223.85V130H221.971ZM229.906 130V120.694H232.921C234.063 120.694 234.808 120.741 235.155 120.834C235.688 120.974 236.135 121.278 236.495 121.748C236.854 122.214 237.034 122.817 237.034 123.557C237.034 124.128 236.931 124.609 236.723 124.998C236.516 125.387 236.251 125.694 235.93 125.918C235.612 126.139 235.289 126.285 234.958 126.356C234.51 126.445 233.86 126.49 233.01 126.49H231.785V130H229.906ZM231.785 122.269V124.909H232.813C233.554 124.909 234.049 124.861 234.298 124.763C234.548 124.666 234.743 124.514 234.882 124.306C235.026 124.099 235.098 123.858 235.098 123.583C235.098 123.244 234.999 122.965 234.8 122.745C234.601 122.525 234.349 122.387 234.044 122.332C233.82 122.29 233.369 122.269 232.692 122.269H231.785Z" fill="white"/>
<path d="M91.8887 60V50.6943H93.7676V60H91.8887ZM95.0879 56.9722L96.916 56.7944C97.026 57.408 97.2482 57.8587 97.5825 58.1465C97.9211 58.4342 98.376 58.5781 98.9473 58.5781C99.5524 58.5781 100.007 58.4512 100.312 58.1973C100.621 57.9391 100.775 57.6387 100.775 57.2959C100.775 57.0758 100.71 56.8896 100.579 56.7373C100.452 56.5807 100.227 56.4453 99.9058 56.3311C99.6857 56.2549 99.1842 56.1195 98.4014 55.9248C97.3942 55.6751 96.6875 55.3683 96.2812 55.0044C95.71 54.4924 95.4243 53.8682 95.4243 53.1318C95.4243 52.6579 95.5576 52.2157 95.8242 51.8052C96.0951 51.3905 96.4823 51.0752 96.9858 50.8594C97.4937 50.6436 98.1051 50.5356 98.8203 50.5356C99.9883 50.5356 100.866 50.7917 101.455 51.3037C102.047 51.8158 102.358 52.4992 102.388 53.354L100.509 53.4365C100.428 52.9583 100.255 52.6156 99.9883 52.4082C99.7259 52.1966 99.3302 52.0908 98.8013 52.0908C98.2554 52.0908 97.828 52.203 97.519 52.4272C97.3201 52.5711 97.2207 52.7637 97.2207 53.0049C97.2207 53.2249 97.3138 53.4132 97.5 53.5698C97.737 53.7687 98.3125 53.9761 99.2266 54.1919C100.141 54.4077 100.816 54.632 101.251 54.8647C101.692 55.0933 102.034 55.4085 102.28 55.8105C102.529 56.2083 102.654 56.7013 102.654 57.2896C102.654 57.8228 102.506 58.3221 102.21 58.7876C101.914 59.2531 101.495 59.6001 100.953 59.8286C100.411 60.0529 99.7365 60.165 98.9282 60.165C97.7518 60.165 96.8483 59.8942 96.2178 59.3525C95.5872 58.8066 95.2106 58.0132 95.0879 56.9722ZM104.248 60V50.6943H110.627V52.2686H106.126V54.4712H110.011V56.0454H106.126V60H104.248ZM112.182 60V50.6943H115.197C116.34 50.6943 117.085 50.7409 117.432 50.834C117.965 50.9736 118.411 51.2783 118.771 51.748C119.131 52.2135 119.311 52.8166 119.311 53.5571C119.311 54.1284 119.207 54.6087 119 54.998C118.792 55.3874 118.528 55.6942 118.206 55.9185C117.889 56.1385 117.565 56.2845 117.235 56.3564C116.786 56.4453 116.137 56.4897 115.286 56.4897H114.061V60H112.182ZM114.061 52.2686V54.9092H115.089C115.83 54.9092 116.325 54.8605 116.575 54.7632C116.824 54.6659 117.019 54.5135 117.159 54.3062C117.303 54.0988 117.375 53.8576 117.375 53.5825C117.375 53.244 117.275 52.9647 117.076 52.7446C116.877 52.5246 116.625 52.387 116.321 52.332C116.097 52.2897 115.646 52.2686 114.969 52.2686H114.061Z" fill="white"/>
<path d="M36.8887 207V197.694H38.7676V207H36.8887ZM40.583 207V197.694H42.4111L46.2197 203.909V197.694H47.9653V207H46.0801L42.3286 200.932V207H40.583ZM52.0532 207V199.269H49.292V197.694H56.687V199.269H53.9321V207H52.0532ZM61.2637 197.694H63.1362V203.585C63.1362 204.355 63.0685 204.948 62.9331 205.362C62.7511 205.904 62.4211 206.34 61.9429 206.67C61.4647 206.996 60.8341 207.159 60.0513 207.159C59.133 207.159 58.4263 206.903 57.9312 206.391C57.436 205.874 57.1864 205.119 57.1821 204.125L58.9531 203.921C58.9743 204.455 59.0526 204.831 59.188 205.051C59.3911 205.386 59.7 205.553 60.1147 205.553C60.5337 205.553 60.8299 205.434 61.0034 205.197C61.1769 204.956 61.2637 204.459 61.2637 203.706V197.694Z" fill="white"/>
<path d="M137.946 63V53.6943H144.846V55.2686H139.825V57.3315H144.497V58.8994H139.825V61.4321H145.023V63H137.946ZM146.636 63V53.6943H148.464L152.272 59.9087V53.6943H154.018V63H152.133L148.381 56.9316V63H146.636ZM158.106 63V55.2686H155.345V53.6943H162.74V55.2686H159.985V63H158.106ZM167.316 53.6943H169.189V59.585C169.189 60.3551 169.121 60.9476 168.986 61.3623C168.804 61.904 168.474 62.3398 167.996 62.6699C167.517 62.9958 166.887 63.1587 166.104 63.1587C165.186 63.1587 164.479 62.9027 163.984 62.3906C163.489 61.8743 163.239 61.119 163.235 60.1245L165.006 59.9214C165.027 60.4546 165.105 60.8312 165.241 61.0513C165.444 61.3856 165.753 61.5527 166.167 61.5527C166.586 61.5527 166.883 61.4342 167.056 61.1973C167.23 60.9561 167.316 60.4588 167.316 59.7056V53.6943Z" fill="white"/>
<path d="M31.8887 106V96.6943H33.7676V106H31.8887ZM35.583 106V96.6943H37.4111L41.2197 102.909V96.6943H42.9653V106H41.0801L37.3286 99.9316V106H35.583ZM47.0532 106V98.2686H44.292V96.6943H51.687V98.2686H48.9321V106H47.0532ZM52.9058 106V96.6943H55.9209C57.0635 96.6943 57.8083 96.7409 58.1553 96.834C58.6885 96.9736 59.1349 97.2783 59.4946 97.748C59.8543 98.2135 60.0342 98.8166 60.0342 99.5571C60.0342 100.128 59.9305 100.609 59.7231 100.998C59.5158 101.387 59.2513 101.694 58.9297 101.918C58.6123 102.139 58.2886 102.285 57.9585 102.356C57.5099 102.445 56.8604 102.49 56.0098 102.49H54.7847V106H52.9058ZM54.7847 98.2686V100.909H55.813C56.5535 100.909 57.0487 100.861 57.2983 100.763C57.548 100.666 57.7427 100.514 57.8823 100.306C58.0262 100.099 58.0981 99.8576 58.0981 99.5825C58.0981 99.244 57.9987 98.9647 57.7998 98.7446C57.6009 98.5246 57.3491 98.387 57.0444 98.332C56.8201 98.2897 56.3695 98.2686 55.6924 98.2686H54.7847Z" fill="white"/>
<path d="M167.889 238V228.694H169.768V238H167.889ZM171.088 234.972L172.916 234.794C173.026 235.408 173.248 235.859 173.583 236.146C173.921 236.434 174.376 236.578 174.947 236.578C175.552 236.578 176.007 236.451 176.312 236.197C176.621 235.939 176.775 235.639 176.775 235.296C176.775 235.076 176.71 234.89 176.579 234.737C176.452 234.581 176.227 234.445 175.906 234.331C175.686 234.255 175.184 234.119 174.401 233.925C173.394 233.675 172.688 233.368 172.281 233.004C171.71 232.492 171.424 231.868 171.424 231.132C171.424 230.658 171.558 230.216 171.824 229.805C172.095 229.39 172.482 229.075 172.986 228.859C173.494 228.644 174.105 228.536 174.82 228.536C175.988 228.536 176.866 228.792 177.455 229.304C178.047 229.816 178.358 230.499 178.388 231.354L176.509 231.437C176.428 230.958 176.255 230.616 175.988 230.408C175.726 230.197 175.33 230.091 174.801 230.091C174.255 230.091 173.828 230.203 173.519 230.427C173.32 230.571 173.221 230.764 173.221 231.005C173.221 231.225 173.314 231.413 173.5 231.57C173.737 231.769 174.312 231.976 175.227 232.192C176.141 232.408 176.816 232.632 177.251 232.865C177.692 233.093 178.034 233.409 178.28 233.811C178.529 234.208 178.654 234.701 178.654 235.29C178.654 235.823 178.506 236.322 178.21 236.788C177.914 237.253 177.495 237.6 176.953 237.829C176.411 238.053 175.736 238.165 174.928 238.165C173.752 238.165 172.848 237.894 172.218 237.353C171.587 236.807 171.211 236.013 171.088 234.972ZM180.248 238V228.694H186.627V230.269H182.126V232.471H186.011V234.045H182.126V238H180.248ZM191.54 228.694H193.413V234.585C193.413 235.355 193.345 235.948 193.209 236.362C193.028 236.904 192.697 237.34 192.219 237.67C191.741 237.996 191.111 238.159 190.328 238.159C189.409 238.159 188.703 237.903 188.208 237.391C187.712 236.874 187.463 236.119 187.458 235.125L189.229 234.921C189.251 235.455 189.329 235.831 189.464 236.051C189.667 236.386 189.976 236.553 190.391 236.553C190.81 236.553 191.106 236.434 191.28 236.197C191.453 235.956 191.54 235.459 191.54 234.706V228.694Z" fill="white"/>
<defs>
<linearGradient id="paint0_linear_55_158" x1="162.5" y1="150" x2="162.5" y2="280" gradientUnits="userSpaceOnUse">
<stop stop-color="#76D5FC"/>
<stop offset="1" stop-color="#6EC5EE"/>
</linearGradient>
<linearGradient id="paint1_linear_55_158" x1="65" y1="150" x2="65" y2="262.583" gradientUnits="userSpaceOnUse">
<stop stop-color="#B1EE8C"/>
<stop offset="1" stop-color="#A0DA7D"/>
</linearGradient>
<linearGradient id="paint2_linear_55_158" x1="65" y1="37.4167" x2="65" y2="150" gradientUnits="userSpaceOnUse">
<stop stop-color="#BC9BE5"/>
<stop offset="1" stop-color="#9A72FF"/>
</linearGradient>
<linearGradient id="paint3_linear_55_158" x1="97.5" y1="20" x2="97.5" y2="150" gradientUnits="userSpaceOnUse">
<stop stop-color="#EB74EA"/>
<stop offset="1" stop-color="#D862D8"/>
</linearGradient>
<linearGradient id="paint4_linear_55_158" x1="162.5" y1="20" x2="162.5" y2="150" gradientUnits="userSpaceOnUse">
<stop stop-color="#EC8934"/>
<stop offset="1" stop-color="#EA6A35"/>
</linearGradient>
<linearGradient id="paint5_linear_55_158" x1="186.292" y1="37.4167" x2="186.292" y2="150" gradientUnits="userSpaceOnUse">
<stop stop-color="#F5EA6F"/>
<stop offset="1" stop-color="#D2D862"/>
</linearGradient>
<linearGradient id="paint6_linear_55_158" x1="195" y1="85" x2="195" y2="150" gradientUnits="userSpaceOnUse">
<stop stop-color="#85E5A7"/>
<stop offset="1" stop-color="#6CD8A0"/>
</linearGradient>
<linearGradient id="paint7_linear_55_158" x1="310" y1="56" x2="310" y2="76" gradientUnits="userSpaceOnUse">
<stop stop-color="#76D5FC"/>
<stop offset="1" stop-color="#6EC5EE"/>
</linearGradient>
<linearGradient id="paint8_linear_55_158" x1="310" y1="112" x2="310" y2="132" gradientUnits="userSpaceOnUse">
<stop stop-color="#BC9BE5"/>
<stop offset="1" stop-color="#9A72FF"/>
</linearGradient>
<linearGradient id="paint9_linear_55_158" x1="310" y1="140" x2="310" y2="160" gradientUnits="userSpaceOnUse">
<stop stop-color="#EC8934"/>
<stop offset="1" stop-color="#EA6A35"/>
</linearGradient>
<linearGradient id="paint10_linear_55_158" x1="310" y1="168" x2="310" y2="188" gradientUnits="userSpaceOnUse">
<stop stop-color="#F5EA6F"/>
<stop offset="1" stop-color="#D2D862"/>
</linearGradient>
<linearGradient id="paint11_linear_55_158" x1="310" y1="196" x2="310" y2="216" gradientUnits="userSpaceOnUse">
<stop stop-color="#EB74EA"/>
<stop offset="1" stop-color="#D862D8"/>
</linearGradient>
<linearGradient id="paint12_linear_55_158" x1="310" y1="224" x2="310" y2="244" gradientUnits="userSpaceOnUse">
<stop stop-color="#85E5A7"/>
<stop offset="1" stop-color="#6CD8A0"/>
</linearGradient>
</defs>
</svg>
