<svg width="450" height="300" viewBox="0 0 450 300" fill="none" xmlns="http://www.w3.org/2000/svg">
<rect width="450" height="300" fill="white"/>
<path d="M130 150H260C260 177.453 251.309 204.202 235.172 226.412C219.036 248.622 196.282 265.154 170.172 273.637L130 150Z" fill="url(#paint0_linear_55_189)"/>
<path d="M130 150L170.172 273.637C144.063 282.121 115.937 282.121 89.8278 273.637C63.7181 265.154 40.9644 248.622 24.8278 226.412L130 150Z" fill="url(#paint1_linear_55_189)"/>
<path d="M130 150L24.8278 226.412C8.69114 204.202 0 177.453 0 150C0 122.547 8.69114 95.7981 24.8278 73.5879L130 150Z" fill="url(#paint2_linear_55_189)"/>
<path d="M130 150L24.8278 73.5879C40.9644 51.3777 63.7181 34.8462 89.8278 26.3627C115.937 17.8791 144.063 17.8791 170.172 26.3627L130 150Z" fill="url(#paint3_linear_55_189)"/>
<path d="M130 150L170.172 26.3627C196.282 34.8462 219.036 51.3777 235.172 73.5879C251.309 95.7981 260 122.547 260 150H130Z" fill="url(#paint4_linear_55_189)"/>
<path d="M130 215C165.899 215 195 185.899 195 150C195 114.101 165.899 85 130 85C94.1015 85 65 114.101 65 150C65 185.899 94.1015 215 130 215Z" fill="white"/>
<path d="M121.56 137.328C122.051 137.2 122.787 137.168 123.768 137.232C124.749 137.275 125.432 137.392 125.816 137.584C126.008 137.669 126.2 137.733 126.392 137.776C126.797 137.904 127.085 138.107 127.256 138.384C127.448 138.661 127.544 139.067 127.544 139.6C127.544 139.984 127.523 140.229 127.48 140.336C127.459 140.421 127.373 140.539 127.224 140.688C126.605 141.285 125.912 141.371 125.144 140.944C124.824 140.773 124.557 140.688 124.344 140.688C124.152 140.667 123.992 140.613 123.864 140.528C123.715 140.464 123.523 140.443 123.288 140.464C123.053 140.464 122.861 140.496 122.712 140.56C122.584 140.624 122.445 140.677 122.296 140.72C122.147 140.741 121.901 140.859 121.56 141.072C121.219 141.264 120.963 141.424 120.792 141.552C120.493 141.829 120.376 142.256 120.44 142.832C120.525 143.387 120.771 143.899 121.176 144.368C121.283 144.475 121.336 144.56 121.336 144.624C121.4 144.731 121.752 145.019 122.392 145.488C123.032 145.936 123.587 146.299 124.056 146.576C125.059 147.131 125.837 147.717 126.392 148.336C126.456 148.4 126.509 148.464 126.552 148.528C126.595 148.571 126.627 148.613 126.648 148.656C126.691 148.677 126.712 148.688 126.712 148.688C126.883 148.837 127.107 149.168 127.384 149.68C127.683 150.171 127.832 150.48 127.832 150.608C127.832 150.672 127.885 150.811 127.992 151.024C128.099 151.237 128.163 151.44 128.184 151.632C128.205 151.803 128.259 152.048 128.344 152.368C128.813 154.032 128.248 155.568 126.648 156.976C126.541 157.083 126.211 157.275 125.656 157.552C125.101 157.808 124.728 157.957 124.536 158C124.344 158.043 124.152 158.107 123.96 158.192C123.512 158.384 122.637 158.491 121.336 158.512C120.056 158.533 119.299 158.448 119.064 158.256C119.021 158.213 118.883 158.16 118.648 158.096C118.029 157.861 117.229 157.264 116.248 156.304C115.885 155.963 115.661 155.739 115.576 155.632C115.512 155.525 115.459 155.355 115.416 155.12C115.245 154.501 115.299 153.989 115.576 153.584C115.853 153.179 116.248 152.987 116.76 153.008C117.272 153.008 117.784 153.232 118.296 153.68C119.747 155.003 120.867 155.515 121.656 155.216C121.827 155.152 122.104 155.088 122.488 155.024C123.341 154.896 124.109 154.597 124.792 154.128C124.877 154.064 124.931 153.861 124.952 153.52C124.973 153.179 124.963 152.837 124.92 152.496C124.856 152.091 124.696 151.675 124.44 151.248C124.184 150.821 123.885 150.48 123.544 150.224C123.224 149.989 122.669 149.648 121.88 149.2C121.155 148.773 120.632 148.453 120.312 148.24C120.013 148.027 119.651 147.696 119.224 147.248C118.648 146.693 118.275 146.288 118.104 146.032C117.677 145.349 117.432 144.848 117.368 144.528C117.347 144.379 117.283 144.197 117.176 143.984C117.048 143.771 116.984 143.312 116.984 142.608C116.984 141.904 117.037 141.467 117.144 141.296C117.251 141.168 117.325 140.976 117.368 140.72C117.432 140.421 117.592 140.069 117.848 139.664C118.125 139.237 118.349 138.981 118.52 138.896C118.627 138.832 118.808 138.704 119.064 138.512C119.704 138.064 120.195 137.797 120.536 137.712C120.749 137.669 120.909 137.605 121.016 137.52C121.101 137.456 121.283 137.392 121.56 137.328ZM136.013 137.04C136.226 136.976 136.653 136.955 137.293 136.976C137.933 136.997 138.306 137.04 138.413 137.104C138.498 137.168 138.647 137.221 138.861 137.264C139.394 137.392 140.045 137.776 140.813 138.416C141.581 139.056 142.018 139.579 142.125 139.984C142.125 140.091 142.178 140.208 142.285 140.336C142.391 140.485 142.455 140.624 142.477 140.752C142.498 140.859 142.573 141.04 142.701 141.296C142.829 141.552 142.903 141.765 142.925 141.936C142.946 142.085 143.01 142.235 143.117 142.384C143.202 142.512 143.277 142.789 143.341 143.216C143.426 143.664 143.501 143.995 143.565 144.208C143.65 144.443 143.693 145.552 143.693 147.536C143.714 149.52 143.693 150.629 143.629 150.864C143.522 151.163 143.415 151.621 143.309 152.24C143.245 152.603 143.17 152.837 143.085 152.944C143.021 153.051 142.957 153.221 142.893 153.456C142.85 153.648 142.775 153.829 142.669 154C142.583 154.171 142.509 154.341 142.445 154.512C142.402 154.683 142.349 154.789 142.285 154.832C142.242 154.896 142.189 155.003 142.125 155.152C141.997 155.408 141.655 155.856 141.101 156.496C140.781 156.88 140.322 157.275 139.725 157.68C139.127 158.064 138.615 158.309 138.189 158.416C137.933 158.48 137.25 158.512 136.141 158.512C135.031 158.512 134.391 158.469 134.221 158.384C133.965 158.277 133.751 158.192 133.581 158.128C133.026 157.915 132.61 157.691 132.333 157.456C132.269 157.392 132.215 157.36 132.173 157.36C131.917 157.36 131.511 156.944 130.957 156.112C130.402 155.28 130.05 154.565 129.901 153.968C129.837 153.776 129.773 153.605 129.709 153.456C129.623 153.307 129.559 153.051 129.517 152.688C129.474 152.368 129.399 152.112 129.293 151.92C129.207 151.707 129.154 150.736 129.133 149.008C129.111 147.259 129.154 146.245 129.261 145.968C129.346 145.755 129.431 145.349 129.517 144.752C129.602 144.155 129.677 143.792 129.741 143.664C129.805 143.536 129.858 143.333 129.901 143.056C129.965 142.757 130.05 142.48 130.157 142.224C130.263 141.968 130.317 141.819 130.317 141.776C130.317 141.733 130.413 141.52 130.605 141.136C130.797 140.731 130.914 140.517 130.957 140.496C130.978 140.475 131.095 140.315 131.309 140.016C131.458 139.803 131.714 139.515 132.077 139.152C132.439 138.789 132.695 138.565 132.845 138.48C132.994 138.416 133.111 138.341 133.197 138.256C133.453 138.064 133.73 137.883 134.029 137.712C134.178 137.627 134.327 137.541 134.477 137.456C134.626 137.349 134.765 137.296 134.893 137.296C134.999 137.296 135.181 137.264 135.437 137.2C135.479 137.179 135.543 137.157 135.629 137.136C135.714 137.115 135.789 137.093 135.853 137.072C135.938 137.051 135.991 137.04 136.013 137.04ZM137.901 140.784C137.047 140.507 136.13 140.688 135.149 141.328C134.189 141.968 133.623 142.768 133.453 143.728C133.41 143.984 133.346 144.219 133.261 144.432C133.175 144.645 133.111 144.891 133.069 145.168C133.026 145.445 132.973 145.691 132.909 145.904C132.823 146.117 132.77 146.405 132.749 146.768C132.706 147.088 132.653 147.429 132.589 147.792C132.461 148.475 132.471 149.307 132.621 150.288C132.77 151.248 133.015 152.133 133.357 152.944C133.463 153.2 133.516 153.349 133.516 153.392C133.516 153.669 133.741 153.979 134.189 154.32C134.658 154.661 135.17 154.907 135.725 155.056C136.066 155.163 136.311 155.216 136.461 155.216C136.61 155.195 136.845 155.131 137.165 155.024C137.421 154.939 137.751 154.725 138.157 154.384C138.562 154.021 138.829 153.723 138.957 153.488C138.999 153.381 139.063 153.285 139.149 153.2C139.255 153.072 139.437 152.645 139.693 151.92C139.949 151.216 140.087 150.608 140.109 150.096C140.151 149.605 140.194 149.2 140.237 148.88C140.301 148.496 140.333 148.005 140.333 147.408C140.333 146.789 140.301 146.32 140.237 146C140.173 145.616 140.13 145.307 140.109 145.072C140.066 144.709 139.917 144.165 139.661 143.44C139.426 142.715 139.213 142.171 139.021 141.808C138.829 141.488 138.658 141.264 138.509 141.136C138.359 140.987 138.157 140.869 137.901 140.784Z" fill="black"/>
<path d="M19.8887 155V145.694H21.7676V155H19.8887ZM23.0879 151.972L24.916 151.794C25.026 152.408 25.2482 152.859 25.5825 153.146C25.9211 153.434 26.376 153.578 26.9473 153.578C27.5524 153.578 28.0073 153.451 28.312 153.197C28.6209 152.939 28.7754 152.639 28.7754 152.296C28.7754 152.076 28.7098 151.89 28.5786 151.737C28.4517 151.581 28.2274 151.445 27.9058 151.331C27.6857 151.255 27.1842 151.119 26.4014 150.925C25.3942 150.675 24.6875 150.368 24.2812 150.004C23.71 149.492 23.4243 148.868 23.4243 148.132C23.4243 147.658 23.5576 147.216 23.8242 146.805C24.0951 146.39 24.4823 146.075 24.9858 145.859C25.4937 145.644 26.1051 145.536 26.8203 145.536C27.9883 145.536 28.8664 145.792 29.4546 146.304C30.047 146.816 30.3581 147.499 30.3877 148.354L28.5088 148.437C28.4284 147.958 28.2549 147.616 27.9883 147.408C27.7259 147.197 27.3302 147.091 26.8013 147.091C26.2554 147.091 25.828 147.203 25.519 147.427C25.3201 147.571 25.2207 147.764 25.2207 148.005C25.2207 148.225 25.3138 148.413 25.5 148.57C25.737 148.769 26.3125 148.976 27.2266 149.192C28.1406 149.408 28.8156 149.632 29.2515 149.865C29.6916 150.093 30.0343 150.409 30.2798 150.811C30.5295 151.208 30.6543 151.701 30.6543 152.29C30.6543 152.823 30.5062 153.322 30.21 153.788C29.9137 154.253 29.4948 154.6 28.9531 154.829C28.4115 155.053 27.7365 155.165 26.9282 155.165C25.7518 155.165 24.8483 154.894 24.2178 154.353C23.5872 153.807 23.2106 153.013 23.0879 151.972ZM32.2476 155V145.694H38.627V147.269H34.1265V149.471H38.0112V151.045H34.1265V155H32.2476ZM43.54 145.694H45.4126V151.585C45.4126 152.355 45.3449 152.948 45.2095 153.362C45.0275 153.904 44.6974 154.34 44.2192 154.67C43.741 154.996 43.1105 155.159 42.3276 155.159C41.4093 155.159 40.7026 154.903 40.2075 154.391C39.7124 153.874 39.4627 153.119 39.4585 152.125L41.2295 151.921C41.2507 152.455 41.3289 152.831 41.4644 153.051C41.6675 153.386 41.9764 153.553 42.3911 153.553C42.8101 153.553 43.1063 153.434 43.2798 153.197C43.4533 152.956 43.54 152.459 43.54 151.706V145.694Z" fill="white"/>
<path d="M195.889 97V87.6943H197.768V97H195.889ZM199.088 93.9722L200.916 93.7944C201.026 94.408 201.248 94.8587 201.583 95.1465C201.921 95.4342 202.376 95.5781 202.947 95.5781C203.552 95.5781 204.007 95.4512 204.312 95.1973C204.621 94.9391 204.775 94.6387 204.775 94.2959C204.775 94.0758 204.71 93.8896 204.579 93.7373C204.452 93.5807 204.227 93.4453 203.906 93.3311C203.686 93.2549 203.184 93.1195 202.401 92.9248C201.394 92.6751 200.688 92.3683 200.281 92.0044C199.71 91.4924 199.424 90.8682 199.424 90.1318C199.424 89.6579 199.558 89.2157 199.824 88.8052C200.095 88.3905 200.482 88.0752 200.986 87.8594C201.494 87.6436 202.105 87.5356 202.82 87.5356C203.988 87.5356 204.866 87.7917 205.455 88.3037C206.047 88.8158 206.358 89.4992 206.388 90.354L204.509 90.4365C204.428 89.9583 204.255 89.6156 203.988 89.4082C203.726 89.1966 203.33 89.0908 202.801 89.0908C202.255 89.0908 201.828 89.203 201.519 89.4272C201.32 89.5711 201.221 89.7637 201.221 90.0049C201.221 90.2249 201.314 90.4132 201.5 90.5698C201.737 90.7687 202.312 90.9761 203.227 91.1919C204.141 91.4077 204.816 91.632 205.251 91.8647C205.692 92.0933 206.034 92.4085 206.28 92.8105C206.529 93.2083 206.654 93.7013 206.654 94.2896C206.654 94.8228 206.506 95.3221 206.21 95.7876C205.914 96.2531 205.495 96.6001 204.953 96.8286C204.411 97.0529 203.736 97.165 202.928 97.165C201.752 97.165 200.848 96.8942 200.218 96.3525C199.587 95.8066 199.211 95.0132 199.088 93.9722ZM210.33 97V89.2686H207.568V87.6943H214.963V89.2686H212.208V97H210.33ZM219.54 87.6943H221.413V93.585C221.413 94.3551 221.345 94.9476 221.209 95.3623C221.028 95.904 220.697 96.3398 220.219 96.6699C219.741 96.9958 219.111 97.1587 218.328 97.1587C217.409 97.1587 216.703 96.9027 216.208 96.3906C215.712 95.8743 215.463 95.119 215.458 94.1245L217.229 93.9214C217.251 94.4546 217.329 94.8312 217.464 95.0513C217.667 95.3856 217.976 95.5527 218.391 95.5527C218.81 95.5527 219.106 95.4342 219.28 95.1973C219.453 94.9561 219.54 94.4588 219.54 93.7056V87.6943Z" fill="white"/>
<path d="M82.8887 245V235.694H84.7676V245H82.8887ZM86.583 245V235.694H88.4111L92.2197 241.909V235.694H93.9653V245H92.0801L88.3286 238.932V245H86.583ZM98.0532 245V237.269H95.292V235.694H102.687V237.269H99.9321V245H98.0532ZM103.906 245V235.694H106.921C108.063 235.694 108.808 235.741 109.155 235.834C109.688 235.974 110.135 236.278 110.495 236.748C110.854 237.214 111.034 237.817 111.034 238.557C111.034 239.128 110.931 239.609 110.723 239.998C110.516 240.387 110.251 240.694 109.93 240.918C109.612 241.139 109.289 241.285 108.958 241.356C108.51 241.445 107.86 241.49 107.01 241.49H105.785V245H103.906ZM105.785 237.269V239.909H106.813C107.554 239.909 108.049 239.861 108.298 239.763C108.548 239.666 108.743 239.514 108.882 239.306C109.026 239.099 109.098 238.858 109.098 238.583C109.098 238.244 108.999 237.965 108.8 237.745C108.601 237.525 108.349 237.387 108.044 237.332C107.82 237.29 107.369 237.269 106.692 237.269H105.785Z" fill="white"/>
<path d="M82.8887 64V54.6943H84.7676V64H82.8887ZM86.583 64V54.6943H88.4111L92.2197 60.9087V54.6943H93.9653V64H92.0801L88.3286 57.9316V64H86.583ZM95.9712 64V54.6943H102.351V56.2686H97.8501V58.4712H101.735V60.0454H97.8501V64H95.9712ZM103.906 64V54.6943H106.921C108.063 54.6943 108.808 54.7409 109.155 54.834C109.688 54.9736 110.135 55.2783 110.495 55.748C110.854 56.2135 111.034 56.8166 111.034 57.5571C111.034 58.1284 110.931 58.6087 110.723 58.998C110.516 59.3874 110.251 59.6942 109.93 59.9185C109.612 60.1385 109.289 60.2845 108.958 60.3564C108.51 60.4453 107.86 60.4897 107.01 60.4897H105.785V64H103.906ZM105.785 56.2686V58.9092H106.813C107.554 58.9092 108.049 58.8605 108.298 58.7632C108.548 58.6659 108.743 58.5135 108.882 58.3062C109.026 58.0988 109.098 57.8576 109.098 57.5825C109.098 57.244 108.999 56.9647 108.8 56.7446C108.601 56.5246 108.349 56.387 108.044 56.332C107.82 56.2897 107.369 56.2686 106.692 56.2686H105.785Z" fill="white"/>
<path d="M195.946 207V197.694H202.846V199.269H197.825V201.332H202.497V202.899H197.825V205.432H203.023V207H195.946ZM204.636 207V197.694H206.464L210.272 203.909V197.694H212.018V207H210.133L206.381 200.932V207H204.636ZM216.106 207V199.269H213.345V197.694H220.74V199.269H217.985V207H216.106ZM221.958 207V197.694H224.974C226.116 197.694 226.861 197.741 227.208 197.834C227.741 197.974 228.188 198.278 228.547 198.748C228.907 199.214 229.087 199.817 229.087 200.557C229.087 201.128 228.983 201.609 228.776 201.998C228.569 202.387 228.304 202.694 227.982 202.918C227.665 203.139 227.341 203.285 227.011 203.356C226.563 203.445 225.913 203.49 225.062 203.49H223.837V207H221.958ZM223.837 199.269V201.909H224.866C225.606 201.909 226.101 201.861 226.351 201.763C226.601 201.666 226.795 201.514 226.935 201.306C227.079 201.099 227.151 200.858 227.151 200.583C227.151 200.244 227.051 199.965 226.853 199.745C226.654 199.525 226.402 199.387 226.097 199.332C225.873 199.29 225.422 199.269 224.745 199.269H223.837Z" fill="white"/>
<path d="M317 84H303C301.343 84 300 85.3431 300 87V101C300 102.657 301.343 104 303 104H317C318.657 104 320 102.657 320 101V87C320 85.3431 318.657 84 317 84Z" fill="url(#paint5_linear_55_189)"/>
<path d="M325.949 98V89.4102H332.16V90.4238H327.086V93.0547H331.838V94.0625H327.086V96.9863H332.359V98H325.949ZM333.918 98V89.4102H335.084L339.596 96.1543V89.4102H340.686V98H339.52L335.008 91.25V98H333.918ZM344.787 98V90.4238H341.957V89.4102H348.766V90.4238H345.924V98H344.787ZM349.938 98V89.4102H353.178C353.748 89.4102 354.184 89.4375 354.484 89.4922C354.906 89.5625 355.26 89.6973 355.545 89.8965C355.83 90.0918 356.059 90.3672 356.23 90.7227C356.406 91.0781 356.494 91.4688 356.494 91.8945C356.494 92.625 356.262 93.2441 355.797 93.752C355.332 94.2559 354.492 94.5078 353.277 94.5078H351.074V98H349.938ZM351.074 93.4941H353.295C354.029 93.4941 354.551 93.3574 354.859 93.084C355.168 92.8105 355.322 92.4258 355.322 91.9297C355.322 91.5703 355.23 91.2637 355.047 91.0098C354.867 90.752 354.629 90.582 354.332 90.5C354.141 90.4492 353.787 90.4238 353.271 90.4238H351.074V93.4941ZM358.1 92.9785V91.7773H359.301V92.9785H358.1ZM358.1 98V96.7988H359.301V98H358.1ZM368.166 98H367.111V91.2793C366.857 91.5215 366.523 91.7637 366.109 92.0059C365.699 92.248 365.33 92.4297 365.002 92.5508V91.5312C365.592 91.2539 366.107 90.918 366.549 90.5234C366.99 90.1289 367.303 89.7461 367.486 89.375H368.166V98ZM376.147 89.84H379.279V90.644H376.147V89.84ZM376.147 91.988H379.303V92.804H376.147V91.988ZM378.907 88.076H379.903V94.496H378.907V88.076ZM371.479 88.904H376.423V93.728H371.479V88.904ZM375.451 89.708H372.451V92.924H375.451V89.708ZM376.327 94.82C377.447 94.82 378.327 95 378.967 95.36C379.615 95.72 379.939 96.224 379.939 96.872C379.939 97.52 379.615 98.02 378.967 98.372C378.327 98.732 377.447 98.912 376.327 98.912C375.207 98.912 374.323 98.732 373.675 98.372C373.035 98.02 372.715 97.52 372.715 96.872C372.715 96.224 373.035 95.72 373.675 95.36C374.323 95 375.207 94.82 376.327 94.82ZM376.327 95.6C375.783 95.6 375.315 95.652 374.923 95.756C374.531 95.852 374.227 95.996 374.011 96.188C373.803 96.372 373.699 96.6 373.699 96.872C373.699 97.128 373.803 97.352 374.011 97.544C374.227 97.728 374.531 97.872 374.923 97.976C375.315 98.08 375.783 98.132 376.327 98.132C376.879 98.132 377.347 98.08 377.731 97.976C378.123 97.872 378.423 97.728 378.631 97.544C378.847 97.352 378.955 97.128 378.955 96.872C378.955 96.6 378.847 96.372 378.631 96.188C378.423 95.996 378.123 95.852 377.731 95.756C377.347 95.652 376.879 95.6 376.327 95.6ZM387.561 100.525C386.979 99.791 386.486 98.9316 386.084 97.9473C385.682 96.9629 385.48 95.9434 385.48 94.8887C385.48 93.959 385.631 93.0684 385.932 92.2168C386.283 91.2285 386.826 90.2441 387.561 89.2637H388.316C387.844 90.0762 387.531 90.6562 387.379 91.0039C387.141 91.543 386.953 92.1055 386.816 92.6914C386.648 93.4219 386.564 94.1562 386.564 94.8945C386.564 96.7734 387.148 98.6504 388.316 100.525H387.561ZM394.791 96.9863V98H389.113C389.105 97.7461 389.146 97.502 389.236 97.2676C389.381 96.8809 389.611 96.5 389.928 96.125C390.248 95.75 390.709 95.3164 391.311 94.8242C392.244 94.0586 392.875 93.4531 393.203 93.0078C393.531 92.5586 393.695 92.1348 393.695 91.7363C393.695 91.3184 393.545 90.9668 393.244 90.6816C392.947 90.3926 392.559 90.248 392.078 90.248C391.57 90.248 391.164 90.4004 390.859 90.7051C390.555 91.0098 390.4 91.4316 390.396 91.9707L389.312 91.8594C389.387 91.0508 389.666 90.4355 390.15 90.0137C390.635 89.5879 391.285 89.375 392.102 89.375C392.926 89.375 393.578 89.6035 394.059 90.0605C394.539 90.5176 394.779 91.084 394.779 91.7598C394.779 92.1035 394.709 92.4414 394.568 92.7734C394.428 93.1055 394.193 93.4551 393.865 93.8223C393.541 94.1895 393 94.6934 392.242 95.334C391.609 95.8652 391.203 96.2266 391.023 96.418C390.844 96.6055 390.695 96.7949 390.578 96.9863H394.791ZM395.928 93.7637C395.928 92.748 396.031 91.9316 396.238 91.3145C396.449 90.6934 396.76 90.2148 397.17 89.8789C397.584 89.543 398.104 89.375 398.729 89.375C399.189 89.375 399.594 89.4688 399.941 89.6562C400.289 89.8398 400.576 90.1074 400.803 90.459C401.029 90.8066 401.207 91.2324 401.336 91.7363C401.465 92.2363 401.529 92.9121 401.529 93.7637C401.529 94.7715 401.426 95.5859 401.219 96.207C401.012 96.8242 400.701 97.3027 400.287 97.6426C399.877 97.9785 399.357 98.1465 398.729 98.1465C397.9 98.1465 397.25 97.8496 396.777 97.2559C396.211 96.541 395.928 95.377 395.928 93.7637ZM397.012 93.7637C397.012 95.1738 397.176 96.1133 397.504 96.582C397.836 97.0469 398.244 97.2793 398.729 97.2793C399.213 97.2793 399.619 97.0449 399.947 96.5762C400.279 96.1074 400.445 95.1699 400.445 93.7637C400.445 92.3496 400.279 91.4102 399.947 90.9453C399.619 90.4805 399.209 90.248 398.717 90.248C398.232 90.248 397.846 90.4531 397.557 90.8633C397.193 91.3867 397.012 92.3535 397.012 93.7637ZM403.199 98V96.7988H404.4V98H403.199ZM405.947 93.7637C405.947 92.748 406.051 91.9316 406.258 91.3145C406.469 90.6934 406.779 90.2148 407.189 89.8789C407.604 89.543 408.123 89.375 408.748 89.375C409.209 89.375 409.613 89.4688 409.961 89.6562C410.309 89.8398 410.596 90.1074 410.822 90.459C411.049 90.8066 411.227 91.2324 411.355 91.7363C411.484 92.2363 411.549 92.9121 411.549 93.7637C411.549 94.7715 411.445 95.5859 411.238 96.207C411.031 96.8242 410.721 97.3027 410.307 97.6426C409.896 97.9785 409.377 98.1465 408.748 98.1465C407.92 98.1465 407.27 97.8496 406.797 97.2559C406.23 96.541 405.947 95.377 405.947 93.7637ZM407.031 93.7637C407.031 95.1738 407.195 96.1133 407.523 96.582C407.855 97.0469 408.264 97.2793 408.748 97.2793C409.232 97.2793 409.639 97.0449 409.967 96.5762C410.299 96.1074 410.465 95.1699 410.465 93.7637C410.465 92.3496 410.299 91.4102 409.967 90.9453C409.639 90.4805 409.229 90.248 408.736 90.248C408.252 90.248 407.865 90.4531 407.576 90.8633C407.213 91.3867 407.031 92.3535 407.031 93.7637ZM412.826 91.4727C412.826 90.8594 412.98 90.3379 413.289 89.9082C413.598 89.4785 414.045 89.2637 414.631 89.2637C415.17 89.2637 415.615 89.457 415.967 89.8438C416.322 90.2266 416.5 90.791 416.5 91.5371C416.5 92.2637 416.32 92.8242 415.961 93.2188C415.605 93.6094 415.166 93.8047 414.643 93.8047C414.123 93.8047 413.689 93.6113 413.342 93.2246C412.998 92.8379 412.826 92.2539 412.826 91.4727ZM414.66 89.9902C414.398 89.9902 414.18 90.1035 414.004 90.3301C413.832 90.5566 413.746 90.9727 413.746 91.5781C413.746 92.1289 413.834 92.5176 414.01 92.7441C414.186 92.9668 414.402 93.0781 414.66 93.0781C414.926 93.0781 415.145 92.9648 415.316 92.7383C415.492 92.5117 415.58 92.0977 415.58 91.4961C415.58 90.9414 415.492 90.5527 415.316 90.3301C415.141 90.1035 414.922 89.9902 414.66 89.9902ZM414.666 98.3164L419.365 89.2637H420.221L415.539 98.3164H414.666ZM418.381 95.9844C418.381 95.3672 418.535 94.8457 418.844 94.4199C419.152 93.9902 419.602 93.7754 420.191 93.7754C420.73 93.7754 421.176 93.9688 421.527 94.3555C421.883 94.7383 422.061 95.3027 422.061 96.0488C422.061 96.7754 421.881 97.3359 421.521 97.7305C421.166 98.1211 420.725 98.3164 420.197 98.3164C419.678 98.3164 419.244 98.123 418.896 97.7363C418.553 97.3457 418.381 96.7617 418.381 95.9844ZM420.221 94.502C419.955 94.502 419.734 94.6152 419.559 94.8418C419.387 95.0684 419.301 95.4844 419.301 96.0898C419.301 96.6367 419.389 97.0234 419.564 97.25C419.74 97.4766 419.957 97.5898 420.215 97.5898C420.484 97.5898 420.705 97.4766 420.877 97.25C421.053 97.0234 421.141 96.6094 421.141 96.0078C421.141 95.4531 421.053 95.0645 420.877 94.8418C420.701 94.6152 420.482 94.502 420.221 94.502ZM424.287 100.525H423.531C424.699 98.6504 425.283 96.7734 425.283 94.8945C425.283 94.1602 425.199 93.4316 425.031 92.709C424.898 92.123 424.713 91.5605 424.475 91.0215C424.322 90.6699 424.008 90.084 423.531 89.2637H424.287C425.021 90.2441 425.564 91.2285 425.916 92.2168C426.217 93.0684 426.367 93.959 426.367 94.8887C426.367 95.9434 426.164 96.9629 425.758 97.9473C425.355 98.9316 424.865 99.791 424.287 100.525Z" fill="black"/>
<path d="M317 112H303C301.343 112 300 113.343 300 115V129C300 130.657 301.343 132 303 132H317C318.657 132 320 130.657 320 129V115C320 113.343 318.657 112 317 112Z" fill="url(#paint6_linear_55_189)"/>
<path d="M326.119 126V117.41H327.256V126H326.119ZM329.254 126V117.41H330.42L334.932 124.154V117.41H336.021V126H334.855L330.344 119.25V126H329.254ZM337.996 126V117.41H343.791V118.424H339.133V121.084H343.164V122.098H339.133V126H337.996ZM345.273 126V117.41H348.514C349.084 117.41 349.52 117.438 349.82 117.492C350.242 117.562 350.596 117.697 350.881 117.896C351.166 118.092 351.395 118.367 351.566 118.723C351.742 119.078 351.83 119.469 351.83 119.895C351.83 120.625 351.598 121.244 351.133 121.752C350.668 122.256 349.828 122.508 348.613 122.508H346.41V126H345.273ZM346.41 121.494H348.631C349.365 121.494 349.887 121.357 350.195 121.084C350.504 120.811 350.658 120.426 350.658 119.93C350.658 119.57 350.566 119.264 350.383 119.01C350.203 118.752 349.965 118.582 349.668 118.5C349.477 118.449 349.123 118.424 348.607 118.424H346.41V121.494ZM353.436 120.979V119.777H354.637V120.979H353.436ZM353.436 126V124.799H354.637V126H353.436ZM363.502 126H362.447V119.279C362.193 119.521 361.859 119.764 361.445 120.006C361.035 120.248 360.666 120.43 360.338 120.551V119.531C360.928 119.254 361.443 118.918 361.885 118.523C362.326 118.129 362.639 117.746 362.822 117.375H363.502V126ZM371.483 117.84H374.615V118.644H371.483V117.84ZM371.483 119.988H374.639V120.804H371.483V119.988ZM374.243 116.076H375.239V122.496H374.243V116.076ZM366.815 116.904H371.759V121.728H366.815V116.904ZM370.787 117.708H367.787V120.924H370.787V117.708ZM371.663 122.82C372.783 122.82 373.663 123 374.303 123.36C374.951 123.72 375.275 124.224 375.275 124.872C375.275 125.52 374.951 126.02 374.303 126.372C373.663 126.732 372.783 126.912 371.663 126.912C370.543 126.912 369.659 126.732 369.011 126.372C368.371 126.02 368.051 125.52 368.051 124.872C368.051 124.224 368.371 123.72 369.011 123.36C369.659 123 370.543 122.82 371.663 122.82ZM371.663 123.6C371.119 123.6 370.651 123.652 370.259 123.756C369.867 123.852 369.563 123.996 369.347 124.188C369.139 124.372 369.035 124.6 369.035 124.872C369.035 125.128 369.139 125.352 369.347 125.544C369.563 125.728 369.867 125.872 370.259 125.976C370.651 126.08 371.119 126.132 371.663 126.132C372.215 126.132 372.683 126.08 373.067 125.976C373.459 125.872 373.759 125.728 373.967 125.544C374.183 125.352 374.291 125.128 374.291 124.872C374.291 124.6 374.183 124.372 373.967 124.188C373.759 123.996 373.459 123.852 373.067 123.756C372.683 123.652 372.215 123.6 371.663 123.6ZM382.896 128.525C382.314 127.791 381.822 126.932 381.42 125.947C381.018 124.963 380.816 123.943 380.816 122.889C380.816 121.959 380.967 121.068 381.268 120.217C381.619 119.229 382.162 118.244 382.896 117.264H383.652C383.18 118.076 382.867 118.656 382.715 119.004C382.477 119.543 382.289 120.105 382.152 120.691C381.984 121.422 381.9 122.156 381.9 122.895C381.9 124.773 382.484 126.65 383.652 128.525H382.896ZM390.127 124.986V126H384.449C384.441 125.746 384.482 125.502 384.572 125.268C384.717 124.881 384.947 124.5 385.264 124.125C385.584 123.75 386.045 123.316 386.646 122.824C387.58 122.059 388.211 121.453 388.539 121.008C388.867 120.559 389.031 120.135 389.031 119.736C389.031 119.318 388.881 118.967 388.58 118.682C388.283 118.393 387.895 118.248 387.414 118.248C386.906 118.248 386.5 118.4 386.195 118.705C385.891 119.01 385.736 119.432 385.732 119.971L384.648 119.859C384.723 119.051 385.002 118.436 385.486 118.014C385.971 117.588 386.621 117.375 387.438 117.375C388.262 117.375 388.914 117.604 389.395 118.061C389.875 118.518 390.115 119.084 390.115 119.76C390.115 120.104 390.045 120.441 389.904 120.773C389.764 121.105 389.529 121.455 389.201 121.822C388.877 122.189 388.336 122.693 387.578 123.334C386.945 123.865 386.539 124.227 386.359 124.418C386.18 124.605 386.031 124.795 385.914 124.986H390.127ZM391.264 121.764C391.264 120.748 391.367 119.932 391.574 119.314C391.785 118.693 392.096 118.215 392.506 117.879C392.92 117.543 393.439 117.375 394.064 117.375C394.525 117.375 394.93 117.469 395.277 117.656C395.625 117.84 395.912 118.107 396.139 118.459C396.365 118.807 396.543 119.232 396.672 119.736C396.801 120.236 396.865 120.912 396.865 121.764C396.865 122.771 396.762 123.586 396.555 124.207C396.348 124.824 396.037 125.303 395.623 125.643C395.213 125.979 394.693 126.146 394.064 126.146C393.236 126.146 392.586 125.85 392.113 125.256C391.547 124.541 391.264 123.377 391.264 121.764ZM392.348 121.764C392.348 123.174 392.512 124.113 392.84 124.582C393.172 125.047 393.58 125.279 394.064 125.279C394.549 125.279 394.955 125.045 395.283 124.576C395.615 124.107 395.781 123.17 395.781 121.764C395.781 120.35 395.615 119.41 395.283 118.945C394.955 118.48 394.545 118.248 394.053 118.248C393.568 118.248 393.182 118.453 392.893 118.863C392.529 119.387 392.348 120.354 392.348 121.764ZM398.535 126V124.799H399.736V126H398.535ZM401.283 121.764C401.283 120.748 401.387 119.932 401.594 119.314C401.805 118.693 402.115 118.215 402.525 117.879C402.939 117.543 403.459 117.375 404.084 117.375C404.545 117.375 404.949 117.469 405.297 117.656C405.645 117.84 405.932 118.107 406.158 118.459C406.385 118.807 406.562 119.232 406.691 119.736C406.82 120.236 406.885 120.912 406.885 121.764C406.885 122.771 406.781 123.586 406.574 124.207C406.367 124.824 406.057 125.303 405.643 125.643C405.232 125.979 404.713 126.146 404.084 126.146C403.256 126.146 402.605 125.85 402.133 125.256C401.566 124.541 401.283 123.377 401.283 121.764ZM402.367 121.764C402.367 123.174 402.531 124.113 402.859 124.582C403.191 125.047 403.6 125.279 404.084 125.279C404.568 125.279 404.975 125.045 405.303 124.576C405.635 124.107 405.801 123.17 405.801 121.764C405.801 120.35 405.635 119.41 405.303 118.945C404.975 118.48 404.564 118.248 404.072 118.248C403.588 118.248 403.201 118.453 402.912 118.863C402.549 119.387 402.367 120.354 402.367 121.764ZM408.162 119.473C408.162 118.859 408.316 118.338 408.625 117.908C408.934 117.479 409.381 117.264 409.967 117.264C410.506 117.264 410.951 117.457 411.303 117.844C411.658 118.227 411.836 118.791 411.836 119.537C411.836 120.264 411.656 120.824 411.297 121.219C410.941 121.609 410.502 121.805 409.979 121.805C409.459 121.805 409.025 121.611 408.678 121.225C408.334 120.838 408.162 120.254 408.162 119.473ZM409.996 117.99C409.734 117.99 409.516 118.104 409.34 118.33C409.168 118.557 409.082 118.973 409.082 119.578C409.082 120.129 409.17 120.518 409.346 120.744C409.521 120.967 409.738 121.078 409.996 121.078C410.262 121.078 410.48 120.965 410.652 120.738C410.828 120.512 410.916 120.098 410.916 119.496C410.916 118.941 410.828 118.553 410.652 118.33C410.477 118.104 410.258 117.99 409.996 117.99ZM410.002 126.316L414.701 117.264H415.557L410.875 126.316H410.002ZM413.717 123.984C413.717 123.367 413.871 122.846 414.18 122.42C414.488 121.99 414.938 121.775 415.527 121.775C416.066 121.775 416.512 121.969 416.863 122.355C417.219 122.738 417.396 123.303 417.396 124.049C417.396 124.775 417.217 125.336 416.857 125.73C416.502 126.121 416.061 126.316 415.533 126.316C415.014 126.316 414.58 126.123 414.232 125.736C413.889 125.346 413.717 124.762 413.717 123.984ZM415.557 122.502C415.291 122.502 415.07 122.615 414.895 122.842C414.723 123.068 414.637 123.484 414.637 124.09C414.637 124.637 414.725 125.023 414.9 125.25C415.076 125.477 415.293 125.59 415.551 125.59C415.82 125.59 416.041 125.477 416.213 125.25C416.389 125.023 416.477 124.609 416.477 124.008C416.477 123.453 416.389 123.064 416.213 122.842C416.037 122.615 415.818 122.502 415.557 122.502ZM419.623 128.525H418.867C420.035 126.65 420.619 124.773 420.619 122.895C420.619 122.16 420.535 121.432 420.367 120.709C420.234 120.123 420.049 119.561 419.811 119.021C419.658 118.67 419.344 118.084 418.867 117.264H419.623C420.357 118.244 420.9 119.229 421.252 120.217C421.553 121.068 421.703 121.959 421.703 122.889C421.703 123.943 421.5 124.963 421.094 125.947C420.691 126.932 420.201 127.791 419.623 128.525Z" fill="black"/>
<path d="M317 140H303C301.343 140 300 141.343 300 143V157C300 158.657 301.343 160 303 160H317C318.657 160 320 158.657 320 157V143C320 141.343 318.657 140 317 140Z" fill="url(#paint7_linear_55_189)"/>
<path d="M326.119 154V145.41H327.256V154H326.119ZM329.254 154V145.41H330.42L334.932 152.154V145.41H336.021V154H334.855L330.344 147.25V154H329.254ZM340.123 154V146.424H337.293V145.41H344.102V146.424H341.26V154H340.123ZM345.273 154V145.41H348.514C349.084 145.41 349.52 145.438 349.82 145.492C350.242 145.562 350.596 145.697 350.881 145.896C351.166 146.092 351.395 146.367 351.566 146.723C351.742 147.078 351.83 147.469 351.83 147.895C351.83 148.625 351.598 149.244 351.133 149.752C350.668 150.256 349.828 150.508 348.613 150.508H346.41V154H345.273ZM346.41 149.494H348.631C349.365 149.494 349.887 149.357 350.195 149.084C350.504 148.811 350.658 148.426 350.658 147.93C350.658 147.57 350.566 147.264 350.383 147.01C350.203 146.752 349.965 146.582 349.668 146.5C349.477 146.449 349.123 146.424 348.607 146.424H346.41V149.494ZM353.436 148.979V147.777H354.637V148.979H353.436ZM353.436 154V152.799H354.637V154H353.436ZM363.502 154H362.447V147.279C362.193 147.521 361.859 147.764 361.445 148.006C361.035 148.248 360.666 148.43 360.338 148.551V147.531C360.928 147.254 361.443 146.918 361.885 146.523C362.326 146.129 362.639 145.746 362.822 145.375H363.502V154ZM371.483 145.84H374.615V146.644H371.483V145.84ZM371.483 147.988H374.639V148.804H371.483V147.988ZM374.243 144.076H375.239V150.496H374.243V144.076ZM366.815 144.904H371.759V149.728H366.815V144.904ZM370.787 145.708H367.787V148.924H370.787V145.708ZM371.663 150.82C372.783 150.82 373.663 151 374.303 151.36C374.951 151.72 375.275 152.224 375.275 152.872C375.275 153.52 374.951 154.02 374.303 154.372C373.663 154.732 372.783 154.912 371.663 154.912C370.543 154.912 369.659 154.732 369.011 154.372C368.371 154.02 368.051 153.52 368.051 152.872C368.051 152.224 368.371 151.72 369.011 151.36C369.659 151 370.543 150.82 371.663 150.82ZM371.663 151.6C371.119 151.6 370.651 151.652 370.259 151.756C369.867 151.852 369.563 151.996 369.347 152.188C369.139 152.372 369.035 152.6 369.035 152.872C369.035 153.128 369.139 153.352 369.347 153.544C369.563 153.728 369.867 153.872 370.259 153.976C370.651 154.08 371.119 154.132 371.663 154.132C372.215 154.132 372.683 154.08 373.067 153.976C373.459 153.872 373.759 153.728 373.967 153.544C374.183 153.352 374.291 153.128 374.291 152.872C374.291 152.6 374.183 152.372 373.967 152.188C373.759 151.996 373.459 151.852 373.067 151.756C372.683 151.652 372.215 151.6 371.663 151.6ZM382.896 156.525C382.314 155.791 381.822 154.932 381.42 153.947C381.018 152.963 380.816 151.943 380.816 150.889C380.816 149.959 380.967 149.068 381.268 148.217C381.619 147.229 382.162 146.244 382.896 145.264H383.652C383.18 146.076 382.867 146.656 382.715 147.004C382.477 147.543 382.289 148.105 382.152 148.691C381.984 149.422 381.9 150.156 381.9 150.895C381.9 152.773 382.484 154.65 383.652 156.525H382.896ZM390.127 152.986V154H384.449C384.441 153.746 384.482 153.502 384.572 153.268C384.717 152.881 384.947 152.5 385.264 152.125C385.584 151.75 386.045 151.316 386.646 150.824C387.58 150.059 388.211 149.453 388.539 149.008C388.867 148.559 389.031 148.135 389.031 147.736C389.031 147.318 388.881 146.967 388.58 146.682C388.283 146.393 387.895 146.248 387.414 146.248C386.906 146.248 386.5 146.4 386.195 146.705C385.891 147.01 385.736 147.432 385.732 147.971L384.648 147.859C384.723 147.051 385.002 146.436 385.486 146.014C385.971 145.588 386.621 145.375 387.438 145.375C388.262 145.375 388.914 145.604 389.395 146.061C389.875 146.518 390.115 147.084 390.115 147.76C390.115 148.104 390.045 148.441 389.904 148.773C389.764 149.105 389.529 149.455 389.201 149.822C388.877 150.189 388.336 150.693 387.578 151.334C386.945 151.865 386.539 152.227 386.359 152.418C386.18 152.605 386.031 152.795 385.914 152.986H390.127ZM391.264 149.764C391.264 148.748 391.367 147.932 391.574 147.314C391.785 146.693 392.096 146.215 392.506 145.879C392.92 145.543 393.439 145.375 394.064 145.375C394.525 145.375 394.93 145.469 395.277 145.656C395.625 145.84 395.912 146.107 396.139 146.459C396.365 146.807 396.543 147.232 396.672 147.736C396.801 148.236 396.865 148.912 396.865 149.764C396.865 150.771 396.762 151.586 396.555 152.207C396.348 152.824 396.037 153.303 395.623 153.643C395.213 153.979 394.693 154.146 394.064 154.146C393.236 154.146 392.586 153.85 392.113 153.256C391.547 152.541 391.264 151.377 391.264 149.764ZM392.348 149.764C392.348 151.174 392.512 152.113 392.84 152.582C393.172 153.047 393.58 153.279 394.064 153.279C394.549 153.279 394.955 153.045 395.283 152.576C395.615 152.107 395.781 151.17 395.781 149.764C395.781 148.35 395.615 147.41 395.283 146.945C394.955 146.48 394.545 146.248 394.053 146.248C393.568 146.248 393.182 146.453 392.893 146.863C392.529 147.387 392.348 148.354 392.348 149.764ZM398.535 154V152.799H399.736V154H398.535ZM401.283 149.764C401.283 148.748 401.387 147.932 401.594 147.314C401.805 146.693 402.115 146.215 402.525 145.879C402.939 145.543 403.459 145.375 404.084 145.375C404.545 145.375 404.949 145.469 405.297 145.656C405.645 145.84 405.932 146.107 406.158 146.459C406.385 146.807 406.562 147.232 406.691 147.736C406.82 148.236 406.885 148.912 406.885 149.764C406.885 150.771 406.781 151.586 406.574 152.207C406.367 152.824 406.057 153.303 405.643 153.643C405.232 153.979 404.713 154.146 404.084 154.146C403.256 154.146 402.605 153.85 402.133 153.256C401.566 152.541 401.283 151.377 401.283 149.764ZM402.367 149.764C402.367 151.174 402.531 152.113 402.859 152.582C403.191 153.047 403.6 153.279 404.084 153.279C404.568 153.279 404.975 153.045 405.303 152.576C405.635 152.107 405.801 151.17 405.801 149.764C405.801 148.35 405.635 147.41 405.303 146.945C404.975 146.48 404.564 146.248 404.072 146.248C403.588 146.248 403.201 146.453 402.912 146.863C402.549 147.387 402.367 148.354 402.367 149.764ZM408.162 147.473C408.162 146.859 408.316 146.338 408.625 145.908C408.934 145.479 409.381 145.264 409.967 145.264C410.506 145.264 410.951 145.457 411.303 145.844C411.658 146.227 411.836 146.791 411.836 147.537C411.836 148.264 411.656 148.824 411.297 149.219C410.941 149.609 410.502 149.805 409.979 149.805C409.459 149.805 409.025 149.611 408.678 149.225C408.334 148.838 408.162 148.254 408.162 147.473ZM409.996 145.99C409.734 145.99 409.516 146.104 409.34 146.33C409.168 146.557 409.082 146.973 409.082 147.578C409.082 148.129 409.17 148.518 409.346 148.744C409.521 148.967 409.738 149.078 409.996 149.078C410.262 149.078 410.48 148.965 410.652 148.738C410.828 148.512 410.916 148.098 410.916 147.496C410.916 146.941 410.828 146.553 410.652 146.33C410.477 146.104 410.258 145.99 409.996 145.99ZM410.002 154.316L414.701 145.264H415.557L410.875 154.316H410.002ZM413.717 151.984C413.717 151.367 413.871 150.846 414.18 150.42C414.488 149.99 414.938 149.775 415.527 149.775C416.066 149.775 416.512 149.969 416.863 150.355C417.219 150.738 417.396 151.303 417.396 152.049C417.396 152.775 417.217 153.336 416.857 153.73C416.502 154.121 416.061 154.316 415.533 154.316C415.014 154.316 414.58 154.123 414.232 153.736C413.889 153.346 413.717 152.762 413.717 151.984ZM415.557 150.502C415.291 150.502 415.07 150.615 414.895 150.842C414.723 151.068 414.637 151.484 414.637 152.09C414.637 152.637 414.725 153.023 414.9 153.25C415.076 153.477 415.293 153.59 415.551 153.59C415.82 153.59 416.041 153.477 416.213 153.25C416.389 153.023 416.477 152.609 416.477 152.008C416.477 151.453 416.389 151.064 416.213 150.842C416.037 150.615 415.818 150.502 415.557 150.502ZM419.623 156.525H418.867C420.035 154.65 420.619 152.773 420.619 150.895C420.619 150.16 420.535 149.432 420.367 148.709C420.234 148.123 420.049 147.561 419.811 147.021C419.658 146.67 419.344 146.084 418.867 145.264H419.623C420.357 146.244 420.9 147.229 421.252 148.217C421.553 149.068 421.703 149.959 421.703 150.889C421.703 151.943 421.5 152.963 421.094 153.947C420.691 154.932 420.201 155.791 419.623 156.525Z" fill="black"/>
<path d="M317 168H303C301.343 168 300 169.343 300 171V185C300 186.657 301.343 188 303 188H317C318.657 188 320 186.657 320 185V171C320 169.343 318.657 168 317 168Z" fill="url(#paint8_linear_55_189)"/>
<path d="M326.119 182V173.41H327.256V182H326.119ZM328.879 179.24L329.951 179.146C330.002 179.576 330.119 179.93 330.303 180.207C330.49 180.48 330.779 180.703 331.17 180.875C331.561 181.043 332 181.127 332.488 181.127C332.922 181.127 333.305 181.062 333.637 180.934C333.969 180.805 334.215 180.629 334.375 180.406C334.539 180.18 334.621 179.934 334.621 179.668C334.621 179.398 334.543 179.164 334.387 178.965C334.23 178.762 333.973 178.592 333.613 178.455C333.383 178.365 332.873 178.227 332.084 178.039C331.295 177.848 330.742 177.668 330.426 177.5C330.016 177.285 329.709 177.02 329.506 176.703C329.307 176.383 329.207 176.025 329.207 175.631C329.207 175.197 329.33 174.793 329.576 174.418C329.822 174.039 330.182 173.752 330.654 173.557C331.127 173.361 331.652 173.264 332.23 173.264C332.867 173.264 333.428 173.367 333.912 173.574C334.4 173.777 334.775 174.078 335.037 174.477C335.299 174.875 335.439 175.326 335.459 175.83L334.369 175.912C334.311 175.369 334.111 174.959 333.771 174.682C333.436 174.404 332.938 174.266 332.277 174.266C331.59 174.266 331.088 174.393 330.771 174.646C330.459 174.896 330.303 175.199 330.303 175.555C330.303 175.863 330.414 176.117 330.637 176.316C330.855 176.516 331.426 176.721 332.348 176.932C333.273 177.139 333.908 177.32 334.252 177.477C334.752 177.707 335.121 178 335.359 178.355C335.598 178.707 335.717 179.113 335.717 179.574C335.717 180.031 335.586 180.463 335.324 180.869C335.062 181.271 334.686 181.586 334.193 181.812C333.705 182.035 333.154 182.146 332.541 182.146C331.764 182.146 331.111 182.033 330.584 181.807C330.061 181.58 329.648 181.24 329.348 180.787C329.051 180.33 328.895 179.814 328.879 179.24ZM337.328 182V173.41H343.123V174.424H338.465V177.084H342.496V178.098H338.465V182H337.328ZM344.025 179.562L345.051 179.422C345.078 180.078 345.201 180.527 345.42 180.77C345.639 181.012 345.941 181.133 346.328 181.133C346.613 181.133 346.859 181.068 347.066 180.939C347.273 180.807 347.416 180.629 347.494 180.406C347.572 180.18 347.611 179.82 347.611 179.328V173.41H348.748V179.264C348.748 179.982 348.66 180.539 348.484 180.934C348.312 181.328 348.037 181.629 347.658 181.836C347.283 182.043 346.842 182.146 346.334 182.146C345.58 182.146 345.002 181.93 344.6 181.496C344.201 181.062 344.01 180.418 344.025 179.562ZM350.764 176.979V175.777H351.965V176.979H350.764ZM350.764 182V180.799H351.965V182H350.764ZM360.83 182H359.775V175.279C359.521 175.521 359.188 175.764 358.773 176.006C358.363 176.248 357.994 176.43 357.666 176.551V175.531C358.256 175.254 358.771 174.918 359.213 174.523C359.654 174.129 359.967 173.746 360.15 173.375H360.83V182ZM368.811 173.84H371.943V174.644H368.811V173.84ZM368.811 175.988H371.967V176.804H368.811V175.988ZM371.571 172.076H372.567V178.496H371.571V172.076ZM364.143 172.904H369.087V177.728H364.143V172.904ZM368.115 173.708H365.115V176.924H368.115V173.708ZM368.991 178.82C370.111 178.82 370.991 179 371.631 179.36C372.279 179.72 372.603 180.224 372.603 180.872C372.603 181.52 372.279 182.02 371.631 182.372C370.991 182.732 370.111 182.912 368.991 182.912C367.871 182.912 366.987 182.732 366.339 182.372C365.699 182.02 365.379 181.52 365.379 180.872C365.379 180.224 365.699 179.72 366.339 179.36C366.987 179 367.871 178.82 368.991 178.82ZM368.991 179.6C368.447 179.6 367.979 179.652 367.587 179.756C367.195 179.852 366.891 179.996 366.675 180.188C366.467 180.372 366.363 180.6 366.363 180.872C366.363 181.128 366.467 181.352 366.675 181.544C366.891 181.728 367.195 181.872 367.587 181.976C367.979 182.08 368.447 182.132 368.991 182.132C369.543 182.132 370.011 182.08 370.395 181.976C370.787 181.872 371.087 181.728 371.295 181.544C371.511 181.352 371.619 181.128 371.619 180.872C371.619 180.6 371.511 180.372 371.295 180.188C371.087 179.996 370.787 179.852 370.395 179.756C370.011 179.652 369.543 179.6 368.991 179.6ZM380.225 184.525C379.643 183.791 379.15 182.932 378.748 181.947C378.346 180.963 378.145 179.943 378.145 178.889C378.145 177.959 378.295 177.068 378.596 176.217C378.947 175.229 379.49 174.244 380.225 173.264H380.98C380.508 174.076 380.195 174.656 380.043 175.004C379.805 175.543 379.617 176.105 379.48 176.691C379.312 177.422 379.229 178.156 379.229 178.895C379.229 180.773 379.812 182.65 380.98 184.525H380.225ZM387.455 180.986V182H381.777C381.77 181.746 381.811 181.502 381.9 181.268C382.045 180.881 382.275 180.5 382.592 180.125C382.912 179.75 383.373 179.316 383.975 178.824C384.908 178.059 385.539 177.453 385.867 177.008C386.195 176.559 386.359 176.135 386.359 175.736C386.359 175.318 386.209 174.967 385.908 174.682C385.611 174.393 385.223 174.248 384.742 174.248C384.234 174.248 383.828 174.4 383.523 174.705C383.219 175.01 383.064 175.432 383.061 175.971L381.977 175.859C382.051 175.051 382.33 174.436 382.814 174.014C383.299 173.588 383.949 173.375 384.766 173.375C385.59 173.375 386.242 173.604 386.723 174.061C387.203 174.518 387.443 175.084 387.443 175.76C387.443 176.104 387.373 176.441 387.232 176.773C387.092 177.105 386.857 177.455 386.529 177.822C386.205 178.189 385.664 178.693 384.906 179.334C384.273 179.865 383.867 180.227 383.688 180.418C383.508 180.605 383.359 180.795 383.242 180.986H387.455ZM388.592 177.764C388.592 176.748 388.695 175.932 388.902 175.314C389.113 174.693 389.424 174.215 389.834 173.879C390.248 173.543 390.768 173.375 391.393 173.375C391.854 173.375 392.258 173.469 392.605 173.656C392.953 173.84 393.24 174.107 393.467 174.459C393.693 174.807 393.871 175.232 394 175.736C394.129 176.236 394.193 176.912 394.193 177.764C394.193 178.771 394.09 179.586 393.883 180.207C393.676 180.824 393.365 181.303 392.951 181.643C392.541 181.979 392.021 182.146 391.393 182.146C390.564 182.146 389.914 181.85 389.441 181.256C388.875 180.541 388.592 179.377 388.592 177.764ZM389.676 177.764C389.676 179.174 389.84 180.113 390.168 180.582C390.5 181.047 390.908 181.279 391.393 181.279C391.877 181.279 392.283 181.045 392.611 180.576C392.943 180.107 393.109 179.17 393.109 177.764C393.109 176.35 392.943 175.41 392.611 174.945C392.283 174.48 391.873 174.248 391.381 174.248C390.896 174.248 390.51 174.453 390.221 174.863C389.857 175.387 389.676 176.354 389.676 177.764ZM395.863 182V180.799H397.064V182H395.863ZM398.611 177.764C398.611 176.748 398.715 175.932 398.922 175.314C399.133 174.693 399.443 174.215 399.854 173.879C400.268 173.543 400.787 173.375 401.412 173.375C401.873 173.375 402.277 173.469 402.625 173.656C402.973 173.84 403.26 174.107 403.486 174.459C403.713 174.807 403.891 175.232 404.02 175.736C404.148 176.236 404.213 176.912 404.213 177.764C404.213 178.771 404.109 179.586 403.902 180.207C403.695 180.824 403.385 181.303 402.971 181.643C402.561 181.979 402.041 182.146 401.412 182.146C400.584 182.146 399.934 181.85 399.461 181.256C398.895 180.541 398.611 179.377 398.611 177.764ZM399.695 177.764C399.695 179.174 399.859 180.113 400.188 180.582C400.52 181.047 400.928 181.279 401.412 181.279C401.896 181.279 402.303 181.045 402.631 180.576C402.963 180.107 403.129 179.17 403.129 177.764C403.129 176.35 402.963 175.41 402.631 174.945C402.303 174.48 401.893 174.248 401.4 174.248C400.916 174.248 400.529 174.453 400.24 174.863C399.877 175.387 399.695 176.354 399.695 177.764ZM405.49 175.473C405.49 174.859 405.645 174.338 405.953 173.908C406.262 173.479 406.709 173.264 407.295 173.264C407.834 173.264 408.279 173.457 408.631 173.844C408.986 174.227 409.164 174.791 409.164 175.537C409.164 176.264 408.984 176.824 408.625 177.219C408.27 177.609 407.83 177.805 407.307 177.805C406.787 177.805 406.354 177.611 406.006 177.225C405.662 176.838 405.49 176.254 405.49 175.473ZM407.324 173.99C407.062 173.99 406.844 174.104 406.668 174.33C406.496 174.557 406.41 174.973 406.41 175.578C406.41 176.129 406.498 176.518 406.674 176.744C406.85 176.967 407.066 177.078 407.324 177.078C407.59 177.078 407.809 176.965 407.98 176.738C408.156 176.512 408.244 176.098 408.244 175.496C408.244 174.941 408.156 174.553 407.98 174.33C407.805 174.104 407.586 173.99 407.324 173.99ZM407.33 182.316L412.029 173.264H412.885L408.203 182.316H407.33ZM411.045 179.984C411.045 179.367 411.199 178.846 411.508 178.42C411.816 177.99 412.266 177.775 412.855 177.775C413.395 177.775 413.84 177.969 414.191 178.355C414.547 178.738 414.725 179.303 414.725 180.049C414.725 180.775 414.545 181.336 414.186 181.73C413.83 182.121 413.389 182.316 412.861 182.316C412.342 182.316 411.908 182.123 411.561 181.736C411.217 181.346 411.045 180.762 411.045 179.984ZM412.885 178.502C412.619 178.502 412.398 178.615 412.223 178.842C412.051 179.068 411.965 179.484 411.965 180.09C411.965 180.637 412.053 181.023 412.229 181.25C412.404 181.477 412.621 181.59 412.879 181.59C413.148 181.59 413.369 181.477 413.541 181.25C413.717 181.023 413.805 180.609 413.805 180.008C413.805 179.453 413.717 179.064 413.541 178.842C413.365 178.615 413.146 178.502 412.885 178.502ZM416.951 184.525H416.195C417.363 182.65 417.947 180.773 417.947 178.895C417.947 178.16 417.863 177.432 417.695 176.709C417.562 176.123 417.377 175.561 417.139 175.021C416.986 174.67 416.672 174.084 416.195 173.264H416.951C417.686 174.244 418.229 175.229 418.58 176.217C418.881 177.068 419.031 177.959 419.031 178.889C419.031 179.943 418.828 180.963 418.422 181.947C418.02 182.932 417.529 183.791 416.951 184.525Z" fill="black"/>
<path d="M317 196H303C301.343 196 300 197.343 300 199V213C300 214.657 301.343 216 303 216H317C318.657 216 320 214.657 320 213V199C320 197.343 318.657 196 317 196Z" fill="url(#paint9_linear_55_189)"/>
<path d="M326.119 210V201.41H327.256V210H326.119ZM328.879 207.24L329.951 207.146C330.002 207.576 330.119 207.93 330.303 208.207C330.49 208.48 330.779 208.703 331.17 208.875C331.561 209.043 332 209.127 332.488 209.127C332.922 209.127 333.305 209.062 333.637 208.934C333.969 208.805 334.215 208.629 334.375 208.406C334.539 208.18 334.621 207.934 334.621 207.668C334.621 207.398 334.543 207.164 334.387 206.965C334.23 206.762 333.973 206.592 333.613 206.455C333.383 206.365 332.873 206.227 332.084 206.039C331.295 205.848 330.742 205.668 330.426 205.5C330.016 205.285 329.709 205.02 329.506 204.703C329.307 204.383 329.207 204.025 329.207 203.631C329.207 203.197 329.33 202.793 329.576 202.418C329.822 202.039 330.182 201.752 330.654 201.557C331.127 201.361 331.652 201.264 332.23 201.264C332.867 201.264 333.428 201.367 333.912 201.574C334.4 201.777 334.775 202.078 335.037 202.477C335.299 202.875 335.439 203.326 335.459 203.83L334.369 203.912C334.311 203.369 334.111 202.959 333.771 202.682C333.436 202.404 332.938 202.266 332.277 202.266C331.59 202.266 331.088 202.393 330.771 202.646C330.459 202.896 330.303 203.199 330.303 203.555C330.303 203.863 330.414 204.117 330.637 204.316C330.855 204.516 331.426 204.721 332.348 204.932C333.273 205.139 333.908 205.32 334.252 205.477C334.752 205.707 335.121 206 335.359 206.355C335.598 206.707 335.717 207.113 335.717 207.574C335.717 208.031 335.586 208.463 335.324 208.869C335.062 209.271 334.686 209.586 334.193 209.812C333.705 210.035 333.154 210.146 332.541 210.146C331.764 210.146 331.111 210.033 330.584 209.807C330.061 209.58 329.648 209.24 329.348 208.787C329.051 208.33 328.895 207.814 328.879 207.24ZM339.455 210V202.424H336.625V201.41H343.434V202.424H340.592V210H339.455ZM344.025 207.562L345.051 207.422C345.078 208.078 345.201 208.527 345.42 208.77C345.639 209.012 345.941 209.133 346.328 209.133C346.613 209.133 346.859 209.068 347.066 208.939C347.273 208.807 347.416 208.629 347.494 208.406C347.572 208.18 347.611 207.82 347.611 207.328V201.41H348.748V207.264C348.748 207.982 348.66 208.539 348.484 208.934C348.312 209.328 348.037 209.629 347.658 209.836C347.283 210.043 346.842 210.146 346.334 210.146C345.58 210.146 345.002 209.93 344.6 209.496C344.201 209.062 344.01 208.418 344.025 207.562ZM350.764 204.979V203.777H351.965V204.979H350.764ZM350.764 210V208.799H351.965V210H350.764ZM360.83 210H359.775V203.279C359.521 203.521 359.188 203.764 358.773 204.006C358.363 204.248 357.994 204.43 357.666 204.551V203.531C358.256 203.254 358.771 202.918 359.213 202.523C359.654 202.129 359.967 201.746 360.15 201.375H360.83V210ZM368.811 201.84H371.943V202.644H368.811V201.84ZM368.811 203.988H371.967V204.804H368.811V203.988ZM371.571 200.076H372.567V206.496H371.571V200.076ZM364.143 200.904H369.087V205.728H364.143V200.904ZM368.115 201.708H365.115V204.924H368.115V201.708ZM368.991 206.82C370.111 206.82 370.991 207 371.631 207.36C372.279 207.72 372.603 208.224 372.603 208.872C372.603 209.52 372.279 210.02 371.631 210.372C370.991 210.732 370.111 210.912 368.991 210.912C367.871 210.912 366.987 210.732 366.339 210.372C365.699 210.02 365.379 209.52 365.379 208.872C365.379 208.224 365.699 207.72 366.339 207.36C366.987 207 367.871 206.82 368.991 206.82ZM368.991 207.6C368.447 207.6 367.979 207.652 367.587 207.756C367.195 207.852 366.891 207.996 366.675 208.188C366.467 208.372 366.363 208.6 366.363 208.872C366.363 209.128 366.467 209.352 366.675 209.544C366.891 209.728 367.195 209.872 367.587 209.976C367.979 210.08 368.447 210.132 368.991 210.132C369.543 210.132 370.011 210.08 370.395 209.976C370.787 209.872 371.087 209.728 371.295 209.544C371.511 209.352 371.619 209.128 371.619 208.872C371.619 208.6 371.511 208.372 371.295 208.188C371.087 207.996 370.787 207.852 370.395 207.756C370.011 207.652 369.543 207.6 368.991 207.6ZM380.225 212.525C379.643 211.791 379.15 210.932 378.748 209.947C378.346 208.963 378.145 207.943 378.145 206.889C378.145 205.959 378.295 205.068 378.596 204.217C378.947 203.229 379.49 202.244 380.225 201.264H380.98C380.508 202.076 380.195 202.656 380.043 203.004C379.805 203.543 379.617 204.105 379.48 204.691C379.312 205.422 379.229 206.156 379.229 206.895C379.229 208.773 379.812 210.65 380.98 212.525H380.225ZM387.455 208.986V210H381.777C381.77 209.746 381.811 209.502 381.9 209.268C382.045 208.881 382.275 208.5 382.592 208.125C382.912 207.75 383.373 207.316 383.975 206.824C384.908 206.059 385.539 205.453 385.867 205.008C386.195 204.559 386.359 204.135 386.359 203.736C386.359 203.318 386.209 202.967 385.908 202.682C385.611 202.393 385.223 202.248 384.742 202.248C384.234 202.248 383.828 202.4 383.523 202.705C383.219 203.01 383.064 203.432 383.061 203.971L381.977 203.859C382.051 203.051 382.33 202.436 382.814 202.014C383.299 201.588 383.949 201.375 384.766 201.375C385.59 201.375 386.242 201.604 386.723 202.061C387.203 202.518 387.443 203.084 387.443 203.76C387.443 204.104 387.373 204.441 387.232 204.773C387.092 205.105 386.857 205.455 386.529 205.822C386.205 206.189 385.664 206.693 384.906 207.334C384.273 207.865 383.867 208.227 383.688 208.418C383.508 208.605 383.359 208.795 383.242 208.986H387.455ZM388.592 205.764C388.592 204.748 388.695 203.932 388.902 203.314C389.113 202.693 389.424 202.215 389.834 201.879C390.248 201.543 390.768 201.375 391.393 201.375C391.854 201.375 392.258 201.469 392.605 201.656C392.953 201.84 393.24 202.107 393.467 202.459C393.693 202.807 393.871 203.232 394 203.736C394.129 204.236 394.193 204.912 394.193 205.764C394.193 206.771 394.09 207.586 393.883 208.207C393.676 208.824 393.365 209.303 392.951 209.643C392.541 209.979 392.021 210.146 391.393 210.146C390.564 210.146 389.914 209.85 389.441 209.256C388.875 208.541 388.592 207.377 388.592 205.764ZM389.676 205.764C389.676 207.174 389.84 208.113 390.168 208.582C390.5 209.047 390.908 209.279 391.393 209.279C391.877 209.279 392.283 209.045 392.611 208.576C392.943 208.107 393.109 207.17 393.109 205.764C393.109 204.35 392.943 203.41 392.611 202.945C392.283 202.48 391.873 202.248 391.381 202.248C390.896 202.248 390.51 202.453 390.221 202.863C389.857 203.387 389.676 204.354 389.676 205.764ZM395.863 210V208.799H397.064V210H395.863ZM398.611 205.764C398.611 204.748 398.715 203.932 398.922 203.314C399.133 202.693 399.443 202.215 399.854 201.879C400.268 201.543 400.787 201.375 401.412 201.375C401.873 201.375 402.277 201.469 402.625 201.656C402.973 201.84 403.26 202.107 403.486 202.459C403.713 202.807 403.891 203.232 404.02 203.736C404.148 204.236 404.213 204.912 404.213 205.764C404.213 206.771 404.109 207.586 403.902 208.207C403.695 208.824 403.385 209.303 402.971 209.643C402.561 209.979 402.041 210.146 401.412 210.146C400.584 210.146 399.934 209.85 399.461 209.256C398.895 208.541 398.611 207.377 398.611 205.764ZM399.695 205.764C399.695 207.174 399.859 208.113 400.188 208.582C400.52 209.047 400.928 209.279 401.412 209.279C401.896 209.279 402.303 209.045 402.631 208.576C402.963 208.107 403.129 207.17 403.129 205.764C403.129 204.35 402.963 203.41 402.631 202.945C402.303 202.48 401.893 202.248 401.4 202.248C400.916 202.248 400.529 202.453 400.24 202.863C399.877 203.387 399.695 204.354 399.695 205.764ZM405.49 203.473C405.49 202.859 405.645 202.338 405.953 201.908C406.262 201.479 406.709 201.264 407.295 201.264C407.834 201.264 408.279 201.457 408.631 201.844C408.986 202.227 409.164 202.791 409.164 203.537C409.164 204.264 408.984 204.824 408.625 205.219C408.27 205.609 407.83 205.805 407.307 205.805C406.787 205.805 406.354 205.611 406.006 205.225C405.662 204.838 405.49 204.254 405.49 203.473ZM407.324 201.99C407.062 201.99 406.844 202.104 406.668 202.33C406.496 202.557 406.41 202.973 406.41 203.578C406.41 204.129 406.498 204.518 406.674 204.744C406.85 204.967 407.066 205.078 407.324 205.078C407.59 205.078 407.809 204.965 407.98 204.738C408.156 204.512 408.244 204.098 408.244 203.496C408.244 202.941 408.156 202.553 407.98 202.33C407.805 202.104 407.586 201.99 407.324 201.99ZM407.33 210.316L412.029 201.264H412.885L408.203 210.316H407.33ZM411.045 207.984C411.045 207.367 411.199 206.846 411.508 206.42C411.816 205.99 412.266 205.775 412.855 205.775C413.395 205.775 413.84 205.969 414.191 206.355C414.547 206.738 414.725 207.303 414.725 208.049C414.725 208.775 414.545 209.336 414.186 209.73C413.83 210.121 413.389 210.316 412.861 210.316C412.342 210.316 411.908 210.123 411.561 209.736C411.217 209.346 411.045 208.762 411.045 207.984ZM412.885 206.502C412.619 206.502 412.398 206.615 412.223 206.842C412.051 207.068 411.965 207.484 411.965 208.09C411.965 208.637 412.053 209.023 412.229 209.25C412.404 209.477 412.621 209.59 412.879 209.59C413.148 209.59 413.369 209.477 413.541 209.25C413.717 209.023 413.805 208.609 413.805 208.008C413.805 207.453 413.717 207.064 413.541 206.842C413.365 206.615 413.146 206.502 412.885 206.502ZM416.951 212.525H416.195C417.363 210.65 417.947 208.773 417.947 206.895C417.947 206.16 417.863 205.432 417.695 204.709C417.562 204.123 417.377 203.561 417.139 203.021C416.986 202.67 416.672 202.084 416.195 201.264H416.951C417.686 202.244 418.229 203.229 418.58 204.217C418.881 205.068 419.031 205.959 419.031 206.889C419.031 207.943 418.828 208.963 418.422 209.947C418.02 210.932 417.529 211.791 416.951 212.525Z" fill="black"/>
<defs>
<linearGradient id="paint0_linear_55_189" x1="195" y1="150" x2="195" y2="273.637" gradientUnits="userSpaceOnUse">
<stop stop-color="#76D5FC"/>
<stop offset="1" stop-color="#6EC5EE"/>
</linearGradient>
<linearGradient id="paint1_linear_55_189" x1="97.5" y1="150" x2="97.5" y2="280" gradientUnits="userSpaceOnUse">
<stop stop-color="#F5EA6F"/>
<stop offset="1" stop-color="#D2D862"/>
</linearGradient>
<linearGradient id="paint2_linear_55_189" x1="65" y1="73.5879" x2="65" y2="226.412" gradientUnits="userSpaceOnUse">
<stop stop-color="#EC8934"/>
<stop offset="1" stop-color="#EA6A35"/>
</linearGradient>
<linearGradient id="paint3_linear_55_189" x1="97.5" y1="20" x2="97.5" y2="150" gradientUnits="userSpaceOnUse">
<stop stop-color="#85E5A7"/>
<stop offset="1" stop-color="#6CD8A0"/>
</linearGradient>
<linearGradient id="paint4_linear_55_189" x1="195" y1="26.3627" x2="195" y2="150" gradientUnits="userSpaceOnUse">
<stop stop-color="#BC9BE5"/>
<stop offset="1" stop-color="#9A72FF"/>
</linearGradient>
<linearGradient id="paint5_linear_55_189" x1="310" y1="84" x2="310" y2="104" gradientUnits="userSpaceOnUse">
<stop stop-color="#76D5FC"/>
<stop offset="1" stop-color="#6EC5EE"/>
</linearGradient>
<linearGradient id="paint6_linear_55_189" x1="310" y1="112" x2="310" y2="132" gradientUnits="userSpaceOnUse">
<stop stop-color="#85E5A7"/>
<stop offset="1" stop-color="#6CD8A0"/>
</linearGradient>
<linearGradient id="paint7_linear_55_189" x1="310" y1="140" x2="310" y2="160" gradientUnits="userSpaceOnUse">
<stop stop-color="#F5EA6F"/>
<stop offset="1" stop-color="#D2D862"/>
</linearGradient>
<linearGradient id="paint8_linear_55_189" x1="310" y1="168" x2="310" y2="188" gradientUnits="userSpaceOnUse">
<stop stop-color="#EC8934"/>
<stop offset="1" stop-color="#EA6A35"/>
</linearGradient>
<linearGradient id="paint9_linear_55_189" x1="310" y1="196" x2="310" y2="216" gradientUnits="userSpaceOnUse">
<stop stop-color="#BC9BE5"/>
<stop offset="1" stop-color="#9A72FF"/>
</linearGradient>
</defs>
</svg>
