<svg width="1111" height="394" viewBox="0 0 1111 394" fill="none" xmlns="http://www.w3.org/2000/svg">
<path d="M31.2374 333.981H1111" stroke="#BCBCBC" stroke-width="0.25" stroke-miterlimit="10"/>
<path d="M31.2374 298.446H1111" stroke="#BCBCBC" stroke-width="0.25" stroke-miterlimit="10"/>
<path d="M31.2374 262.913H1111" stroke="#BCBCBC" stroke-width="0.25" stroke-miterlimit="10"/>
<path d="M31.2374 227.376H1111" stroke="#BCBCBC" stroke-width="0.25" stroke-miterlimit="10"/>
<path d="M31.2374 191.841H1111" stroke="#BCBCBC" stroke-width="0.25" stroke-miterlimit="10"/>
<path d="M31.2374 156.306H1111" stroke="#BCBCBC" stroke-width="0.25" stroke-miterlimit="10"/>
<path d="M31.2374 120.77H1111" stroke="#BCBCBC" stroke-width="0.25" stroke-miterlimit="10"/>
<path d="M31.2374 85.2334H1111" stroke="#BCBCBC" stroke-width="0.25" stroke-miterlimit="10"/>
<path d="M31.2374 49.6978H1111" stroke="#BCBCBC" stroke-width="0.25" stroke-miterlimit="10"/>
<path d="M31.2374 14.1621H1111" stroke="#BCBCBC" stroke-width="0.25" stroke-miterlimit="10"/>
<path d="M31.9086 0V358.73H1111" stroke="#BCBCBC" stroke-miterlimit="10"/>
<path d="M0.126 3.24736H3.234V13.0474H2.52V3.89136H0.126V3.24736ZM9.54155 13.1174C7.28755 13.1174 5.70555 11.2134 5.70555 8.14736C5.70555 5.08136 7.28755 3.17736 9.54155 3.17736C11.7955 3.17736 13.3775 5.08136 13.3775 8.14736C13.3775 11.2134 11.7955 13.1174 9.54155 13.1174ZM9.54155 12.4594C11.3895 12.4594 12.6635 10.8774 12.6635 8.14736C12.6635 5.41736 11.3895 3.83536 9.54155 3.83536C7.69355 3.83536 6.41955 5.41736 6.41955 8.14736C6.41955 10.8774 7.69355 12.4594 9.54155 12.4594Z" fill="#666666"/>
<path d="M3.724 40.1774C6.3 40.1774 7.658 42.0254 7.658 45.0914C7.658 48.4094 5.894 50.1174 3.304 50.1174C2.464 50.1174 1.68 49.9774 1.078 49.6134L1.372 49.0394C1.876 49.3614 2.562 49.4874 3.304 49.4874C5.502 49.4874 6.944 48.0454 6.944 45.2034C6.944 44.9094 6.93 44.4754 6.86 44.0274C6.454 45.3154 5.222 46.0434 3.738 46.0434C1.778 46.0434 0.462 44.8954 0.462 43.1314C0.462 41.3394 1.848 40.1774 3.724 40.1774ZM3.836 45.4274C5.446 45.4274 6.552 44.4054 6.552 43.0894C6.552 41.9414 5.586 40.7934 3.752 40.7934C2.226 40.7934 1.176 41.7034 1.176 43.1174C1.176 44.5174 2.184 45.4274 3.836 45.4274Z" fill="#666666"/>
<path d="M6.02 81.9234C7.364 82.2734 8.134 83.1414 8.134 84.3594C8.134 86.0674 6.72 87.1174 4.41 87.1174C2.1 87.1174 0.714 86.0674 0.714 84.3594C0.714 83.1274 1.47 82.2734 2.8 81.9234C1.68 81.5594 1.064 80.7894 1.064 79.7114C1.064 78.1434 2.38 77.1774 4.41 77.1774C6.44 77.1774 7.784 78.1434 7.784 79.7114C7.784 80.7894 7.154 81.5594 6.02 81.9234ZM1.778 79.7254C1.778 80.9014 2.744 81.6434 4.41 81.6434C6.076 81.6434 7.07 80.9014 7.07 79.7394C7.07 78.5354 6.034 77.7934 4.41 77.7934C2.786 77.7934 1.778 78.5354 1.778 79.7254ZM4.41 86.5014C6.3 86.5014 7.42 85.6754 7.42 84.3594C7.42 83.0574 6.3 82.2314 4.41 82.2314C2.52 82.2314 1.428 83.0574 1.428 84.3594C1.428 85.6754 2.52 86.5014 4.41 86.5014Z" fill="#666666"/>
<path d="M0.476 114.247H7.504V114.751L3.29 124.047H2.506L6.678 114.891H1.176V116.767H0.476V114.247Z" fill="#666666"/>
<path d="M4.69 155.251C6.65 155.251 7.966 156.399 7.966 158.163C7.966 159.955 6.58 161.117 4.704 161.117C2.128 161.117 0.77 159.269 0.77 156.203C0.77 152.885 2.534 151.177 5.124 151.177C5.964 151.177 6.748 151.317 7.35 151.681L7.056 152.255C6.552 151.933 5.866 151.807 5.124 151.807C2.926 151.807 1.484 153.249 1.484 156.091C1.484 156.385 1.498 156.819 1.568 157.267C1.974 155.979 3.206 155.251 4.69 155.251ZM4.676 160.501C6.202 160.501 7.252 159.591 7.252 158.177C7.252 156.777 6.244 155.867 4.592 155.867C2.982 155.867 1.876 156.889 1.876 158.205C1.876 159.353 2.842 160.501 4.676 160.501Z" fill="#666666"/>
<path d="M3.164 192.349C6.146 192.349 7.238 193.483 7.238 195.219C7.238 196.857 6.104 198.117 3.808 198.117C2.38 198.117 1.05 197.585 0.364 196.801L0.728 196.255C1.316 196.941 2.478 197.459 3.794 197.459C5.6 197.459 6.524 196.549 6.524 195.247C6.524 193.847 5.67 192.993 3.01 192.993H1.022L1.54 188.247H6.734V188.891H2.142L1.764 192.349H3.164Z" fill="#666666"/>
<path d="M8.946 231.701V232.331H6.888V235.047H6.188V232.331H0.602V231.813L5.922 225.247H6.72L1.498 231.701H6.202V229.307H6.888V231.701H8.946Z" fill="#666666"/>
<path d="M3.752 266.517C5.978 266.573 7.07 267.693 7.07 269.289C7.07 270.913 5.894 272.117 3.64 272.117C2.198 272.117 0.868 271.585 0.182 270.801L0.546 270.255C1.148 270.941 2.296 271.459 3.64 271.459C5.404 271.459 6.342 270.619 6.342 269.289C6.342 267.973 5.446 267.119 3.486 267.119H2.87V266.601L5.768 262.891H0.546V262.247H6.692V262.751L3.752 266.517Z" fill="#666666"/>
<path d="M1.624 308.403H7.308V309.047H0.574V308.543L4.718 304.427C5.88 303.265 6.104 302.579 6.104 301.837C6.104 300.605 5.25 299.835 3.626 299.835C2.394 299.835 1.484 300.199 0.812 300.969L0.308 300.521C1.05 299.667 2.212 299.177 3.682 299.177C5.6 299.177 6.832 300.171 6.832 301.767C6.832 302.705 6.524 303.531 5.236 304.805L1.624 308.403Z" fill="#666666"/>
<path d="M0.126 336.247H3.234V346.047H2.52V336.891H0.126V336.247Z" fill="#666666"/>
<path d="M63.809 390.821V381.021H64.523V390.821H63.809ZM75.2039 381.021H75.9179V390.821H75.3299L68.6519 382.309V390.821H67.9379V381.021H68.5399L75.2039 389.533V381.021ZM81.2162 390.821V381.665H77.6882V381.021H85.4582V381.665H81.9302V390.821H81.2162ZM87.9742 390.891C86.9102 390.891 85.9302 390.373 85.3702 389.491L85.8042 389.015C86.3362 389.813 87.0922 390.247 87.9742 390.247C89.2762 390.247 89.9202 389.505 89.9202 387.937V381.665H86.3082V381.021H90.6342V387.937C90.6342 389.911 89.7242 390.891 87.9742 390.891Z" fill="#666666"/>
<path d="M127.592 390.177H133.64V390.821H126.878V381.021H133.43V381.665H127.592V385.529H132.814V386.159H127.592V390.177ZM143.51 381.021H144.224V390.821H143.636L136.958 382.309V390.821H136.244V381.021H136.846L143.51 389.533V381.021ZM149.522 390.821V381.665H145.994V381.021H153.764V381.665H150.236V390.821H149.522ZM159.049 381.021C161.513 381.021 162.997 382.253 162.997 384.325C162.997 386.383 161.513 387.615 159.049 387.615H156.249V390.821H155.535V381.021H159.049ZM159.049 386.971C161.149 386.971 162.269 386.005 162.269 384.325C162.269 382.631 161.149 381.665 159.049 381.665H156.249V386.971H159.049Z" fill="#666666"/>
<path d="M196.11 390.177H202.158V390.821H195.396V381.021H201.948V381.665H196.11V385.529H201.332V386.159H196.11V390.177ZM212.027 381.021H212.741V390.821H212.153L205.475 382.309V390.821H204.761V381.021H205.363L212.027 389.533V381.021ZM222.715 381.665H216.877V385.851H222.099V386.495H216.877V390.821H216.163V381.021H222.715V381.665ZM225.672 390.891C224.608 390.891 223.628 390.373 223.068 389.491L223.502 389.015C224.034 389.813 224.79 390.247 225.672 390.247C226.974 390.247 227.618 389.505 227.618 387.937V381.665H224.006V381.021H228.332V387.937C228.332 389.911 227.422 390.891 225.672 390.891Z" fill="#666666"/>
<path d="M261.763 390.177H267.811V390.821H261.049V381.021H267.601V381.665H261.763V385.529H266.985V386.159H261.763V390.177ZM277.68 381.021H278.394V390.821H277.806L271.128 382.309V390.821H270.414V381.021H271.016L277.68 389.533V381.021ZM288.369 381.665H282.531V385.851H287.753V386.495H282.531V390.821H281.817V381.021H288.369V381.665ZM294.163 381.021C296.627 381.021 298.111 382.253 298.111 384.325C298.111 386.383 296.627 387.615 294.163 387.615H291.363V390.821H290.649V381.021H294.163ZM294.163 386.971C296.263 386.971 297.383 386.005 297.383 384.325C297.383 382.631 296.263 381.665 294.163 381.665H291.363V386.971H294.163Z" fill="#666666"/>
<path d="M331.46 390.821V381.021H332.174V390.821H331.46ZM342.855 381.021H343.569V390.821H342.981L336.303 382.309V390.821H335.589V381.021H336.191L342.855 389.533V381.021ZM348.867 390.821V381.665H345.339V381.021H353.109V381.665H349.581V390.821H348.867ZM358.394 381.021C360.858 381.021 362.342 382.253 362.342 384.325C362.342 386.383 360.858 387.615 358.394 387.615H355.594V390.821H354.88V381.021H358.394ZM358.394 386.971C360.494 386.971 361.614 386.005 361.614 384.325C361.614 382.631 360.494 381.665 358.394 381.665H355.594V386.971H358.394Z" fill="#666666"/>
<path d="M401.413 390.821V381.021H402.127V390.821H401.413ZM408.118 390.891C406.662 390.891 405.262 390.345 404.548 389.561L404.87 389.029C405.542 389.729 406.788 390.261 408.104 390.261C410.064 390.261 410.932 389.407 410.932 388.343C410.932 385.403 404.814 387.167 404.814 383.555C404.814 382.169 405.878 380.951 408.286 380.951C409.364 380.951 410.484 381.287 411.24 381.833L410.974 382.407C410.162 381.847 409.168 381.581 408.286 381.581C406.382 381.581 405.528 382.463 405.528 383.541C405.528 386.481 411.646 384.745 411.646 388.301C411.646 389.687 410.54 390.891 408.118 390.891ZM420.625 381.665H414.787V385.851H420.009V386.495H414.787V390.821H414.073V381.021H420.625V381.665ZM423.582 390.891C422.518 390.891 421.538 390.373 420.978 389.491L421.412 389.015C421.944 389.813 422.7 390.247 423.582 390.247C424.884 390.247 425.528 389.505 425.528 387.937V381.665H421.916V381.021H426.242V387.937C426.242 389.911 425.332 390.891 423.582 390.891Z" fill="#666666"/>
<path d="M465.631 390.821V381.021H466.345V390.821H465.631ZM477.026 381.021H477.74V390.821H477.152L470.474 382.309V390.821H469.76V381.021H470.362L477.026 389.533V381.021ZM487.714 381.665H481.876V385.851H487.098V386.495H481.876V390.821H481.162V381.021H487.714V381.665ZM493.508 381.021C495.972 381.021 497.456 382.253 497.456 384.325C497.456 386.383 495.972 387.615 493.508 387.615H490.708V390.821H489.994V381.021H493.508ZM493.508 386.971C495.608 386.971 496.728 386.005 496.728 384.325C496.728 382.631 495.608 381.665 493.508 381.665H490.708V386.971H493.508Z" fill="#666666"/>
<path d="M538.36 390.821V381.021H539.074V390.821H538.36ZM545.064 390.891C543.608 390.891 542.208 390.345 541.494 389.561L541.816 389.029C542.488 389.729 543.734 390.261 545.05 390.261C547.01 390.261 547.878 389.407 547.878 388.343C547.878 385.403 541.76 387.167 541.76 383.555C541.76 382.169 542.824 380.951 545.232 380.951C546.31 380.951 547.43 381.287 548.186 381.833L547.92 382.407C547.108 381.847 546.114 381.581 545.232 381.581C543.328 381.581 542.474 382.463 542.474 383.541C542.474 386.481 548.592 384.745 548.592 388.301C548.592 389.687 547.486 390.891 545.064 390.891ZM552.759 390.821V381.665H549.231V381.021H557.001V381.665H553.473V390.821H552.759ZM559.517 390.891C558.453 390.891 557.473 390.373 556.913 389.491L557.347 389.015C557.879 389.813 558.635 390.247 559.517 390.247C560.819 390.247 561.463 389.505 561.463 387.937V381.665H557.851V381.021H562.177V387.937C562.177 389.911 561.267 390.891 559.517 390.891Z" fill="#666666"/>
<path d="M600.475 390.177H606.523V390.821H599.761V381.021H606.313V381.665H600.475V385.529H605.697V386.159H600.475V390.177ZM616.392 381.021H617.106V390.821H616.518L609.84 382.309V390.821H609.126V381.021H609.728L616.392 389.533V381.021ZM622.404 390.821V381.665H618.876V381.021H626.646V381.665H623.118V390.821H622.404ZM629.162 390.891C628.098 390.891 627.118 390.373 626.558 389.491L626.992 389.015C627.524 389.813 628.28 390.247 629.162 390.247C630.464 390.247 631.108 389.505 631.108 387.937V381.665H627.496V381.021H631.822V387.937C631.822 389.911 630.912 390.891 629.162 390.891Z" fill="#666666"/>
<path d="M669.031 390.821V381.021H669.745V390.821H669.031ZM675.735 390.891C674.279 390.891 672.879 390.345 672.165 389.561L672.487 389.029C673.159 389.729 674.405 390.261 675.721 390.261C677.681 390.261 678.549 389.407 678.549 388.343C678.549 385.403 672.431 387.167 672.431 383.555C672.431 382.169 673.495 380.951 675.903 380.951C676.981 380.951 678.101 381.287 678.857 381.833L678.591 382.407C677.779 381.847 676.785 381.581 675.903 381.581C673.999 381.581 673.145 382.463 673.145 383.541C673.145 386.481 679.263 384.745 679.263 388.301C679.263 389.687 678.157 390.891 675.735 390.891ZM688.243 381.665H682.405V385.851H687.627V386.495H682.405V390.821H681.691V381.021H688.243V381.665ZM694.037 381.021C696.501 381.021 697.985 382.253 697.985 384.325C697.985 386.383 696.501 387.615 694.037 387.615H691.237V390.821H690.523V381.021H694.037ZM694.037 386.971C696.137 386.971 697.257 386.005 697.257 384.325C697.257 382.631 696.137 381.665 694.037 381.665H691.237V386.971H694.037Z" fill="#666666"/>
<path d="M738.69 390.821V381.021H739.404V390.821H738.69ZM745.395 390.891C743.939 390.891 742.539 390.345 741.825 389.561L742.147 389.029C742.819 389.729 744.065 390.261 745.381 390.261C747.341 390.261 748.209 389.407 748.209 388.343C748.209 385.403 742.091 387.167 742.091 383.555C742.091 382.169 743.155 380.951 745.563 380.951C746.641 380.951 747.761 381.287 748.517 381.833L748.251 382.407C747.439 381.847 746.445 381.581 745.563 381.581C743.659 381.581 742.805 382.463 742.805 383.541C742.805 386.481 748.923 384.745 748.923 388.301C748.923 389.687 747.817 390.891 745.395 390.891ZM753.089 390.821V381.665H749.561V381.021H757.331V381.665H753.803V390.821H753.089ZM762.616 381.021C765.08 381.021 766.564 382.253 766.564 384.325C766.564 386.383 765.08 387.615 762.616 387.615H759.816V390.821H759.102V381.021H762.616ZM762.616 386.971C764.716 386.971 765.836 386.005 765.836 384.325C765.836 382.631 764.716 381.665 762.616 381.665H759.816V386.971H762.616Z" fill="#666666"/>
<path d="M803.906 390.821V381.021H804.62V390.821H803.906ZM815.3 381.021H816.014V390.821H815.426L808.748 382.309V390.821H808.034V381.021H808.636L815.3 389.533V381.021ZM825.989 381.665H820.151V385.851H825.373V386.495H820.151V390.821H819.437V381.021H825.989V381.665ZM828.946 390.891C827.882 390.891 826.902 390.373 826.342 389.491L826.776 389.015C827.308 389.813 828.064 390.247 828.946 390.247C830.248 390.247 830.892 389.505 830.892 387.937V381.665H827.28V381.021H831.606V387.937C831.606 389.911 830.696 390.891 828.946 390.891Z" fill="#666666"/>
<path d="M871.264 390.177H877.312V390.821H870.55V381.021H877.102V381.665H871.264V385.529H876.486V386.159H871.264V390.177ZM882.491 390.891C881.035 390.891 879.635 390.345 878.921 389.561L879.243 389.029C879.915 389.729 881.161 390.261 882.477 390.261C884.437 390.261 885.305 389.407 885.305 388.343C885.305 385.403 879.187 387.167 879.187 383.555C879.187 382.169 880.251 380.951 882.659 380.951C883.737 380.951 884.857 381.287 885.613 381.833L885.347 382.407C884.535 381.847 883.541 381.581 882.659 381.581C880.755 381.581 879.901 382.463 879.901 383.541C879.901 386.481 886.019 384.745 886.019 388.301C886.019 389.687 884.913 390.891 882.491 390.891ZM890.186 390.821V381.665H886.658V381.021H894.428V381.665H890.9V390.821H890.186ZM896.944 390.891C895.88 390.891 894.9 390.373 894.34 389.491L894.774 389.015C895.306 389.813 896.062 390.247 896.944 390.247C898.246 390.247 898.89 389.505 898.89 387.937V381.665H895.278V381.021H899.604V387.937C899.604 389.911 898.694 390.891 896.944 390.891Z" fill="#666666"/>
<path d="M936.952 390.177H943V390.821H936.238V381.021H942.79V381.665H936.952V385.529H942.174V386.159H936.952V390.177ZM948.179 390.891C946.723 390.891 945.323 390.345 944.609 389.561L944.931 389.029C945.603 389.729 946.849 390.261 948.165 390.261C950.125 390.261 950.993 389.407 950.993 388.343C950.993 385.403 944.875 387.167 944.875 383.555C944.875 382.169 945.939 380.951 948.347 380.951C949.425 380.951 950.545 381.287 951.301 381.833L951.035 382.407C950.223 381.847 949.229 381.581 948.347 381.581C946.443 381.581 945.589 382.463 945.589 383.541C945.589 386.481 951.707 384.745 951.707 388.301C951.707 389.687 950.601 390.891 948.179 390.891ZM955.873 390.821V381.665H952.345V381.021H960.115V381.665H956.587V390.821H955.873ZM965.4 381.021C967.864 381.021 969.348 382.253 969.348 384.325C969.348 386.383 967.864 387.615 965.4 387.615H962.6V390.821H961.886V381.021H965.4ZM965.4 386.971C967.5 386.971 968.62 386.005 968.62 384.325C968.62 382.631 967.5 381.665 965.4 381.665H962.6V386.971H965.4Z" fill="#666666"/>
<path d="M1003.73 390.177H1009.78V390.821H1003.02V381.021H1009.57V381.665H1003.73V385.529H1008.95V386.159H1003.73V390.177ZM1014.96 390.891C1013.5 390.891 1012.1 390.345 1011.39 389.561L1011.71 389.029C1012.38 389.729 1013.63 390.261 1014.95 390.261C1016.91 390.261 1017.77 389.407 1017.77 388.343C1017.77 385.403 1011.66 387.167 1011.66 383.555C1011.66 382.169 1012.72 380.951 1015.13 380.951C1016.21 380.951 1017.33 381.287 1018.08 381.833L1017.82 382.407C1017 381.847 1016.01 381.581 1015.13 381.581C1013.22 381.581 1012.37 382.463 1012.37 383.541C1012.37 386.481 1018.49 384.745 1018.49 388.301C1018.49 389.687 1017.38 390.891 1014.96 390.891ZM1027.47 381.665H1021.63V385.851H1026.85V386.495H1021.63V390.821H1020.92V381.021H1027.47V381.665ZM1033.26 381.021C1035.73 381.021 1037.21 382.253 1037.21 384.325C1037.21 386.383 1035.73 387.615 1033.26 387.615H1030.46V390.821H1029.75V381.021H1033.26ZM1033.26 386.971C1035.36 386.971 1036.48 386.005 1036.48 384.325C1036.48 382.631 1035.36 381.665 1033.26 381.665H1030.46V386.971H1033.26Z" fill="#666666"/>
<path d="M1072.72 390.177H1078.77V390.821H1072.01V381.021H1078.56V381.665H1072.72V385.529H1077.94V386.159H1072.72V390.177ZM1083.95 390.891C1082.49 390.891 1081.09 390.345 1080.38 389.561L1080.7 389.029C1081.37 389.729 1082.62 390.261 1083.94 390.261C1085.9 390.261 1086.76 389.407 1086.76 388.343C1086.76 385.403 1080.65 387.167 1080.65 383.555C1080.65 382.169 1081.71 380.951 1084.12 380.951C1085.2 380.951 1086.32 381.287 1087.07 381.833L1086.81 382.407C1085.99 381.847 1085 381.581 1084.12 381.581C1082.21 381.581 1081.36 382.463 1081.36 383.541C1081.36 386.481 1087.48 384.745 1087.48 388.301C1087.48 389.687 1086.37 390.891 1083.95 390.891ZM1096.46 381.665H1090.62V385.851H1095.84V386.495H1090.62V390.821H1089.9V381.021H1096.46V381.665ZM1099.41 390.891C1098.35 390.891 1097.37 390.373 1096.81 389.491L1097.24 389.015C1097.78 389.813 1098.53 390.247 1099.41 390.247C1100.72 390.247 1101.36 389.505 1101.36 387.937V381.665H1097.75V381.021H1102.07V387.937C1102.07 389.911 1101.16 390.891 1099.41 390.891Z" fill="#666666"/>
<rect x="53.181" y="103.193" width="48" height="26" rx="8" fill="url(#paint0_linear_64_2)"/>
<rect x="53.181" y="139.193" width="48" height="26" rx="8" fill="url(#paint1_linear_64_2)"/>
<rect x="53.181" y="175.193" width="48" height="26" rx="8" fill="url(#paint2_linear_64_2)"/>
<rect x="53.181" y="211.193" width="48" height="26" rx="8" fill="url(#paint3_linear_64_2)"/>
<rect x="53.181" y="247.193" width="48" height="26" rx="8" fill="url(#paint4_linear_64_2)"/>
<rect x="53.181" y="283.193" width="48" height="26" rx="8" fill="url(#paint5_linear_64_2)"/>
<rect x="53.181" y="319.193" width="48" height="26" rx="8" fill="url(#paint6_linear_64_2)"/>
<rect x="120.502" y="139.193" width="48" height="26" rx="8" fill="url(#paint7_linear_64_2)"/>
<rect x="120.502" y="175.193" width="48" height="26" rx="8" fill="url(#paint8_linear_64_2)"/>
<rect x="120.502" y="211.193" width="48" height="26" rx="8" fill="url(#paint9_linear_64_2)"/>
<rect x="120.502" y="247.193" width="48" height="26" rx="8" fill="url(#paint10_linear_64_2)"/>
<rect x="120.502" y="283.193" width="48" height="26" rx="8" fill="url(#paint11_linear_64_2)"/>
<rect x="120.502" y="319.193" width="48" height="26" rx="8" fill="url(#paint12_linear_64_2)"/>
<rect x="187.824" y="175.193" width="48" height="26" rx="8" fill="url(#paint13_linear_64_2)"/>
<rect x="187.824" y="211.193" width="48" height="26" rx="8" fill="url(#paint14_linear_64_2)"/>
<rect x="187.824" y="247.193" width="48" height="26" rx="8" fill="url(#paint15_linear_64_2)"/>
<rect x="187.824" y="283.193" width="48" height="26" rx="8" fill="url(#paint16_linear_64_2)"/>
<rect x="187.824" y="319.193" width="48" height="26" rx="8" fill="url(#paint17_linear_64_2)"/>
<rect x="255.145" y="175.193" width="48" height="26" rx="8" fill="url(#paint18_linear_64_2)"/>
<rect x="255.145" y="211.193" width="48" height="26" rx="8" fill="url(#paint19_linear_64_2)"/>
<rect x="255.145" y="247.193" width="48" height="26" rx="8" fill="url(#paint20_linear_64_2)"/>
<rect x="255.145" y="283.193" width="48" height="26" rx="8" fill="url(#paint21_linear_64_2)"/>
<rect x="255.145" y="319.193" width="48" height="26" rx="8" fill="url(#paint22_linear_64_2)"/>
<rect x="322.466" y="175.193" width="48" height="26" rx="8" fill="url(#paint23_linear_64_2)"/>
<rect x="322.466" y="211.193" width="48" height="26" rx="8" fill="url(#paint24_linear_64_2)"/>
<rect x="322.466" y="247.193" width="48" height="26" rx="8" fill="url(#paint25_linear_64_2)"/>
<rect x="322.466" y="283.193" width="48" height="26" rx="8" fill="url(#paint26_linear_64_2)"/>
<rect x="322.466" y="319.193" width="48" height="26" rx="8" fill="url(#paint27_linear_64_2)"/>
<rect x="389.787" y="175.193" width="48" height="26" rx="8" fill="url(#paint28_linear_64_2)"/>
<rect x="389.787" y="211.193" width="48" height="26" rx="8" fill="url(#paint29_linear_64_2)"/>
<rect x="389.787" y="247.193" width="48" height="26" rx="8" fill="url(#paint30_linear_64_2)"/>
<rect x="389.787" y="283.193" width="48" height="26" rx="8" fill="url(#paint31_linear_64_2)"/>
<rect x="389.787" y="319.193" width="48" height="26" rx="8" fill="url(#paint32_linear_64_2)"/>
<rect x="457.109" y="175.193" width="48" height="26" rx="8" fill="url(#paint33_linear_64_2)"/>
<rect x="457.109" y="211.193" width="48" height="26" rx="8" fill="url(#paint34_linear_64_2)"/>
<rect x="457.109" y="247.193" width="48" height="26" rx="8" fill="url(#paint35_linear_64_2)"/>
<rect x="457.109" y="283.193" width="48" height="26" rx="8" fill="url(#paint36_linear_64_2)"/>
<rect x="457.109" y="319.193" width="48" height="26" rx="8" fill="url(#paint37_linear_64_2)"/>
<rect x="524.43" y="211.193" width="48" height="26" rx="8" fill="url(#paint38_linear_64_2)"/>
<rect x="524.43" y="247.193" width="48" height="26" rx="8" fill="url(#paint39_linear_64_2)"/>
<rect x="524.43" y="283.193" width="48" height="26" rx="8" fill="url(#paint40_linear_64_2)"/>
<rect x="524.43" y="319.193" width="48" height="26" rx="8" fill="url(#paint41_linear_64_2)"/>
<rect x="591.751" y="247.193" width="48" height="26" rx="8" fill="url(#paint42_linear_64_2)"/>
<rect x="591.751" y="283.193" width="48" height="26" rx="8" fill="url(#paint43_linear_64_2)"/>
<rect x="591.751" y="319.193" width="48" height="26" rx="8" fill="url(#paint44_linear_64_2)"/>
<rect x="659.073" y="247.193" width="48" height="26" rx="8" fill="url(#paint45_linear_64_2)"/>
<rect x="659.073" y="283.193" width="48" height="26" rx="8" fill="url(#paint46_linear_64_2)"/>
<rect x="659.073" y="319.193" width="48" height="26" rx="8" fill="url(#paint47_linear_64_2)"/>
<rect x="726.394" y="247.193" width="48" height="26" rx="8" fill="url(#paint48_linear_64_2)"/>
<rect x="726.394" y="283.193" width="48" height="26" rx="8" fill="url(#paint49_linear_64_2)"/>
<rect x="726.394" y="319.193" width="48" height="26" rx="8" fill="url(#paint50_linear_64_2)"/>
<rect x="793.715" y="247.193" width="48" height="26" rx="8" fill="url(#paint51_linear_64_2)"/>
<rect x="793.715" y="283.193" width="48" height="26" rx="8" fill="url(#paint52_linear_64_2)"/>
<rect x="793.715" y="319.193" width="48" height="26" rx="8" fill="url(#paint53_linear_64_2)"/>
<rect x="861.036" y="283.193" width="48" height="26" rx="8" fill="url(#paint54_linear_64_2)"/>
<rect x="861.036" y="319.193" width="48" height="26" rx="8" fill="url(#paint55_linear_64_2)"/>
<rect x="928.358" y="319.193" width="48" height="26" rx="8" fill="url(#paint56_linear_64_2)"/>
<defs>
<linearGradient id="paint0_linear_64_2" x1="77.181" y1="103.193" x2="77.181" y2="129.193" gradientUnits="userSpaceOnUse">
<stop stop-color="#76D5FC"/>
<stop offset="1" stop-color="#6EC5EE"/>
</linearGradient>
<linearGradient id="paint1_linear_64_2" x1="77.181" y1="139.193" x2="77.181" y2="165.193" gradientUnits="userSpaceOnUse">
<stop stop-color="#76D5FC"/>
<stop offset="1" stop-color="#6EC5EE"/>
</linearGradient>
<linearGradient id="paint2_linear_64_2" x1="77.181" y1="175.193" x2="77.181" y2="201.193" gradientUnits="userSpaceOnUse">
<stop stop-color="#76D5FC"/>
<stop offset="1" stop-color="#6EC5EE"/>
</linearGradient>
<linearGradient id="paint3_linear_64_2" x1="77.181" y1="211.193" x2="77.181" y2="237.193" gradientUnits="userSpaceOnUse">
<stop stop-color="#76D5FC"/>
<stop offset="1" stop-color="#6EC5EE"/>
</linearGradient>
<linearGradient id="paint4_linear_64_2" x1="77.181" y1="247.193" x2="77.181" y2="273.193" gradientUnits="userSpaceOnUse">
<stop stop-color="#76D5FC"/>
<stop offset="1" stop-color="#6EC5EE"/>
</linearGradient>
<linearGradient id="paint5_linear_64_2" x1="77.181" y1="283.193" x2="77.181" y2="309.193" gradientUnits="userSpaceOnUse">
<stop stop-color="#76D5FC"/>
<stop offset="1" stop-color="#6EC5EE"/>
</linearGradient>
<linearGradient id="paint6_linear_64_2" x1="77.181" y1="319.193" x2="77.181" y2="345.193" gradientUnits="userSpaceOnUse">
<stop stop-color="#76D5FC"/>
<stop offset="1" stop-color="#6EC5EE"/>
</linearGradient>
<linearGradient id="paint7_linear_64_2" x1="144.502" y1="139.193" x2="144.502" y2="165.193" gradientUnits="userSpaceOnUse">
<stop stop-color="#85E5A7"/>
<stop offset="1" stop-color="#6CD8A0"/>
</linearGradient>
<linearGradient id="paint8_linear_64_2" x1="144.502" y1="175.193" x2="144.502" y2="201.193" gradientUnits="userSpaceOnUse">
<stop stop-color="#85E5A7"/>
<stop offset="1" stop-color="#6CD8A0"/>
</linearGradient>
<linearGradient id="paint9_linear_64_2" x1="144.502" y1="211.193" x2="144.502" y2="237.193" gradientUnits="userSpaceOnUse">
<stop stop-color="#85E5A7"/>
<stop offset="1" stop-color="#6CD8A0"/>
</linearGradient>
<linearGradient id="paint10_linear_64_2" x1="144.502" y1="247.193" x2="144.502" y2="273.193" gradientUnits="userSpaceOnUse">
<stop stop-color="#85E5A7"/>
<stop offset="1" stop-color="#6CD8A0"/>
</linearGradient>
<linearGradient id="paint11_linear_64_2" x1="144.502" y1="283.193" x2="144.502" y2="309.193" gradientUnits="userSpaceOnUse">
<stop stop-color="#85E5A7"/>
<stop offset="1" stop-color="#6CD8A0"/>
</linearGradient>
<linearGradient id="paint12_linear_64_2" x1="144.502" y1="319.193" x2="144.502" y2="345.193" gradientUnits="userSpaceOnUse">
<stop stop-color="#85E5A7"/>
<stop offset="1" stop-color="#6CD8A0"/>
</linearGradient>
<linearGradient id="paint13_linear_64_2" x1="211.824" y1="175.193" x2="211.824" y2="201.193" gradientUnits="userSpaceOnUse">
<stop stop-color="#F5EA6F"/>
<stop offset="1" stop-color="#D2D862"/>
</linearGradient>
<linearGradient id="paint14_linear_64_2" x1="211.824" y1="211.193" x2="211.824" y2="237.193" gradientUnits="userSpaceOnUse">
<stop stop-color="#F5EA6F"/>
<stop offset="1" stop-color="#D2D862"/>
</linearGradient>
<linearGradient id="paint15_linear_64_2" x1="211.824" y1="247.193" x2="211.824" y2="273.193" gradientUnits="userSpaceOnUse">
<stop stop-color="#F5EA6F"/>
<stop offset="1" stop-color="#D2D862"/>
</linearGradient>
<linearGradient id="paint16_linear_64_2" x1="211.824" y1="283.193" x2="211.824" y2="309.193" gradientUnits="userSpaceOnUse">
<stop stop-color="#F5EA6F"/>
<stop offset="1" stop-color="#D2D862"/>
</linearGradient>
<linearGradient id="paint17_linear_64_2" x1="211.824" y1="319.193" x2="211.824" y2="345.193" gradientUnits="userSpaceOnUse">
<stop stop-color="#F5EA6F"/>
<stop offset="1" stop-color="#D2D862"/>
</linearGradient>
<linearGradient id="paint18_linear_64_2" x1="279.145" y1="175.193" x2="279.145" y2="201.193" gradientUnits="userSpaceOnUse">
<stop stop-color="#F5EA6F"/>
<stop offset="1" stop-color="#D2D862"/>
</linearGradient>
<linearGradient id="paint19_linear_64_2" x1="279.145" y1="211.193" x2="279.145" y2="237.193" gradientUnits="userSpaceOnUse">
<stop stop-color="#F5EA6F"/>
<stop offset="1" stop-color="#D2D862"/>
</linearGradient>
<linearGradient id="paint20_linear_64_2" x1="279.145" y1="247.193" x2="279.145" y2="273.193" gradientUnits="userSpaceOnUse">
<stop stop-color="#F5EA6F"/>
<stop offset="1" stop-color="#D2D862"/>
</linearGradient>
<linearGradient id="paint21_linear_64_2" x1="279.145" y1="283.193" x2="279.145" y2="309.193" gradientUnits="userSpaceOnUse">
<stop stop-color="#F5EA6F"/>
<stop offset="1" stop-color="#D2D862"/>
</linearGradient>
<linearGradient id="paint22_linear_64_2" x1="279.145" y1="319.193" x2="279.145" y2="345.193" gradientUnits="userSpaceOnUse">
<stop stop-color="#F5EA6F"/>
<stop offset="1" stop-color="#D2D862"/>
</linearGradient>
<linearGradient id="paint23_linear_64_2" x1="346.466" y1="175.193" x2="346.466" y2="201.193" gradientUnits="userSpaceOnUse">
<stop stop-color="#F5EA6F"/>
<stop offset="1" stop-color="#D2D862"/>
</linearGradient>
<linearGradient id="paint24_linear_64_2" x1="346.466" y1="211.193" x2="346.466" y2="237.193" gradientUnits="userSpaceOnUse">
<stop stop-color="#F5EA6F"/>
<stop offset="1" stop-color="#D2D862"/>
</linearGradient>
<linearGradient id="paint25_linear_64_2" x1="346.466" y1="247.193" x2="346.466" y2="273.193" gradientUnits="userSpaceOnUse">
<stop stop-color="#F5EA6F"/>
<stop offset="1" stop-color="#D2D862"/>
</linearGradient>
<linearGradient id="paint26_linear_64_2" x1="346.466" y1="283.193" x2="346.466" y2="309.193" gradientUnits="userSpaceOnUse">
<stop stop-color="#F5EA6F"/>
<stop offset="1" stop-color="#D2D862"/>
</linearGradient>
<linearGradient id="paint27_linear_64_2" x1="346.466" y1="319.193" x2="346.466" y2="345.193" gradientUnits="userSpaceOnUse">
<stop stop-color="#F5EA6F"/>
<stop offset="1" stop-color="#D2D862"/>
</linearGradient>
<linearGradient id="paint28_linear_64_2" x1="413.787" y1="175.193" x2="413.787" y2="201.193" gradientUnits="userSpaceOnUse">
<stop stop-color="#F5EA6F"/>
<stop offset="1" stop-color="#D2D862"/>
</linearGradient>
<linearGradient id="paint29_linear_64_2" x1="413.787" y1="211.193" x2="413.787" y2="237.193" gradientUnits="userSpaceOnUse">
<stop stop-color="#F5EA6F"/>
<stop offset="1" stop-color="#D2D862"/>
</linearGradient>
<linearGradient id="paint30_linear_64_2" x1="413.787" y1="247.193" x2="413.787" y2="273.193" gradientUnits="userSpaceOnUse">
<stop stop-color="#F5EA6F"/>
<stop offset="1" stop-color="#D2D862"/>
</linearGradient>
<linearGradient id="paint31_linear_64_2" x1="413.787" y1="283.193" x2="413.787" y2="309.193" gradientUnits="userSpaceOnUse">
<stop stop-color="#F5EA6F"/>
<stop offset="1" stop-color="#D2D862"/>
</linearGradient>
<linearGradient id="paint32_linear_64_2" x1="413.787" y1="319.193" x2="413.787" y2="345.193" gradientUnits="userSpaceOnUse">
<stop stop-color="#F5EA6F"/>
<stop offset="1" stop-color="#D2D862"/>
</linearGradient>
<linearGradient id="paint33_linear_64_2" x1="481.109" y1="175.193" x2="481.109" y2="201.193" gradientUnits="userSpaceOnUse">
<stop stop-color="#F5EA6F"/>
<stop offset="1" stop-color="#D2D862"/>
</linearGradient>
<linearGradient id="paint34_linear_64_2" x1="481.109" y1="211.193" x2="481.109" y2="237.193" gradientUnits="userSpaceOnUse">
<stop stop-color="#F5EA6F"/>
<stop offset="1" stop-color="#D2D862"/>
</linearGradient>
<linearGradient id="paint35_linear_64_2" x1="481.109" y1="247.193" x2="481.109" y2="273.193" gradientUnits="userSpaceOnUse">
<stop stop-color="#F5EA6F"/>
<stop offset="1" stop-color="#D2D862"/>
</linearGradient>
<linearGradient id="paint36_linear_64_2" x1="481.109" y1="283.193" x2="481.109" y2="309.193" gradientUnits="userSpaceOnUse">
<stop stop-color="#F5EA6F"/>
<stop offset="1" stop-color="#D2D862"/>
</linearGradient>
<linearGradient id="paint37_linear_64_2" x1="481.109" y1="319.193" x2="481.109" y2="345.193" gradientUnits="userSpaceOnUse">
<stop stop-color="#F5EA6F"/>
<stop offset="1" stop-color="#D2D862"/>
</linearGradient>
<linearGradient id="paint38_linear_64_2" x1="548.43" y1="211.193" x2="548.43" y2="237.193" gradientUnits="userSpaceOnUse">
<stop stop-color="#B7E093"/>
<stop offset="1" stop-color="#A5D07E"/>
</linearGradient>
<linearGradient id="paint39_linear_64_2" x1="548.43" y1="247.193" x2="548.43" y2="273.193" gradientUnits="userSpaceOnUse">
<stop stop-color="#B7E093"/>
<stop offset="1" stop-color="#A5D07E"/>
</linearGradient>
<linearGradient id="paint40_linear_64_2" x1="548.43" y1="283.193" x2="548.43" y2="309.193" gradientUnits="userSpaceOnUse">
<stop stop-color="#B7E093"/>
<stop offset="1" stop-color="#A5D07E"/>
</linearGradient>
<linearGradient id="paint41_linear_64_2" x1="548.43" y1="319.193" x2="548.43" y2="345.193" gradientUnits="userSpaceOnUse">
<stop stop-color="#B7E093"/>
<stop offset="1" stop-color="#A5D07E"/>
</linearGradient>
<linearGradient id="paint42_linear_64_2" x1="615.751" y1="247.193" x2="615.751" y2="273.193" gradientUnits="userSpaceOnUse">
<stop stop-color="#BC9BE5"/>
<stop offset="1" stop-color="#9A72FF"/>
</linearGradient>
<linearGradient id="paint43_linear_64_2" x1="615.751" y1="283.193" x2="615.751" y2="309.193" gradientUnits="userSpaceOnUse">
<stop stop-color="#BC9BE5"/>
<stop offset="1" stop-color="#9A72FF"/>
</linearGradient>
<linearGradient id="paint44_linear_64_2" x1="615.751" y1="319.193" x2="615.751" y2="345.193" gradientUnits="userSpaceOnUse">
<stop stop-color="#BC9BE5"/>
<stop offset="1" stop-color="#9A72FF"/>
</linearGradient>
<linearGradient id="paint45_linear_64_2" x1="683.073" y1="247.193" x2="683.073" y2="273.193" gradientUnits="userSpaceOnUse">
<stop stop-color="#BC9BE5"/>
<stop offset="1" stop-color="#9A72FF"/>
</linearGradient>
<linearGradient id="paint46_linear_64_2" x1="683.073" y1="283.193" x2="683.073" y2="309.193" gradientUnits="userSpaceOnUse">
<stop stop-color="#BC9BE5"/>
<stop offset="1" stop-color="#9A72FF"/>
</linearGradient>
<linearGradient id="paint47_linear_64_2" x1="683.073" y1="319.193" x2="683.073" y2="345.193" gradientUnits="userSpaceOnUse">
<stop stop-color="#BC9BE5"/>
<stop offset="1" stop-color="#9A72FF"/>
</linearGradient>
<linearGradient id="paint48_linear_64_2" x1="750.394" y1="247.193" x2="750.394" y2="273.193" gradientUnits="userSpaceOnUse">
<stop stop-color="#BC9BE5"/>
<stop offset="1" stop-color="#9A72FF"/>
</linearGradient>
<linearGradient id="paint49_linear_64_2" x1="750.394" y1="283.193" x2="750.394" y2="309.193" gradientUnits="userSpaceOnUse">
<stop stop-color="#BC9BE5"/>
<stop offset="1" stop-color="#9A72FF"/>
</linearGradient>
<linearGradient id="paint50_linear_64_2" x1="750.394" y1="319.193" x2="750.394" y2="345.193" gradientUnits="userSpaceOnUse">
<stop stop-color="#BC9BE5"/>
<stop offset="1" stop-color="#9A72FF"/>
</linearGradient>
<linearGradient id="paint51_linear_64_2" x1="817.715" y1="247.193" x2="817.715" y2="273.193" gradientUnits="userSpaceOnUse">
<stop stop-color="#BC9BE5"/>
<stop offset="1" stop-color="#9A72FF"/>
</linearGradient>
<linearGradient id="paint52_linear_64_2" x1="817.715" y1="283.193" x2="817.715" y2="309.193" gradientUnits="userSpaceOnUse">
<stop stop-color="#BC9BE5"/>
<stop offset="1" stop-color="#9A72FF"/>
</linearGradient>
<linearGradient id="paint53_linear_64_2" x1="817.715" y1="319.193" x2="817.715" y2="345.193" gradientUnits="userSpaceOnUse">
<stop stop-color="#BC9BE5"/>
<stop offset="1" stop-color="#9A72FF"/>
</linearGradient>
<linearGradient id="paint54_linear_64_2" x1="885.036" y1="283.193" x2="885.036" y2="309.193" gradientUnits="userSpaceOnUse">
<stop stop-color="#EB74EA"/>
<stop offset="1" stop-color="#D862D8"/>
</linearGradient>
<linearGradient id="paint55_linear_64_2" x1="885.036" y1="319.193" x2="885.036" y2="345.193" gradientUnits="userSpaceOnUse">
<stop stop-color="#EB74EA"/>
<stop offset="1" stop-color="#D862D8"/>
</linearGradient>
<linearGradient id="paint56_linear_64_2" x1="952.358" y1="319.193" x2="952.358" y2="345.193" gradientUnits="userSpaceOnUse">
<stop stop-color="#EC8934"/>
<stop offset="1" stop-color="#EA6A35"/>
</linearGradient>
</defs>
</svg>
