<svg width="77" height="60" viewBox="0 0 77 60" fill="none" xmlns="http://www.w3.org/2000/svg">
<path d="M40.1894 60C57.3461 60 71.2544 46.5685 71.2544 30C71.2544 13.4315 57.3461 0 40.1894 0C23.0326 0 9.12433 13.4315 9.12433 30C9.12433 46.5685 23.0326 60 40.1894 60Z" fill="#AEA9F2"/>
<path opacity="0.1" d="M40.1893 59.9994C57.3462 59.9994 71.2544 47.1563 71.2544 29.9994C71.2544 19.8797 66.4129 11.2639 58.9226 5.89551C58.6751 23.8417 54.1757 53.5033 27.6332 57.5272C31.4737 59.1207 35.719 59.9994 40.1893 59.9994Z" fill="black"/>
<path d="M24.676 9.2065C24.2243 7.98196 25.2163 6.48912 26.891 5.87126C28.5657 5.2534 30.2896 5.7453 30.7413 6.96984C31.1929 8.19437 30.2009 9.68722 28.5262 10.3051C26.8515 10.9222 25.1276 10.4303 24.676 9.2065Z" fill="#9C97D9"/>
<path d="M32.5329 12.9331C32.0813 11.7085 33.0733 10.2157 34.748 9.59782C36.4227 8.97997 38.1465 9.47187 38.5982 10.6964C39.0499 11.9209 38.0579 13.4138 36.3832 14.0316C34.7085 14.6495 32.9846 14.1576 32.5329 12.9331Z" fill="#9C97D9"/>
<path d="M31.8055 6.98511C31.5461 6.28229 32.1155 5.42444 33.0777 5.06968C34.0391 4.71491 35.0296 4.99739 35.289 5.70021C35.5484 6.40303 34.979 7.26088 34.0168 7.61564C33.0553 7.97041 32.0648 7.68793 31.8055 6.98511Z" fill="#9C97D9"/>
<path d="M25.9667 16.6077C25.7073 15.9048 26.2768 15.047 27.2389 14.6922C28.2011 14.3375 29.1909 14.6199 29.4503 15.3228C29.7096 16.0256 29.1402 16.8834 28.178 17.2382C27.2158 17.5937 26.2261 17.3105 25.9667 16.6077Z" fill="#9C97D9"/>
<path d="M22.1985 13.6737C22.0435 13.2541 22.3833 12.742 22.958 12.5304C23.5326 12.3187 24.1229 12.4871 24.2779 12.9067C24.4329 13.3264 24.0923 13.8384 23.5184 14.05C22.9445 14.2625 22.3535 14.094 22.1985 13.6737Z" fill="#9C97D9"/>
<path d="M28.0432 12.1976C27.8882 11.778 28.2281 11.266 28.8027 11.0543C29.3773 10.8426 29.9676 11.0111 30.1226 11.4307C30.2776 11.8503 29.9378 12.3623 29.3632 12.574C28.7893 12.7864 28.1982 12.6179 28.0432 12.1976Z" fill="#9C97D9"/>
<path d="M75.7718 6.48754C75.186 5.17134 74.1813 4.30828 72.8666 3.98929C68.7756 3.00325 62.7357 7.7322 62.0612 8.27553C62.0209 8.30833 61.9881 8.34633 61.9531 8.38211C62.5628 8.95227 63.1448 9.55 63.7038 10.1686C65.9062 8.41863 70.1127 5.90397 72.2793 6.4227C72.8398 6.5591 73.2124 6.89299 73.4852 7.50638C74.1135 8.91873 72.5565 13.0455 68.839 18.1396C64.2009 24.4963 56.1956 32.3608 44.8402 38.3553C33.6934 44.2395 22.9617 47.2341 15.1413 47.9936C8.90454 48.5987 4.51694 47.7834 3.25886 45.8672C2.5456 44.782 2.34214 43.6686 2.63429 42.4649C3.48543 38.95 8.1093 35.8503 9.52986 34.9694C9.39048 34.1197 9.29136 33.2544 9.22428 32.3772C9.05435 32.3928 8.88516 32.442 8.72641 32.5307C8.43053 32.6969 1.46566 36.6716 0.202369 41.8694C-0.257484 43.7595 0.0674678 45.5669 1.16605 47.2408C2.641 49.4864 6.39957 50.661 11.6346 50.6595C13.31 50.6595 15.1405 50.5358 17.0917 50.2913C25.2178 49.2747 35.4963 46.1169 46.008 40.5681C56.2851 35.143 64.6168 27.6825 69.8869 20.9651C74.7366 14.7873 76.9956 9.23697 75.7718 6.48754Z" fill="#C9C6F2"/>
</svg>
