<svg width="140" height="143" viewBox="0 0 140 143" fill="none" xmlns="http://www.w3.org/2000/svg">
<path d="M65.494 108.557L28.3313 114.416L4.67615 85.1621L18.1822 50.0483L55.3435 44.1887L78.9987 73.4416L65.494 108.557ZM29.194 112.176L63.9843 106.69L76.6277 73.8183L54.4822 46.4323L19.6919 51.9179L7.04712 84.7895L29.194 112.176Z" fill="#D6E7FF"/>
<path d="M114.73 69.2137L77.5689 75.0732L53.9137 45.8204L67.4198 10.7066L104.581 4.84705L128.238 34.0999L114.73 69.2137ZM78.4316 72.8325L113.22 67.3469L125.865 34.4752L103.718 7.08918L68.9295 12.5748L56.2847 45.4464L78.4316 72.8325Z" fill="#D6E7FF"/>
<path d="M124.557 131.526L87.3944 137.385L63.7391 108.132L77.2452 73.0186L114.406 67.1591L138.062 96.4119L124.557 131.526ZM88.2556 135.144L123.046 129.659L135.689 96.7872L113.544 69.4012L78.7549 74.8868L66.1102 107.76L88.2556 135.144Z" fill="#D6E7FF"/>
<path d="M61.126 43.6301C61.6036 46.6551 59.5365 49.4952 56.5115 49.9713C53.4865 50.4489 50.6463 48.3832 50.1702 45.3568C49.6926 42.3318 51.7583 39.4917 54.7847 39.0155C57.8097 38.5394 60.6498 40.6051 61.126 43.6301Z" fill="#CD73B9"/>
<path d="M73.8913 11.0901C74.3688 14.1151 72.3031 16.9553 69.2767 17.4314C66.2517 17.909 63.4116 15.8433 62.9354 12.8169C62.4579 9.7919 64.5235 6.95177 67.5499 6.47561C70.5749 5.99805 73.4137 8.06373 73.8913 11.0901Z" fill="#E8B360"/>
<path d="M83.7168 73.4023C84.1944 76.4273 82.1287 79.2675 79.1023 79.7436C76.0773 80.2212 73.2372 78.1555 72.761 75.1291C72.2835 72.1041 74.3491 69.264 77.3755 68.7878C80.4005 68.3103 83.2393 70.3774 83.7168 73.4023Z" fill="#E8B360"/>
<path d="M70.7709 107.023C71.2485 110.048 69.1828 112.888 66.1564 113.365C63.1314 113.842 60.2912 111.777 59.8151 108.75C59.3375 105.725 61.4032 102.885 64.4296 102.409C67.4546 101.933 70.2948 103.998 70.7709 107.023Z" fill="#E8B360"/>
<path d="M24.6537 50.4334C25.1313 53.4584 23.0642 56.2985 20.0392 56.7747C17.0142 57.2522 14.1741 55.1866 13.6979 52.1602C13.2203 49.1352 15.286 46.295 18.3124 45.8189C21.3374 45.3427 24.1776 47.4084 24.6537 50.4334Z" fill="#EA645E"/>
<path d="M11.0244 84.1623C11.502 87.1873 9.43634 90.0274 6.40994 90.5036C3.38494 90.9811 0.544783 88.9154 0.0686254 85.889C-0.408932 82.864 1.65677 80.0239 4.68317 79.5478C7.70817 79.0716 10.5469 81.1373 11.0244 84.1623Z" fill="#CD73B9"/>
<path d="M34.4794 112.746C34.9569 115.771 32.8898 118.611 29.8648 119.087C26.8398 119.564 23.9997 117.499 23.5235 114.472C23.046 111.447 25.113 108.607 28.138 108.131C31.163 107.655 34.0032 109.721 34.4794 112.746Z" fill="#CCE561"/>
<path d="M129.834 129.992C130.312 133.017 128.246 135.857 125.22 136.334C122.193 136.81 119.354 134.744 118.878 131.719C118.401 128.694 120.466 125.854 123.493 125.378C126.518 124.9 129.356 126.967 129.834 129.992Z" fill="#EA645E"/>
<path d="M139.931 96.118C140.409 99.143 138.343 101.983 135.317 102.459C132.292 102.937 129.452 100.871 128.976 97.8447C128.498 94.8197 130.564 91.9796 133.59 91.5034C136.615 91.0273 139.454 93.093 139.931 96.118Z" fill="#CD73B9"/>
<path d="M130.106 33.8058C130.583 36.8308 128.518 39.671 125.491 40.1471C122.466 40.6247 119.626 38.559 119.15 35.5326C118.672 32.5076 120.738 29.6675 123.764 29.1913C126.789 28.7151 129.628 30.7808 130.106 33.8058Z" fill="#CD73B9"/>
<path d="M110.075 4.68315C110.553 7.70815 108.487 10.5483 105.46 11.0244C102.435 11.502 99.5953 9.43492 99.1192 6.40992C98.6416 3.38492 100.707 0.544783 103.734 0.0686258C106.759 -0.408932 109.597 1.65675 110.075 4.68315Z" fill="#CCE561"/>
<path d="M93.5412 135.715C94.0187 138.74 91.9531 141.58 88.9267 142.056C85.9017 142.533 83.0615 140.468 82.5853 137.441C82.1078 134.416 84.1735 131.576 87.1999 131.1C90.2249 130.624 93.065 132.69 93.5412 135.715Z" fill="#CD73B9"/>
<path d="M120.009 67.6801C120.486 70.7051 118.42 73.5452 115.394 74.0214C112.369 74.4989 109.529 72.4333 109.053 69.4069C108.575 66.3819 110.642 63.5417 113.667 63.0656C116.692 62.588 119.531 64.6537 120.009 67.6801Z" fill="#CCE561"/>
</svg>
