<svg width="511" height="511" viewBox="0 0 511 511" fill="none" xmlns="http://www.w3.org/2000/svg">
<g filter="url(#filter0_d_44_7277)">
<circle cx="255.5" cy="255.5" r="195.5" fill="white"/>
</g>
<path d="M254.992 160.073L263.413 167.324C276.807 177.696 289.568 188.909 302.481 199.869C309.632 205.939 317.458 211.775 324.271 218.178C323.814 220.019 323.241 221.698 322.536 223.459C315.99 220.362 310.339 214.778 304.8 210.134C289.841 197.584 274.131 181.794 256.535 173.139C252.087 175.183 247.785 177.679 243.462 179.975C233.95 188.61 199.111 221.804 189.665 225.072C188.946 224.046 188.206 223.052 187.596 221.959C188.141 219.362 188.606 217.007 190.301 214.863C198.17 204.907 242.88 168.677 254.992 160.073Z" fill="#D92B3E"/>
<path d="M249.285 124.538C251.85 124.215 256.379 123.402 258.69 124.755C265.754 128.886 282.444 146.052 289.658 152.37C306.022 166.702 324.407 179.972 339.685 195.38C341.575 197.288 343.869 199.995 344.28 202.765C344.709 205.636 344.13 206.277 342.713 208.66C340.563 210.052 338.862 210.946 336.277 211.233C332.042 211.704 327.506 210.524 323.907 208.278C318.605 204.97 313.972 198.936 309.107 194.815C292.332 180.811 275.644 166.704 259.042 152.494C257.343 151.441 255.173 150.212 253.161 150.669C241.287 153.36 185.831 212.19 173.941 211.497C171.752 211.369 169.893 210.383 168.676 208.54C167.197 206.301 166.75 202.791 167.126 200.176C167.486 197.654 168.325 196.175 169.997 194.285C182.486 180.166 199.322 167.792 213.557 155.378C225.186 145.239 236.655 133.278 249.285 124.538Z" fill="#F3505A"/>
<path d="M243.461 179.974C247.785 177.678 252.087 175.182 256.534 173.138C274.13 181.793 289.84 197.584 304.799 210.133C310.338 214.778 315.988 220.361 322.535 223.458C323.24 221.698 323.813 220.018 324.27 218.177C324.117 232.865 326.528 281.272 322.193 292.457C318.33 295.312 312.904 295.989 308.224 296.407C291.093 297.929 272.743 296.704 255.503 296.728C238.139 296.75 217.222 298.626 200.439 296.005C196.618 295.408 193.276 294.698 189.973 292.652C182.381 276.657 191.178 240.735 187.595 221.957C188.205 223.05 188.946 224.044 189.664 225.07C199.11 221.803 233.95 188.609 243.461 179.974Z" fill="#F3505A"/>
<path d="M236.583 228.205C248.194 228.024 259.804 228.042 271.414 228.26C271.715 241.495 271.501 254.781 271.516 268.02L236.525 268.166C236.113 254.844 236.132 241.524 236.583 228.205Z" fill="white"/>
<path d="M174.154 342.58C174.34 342.533 174.714 342.533 175.274 342.58C175.88 342.58 176.23 342.627 176.324 342.72C176.464 342.813 176.697 342.953 177.024 343.14C178.33 343.747 178.89 344.96 178.704 346.78C178.657 347.247 178.424 347.76 178.004 348.32C177.584 348.833 177.21 349.09 176.884 349.09C176.744 349.09 176.604 349.16 176.464 349.3C176.37 349.393 176.23 349.487 176.044 349.58C175.764 349.673 175.04 350.28 173.874 351.4C173.174 352.053 172.66 352.497 172.334 352.73C171.727 353.15 171.564 353.453 171.844 353.64C171.984 353.733 174.527 353.78 179.474 353.78C184.42 353.733 187.174 353.64 187.734 353.5C188.06 353.453 188.574 353.36 189.274 353.22C189.647 353.173 192.074 353.103 196.554 353.01C201.08 352.963 203.554 352.87 203.974 352.73C204.487 352.543 205.257 352.473 206.284 352.52C207.31 352.567 208.104 352.707 208.664 352.94C209.877 353.453 210.6 354.27 210.834 355.39C211.067 356.463 210.74 357.467 209.854 358.4C209.387 358.913 208.944 359.217 208.524 359.31C208.15 359.403 207.264 359.45 205.864 359.45C204.277 359.45 203.297 359.52 202.924 359.66C202.597 359.8 200.17 359.87 195.644 359.87C191.07 359.87 188.504 359.94 187.944 360.08C187.384 360.22 184.584 360.337 179.544 360.43C174.504 360.477 171.937 360.547 171.844 360.64C171.704 360.78 171.704 360.897 171.844 360.99C172.03 360.99 172.497 361.317 173.244 361.97C173.524 362.203 173.687 362.32 173.734 362.32C173.827 362.32 174.13 362.53 174.644 362.95C175.204 363.37 175.53 363.58 175.624 363.58C175.764 363.58 176.184 363.93 176.884 364.63C177.63 365.283 178.144 365.797 178.424 366.17C178.61 366.45 178.68 367.01 178.634 367.85C178.634 368.643 178.54 369.18 178.354 369.46C177.887 370.113 177.42 370.557 176.954 370.79C176.534 371.023 175.95 371.117 175.204 371.07C174.364 371.023 173.92 370.953 173.874 370.86C173.874 370.767 173.71 370.603 173.384 370.37C173.057 370.183 172.684 369.927 172.264 369.6C171.797 369.273 171.424 369.063 171.144 368.97C170.864 368.83 170.724 368.713 170.724 368.62C170.724 368.527 170.56 368.387 170.234 368.2C169.86 367.967 169.487 367.687 169.114 367.36C168.88 367.173 168.507 366.917 167.994 366.59C167.48 366.217 166.99 365.82 166.524 365.4C166.01 364.933 165.404 364.443 164.704 363.93C163.864 363.23 162.837 362.25 161.624 360.99C160.41 359.73 159.757 358.96 159.664 358.68C159.524 358.353 159.407 358.143 159.314 358.05C159.22 357.957 159.174 357.63 159.174 357.07C159.22 356.463 159.29 356.09 159.384 355.95C159.57 355.763 159.664 355.623 159.664 355.53C159.664 355.017 160.76 353.827 162.954 351.96C163.14 351.773 163.397 351.54 163.724 351.26C164.097 350.933 164.307 350.747 164.354 350.7C164.727 350.373 165.077 350.07 165.404 349.79C165.73 349.463 166.127 349.09 166.594 348.67C167.48 347.783 168.32 347.06 169.114 346.5C169.394 346.267 169.767 345.917 170.234 345.45C170.654 345.03 171.214 344.563 171.914 344.05C172.474 343.63 172.847 343.35 173.034 343.21C173.127 343.117 173.244 343.07 173.384 343.07C173.524 343.07 173.64 343 173.734 342.86C173.827 342.767 173.967 342.673 174.154 342.58ZM228.109 327.18C228.996 326.527 229.812 326.41 230.559 326.83C230.792 326.97 231.002 327.04 231.189 327.04C231.562 327.04 232.029 327.437 232.589 328.23C232.869 328.697 233.102 330.19 233.289 332.71L233.359 333.97H237.979C240.219 333.97 241.549 333.993 241.969 334.04C242.436 334.04 242.809 334.11 243.089 334.25C244.209 334.857 244.932 335.72 245.259 336.84C245.352 337.213 245.282 337.703 245.049 338.31C244.816 338.87 244.512 339.337 244.139 339.71C243.672 340.177 243.159 340.503 242.599 340.69C242.039 340.83 241.106 340.9 239.799 340.9C238.492 340.9 237.816 340.923 237.769 340.97C237.722 341.063 237.769 341.25 237.909 341.53C238.049 341.81 238.166 341.997 238.259 342.09C238.352 342.183 238.586 342.65 238.959 343.49C239.286 344.143 239.496 344.983 239.589 346.01C239.729 346.99 239.706 347.83 239.519 348.53C239.099 350.117 238.516 351.4 237.769 352.38C237.069 353.36 235.972 354.293 234.479 355.18C234.106 355.46 233.849 355.693 233.709 355.88C233.616 356.02 233.569 356.323 233.569 356.79C233.569 356.837 233.569 356.883 233.569 356.93C233.569 357.397 233.732 357.677 234.059 357.77C234.432 357.817 235.692 357.84 237.839 357.84C238.212 357.84 238.516 357.84 238.749 357.84C241.969 357.793 243.999 357.84 244.839 357.98C245.726 358.12 246.472 358.517 247.079 359.17C247.732 359.87 247.989 360.71 247.849 361.69C247.709 362.623 247.196 363.393 246.309 364C245.796 364.373 245.166 364.583 244.419 364.63C243.719 364.677 241.409 364.7 237.489 364.7C233.056 364.653 228.272 364.7 223.139 364.84C218.239 364.933 215.602 364.91 215.229 364.77C213.782 364.35 212.849 363.557 212.429 362.39C212.056 361.223 212.336 360.127 213.269 359.1C213.782 358.54 214.366 358.213 215.019 358.12C215.719 358.027 217.679 357.98 220.899 357.98C220.946 357.98 221.039 357.98 221.179 357.98C224.026 357.98 225.682 357.957 226.149 357.91C226.662 357.817 226.919 357.537 226.919 357.07C226.919 356.417 226.639 356.043 226.079 355.95C225.799 355.903 225.239 355.647 224.399 355.18C223.559 354.713 222.906 354.293 222.439 353.92C221.086 352.8 220.222 351.237 219.849 349.23C219.476 347.223 219.732 345.38 220.619 343.7C220.806 343.327 220.899 343.14 220.899 343.14C221.039 342.86 221.202 342.557 221.389 342.23C221.622 341.763 221.576 341.507 221.249 341.46C221.062 341.413 220.456 341.39 219.429 341.39C218.076 341.39 217.189 341.297 216.769 341.11C216.442 340.97 216.092 340.737 215.719 340.41C215.346 340.083 215.159 339.85 215.159 339.71C215.159 339.57 215.089 339.383 214.949 339.15C214.716 338.683 214.669 338.123 214.809 337.47C214.949 336.817 215.229 336.257 215.649 335.79C216.069 335.323 216.792 334.997 217.819 334.81C218.892 334.577 220.596 334.437 222.929 334.39C224.889 334.343 226.009 334.25 226.289 334.11C226.569 333.97 226.639 333.503 226.499 332.71C226.266 331.217 226.266 330.073 226.499 329.28C226.732 328.487 227.269 327.787 228.109 327.18ZM231.889 345.52C231.609 345.38 231.072 345.287 230.279 345.24C229.532 345.193 228.972 345.217 228.599 345.31C227.479 345.59 226.802 346.197 226.569 347.13C226.336 348.017 226.662 348.717 227.549 349.23C227.969 349.463 228.669 349.557 229.649 349.51C230.676 349.463 231.352 349.3 231.679 349.02C232.426 348.46 232.822 347.807 232.869 347.06C232.916 346.313 232.589 345.8 231.889 345.52ZM225.939 366.45C228.086 366.263 231.026 366.24 234.759 366.38C238.539 366.52 240.709 366.707 241.269 366.94C242.342 367.453 243.042 368.317 243.369 369.53C243.462 369.903 243.486 371.373 243.439 373.94C243.439 376.46 243.369 378.793 243.229 380.94C243.089 382.76 242.716 384.09 242.109 384.93C241.549 385.817 240.616 386.4 239.309 386.68C238.796 386.773 235.926 386.843 230.699 386.89C225.519 386.983 222.556 387.007 221.809 386.96C220.782 386.82 219.849 386.493 219.009 385.98C218.169 385.513 217.749 385.047 217.749 384.58C217.749 384.487 217.656 384.3 217.469 384.02C217.282 383.647 217.189 381.15 217.189 376.53C217.236 371.863 217.376 369.343 217.609 368.97C218.122 368.083 218.799 367.523 219.639 367.29C220.526 367.01 222.626 366.73 225.939 366.45ZM236.299 373.45C236.066 373.17 233.989 373.053 230.069 373.1C226.196 373.147 224.166 373.287 223.979 373.52C223.886 373.707 223.839 374.803 223.839 376.81C223.886 378.817 223.956 379.89 224.049 380.03C224.189 380.217 225.589 380.24 228.249 380.1C231.422 380.007 233.429 379.96 234.269 379.96C235.622 379.913 236.346 379.867 236.439 379.82C236.579 379.633 236.626 378.56 236.579 376.6C236.579 374.64 236.486 373.59 236.299 373.45ZM264.461 335.93C264.741 335.79 265.511 335.72 266.771 335.72C268.171 335.673 269.478 335.86 270.691 336.28C271.018 336.42 271.251 336.49 271.391 336.49C271.671 336.49 272.231 336.723 273.071 337.19C273.911 337.61 274.425 337.89 274.611 338.03C276.105 339.15 277.201 340.363 277.901 341.67C278.415 342.65 278.858 344.027 279.231 345.8C279.278 346.173 279.301 346.803 279.301 347.69C279.301 348.577 279.278 349.23 279.231 349.65C278.951 350.91 278.741 351.703 278.601 352.03C278.461 352.31 278.391 352.497 278.391 352.59C278.391 352.73 278.158 353.173 277.691 353.92C277.225 354.667 276.805 355.273 276.431 355.74C275.405 357.093 274.168 358.097 272.721 358.75C272.395 358.937 272.091 359.1 271.811 359.24C271.345 359.427 270.458 359.567 269.151 359.66C267.845 359.753 266.748 359.73 265.861 359.59C262.875 359.123 260.308 357.84 258.161 355.74C256.715 354.293 255.758 352.52 255.291 350.42C254.871 348.32 255.035 346.243 255.781 344.19C256.481 342.323 257.508 340.737 258.861 339.43C260.261 338.123 262.128 336.957 264.461 335.93ZM270.131 343.42C269.431 343.14 268.521 343.047 267.401 343.14C266.328 343.233 265.441 343.49 264.741 343.91C263.948 344.423 263.318 345.24 262.851 346.36C262.385 347.48 262.245 348.507 262.431 349.44C262.711 350.653 263.505 351.563 264.811 352.17C266.118 352.73 267.518 352.847 269.011 352.52C269.478 352.38 269.781 352.263 269.921 352.17C270.061 352.03 270.178 351.96 270.271 351.96C270.411 351.96 270.621 351.75 270.901 351.33C271.181 350.91 271.391 350.513 271.531 350.14C272.838 346.687 272.371 344.447 270.131 343.42ZM252.561 370.37C253.261 370.323 253.705 370.323 253.891 370.37C254.171 370.37 256.505 370.417 260.891 370.51C265.325 370.603 267.588 370.673 267.681 370.72C267.775 370.767 270.551 370.813 276.011 370.86C276.385 370.86 276.898 370.86 277.551 370.86C281.145 370.86 283.291 370.907 283.991 371C284.691 371.093 285.275 371.397 285.741 371.91C285.835 372.003 285.905 372.073 285.951 372.12C286.745 372.913 287.001 373.847 286.721 374.92C286.488 375.993 285.788 376.857 284.621 377.51C283.875 377.977 278.975 378.07 269.921 377.79C266.421 377.65 262.548 377.557 258.301 377.51C255.175 377.463 253.331 377.44 252.771 377.44C252.211 377.393 251.745 377.277 251.371 377.09C250.298 376.483 249.621 375.667 249.341 374.64C249.108 373.567 249.271 372.61 249.831 371.77C250.438 370.93 251.348 370.463 252.561 370.37ZM307.766 334.18C310.939 333.9 313.273 333.993 314.766 334.46C316.259 334.927 317.193 335.86 317.566 337.26C317.753 337.82 317.823 339.523 317.776 342.37C317.729 345.17 317.636 346.943 317.496 347.69C317.076 349.697 316.329 350.957 315.256 351.47C314.976 351.563 314.649 351.703 314.276 351.89C313.669 352.17 312.829 352.357 311.756 352.45C310.683 352.543 308.653 352.59 305.666 352.59C305.339 352.59 304.896 352.59 304.336 352.59C302.516 352.59 301.443 352.66 301.116 352.8C300.836 352.94 300.696 353.383 300.696 354.13C300.696 354.363 300.696 354.55 300.696 354.69C300.696 355.763 300.813 356.37 301.046 356.51C301.326 356.65 302.469 356.743 304.476 356.79C306.763 356.883 309.633 356.907 313.086 356.86C316.073 356.86 317.846 356.907 318.406 357C318.966 357.047 319.549 357.327 320.156 357.84C320.949 358.54 321.346 359.357 321.346 360.29C321.346 361.177 320.949 361.993 320.156 362.74C319.643 363.253 319.129 363.603 318.616 363.79C318.103 363.93 317.239 364 316.026 364C312.853 364 311.173 364.093 310.986 364.28C310.846 364.42 310.753 366.8 310.706 371.42C310.706 371.513 310.706 371.63 310.706 371.77C310.659 372.423 310.799 372.797 311.126 372.89C311.499 372.983 312.713 373.007 314.766 372.96C315.326 372.96 315.769 372.96 316.096 372.96C319.596 372.867 321.673 372.797 322.326 372.75C323.726 372.657 324.846 372.983 325.686 373.73C326.573 374.477 326.946 375.387 326.806 376.46C326.713 377.487 326.083 378.373 324.916 379.12C324.543 379.353 324.193 379.493 323.866 379.54C323.539 379.587 322.559 379.633 320.926 379.68C302.306 380.287 292.249 380.31 290.756 379.75C289.309 379.283 288.469 378.373 288.236 377.02C288.049 375.62 288.563 374.477 289.776 373.59L290.546 373.03H297.056C301.396 373.03 303.636 372.983 303.776 372.89C303.916 372.703 303.916 370.603 303.776 366.59C303.729 365.143 303.589 364.327 303.356 364.14C303.169 363.953 302.283 363.837 300.696 363.79C298.783 363.697 297.359 363.44 296.426 363.02C295.539 362.6 294.863 361.877 294.396 360.85C294.116 360.243 293.929 358.587 293.836 355.88C293.743 353.127 293.789 351.073 293.976 349.72C294.116 348.927 294.443 348.18 294.956 347.48C295.469 346.733 295.983 346.36 296.496 346.36C296.636 346.36 296.753 346.313 296.846 346.22C296.939 346.08 297.826 345.94 299.506 345.8C301.233 345.613 302.633 345.52 303.706 345.52C305.013 345.52 306.436 345.473 307.976 345.38C309.516 345.24 310.356 345.123 310.496 345.03C310.729 344.89 310.846 344.26 310.846 343.14C310.846 342.02 310.729 341.39 310.496 341.25C310.076 340.923 306.389 341.157 299.436 341.95C297.849 342.137 296.589 341.88 295.656 341.18C294.723 340.433 294.326 339.43 294.466 338.17C294.606 337.003 295.073 336.163 295.866 335.65C296.706 335.137 298.059 334.833 299.926 334.74C303.426 334.507 306.039 334.32 307.766 334.18Z" fill="#D92B3E"/>
<defs>
<filter id="filter0_d_44_7277" x="0" y="0" width="511" height="511" filterUnits="userSpaceOnUse" color-interpolation-filters="sRGB">
<feFlood flood-opacity="0" result="BackgroundImageFix"/>
<feColorMatrix in="SourceAlpha" type="matrix" values="0 0 0 0 0 0 0 0 0 0 0 0 0 0 0 0 0 0 127 0" result="hardAlpha"/>
<feOffset/>
<feGaussianBlur stdDeviation="30"/>
<feComposite in2="hardAlpha" operator="out"/>
<feColorMatrix type="matrix" values="0 0 0 0 0.875 0 0 0 0 0.73758 0 0 0 0 0.74601 0 0 0 1 0"/>
<feBlend mode="normal" in2="BackgroundImageFix" result="effect1_dropShadow_44_7277"/>
<feBlend mode="normal" in="SourceGraphic" in2="effect1_dropShadow_44_7277" result="shape"/>
</filter>
</defs>
</svg>
