<svg width="817" height="70" viewBox="0 0 817 70" fill="none" xmlns="http://www.w3.org/2000/svg">
<rect width="817" height="70" fill="#89C6FF"/>
<path d="M60.4583 49.8218L52.0169 41.3803C53.557 39.4416 54.5918 37.0844 55.0154 34.5429C55.4377 32.0085 55.2263 29.4467 54.4053 27.1112L54.4318 27.1002L53.6516 25.2635L53.6254 25.2747C52.3546 22.7308 50.4405 20.6335 48.0733 19.195C45.6683 17.7338 42.8741 16.9747 39.995 17.0006C37.1146 17.0257 34.3353 17.8329 31.9577 19.3349C29.4089 20.945 27.4219 23.3121 26.2117 26.1806L26.2081 26.1893C24.8037 29.6432 24.62 33.2259 25.6766 36.5501C26.1633 38.0816 26.9017 39.5271 27.8711 40.8468C28.8136 42.1299 29.9505 43.2619 31.2498 44.2115C32.5483 45.1603 33.9711 45.8992 35.4783 46.4073C37.0247 46.9285 38.6208 47.1928 40.2221 47.1928H40.2343C43.5096 47.1899 46.6824 46.0694 49.4296 43.9485C49.8924 44.4075 50.6622 45.2004 51.4103 45.971L51.417 45.9777C52.749 47.3498 54.4068 49.0576 55.7998 50.4174C58.2463 52.8057 58.6984 52.9844 59.1086 52.9844L59.126 52.9842C59.1886 52.9832 59.2503 52.9752 59.3102 52.9606C59.9934 52.9142 60.5827 52.4825 60.8543 51.8259C61.1467 51.1209 60.9911 50.3345 60.4583 49.8218ZM51.7624 32.0497V32.0591C51.7639 34.8676 50.8647 37.4205 49.1621 39.4414C47.613 41.28 45.4172 42.634 42.9795 43.2536C40.5385 43.8741 37.9582 43.7326 35.7138 42.8551C33.248 41.8911 31.2358 40.076 29.8935 37.6033L29.8908 37.5982C28.6678 35.408 28.2088 32.9779 28.5635 30.5706C28.8938 28.328 29.8942 26.2041 31.4565 24.4284C33.0188 22.6526 34.9982 21.3901 37.1805 20.777C38.1376 20.5081 39.1247 20.3716 40.1143 20.3716C41.5375 20.3716 42.9528 20.6499 44.324 21.2002L44.3348 21.2044C46.4673 22.0121 48.3803 23.5327 49.7211 25.4863C51.0648 27.4445 51.79 29.7756 51.7624 32.0497Z" fill="white"/>
</svg>
